G04 #@! TF.GenerationSoftware,KiCad,Pcbnew,8.0.5*
G04 #@! TF.CreationDate,2025-03-07T10:13:00-08:00*
G04 #@! TF.ProjectId,Telemetry PCB V2,54656c65-6d65-4747-9279-205043422056,rev?*
G04 #@! TF.SameCoordinates,Original*
G04 #@! TF.FileFunction,Legend,Top*
G04 #@! TF.FilePolarity,Positive*
%FSLAX46Y46*%
G04 Gerber Fmt 4.6, Leading zero omitted, Abs format (unit mm)*
G04 Created by KiCad (PCBNEW 8.0.5) date 2025-03-07 10:13:00*
%MOMM*%
%LPD*%
G01*
G04 APERTURE LIST*
G04 Aperture macros list*
%AMRoundRect*
0 Rectangle with rounded corners*
0 $1 Rounding radius*
0 $2 $3 $4 $5 $6 $7 $8 $9 X,Y pos of 4 corners*
0 Add a 4 corners polygon primitive as box body*
4,1,4,$2,$3,$4,$5,$6,$7,$8,$9,$2,$3,0*
0 Add four circle primitives for the rounded corners*
1,1,$1+$1,$2,$3*
1,1,$1+$1,$4,$5*
1,1,$1+$1,$6,$7*
1,1,$1+$1,$8,$9*
0 Add four rect primitives between the rounded corners*
20,1,$1+$1,$2,$3,$4,$5,0*
20,1,$1+$1,$4,$5,$6,$7,0*
20,1,$1+$1,$6,$7,$8,$9,0*
20,1,$1+$1,$8,$9,$2,$3,0*%
%AMHorizOval*
0 Thick line with rounded ends*
0 $1 width*
0 $2 $3 position (X,Y) of the first rounded end (center of the circle)*
0 $4 $5 position (X,Y) of the second rounded end (center of the circle)*
0 Add line between two ends*
20,1,$1,$2,$3,$4,$5,0*
0 Add two circle primitives to create the rounded ends*
1,1,$1,$2,$3*
1,1,$1,$4,$5*%
G04 Aperture macros list end*
%ADD10C,0.180000*%
%ADD11C,0.120000*%
%ADD12C,0.152400*%
%ADD13C,0.127000*%
%ADD14C,0.200000*%
%ADD15C,0.300000*%
%ADD16RoundRect,0.250000X0.650000X-0.412500X0.650000X0.412500X-0.650000X0.412500X-0.650000X-0.412500X0*%
%ADD17RoundRect,0.062500X-0.375000X-0.062500X0.375000X-0.062500X0.375000X0.062500X-0.375000X0.062500X0*%
%ADD18RoundRect,0.062500X-0.062500X-0.375000X0.062500X-0.375000X0.062500X0.375000X-0.062500X0.375000X0*%
%ADD19R,5.600000X5.600000*%
%ADD20R,0.711200X0.711200*%
%ADD21RoundRect,0.250000X-0.625000X0.400000X-0.625000X-0.400000X0.625000X-0.400000X0.625000X0.400000X0*%
%ADD22RoundRect,0.237500X0.237500X-0.300000X0.237500X0.300000X-0.237500X0.300000X-0.237500X-0.300000X0*%
%ADD23C,0.650000*%
%ADD24RoundRect,0.150000X-0.150000X-0.435000X0.150000X-0.435000X0.150000X0.435000X-0.150000X0.435000X0*%
%ADD25RoundRect,0.150000X-0.150000X-0.447500X0.150000X-0.447500X0.150000X0.447500X-0.150000X0.447500X0*%
%ADD26RoundRect,0.075000X-0.075000X-0.575000X0.075000X-0.575000X0.075000X0.575000X-0.075000X0.575000X0*%
%ADD27O,1.000000X2.100000*%
%ADD28O,1.000000X1.600000*%
%ADD29C,2.000000*%
%ADD30RoundRect,0.250000X-0.650000X0.412500X-0.650000X-0.412500X0.650000X-0.412500X0.650000X0.412500X0*%
%ADD31R,1.498600X3.987800*%
%ADD32R,1.700000X1.700000*%
%ADD33O,1.700000X1.700000*%
%ADD34RoundRect,0.250000X0.625000X-0.400000X0.625000X0.400000X-0.625000X0.400000X-0.625000X-0.400000X0*%
%ADD35RoundRect,0.237500X-0.237500X0.300000X-0.237500X-0.300000X0.237500X-0.300000X0.237500X0.300000X0*%
%ADD36RoundRect,0.102000X0.755000X-1.040000X0.755000X1.040000X-0.755000X1.040000X-0.755000X-1.040000X0*%
%ADD37R,0.558800X0.950500*%
%ADD38RoundRect,0.150000X-0.587500X-0.150000X0.587500X-0.150000X0.587500X0.150000X-0.587500X0.150000X0*%
%ADD39RoundRect,0.250000X0.400000X0.625000X-0.400000X0.625000X-0.400000X-0.625000X0.400000X-0.625000X0*%
%ADD40RoundRect,0.102000X-0.950000X0.550000X-0.950000X-0.550000X0.950000X-0.550000X0.950000X0.550000X0*%
%ADD41R,2.000000X7.875000*%
%ADD42RoundRect,0.237500X-0.300000X-0.237500X0.300000X-0.237500X0.300000X0.237500X-0.300000X0.237500X0*%
%ADD43RoundRect,0.237500X0.300000X0.237500X-0.300000X0.237500X-0.300000X-0.237500X0.300000X-0.237500X0*%
%ADD44RoundRect,0.250000X0.412500X0.650000X-0.412500X0.650000X-0.412500X-0.650000X0.412500X-0.650000X0*%
%ADD45RoundRect,0.150000X-0.512500X-0.150000X0.512500X-0.150000X0.512500X0.150000X-0.512500X0.150000X0*%
%ADD46RoundRect,0.250000X0.088388X-0.936916X0.936916X-0.088388X-0.088388X0.936916X-0.936916X0.088388X0*%
%ADD47HorizOval,1.700000X-0.088388X0.088388X0.088388X-0.088388X0*%
%ADD48RoundRect,0.090000X0.360000X-0.660000X0.360000X0.660000X-0.360000X0.660000X-0.360000X-0.660000X0*%
%ADD49RoundRect,0.250000X-0.750000X0.600000X-0.750000X-0.600000X0.750000X-0.600000X0.750000X0.600000X0*%
%ADD50O,2.000000X1.700000*%
G04 APERTURE END LIST*
D10*
X168303019Y-102692856D02*
X168350639Y-102740475D01*
X168350639Y-102740475D02*
X168398258Y-102883332D01*
X168398258Y-102883332D02*
X168398258Y-102978570D01*
X168398258Y-102978570D02*
X168350639Y-103121427D01*
X168350639Y-103121427D02*
X168255400Y-103216665D01*
X168255400Y-103216665D02*
X168160162Y-103264284D01*
X168160162Y-103264284D02*
X167969686Y-103311903D01*
X167969686Y-103311903D02*
X167826829Y-103311903D01*
X167826829Y-103311903D02*
X167636353Y-103264284D01*
X167636353Y-103264284D02*
X167541115Y-103216665D01*
X167541115Y-103216665D02*
X167445877Y-103121427D01*
X167445877Y-103121427D02*
X167398258Y-102978570D01*
X167398258Y-102978570D02*
X167398258Y-102883332D01*
X167398258Y-102883332D02*
X167445877Y-102740475D01*
X167445877Y-102740475D02*
X167493496Y-102692856D01*
X168398258Y-101740475D02*
X168398258Y-102311903D01*
X168398258Y-102026189D02*
X167398258Y-102026189D01*
X167398258Y-102026189D02*
X167541115Y-102121427D01*
X167541115Y-102121427D02*
X167636353Y-102216665D01*
X167636353Y-102216665D02*
X167683972Y-102311903D01*
X167731591Y-100883332D02*
X168398258Y-100883332D01*
X167350639Y-101121427D02*
X168064924Y-101359522D01*
X168064924Y-101359522D02*
X168064924Y-100740475D01*
X149850595Y-85983259D02*
X149850595Y-86792782D01*
X149850595Y-86792782D02*
X149898214Y-86888020D01*
X149898214Y-86888020D02*
X149945833Y-86935640D01*
X149945833Y-86935640D02*
X150041071Y-86983259D01*
X150041071Y-86983259D02*
X150231547Y-86983259D01*
X150231547Y-86983259D02*
X150326785Y-86935640D01*
X150326785Y-86935640D02*
X150374404Y-86888020D01*
X150374404Y-86888020D02*
X150422023Y-86792782D01*
X150422023Y-86792782D02*
X150422023Y-85983259D01*
X151422023Y-86983259D02*
X150850595Y-86983259D01*
X151136309Y-86983259D02*
X151136309Y-85983259D01*
X151136309Y-85983259D02*
X151041071Y-86126116D01*
X151041071Y-86126116D02*
X150945833Y-86221354D01*
X150945833Y-86221354D02*
X150850595Y-86268973D01*
X138491905Y-52123259D02*
X138491905Y-51123259D01*
X138491905Y-51123259D02*
X138730000Y-51123259D01*
X138730000Y-51123259D02*
X138872857Y-51170878D01*
X138872857Y-51170878D02*
X138968095Y-51266116D01*
X138968095Y-51266116D02*
X139015714Y-51361354D01*
X139015714Y-51361354D02*
X139063333Y-51551830D01*
X139063333Y-51551830D02*
X139063333Y-51694687D01*
X139063333Y-51694687D02*
X139015714Y-51885163D01*
X139015714Y-51885163D02*
X138968095Y-51980401D01*
X138968095Y-51980401D02*
X138872857Y-52075640D01*
X138872857Y-52075640D02*
X138730000Y-52123259D01*
X138730000Y-52123259D02*
X138491905Y-52123259D01*
X139396667Y-51123259D02*
X140015714Y-51123259D01*
X140015714Y-51123259D02*
X139682381Y-51504211D01*
X139682381Y-51504211D02*
X139825238Y-51504211D01*
X139825238Y-51504211D02*
X139920476Y-51551830D01*
X139920476Y-51551830D02*
X139968095Y-51599449D01*
X139968095Y-51599449D02*
X140015714Y-51694687D01*
X140015714Y-51694687D02*
X140015714Y-51932782D01*
X140015714Y-51932782D02*
X139968095Y-52028020D01*
X139968095Y-52028020D02*
X139920476Y-52075640D01*
X139920476Y-52075640D02*
X139825238Y-52123259D01*
X139825238Y-52123259D02*
X139539524Y-52123259D01*
X139539524Y-52123259D02*
X139444286Y-52075640D01*
X139444286Y-52075640D02*
X139396667Y-52028020D01*
X143939999Y-50406740D02*
X143939999Y-50168645D01*
X144178094Y-50263883D02*
X143939999Y-50168645D01*
X143939999Y-50168645D02*
X143701904Y-50263883D01*
X144082856Y-49978169D02*
X143939999Y-50168645D01*
X143939999Y-50168645D02*
X143797142Y-49978169D01*
X142478260Y-111306666D02*
X142002069Y-111639999D01*
X142478260Y-111878094D02*
X141478260Y-111878094D01*
X141478260Y-111878094D02*
X141478260Y-111497142D01*
X141478260Y-111497142D02*
X141525879Y-111401904D01*
X141525879Y-111401904D02*
X141573498Y-111354285D01*
X141573498Y-111354285D02*
X141668736Y-111306666D01*
X141668736Y-111306666D02*
X141811593Y-111306666D01*
X141811593Y-111306666D02*
X141906831Y-111354285D01*
X141906831Y-111354285D02*
X141954450Y-111401904D01*
X141954450Y-111401904D02*
X142002069Y-111497142D01*
X142002069Y-111497142D02*
X142002069Y-111878094D01*
X141478260Y-110973332D02*
X141478260Y-110354285D01*
X141478260Y-110354285D02*
X141859212Y-110687618D01*
X141859212Y-110687618D02*
X141859212Y-110544761D01*
X141859212Y-110544761D02*
X141906831Y-110449523D01*
X141906831Y-110449523D02*
X141954450Y-110401904D01*
X141954450Y-110401904D02*
X142049688Y-110354285D01*
X142049688Y-110354285D02*
X142287783Y-110354285D01*
X142287783Y-110354285D02*
X142383021Y-110401904D01*
X142383021Y-110401904D02*
X142430641Y-110449523D01*
X142430641Y-110449523D02*
X142478260Y-110544761D01*
X142478260Y-110544761D02*
X142478260Y-110830475D01*
X142478260Y-110830475D02*
X142430641Y-110925713D01*
X142430641Y-110925713D02*
X142383021Y-110973332D01*
X188583333Y-100043258D02*
X188250000Y-99567067D01*
X188011905Y-100043258D02*
X188011905Y-99043258D01*
X188011905Y-99043258D02*
X188392857Y-99043258D01*
X188392857Y-99043258D02*
X188488095Y-99090877D01*
X188488095Y-99090877D02*
X188535714Y-99138496D01*
X188535714Y-99138496D02*
X188583333Y-99233734D01*
X188583333Y-99233734D02*
X188583333Y-99376591D01*
X188583333Y-99376591D02*
X188535714Y-99471829D01*
X188535714Y-99471829D02*
X188488095Y-99519448D01*
X188488095Y-99519448D02*
X188392857Y-99567067D01*
X188392857Y-99567067D02*
X188011905Y-99567067D01*
X189059524Y-100043258D02*
X189250000Y-100043258D01*
X189250000Y-100043258D02*
X189345238Y-99995639D01*
X189345238Y-99995639D02*
X189392857Y-99948019D01*
X189392857Y-99948019D02*
X189488095Y-99805162D01*
X189488095Y-99805162D02*
X189535714Y-99614686D01*
X189535714Y-99614686D02*
X189535714Y-99233734D01*
X189535714Y-99233734D02*
X189488095Y-99138496D01*
X189488095Y-99138496D02*
X189440476Y-99090877D01*
X189440476Y-99090877D02*
X189345238Y-99043258D01*
X189345238Y-99043258D02*
X189154762Y-99043258D01*
X189154762Y-99043258D02*
X189059524Y-99090877D01*
X189059524Y-99090877D02*
X189011905Y-99138496D01*
X189011905Y-99138496D02*
X188964286Y-99233734D01*
X188964286Y-99233734D02*
X188964286Y-99471829D01*
X188964286Y-99471829D02*
X189011905Y-99567067D01*
X189011905Y-99567067D02*
X189059524Y-99614686D01*
X189059524Y-99614686D02*
X189154762Y-99662305D01*
X189154762Y-99662305D02*
X189345238Y-99662305D01*
X189345238Y-99662305D02*
X189440476Y-99614686D01*
X189440476Y-99614686D02*
X189488095Y-99567067D01*
X189488095Y-99567067D02*
X189535714Y-99471829D01*
X144933333Y-96138020D02*
X144885714Y-96185640D01*
X144885714Y-96185640D02*
X144742857Y-96233259D01*
X144742857Y-96233259D02*
X144647619Y-96233259D01*
X144647619Y-96233259D02*
X144504762Y-96185640D01*
X144504762Y-96185640D02*
X144409524Y-96090401D01*
X144409524Y-96090401D02*
X144361905Y-95995163D01*
X144361905Y-95995163D02*
X144314286Y-95804687D01*
X144314286Y-95804687D02*
X144314286Y-95661830D01*
X144314286Y-95661830D02*
X144361905Y-95471354D01*
X144361905Y-95471354D02*
X144409524Y-95376116D01*
X144409524Y-95376116D02*
X144504762Y-95280878D01*
X144504762Y-95280878D02*
X144647619Y-95233259D01*
X144647619Y-95233259D02*
X144742857Y-95233259D01*
X144742857Y-95233259D02*
X144885714Y-95280878D01*
X144885714Y-95280878D02*
X144933333Y-95328497D01*
X145504762Y-95661830D02*
X145409524Y-95614211D01*
X145409524Y-95614211D02*
X145361905Y-95566592D01*
X145361905Y-95566592D02*
X145314286Y-95471354D01*
X145314286Y-95471354D02*
X145314286Y-95423735D01*
X145314286Y-95423735D02*
X145361905Y-95328497D01*
X145361905Y-95328497D02*
X145409524Y-95280878D01*
X145409524Y-95280878D02*
X145504762Y-95233259D01*
X145504762Y-95233259D02*
X145695238Y-95233259D01*
X145695238Y-95233259D02*
X145790476Y-95280878D01*
X145790476Y-95280878D02*
X145838095Y-95328497D01*
X145838095Y-95328497D02*
X145885714Y-95423735D01*
X145885714Y-95423735D02*
X145885714Y-95471354D01*
X145885714Y-95471354D02*
X145838095Y-95566592D01*
X145838095Y-95566592D02*
X145790476Y-95614211D01*
X145790476Y-95614211D02*
X145695238Y-95661830D01*
X145695238Y-95661830D02*
X145504762Y-95661830D01*
X145504762Y-95661830D02*
X145409524Y-95709449D01*
X145409524Y-95709449D02*
X145361905Y-95757068D01*
X145361905Y-95757068D02*
X145314286Y-95852306D01*
X145314286Y-95852306D02*
X145314286Y-96042782D01*
X145314286Y-96042782D02*
X145361905Y-96138020D01*
X145361905Y-96138020D02*
X145409524Y-96185640D01*
X145409524Y-96185640D02*
X145504762Y-96233259D01*
X145504762Y-96233259D02*
X145695238Y-96233259D01*
X145695238Y-96233259D02*
X145790476Y-96185640D01*
X145790476Y-96185640D02*
X145838095Y-96138020D01*
X145838095Y-96138020D02*
X145885714Y-96042782D01*
X145885714Y-96042782D02*
X145885714Y-95852306D01*
X145885714Y-95852306D02*
X145838095Y-95757068D01*
X145838095Y-95757068D02*
X145790476Y-95709449D01*
X145790476Y-95709449D02*
X145695238Y-95661830D01*
X150341666Y-108563259D02*
X150341666Y-109277544D01*
X150341666Y-109277544D02*
X150294047Y-109420401D01*
X150294047Y-109420401D02*
X150198809Y-109515640D01*
X150198809Y-109515640D02*
X150055952Y-109563259D01*
X150055952Y-109563259D02*
X149960714Y-109563259D01*
X151341666Y-109563259D02*
X150770238Y-109563259D01*
X151055952Y-109563259D02*
X151055952Y-108563259D01*
X151055952Y-108563259D02*
X150960714Y-108706116D01*
X150960714Y-108706116D02*
X150865476Y-108801354D01*
X150865476Y-108801354D02*
X150770238Y-108848973D01*
X167508095Y-91143259D02*
X168079523Y-91143259D01*
X167793809Y-92143259D02*
X167793809Y-91143259D01*
X168412857Y-92143259D02*
X168412857Y-91143259D01*
X168412857Y-91143259D02*
X168793809Y-91143259D01*
X168793809Y-91143259D02*
X168889047Y-91190878D01*
X168889047Y-91190878D02*
X168936666Y-91238497D01*
X168936666Y-91238497D02*
X168984285Y-91333735D01*
X168984285Y-91333735D02*
X168984285Y-91476592D01*
X168984285Y-91476592D02*
X168936666Y-91571830D01*
X168936666Y-91571830D02*
X168889047Y-91619449D01*
X168889047Y-91619449D02*
X168793809Y-91667068D01*
X168793809Y-91667068D02*
X168412857Y-91667068D01*
X169317619Y-91143259D02*
X169936666Y-91143259D01*
X169936666Y-91143259D02*
X169603333Y-91524211D01*
X169603333Y-91524211D02*
X169746190Y-91524211D01*
X169746190Y-91524211D02*
X169841428Y-91571830D01*
X169841428Y-91571830D02*
X169889047Y-91619449D01*
X169889047Y-91619449D02*
X169936666Y-91714687D01*
X169936666Y-91714687D02*
X169936666Y-91952782D01*
X169936666Y-91952782D02*
X169889047Y-92048020D01*
X169889047Y-92048020D02*
X169841428Y-92095640D01*
X169841428Y-92095640D02*
X169746190Y-92143259D01*
X169746190Y-92143259D02*
X169460476Y-92143259D01*
X169460476Y-92143259D02*
X169365238Y-92095640D01*
X169365238Y-92095640D02*
X169317619Y-92048020D01*
X133198021Y-99215357D02*
X133245641Y-99262976D01*
X133245641Y-99262976D02*
X133293260Y-99405833D01*
X133293260Y-99405833D02*
X133293260Y-99501071D01*
X133293260Y-99501071D02*
X133245641Y-99643928D01*
X133245641Y-99643928D02*
X133150402Y-99739166D01*
X133150402Y-99739166D02*
X133055164Y-99786785D01*
X133055164Y-99786785D02*
X132864688Y-99834404D01*
X132864688Y-99834404D02*
X132721831Y-99834404D01*
X132721831Y-99834404D02*
X132531355Y-99786785D01*
X132531355Y-99786785D02*
X132436117Y-99739166D01*
X132436117Y-99739166D02*
X132340879Y-99643928D01*
X132340879Y-99643928D02*
X132293260Y-99501071D01*
X132293260Y-99501071D02*
X132293260Y-99405833D01*
X132293260Y-99405833D02*
X132340879Y-99262976D01*
X132340879Y-99262976D02*
X132388498Y-99215357D01*
X133293260Y-98262976D02*
X133293260Y-98834404D01*
X133293260Y-98548690D02*
X132293260Y-98548690D01*
X132293260Y-98548690D02*
X132436117Y-98643928D01*
X132436117Y-98643928D02*
X132531355Y-98739166D01*
X132531355Y-98739166D02*
X132578974Y-98834404D01*
X132388498Y-97882023D02*
X132340879Y-97834404D01*
X132340879Y-97834404D02*
X132293260Y-97739166D01*
X132293260Y-97739166D02*
X132293260Y-97501071D01*
X132293260Y-97501071D02*
X132340879Y-97405833D01*
X132340879Y-97405833D02*
X132388498Y-97358214D01*
X132388498Y-97358214D02*
X132483736Y-97310595D01*
X132483736Y-97310595D02*
X132578974Y-97310595D01*
X132578974Y-97310595D02*
X132721831Y-97358214D01*
X132721831Y-97358214D02*
X133293260Y-97929642D01*
X133293260Y-97929642D02*
X133293260Y-97310595D01*
X147263333Y-105803259D02*
X146930000Y-105327068D01*
X146691905Y-105803259D02*
X146691905Y-104803259D01*
X146691905Y-104803259D02*
X147072857Y-104803259D01*
X147072857Y-104803259D02*
X147168095Y-104850878D01*
X147168095Y-104850878D02*
X147215714Y-104898497D01*
X147215714Y-104898497D02*
X147263333Y-104993735D01*
X147263333Y-104993735D02*
X147263333Y-105136592D01*
X147263333Y-105136592D02*
X147215714Y-105231830D01*
X147215714Y-105231830D02*
X147168095Y-105279449D01*
X147168095Y-105279449D02*
X147072857Y-105327068D01*
X147072857Y-105327068D02*
X146691905Y-105327068D01*
X148215714Y-105803259D02*
X147644286Y-105803259D01*
X147930000Y-105803259D02*
X147930000Y-104803259D01*
X147930000Y-104803259D02*
X147834762Y-104946116D01*
X147834762Y-104946116D02*
X147739524Y-105041354D01*
X147739524Y-105041354D02*
X147644286Y-105088973D01*
X160073259Y-110936666D02*
X159597068Y-111269999D01*
X160073259Y-111508094D02*
X159073259Y-111508094D01*
X159073259Y-111508094D02*
X159073259Y-111127142D01*
X159073259Y-111127142D02*
X159120878Y-111031904D01*
X159120878Y-111031904D02*
X159168497Y-110984285D01*
X159168497Y-110984285D02*
X159263735Y-110936666D01*
X159263735Y-110936666D02*
X159406592Y-110936666D01*
X159406592Y-110936666D02*
X159501830Y-110984285D01*
X159501830Y-110984285D02*
X159549449Y-111031904D01*
X159549449Y-111031904D02*
X159597068Y-111127142D01*
X159597068Y-111127142D02*
X159597068Y-111508094D01*
X159406592Y-110079523D02*
X160073259Y-110079523D01*
X159025640Y-110317618D02*
X159739925Y-110555713D01*
X159739925Y-110555713D02*
X159739925Y-109936666D01*
X184728259Y-84291666D02*
X184728259Y-84767856D01*
X184728259Y-84767856D02*
X183728259Y-84767856D01*
X184728259Y-83434523D02*
X184728259Y-84005951D01*
X184728259Y-83720237D02*
X183728259Y-83720237D01*
X183728259Y-83720237D02*
X183871116Y-83815475D01*
X183871116Y-83815475D02*
X183966354Y-83910713D01*
X183966354Y-83910713D02*
X184013973Y-84005951D01*
X170166666Y-83953259D02*
X170166666Y-84667544D01*
X170166666Y-84667544D02*
X170119047Y-84810401D01*
X170119047Y-84810401D02*
X170023809Y-84905640D01*
X170023809Y-84905640D02*
X169880952Y-84953259D01*
X169880952Y-84953259D02*
X169785714Y-84953259D01*
X170595238Y-84048497D02*
X170642857Y-84000878D01*
X170642857Y-84000878D02*
X170738095Y-83953259D01*
X170738095Y-83953259D02*
X170976190Y-83953259D01*
X170976190Y-83953259D02*
X171071428Y-84000878D01*
X171071428Y-84000878D02*
X171119047Y-84048497D01*
X171119047Y-84048497D02*
X171166666Y-84143735D01*
X171166666Y-84143735D02*
X171166666Y-84238973D01*
X171166666Y-84238973D02*
X171119047Y-84381830D01*
X171119047Y-84381830D02*
X170547619Y-84953259D01*
X170547619Y-84953259D02*
X171166666Y-84953259D01*
X127353259Y-98776666D02*
X126877068Y-99109999D01*
X127353259Y-99348094D02*
X126353259Y-99348094D01*
X126353259Y-99348094D02*
X126353259Y-98967142D01*
X126353259Y-98967142D02*
X126400878Y-98871904D01*
X126400878Y-98871904D02*
X126448497Y-98824285D01*
X126448497Y-98824285D02*
X126543735Y-98776666D01*
X126543735Y-98776666D02*
X126686592Y-98776666D01*
X126686592Y-98776666D02*
X126781830Y-98824285D01*
X126781830Y-98824285D02*
X126829449Y-98871904D01*
X126829449Y-98871904D02*
X126877068Y-98967142D01*
X126877068Y-98967142D02*
X126877068Y-99348094D01*
X126353259Y-98443332D02*
X126353259Y-97776666D01*
X126353259Y-97776666D02*
X127353259Y-98205237D01*
X190828020Y-89912857D02*
X190875640Y-89960476D01*
X190875640Y-89960476D02*
X190923259Y-90103333D01*
X190923259Y-90103333D02*
X190923259Y-90198571D01*
X190923259Y-90198571D02*
X190875640Y-90341428D01*
X190875640Y-90341428D02*
X190780401Y-90436666D01*
X190780401Y-90436666D02*
X190685163Y-90484285D01*
X190685163Y-90484285D02*
X190494687Y-90531904D01*
X190494687Y-90531904D02*
X190351830Y-90531904D01*
X190351830Y-90531904D02*
X190161354Y-90484285D01*
X190161354Y-90484285D02*
X190066116Y-90436666D01*
X190066116Y-90436666D02*
X189970878Y-90341428D01*
X189970878Y-90341428D02*
X189923259Y-90198571D01*
X189923259Y-90198571D02*
X189923259Y-90103333D01*
X189923259Y-90103333D02*
X189970878Y-89960476D01*
X189970878Y-89960476D02*
X190018497Y-89912857D01*
X190923259Y-88960476D02*
X190923259Y-89531904D01*
X190923259Y-89246190D02*
X189923259Y-89246190D01*
X189923259Y-89246190D02*
X190066116Y-89341428D01*
X190066116Y-89341428D02*
X190161354Y-89436666D01*
X190161354Y-89436666D02*
X190208973Y-89531904D01*
X189923259Y-88627142D02*
X189923259Y-87960476D01*
X189923259Y-87960476D02*
X190923259Y-88389047D01*
X143783333Y-86808020D02*
X143735714Y-86855640D01*
X143735714Y-86855640D02*
X143592857Y-86903259D01*
X143592857Y-86903259D02*
X143497619Y-86903259D01*
X143497619Y-86903259D02*
X143354762Y-86855640D01*
X143354762Y-86855640D02*
X143259524Y-86760401D01*
X143259524Y-86760401D02*
X143211905Y-86665163D01*
X143211905Y-86665163D02*
X143164286Y-86474687D01*
X143164286Y-86474687D02*
X143164286Y-86331830D01*
X143164286Y-86331830D02*
X143211905Y-86141354D01*
X143211905Y-86141354D02*
X143259524Y-86046116D01*
X143259524Y-86046116D02*
X143354762Y-85950878D01*
X143354762Y-85950878D02*
X143497619Y-85903259D01*
X143497619Y-85903259D02*
X143592857Y-85903259D01*
X143592857Y-85903259D02*
X143735714Y-85950878D01*
X143735714Y-85950878D02*
X143783333Y-85998497D01*
X144116667Y-85903259D02*
X144735714Y-85903259D01*
X144735714Y-85903259D02*
X144402381Y-86284211D01*
X144402381Y-86284211D02*
X144545238Y-86284211D01*
X144545238Y-86284211D02*
X144640476Y-86331830D01*
X144640476Y-86331830D02*
X144688095Y-86379449D01*
X144688095Y-86379449D02*
X144735714Y-86474687D01*
X144735714Y-86474687D02*
X144735714Y-86712782D01*
X144735714Y-86712782D02*
X144688095Y-86808020D01*
X144688095Y-86808020D02*
X144640476Y-86855640D01*
X144640476Y-86855640D02*
X144545238Y-86903259D01*
X144545238Y-86903259D02*
X144259524Y-86903259D01*
X144259524Y-86903259D02*
X144164286Y-86855640D01*
X144164286Y-86855640D02*
X144116667Y-86808020D01*
X135773810Y-66773259D02*
X135773810Y-65773259D01*
X136821428Y-66678020D02*
X136773809Y-66725640D01*
X136773809Y-66725640D02*
X136630952Y-66773259D01*
X136630952Y-66773259D02*
X136535714Y-66773259D01*
X136535714Y-66773259D02*
X136392857Y-66725640D01*
X136392857Y-66725640D02*
X136297619Y-66630401D01*
X136297619Y-66630401D02*
X136250000Y-66535163D01*
X136250000Y-66535163D02*
X136202381Y-66344687D01*
X136202381Y-66344687D02*
X136202381Y-66201830D01*
X136202381Y-66201830D02*
X136250000Y-66011354D01*
X136250000Y-66011354D02*
X136297619Y-65916116D01*
X136297619Y-65916116D02*
X136392857Y-65820878D01*
X136392857Y-65820878D02*
X136535714Y-65773259D01*
X136535714Y-65773259D02*
X136630952Y-65773259D01*
X136630952Y-65773259D02*
X136773809Y-65820878D01*
X136773809Y-65820878D02*
X136821428Y-65868497D01*
X137773809Y-66773259D02*
X137202381Y-66773259D01*
X137488095Y-66773259D02*
X137488095Y-65773259D01*
X137488095Y-65773259D02*
X137392857Y-65916116D01*
X137392857Y-65916116D02*
X137297619Y-66011354D01*
X137297619Y-66011354D02*
X137202381Y-66058973D01*
X127356667Y-87745640D02*
X127499524Y-87793259D01*
X127499524Y-87793259D02*
X127737619Y-87793259D01*
X127737619Y-87793259D02*
X127832857Y-87745640D01*
X127832857Y-87745640D02*
X127880476Y-87698020D01*
X127880476Y-87698020D02*
X127928095Y-87602782D01*
X127928095Y-87602782D02*
X127928095Y-87507544D01*
X127928095Y-87507544D02*
X127880476Y-87412306D01*
X127880476Y-87412306D02*
X127832857Y-87364687D01*
X127832857Y-87364687D02*
X127737619Y-87317068D01*
X127737619Y-87317068D02*
X127547143Y-87269449D01*
X127547143Y-87269449D02*
X127451905Y-87221830D01*
X127451905Y-87221830D02*
X127404286Y-87174211D01*
X127404286Y-87174211D02*
X127356667Y-87078973D01*
X127356667Y-87078973D02*
X127356667Y-86983735D01*
X127356667Y-86983735D02*
X127404286Y-86888497D01*
X127404286Y-86888497D02*
X127451905Y-86840878D01*
X127451905Y-86840878D02*
X127547143Y-86793259D01*
X127547143Y-86793259D02*
X127785238Y-86793259D01*
X127785238Y-86793259D02*
X127928095Y-86840878D01*
X128261429Y-86793259D02*
X128499524Y-87793259D01*
X128499524Y-87793259D02*
X128690000Y-87078973D01*
X128690000Y-87078973D02*
X128880476Y-87793259D01*
X128880476Y-87793259D02*
X129118572Y-86793259D01*
X129451905Y-86888497D02*
X129499524Y-86840878D01*
X129499524Y-86840878D02*
X129594762Y-86793259D01*
X129594762Y-86793259D02*
X129832857Y-86793259D01*
X129832857Y-86793259D02*
X129928095Y-86840878D01*
X129928095Y-86840878D02*
X129975714Y-86888497D01*
X129975714Y-86888497D02*
X130023333Y-86983735D01*
X130023333Y-86983735D02*
X130023333Y-87078973D01*
X130023333Y-87078973D02*
X129975714Y-87221830D01*
X129975714Y-87221830D02*
X129404286Y-87793259D01*
X129404286Y-87793259D02*
X130023333Y-87793259D01*
X124683259Y-95509999D02*
X124921354Y-95509999D01*
X124826116Y-95748094D02*
X124921354Y-95509999D01*
X124921354Y-95509999D02*
X124826116Y-95271904D01*
X125111830Y-95652856D02*
X124921354Y-95509999D01*
X124921354Y-95509999D02*
X125111830Y-95367142D01*
X172133095Y-104893258D02*
X172133095Y-105702781D01*
X172133095Y-105702781D02*
X172180714Y-105798019D01*
X172180714Y-105798019D02*
X172228333Y-105845639D01*
X172228333Y-105845639D02*
X172323571Y-105893258D01*
X172323571Y-105893258D02*
X172514047Y-105893258D01*
X172514047Y-105893258D02*
X172609285Y-105845639D01*
X172609285Y-105845639D02*
X172656904Y-105798019D01*
X172656904Y-105798019D02*
X172704523Y-105702781D01*
X172704523Y-105702781D02*
X172704523Y-104893258D01*
X173133095Y-104988496D02*
X173180714Y-104940877D01*
X173180714Y-104940877D02*
X173275952Y-104893258D01*
X173275952Y-104893258D02*
X173514047Y-104893258D01*
X173514047Y-104893258D02*
X173609285Y-104940877D01*
X173609285Y-104940877D02*
X173656904Y-104988496D01*
X173656904Y-104988496D02*
X173704523Y-105083734D01*
X173704523Y-105083734D02*
X173704523Y-105178972D01*
X173704523Y-105178972D02*
X173656904Y-105321829D01*
X173656904Y-105321829D02*
X173085476Y-105893258D01*
X173085476Y-105893258D02*
X173704523Y-105893258D01*
X131857142Y-72608020D02*
X131809523Y-72655640D01*
X131809523Y-72655640D02*
X131666666Y-72703259D01*
X131666666Y-72703259D02*
X131571428Y-72703259D01*
X131571428Y-72703259D02*
X131428571Y-72655640D01*
X131428571Y-72655640D02*
X131333333Y-72560401D01*
X131333333Y-72560401D02*
X131285714Y-72465163D01*
X131285714Y-72465163D02*
X131238095Y-72274687D01*
X131238095Y-72274687D02*
X131238095Y-72131830D01*
X131238095Y-72131830D02*
X131285714Y-71941354D01*
X131285714Y-71941354D02*
X131333333Y-71846116D01*
X131333333Y-71846116D02*
X131428571Y-71750878D01*
X131428571Y-71750878D02*
X131571428Y-71703259D01*
X131571428Y-71703259D02*
X131666666Y-71703259D01*
X131666666Y-71703259D02*
X131809523Y-71750878D01*
X131809523Y-71750878D02*
X131857142Y-71798497D01*
X132809523Y-72703259D02*
X132238095Y-72703259D01*
X132523809Y-72703259D02*
X132523809Y-71703259D01*
X132523809Y-71703259D02*
X132428571Y-71846116D01*
X132428571Y-71846116D02*
X132333333Y-71941354D01*
X132333333Y-71941354D02*
X132238095Y-71988973D01*
X133428571Y-71703259D02*
X133523809Y-71703259D01*
X133523809Y-71703259D02*
X133619047Y-71750878D01*
X133619047Y-71750878D02*
X133666666Y-71798497D01*
X133666666Y-71798497D02*
X133714285Y-71893735D01*
X133714285Y-71893735D02*
X133761904Y-72084211D01*
X133761904Y-72084211D02*
X133761904Y-72322306D01*
X133761904Y-72322306D02*
X133714285Y-72512782D01*
X133714285Y-72512782D02*
X133666666Y-72608020D01*
X133666666Y-72608020D02*
X133619047Y-72655640D01*
X133619047Y-72655640D02*
X133523809Y-72703259D01*
X133523809Y-72703259D02*
X133428571Y-72703259D01*
X133428571Y-72703259D02*
X133333333Y-72655640D01*
X133333333Y-72655640D02*
X133285714Y-72608020D01*
X133285714Y-72608020D02*
X133238095Y-72512782D01*
X133238095Y-72512782D02*
X133190476Y-72322306D01*
X133190476Y-72322306D02*
X133190476Y-72084211D01*
X133190476Y-72084211D02*
X133238095Y-71893735D01*
X133238095Y-71893735D02*
X133285714Y-71798497D01*
X133285714Y-71798497D02*
X133333333Y-71750878D01*
X133333333Y-71750878D02*
X133428571Y-71703259D01*
X156283333Y-103928259D02*
X155950000Y-103452068D01*
X155711905Y-103928259D02*
X155711905Y-102928259D01*
X155711905Y-102928259D02*
X156092857Y-102928259D01*
X156092857Y-102928259D02*
X156188095Y-102975878D01*
X156188095Y-102975878D02*
X156235714Y-103023497D01*
X156235714Y-103023497D02*
X156283333Y-103118735D01*
X156283333Y-103118735D02*
X156283333Y-103261592D01*
X156283333Y-103261592D02*
X156235714Y-103356830D01*
X156235714Y-103356830D02*
X156188095Y-103404449D01*
X156188095Y-103404449D02*
X156092857Y-103452068D01*
X156092857Y-103452068D02*
X155711905Y-103452068D01*
X157140476Y-102928259D02*
X156950000Y-102928259D01*
X156950000Y-102928259D02*
X156854762Y-102975878D01*
X156854762Y-102975878D02*
X156807143Y-103023497D01*
X156807143Y-103023497D02*
X156711905Y-103166354D01*
X156711905Y-103166354D02*
X156664286Y-103356830D01*
X156664286Y-103356830D02*
X156664286Y-103737782D01*
X156664286Y-103737782D02*
X156711905Y-103833020D01*
X156711905Y-103833020D02*
X156759524Y-103880640D01*
X156759524Y-103880640D02*
X156854762Y-103928259D01*
X156854762Y-103928259D02*
X157045238Y-103928259D01*
X157045238Y-103928259D02*
X157140476Y-103880640D01*
X157140476Y-103880640D02*
X157188095Y-103833020D01*
X157188095Y-103833020D02*
X157235714Y-103737782D01*
X157235714Y-103737782D02*
X157235714Y-103499687D01*
X157235714Y-103499687D02*
X157188095Y-103404449D01*
X157188095Y-103404449D02*
X157140476Y-103356830D01*
X157140476Y-103356830D02*
X157045238Y-103309211D01*
X157045238Y-103309211D02*
X156854762Y-103309211D01*
X156854762Y-103309211D02*
X156759524Y-103356830D01*
X156759524Y-103356830D02*
X156711905Y-103404449D01*
X156711905Y-103404449D02*
X156664286Y-103499687D01*
X139363809Y-82537068D02*
X139363809Y-83013259D01*
X139030476Y-82013259D02*
X139363809Y-82537068D01*
X139363809Y-82537068D02*
X139697142Y-82013259D01*
X139982857Y-82108497D02*
X140030476Y-82060878D01*
X140030476Y-82060878D02*
X140125714Y-82013259D01*
X140125714Y-82013259D02*
X140363809Y-82013259D01*
X140363809Y-82013259D02*
X140459047Y-82060878D01*
X140459047Y-82060878D02*
X140506666Y-82108497D01*
X140506666Y-82108497D02*
X140554285Y-82203735D01*
X140554285Y-82203735D02*
X140554285Y-82298973D01*
X140554285Y-82298973D02*
X140506666Y-82441830D01*
X140506666Y-82441830D02*
X139935238Y-83013259D01*
X139935238Y-83013259D02*
X140554285Y-83013259D01*
X136033809Y-80197068D02*
X136033809Y-80673259D01*
X135700476Y-79673259D02*
X136033809Y-80197068D01*
X136033809Y-80197068D02*
X136367142Y-79673259D01*
X137224285Y-80673259D02*
X136652857Y-80673259D01*
X136938571Y-80673259D02*
X136938571Y-79673259D01*
X136938571Y-79673259D02*
X136843333Y-79816116D01*
X136843333Y-79816116D02*
X136748095Y-79911354D01*
X136748095Y-79911354D02*
X136652857Y-79958973D01*
X156443333Y-96748020D02*
X156395714Y-96795640D01*
X156395714Y-96795640D02*
X156252857Y-96843259D01*
X156252857Y-96843259D02*
X156157619Y-96843259D01*
X156157619Y-96843259D02*
X156014762Y-96795640D01*
X156014762Y-96795640D02*
X155919524Y-96700401D01*
X155919524Y-96700401D02*
X155871905Y-96605163D01*
X155871905Y-96605163D02*
X155824286Y-96414687D01*
X155824286Y-96414687D02*
X155824286Y-96271830D01*
X155824286Y-96271830D02*
X155871905Y-96081354D01*
X155871905Y-96081354D02*
X155919524Y-95986116D01*
X155919524Y-95986116D02*
X156014762Y-95890878D01*
X156014762Y-95890878D02*
X156157619Y-95843259D01*
X156157619Y-95843259D02*
X156252857Y-95843259D01*
X156252857Y-95843259D02*
X156395714Y-95890878D01*
X156395714Y-95890878D02*
X156443333Y-95938497D01*
X156919524Y-96843259D02*
X157110000Y-96843259D01*
X157110000Y-96843259D02*
X157205238Y-96795640D01*
X157205238Y-96795640D02*
X157252857Y-96748020D01*
X157252857Y-96748020D02*
X157348095Y-96605163D01*
X157348095Y-96605163D02*
X157395714Y-96414687D01*
X157395714Y-96414687D02*
X157395714Y-96033735D01*
X157395714Y-96033735D02*
X157348095Y-95938497D01*
X157348095Y-95938497D02*
X157300476Y-95890878D01*
X157300476Y-95890878D02*
X157205238Y-95843259D01*
X157205238Y-95843259D02*
X157014762Y-95843259D01*
X157014762Y-95843259D02*
X156919524Y-95890878D01*
X156919524Y-95890878D02*
X156871905Y-95938497D01*
X156871905Y-95938497D02*
X156824286Y-96033735D01*
X156824286Y-96033735D02*
X156824286Y-96271830D01*
X156824286Y-96271830D02*
X156871905Y-96367068D01*
X156871905Y-96367068D02*
X156919524Y-96414687D01*
X156919524Y-96414687D02*
X157014762Y-96462306D01*
X157014762Y-96462306D02*
X157205238Y-96462306D01*
X157205238Y-96462306D02*
X157300476Y-96414687D01*
X157300476Y-96414687D02*
X157348095Y-96367068D01*
X157348095Y-96367068D02*
X157395714Y-96271830D01*
X155423333Y-85798020D02*
X155375714Y-85845640D01*
X155375714Y-85845640D02*
X155232857Y-85893259D01*
X155232857Y-85893259D02*
X155137619Y-85893259D01*
X155137619Y-85893259D02*
X154994762Y-85845640D01*
X154994762Y-85845640D02*
X154899524Y-85750401D01*
X154899524Y-85750401D02*
X154851905Y-85655163D01*
X154851905Y-85655163D02*
X154804286Y-85464687D01*
X154804286Y-85464687D02*
X154804286Y-85321830D01*
X154804286Y-85321830D02*
X154851905Y-85131354D01*
X154851905Y-85131354D02*
X154899524Y-85036116D01*
X154899524Y-85036116D02*
X154994762Y-84940878D01*
X154994762Y-84940878D02*
X155137619Y-84893259D01*
X155137619Y-84893259D02*
X155232857Y-84893259D01*
X155232857Y-84893259D02*
X155375714Y-84940878D01*
X155375714Y-84940878D02*
X155423333Y-84988497D01*
X155756667Y-84893259D02*
X156423333Y-84893259D01*
X156423333Y-84893259D02*
X155994762Y-85893259D01*
X142083333Y-88858020D02*
X142035714Y-88905640D01*
X142035714Y-88905640D02*
X141892857Y-88953259D01*
X141892857Y-88953259D02*
X141797619Y-88953259D01*
X141797619Y-88953259D02*
X141654762Y-88905640D01*
X141654762Y-88905640D02*
X141559524Y-88810401D01*
X141559524Y-88810401D02*
X141511905Y-88715163D01*
X141511905Y-88715163D02*
X141464286Y-88524687D01*
X141464286Y-88524687D02*
X141464286Y-88381830D01*
X141464286Y-88381830D02*
X141511905Y-88191354D01*
X141511905Y-88191354D02*
X141559524Y-88096116D01*
X141559524Y-88096116D02*
X141654762Y-88000878D01*
X141654762Y-88000878D02*
X141797619Y-87953259D01*
X141797619Y-87953259D02*
X141892857Y-87953259D01*
X141892857Y-87953259D02*
X142035714Y-88000878D01*
X142035714Y-88000878D02*
X142083333Y-88048497D01*
X142988095Y-87953259D02*
X142511905Y-87953259D01*
X142511905Y-87953259D02*
X142464286Y-88429449D01*
X142464286Y-88429449D02*
X142511905Y-88381830D01*
X142511905Y-88381830D02*
X142607143Y-88334211D01*
X142607143Y-88334211D02*
X142845238Y-88334211D01*
X142845238Y-88334211D02*
X142940476Y-88381830D01*
X142940476Y-88381830D02*
X142988095Y-88429449D01*
X142988095Y-88429449D02*
X143035714Y-88524687D01*
X143035714Y-88524687D02*
X143035714Y-88762782D01*
X143035714Y-88762782D02*
X142988095Y-88858020D01*
X142988095Y-88858020D02*
X142940476Y-88905640D01*
X142940476Y-88905640D02*
X142845238Y-88953259D01*
X142845238Y-88953259D02*
X142607143Y-88953259D01*
X142607143Y-88953259D02*
X142511905Y-88905640D01*
X142511905Y-88905640D02*
X142464286Y-88858020D01*
X185993333Y-100903259D02*
X185660000Y-100427068D01*
X185421905Y-100903259D02*
X185421905Y-99903259D01*
X185421905Y-99903259D02*
X185802857Y-99903259D01*
X185802857Y-99903259D02*
X185898095Y-99950878D01*
X185898095Y-99950878D02*
X185945714Y-99998497D01*
X185945714Y-99998497D02*
X185993333Y-100093735D01*
X185993333Y-100093735D02*
X185993333Y-100236592D01*
X185993333Y-100236592D02*
X185945714Y-100331830D01*
X185945714Y-100331830D02*
X185898095Y-100379449D01*
X185898095Y-100379449D02*
X185802857Y-100427068D01*
X185802857Y-100427068D02*
X185421905Y-100427068D01*
X186564762Y-100331830D02*
X186469524Y-100284211D01*
X186469524Y-100284211D02*
X186421905Y-100236592D01*
X186421905Y-100236592D02*
X186374286Y-100141354D01*
X186374286Y-100141354D02*
X186374286Y-100093735D01*
X186374286Y-100093735D02*
X186421905Y-99998497D01*
X186421905Y-99998497D02*
X186469524Y-99950878D01*
X186469524Y-99950878D02*
X186564762Y-99903259D01*
X186564762Y-99903259D02*
X186755238Y-99903259D01*
X186755238Y-99903259D02*
X186850476Y-99950878D01*
X186850476Y-99950878D02*
X186898095Y-99998497D01*
X186898095Y-99998497D02*
X186945714Y-100093735D01*
X186945714Y-100093735D02*
X186945714Y-100141354D01*
X186945714Y-100141354D02*
X186898095Y-100236592D01*
X186898095Y-100236592D02*
X186850476Y-100284211D01*
X186850476Y-100284211D02*
X186755238Y-100331830D01*
X186755238Y-100331830D02*
X186564762Y-100331830D01*
X186564762Y-100331830D02*
X186469524Y-100379449D01*
X186469524Y-100379449D02*
X186421905Y-100427068D01*
X186421905Y-100427068D02*
X186374286Y-100522306D01*
X186374286Y-100522306D02*
X186374286Y-100712782D01*
X186374286Y-100712782D02*
X186421905Y-100808020D01*
X186421905Y-100808020D02*
X186469524Y-100855640D01*
X186469524Y-100855640D02*
X186564762Y-100903259D01*
X186564762Y-100903259D02*
X186755238Y-100903259D01*
X186755238Y-100903259D02*
X186850476Y-100855640D01*
X186850476Y-100855640D02*
X186898095Y-100808020D01*
X186898095Y-100808020D02*
X186945714Y-100712782D01*
X186945714Y-100712782D02*
X186945714Y-100522306D01*
X186945714Y-100522306D02*
X186898095Y-100427068D01*
X186898095Y-100427068D02*
X186850476Y-100379449D01*
X186850476Y-100379449D02*
X186755238Y-100331830D01*
X145343333Y-88328020D02*
X145295714Y-88375640D01*
X145295714Y-88375640D02*
X145152857Y-88423259D01*
X145152857Y-88423259D02*
X145057619Y-88423259D01*
X145057619Y-88423259D02*
X144914762Y-88375640D01*
X144914762Y-88375640D02*
X144819524Y-88280401D01*
X144819524Y-88280401D02*
X144771905Y-88185163D01*
X144771905Y-88185163D02*
X144724286Y-87994687D01*
X144724286Y-87994687D02*
X144724286Y-87851830D01*
X144724286Y-87851830D02*
X144771905Y-87661354D01*
X144771905Y-87661354D02*
X144819524Y-87566116D01*
X144819524Y-87566116D02*
X144914762Y-87470878D01*
X144914762Y-87470878D02*
X145057619Y-87423259D01*
X145057619Y-87423259D02*
X145152857Y-87423259D01*
X145152857Y-87423259D02*
X145295714Y-87470878D01*
X145295714Y-87470878D02*
X145343333Y-87518497D01*
X146200476Y-87423259D02*
X146010000Y-87423259D01*
X146010000Y-87423259D02*
X145914762Y-87470878D01*
X145914762Y-87470878D02*
X145867143Y-87518497D01*
X145867143Y-87518497D02*
X145771905Y-87661354D01*
X145771905Y-87661354D02*
X145724286Y-87851830D01*
X145724286Y-87851830D02*
X145724286Y-88232782D01*
X145724286Y-88232782D02*
X145771905Y-88328020D01*
X145771905Y-88328020D02*
X145819524Y-88375640D01*
X145819524Y-88375640D02*
X145914762Y-88423259D01*
X145914762Y-88423259D02*
X146105238Y-88423259D01*
X146105238Y-88423259D02*
X146200476Y-88375640D01*
X146200476Y-88375640D02*
X146248095Y-88328020D01*
X146248095Y-88328020D02*
X146295714Y-88232782D01*
X146295714Y-88232782D02*
X146295714Y-87994687D01*
X146295714Y-87994687D02*
X146248095Y-87899449D01*
X146248095Y-87899449D02*
X146200476Y-87851830D01*
X146200476Y-87851830D02*
X146105238Y-87804211D01*
X146105238Y-87804211D02*
X145914762Y-87804211D01*
X145914762Y-87804211D02*
X145819524Y-87851830D01*
X145819524Y-87851830D02*
X145771905Y-87899449D01*
X145771905Y-87899449D02*
X145724286Y-87994687D01*
X145733333Y-80408020D02*
X145685714Y-80455640D01*
X145685714Y-80455640D02*
X145542857Y-80503259D01*
X145542857Y-80503259D02*
X145447619Y-80503259D01*
X145447619Y-80503259D02*
X145304762Y-80455640D01*
X145304762Y-80455640D02*
X145209524Y-80360401D01*
X145209524Y-80360401D02*
X145161905Y-80265163D01*
X145161905Y-80265163D02*
X145114286Y-80074687D01*
X145114286Y-80074687D02*
X145114286Y-79931830D01*
X145114286Y-79931830D02*
X145161905Y-79741354D01*
X145161905Y-79741354D02*
X145209524Y-79646116D01*
X145209524Y-79646116D02*
X145304762Y-79550878D01*
X145304762Y-79550878D02*
X145447619Y-79503259D01*
X145447619Y-79503259D02*
X145542857Y-79503259D01*
X145542857Y-79503259D02*
X145685714Y-79550878D01*
X145685714Y-79550878D02*
X145733333Y-79598497D01*
X146114286Y-79598497D02*
X146161905Y-79550878D01*
X146161905Y-79550878D02*
X146257143Y-79503259D01*
X146257143Y-79503259D02*
X146495238Y-79503259D01*
X146495238Y-79503259D02*
X146590476Y-79550878D01*
X146590476Y-79550878D02*
X146638095Y-79598497D01*
X146638095Y-79598497D02*
X146685714Y-79693735D01*
X146685714Y-79693735D02*
X146685714Y-79788973D01*
X146685714Y-79788973D02*
X146638095Y-79931830D01*
X146638095Y-79931830D02*
X146066667Y-80503259D01*
X146066667Y-80503259D02*
X146685714Y-80503259D01*
X170076666Y-92923259D02*
X170076666Y-93637544D01*
X170076666Y-93637544D02*
X170029047Y-93780401D01*
X170029047Y-93780401D02*
X169933809Y-93875640D01*
X169933809Y-93875640D02*
X169790952Y-93923259D01*
X169790952Y-93923259D02*
X169695714Y-93923259D01*
X170981428Y-93256592D02*
X170981428Y-93923259D01*
X170743333Y-92875640D02*
X170505238Y-93589925D01*
X170505238Y-93589925D02*
X171124285Y-93589925D01*
X173411905Y-84053259D02*
X173411905Y-83053259D01*
X173411905Y-83053259D02*
X173650000Y-83053259D01*
X173650000Y-83053259D02*
X173792857Y-83100878D01*
X173792857Y-83100878D02*
X173888095Y-83196116D01*
X173888095Y-83196116D02*
X173935714Y-83291354D01*
X173935714Y-83291354D02*
X173983333Y-83481830D01*
X173983333Y-83481830D02*
X173983333Y-83624687D01*
X173983333Y-83624687D02*
X173935714Y-83815163D01*
X173935714Y-83815163D02*
X173888095Y-83910401D01*
X173888095Y-83910401D02*
X173792857Y-84005640D01*
X173792857Y-84005640D02*
X173650000Y-84053259D01*
X173650000Y-84053259D02*
X173411905Y-84053259D01*
X174364286Y-83148497D02*
X174411905Y-83100878D01*
X174411905Y-83100878D02*
X174507143Y-83053259D01*
X174507143Y-83053259D02*
X174745238Y-83053259D01*
X174745238Y-83053259D02*
X174840476Y-83100878D01*
X174840476Y-83100878D02*
X174888095Y-83148497D01*
X174888095Y-83148497D02*
X174935714Y-83243735D01*
X174935714Y-83243735D02*
X174935714Y-83338973D01*
X174935714Y-83338973D02*
X174888095Y-83481830D01*
X174888095Y-83481830D02*
X174316667Y-84053259D01*
X174316667Y-84053259D02*
X174935714Y-84053259D01*
X172921740Y-84425000D02*
X172683645Y-84425000D01*
X172778883Y-84186905D02*
X172683645Y-84425000D01*
X172683645Y-84425000D02*
X172778883Y-84663095D01*
X172493169Y-84282143D02*
X172683645Y-84425000D01*
X172683645Y-84425000D02*
X172493169Y-84567857D01*
X179461041Y-81158020D02*
X179413422Y-81205640D01*
X179413422Y-81205640D02*
X179270565Y-81253259D01*
X179270565Y-81253259D02*
X179175327Y-81253259D01*
X179175327Y-81253259D02*
X179032470Y-81205640D01*
X179032470Y-81205640D02*
X178937232Y-81110401D01*
X178937232Y-81110401D02*
X178889613Y-81015163D01*
X178889613Y-81015163D02*
X178841994Y-80824687D01*
X178841994Y-80824687D02*
X178841994Y-80681830D01*
X178841994Y-80681830D02*
X178889613Y-80491354D01*
X178889613Y-80491354D02*
X178937232Y-80396116D01*
X178937232Y-80396116D02*
X179032470Y-80300878D01*
X179032470Y-80300878D02*
X179175327Y-80253259D01*
X179175327Y-80253259D02*
X179270565Y-80253259D01*
X179270565Y-80253259D02*
X179413422Y-80300878D01*
X179413422Y-80300878D02*
X179461041Y-80348497D01*
X180413422Y-81253259D02*
X179841994Y-81253259D01*
X180127708Y-81253259D02*
X180127708Y-80253259D01*
X180127708Y-80253259D02*
X180032470Y-80396116D01*
X180032470Y-80396116D02*
X179937232Y-80491354D01*
X179937232Y-80491354D02*
X179841994Y-80538973D01*
X180984851Y-80681830D02*
X180889613Y-80634211D01*
X180889613Y-80634211D02*
X180841994Y-80586592D01*
X180841994Y-80586592D02*
X180794375Y-80491354D01*
X180794375Y-80491354D02*
X180794375Y-80443735D01*
X180794375Y-80443735D02*
X180841994Y-80348497D01*
X180841994Y-80348497D02*
X180889613Y-80300878D01*
X180889613Y-80300878D02*
X180984851Y-80253259D01*
X180984851Y-80253259D02*
X181175327Y-80253259D01*
X181175327Y-80253259D02*
X181270565Y-80300878D01*
X181270565Y-80300878D02*
X181318184Y-80348497D01*
X181318184Y-80348497D02*
X181365803Y-80443735D01*
X181365803Y-80443735D02*
X181365803Y-80491354D01*
X181365803Y-80491354D02*
X181318184Y-80586592D01*
X181318184Y-80586592D02*
X181270565Y-80634211D01*
X181270565Y-80634211D02*
X181175327Y-80681830D01*
X181175327Y-80681830D02*
X180984851Y-80681830D01*
X180984851Y-80681830D02*
X180889613Y-80729449D01*
X180889613Y-80729449D02*
X180841994Y-80777068D01*
X180841994Y-80777068D02*
X180794375Y-80872306D01*
X180794375Y-80872306D02*
X180794375Y-81062782D01*
X180794375Y-81062782D02*
X180841994Y-81158020D01*
X180841994Y-81158020D02*
X180889613Y-81205640D01*
X180889613Y-81205640D02*
X180984851Y-81253259D01*
X180984851Y-81253259D02*
X181175327Y-81253259D01*
X181175327Y-81253259D02*
X181270565Y-81205640D01*
X181270565Y-81205640D02*
X181318184Y-81158020D01*
X181318184Y-81158020D02*
X181365803Y-81062782D01*
X181365803Y-81062782D02*
X181365803Y-80872306D01*
X181365803Y-80872306D02*
X181318184Y-80777068D01*
X181318184Y-80777068D02*
X181270565Y-80729449D01*
X181270565Y-80729449D02*
X181175327Y-80681830D01*
X159683333Y-99633020D02*
X159635714Y-99680640D01*
X159635714Y-99680640D02*
X159492857Y-99728259D01*
X159492857Y-99728259D02*
X159397619Y-99728259D01*
X159397619Y-99728259D02*
X159254762Y-99680640D01*
X159254762Y-99680640D02*
X159159524Y-99585401D01*
X159159524Y-99585401D02*
X159111905Y-99490163D01*
X159111905Y-99490163D02*
X159064286Y-99299687D01*
X159064286Y-99299687D02*
X159064286Y-99156830D01*
X159064286Y-99156830D02*
X159111905Y-98966354D01*
X159111905Y-98966354D02*
X159159524Y-98871116D01*
X159159524Y-98871116D02*
X159254762Y-98775878D01*
X159254762Y-98775878D02*
X159397619Y-98728259D01*
X159397619Y-98728259D02*
X159492857Y-98728259D01*
X159492857Y-98728259D02*
X159635714Y-98775878D01*
X159635714Y-98775878D02*
X159683333Y-98823497D01*
X160540476Y-99061592D02*
X160540476Y-99728259D01*
X160302381Y-98680640D02*
X160064286Y-99394925D01*
X160064286Y-99394925D02*
X160683333Y-99394925D01*
X142083333Y-92358020D02*
X142035714Y-92405640D01*
X142035714Y-92405640D02*
X141892857Y-92453259D01*
X141892857Y-92453259D02*
X141797619Y-92453259D01*
X141797619Y-92453259D02*
X141654762Y-92405640D01*
X141654762Y-92405640D02*
X141559524Y-92310401D01*
X141559524Y-92310401D02*
X141511905Y-92215163D01*
X141511905Y-92215163D02*
X141464286Y-92024687D01*
X141464286Y-92024687D02*
X141464286Y-91881830D01*
X141464286Y-91881830D02*
X141511905Y-91691354D01*
X141511905Y-91691354D02*
X141559524Y-91596116D01*
X141559524Y-91596116D02*
X141654762Y-91500878D01*
X141654762Y-91500878D02*
X141797619Y-91453259D01*
X141797619Y-91453259D02*
X141892857Y-91453259D01*
X141892857Y-91453259D02*
X142035714Y-91500878D01*
X142035714Y-91500878D02*
X142083333Y-91548497D01*
X143035714Y-92453259D02*
X142464286Y-92453259D01*
X142750000Y-92453259D02*
X142750000Y-91453259D01*
X142750000Y-91453259D02*
X142654762Y-91596116D01*
X142654762Y-91596116D02*
X142559524Y-91691354D01*
X142559524Y-91691354D02*
X142464286Y-91738973D01*
X127416667Y-85405640D02*
X127559524Y-85453259D01*
X127559524Y-85453259D02*
X127797619Y-85453259D01*
X127797619Y-85453259D02*
X127892857Y-85405640D01*
X127892857Y-85405640D02*
X127940476Y-85358020D01*
X127940476Y-85358020D02*
X127988095Y-85262782D01*
X127988095Y-85262782D02*
X127988095Y-85167544D01*
X127988095Y-85167544D02*
X127940476Y-85072306D01*
X127940476Y-85072306D02*
X127892857Y-85024687D01*
X127892857Y-85024687D02*
X127797619Y-84977068D01*
X127797619Y-84977068D02*
X127607143Y-84929449D01*
X127607143Y-84929449D02*
X127511905Y-84881830D01*
X127511905Y-84881830D02*
X127464286Y-84834211D01*
X127464286Y-84834211D02*
X127416667Y-84738973D01*
X127416667Y-84738973D02*
X127416667Y-84643735D01*
X127416667Y-84643735D02*
X127464286Y-84548497D01*
X127464286Y-84548497D02*
X127511905Y-84500878D01*
X127511905Y-84500878D02*
X127607143Y-84453259D01*
X127607143Y-84453259D02*
X127845238Y-84453259D01*
X127845238Y-84453259D02*
X127988095Y-84500878D01*
X128321429Y-84453259D02*
X128559524Y-85453259D01*
X128559524Y-85453259D02*
X128750000Y-84738973D01*
X128750000Y-84738973D02*
X128940476Y-85453259D01*
X128940476Y-85453259D02*
X129178572Y-84453259D01*
X130083333Y-85453259D02*
X129511905Y-85453259D01*
X129797619Y-85453259D02*
X129797619Y-84453259D01*
X129797619Y-84453259D02*
X129702381Y-84596116D01*
X129702381Y-84596116D02*
X129607143Y-84691354D01*
X129607143Y-84691354D02*
X129511905Y-84738973D01*
X132083259Y-77979999D02*
X132321354Y-77979999D01*
X132226116Y-78218094D02*
X132321354Y-77979999D01*
X132321354Y-77979999D02*
X132226116Y-77741904D01*
X132511830Y-78122856D02*
X132321354Y-77979999D01*
X132321354Y-77979999D02*
X132511830Y-77837142D01*
X183828259Y-96486904D02*
X184637782Y-96486904D01*
X184637782Y-96486904D02*
X184733020Y-96439285D01*
X184733020Y-96439285D02*
X184780640Y-96391666D01*
X184780640Y-96391666D02*
X184828259Y-96296428D01*
X184828259Y-96296428D02*
X184828259Y-96105952D01*
X184828259Y-96105952D02*
X184780640Y-96010714D01*
X184780640Y-96010714D02*
X184733020Y-95963095D01*
X184733020Y-95963095D02*
X184637782Y-95915476D01*
X184637782Y-95915476D02*
X183828259Y-95915476D01*
X183828259Y-95534523D02*
X183828259Y-94915476D01*
X183828259Y-94915476D02*
X184209211Y-95248809D01*
X184209211Y-95248809D02*
X184209211Y-95105952D01*
X184209211Y-95105952D02*
X184256830Y-95010714D01*
X184256830Y-95010714D02*
X184304449Y-94963095D01*
X184304449Y-94963095D02*
X184399687Y-94915476D01*
X184399687Y-94915476D02*
X184637782Y-94915476D01*
X184637782Y-94915476D02*
X184733020Y-94963095D01*
X184733020Y-94963095D02*
X184780640Y-95010714D01*
X184780640Y-95010714D02*
X184828259Y-95105952D01*
X184828259Y-95105952D02*
X184828259Y-95391666D01*
X184828259Y-95391666D02*
X184780640Y-95486904D01*
X184780640Y-95486904D02*
X184733020Y-95534523D01*
X153608333Y-106003259D02*
X153275000Y-105527068D01*
X153036905Y-106003259D02*
X153036905Y-105003259D01*
X153036905Y-105003259D02*
X153417857Y-105003259D01*
X153417857Y-105003259D02*
X153513095Y-105050878D01*
X153513095Y-105050878D02*
X153560714Y-105098497D01*
X153560714Y-105098497D02*
X153608333Y-105193735D01*
X153608333Y-105193735D02*
X153608333Y-105336592D01*
X153608333Y-105336592D02*
X153560714Y-105431830D01*
X153560714Y-105431830D02*
X153513095Y-105479449D01*
X153513095Y-105479449D02*
X153417857Y-105527068D01*
X153417857Y-105527068D02*
X153036905Y-105527068D01*
X153989286Y-105098497D02*
X154036905Y-105050878D01*
X154036905Y-105050878D02*
X154132143Y-105003259D01*
X154132143Y-105003259D02*
X154370238Y-105003259D01*
X154370238Y-105003259D02*
X154465476Y-105050878D01*
X154465476Y-105050878D02*
X154513095Y-105098497D01*
X154513095Y-105098497D02*
X154560714Y-105193735D01*
X154560714Y-105193735D02*
X154560714Y-105288973D01*
X154560714Y-105288973D02*
X154513095Y-105431830D01*
X154513095Y-105431830D02*
X153941667Y-106003259D01*
X153941667Y-106003259D02*
X154560714Y-106003259D01*
X137596666Y-106283259D02*
X137596666Y-106997544D01*
X137596666Y-106997544D02*
X137549047Y-107140401D01*
X137549047Y-107140401D02*
X137453809Y-107235640D01*
X137453809Y-107235640D02*
X137310952Y-107283259D01*
X137310952Y-107283259D02*
X137215714Y-107283259D01*
X137977619Y-106283259D02*
X138596666Y-106283259D01*
X138596666Y-106283259D02*
X138263333Y-106664211D01*
X138263333Y-106664211D02*
X138406190Y-106664211D01*
X138406190Y-106664211D02*
X138501428Y-106711830D01*
X138501428Y-106711830D02*
X138549047Y-106759449D01*
X138549047Y-106759449D02*
X138596666Y-106854687D01*
X138596666Y-106854687D02*
X138596666Y-107092782D01*
X138596666Y-107092782D02*
X138549047Y-107188020D01*
X138549047Y-107188020D02*
X138501428Y-107235640D01*
X138501428Y-107235640D02*
X138406190Y-107283259D01*
X138406190Y-107283259D02*
X138120476Y-107283259D01*
X138120476Y-107283259D02*
X138025238Y-107235640D01*
X138025238Y-107235640D02*
X137977619Y-107188020D01*
X167511905Y-109838259D02*
X167511905Y-108838259D01*
X167511905Y-108838259D02*
X167750000Y-108838259D01*
X167750000Y-108838259D02*
X167892857Y-108885878D01*
X167892857Y-108885878D02*
X167988095Y-108981116D01*
X167988095Y-108981116D02*
X168035714Y-109076354D01*
X168035714Y-109076354D02*
X168083333Y-109266830D01*
X168083333Y-109266830D02*
X168083333Y-109409687D01*
X168083333Y-109409687D02*
X168035714Y-109600163D01*
X168035714Y-109600163D02*
X167988095Y-109695401D01*
X167988095Y-109695401D02*
X167892857Y-109790640D01*
X167892857Y-109790640D02*
X167750000Y-109838259D01*
X167750000Y-109838259D02*
X167511905Y-109838259D01*
X169035714Y-109838259D02*
X168464286Y-109838259D01*
X168750000Y-109838259D02*
X168750000Y-108838259D01*
X168750000Y-108838259D02*
X168654762Y-108981116D01*
X168654762Y-108981116D02*
X168559524Y-109076354D01*
X168559524Y-109076354D02*
X168464286Y-109123973D01*
X163053259Y-111739285D02*
X163053259Y-112310713D01*
X163053259Y-112024999D02*
X162053259Y-112024999D01*
X162053259Y-112024999D02*
X162196116Y-112120237D01*
X162196116Y-112120237D02*
X162291354Y-112215475D01*
X162291354Y-112215475D02*
X162338973Y-112310713D01*
X125083333Y-72703259D02*
X124750000Y-72227068D01*
X124511905Y-72703259D02*
X124511905Y-71703259D01*
X124511905Y-71703259D02*
X124892857Y-71703259D01*
X124892857Y-71703259D02*
X124988095Y-71750878D01*
X124988095Y-71750878D02*
X125035714Y-71798497D01*
X125035714Y-71798497D02*
X125083333Y-71893735D01*
X125083333Y-71893735D02*
X125083333Y-72036592D01*
X125083333Y-72036592D02*
X125035714Y-72131830D01*
X125035714Y-72131830D02*
X124988095Y-72179449D01*
X124988095Y-72179449D02*
X124892857Y-72227068D01*
X124892857Y-72227068D02*
X124511905Y-72227068D01*
X125988095Y-71703259D02*
X125511905Y-71703259D01*
X125511905Y-71703259D02*
X125464286Y-72179449D01*
X125464286Y-72179449D02*
X125511905Y-72131830D01*
X125511905Y-72131830D02*
X125607143Y-72084211D01*
X125607143Y-72084211D02*
X125845238Y-72084211D01*
X125845238Y-72084211D02*
X125940476Y-72131830D01*
X125940476Y-72131830D02*
X125988095Y-72179449D01*
X125988095Y-72179449D02*
X126035714Y-72274687D01*
X126035714Y-72274687D02*
X126035714Y-72512782D01*
X126035714Y-72512782D02*
X125988095Y-72608020D01*
X125988095Y-72608020D02*
X125940476Y-72655640D01*
X125940476Y-72655640D02*
X125845238Y-72703259D01*
X125845238Y-72703259D02*
X125607143Y-72703259D01*
X125607143Y-72703259D02*
X125511905Y-72655640D01*
X125511905Y-72655640D02*
X125464286Y-72608020D01*
X175932142Y-81058020D02*
X175884523Y-81105640D01*
X175884523Y-81105640D02*
X175741666Y-81153259D01*
X175741666Y-81153259D02*
X175646428Y-81153259D01*
X175646428Y-81153259D02*
X175503571Y-81105640D01*
X175503571Y-81105640D02*
X175408333Y-81010401D01*
X175408333Y-81010401D02*
X175360714Y-80915163D01*
X175360714Y-80915163D02*
X175313095Y-80724687D01*
X175313095Y-80724687D02*
X175313095Y-80581830D01*
X175313095Y-80581830D02*
X175360714Y-80391354D01*
X175360714Y-80391354D02*
X175408333Y-80296116D01*
X175408333Y-80296116D02*
X175503571Y-80200878D01*
X175503571Y-80200878D02*
X175646428Y-80153259D01*
X175646428Y-80153259D02*
X175741666Y-80153259D01*
X175741666Y-80153259D02*
X175884523Y-80200878D01*
X175884523Y-80200878D02*
X175932142Y-80248497D01*
X176884523Y-81153259D02*
X176313095Y-81153259D01*
X176598809Y-81153259D02*
X176598809Y-80153259D01*
X176598809Y-80153259D02*
X176503571Y-80296116D01*
X176503571Y-80296116D02*
X176408333Y-80391354D01*
X176408333Y-80391354D02*
X176313095Y-80438973D01*
X177741666Y-80153259D02*
X177551190Y-80153259D01*
X177551190Y-80153259D02*
X177455952Y-80200878D01*
X177455952Y-80200878D02*
X177408333Y-80248497D01*
X177408333Y-80248497D02*
X177313095Y-80391354D01*
X177313095Y-80391354D02*
X177265476Y-80581830D01*
X177265476Y-80581830D02*
X177265476Y-80962782D01*
X177265476Y-80962782D02*
X177313095Y-81058020D01*
X177313095Y-81058020D02*
X177360714Y-81105640D01*
X177360714Y-81105640D02*
X177455952Y-81153259D01*
X177455952Y-81153259D02*
X177646428Y-81153259D01*
X177646428Y-81153259D02*
X177741666Y-81105640D01*
X177741666Y-81105640D02*
X177789285Y-81058020D01*
X177789285Y-81058020D02*
X177836904Y-80962782D01*
X177836904Y-80962782D02*
X177836904Y-80724687D01*
X177836904Y-80724687D02*
X177789285Y-80629449D01*
X177789285Y-80629449D02*
X177741666Y-80581830D01*
X177741666Y-80581830D02*
X177646428Y-80534211D01*
X177646428Y-80534211D02*
X177455952Y-80534211D01*
X177455952Y-80534211D02*
X177360714Y-80581830D01*
X177360714Y-80581830D02*
X177313095Y-80629449D01*
X177313095Y-80629449D02*
X177265476Y-80724687D01*
X163118095Y-91073259D02*
X163689523Y-91073259D01*
X163403809Y-92073259D02*
X163403809Y-91073259D01*
X164022857Y-92073259D02*
X164022857Y-91073259D01*
X164022857Y-91073259D02*
X164403809Y-91073259D01*
X164403809Y-91073259D02*
X164499047Y-91120878D01*
X164499047Y-91120878D02*
X164546666Y-91168497D01*
X164546666Y-91168497D02*
X164594285Y-91263735D01*
X164594285Y-91263735D02*
X164594285Y-91406592D01*
X164594285Y-91406592D02*
X164546666Y-91501830D01*
X164546666Y-91501830D02*
X164499047Y-91549449D01*
X164499047Y-91549449D02*
X164403809Y-91597068D01*
X164403809Y-91597068D02*
X164022857Y-91597068D01*
X165451428Y-91406592D02*
X165451428Y-92073259D01*
X165213333Y-91025640D02*
X164975238Y-91739925D01*
X164975238Y-91739925D02*
X165594285Y-91739925D01*
X182586919Y-97997458D02*
X182634539Y-98045077D01*
X182634539Y-98045077D02*
X182682158Y-98187934D01*
X182682158Y-98187934D02*
X182682158Y-98283172D01*
X182682158Y-98283172D02*
X182634539Y-98426029D01*
X182634539Y-98426029D02*
X182539300Y-98521267D01*
X182539300Y-98521267D02*
X182444062Y-98568886D01*
X182444062Y-98568886D02*
X182253586Y-98616505D01*
X182253586Y-98616505D02*
X182110729Y-98616505D01*
X182110729Y-98616505D02*
X181920253Y-98568886D01*
X181920253Y-98568886D02*
X181825015Y-98521267D01*
X181825015Y-98521267D02*
X181729777Y-98426029D01*
X181729777Y-98426029D02*
X181682158Y-98283172D01*
X181682158Y-98283172D02*
X181682158Y-98187934D01*
X181682158Y-98187934D02*
X181729777Y-98045077D01*
X181729777Y-98045077D02*
X181777396Y-97997458D01*
X182682158Y-97045077D02*
X182682158Y-97616505D01*
X182682158Y-97330791D02*
X181682158Y-97330791D01*
X181682158Y-97330791D02*
X181825015Y-97426029D01*
X181825015Y-97426029D02*
X181920253Y-97521267D01*
X181920253Y-97521267D02*
X181967872Y-97616505D01*
X181682158Y-96140315D02*
X181682158Y-96616505D01*
X181682158Y-96616505D02*
X182158348Y-96664124D01*
X182158348Y-96664124D02*
X182110729Y-96616505D01*
X182110729Y-96616505D02*
X182063110Y-96521267D01*
X182063110Y-96521267D02*
X182063110Y-96283172D01*
X182063110Y-96283172D02*
X182110729Y-96187934D01*
X182110729Y-96187934D02*
X182158348Y-96140315D01*
X182158348Y-96140315D02*
X182253586Y-96092696D01*
X182253586Y-96092696D02*
X182491681Y-96092696D01*
X182491681Y-96092696D02*
X182586919Y-96140315D01*
X182586919Y-96140315D02*
X182634539Y-96187934D01*
X182634539Y-96187934D02*
X182682158Y-96283172D01*
X182682158Y-96283172D02*
X182682158Y-96521267D01*
X182682158Y-96521267D02*
X182634539Y-96616505D01*
X182634539Y-96616505D02*
X182586919Y-96664124D01*
X178248020Y-102622857D02*
X178295640Y-102670476D01*
X178295640Y-102670476D02*
X178343259Y-102813333D01*
X178343259Y-102813333D02*
X178343259Y-102908571D01*
X178343259Y-102908571D02*
X178295640Y-103051428D01*
X178295640Y-103051428D02*
X178200401Y-103146666D01*
X178200401Y-103146666D02*
X178105163Y-103194285D01*
X178105163Y-103194285D02*
X177914687Y-103241904D01*
X177914687Y-103241904D02*
X177771830Y-103241904D01*
X177771830Y-103241904D02*
X177581354Y-103194285D01*
X177581354Y-103194285D02*
X177486116Y-103146666D01*
X177486116Y-103146666D02*
X177390878Y-103051428D01*
X177390878Y-103051428D02*
X177343259Y-102908571D01*
X177343259Y-102908571D02*
X177343259Y-102813333D01*
X177343259Y-102813333D02*
X177390878Y-102670476D01*
X177390878Y-102670476D02*
X177438497Y-102622857D01*
X178343259Y-101670476D02*
X178343259Y-102241904D01*
X178343259Y-101956190D02*
X177343259Y-101956190D01*
X177343259Y-101956190D02*
X177486116Y-102051428D01*
X177486116Y-102051428D02*
X177581354Y-102146666D01*
X177581354Y-102146666D02*
X177628973Y-102241904D01*
X177343259Y-101337142D02*
X177343259Y-100718095D01*
X177343259Y-100718095D02*
X177724211Y-101051428D01*
X177724211Y-101051428D02*
X177724211Y-100908571D01*
X177724211Y-100908571D02*
X177771830Y-100813333D01*
X177771830Y-100813333D02*
X177819449Y-100765714D01*
X177819449Y-100765714D02*
X177914687Y-100718095D01*
X177914687Y-100718095D02*
X178152782Y-100718095D01*
X178152782Y-100718095D02*
X178248020Y-100765714D01*
X178248020Y-100765714D02*
X178295640Y-100813333D01*
X178295640Y-100813333D02*
X178343259Y-100908571D01*
X178343259Y-100908571D02*
X178343259Y-101194285D01*
X178343259Y-101194285D02*
X178295640Y-101289523D01*
X178295640Y-101289523D02*
X178248020Y-101337142D01*
X186663259Y-77631904D02*
X186663259Y-77060476D01*
X187663259Y-77346190D02*
X186663259Y-77346190D01*
X187663259Y-76727142D02*
X186663259Y-76727142D01*
X186663259Y-76727142D02*
X186663259Y-76346190D01*
X186663259Y-76346190D02*
X186710878Y-76250952D01*
X186710878Y-76250952D02*
X186758497Y-76203333D01*
X186758497Y-76203333D02*
X186853735Y-76155714D01*
X186853735Y-76155714D02*
X186996592Y-76155714D01*
X186996592Y-76155714D02*
X187091830Y-76203333D01*
X187091830Y-76203333D02*
X187139449Y-76250952D01*
X187139449Y-76250952D02*
X187187068Y-76346190D01*
X187187068Y-76346190D02*
X187187068Y-76727142D01*
X187663259Y-75203333D02*
X187663259Y-75774761D01*
X187663259Y-75489047D02*
X186663259Y-75489047D01*
X186663259Y-75489047D02*
X186806116Y-75584285D01*
X186806116Y-75584285D02*
X186901354Y-75679523D01*
X186901354Y-75679523D02*
X186948973Y-75774761D01*
X186793259Y-64891904D02*
X186793259Y-64320476D01*
X187793259Y-64606190D02*
X186793259Y-64606190D01*
X187793259Y-63987142D02*
X186793259Y-63987142D01*
X186793259Y-63987142D02*
X186793259Y-63606190D01*
X186793259Y-63606190D02*
X186840878Y-63510952D01*
X186840878Y-63510952D02*
X186888497Y-63463333D01*
X186888497Y-63463333D02*
X186983735Y-63415714D01*
X186983735Y-63415714D02*
X187126592Y-63415714D01*
X187126592Y-63415714D02*
X187221830Y-63463333D01*
X187221830Y-63463333D02*
X187269449Y-63510952D01*
X187269449Y-63510952D02*
X187317068Y-63606190D01*
X187317068Y-63606190D02*
X187317068Y-63987142D01*
X186888497Y-63034761D02*
X186840878Y-62987142D01*
X186840878Y-62987142D02*
X186793259Y-62891904D01*
X186793259Y-62891904D02*
X186793259Y-62653809D01*
X186793259Y-62653809D02*
X186840878Y-62558571D01*
X186840878Y-62558571D02*
X186888497Y-62510952D01*
X186888497Y-62510952D02*
X186983735Y-62463333D01*
X186983735Y-62463333D02*
X187078973Y-62463333D01*
X187078973Y-62463333D02*
X187221830Y-62510952D01*
X187221830Y-62510952D02*
X187793259Y-63082380D01*
X187793259Y-63082380D02*
X187793259Y-62463333D01*
X173056666Y-92343259D02*
X173056666Y-93057544D01*
X173056666Y-93057544D02*
X173009047Y-93200401D01*
X173009047Y-93200401D02*
X172913809Y-93295640D01*
X172913809Y-93295640D02*
X172770952Y-93343259D01*
X172770952Y-93343259D02*
X172675714Y-93343259D01*
X174009047Y-92343259D02*
X173532857Y-92343259D01*
X173532857Y-92343259D02*
X173485238Y-92819449D01*
X173485238Y-92819449D02*
X173532857Y-92771830D01*
X173532857Y-92771830D02*
X173628095Y-92724211D01*
X173628095Y-92724211D02*
X173866190Y-92724211D01*
X173866190Y-92724211D02*
X173961428Y-92771830D01*
X173961428Y-92771830D02*
X174009047Y-92819449D01*
X174009047Y-92819449D02*
X174056666Y-92914687D01*
X174056666Y-92914687D02*
X174056666Y-93152782D01*
X174056666Y-93152782D02*
X174009047Y-93248020D01*
X174009047Y-93248020D02*
X173961428Y-93295640D01*
X173961428Y-93295640D02*
X173866190Y-93343259D01*
X173866190Y-93343259D02*
X173628095Y-93343259D01*
X173628095Y-93343259D02*
X173532857Y-93295640D01*
X173532857Y-93295640D02*
X173485238Y-93248020D01*
D11*
X168965000Y-102728751D02*
X168965000Y-101306247D01*
X170785000Y-102728751D02*
X170785000Y-101306247D01*
X147002500Y-88225000D02*
X147002500Y-87990000D01*
X147002500Y-94970000D02*
X147002500Y-94495000D01*
X147477500Y-87750000D02*
X147302500Y-87750000D01*
X147477500Y-94970000D02*
X147002500Y-94970000D01*
X153747500Y-87750000D02*
X154222500Y-87750000D01*
X153747500Y-94970000D02*
X154222500Y-94970000D01*
X154222500Y-87750000D02*
X154222500Y-88225000D01*
X154222500Y-94970000D02*
X154222500Y-94495000D01*
X147002500Y-87750000D02*
X146762500Y-87420000D01*
X147242500Y-87420000D01*
X147002500Y-87750000D01*
G36*
X147002500Y-87750000D02*
G01*
X146762500Y-87420000D01*
X147242500Y-87420000D01*
X147002500Y-87750000D01*
G37*
D12*
X141056700Y-52375500D02*
X143317300Y-52375500D01*
X143317300Y-50724500D02*
X141056700Y-50724500D01*
D11*
X143015000Y-113348752D02*
X143015000Y-111926248D01*
X144835000Y-113348752D02*
X144835000Y-111926248D01*
X187680000Y-94812936D02*
X187680000Y-96267064D01*
X189500000Y-94812936D02*
X189500000Y-96267064D01*
X144778000Y-93591768D02*
X144778000Y-93299234D01*
X145798000Y-93591768D02*
X145798000Y-93299234D01*
X145975000Y-112975000D02*
X145975000Y-114755000D01*
X147875000Y-110055000D02*
X147075000Y-110055000D01*
X155375000Y-112975000D02*
X155375000Y-114755000D01*
X170270000Y-89190000D02*
G75*
G02*
X167270000Y-89190000I-1500000J0D01*
G01*
X167270000Y-89190000D02*
G75*
G02*
X170270000Y-89190000I1500000J0D01*
G01*
X130080000Y-97861248D02*
X130080000Y-99283752D01*
X131900000Y-97861248D02*
X131900000Y-99283752D01*
X148570000Y-104726248D02*
X148570000Y-106148752D01*
X150390000Y-104726248D02*
X150390000Y-106148752D01*
X156540000Y-113328752D02*
X156540000Y-111906248D01*
X158360000Y-113328752D02*
X158360000Y-111906248D01*
D12*
X181503800Y-85169500D02*
X181503800Y-85633289D01*
X181503800Y-90166711D02*
X181503800Y-90630500D01*
X181503800Y-90630500D02*
X186964800Y-90630500D01*
X186964800Y-85169500D02*
X181503800Y-85169500D01*
X186964800Y-85633289D02*
X186964800Y-85169500D01*
X186964800Y-90630500D02*
X186964800Y-90166711D01*
D11*
X161306396Y-80680000D02*
X161306396Y-83340000D01*
X168986396Y-80680000D02*
X161306396Y-80680000D01*
X168986396Y-80680000D02*
X168986396Y-83340000D01*
X168986396Y-83340000D02*
X161306396Y-83340000D01*
X170256396Y-80680000D02*
X171586396Y-80680000D01*
X171586396Y-80680000D02*
X171586396Y-82010000D01*
X127810000Y-99337064D02*
X127810000Y-97882936D01*
X129630000Y-99337064D02*
X129630000Y-97882936D01*
X187710000Y-91018752D02*
X187710000Y-89596248D01*
X189530000Y-91018752D02*
X189530000Y-89596248D01*
X143360000Y-84031235D02*
X143360000Y-84323769D01*
X144380000Y-84031235D02*
X144380000Y-84323769D01*
D13*
X138355000Y-53432500D02*
X139890000Y-53432500D01*
X138355000Y-77432500D02*
X138355000Y-53432500D01*
X139890000Y-77432500D02*
X138355000Y-77432500D01*
X176855000Y-53432500D02*
X172500000Y-53432500D01*
X176855000Y-53432500D02*
X176855000Y-77432500D01*
X176855000Y-77432500D02*
X172500000Y-77432500D01*
D14*
X171525000Y-51817500D02*
G75*
G02*
X171325000Y-51817500I-100000J0D01*
G01*
X171325000Y-51817500D02*
G75*
G02*
X171525000Y-51817500I100000J0D01*
G01*
D12*
X125767901Y-89258249D02*
X125767901Y-94922449D01*
X125767901Y-94922449D02*
X126137862Y-94922449D01*
X126137862Y-89258249D02*
X125767901Y-89258249D01*
X127362142Y-94922449D02*
X129837860Y-94922449D01*
X129837860Y-89258249D02*
X127362142Y-89258249D01*
X131062140Y-94922449D02*
X131432101Y-94922449D01*
X131432101Y-89258249D02*
X131062140Y-89258249D01*
X131432101Y-94922449D02*
X131432101Y-89258249D01*
D11*
X172987499Y-101229998D02*
X172337499Y-101229999D01*
X172987499Y-101229998D02*
X173637499Y-101229999D01*
X172987499Y-104350000D02*
X172337499Y-104349999D01*
X172987499Y-104350000D02*
X173637499Y-104349999D01*
X172064999Y-100950000D02*
X171824999Y-101279999D01*
X171584999Y-100949999D01*
X172064999Y-100950000D01*
G36*
X172064999Y-100950000D02*
G01*
X171824999Y-101279999D01*
X171584999Y-100949999D01*
X172064999Y-100950000D01*
G37*
X129139999Y-73209097D02*
X129139999Y-74631601D01*
X130959999Y-73209097D02*
X130959999Y-74631601D01*
X156102064Y-100690000D02*
X154647936Y-100690000D01*
X156102064Y-102510000D02*
X154647936Y-102510000D01*
D13*
X141160000Y-82130001D02*
X141160000Y-83010001D01*
X142660000Y-82130001D02*
X142660000Y-83010001D01*
D15*
X142051419Y-79870001D02*
G75*
G02*
X141768581Y-79870001I-141419J0D01*
G01*
X141768581Y-79870001D02*
G75*
G02*
X142051419Y-79870001I141419J0D01*
G01*
D11*
X133725000Y-80837499D02*
X133725000Y-96812499D01*
X138825000Y-80837499D02*
X133725000Y-80837499D01*
X138825000Y-96812499D02*
X138825000Y-80837499D01*
X153931232Y-95756000D02*
X154223766Y-95756000D01*
X153931232Y-96776000D02*
X154223766Y-96776000D01*
X155065000Y-87637232D02*
X155065000Y-87929766D01*
X156085000Y-87637232D02*
X156085000Y-87929766D01*
X139165000Y-88298752D02*
X139165000Y-86876248D01*
X140985000Y-88298752D02*
X140985000Y-86876248D01*
X185410000Y-96222937D02*
X185410000Y-97677065D01*
X187230000Y-96222937D02*
X187230000Y-97677065D01*
X147439768Y-85977000D02*
X147147234Y-85977000D01*
X147439768Y-86997000D02*
X147147234Y-86997000D01*
X143350000Y-80731235D02*
X143350000Y-81023769D01*
X144370000Y-80731235D02*
X144370000Y-81023769D01*
X161270000Y-94640000D02*
X161270000Y-97300000D01*
X168949999Y-94640000D02*
X161270000Y-94640000D01*
X168949999Y-94640000D02*
X168949999Y-97300000D01*
X168949999Y-97300000D02*
X161270000Y-97300000D01*
X170220000Y-94640000D02*
X171550000Y-94640000D01*
X171550000Y-94640000D02*
X171550000Y-95970000D01*
D12*
X173675900Y-85206301D02*
X173675900Y-87466901D01*
X175326900Y-87466901D02*
X175326900Y-85206301D01*
D11*
X179262501Y-87053353D02*
X179262501Y-85630849D01*
X181082501Y-87053353D02*
X181082501Y-85630849D01*
X156098752Y-98390000D02*
X154676248Y-98390000D01*
X156098752Y-100210000D02*
X154676248Y-100210000D01*
X139165000Y-93401248D02*
X139165000Y-94823752D01*
X140985000Y-93401248D02*
X140985000Y-94823752D01*
D12*
X125927900Y-77477900D02*
X125927900Y-83142100D01*
X125927900Y-83142100D02*
X126297861Y-83142100D01*
X126297861Y-77477900D02*
X125927900Y-77477900D01*
X127522141Y-83142100D02*
X129997859Y-83142100D01*
X129997859Y-77477900D02*
X127522141Y-77477900D01*
X131222139Y-83142100D02*
X131592100Y-83142100D01*
X131592100Y-77477900D02*
X131222139Y-77477900D01*
X131592100Y-83142100D02*
X131592100Y-77477900D01*
D11*
X185391399Y-91189600D02*
X184591399Y-91189600D01*
X185391399Y-91189600D02*
X186191399Y-91189600D01*
X185391399Y-94309600D02*
X184591399Y-94309600D01*
X185391399Y-94309600D02*
X186191399Y-94309600D01*
X184091399Y-91239600D02*
X183851399Y-90909600D01*
X184331399Y-90909600D01*
X184091399Y-91239600D01*
G36*
X184091399Y-91239600D02*
G01*
X183851399Y-90909600D01*
X184331399Y-90909600D01*
X184091399Y-91239600D01*
G37*
X150890000Y-104726248D02*
X150890000Y-106148752D01*
X152710000Y-104726248D02*
X152710000Y-106148752D01*
X137004668Y-103756245D02*
X137888552Y-104640128D01*
X137414790Y-103756245D02*
X141636217Y-107977672D01*
X137428932Y-103756245D02*
X137959262Y-104286575D01*
X137888552Y-102872361D02*
X137004668Y-103756245D01*
X137959262Y-104286575D02*
X139232054Y-103013783D01*
X138701724Y-102483452D02*
X137428932Y-103756245D01*
X139019922Y-105347235D02*
X139550252Y-104816905D01*
X139232054Y-103013783D02*
X138701724Y-102483452D01*
X139550252Y-104816905D02*
X141636217Y-106902870D01*
X139762384Y-101422792D02*
X140292715Y-101953122D01*
X140292715Y-101953122D02*
X142767588Y-99478249D01*
X141636217Y-106902870D02*
X144676777Y-103862311D01*
X141636217Y-107977672D02*
X148792138Y-100821752D01*
X142237258Y-98947919D02*
X139762384Y-101422792D01*
X142767588Y-99478249D02*
X142237258Y-98947919D01*
X143297918Y-97887258D02*
X143828248Y-98417588D01*
X143828248Y-98417588D02*
X145101041Y-97144796D01*
X144570711Y-96600324D02*
X137414790Y-103756245D01*
X144570711Y-96614466D02*
X143297918Y-97887258D01*
X145101041Y-97144796D02*
X144570711Y-96614466D01*
X145631371Y-98735787D02*
X147717336Y-100821752D01*
X146161701Y-98205456D02*
X145631371Y-98735787D01*
X147717336Y-100821752D02*
X144676777Y-103862311D01*
X148792138Y-100821752D02*
X144570711Y-96600324D01*
X161450000Y-111375000D02*
X161450000Y-104375000D01*
X161450000Y-111375000D02*
X166950000Y-111375000D01*
X165100000Y-105175000D02*
X163300000Y-105175000D01*
X165100000Y-110575000D02*
X163300000Y-110575000D01*
X166500000Y-104375000D02*
X161450000Y-104375000D01*
X166950000Y-104825000D02*
X166500000Y-104375000D01*
X166950000Y-111375000D02*
X166950000Y-104825000D01*
X126489999Y-73173285D02*
X126489999Y-74627413D01*
X128309999Y-73173285D02*
X128309999Y-74627413D01*
X175710000Y-87053353D02*
X175710000Y-85630849D01*
X177530000Y-87053353D02*
X177530000Y-85630849D01*
X165670000Y-89120000D02*
G75*
G02*
X162670000Y-89120000I-1500000J0D01*
G01*
X162670000Y-89120000D02*
G75*
G02*
X165670000Y-89120000I1500000J0D01*
G01*
X181268899Y-94153353D02*
X181268899Y-92730849D01*
X183088899Y-94153353D02*
X183088899Y-92730849D01*
X175155000Y-102698752D02*
X175155000Y-101276248D01*
X176975000Y-102698752D02*
X176975000Y-101276248D01*
X187080000Y-73410000D02*
G75*
G02*
X184080000Y-73410000I-1500000J0D01*
G01*
X184080000Y-73410000D02*
G75*
G02*
X187080000Y-73410000I1500000J0D01*
G01*
X187130000Y-66660000D02*
G75*
G02*
X184130000Y-66660000I-1500000J0D01*
G01*
X184130000Y-66660000D02*
G75*
G02*
X187130000Y-66660000I1500000J0D01*
G01*
X174668899Y-89319602D02*
X174668899Y-96939602D01*
X174668899Y-96939602D02*
X180638899Y-96939602D01*
X175428899Y-90079602D02*
X175428899Y-93129602D01*
X175428899Y-96179602D02*
X175428899Y-93129602D01*
X178378899Y-89329602D02*
X178378899Y-90079602D01*
X178378899Y-90079602D02*
X175428899Y-90079602D01*
X178378899Y-96179602D02*
X175428899Y-96179602D01*
X178378899Y-96929602D02*
X178378899Y-96179602D01*
X179878899Y-89329602D02*
X179878899Y-91129602D01*
X179878899Y-91129602D02*
X180628899Y-91129602D01*
X179878899Y-92629602D02*
X179878899Y-93629602D01*
X179878899Y-93629602D02*
X180628899Y-93629602D01*
X179878899Y-95129602D02*
X179878899Y-96929602D01*
X179878899Y-96929602D02*
X180628899Y-96929602D01*
X180628899Y-89329602D02*
X179878899Y-89329602D01*
X180628899Y-91129602D02*
X180628899Y-89329602D01*
X180628899Y-92629602D02*
X179878899Y-92629602D01*
X180628899Y-93629602D02*
X180628899Y-92629602D01*
X180628899Y-95129602D02*
X179878899Y-95129602D01*
X180628899Y-96929602D02*
X180628899Y-95129602D01*
X180638899Y-89319602D02*
X174668899Y-89319602D01*
X180638899Y-96939602D02*
X180638899Y-89319602D01*
X180928899Y-89029602D02*
X179678899Y-89029602D01*
X180928899Y-90279602D02*
X180928899Y-89029602D01*
%LPC*%
D16*
X169875000Y-103579999D03*
X169875000Y-100454999D03*
D17*
X147175000Y-88610000D03*
X147175000Y-89110000D03*
X147175000Y-89610000D03*
X147175000Y-90110000D03*
X147175000Y-90610000D03*
X147175000Y-91110000D03*
X147175000Y-91610000D03*
X147175000Y-92110000D03*
X147175000Y-92610000D03*
X147175000Y-93110000D03*
X147175000Y-93610000D03*
X147175000Y-94110000D03*
D18*
X147862500Y-94797500D03*
X148362500Y-94797500D03*
X148862500Y-94797500D03*
X149362500Y-94797500D03*
X149862500Y-94797500D03*
X150362500Y-94797500D03*
X150862500Y-94797500D03*
X151362500Y-94797500D03*
X151862500Y-94797500D03*
X152362500Y-94797500D03*
X152862500Y-94797500D03*
X153362500Y-94797500D03*
D17*
X154050000Y-94110000D03*
X154050000Y-93610000D03*
X154050000Y-93110000D03*
X154050000Y-92610000D03*
X154050000Y-92110000D03*
X154050000Y-91610000D03*
X154050000Y-91110000D03*
X154050000Y-90610000D03*
X154050000Y-90110000D03*
X154050000Y-89610000D03*
X154050000Y-89110000D03*
X154050000Y-88610000D03*
D18*
X153362500Y-87922500D03*
X152862500Y-87922500D03*
X152362500Y-87922500D03*
X151862500Y-87922500D03*
X151362500Y-87922500D03*
X150862500Y-87922500D03*
X150362500Y-87922500D03*
X149862500Y-87922500D03*
X149362500Y-87922500D03*
X148862500Y-87922500D03*
X148362500Y-87922500D03*
X147862500Y-87922500D03*
D19*
X150612500Y-91360000D03*
D20*
X143330000Y-51550000D03*
X141044000Y-51550000D03*
D16*
X143925000Y-114200000D03*
X143925000Y-111075000D03*
D21*
X188590000Y-93989999D03*
X188590000Y-97090001D03*
D22*
X145288000Y-94308001D03*
X145288000Y-92583001D03*
D23*
X147785000Y-112150000D03*
X153565000Y-112150000D03*
D24*
X147475000Y-110945000D03*
D25*
X148275000Y-110957500D03*
D26*
X149425000Y-111010000D03*
X150425000Y-111010000D03*
X150925000Y-111010000D03*
X151925000Y-111010000D03*
D25*
X153075000Y-110957500D03*
D24*
X153875000Y-110945000D03*
X153875000Y-110945000D03*
D25*
X153075000Y-110957500D03*
D26*
X152425000Y-111010000D03*
X151425000Y-111010000D03*
X149925000Y-111010000D03*
X148925000Y-111010000D03*
D25*
X148275000Y-110957500D03*
D24*
X147475000Y-110945000D03*
D27*
X146355000Y-111650000D03*
D28*
X146355000Y-115830000D03*
D27*
X154995000Y-111650000D03*
D28*
X154995000Y-115830000D03*
D29*
X168770000Y-89190000D03*
D30*
X130990000Y-97010000D03*
X130990000Y-100135000D03*
X149480000Y-103875000D03*
X149480000Y-107000000D03*
D16*
X157450000Y-114180000D03*
X157450000Y-111055000D03*
D31*
X186025000Y-87900000D03*
X182443600Y-87900000D03*
D32*
X170256396Y-82010000D03*
D33*
X167716396Y-82010000D03*
X165176396Y-82010000D03*
X162636396Y-82010000D03*
D34*
X128720000Y-100160000D03*
X128720000Y-97060000D03*
D16*
X188620000Y-91870000D03*
X188620000Y-88745000D03*
D35*
X143870000Y-83315002D03*
X143870000Y-85040002D03*
D36*
X171425000Y-53857500D03*
X168885000Y-53857500D03*
X166345000Y-53857500D03*
X158745000Y-53857500D03*
X156205000Y-53857500D03*
X153665000Y-53857500D03*
X151125000Y-53857500D03*
X148585000Y-53857500D03*
X146045000Y-53857500D03*
X143505000Y-53857500D03*
X140965000Y-53857500D03*
X140965000Y-77007500D03*
X143505000Y-77007500D03*
X146045000Y-77007500D03*
X148585000Y-77007500D03*
X151125000Y-77007500D03*
X153665000Y-77007500D03*
X156205000Y-77007500D03*
X158745000Y-77007500D03*
X166345000Y-77007500D03*
X168885000Y-77007500D03*
X171425000Y-77007500D03*
D37*
X126750002Y-95270698D03*
X130450000Y-95270698D03*
X130450000Y-88910000D03*
X126750002Y-88910000D03*
D38*
X172049999Y-101839999D03*
X172049999Y-103739999D03*
X173925000Y-102789999D03*
D30*
X130049999Y-72357849D03*
X130049999Y-75482849D03*
D39*
X156925000Y-101600000D03*
X153825000Y-101600000D03*
D40*
X141910000Y-81320001D03*
X141910000Y-83820001D03*
D41*
X136275000Y-84974999D03*
X136275000Y-96849999D03*
D42*
X153214999Y-96266000D03*
X154939999Y-96266000D03*
D35*
X155575000Y-86920999D03*
X155575000Y-88645999D03*
D16*
X140075000Y-89150000D03*
X140075000Y-86025000D03*
D21*
X186320000Y-95400000D03*
X186320000Y-98500002D03*
D43*
X148156001Y-86487000D03*
X146431001Y-86487000D03*
D35*
X143860000Y-80015002D03*
X143860000Y-81740002D03*
D32*
X170220000Y-95970000D03*
D33*
X167680000Y-95970000D03*
X165140001Y-95970000D03*
X162600000Y-95970000D03*
D20*
X174501400Y-85193601D03*
X174501400Y-87479601D03*
D16*
X180172501Y-87904601D03*
X180172501Y-84779601D03*
D44*
X156950000Y-99300000D03*
X153825000Y-99300000D03*
D30*
X140075000Y-92550000D03*
X140075000Y-95675000D03*
D37*
X130609999Y-77129651D03*
X126910001Y-77129651D03*
X126910001Y-83490349D03*
X130609999Y-83490349D03*
D45*
X184253899Y-91799600D03*
X184253899Y-92749600D03*
X184253899Y-93699600D03*
X186528899Y-93699600D03*
X186528899Y-92749600D03*
X186528899Y-91799600D03*
D30*
X151800000Y-103875000D03*
X151800000Y-107000000D03*
D46*
X140964466Y-103685534D03*
D47*
X142732233Y-101917767D03*
X144500000Y-100150000D03*
D48*
X162550000Y-110325000D03*
X165850000Y-110325000D03*
X165850000Y-105425000D03*
X162550000Y-105425000D03*
D21*
X127399999Y-72350349D03*
X127399999Y-75450349D03*
D16*
X176620000Y-87904601D03*
X176620000Y-84779601D03*
D29*
X164170000Y-89120000D03*
D16*
X182178899Y-95004601D03*
X182178899Y-91879601D03*
X176065000Y-103550000D03*
X176065000Y-100425000D03*
D29*
X185580000Y-73410000D03*
X185630000Y-66660000D03*
D49*
X178178899Y-91879602D03*
D50*
X178178899Y-94379602D03*
G36*
X181564130Y-81918493D02*
G01*
X181591201Y-81924671D01*
X181733921Y-81974611D01*
X181758938Y-81986659D01*
X181886963Y-82067102D01*
X181908672Y-82084415D01*
X182015584Y-82191327D01*
X182032897Y-82213036D01*
X182113340Y-82341061D01*
X182125388Y-82366078D01*
X182175328Y-82508798D01*
X182181506Y-82535869D01*
X182198435Y-82686116D01*
X182198435Y-82713884D01*
X182181506Y-82864130D01*
X182175328Y-82891201D01*
X182125388Y-83033921D01*
X182113340Y-83058938D01*
X182032897Y-83186963D01*
X182015584Y-83208672D01*
X181908672Y-83315584D01*
X181886963Y-83332897D01*
X181758938Y-83413340D01*
X181733921Y-83425388D01*
X181591201Y-83475328D01*
X181564130Y-83481506D01*
X181413884Y-83498435D01*
X181386116Y-83498435D01*
X181235869Y-83481506D01*
X181208798Y-83475328D01*
X181066078Y-83425388D01*
X181041061Y-83413340D01*
X180913036Y-83332897D01*
X180891327Y-83315584D01*
X180784415Y-83208672D01*
X180767102Y-83186963D01*
X180686659Y-83058938D01*
X180674611Y-83033921D01*
X180624671Y-82891201D01*
X180618493Y-82864130D01*
X180601564Y-82713884D01*
X180601564Y-82686116D01*
X180618493Y-82535869D01*
X180624671Y-82508798D01*
X180674611Y-82366078D01*
X180686659Y-82341061D01*
X180767102Y-82213036D01*
X180784415Y-82191327D01*
X180891327Y-82084415D01*
X180913036Y-82067102D01*
X181041061Y-81986659D01*
X181066078Y-81974611D01*
X181208798Y-81924671D01*
X181235869Y-81918493D01*
X181386116Y-81901564D01*
X181413884Y-81901564D01*
X181564130Y-81918493D01*
G37*
G36*
X173139107Y-99818314D02*
G01*
X173170374Y-99826692D01*
X173284917Y-99874137D01*
X173312950Y-99890322D01*
X173411312Y-99965797D01*
X173434202Y-99988687D01*
X173509677Y-100087049D01*
X173525862Y-100115082D01*
X173573307Y-100229625D01*
X173581685Y-100260892D01*
X173597869Y-100383814D01*
X173597869Y-100416186D01*
X173581685Y-100539107D01*
X173573307Y-100570374D01*
X173525862Y-100684917D01*
X173509677Y-100712950D01*
X173434202Y-100811312D01*
X173411312Y-100834202D01*
X173312950Y-100909677D01*
X173284917Y-100925862D01*
X173170374Y-100973307D01*
X173139107Y-100981685D01*
X173016186Y-100997869D01*
X172983814Y-100997869D01*
X172860892Y-100981685D01*
X172829625Y-100973307D01*
X172715082Y-100925862D01*
X172687049Y-100909677D01*
X172588687Y-100834202D01*
X172565797Y-100811312D01*
X172490322Y-100712950D01*
X172474137Y-100684917D01*
X172426692Y-100570374D01*
X172418314Y-100539107D01*
X172402130Y-100416186D01*
X172402130Y-100383814D01*
X172418314Y-100260892D01*
X172426692Y-100229625D01*
X172474137Y-100115082D01*
X172490322Y-100087049D01*
X172565797Y-99988687D01*
X172588687Y-99965797D01*
X172687049Y-99890322D01*
X172715082Y-99874137D01*
X172829625Y-99826692D01*
X172860892Y-99818314D01*
X172983814Y-99802130D01*
X173016186Y-99802130D01*
X173139107Y-99818314D01*
G37*
G36*
X174339107Y-101118314D02*
G01*
X174370374Y-101126692D01*
X174484917Y-101174137D01*
X174512950Y-101190322D01*
X174611312Y-101265797D01*
X174634202Y-101288687D01*
X174709677Y-101387049D01*
X174725862Y-101415082D01*
X174773307Y-101529625D01*
X174781685Y-101560892D01*
X174797869Y-101683814D01*
X174797869Y-101716186D01*
X174781685Y-101839107D01*
X174773307Y-101870374D01*
X174725862Y-101984917D01*
X174709677Y-102012950D01*
X174634202Y-102111312D01*
X174611312Y-102134202D01*
X174512950Y-102209677D01*
X174484917Y-102225862D01*
X174370374Y-102273307D01*
X174339107Y-102281685D01*
X174216186Y-102297869D01*
X174183814Y-102297869D01*
X174060892Y-102281685D01*
X174029625Y-102273307D01*
X173915082Y-102225862D01*
X173887049Y-102209677D01*
X173788687Y-102134202D01*
X173765797Y-102111312D01*
X173690322Y-102012950D01*
X173674137Y-101984917D01*
X173626692Y-101870374D01*
X173618314Y-101839107D01*
X173602130Y-101716186D01*
X173602130Y-101683814D01*
X173618314Y-101560892D01*
X173626692Y-101529625D01*
X173674137Y-101415082D01*
X173690322Y-101387049D01*
X173765797Y-101288687D01*
X173788687Y-101265797D01*
X173887049Y-101190322D01*
X173915082Y-101174137D01*
X174029625Y-101126692D01*
X174060892Y-101118314D01*
X174183814Y-101102130D01*
X174216186Y-101102130D01*
X174339107Y-101118314D01*
G37*
G36*
X178539107Y-87318314D02*
G01*
X178570374Y-87326692D01*
X178684917Y-87374137D01*
X178712950Y-87390322D01*
X178811312Y-87465797D01*
X178834202Y-87488687D01*
X178909677Y-87587049D01*
X178925862Y-87615082D01*
X178973307Y-87729625D01*
X178981685Y-87760892D01*
X178997869Y-87883814D01*
X178997869Y-87916186D01*
X178981685Y-88039107D01*
X178973307Y-88070374D01*
X178925862Y-88184917D01*
X178909677Y-88212950D01*
X178834202Y-88311312D01*
X178811312Y-88334202D01*
X178712950Y-88409677D01*
X178684917Y-88425862D01*
X178570374Y-88473307D01*
X178539107Y-88481685D01*
X178416186Y-88497869D01*
X178383814Y-88497869D01*
X178260892Y-88481685D01*
X178229625Y-88473307D01*
X178115082Y-88425862D01*
X178087049Y-88409677D01*
X177988687Y-88334202D01*
X177965797Y-88311312D01*
X177890322Y-88212950D01*
X177874137Y-88184917D01*
X177826692Y-88070374D01*
X177818314Y-88039107D01*
X177802130Y-87916186D01*
X177802130Y-87883814D01*
X177818314Y-87760892D01*
X177826692Y-87729625D01*
X177874137Y-87615082D01*
X177890322Y-87587049D01*
X177965797Y-87488687D01*
X177988687Y-87465797D01*
X178087049Y-87390322D01*
X178115082Y-87374137D01*
X178229625Y-87326692D01*
X178260892Y-87318314D01*
X178383814Y-87302130D01*
X178416186Y-87302130D01*
X178539107Y-87318314D01*
G37*
G36*
X148464130Y-108418493D02*
G01*
X148491201Y-108424671D01*
X148633921Y-108474611D01*
X148658938Y-108486659D01*
X148786963Y-108567102D01*
X148808672Y-108584415D01*
X148915584Y-108691327D01*
X148932897Y-108713036D01*
X149013340Y-108841061D01*
X149025388Y-108866078D01*
X149075328Y-109008798D01*
X149081506Y-109035869D01*
X149098435Y-109186116D01*
X149098435Y-109213884D01*
X149081506Y-109364130D01*
X149075328Y-109391201D01*
X149025388Y-109533921D01*
X149013340Y-109558938D01*
X148932897Y-109686963D01*
X148915584Y-109708672D01*
X148808672Y-109815584D01*
X148786963Y-109832897D01*
X148658938Y-109913340D01*
X148633921Y-109925388D01*
X148491201Y-109975328D01*
X148464130Y-109981506D01*
X148313884Y-109998435D01*
X148286116Y-109998435D01*
X148135869Y-109981506D01*
X148108798Y-109975328D01*
X147966078Y-109925388D01*
X147941061Y-109913340D01*
X147813036Y-109832897D01*
X147791327Y-109815584D01*
X147684415Y-109708672D01*
X147667102Y-109686963D01*
X147586659Y-109558938D01*
X147574611Y-109533921D01*
X147524671Y-109391201D01*
X147518493Y-109364130D01*
X147501564Y-109213884D01*
X147501564Y-109186116D01*
X147518493Y-109035869D01*
X147524671Y-109008798D01*
X147574611Y-108866078D01*
X147586659Y-108841061D01*
X147667102Y-108713036D01*
X147684415Y-108691327D01*
X147791327Y-108584415D01*
X147813036Y-108567102D01*
X147941061Y-108486659D01*
X147966078Y-108474611D01*
X148108798Y-108424671D01*
X148135869Y-108418493D01*
X148286116Y-108401564D01*
X148313884Y-108401564D01*
X148464130Y-108418493D01*
G37*
G36*
X170639107Y-104418314D02*
G01*
X170670374Y-104426692D01*
X170784917Y-104474137D01*
X170812950Y-104490322D01*
X170911312Y-104565797D01*
X170934202Y-104588687D01*
X171009677Y-104687049D01*
X171025862Y-104715082D01*
X171073307Y-104829625D01*
X171081685Y-104860892D01*
X171097869Y-104983814D01*
X171097869Y-105016186D01*
X171081685Y-105139107D01*
X171073307Y-105170374D01*
X171025862Y-105284917D01*
X171009677Y-105312950D01*
X170934202Y-105411312D01*
X170911312Y-105434202D01*
X170812950Y-105509677D01*
X170784917Y-105525862D01*
X170670374Y-105573307D01*
X170639107Y-105581685D01*
X170516186Y-105597869D01*
X170483814Y-105597869D01*
X170360892Y-105581685D01*
X170329625Y-105573307D01*
X170215082Y-105525862D01*
X170187049Y-105509677D01*
X170088687Y-105434202D01*
X170065797Y-105411312D01*
X169990322Y-105312950D01*
X169974137Y-105284917D01*
X169926692Y-105170374D01*
X169918314Y-105139107D01*
X169902130Y-105016186D01*
X169902130Y-104983814D01*
X169918314Y-104860892D01*
X169926692Y-104829625D01*
X169974137Y-104715082D01*
X169990322Y-104687049D01*
X170065797Y-104588687D01*
X170088687Y-104565797D01*
X170187049Y-104490322D01*
X170215082Y-104474137D01*
X170329625Y-104426692D01*
X170360892Y-104418314D01*
X170483814Y-104402130D01*
X170516186Y-104402130D01*
X170639107Y-104418314D01*
G37*
G36*
X145214130Y-50818493D02*
G01*
X145241201Y-50824671D01*
X145383921Y-50874611D01*
X145408938Y-50886659D01*
X145536963Y-50967102D01*
X145558672Y-50984415D01*
X145665584Y-51091327D01*
X145682897Y-51113036D01*
X145763340Y-51241061D01*
X145775388Y-51266078D01*
X145825328Y-51408798D01*
X145831506Y-51435869D01*
X145848435Y-51586116D01*
X145848435Y-51613884D01*
X145831506Y-51764130D01*
X145825328Y-51791201D01*
X145775388Y-51933921D01*
X145763340Y-51958938D01*
X145682897Y-52086963D01*
X145665584Y-52108672D01*
X145558672Y-52215584D01*
X145536963Y-52232897D01*
X145408938Y-52313340D01*
X145383921Y-52325388D01*
X145241201Y-52375328D01*
X145214130Y-52381506D01*
X145063884Y-52398435D01*
X145036116Y-52398435D01*
X144885869Y-52381506D01*
X144858798Y-52375328D01*
X144716078Y-52325388D01*
X144691061Y-52313340D01*
X144563036Y-52232897D01*
X144541327Y-52215584D01*
X144434415Y-52108672D01*
X144417102Y-52086963D01*
X144336659Y-51958938D01*
X144324611Y-51933921D01*
X144274671Y-51791201D01*
X144268493Y-51764130D01*
X144251564Y-51613884D01*
X144251564Y-51586116D01*
X144268493Y-51435869D01*
X144274671Y-51408798D01*
X144324611Y-51266078D01*
X144336659Y-51241061D01*
X144417102Y-51113036D01*
X144434415Y-51091327D01*
X144541327Y-50984415D01*
X144563036Y-50967102D01*
X144691061Y-50886659D01*
X144716078Y-50874611D01*
X144858798Y-50824671D01*
X144885869Y-50818493D01*
X145036116Y-50801564D01*
X145063884Y-50801564D01*
X145214130Y-50818493D01*
G37*
G36*
X169339107Y-104468314D02*
G01*
X169370374Y-104476692D01*
X169484917Y-104524137D01*
X169512950Y-104540322D01*
X169611312Y-104615797D01*
X169634202Y-104638687D01*
X169709677Y-104737049D01*
X169725862Y-104765082D01*
X169773307Y-104879625D01*
X169781685Y-104910892D01*
X169797869Y-105033814D01*
X169797869Y-105066186D01*
X169781685Y-105189107D01*
X169773307Y-105220374D01*
X169725862Y-105334917D01*
X169709677Y-105362950D01*
X169634202Y-105461312D01*
X169611312Y-105484202D01*
X169512950Y-105559677D01*
X169484917Y-105575862D01*
X169370374Y-105623307D01*
X169339107Y-105631685D01*
X169216186Y-105647869D01*
X169183814Y-105647869D01*
X169060892Y-105631685D01*
X169029625Y-105623307D01*
X168915082Y-105575862D01*
X168887049Y-105559677D01*
X168788687Y-105484202D01*
X168765797Y-105461312D01*
X168690322Y-105362950D01*
X168674137Y-105334917D01*
X168626692Y-105220374D01*
X168618314Y-105189107D01*
X168602130Y-105066186D01*
X168602130Y-105033814D01*
X168618314Y-104910892D01*
X168626692Y-104879625D01*
X168674137Y-104765082D01*
X168690322Y-104737049D01*
X168765797Y-104638687D01*
X168788687Y-104615797D01*
X168887049Y-104540322D01*
X168915082Y-104524137D01*
X169029625Y-104476692D01*
X169060892Y-104468314D01*
X169183814Y-104452130D01*
X169216186Y-104452130D01*
X169339107Y-104468314D01*
G37*
G36*
X153264130Y-108418493D02*
G01*
X153291201Y-108424671D01*
X153433921Y-108474611D01*
X153458938Y-108486659D01*
X153586963Y-108567102D01*
X153608672Y-108584415D01*
X153715584Y-108691327D01*
X153732897Y-108713036D01*
X153813340Y-108841061D01*
X153825388Y-108866078D01*
X153875328Y-109008798D01*
X153881506Y-109035869D01*
X153898435Y-109186116D01*
X153898435Y-109213884D01*
X153881506Y-109364130D01*
X153875328Y-109391201D01*
X153825388Y-109533921D01*
X153813340Y-109558938D01*
X153732897Y-109686963D01*
X153715584Y-109708672D01*
X153608672Y-109815584D01*
X153586963Y-109832897D01*
X153458938Y-109913340D01*
X153433921Y-109925388D01*
X153291201Y-109975328D01*
X153264130Y-109981506D01*
X153113884Y-109998435D01*
X153086116Y-109998435D01*
X152935869Y-109981506D01*
X152908798Y-109975328D01*
X152766078Y-109925388D01*
X152741061Y-109913340D01*
X152613036Y-109832897D01*
X152591327Y-109815584D01*
X152484415Y-109708672D01*
X152467102Y-109686963D01*
X152386659Y-109558938D01*
X152374611Y-109533921D01*
X152324671Y-109391201D01*
X152318493Y-109364130D01*
X152301564Y-109213884D01*
X152301564Y-109186116D01*
X152318493Y-109035869D01*
X152324671Y-109008798D01*
X152374611Y-108866078D01*
X152386659Y-108841061D01*
X152467102Y-108713036D01*
X152484415Y-108691327D01*
X152591327Y-108584415D01*
X152613036Y-108567102D01*
X152741061Y-108486659D01*
X152766078Y-108474611D01*
X152908798Y-108424671D01*
X152935869Y-108418493D01*
X153086116Y-108401564D01*
X153113884Y-108401564D01*
X153264130Y-108418493D01*
G37*
G36*
X179064130Y-81918493D02*
G01*
X179091201Y-81924671D01*
X179233921Y-81974611D01*
X179258938Y-81986659D01*
X179386963Y-82067102D01*
X179408672Y-82084415D01*
X179515584Y-82191327D01*
X179532897Y-82213036D01*
X179613340Y-82341061D01*
X179625388Y-82366078D01*
X179675328Y-82508798D01*
X179681506Y-82535869D01*
X179698435Y-82686116D01*
X179698435Y-82713884D01*
X179681506Y-82864130D01*
X179675328Y-82891201D01*
X179625388Y-83033921D01*
X179613340Y-83058938D01*
X179532897Y-83186963D01*
X179515584Y-83208672D01*
X179408672Y-83315584D01*
X179386963Y-83332897D01*
X179258938Y-83413340D01*
X179233921Y-83425388D01*
X179091201Y-83475328D01*
X179064130Y-83481506D01*
X178913884Y-83498435D01*
X178886116Y-83498435D01*
X178735869Y-83481506D01*
X178708798Y-83475328D01*
X178566078Y-83425388D01*
X178541061Y-83413340D01*
X178413036Y-83332897D01*
X178391327Y-83315584D01*
X178284415Y-83208672D01*
X178267102Y-83186963D01*
X178186659Y-83058938D01*
X178174611Y-83033921D01*
X178124671Y-82891201D01*
X178118493Y-82864130D01*
X178101564Y-82713884D01*
X178101564Y-82686116D01*
X178118493Y-82535869D01*
X178124671Y-82508798D01*
X178174611Y-82366078D01*
X178186659Y-82341061D01*
X178267102Y-82213036D01*
X178284415Y-82191327D01*
X178391327Y-82084415D01*
X178413036Y-82067102D01*
X178541061Y-81986659D01*
X178566078Y-81974611D01*
X178708798Y-81924671D01*
X178735869Y-81918493D01*
X178886116Y-81901564D01*
X178913884Y-81901564D01*
X179064130Y-81918493D01*
G37*
G36*
X176664130Y-81918493D02*
G01*
X176691201Y-81924671D01*
X176833921Y-81974611D01*
X176858938Y-81986659D01*
X176986963Y-82067102D01*
X177008672Y-82084415D01*
X177115584Y-82191327D01*
X177132897Y-82213036D01*
X177213340Y-82341061D01*
X177225388Y-82366078D01*
X177275328Y-82508798D01*
X177281506Y-82535869D01*
X177298435Y-82686116D01*
X177298435Y-82713884D01*
X177281506Y-82864130D01*
X177275328Y-82891201D01*
X177225388Y-83033921D01*
X177213340Y-83058938D01*
X177132897Y-83186963D01*
X177115584Y-83208672D01*
X177008672Y-83315584D01*
X176986963Y-83332897D01*
X176858938Y-83413340D01*
X176833921Y-83425388D01*
X176691201Y-83475328D01*
X176664130Y-83481506D01*
X176513884Y-83498435D01*
X176486116Y-83498435D01*
X176335869Y-83481506D01*
X176308798Y-83475328D01*
X176166078Y-83425388D01*
X176141061Y-83413340D01*
X176013036Y-83332897D01*
X175991327Y-83315584D01*
X175884415Y-83208672D01*
X175867102Y-83186963D01*
X175786659Y-83058938D01*
X175774611Y-83033921D01*
X175724671Y-82891201D01*
X175718493Y-82864130D01*
X175701564Y-82713884D01*
X175701564Y-82686116D01*
X175718493Y-82535869D01*
X175724671Y-82508798D01*
X175774611Y-82366078D01*
X175786659Y-82341061D01*
X175867102Y-82213036D01*
X175884415Y-82191327D01*
X175991327Y-82084415D01*
X176013036Y-82067102D01*
X176141061Y-81986659D01*
X176166078Y-81974611D01*
X176308798Y-81924671D01*
X176335869Y-81918493D01*
X176486116Y-81901564D01*
X176513884Y-81901564D01*
X176664130Y-81918493D01*
G37*
G36*
X174389107Y-103318314D02*
G01*
X174420374Y-103326692D01*
X174534917Y-103374137D01*
X174562950Y-103390322D01*
X174661312Y-103465797D01*
X174684202Y-103488687D01*
X174759677Y-103587049D01*
X174775862Y-103615082D01*
X174823307Y-103729625D01*
X174831685Y-103760892D01*
X174847869Y-103883814D01*
X174847869Y-103916186D01*
X174831685Y-104039107D01*
X174823307Y-104070374D01*
X174775862Y-104184917D01*
X174759677Y-104212950D01*
X174684202Y-104311312D01*
X174661312Y-104334202D01*
X174562950Y-104409677D01*
X174534917Y-104425862D01*
X174420374Y-104473307D01*
X174389107Y-104481685D01*
X174266186Y-104497869D01*
X174233814Y-104497869D01*
X174110892Y-104481685D01*
X174079625Y-104473307D01*
X173965082Y-104425862D01*
X173937049Y-104409677D01*
X173838687Y-104334202D01*
X173815797Y-104311312D01*
X173740322Y-104212950D01*
X173724137Y-104184917D01*
X173676692Y-104070374D01*
X173668314Y-104039107D01*
X173652130Y-103916186D01*
X173652130Y-103883814D01*
X173668314Y-103760892D01*
X173676692Y-103729625D01*
X173724137Y-103615082D01*
X173740322Y-103587049D01*
X173815797Y-103488687D01*
X173838687Y-103465797D01*
X173937049Y-103390322D01*
X173965082Y-103374137D01*
X174079625Y-103326692D01*
X174110892Y-103318314D01*
X174233814Y-103302130D01*
X174266186Y-103302130D01*
X174389107Y-103318314D01*
G37*
G36*
X147164130Y-50768493D02*
G01*
X147191201Y-50774671D01*
X147333921Y-50824611D01*
X147358938Y-50836659D01*
X147486963Y-50917102D01*
X147508672Y-50934415D01*
X147615584Y-51041327D01*
X147632897Y-51063036D01*
X147713340Y-51191061D01*
X147725388Y-51216078D01*
X147775328Y-51358798D01*
X147781506Y-51385869D01*
X147798435Y-51536116D01*
X147798435Y-51563884D01*
X147781506Y-51714130D01*
X147775328Y-51741201D01*
X147725388Y-51883921D01*
X147713340Y-51908938D01*
X147632897Y-52036963D01*
X147615584Y-52058672D01*
X147508672Y-52165584D01*
X147486963Y-52182897D01*
X147358938Y-52263340D01*
X147333921Y-52275388D01*
X147191201Y-52325328D01*
X147164130Y-52331506D01*
X147013884Y-52348435D01*
X146986116Y-52348435D01*
X146835869Y-52331506D01*
X146808798Y-52325328D01*
X146666078Y-52275388D01*
X146641061Y-52263340D01*
X146513036Y-52182897D01*
X146491327Y-52165584D01*
X146384415Y-52058672D01*
X146367102Y-52036963D01*
X146286659Y-51908938D01*
X146274611Y-51883921D01*
X146224671Y-51741201D01*
X146218493Y-51714130D01*
X146201564Y-51563884D01*
X146201564Y-51536116D01*
X146218493Y-51385869D01*
X146224671Y-51358798D01*
X146274611Y-51216078D01*
X146286659Y-51191061D01*
X146367102Y-51063036D01*
X146384415Y-51041327D01*
X146491327Y-50934415D01*
X146513036Y-50917102D01*
X146641061Y-50836659D01*
X146666078Y-50824611D01*
X146808798Y-50774671D01*
X146835869Y-50768493D01*
X146986116Y-50751564D01*
X147013884Y-50751564D01*
X147164130Y-50768493D01*
G37*
%LPD*%
M02*
