%TF.GenerationSoftware,KiCad,Pcbnew,9.0.2+1*%
%TF.CreationDate,2025-07-07T20:12:23-07:00*%
%TF.ProjectId,Telemetry PCB V2,54656c65-6d65-4747-9279-205043422056,rev?*%
%TF.SameCoordinates,Original*%
%TF.FileFunction,Drillmap*%
%TF.FilePolarity,Positive*%
%FSLAX45Y45*%
G04 Gerber Fmt 4.5, Leading zero omitted, Abs format (unit mm)*
G04 Created by KiCad (PCBNEW 9.0.2+1) date 2025-07-07 20:12:23*
%MOMM*%
%LPD*%
G01*
G04 APERTURE LIST*
%ADD10C,0.100000*%
%ADD11C,0.200000*%
G04 APERTURE END LIST*
D10*
X18537000Y-4844000D02*
G75*
G02*
X19287000Y-5594000I0J-750000D01*
G01*
X19287000Y-11094000D02*
G75*
G02*
X18537000Y-11844000I-750000J0D01*
G01*
X13037000Y-11844000D02*
G75*
G02*
X12287000Y-11094000I0J750000D01*
G01*
X18712000Y-11094000D02*
G75*
G02*
X18362000Y-11094000I-175000J0D01*
G01*
X18362000Y-11094000D02*
G75*
G02*
X18712000Y-11094000I175000J0D01*
G01*
X13212000Y-5594000D02*
G75*
G02*
X12862000Y-5594000I-175000J0D01*
G01*
X12862000Y-5594000D02*
G75*
G02*
X13212000Y-5594000I175000J0D01*
G01*
X18712000Y-5594000D02*
G75*
G02*
X18362000Y-5594000I-175000J0D01*
G01*
X18362000Y-5594000D02*
G75*
G02*
X18712000Y-5594000I175000J0D01*
G01*
X19287000Y-5594000D02*
X19287000Y-11094000D01*
X13212000Y-11094000D02*
G75*
G02*
X12862000Y-11094000I-175000J0D01*
G01*
X12862000Y-11094000D02*
G75*
G02*
X13212000Y-11094000I175000J0D01*
G01*
X18537000Y-11844000D02*
X13037000Y-11844000D01*
X12287000Y-11094000D02*
X12287000Y-5594000D01*
X13037000Y-4844000D02*
X18537000Y-4844000D01*
X12287000Y-5594000D02*
G75*
G02*
X13037000Y-4844000I750000J0D01*
G01*
D11*
D10*
X12642000Y-9919000D02*
X12672000Y-9949000D01*
X12672000Y-9919000D02*
X12642000Y-9949000D01*
X12763000Y-9041000D02*
X12793000Y-9071000D01*
X12793000Y-9041000D02*
X12763000Y-9071000D01*
X12764000Y-7540965D02*
X12794000Y-7570965D01*
X12794000Y-7540965D02*
X12764000Y-7570965D01*
X12771000Y-8641000D02*
X12801000Y-8671000D01*
X12801000Y-8641000D02*
X12771000Y-8671000D01*
X12869000Y-9915000D02*
X12899000Y-9945000D01*
X12899000Y-9915000D02*
X12869000Y-9945000D01*
X15111000Y-10940500D02*
X15141000Y-10970500D01*
X15141000Y-10940500D02*
X15111000Y-10970500D01*
X16462500Y-10937000D02*
X16492500Y-10967000D01*
X16492500Y-10937000D02*
X16462500Y-10967000D01*
X18465000Y-9835000D02*
X18495000Y-9865000D01*
X18495000Y-9835000D02*
X18465000Y-9865000D01*
X18844000Y-9826000D02*
X18874000Y-9856000D01*
X18874000Y-9826000D02*
X18844000Y-9856000D01*
X12578000Y-7151000D02*
G75*
G02*
X12538000Y-7151000I-20000J0D01*
G01*
X12538000Y-7151000D02*
G75*
G02*
X12578000Y-7151000I20000J0D01*
G01*
X13426000Y-7147000D02*
G75*
G02*
X13386000Y-7147000I-20000J0D01*
G01*
X13386000Y-7147000D02*
G75*
G02*
X13426000Y-7147000I20000J0D01*
G01*
X13569000Y-6653000D02*
G75*
G02*
X13529000Y-6653000I-20000J0D01*
G01*
X13529000Y-6653000D02*
G75*
G02*
X13569000Y-6653000I20000J0D01*
G01*
X13694000Y-7888000D02*
G75*
G02*
X13654000Y-7888000I-20000J0D01*
G01*
X13654000Y-7888000D02*
G75*
G02*
X13694000Y-7888000I20000J0D01*
G01*
X14209000Y-8030000D02*
G75*
G02*
X14169000Y-8030000I-20000J0D01*
G01*
X14169000Y-8030000D02*
G75*
G02*
X14209000Y-8030000I20000J0D01*
G01*
X14210000Y-8533000D02*
G75*
G02*
X14170000Y-8533000I-20000J0D01*
G01*
X14170000Y-8533000D02*
G75*
G02*
X14210000Y-8533000I20000J0D01*
G01*
X15536000Y-9141000D02*
G75*
G02*
X15496000Y-9141000I-20000J0D01*
G01*
X15496000Y-9141000D02*
G75*
G02*
X15536000Y-9141000I20000J0D01*
G01*
X15549000Y-9486000D02*
G75*
G02*
X15509000Y-9486000I-20000J0D01*
G01*
X15509000Y-9486000D02*
G75*
G02*
X15549000Y-9486000I20000J0D01*
G01*
X15619000Y-9216000D02*
G75*
G02*
X15579000Y-9216000I-20000J0D01*
G01*
X15579000Y-9216000D02*
G75*
G02*
X15619000Y-9216000I20000J0D01*
G01*
X15646000Y-9416000D02*
G75*
G02*
X15606000Y-9416000I-20000J0D01*
G01*
X15606000Y-9416000D02*
G75*
G02*
X15646000Y-9416000I20000J0D01*
G01*
X15685000Y-9308000D02*
G75*
G02*
X15645000Y-9308000I-20000J0D01*
G01*
X15645000Y-9308000D02*
G75*
G02*
X15685000Y-9308000I20000J0D01*
G01*
X18305000Y-7113000D02*
G75*
G02*
X18265000Y-7113000I-20000J0D01*
G01*
X18265000Y-7113000D02*
G75*
G02*
X18305000Y-7113000I20000J0D01*
G01*
X14011000Y-9065000D02*
X14011000Y-9115000D01*
X13986000Y-9090000D02*
X14036000Y-9090000D01*
X14096000Y-5525000D02*
X14096000Y-5575000D01*
X14071000Y-5550000D02*
X14121000Y-5550000D01*
X14096000Y-7503000D02*
X14096000Y-7553000D01*
X14071000Y-7528000D02*
X14121000Y-7528000D01*
X14395336Y-9290336D02*
X14395336Y-9340336D01*
X14370336Y-9315336D02*
X14420336Y-9315336D01*
X14410159Y-9409418D02*
X14410159Y-9459418D01*
X14385159Y-9434418D02*
X14435159Y-9434418D01*
X14640560Y-8504320D02*
X14640560Y-8554320D01*
X14615560Y-8529320D02*
X14665560Y-8529320D01*
X14813280Y-8504320D02*
X14813280Y-8554320D01*
X14788280Y-8529320D02*
X14838280Y-8529320D01*
X14985500Y-10242000D02*
X14985500Y-10292000D01*
X14960500Y-10267000D02*
X15010500Y-10267000D01*
X15112000Y-5534000D02*
X15112000Y-5584000D01*
X15087000Y-5559000D02*
X15137000Y-5559000D01*
X15321280Y-9718440D02*
X15321280Y-9768440D01*
X15296280Y-9743440D02*
X15346280Y-9743440D01*
X15370000Y-5538000D02*
X15370000Y-5588000D01*
X15345000Y-5563000D02*
X15395000Y-5563000D01*
X15494000Y-9718440D02*
X15494000Y-9768440D01*
X15469000Y-9743440D02*
X15519000Y-9743440D01*
X15620000Y-5534000D02*
X15620000Y-5584000D01*
X15595000Y-5559000D02*
X15645000Y-5559000D01*
X15675898Y-8833538D02*
X15675898Y-8883538D01*
X15650898Y-8858538D02*
X15700898Y-8858538D01*
X15676880Y-8666880D02*
X15676880Y-8716880D01*
X15651880Y-8691880D02*
X15701880Y-8691880D01*
X15874000Y-5534000D02*
X15874000Y-5584000D01*
X15849000Y-5559000D02*
X15899000Y-5559000D01*
X16633000Y-7503000D02*
X16633000Y-7553000D01*
X16608000Y-7528000D02*
X16658000Y-7528000D01*
X16634000Y-5534000D02*
X16634000Y-5584000D01*
X16609000Y-5559000D02*
X16659000Y-5559000D01*
X16888000Y-5535000D02*
X16888000Y-5585000D01*
X16863000Y-5560000D02*
X16913000Y-5560000D01*
X17141000Y-7503000D02*
X17141000Y-7553000D01*
X17116000Y-7528000D02*
X17166000Y-7528000D01*
X17143000Y-5535000D02*
X17143000Y-5585000D01*
X17118000Y-5560000D02*
X17168000Y-5560000D01*
X18149500Y-6641000D02*
X18149500Y-6691000D01*
X18124500Y-6666000D02*
X18174500Y-6666000D01*
X18910500Y-6971000D02*
X18910500Y-7021000D01*
X18885500Y-6996000D02*
X18935500Y-6996000D01*
X16941213Y-10526213D02*
X16941213Y-10483787D01*
X16898787Y-10483787D01*
X16898787Y-10526213D01*
X16941213Y-10526213D01*
X17071213Y-10521213D02*
X17071213Y-10478787D01*
X17028787Y-10478787D01*
X17028787Y-10521213D01*
X17071213Y-10521213D01*
X17321213Y-10061213D02*
X17321213Y-10018787D01*
X17278787Y-10018787D01*
X17278787Y-10061213D01*
X17321213Y-10061213D01*
X17441213Y-10191213D02*
X17441213Y-10148787D01*
X17398787Y-10148787D01*
X17398787Y-10191213D01*
X17441213Y-10191213D01*
X17446213Y-10411213D02*
X17446213Y-10368787D01*
X17403787Y-10368787D01*
X17403787Y-10411213D01*
X17446213Y-10411213D01*
X17486213Y-9866213D02*
X17486213Y-9823787D01*
X17443787Y-9823787D01*
X17443787Y-9866213D01*
X17486213Y-9866213D01*
X17861213Y-8811213D02*
X17861213Y-8768787D01*
X17818787Y-8768787D01*
X17818787Y-8811213D01*
X17861213Y-8811213D01*
X15368000Y-11169500D02*
X15398000Y-11139500D01*
X15368000Y-11109500D01*
X15338000Y-11139500D01*
X15368000Y-11169500D01*
X15338000Y-11084500D02*
X15338000Y-11194500D01*
X15398000Y-11194500D02*
G75*
G02*
X15338000Y-11194500I-30000J0D01*
G01*
X15398000Y-11194500D02*
X15398000Y-11084500D01*
X15398000Y-11084500D02*
G75*
G03*
X15338000Y-11084500I-30000J0D01*
G01*
X15368000Y-11587500D02*
X15398000Y-11557500D01*
X15368000Y-11527500D01*
X15338000Y-11557500D01*
X15368000Y-11587500D01*
X15338000Y-11527500D02*
X15338000Y-11587500D01*
X15398000Y-11587500D02*
G75*
G02*
X15338000Y-11587500I-30000J0D01*
G01*
X15398000Y-11587500D02*
X15398000Y-11527500D01*
X15398000Y-11527500D02*
G75*
G03*
X15338000Y-11527500I-30000J0D01*
G01*
X16232000Y-11169500D02*
X16262000Y-11139500D01*
X16232000Y-11109500D01*
X16202000Y-11139500D01*
X16232000Y-11169500D01*
X16202000Y-11084500D02*
X16202000Y-11194500D01*
X16262000Y-11194500D02*
G75*
G02*
X16202000Y-11194500I-30000J0D01*
G01*
X16262000Y-11194500D02*
X16262000Y-11084500D01*
X16262000Y-11084500D02*
G75*
G03*
X16202000Y-11084500I-30000J0D01*
G01*
X16232000Y-11587500D02*
X16262000Y-11557500D01*
X16232000Y-11527500D01*
X16202000Y-11557500D01*
X16232000Y-11587500D01*
X16202000Y-11527500D02*
X16202000Y-11587500D01*
X16262000Y-11587500D02*
G75*
G02*
X16202000Y-11587500I-30000J0D01*
G01*
X16262000Y-11587500D02*
X16262000Y-11527500D01*
X16262000Y-11527500D02*
G75*
G03*
X16202000Y-11527500I-30000J0D01*
G01*
X14465000Y-5120000D02*
X14545000Y-5200000D01*
X14545000Y-5120000D02*
X14465000Y-5200000D01*
X14545000Y-5160000D02*
G75*
G02*
X14465000Y-5160000I-40000J0D01*
G01*
X14465000Y-5160000D02*
G75*
G02*
X14545000Y-5160000I40000J0D01*
G01*
X14660000Y-5115000D02*
X14740000Y-5195000D01*
X14740000Y-5115000D02*
X14660000Y-5195000D01*
X14740000Y-5155000D02*
G75*
G02*
X14660000Y-5155000I-40000J0D01*
G01*
X14660000Y-5155000D02*
G75*
G02*
X14740000Y-5155000I40000J0D01*
G01*
X15522500Y-10854500D02*
X15602500Y-10934500D01*
X15602500Y-10854500D02*
X15522500Y-10934500D01*
X15602500Y-10894500D02*
G75*
G02*
X15522500Y-10894500I-40000J0D01*
G01*
X15522500Y-10894500D02*
G75*
G02*
X15602500Y-10894500I40000J0D01*
G01*
X16002500Y-10854500D02*
X16082500Y-10934500D01*
X16082500Y-10854500D02*
X16002500Y-10934500D01*
X16082500Y-10894500D02*
G75*
G02*
X16002500Y-10894500I-40000J0D01*
G01*
X16002500Y-10894500D02*
G75*
G02*
X16082500Y-10894500I40000J0D01*
G01*
X17610000Y-8230000D02*
X17690000Y-8310000D01*
X17690000Y-8230000D02*
X17610000Y-8310000D01*
X17690000Y-8270000D02*
G75*
G02*
X17610000Y-8270000I-40000J0D01*
G01*
X17610000Y-8270000D02*
G75*
G02*
X17690000Y-8270000I40000J0D01*
G01*
X17850000Y-8230000D02*
X17930000Y-8310000D01*
X17930000Y-8230000D02*
X17850000Y-8310000D01*
X17930000Y-8270000D02*
G75*
G02*
X17850000Y-8270000I-40000J0D01*
G01*
X17850000Y-8270000D02*
G75*
G02*
X17930000Y-8270000I40000J0D01*
G01*
X18100000Y-8230000D02*
X18180000Y-8310000D01*
X18180000Y-8230000D02*
X18100000Y-8310000D01*
X18180000Y-8270000D02*
G75*
G02*
X18100000Y-8270000I-40000J0D01*
G01*
X18100000Y-8270000D02*
G75*
G02*
X18180000Y-8270000I40000J0D01*
G01*
X13902500Y-11200000D02*
X13997500Y-11295000D01*
X13997500Y-11200000D02*
X13902500Y-11295000D01*
X13950000Y-11200000D02*
X13950000Y-11295000D01*
X13902500Y-11247500D02*
X13997500Y-11247500D01*
X14152500Y-11200000D02*
X14247500Y-11295000D01*
X14247500Y-11200000D02*
X14152500Y-11295000D01*
X14200000Y-11200000D02*
X14200000Y-11295000D01*
X14152500Y-11247500D02*
X14247500Y-11247500D01*
X14402500Y-11200000D02*
X14497500Y-11295000D01*
X14497500Y-11200000D02*
X14402500Y-11295000D01*
X14450000Y-11200000D02*
X14450000Y-11295000D01*
X14402500Y-11247500D02*
X14497500Y-11247500D01*
X16210000Y-9547000D02*
X16310000Y-9647000D01*
X16310000Y-9547000D02*
X16210000Y-9647000D01*
X16295356Y-9632356D02*
X16295356Y-9561644D01*
X16224644Y-9561644D01*
X16224644Y-9632356D01*
X16295356Y-9632356D01*
X16213640Y-8151000D02*
X16313640Y-8251000D01*
X16313640Y-8151000D02*
X16213640Y-8251000D01*
X16298995Y-8236356D02*
X16298995Y-8165644D01*
X16228284Y-8165644D01*
X16228284Y-8236356D01*
X16298995Y-8236356D01*
X16249000Y-8816000D02*
X16349000Y-8916000D01*
X16349000Y-8816000D02*
X16249000Y-8916000D01*
X16334356Y-8901356D02*
X16334356Y-8830644D01*
X16263644Y-8830644D01*
X16263644Y-8901356D01*
X16334356Y-8901356D01*
X16464000Y-9547000D02*
X16564000Y-9647000D01*
X16564000Y-9547000D02*
X16464000Y-9647000D01*
X16549356Y-9632356D02*
X16549356Y-9561644D01*
X16478644Y-9561644D01*
X16478644Y-9632356D01*
X16549356Y-9632356D01*
X16467640Y-8151000D02*
X16567640Y-8251000D01*
X16567640Y-8151000D02*
X16467640Y-8251000D01*
X16552995Y-8236356D02*
X16552995Y-8165644D01*
X16482284Y-8165644D01*
X16482284Y-8236356D01*
X16552995Y-8236356D01*
X16699000Y-8816000D02*
X16799000Y-8916000D01*
X16799000Y-8816000D02*
X16699000Y-8916000D01*
X16784356Y-8901356D02*
X16784356Y-8830644D01*
X16713644Y-8830644D01*
X16713644Y-8901356D01*
X16784356Y-8901356D01*
X16718000Y-9547000D02*
X16818000Y-9647000D01*
X16818000Y-9547000D02*
X16718000Y-9647000D01*
X16803356Y-9632356D02*
X16803356Y-9561644D01*
X16732644Y-9561644D01*
X16732644Y-9632356D01*
X16803356Y-9632356D01*
X16721640Y-8151000D02*
X16821640Y-8251000D01*
X16821640Y-8151000D02*
X16721640Y-8251000D01*
X16806995Y-8236356D02*
X16806995Y-8165644D01*
X16736284Y-8165644D01*
X16736284Y-8236356D01*
X16806995Y-8236356D01*
X16972000Y-9547000D02*
X17072000Y-9647000D01*
X17072000Y-9547000D02*
X16972000Y-9647000D01*
X17057356Y-9632356D02*
X17057356Y-9561644D01*
X16986644Y-9561644D01*
X16986644Y-9632356D01*
X17057356Y-9632356D01*
X16975640Y-8151000D02*
X17075640Y-8251000D01*
X17075640Y-8151000D02*
X16975640Y-8251000D01*
X17060995Y-8236356D02*
X17060995Y-8165644D01*
X16990284Y-8165644D01*
X16990284Y-8236356D01*
X17060995Y-8236356D01*
X17767890Y-9137960D02*
X17867890Y-9237960D01*
X17867890Y-9137960D02*
X17767890Y-9237960D01*
X17853246Y-9223316D02*
X17853246Y-9152605D01*
X17782534Y-9152605D01*
X17782534Y-9223316D01*
X17853246Y-9223316D01*
X17767890Y-9387960D02*
X17867890Y-9487960D01*
X17867890Y-9387960D02*
X17767890Y-9487960D01*
X17853246Y-9473316D02*
X17853246Y-9402605D01*
X17782534Y-9402605D01*
X17782534Y-9473316D01*
X17853246Y-9473316D01*
X18137000Y-7548000D02*
X18237000Y-7648000D01*
X18237000Y-7548000D02*
X18137000Y-7648000D01*
X18222356Y-7633356D02*
X18222356Y-7562644D01*
X18151644Y-7562644D01*
X18151644Y-7633356D01*
X18222356Y-7633356D01*
X18657000Y-7548000D02*
X18757000Y-7648000D01*
X18757000Y-7548000D02*
X18657000Y-7648000D01*
X18742356Y-7633356D02*
X18742356Y-7562644D01*
X18671644Y-7562644D01*
X18671644Y-7633356D01*
X18742356Y-7633356D01*
D11*
X12542777Y-12160484D02*
X12542777Y-11960484D01*
X12542777Y-11960484D02*
X12590396Y-11960484D01*
X12590396Y-11960484D02*
X12618967Y-11970008D01*
X12618967Y-11970008D02*
X12638015Y-11989055D01*
X12638015Y-11989055D02*
X12647539Y-12008103D01*
X12647539Y-12008103D02*
X12657062Y-12046198D01*
X12657062Y-12046198D02*
X12657062Y-12074769D01*
X12657062Y-12074769D02*
X12647539Y-12112865D01*
X12647539Y-12112865D02*
X12638015Y-12131912D01*
X12638015Y-12131912D02*
X12618967Y-12150960D01*
X12618967Y-12150960D02*
X12590396Y-12160484D01*
X12590396Y-12160484D02*
X12542777Y-12160484D01*
X12742777Y-12160484D02*
X12742777Y-12027150D01*
X12742777Y-12065246D02*
X12752301Y-12046198D01*
X12752301Y-12046198D02*
X12761824Y-12036674D01*
X12761824Y-12036674D02*
X12780872Y-12027150D01*
X12780872Y-12027150D02*
X12799920Y-12027150D01*
X12866586Y-12160484D02*
X12866586Y-12027150D01*
X12866586Y-11960484D02*
X12857062Y-11970008D01*
X12857062Y-11970008D02*
X12866586Y-11979531D01*
X12866586Y-11979531D02*
X12876110Y-11970008D01*
X12876110Y-11970008D02*
X12866586Y-11960484D01*
X12866586Y-11960484D02*
X12866586Y-11979531D01*
X12990396Y-12160484D02*
X12971348Y-12150960D01*
X12971348Y-12150960D02*
X12961824Y-12131912D01*
X12961824Y-12131912D02*
X12961824Y-11960484D01*
X13095158Y-12160484D02*
X13076110Y-12150960D01*
X13076110Y-12150960D02*
X13066586Y-12131912D01*
X13066586Y-12131912D02*
X13066586Y-11960484D01*
X13323729Y-12160484D02*
X13323729Y-11960484D01*
X13323729Y-11960484D02*
X13390396Y-12103341D01*
X13390396Y-12103341D02*
X13457062Y-11960484D01*
X13457062Y-11960484D02*
X13457062Y-12160484D01*
X13638015Y-12160484D02*
X13638015Y-12055722D01*
X13638015Y-12055722D02*
X13628491Y-12036674D01*
X13628491Y-12036674D02*
X13609443Y-12027150D01*
X13609443Y-12027150D02*
X13571348Y-12027150D01*
X13571348Y-12027150D02*
X13552301Y-12036674D01*
X13638015Y-12150960D02*
X13618967Y-12160484D01*
X13618967Y-12160484D02*
X13571348Y-12160484D01*
X13571348Y-12160484D02*
X13552301Y-12150960D01*
X13552301Y-12150960D02*
X13542777Y-12131912D01*
X13542777Y-12131912D02*
X13542777Y-12112865D01*
X13542777Y-12112865D02*
X13552301Y-12093817D01*
X13552301Y-12093817D02*
X13571348Y-12084293D01*
X13571348Y-12084293D02*
X13618967Y-12084293D01*
X13618967Y-12084293D02*
X13638015Y-12074769D01*
X13733253Y-12027150D02*
X13733253Y-12227150D01*
X13733253Y-12036674D02*
X13752301Y-12027150D01*
X13752301Y-12027150D02*
X13790396Y-12027150D01*
X13790396Y-12027150D02*
X13809443Y-12036674D01*
X13809443Y-12036674D02*
X13818967Y-12046198D01*
X13818967Y-12046198D02*
X13828491Y-12065246D01*
X13828491Y-12065246D02*
X13828491Y-12122388D01*
X13828491Y-12122388D02*
X13818967Y-12141436D01*
X13818967Y-12141436D02*
X13809443Y-12150960D01*
X13809443Y-12150960D02*
X13790396Y-12160484D01*
X13790396Y-12160484D02*
X13752301Y-12160484D01*
X13752301Y-12160484D02*
X13733253Y-12150960D01*
X13914205Y-12141436D02*
X13923729Y-12150960D01*
X13923729Y-12150960D02*
X13914205Y-12160484D01*
X13914205Y-12160484D02*
X13904682Y-12150960D01*
X13904682Y-12150960D02*
X13914205Y-12141436D01*
X13914205Y-12141436D02*
X13914205Y-12160484D01*
X13914205Y-12036674D02*
X13923729Y-12046198D01*
X13923729Y-12046198D02*
X13914205Y-12055722D01*
X13914205Y-12055722D02*
X13904682Y-12046198D01*
X13904682Y-12046198D02*
X13914205Y-12036674D01*
X13914205Y-12036674D02*
X13914205Y-12055722D01*
D10*
X12252000Y-12474000D02*
X12282000Y-12504000D01*
X12282000Y-12474000D02*
X12252000Y-12504000D01*
D11*
X12580872Y-12380484D02*
X12599920Y-12380484D01*
X12599920Y-12380484D02*
X12618967Y-12390008D01*
X12618967Y-12390008D02*
X12628491Y-12399531D01*
X12628491Y-12399531D02*
X12638015Y-12418579D01*
X12638015Y-12418579D02*
X12647539Y-12456674D01*
X12647539Y-12456674D02*
X12647539Y-12504293D01*
X12647539Y-12504293D02*
X12638015Y-12542388D01*
X12638015Y-12542388D02*
X12628491Y-12561436D01*
X12628491Y-12561436D02*
X12618967Y-12570960D01*
X12618967Y-12570960D02*
X12599920Y-12580484D01*
X12599920Y-12580484D02*
X12580872Y-12580484D01*
X12580872Y-12580484D02*
X12561824Y-12570960D01*
X12561824Y-12570960D02*
X12552301Y-12561436D01*
X12552301Y-12561436D02*
X12542777Y-12542388D01*
X12542777Y-12542388D02*
X12533253Y-12504293D01*
X12533253Y-12504293D02*
X12533253Y-12456674D01*
X12533253Y-12456674D02*
X12542777Y-12418579D01*
X12542777Y-12418579D02*
X12552301Y-12399531D01*
X12552301Y-12399531D02*
X12561824Y-12390008D01*
X12561824Y-12390008D02*
X12580872Y-12380484D01*
X12733253Y-12561436D02*
X12742777Y-12570960D01*
X12742777Y-12570960D02*
X12733253Y-12580484D01*
X12733253Y-12580484D02*
X12723729Y-12570960D01*
X12723729Y-12570960D02*
X12733253Y-12561436D01*
X12733253Y-12561436D02*
X12733253Y-12580484D01*
X12809443Y-12380484D02*
X12933253Y-12380484D01*
X12933253Y-12380484D02*
X12866586Y-12456674D01*
X12866586Y-12456674D02*
X12895158Y-12456674D01*
X12895158Y-12456674D02*
X12914205Y-12466198D01*
X12914205Y-12466198D02*
X12923729Y-12475722D01*
X12923729Y-12475722D02*
X12933253Y-12494769D01*
X12933253Y-12494769D02*
X12933253Y-12542388D01*
X12933253Y-12542388D02*
X12923729Y-12561436D01*
X12923729Y-12561436D02*
X12914205Y-12570960D01*
X12914205Y-12570960D02*
X12895158Y-12580484D01*
X12895158Y-12580484D02*
X12838015Y-12580484D01*
X12838015Y-12580484D02*
X12818967Y-12570960D01*
X12818967Y-12570960D02*
X12809443Y-12561436D01*
X13057062Y-12380484D02*
X13076110Y-12380484D01*
X13076110Y-12380484D02*
X13095158Y-12390008D01*
X13095158Y-12390008D02*
X13104682Y-12399531D01*
X13104682Y-12399531D02*
X13114205Y-12418579D01*
X13114205Y-12418579D02*
X13123729Y-12456674D01*
X13123729Y-12456674D02*
X13123729Y-12504293D01*
X13123729Y-12504293D02*
X13114205Y-12542388D01*
X13114205Y-12542388D02*
X13104682Y-12561436D01*
X13104682Y-12561436D02*
X13095158Y-12570960D01*
X13095158Y-12570960D02*
X13076110Y-12580484D01*
X13076110Y-12580484D02*
X13057062Y-12580484D01*
X13057062Y-12580484D02*
X13038015Y-12570960D01*
X13038015Y-12570960D02*
X13028491Y-12561436D01*
X13028491Y-12561436D02*
X13018967Y-12542388D01*
X13018967Y-12542388D02*
X13009443Y-12504293D01*
X13009443Y-12504293D02*
X13009443Y-12456674D01*
X13009443Y-12456674D02*
X13018967Y-12418579D01*
X13018967Y-12418579D02*
X13028491Y-12399531D01*
X13028491Y-12399531D02*
X13038015Y-12390008D01*
X13038015Y-12390008D02*
X13057062Y-12380484D01*
X13247539Y-12380484D02*
X13266586Y-12380484D01*
X13266586Y-12380484D02*
X13285634Y-12390008D01*
X13285634Y-12390008D02*
X13295158Y-12399531D01*
X13295158Y-12399531D02*
X13304682Y-12418579D01*
X13304682Y-12418579D02*
X13314205Y-12456674D01*
X13314205Y-12456674D02*
X13314205Y-12504293D01*
X13314205Y-12504293D02*
X13304682Y-12542388D01*
X13304682Y-12542388D02*
X13295158Y-12561436D01*
X13295158Y-12561436D02*
X13285634Y-12570960D01*
X13285634Y-12570960D02*
X13266586Y-12580484D01*
X13266586Y-12580484D02*
X13247539Y-12580484D01*
X13247539Y-12580484D02*
X13228491Y-12570960D01*
X13228491Y-12570960D02*
X13218967Y-12561436D01*
X13218967Y-12561436D02*
X13209443Y-12542388D01*
X13209443Y-12542388D02*
X13199920Y-12504293D01*
X13199920Y-12504293D02*
X13199920Y-12456674D01*
X13199920Y-12456674D02*
X13209443Y-12418579D01*
X13209443Y-12418579D02*
X13218967Y-12399531D01*
X13218967Y-12399531D02*
X13228491Y-12390008D01*
X13228491Y-12390008D02*
X13247539Y-12380484D01*
X13399920Y-12580484D02*
X13399920Y-12447150D01*
X13399920Y-12466198D02*
X13409443Y-12456674D01*
X13409443Y-12456674D02*
X13428491Y-12447150D01*
X13428491Y-12447150D02*
X13457063Y-12447150D01*
X13457063Y-12447150D02*
X13476110Y-12456674D01*
X13476110Y-12456674D02*
X13485634Y-12475722D01*
X13485634Y-12475722D02*
X13485634Y-12580484D01*
X13485634Y-12475722D02*
X13495158Y-12456674D01*
X13495158Y-12456674D02*
X13514205Y-12447150D01*
X13514205Y-12447150D02*
X13542777Y-12447150D01*
X13542777Y-12447150D02*
X13561824Y-12456674D01*
X13561824Y-12456674D02*
X13571348Y-12475722D01*
X13571348Y-12475722D02*
X13571348Y-12580484D01*
X13666586Y-12580484D02*
X13666586Y-12447150D01*
X13666586Y-12466198D02*
X13676110Y-12456674D01*
X13676110Y-12456674D02*
X13695158Y-12447150D01*
X13695158Y-12447150D02*
X13723729Y-12447150D01*
X13723729Y-12447150D02*
X13742777Y-12456674D01*
X13742777Y-12456674D02*
X13752301Y-12475722D01*
X13752301Y-12475722D02*
X13752301Y-12580484D01*
X13752301Y-12475722D02*
X13761824Y-12456674D01*
X13761824Y-12456674D02*
X13780872Y-12447150D01*
X13780872Y-12447150D02*
X13809443Y-12447150D01*
X13809443Y-12447150D02*
X13828491Y-12456674D01*
X13828491Y-12456674D02*
X13838015Y-12475722D01*
X13838015Y-12475722D02*
X13838015Y-12580484D01*
X14228491Y-12370960D02*
X14057063Y-12628103D01*
X14485634Y-12380484D02*
X14504682Y-12380484D01*
X14504682Y-12380484D02*
X14523729Y-12390008D01*
X14523729Y-12390008D02*
X14533253Y-12399531D01*
X14533253Y-12399531D02*
X14542777Y-12418579D01*
X14542777Y-12418579D02*
X14552301Y-12456674D01*
X14552301Y-12456674D02*
X14552301Y-12504293D01*
X14552301Y-12504293D02*
X14542777Y-12542388D01*
X14542777Y-12542388D02*
X14533253Y-12561436D01*
X14533253Y-12561436D02*
X14523729Y-12570960D01*
X14523729Y-12570960D02*
X14504682Y-12580484D01*
X14504682Y-12580484D02*
X14485634Y-12580484D01*
X14485634Y-12580484D02*
X14466586Y-12570960D01*
X14466586Y-12570960D02*
X14457063Y-12561436D01*
X14457063Y-12561436D02*
X14447539Y-12542388D01*
X14447539Y-12542388D02*
X14438015Y-12504293D01*
X14438015Y-12504293D02*
X14438015Y-12456674D01*
X14438015Y-12456674D02*
X14447539Y-12418579D01*
X14447539Y-12418579D02*
X14457063Y-12399531D01*
X14457063Y-12399531D02*
X14466586Y-12390008D01*
X14466586Y-12390008D02*
X14485634Y-12380484D01*
X14638015Y-12561436D02*
X14647539Y-12570960D01*
X14647539Y-12570960D02*
X14638015Y-12580484D01*
X14638015Y-12580484D02*
X14628491Y-12570960D01*
X14628491Y-12570960D02*
X14638015Y-12561436D01*
X14638015Y-12561436D02*
X14638015Y-12580484D01*
X14771348Y-12380484D02*
X14790396Y-12380484D01*
X14790396Y-12380484D02*
X14809444Y-12390008D01*
X14809444Y-12390008D02*
X14818967Y-12399531D01*
X14818967Y-12399531D02*
X14828491Y-12418579D01*
X14828491Y-12418579D02*
X14838015Y-12456674D01*
X14838015Y-12456674D02*
X14838015Y-12504293D01*
X14838015Y-12504293D02*
X14828491Y-12542388D01*
X14828491Y-12542388D02*
X14818967Y-12561436D01*
X14818967Y-12561436D02*
X14809444Y-12570960D01*
X14809444Y-12570960D02*
X14790396Y-12580484D01*
X14790396Y-12580484D02*
X14771348Y-12580484D01*
X14771348Y-12580484D02*
X14752301Y-12570960D01*
X14752301Y-12570960D02*
X14742777Y-12561436D01*
X14742777Y-12561436D02*
X14733253Y-12542388D01*
X14733253Y-12542388D02*
X14723729Y-12504293D01*
X14723729Y-12504293D02*
X14723729Y-12456674D01*
X14723729Y-12456674D02*
X14733253Y-12418579D01*
X14733253Y-12418579D02*
X14742777Y-12399531D01*
X14742777Y-12399531D02*
X14752301Y-12390008D01*
X14752301Y-12390008D02*
X14771348Y-12380484D01*
X15028491Y-12580484D02*
X14914206Y-12580484D01*
X14971348Y-12580484D02*
X14971348Y-12380484D01*
X14971348Y-12380484D02*
X14952301Y-12409055D01*
X14952301Y-12409055D02*
X14933253Y-12428103D01*
X14933253Y-12428103D02*
X14914206Y-12437627D01*
X15218967Y-12580484D02*
X15104682Y-12580484D01*
X15161825Y-12580484D02*
X15161825Y-12380484D01*
X15161825Y-12380484D02*
X15142777Y-12409055D01*
X15142777Y-12409055D02*
X15123729Y-12428103D01*
X15123729Y-12428103D02*
X15104682Y-12437627D01*
X15333253Y-12466198D02*
X15314206Y-12456674D01*
X15314206Y-12456674D02*
X15304682Y-12447150D01*
X15304682Y-12447150D02*
X15295158Y-12428103D01*
X15295158Y-12428103D02*
X15295158Y-12418579D01*
X15295158Y-12418579D02*
X15304682Y-12399531D01*
X15304682Y-12399531D02*
X15314206Y-12390008D01*
X15314206Y-12390008D02*
X15333253Y-12380484D01*
X15333253Y-12380484D02*
X15371348Y-12380484D01*
X15371348Y-12380484D02*
X15390396Y-12390008D01*
X15390396Y-12390008D02*
X15399920Y-12399531D01*
X15399920Y-12399531D02*
X15409444Y-12418579D01*
X15409444Y-12418579D02*
X15409444Y-12428103D01*
X15409444Y-12428103D02*
X15399920Y-12447150D01*
X15399920Y-12447150D02*
X15390396Y-12456674D01*
X15390396Y-12456674D02*
X15371348Y-12466198D01*
X15371348Y-12466198D02*
X15333253Y-12466198D01*
X15333253Y-12466198D02*
X15314206Y-12475722D01*
X15314206Y-12475722D02*
X15304682Y-12485246D01*
X15304682Y-12485246D02*
X15295158Y-12504293D01*
X15295158Y-12504293D02*
X15295158Y-12542388D01*
X15295158Y-12542388D02*
X15304682Y-12561436D01*
X15304682Y-12561436D02*
X15314206Y-12570960D01*
X15314206Y-12570960D02*
X15333253Y-12580484D01*
X15333253Y-12580484D02*
X15371348Y-12580484D01*
X15371348Y-12580484D02*
X15390396Y-12570960D01*
X15390396Y-12570960D02*
X15399920Y-12561436D01*
X15399920Y-12561436D02*
X15409444Y-12542388D01*
X15409444Y-12542388D02*
X15409444Y-12504293D01*
X15409444Y-12504293D02*
X15399920Y-12485246D01*
X15399920Y-12485246D02*
X15390396Y-12475722D01*
X15390396Y-12475722D02*
X15371348Y-12466198D01*
X15485634Y-12380484D02*
X15485634Y-12418579D01*
X15561825Y-12380484D02*
X15561825Y-12418579D01*
X15857063Y-12656674D02*
X15847539Y-12647150D01*
X15847539Y-12647150D02*
X15828491Y-12618579D01*
X15828491Y-12618579D02*
X15818968Y-12599531D01*
X15818968Y-12599531D02*
X15809444Y-12570960D01*
X15809444Y-12570960D02*
X15799920Y-12523341D01*
X15799920Y-12523341D02*
X15799920Y-12485246D01*
X15799920Y-12485246D02*
X15809444Y-12437627D01*
X15809444Y-12437627D02*
X15818968Y-12409055D01*
X15818968Y-12409055D02*
X15828491Y-12390008D01*
X15828491Y-12390008D02*
X15847539Y-12361436D01*
X15847539Y-12361436D02*
X15857063Y-12351912D01*
X15942777Y-12580484D02*
X15980872Y-12580484D01*
X15980872Y-12580484D02*
X15999920Y-12570960D01*
X15999920Y-12570960D02*
X16009444Y-12561436D01*
X16009444Y-12561436D02*
X16028491Y-12532865D01*
X16028491Y-12532865D02*
X16038015Y-12494769D01*
X16038015Y-12494769D02*
X16038015Y-12418579D01*
X16038015Y-12418579D02*
X16028491Y-12399531D01*
X16028491Y-12399531D02*
X16018968Y-12390008D01*
X16018968Y-12390008D02*
X15999920Y-12380484D01*
X15999920Y-12380484D02*
X15961825Y-12380484D01*
X15961825Y-12380484D02*
X15942777Y-12390008D01*
X15942777Y-12390008D02*
X15933253Y-12399531D01*
X15933253Y-12399531D02*
X15923729Y-12418579D01*
X15923729Y-12418579D02*
X15923729Y-12466198D01*
X15923729Y-12466198D02*
X15933253Y-12485246D01*
X15933253Y-12485246D02*
X15942777Y-12494769D01*
X15942777Y-12494769D02*
X15961825Y-12504293D01*
X15961825Y-12504293D02*
X15999920Y-12504293D01*
X15999920Y-12504293D02*
X16018968Y-12494769D01*
X16018968Y-12494769D02*
X16028491Y-12485246D01*
X16028491Y-12485246D02*
X16038015Y-12466198D01*
X16276110Y-12580484D02*
X16276110Y-12380484D01*
X16361825Y-12580484D02*
X16361825Y-12475722D01*
X16361825Y-12475722D02*
X16352301Y-12456674D01*
X16352301Y-12456674D02*
X16333253Y-12447150D01*
X16333253Y-12447150D02*
X16304682Y-12447150D01*
X16304682Y-12447150D02*
X16285634Y-12456674D01*
X16285634Y-12456674D02*
X16276110Y-12466198D01*
X16485634Y-12580484D02*
X16466587Y-12570960D01*
X16466587Y-12570960D02*
X16457063Y-12561436D01*
X16457063Y-12561436D02*
X16447539Y-12542388D01*
X16447539Y-12542388D02*
X16447539Y-12485246D01*
X16447539Y-12485246D02*
X16457063Y-12466198D01*
X16457063Y-12466198D02*
X16466587Y-12456674D01*
X16466587Y-12456674D02*
X16485634Y-12447150D01*
X16485634Y-12447150D02*
X16514206Y-12447150D01*
X16514206Y-12447150D02*
X16533253Y-12456674D01*
X16533253Y-12456674D02*
X16542777Y-12466198D01*
X16542777Y-12466198D02*
X16552301Y-12485246D01*
X16552301Y-12485246D02*
X16552301Y-12542388D01*
X16552301Y-12542388D02*
X16542777Y-12561436D01*
X16542777Y-12561436D02*
X16533253Y-12570960D01*
X16533253Y-12570960D02*
X16514206Y-12580484D01*
X16514206Y-12580484D02*
X16485634Y-12580484D01*
X16666587Y-12580484D02*
X16647539Y-12570960D01*
X16647539Y-12570960D02*
X16638015Y-12551912D01*
X16638015Y-12551912D02*
X16638015Y-12380484D01*
X16818968Y-12570960D02*
X16799920Y-12580484D01*
X16799920Y-12580484D02*
X16761825Y-12580484D01*
X16761825Y-12580484D02*
X16742777Y-12570960D01*
X16742777Y-12570960D02*
X16733253Y-12551912D01*
X16733253Y-12551912D02*
X16733253Y-12475722D01*
X16733253Y-12475722D02*
X16742777Y-12456674D01*
X16742777Y-12456674D02*
X16761825Y-12447150D01*
X16761825Y-12447150D02*
X16799920Y-12447150D01*
X16799920Y-12447150D02*
X16818968Y-12456674D01*
X16818968Y-12456674D02*
X16828492Y-12475722D01*
X16828492Y-12475722D02*
X16828492Y-12494769D01*
X16828492Y-12494769D02*
X16733253Y-12513817D01*
X16904682Y-12570960D02*
X16923730Y-12580484D01*
X16923730Y-12580484D02*
X16961825Y-12580484D01*
X16961825Y-12580484D02*
X16980873Y-12570960D01*
X16980873Y-12570960D02*
X16990396Y-12551912D01*
X16990396Y-12551912D02*
X16990396Y-12542388D01*
X16990396Y-12542388D02*
X16980873Y-12523341D01*
X16980873Y-12523341D02*
X16961825Y-12513817D01*
X16961825Y-12513817D02*
X16933253Y-12513817D01*
X16933253Y-12513817D02*
X16914206Y-12504293D01*
X16914206Y-12504293D02*
X16904682Y-12485246D01*
X16904682Y-12485246D02*
X16904682Y-12475722D01*
X16904682Y-12475722D02*
X16914206Y-12456674D01*
X16914206Y-12456674D02*
X16933253Y-12447150D01*
X16933253Y-12447150D02*
X16961825Y-12447150D01*
X16961825Y-12447150D02*
X16980873Y-12456674D01*
X17057063Y-12656674D02*
X17066587Y-12647150D01*
X17066587Y-12647150D02*
X17085634Y-12618579D01*
X17085634Y-12618579D02*
X17095158Y-12599531D01*
X17095158Y-12599531D02*
X17104682Y-12570960D01*
X17104682Y-12570960D02*
X17114206Y-12523341D01*
X17114206Y-12523341D02*
X17114206Y-12485246D01*
X17114206Y-12485246D02*
X17104682Y-12437627D01*
X17104682Y-12437627D02*
X17095158Y-12409055D01*
X17095158Y-12409055D02*
X17085634Y-12390008D01*
X17085634Y-12390008D02*
X17066587Y-12361436D01*
X17066587Y-12361436D02*
X17057063Y-12351912D01*
D10*
X12282000Y-12753000D02*
G75*
G02*
X12242000Y-12753000I-20000J0D01*
G01*
X12242000Y-12753000D02*
G75*
G02*
X12282000Y-12753000I20000J0D01*
G01*
D11*
X12580872Y-12644484D02*
X12599920Y-12644484D01*
X12599920Y-12644484D02*
X12618967Y-12654008D01*
X12618967Y-12654008D02*
X12628491Y-12663531D01*
X12628491Y-12663531D02*
X12638015Y-12682579D01*
X12638015Y-12682579D02*
X12647539Y-12720674D01*
X12647539Y-12720674D02*
X12647539Y-12768293D01*
X12647539Y-12768293D02*
X12638015Y-12806388D01*
X12638015Y-12806388D02*
X12628491Y-12825436D01*
X12628491Y-12825436D02*
X12618967Y-12834960D01*
X12618967Y-12834960D02*
X12599920Y-12844484D01*
X12599920Y-12844484D02*
X12580872Y-12844484D01*
X12580872Y-12844484D02*
X12561824Y-12834960D01*
X12561824Y-12834960D02*
X12552301Y-12825436D01*
X12552301Y-12825436D02*
X12542777Y-12806388D01*
X12542777Y-12806388D02*
X12533253Y-12768293D01*
X12533253Y-12768293D02*
X12533253Y-12720674D01*
X12533253Y-12720674D02*
X12542777Y-12682579D01*
X12542777Y-12682579D02*
X12552301Y-12663531D01*
X12552301Y-12663531D02*
X12561824Y-12654008D01*
X12561824Y-12654008D02*
X12580872Y-12644484D01*
X12733253Y-12825436D02*
X12742777Y-12834960D01*
X12742777Y-12834960D02*
X12733253Y-12844484D01*
X12733253Y-12844484D02*
X12723729Y-12834960D01*
X12723729Y-12834960D02*
X12733253Y-12825436D01*
X12733253Y-12825436D02*
X12733253Y-12844484D01*
X12914205Y-12711150D02*
X12914205Y-12844484D01*
X12866586Y-12634960D02*
X12818967Y-12777817D01*
X12818967Y-12777817D02*
X12942777Y-12777817D01*
X13057062Y-12644484D02*
X13076110Y-12644484D01*
X13076110Y-12644484D02*
X13095158Y-12654008D01*
X13095158Y-12654008D02*
X13104682Y-12663531D01*
X13104682Y-12663531D02*
X13114205Y-12682579D01*
X13114205Y-12682579D02*
X13123729Y-12720674D01*
X13123729Y-12720674D02*
X13123729Y-12768293D01*
X13123729Y-12768293D02*
X13114205Y-12806388D01*
X13114205Y-12806388D02*
X13104682Y-12825436D01*
X13104682Y-12825436D02*
X13095158Y-12834960D01*
X13095158Y-12834960D02*
X13076110Y-12844484D01*
X13076110Y-12844484D02*
X13057062Y-12844484D01*
X13057062Y-12844484D02*
X13038015Y-12834960D01*
X13038015Y-12834960D02*
X13028491Y-12825436D01*
X13028491Y-12825436D02*
X13018967Y-12806388D01*
X13018967Y-12806388D02*
X13009443Y-12768293D01*
X13009443Y-12768293D02*
X13009443Y-12720674D01*
X13009443Y-12720674D02*
X13018967Y-12682579D01*
X13018967Y-12682579D02*
X13028491Y-12663531D01*
X13028491Y-12663531D02*
X13038015Y-12654008D01*
X13038015Y-12654008D02*
X13057062Y-12644484D01*
X13247539Y-12644484D02*
X13266586Y-12644484D01*
X13266586Y-12644484D02*
X13285634Y-12654008D01*
X13285634Y-12654008D02*
X13295158Y-12663531D01*
X13295158Y-12663531D02*
X13304682Y-12682579D01*
X13304682Y-12682579D02*
X13314205Y-12720674D01*
X13314205Y-12720674D02*
X13314205Y-12768293D01*
X13314205Y-12768293D02*
X13304682Y-12806388D01*
X13304682Y-12806388D02*
X13295158Y-12825436D01*
X13295158Y-12825436D02*
X13285634Y-12834960D01*
X13285634Y-12834960D02*
X13266586Y-12844484D01*
X13266586Y-12844484D02*
X13247539Y-12844484D01*
X13247539Y-12844484D02*
X13228491Y-12834960D01*
X13228491Y-12834960D02*
X13218967Y-12825436D01*
X13218967Y-12825436D02*
X13209443Y-12806388D01*
X13209443Y-12806388D02*
X13199920Y-12768293D01*
X13199920Y-12768293D02*
X13199920Y-12720674D01*
X13199920Y-12720674D02*
X13209443Y-12682579D01*
X13209443Y-12682579D02*
X13218967Y-12663531D01*
X13218967Y-12663531D02*
X13228491Y-12654008D01*
X13228491Y-12654008D02*
X13247539Y-12644484D01*
X13399920Y-12844484D02*
X13399920Y-12711150D01*
X13399920Y-12730198D02*
X13409443Y-12720674D01*
X13409443Y-12720674D02*
X13428491Y-12711150D01*
X13428491Y-12711150D02*
X13457063Y-12711150D01*
X13457063Y-12711150D02*
X13476110Y-12720674D01*
X13476110Y-12720674D02*
X13485634Y-12739722D01*
X13485634Y-12739722D02*
X13485634Y-12844484D01*
X13485634Y-12739722D02*
X13495158Y-12720674D01*
X13495158Y-12720674D02*
X13514205Y-12711150D01*
X13514205Y-12711150D02*
X13542777Y-12711150D01*
X13542777Y-12711150D02*
X13561824Y-12720674D01*
X13561824Y-12720674D02*
X13571348Y-12739722D01*
X13571348Y-12739722D02*
X13571348Y-12844484D01*
X13666586Y-12844484D02*
X13666586Y-12711150D01*
X13666586Y-12730198D02*
X13676110Y-12720674D01*
X13676110Y-12720674D02*
X13695158Y-12711150D01*
X13695158Y-12711150D02*
X13723729Y-12711150D01*
X13723729Y-12711150D02*
X13742777Y-12720674D01*
X13742777Y-12720674D02*
X13752301Y-12739722D01*
X13752301Y-12739722D02*
X13752301Y-12844484D01*
X13752301Y-12739722D02*
X13761824Y-12720674D01*
X13761824Y-12720674D02*
X13780872Y-12711150D01*
X13780872Y-12711150D02*
X13809443Y-12711150D01*
X13809443Y-12711150D02*
X13828491Y-12720674D01*
X13828491Y-12720674D02*
X13838015Y-12739722D01*
X13838015Y-12739722D02*
X13838015Y-12844484D01*
X14228491Y-12634960D02*
X14057063Y-12892103D01*
X14485634Y-12644484D02*
X14504682Y-12644484D01*
X14504682Y-12644484D02*
X14523729Y-12654008D01*
X14523729Y-12654008D02*
X14533253Y-12663531D01*
X14533253Y-12663531D02*
X14542777Y-12682579D01*
X14542777Y-12682579D02*
X14552301Y-12720674D01*
X14552301Y-12720674D02*
X14552301Y-12768293D01*
X14552301Y-12768293D02*
X14542777Y-12806388D01*
X14542777Y-12806388D02*
X14533253Y-12825436D01*
X14533253Y-12825436D02*
X14523729Y-12834960D01*
X14523729Y-12834960D02*
X14504682Y-12844484D01*
X14504682Y-12844484D02*
X14485634Y-12844484D01*
X14485634Y-12844484D02*
X14466586Y-12834960D01*
X14466586Y-12834960D02*
X14457063Y-12825436D01*
X14457063Y-12825436D02*
X14447539Y-12806388D01*
X14447539Y-12806388D02*
X14438015Y-12768293D01*
X14438015Y-12768293D02*
X14438015Y-12720674D01*
X14438015Y-12720674D02*
X14447539Y-12682579D01*
X14447539Y-12682579D02*
X14457063Y-12663531D01*
X14457063Y-12663531D02*
X14466586Y-12654008D01*
X14466586Y-12654008D02*
X14485634Y-12644484D01*
X14638015Y-12825436D02*
X14647539Y-12834960D01*
X14647539Y-12834960D02*
X14638015Y-12844484D01*
X14638015Y-12844484D02*
X14628491Y-12834960D01*
X14628491Y-12834960D02*
X14638015Y-12825436D01*
X14638015Y-12825436D02*
X14638015Y-12844484D01*
X14771348Y-12644484D02*
X14790396Y-12644484D01*
X14790396Y-12644484D02*
X14809444Y-12654008D01*
X14809444Y-12654008D02*
X14818967Y-12663531D01*
X14818967Y-12663531D02*
X14828491Y-12682579D01*
X14828491Y-12682579D02*
X14838015Y-12720674D01*
X14838015Y-12720674D02*
X14838015Y-12768293D01*
X14838015Y-12768293D02*
X14828491Y-12806388D01*
X14828491Y-12806388D02*
X14818967Y-12825436D01*
X14818967Y-12825436D02*
X14809444Y-12834960D01*
X14809444Y-12834960D02*
X14790396Y-12844484D01*
X14790396Y-12844484D02*
X14771348Y-12844484D01*
X14771348Y-12844484D02*
X14752301Y-12834960D01*
X14752301Y-12834960D02*
X14742777Y-12825436D01*
X14742777Y-12825436D02*
X14733253Y-12806388D01*
X14733253Y-12806388D02*
X14723729Y-12768293D01*
X14723729Y-12768293D02*
X14723729Y-12720674D01*
X14723729Y-12720674D02*
X14733253Y-12682579D01*
X14733253Y-12682579D02*
X14742777Y-12663531D01*
X14742777Y-12663531D02*
X14752301Y-12654008D01*
X14752301Y-12654008D02*
X14771348Y-12644484D01*
X15028491Y-12844484D02*
X14914206Y-12844484D01*
X14971348Y-12844484D02*
X14971348Y-12644484D01*
X14971348Y-12644484D02*
X14952301Y-12673055D01*
X14952301Y-12673055D02*
X14933253Y-12692103D01*
X14933253Y-12692103D02*
X14914206Y-12701627D01*
X15209444Y-12644484D02*
X15114206Y-12644484D01*
X15114206Y-12644484D02*
X15104682Y-12739722D01*
X15104682Y-12739722D02*
X15114206Y-12730198D01*
X15114206Y-12730198D02*
X15133253Y-12720674D01*
X15133253Y-12720674D02*
X15180872Y-12720674D01*
X15180872Y-12720674D02*
X15199920Y-12730198D01*
X15199920Y-12730198D02*
X15209444Y-12739722D01*
X15209444Y-12739722D02*
X15218967Y-12758769D01*
X15218967Y-12758769D02*
X15218967Y-12806388D01*
X15218967Y-12806388D02*
X15209444Y-12825436D01*
X15209444Y-12825436D02*
X15199920Y-12834960D01*
X15199920Y-12834960D02*
X15180872Y-12844484D01*
X15180872Y-12844484D02*
X15133253Y-12844484D01*
X15133253Y-12844484D02*
X15114206Y-12834960D01*
X15114206Y-12834960D02*
X15104682Y-12825436D01*
X15285634Y-12644484D02*
X15418967Y-12644484D01*
X15418967Y-12644484D02*
X15333253Y-12844484D01*
X15485634Y-12644484D02*
X15485634Y-12682579D01*
X15561825Y-12644484D02*
X15561825Y-12682579D01*
X15857063Y-12920674D02*
X15847539Y-12911150D01*
X15847539Y-12911150D02*
X15828491Y-12882579D01*
X15828491Y-12882579D02*
X15818968Y-12863531D01*
X15818968Y-12863531D02*
X15809444Y-12834960D01*
X15809444Y-12834960D02*
X15799920Y-12787341D01*
X15799920Y-12787341D02*
X15799920Y-12749246D01*
X15799920Y-12749246D02*
X15809444Y-12701627D01*
X15809444Y-12701627D02*
X15818968Y-12673055D01*
X15818968Y-12673055D02*
X15828491Y-12654008D01*
X15828491Y-12654008D02*
X15847539Y-12625436D01*
X15847539Y-12625436D02*
X15857063Y-12615912D01*
X16038015Y-12844484D02*
X15923729Y-12844484D01*
X15980872Y-12844484D02*
X15980872Y-12644484D01*
X15980872Y-12644484D02*
X15961825Y-12673055D01*
X15961825Y-12673055D02*
X15942777Y-12692103D01*
X15942777Y-12692103D02*
X15923729Y-12701627D01*
X16114206Y-12663531D02*
X16123729Y-12654008D01*
X16123729Y-12654008D02*
X16142777Y-12644484D01*
X16142777Y-12644484D02*
X16190396Y-12644484D01*
X16190396Y-12644484D02*
X16209444Y-12654008D01*
X16209444Y-12654008D02*
X16218968Y-12663531D01*
X16218968Y-12663531D02*
X16228491Y-12682579D01*
X16228491Y-12682579D02*
X16228491Y-12701627D01*
X16228491Y-12701627D02*
X16218968Y-12730198D01*
X16218968Y-12730198D02*
X16104682Y-12844484D01*
X16104682Y-12844484D02*
X16228491Y-12844484D01*
X16466587Y-12844484D02*
X16466587Y-12644484D01*
X16552301Y-12844484D02*
X16552301Y-12739722D01*
X16552301Y-12739722D02*
X16542777Y-12720674D01*
X16542777Y-12720674D02*
X16523730Y-12711150D01*
X16523730Y-12711150D02*
X16495158Y-12711150D01*
X16495158Y-12711150D02*
X16476110Y-12720674D01*
X16476110Y-12720674D02*
X16466587Y-12730198D01*
X16676110Y-12844484D02*
X16657063Y-12834960D01*
X16657063Y-12834960D02*
X16647539Y-12825436D01*
X16647539Y-12825436D02*
X16638015Y-12806388D01*
X16638015Y-12806388D02*
X16638015Y-12749246D01*
X16638015Y-12749246D02*
X16647539Y-12730198D01*
X16647539Y-12730198D02*
X16657063Y-12720674D01*
X16657063Y-12720674D02*
X16676110Y-12711150D01*
X16676110Y-12711150D02*
X16704682Y-12711150D01*
X16704682Y-12711150D02*
X16723730Y-12720674D01*
X16723730Y-12720674D02*
X16733253Y-12730198D01*
X16733253Y-12730198D02*
X16742777Y-12749246D01*
X16742777Y-12749246D02*
X16742777Y-12806388D01*
X16742777Y-12806388D02*
X16733253Y-12825436D01*
X16733253Y-12825436D02*
X16723730Y-12834960D01*
X16723730Y-12834960D02*
X16704682Y-12844484D01*
X16704682Y-12844484D02*
X16676110Y-12844484D01*
X16857063Y-12844484D02*
X16838015Y-12834960D01*
X16838015Y-12834960D02*
X16828492Y-12815912D01*
X16828492Y-12815912D02*
X16828492Y-12644484D01*
X17009444Y-12834960D02*
X16990396Y-12844484D01*
X16990396Y-12844484D02*
X16952301Y-12844484D01*
X16952301Y-12844484D02*
X16933253Y-12834960D01*
X16933253Y-12834960D02*
X16923730Y-12815912D01*
X16923730Y-12815912D02*
X16923730Y-12739722D01*
X16923730Y-12739722D02*
X16933253Y-12720674D01*
X16933253Y-12720674D02*
X16952301Y-12711150D01*
X16952301Y-12711150D02*
X16990396Y-12711150D01*
X16990396Y-12711150D02*
X17009444Y-12720674D01*
X17009444Y-12720674D02*
X17018968Y-12739722D01*
X17018968Y-12739722D02*
X17018968Y-12758769D01*
X17018968Y-12758769D02*
X16923730Y-12777817D01*
X17095158Y-12834960D02*
X17114206Y-12844484D01*
X17114206Y-12844484D02*
X17152301Y-12844484D01*
X17152301Y-12844484D02*
X17171349Y-12834960D01*
X17171349Y-12834960D02*
X17180873Y-12815912D01*
X17180873Y-12815912D02*
X17180873Y-12806388D01*
X17180873Y-12806388D02*
X17171349Y-12787341D01*
X17171349Y-12787341D02*
X17152301Y-12777817D01*
X17152301Y-12777817D02*
X17123730Y-12777817D01*
X17123730Y-12777817D02*
X17104682Y-12768293D01*
X17104682Y-12768293D02*
X17095158Y-12749246D01*
X17095158Y-12749246D02*
X17095158Y-12739722D01*
X17095158Y-12739722D02*
X17104682Y-12720674D01*
X17104682Y-12720674D02*
X17123730Y-12711150D01*
X17123730Y-12711150D02*
X17152301Y-12711150D01*
X17152301Y-12711150D02*
X17171349Y-12720674D01*
X17247539Y-12920674D02*
X17257063Y-12911150D01*
X17257063Y-12911150D02*
X17276111Y-12882579D01*
X17276111Y-12882579D02*
X17285634Y-12863531D01*
X17285634Y-12863531D02*
X17295158Y-12834960D01*
X17295158Y-12834960D02*
X17304682Y-12787341D01*
X17304682Y-12787341D02*
X17304682Y-12749246D01*
X17304682Y-12749246D02*
X17295158Y-12701627D01*
X17295158Y-12701627D02*
X17285634Y-12673055D01*
X17285634Y-12673055D02*
X17276111Y-12654008D01*
X17276111Y-12654008D02*
X17257063Y-12625436D01*
X17257063Y-12625436D02*
X17247539Y-12615912D01*
D10*
X12257000Y-12992000D02*
X12257000Y-13042000D01*
X12232000Y-13017000D02*
X12282000Y-13017000D01*
D11*
X12580872Y-12908484D02*
X12599920Y-12908484D01*
X12599920Y-12908484D02*
X12618967Y-12918008D01*
X12618967Y-12918008D02*
X12628491Y-12927531D01*
X12628491Y-12927531D02*
X12638015Y-12946579D01*
X12638015Y-12946579D02*
X12647539Y-12984674D01*
X12647539Y-12984674D02*
X12647539Y-13032293D01*
X12647539Y-13032293D02*
X12638015Y-13070388D01*
X12638015Y-13070388D02*
X12628491Y-13089436D01*
X12628491Y-13089436D02*
X12618967Y-13098960D01*
X12618967Y-13098960D02*
X12599920Y-13108484D01*
X12599920Y-13108484D02*
X12580872Y-13108484D01*
X12580872Y-13108484D02*
X12561824Y-13098960D01*
X12561824Y-13098960D02*
X12552301Y-13089436D01*
X12552301Y-13089436D02*
X12542777Y-13070388D01*
X12542777Y-13070388D02*
X12533253Y-13032293D01*
X12533253Y-13032293D02*
X12533253Y-12984674D01*
X12533253Y-12984674D02*
X12542777Y-12946579D01*
X12542777Y-12946579D02*
X12552301Y-12927531D01*
X12552301Y-12927531D02*
X12561824Y-12918008D01*
X12561824Y-12918008D02*
X12580872Y-12908484D01*
X12733253Y-13089436D02*
X12742777Y-13098960D01*
X12742777Y-13098960D02*
X12733253Y-13108484D01*
X12733253Y-13108484D02*
X12723729Y-13098960D01*
X12723729Y-13098960D02*
X12733253Y-13089436D01*
X12733253Y-13089436D02*
X12733253Y-13108484D01*
X12923729Y-12908484D02*
X12828491Y-12908484D01*
X12828491Y-12908484D02*
X12818967Y-13003722D01*
X12818967Y-13003722D02*
X12828491Y-12994198D01*
X12828491Y-12994198D02*
X12847539Y-12984674D01*
X12847539Y-12984674D02*
X12895158Y-12984674D01*
X12895158Y-12984674D02*
X12914205Y-12994198D01*
X12914205Y-12994198D02*
X12923729Y-13003722D01*
X12923729Y-13003722D02*
X12933253Y-13022769D01*
X12933253Y-13022769D02*
X12933253Y-13070388D01*
X12933253Y-13070388D02*
X12923729Y-13089436D01*
X12923729Y-13089436D02*
X12914205Y-13098960D01*
X12914205Y-13098960D02*
X12895158Y-13108484D01*
X12895158Y-13108484D02*
X12847539Y-13108484D01*
X12847539Y-13108484D02*
X12828491Y-13098960D01*
X12828491Y-13098960D02*
X12818967Y-13089436D01*
X13057062Y-12908484D02*
X13076110Y-12908484D01*
X13076110Y-12908484D02*
X13095158Y-12918008D01*
X13095158Y-12918008D02*
X13104682Y-12927531D01*
X13104682Y-12927531D02*
X13114205Y-12946579D01*
X13114205Y-12946579D02*
X13123729Y-12984674D01*
X13123729Y-12984674D02*
X13123729Y-13032293D01*
X13123729Y-13032293D02*
X13114205Y-13070388D01*
X13114205Y-13070388D02*
X13104682Y-13089436D01*
X13104682Y-13089436D02*
X13095158Y-13098960D01*
X13095158Y-13098960D02*
X13076110Y-13108484D01*
X13076110Y-13108484D02*
X13057062Y-13108484D01*
X13057062Y-13108484D02*
X13038015Y-13098960D01*
X13038015Y-13098960D02*
X13028491Y-13089436D01*
X13028491Y-13089436D02*
X13018967Y-13070388D01*
X13018967Y-13070388D02*
X13009443Y-13032293D01*
X13009443Y-13032293D02*
X13009443Y-12984674D01*
X13009443Y-12984674D02*
X13018967Y-12946579D01*
X13018967Y-12946579D02*
X13028491Y-12927531D01*
X13028491Y-12927531D02*
X13038015Y-12918008D01*
X13038015Y-12918008D02*
X13057062Y-12908484D01*
X13247539Y-12908484D02*
X13266586Y-12908484D01*
X13266586Y-12908484D02*
X13285634Y-12918008D01*
X13285634Y-12918008D02*
X13295158Y-12927531D01*
X13295158Y-12927531D02*
X13304682Y-12946579D01*
X13304682Y-12946579D02*
X13314205Y-12984674D01*
X13314205Y-12984674D02*
X13314205Y-13032293D01*
X13314205Y-13032293D02*
X13304682Y-13070388D01*
X13304682Y-13070388D02*
X13295158Y-13089436D01*
X13295158Y-13089436D02*
X13285634Y-13098960D01*
X13285634Y-13098960D02*
X13266586Y-13108484D01*
X13266586Y-13108484D02*
X13247539Y-13108484D01*
X13247539Y-13108484D02*
X13228491Y-13098960D01*
X13228491Y-13098960D02*
X13218967Y-13089436D01*
X13218967Y-13089436D02*
X13209443Y-13070388D01*
X13209443Y-13070388D02*
X13199920Y-13032293D01*
X13199920Y-13032293D02*
X13199920Y-12984674D01*
X13199920Y-12984674D02*
X13209443Y-12946579D01*
X13209443Y-12946579D02*
X13218967Y-12927531D01*
X13218967Y-12927531D02*
X13228491Y-12918008D01*
X13228491Y-12918008D02*
X13247539Y-12908484D01*
X13399920Y-13108484D02*
X13399920Y-12975150D01*
X13399920Y-12994198D02*
X13409443Y-12984674D01*
X13409443Y-12984674D02*
X13428491Y-12975150D01*
X13428491Y-12975150D02*
X13457063Y-12975150D01*
X13457063Y-12975150D02*
X13476110Y-12984674D01*
X13476110Y-12984674D02*
X13485634Y-13003722D01*
X13485634Y-13003722D02*
X13485634Y-13108484D01*
X13485634Y-13003722D02*
X13495158Y-12984674D01*
X13495158Y-12984674D02*
X13514205Y-12975150D01*
X13514205Y-12975150D02*
X13542777Y-12975150D01*
X13542777Y-12975150D02*
X13561824Y-12984674D01*
X13561824Y-12984674D02*
X13571348Y-13003722D01*
X13571348Y-13003722D02*
X13571348Y-13108484D01*
X13666586Y-13108484D02*
X13666586Y-12975150D01*
X13666586Y-12994198D02*
X13676110Y-12984674D01*
X13676110Y-12984674D02*
X13695158Y-12975150D01*
X13695158Y-12975150D02*
X13723729Y-12975150D01*
X13723729Y-12975150D02*
X13742777Y-12984674D01*
X13742777Y-12984674D02*
X13752301Y-13003722D01*
X13752301Y-13003722D02*
X13752301Y-13108484D01*
X13752301Y-13003722D02*
X13761824Y-12984674D01*
X13761824Y-12984674D02*
X13780872Y-12975150D01*
X13780872Y-12975150D02*
X13809443Y-12975150D01*
X13809443Y-12975150D02*
X13828491Y-12984674D01*
X13828491Y-12984674D02*
X13838015Y-13003722D01*
X13838015Y-13003722D02*
X13838015Y-13108484D01*
X14228491Y-12898960D02*
X14057063Y-13156103D01*
X14485634Y-12908484D02*
X14504682Y-12908484D01*
X14504682Y-12908484D02*
X14523729Y-12918008D01*
X14523729Y-12918008D02*
X14533253Y-12927531D01*
X14533253Y-12927531D02*
X14542777Y-12946579D01*
X14542777Y-12946579D02*
X14552301Y-12984674D01*
X14552301Y-12984674D02*
X14552301Y-13032293D01*
X14552301Y-13032293D02*
X14542777Y-13070388D01*
X14542777Y-13070388D02*
X14533253Y-13089436D01*
X14533253Y-13089436D02*
X14523729Y-13098960D01*
X14523729Y-13098960D02*
X14504682Y-13108484D01*
X14504682Y-13108484D02*
X14485634Y-13108484D01*
X14485634Y-13108484D02*
X14466586Y-13098960D01*
X14466586Y-13098960D02*
X14457063Y-13089436D01*
X14457063Y-13089436D02*
X14447539Y-13070388D01*
X14447539Y-13070388D02*
X14438015Y-13032293D01*
X14438015Y-13032293D02*
X14438015Y-12984674D01*
X14438015Y-12984674D02*
X14447539Y-12946579D01*
X14447539Y-12946579D02*
X14457063Y-12927531D01*
X14457063Y-12927531D02*
X14466586Y-12918008D01*
X14466586Y-12918008D02*
X14485634Y-12908484D01*
X14638015Y-13089436D02*
X14647539Y-13098960D01*
X14647539Y-13098960D02*
X14638015Y-13108484D01*
X14638015Y-13108484D02*
X14628491Y-13098960D01*
X14628491Y-13098960D02*
X14638015Y-13089436D01*
X14638015Y-13089436D02*
X14638015Y-13108484D01*
X14771348Y-12908484D02*
X14790396Y-12908484D01*
X14790396Y-12908484D02*
X14809444Y-12918008D01*
X14809444Y-12918008D02*
X14818967Y-12927531D01*
X14818967Y-12927531D02*
X14828491Y-12946579D01*
X14828491Y-12946579D02*
X14838015Y-12984674D01*
X14838015Y-12984674D02*
X14838015Y-13032293D01*
X14838015Y-13032293D02*
X14828491Y-13070388D01*
X14828491Y-13070388D02*
X14818967Y-13089436D01*
X14818967Y-13089436D02*
X14809444Y-13098960D01*
X14809444Y-13098960D02*
X14790396Y-13108484D01*
X14790396Y-13108484D02*
X14771348Y-13108484D01*
X14771348Y-13108484D02*
X14752301Y-13098960D01*
X14752301Y-13098960D02*
X14742777Y-13089436D01*
X14742777Y-13089436D02*
X14733253Y-13070388D01*
X14733253Y-13070388D02*
X14723729Y-13032293D01*
X14723729Y-13032293D02*
X14723729Y-12984674D01*
X14723729Y-12984674D02*
X14733253Y-12946579D01*
X14733253Y-12946579D02*
X14742777Y-12927531D01*
X14742777Y-12927531D02*
X14752301Y-12918008D01*
X14752301Y-12918008D02*
X14771348Y-12908484D01*
X15028491Y-13108484D02*
X14914206Y-13108484D01*
X14971348Y-13108484D02*
X14971348Y-12908484D01*
X14971348Y-12908484D02*
X14952301Y-12937055D01*
X14952301Y-12937055D02*
X14933253Y-12956103D01*
X14933253Y-12956103D02*
X14914206Y-12965627D01*
X15123729Y-13108484D02*
X15161825Y-13108484D01*
X15161825Y-13108484D02*
X15180872Y-13098960D01*
X15180872Y-13098960D02*
X15190396Y-13089436D01*
X15190396Y-13089436D02*
X15209444Y-13060865D01*
X15209444Y-13060865D02*
X15218967Y-13022769D01*
X15218967Y-13022769D02*
X15218967Y-12946579D01*
X15218967Y-12946579D02*
X15209444Y-12927531D01*
X15209444Y-12927531D02*
X15199920Y-12918008D01*
X15199920Y-12918008D02*
X15180872Y-12908484D01*
X15180872Y-12908484D02*
X15142777Y-12908484D01*
X15142777Y-12908484D02*
X15123729Y-12918008D01*
X15123729Y-12918008D02*
X15114206Y-12927531D01*
X15114206Y-12927531D02*
X15104682Y-12946579D01*
X15104682Y-12946579D02*
X15104682Y-12994198D01*
X15104682Y-12994198D02*
X15114206Y-13013246D01*
X15114206Y-13013246D02*
X15123729Y-13022769D01*
X15123729Y-13022769D02*
X15142777Y-13032293D01*
X15142777Y-13032293D02*
X15180872Y-13032293D01*
X15180872Y-13032293D02*
X15199920Y-13022769D01*
X15199920Y-13022769D02*
X15209444Y-13013246D01*
X15209444Y-13013246D02*
X15218967Y-12994198D01*
X15285634Y-12908484D02*
X15418967Y-12908484D01*
X15418967Y-12908484D02*
X15333253Y-13108484D01*
X15485634Y-12908484D02*
X15485634Y-12946579D01*
X15561825Y-12908484D02*
X15561825Y-12946579D01*
X15857063Y-13184674D02*
X15847539Y-13175150D01*
X15847539Y-13175150D02*
X15828491Y-13146579D01*
X15828491Y-13146579D02*
X15818968Y-13127531D01*
X15818968Y-13127531D02*
X15809444Y-13098960D01*
X15809444Y-13098960D02*
X15799920Y-13051341D01*
X15799920Y-13051341D02*
X15799920Y-13013246D01*
X15799920Y-13013246D02*
X15809444Y-12965627D01*
X15809444Y-12965627D02*
X15818968Y-12937055D01*
X15818968Y-12937055D02*
X15828491Y-12918008D01*
X15828491Y-12918008D02*
X15847539Y-12889436D01*
X15847539Y-12889436D02*
X15857063Y-12879912D01*
X15923729Y-12927531D02*
X15933253Y-12918008D01*
X15933253Y-12918008D02*
X15952301Y-12908484D01*
X15952301Y-12908484D02*
X15999920Y-12908484D01*
X15999920Y-12908484D02*
X16018968Y-12918008D01*
X16018968Y-12918008D02*
X16028491Y-12927531D01*
X16028491Y-12927531D02*
X16038015Y-12946579D01*
X16038015Y-12946579D02*
X16038015Y-12965627D01*
X16038015Y-12965627D02*
X16028491Y-12994198D01*
X16028491Y-12994198D02*
X15914206Y-13108484D01*
X15914206Y-13108484D02*
X16038015Y-13108484D01*
X16104682Y-12908484D02*
X16228491Y-12908484D01*
X16228491Y-12908484D02*
X16161825Y-12984674D01*
X16161825Y-12984674D02*
X16190396Y-12984674D01*
X16190396Y-12984674D02*
X16209444Y-12994198D01*
X16209444Y-12994198D02*
X16218968Y-13003722D01*
X16218968Y-13003722D02*
X16228491Y-13022769D01*
X16228491Y-13022769D02*
X16228491Y-13070388D01*
X16228491Y-13070388D02*
X16218968Y-13089436D01*
X16218968Y-13089436D02*
X16209444Y-13098960D01*
X16209444Y-13098960D02*
X16190396Y-13108484D01*
X16190396Y-13108484D02*
X16133253Y-13108484D01*
X16133253Y-13108484D02*
X16114206Y-13098960D01*
X16114206Y-13098960D02*
X16104682Y-13089436D01*
X16466587Y-13108484D02*
X16466587Y-12908484D01*
X16552301Y-13108484D02*
X16552301Y-13003722D01*
X16552301Y-13003722D02*
X16542777Y-12984674D01*
X16542777Y-12984674D02*
X16523730Y-12975150D01*
X16523730Y-12975150D02*
X16495158Y-12975150D01*
X16495158Y-12975150D02*
X16476110Y-12984674D01*
X16476110Y-12984674D02*
X16466587Y-12994198D01*
X16676110Y-13108484D02*
X16657063Y-13098960D01*
X16657063Y-13098960D02*
X16647539Y-13089436D01*
X16647539Y-13089436D02*
X16638015Y-13070388D01*
X16638015Y-13070388D02*
X16638015Y-13013246D01*
X16638015Y-13013246D02*
X16647539Y-12994198D01*
X16647539Y-12994198D02*
X16657063Y-12984674D01*
X16657063Y-12984674D02*
X16676110Y-12975150D01*
X16676110Y-12975150D02*
X16704682Y-12975150D01*
X16704682Y-12975150D02*
X16723730Y-12984674D01*
X16723730Y-12984674D02*
X16733253Y-12994198D01*
X16733253Y-12994198D02*
X16742777Y-13013246D01*
X16742777Y-13013246D02*
X16742777Y-13070388D01*
X16742777Y-13070388D02*
X16733253Y-13089436D01*
X16733253Y-13089436D02*
X16723730Y-13098960D01*
X16723730Y-13098960D02*
X16704682Y-13108484D01*
X16704682Y-13108484D02*
X16676110Y-13108484D01*
X16857063Y-13108484D02*
X16838015Y-13098960D01*
X16838015Y-13098960D02*
X16828492Y-13079912D01*
X16828492Y-13079912D02*
X16828492Y-12908484D01*
X17009444Y-13098960D02*
X16990396Y-13108484D01*
X16990396Y-13108484D02*
X16952301Y-13108484D01*
X16952301Y-13108484D02*
X16933253Y-13098960D01*
X16933253Y-13098960D02*
X16923730Y-13079912D01*
X16923730Y-13079912D02*
X16923730Y-13003722D01*
X16923730Y-13003722D02*
X16933253Y-12984674D01*
X16933253Y-12984674D02*
X16952301Y-12975150D01*
X16952301Y-12975150D02*
X16990396Y-12975150D01*
X16990396Y-12975150D02*
X17009444Y-12984674D01*
X17009444Y-12984674D02*
X17018968Y-13003722D01*
X17018968Y-13003722D02*
X17018968Y-13022769D01*
X17018968Y-13022769D02*
X16923730Y-13041817D01*
X17095158Y-13098960D02*
X17114206Y-13108484D01*
X17114206Y-13108484D02*
X17152301Y-13108484D01*
X17152301Y-13108484D02*
X17171349Y-13098960D01*
X17171349Y-13098960D02*
X17180873Y-13079912D01*
X17180873Y-13079912D02*
X17180873Y-13070388D01*
X17180873Y-13070388D02*
X17171349Y-13051341D01*
X17171349Y-13051341D02*
X17152301Y-13041817D01*
X17152301Y-13041817D02*
X17123730Y-13041817D01*
X17123730Y-13041817D02*
X17104682Y-13032293D01*
X17104682Y-13032293D02*
X17095158Y-13013246D01*
X17095158Y-13013246D02*
X17095158Y-13003722D01*
X17095158Y-13003722D02*
X17104682Y-12984674D01*
X17104682Y-12984674D02*
X17123730Y-12975150D01*
X17123730Y-12975150D02*
X17152301Y-12975150D01*
X17152301Y-12975150D02*
X17171349Y-12984674D01*
X17247539Y-13184674D02*
X17257063Y-13175150D01*
X17257063Y-13175150D02*
X17276111Y-13146579D01*
X17276111Y-13146579D02*
X17285634Y-13127531D01*
X17285634Y-13127531D02*
X17295158Y-13098960D01*
X17295158Y-13098960D02*
X17304682Y-13051341D01*
X17304682Y-13051341D02*
X17304682Y-13013246D01*
X17304682Y-13013246D02*
X17295158Y-12965627D01*
X17295158Y-12965627D02*
X17285634Y-12937055D01*
X17285634Y-12937055D02*
X17276111Y-12918008D01*
X17276111Y-12918008D02*
X17257063Y-12889436D01*
X17257063Y-12889436D02*
X17247539Y-12879912D01*
D10*
X12273213Y-13302213D02*
X12273213Y-13259787D01*
X12230787Y-13259787D01*
X12230787Y-13302213D01*
X12273213Y-13302213D01*
D11*
X12580872Y-13172484D02*
X12599920Y-13172484D01*
X12599920Y-13172484D02*
X12618967Y-13182008D01*
X12618967Y-13182008D02*
X12628491Y-13191531D01*
X12628491Y-13191531D02*
X12638015Y-13210579D01*
X12638015Y-13210579D02*
X12647539Y-13248674D01*
X12647539Y-13248674D02*
X12647539Y-13296293D01*
X12647539Y-13296293D02*
X12638015Y-13334388D01*
X12638015Y-13334388D02*
X12628491Y-13353436D01*
X12628491Y-13353436D02*
X12618967Y-13362960D01*
X12618967Y-13362960D02*
X12599920Y-13372484D01*
X12599920Y-13372484D02*
X12580872Y-13372484D01*
X12580872Y-13372484D02*
X12561824Y-13362960D01*
X12561824Y-13362960D02*
X12552301Y-13353436D01*
X12552301Y-13353436D02*
X12542777Y-13334388D01*
X12542777Y-13334388D02*
X12533253Y-13296293D01*
X12533253Y-13296293D02*
X12533253Y-13248674D01*
X12533253Y-13248674D02*
X12542777Y-13210579D01*
X12542777Y-13210579D02*
X12552301Y-13191531D01*
X12552301Y-13191531D02*
X12561824Y-13182008D01*
X12561824Y-13182008D02*
X12580872Y-13172484D01*
X12733253Y-13353436D02*
X12742777Y-13362960D01*
X12742777Y-13362960D02*
X12733253Y-13372484D01*
X12733253Y-13372484D02*
X12723729Y-13362960D01*
X12723729Y-13362960D02*
X12733253Y-13353436D01*
X12733253Y-13353436D02*
X12733253Y-13372484D01*
X12914205Y-13172484D02*
X12876110Y-13172484D01*
X12876110Y-13172484D02*
X12857062Y-13182008D01*
X12857062Y-13182008D02*
X12847539Y-13191531D01*
X12847539Y-13191531D02*
X12828491Y-13220103D01*
X12828491Y-13220103D02*
X12818967Y-13258198D01*
X12818967Y-13258198D02*
X12818967Y-13334388D01*
X12818967Y-13334388D02*
X12828491Y-13353436D01*
X12828491Y-13353436D02*
X12838015Y-13362960D01*
X12838015Y-13362960D02*
X12857062Y-13372484D01*
X12857062Y-13372484D02*
X12895158Y-13372484D01*
X12895158Y-13372484D02*
X12914205Y-13362960D01*
X12914205Y-13362960D02*
X12923729Y-13353436D01*
X12923729Y-13353436D02*
X12933253Y-13334388D01*
X12933253Y-13334388D02*
X12933253Y-13286769D01*
X12933253Y-13286769D02*
X12923729Y-13267722D01*
X12923729Y-13267722D02*
X12914205Y-13258198D01*
X12914205Y-13258198D02*
X12895158Y-13248674D01*
X12895158Y-13248674D02*
X12857062Y-13248674D01*
X12857062Y-13248674D02*
X12838015Y-13258198D01*
X12838015Y-13258198D02*
X12828491Y-13267722D01*
X12828491Y-13267722D02*
X12818967Y-13286769D01*
X13057062Y-13172484D02*
X13076110Y-13172484D01*
X13076110Y-13172484D02*
X13095158Y-13182008D01*
X13095158Y-13182008D02*
X13104682Y-13191531D01*
X13104682Y-13191531D02*
X13114205Y-13210579D01*
X13114205Y-13210579D02*
X13123729Y-13248674D01*
X13123729Y-13248674D02*
X13123729Y-13296293D01*
X13123729Y-13296293D02*
X13114205Y-13334388D01*
X13114205Y-13334388D02*
X13104682Y-13353436D01*
X13104682Y-13353436D02*
X13095158Y-13362960D01*
X13095158Y-13362960D02*
X13076110Y-13372484D01*
X13076110Y-13372484D02*
X13057062Y-13372484D01*
X13057062Y-13372484D02*
X13038015Y-13362960D01*
X13038015Y-13362960D02*
X13028491Y-13353436D01*
X13028491Y-13353436D02*
X13018967Y-13334388D01*
X13018967Y-13334388D02*
X13009443Y-13296293D01*
X13009443Y-13296293D02*
X13009443Y-13248674D01*
X13009443Y-13248674D02*
X13018967Y-13210579D01*
X13018967Y-13210579D02*
X13028491Y-13191531D01*
X13028491Y-13191531D02*
X13038015Y-13182008D01*
X13038015Y-13182008D02*
X13057062Y-13172484D01*
X13247539Y-13172484D02*
X13266586Y-13172484D01*
X13266586Y-13172484D02*
X13285634Y-13182008D01*
X13285634Y-13182008D02*
X13295158Y-13191531D01*
X13295158Y-13191531D02*
X13304682Y-13210579D01*
X13304682Y-13210579D02*
X13314205Y-13248674D01*
X13314205Y-13248674D02*
X13314205Y-13296293D01*
X13314205Y-13296293D02*
X13304682Y-13334388D01*
X13304682Y-13334388D02*
X13295158Y-13353436D01*
X13295158Y-13353436D02*
X13285634Y-13362960D01*
X13285634Y-13362960D02*
X13266586Y-13372484D01*
X13266586Y-13372484D02*
X13247539Y-13372484D01*
X13247539Y-13372484D02*
X13228491Y-13362960D01*
X13228491Y-13362960D02*
X13218967Y-13353436D01*
X13218967Y-13353436D02*
X13209443Y-13334388D01*
X13209443Y-13334388D02*
X13199920Y-13296293D01*
X13199920Y-13296293D02*
X13199920Y-13248674D01*
X13199920Y-13248674D02*
X13209443Y-13210579D01*
X13209443Y-13210579D02*
X13218967Y-13191531D01*
X13218967Y-13191531D02*
X13228491Y-13182008D01*
X13228491Y-13182008D02*
X13247539Y-13172484D01*
X13399920Y-13372484D02*
X13399920Y-13239150D01*
X13399920Y-13258198D02*
X13409443Y-13248674D01*
X13409443Y-13248674D02*
X13428491Y-13239150D01*
X13428491Y-13239150D02*
X13457063Y-13239150D01*
X13457063Y-13239150D02*
X13476110Y-13248674D01*
X13476110Y-13248674D02*
X13485634Y-13267722D01*
X13485634Y-13267722D02*
X13485634Y-13372484D01*
X13485634Y-13267722D02*
X13495158Y-13248674D01*
X13495158Y-13248674D02*
X13514205Y-13239150D01*
X13514205Y-13239150D02*
X13542777Y-13239150D01*
X13542777Y-13239150D02*
X13561824Y-13248674D01*
X13561824Y-13248674D02*
X13571348Y-13267722D01*
X13571348Y-13267722D02*
X13571348Y-13372484D01*
X13666586Y-13372484D02*
X13666586Y-13239150D01*
X13666586Y-13258198D02*
X13676110Y-13248674D01*
X13676110Y-13248674D02*
X13695158Y-13239150D01*
X13695158Y-13239150D02*
X13723729Y-13239150D01*
X13723729Y-13239150D02*
X13742777Y-13248674D01*
X13742777Y-13248674D02*
X13752301Y-13267722D01*
X13752301Y-13267722D02*
X13752301Y-13372484D01*
X13752301Y-13267722D02*
X13761824Y-13248674D01*
X13761824Y-13248674D02*
X13780872Y-13239150D01*
X13780872Y-13239150D02*
X13809443Y-13239150D01*
X13809443Y-13239150D02*
X13828491Y-13248674D01*
X13828491Y-13248674D02*
X13838015Y-13267722D01*
X13838015Y-13267722D02*
X13838015Y-13372484D01*
X14228491Y-13162960D02*
X14057063Y-13420103D01*
X14485634Y-13172484D02*
X14504682Y-13172484D01*
X14504682Y-13172484D02*
X14523729Y-13182008D01*
X14523729Y-13182008D02*
X14533253Y-13191531D01*
X14533253Y-13191531D02*
X14542777Y-13210579D01*
X14542777Y-13210579D02*
X14552301Y-13248674D01*
X14552301Y-13248674D02*
X14552301Y-13296293D01*
X14552301Y-13296293D02*
X14542777Y-13334388D01*
X14542777Y-13334388D02*
X14533253Y-13353436D01*
X14533253Y-13353436D02*
X14523729Y-13362960D01*
X14523729Y-13362960D02*
X14504682Y-13372484D01*
X14504682Y-13372484D02*
X14485634Y-13372484D01*
X14485634Y-13372484D02*
X14466586Y-13362960D01*
X14466586Y-13362960D02*
X14457063Y-13353436D01*
X14457063Y-13353436D02*
X14447539Y-13334388D01*
X14447539Y-13334388D02*
X14438015Y-13296293D01*
X14438015Y-13296293D02*
X14438015Y-13248674D01*
X14438015Y-13248674D02*
X14447539Y-13210579D01*
X14447539Y-13210579D02*
X14457063Y-13191531D01*
X14457063Y-13191531D02*
X14466586Y-13182008D01*
X14466586Y-13182008D02*
X14485634Y-13172484D01*
X14638015Y-13353436D02*
X14647539Y-13362960D01*
X14647539Y-13362960D02*
X14638015Y-13372484D01*
X14638015Y-13372484D02*
X14628491Y-13362960D01*
X14628491Y-13362960D02*
X14638015Y-13353436D01*
X14638015Y-13353436D02*
X14638015Y-13372484D01*
X14771348Y-13172484D02*
X14790396Y-13172484D01*
X14790396Y-13172484D02*
X14809444Y-13182008D01*
X14809444Y-13182008D02*
X14818967Y-13191531D01*
X14818967Y-13191531D02*
X14828491Y-13210579D01*
X14828491Y-13210579D02*
X14838015Y-13248674D01*
X14838015Y-13248674D02*
X14838015Y-13296293D01*
X14838015Y-13296293D02*
X14828491Y-13334388D01*
X14828491Y-13334388D02*
X14818967Y-13353436D01*
X14818967Y-13353436D02*
X14809444Y-13362960D01*
X14809444Y-13362960D02*
X14790396Y-13372484D01*
X14790396Y-13372484D02*
X14771348Y-13372484D01*
X14771348Y-13372484D02*
X14752301Y-13362960D01*
X14752301Y-13362960D02*
X14742777Y-13353436D01*
X14742777Y-13353436D02*
X14733253Y-13334388D01*
X14733253Y-13334388D02*
X14723729Y-13296293D01*
X14723729Y-13296293D02*
X14723729Y-13248674D01*
X14723729Y-13248674D02*
X14733253Y-13210579D01*
X14733253Y-13210579D02*
X14742777Y-13191531D01*
X14742777Y-13191531D02*
X14752301Y-13182008D01*
X14752301Y-13182008D02*
X14771348Y-13172484D01*
X14914206Y-13191531D02*
X14923729Y-13182008D01*
X14923729Y-13182008D02*
X14942777Y-13172484D01*
X14942777Y-13172484D02*
X14990396Y-13172484D01*
X14990396Y-13172484D02*
X15009444Y-13182008D01*
X15009444Y-13182008D02*
X15018967Y-13191531D01*
X15018967Y-13191531D02*
X15028491Y-13210579D01*
X15028491Y-13210579D02*
X15028491Y-13229627D01*
X15028491Y-13229627D02*
X15018967Y-13258198D01*
X15018967Y-13258198D02*
X14904682Y-13372484D01*
X14904682Y-13372484D02*
X15028491Y-13372484D01*
X15095158Y-13172484D02*
X15218967Y-13172484D01*
X15218967Y-13172484D02*
X15152301Y-13248674D01*
X15152301Y-13248674D02*
X15180872Y-13248674D01*
X15180872Y-13248674D02*
X15199920Y-13258198D01*
X15199920Y-13258198D02*
X15209444Y-13267722D01*
X15209444Y-13267722D02*
X15218967Y-13286769D01*
X15218967Y-13286769D02*
X15218967Y-13334388D01*
X15218967Y-13334388D02*
X15209444Y-13353436D01*
X15209444Y-13353436D02*
X15199920Y-13362960D01*
X15199920Y-13362960D02*
X15180872Y-13372484D01*
X15180872Y-13372484D02*
X15123729Y-13372484D01*
X15123729Y-13372484D02*
X15104682Y-13362960D01*
X15104682Y-13362960D02*
X15095158Y-13353436D01*
X15390396Y-13172484D02*
X15352301Y-13172484D01*
X15352301Y-13172484D02*
X15333253Y-13182008D01*
X15333253Y-13182008D02*
X15323729Y-13191531D01*
X15323729Y-13191531D02*
X15304682Y-13220103D01*
X15304682Y-13220103D02*
X15295158Y-13258198D01*
X15295158Y-13258198D02*
X15295158Y-13334388D01*
X15295158Y-13334388D02*
X15304682Y-13353436D01*
X15304682Y-13353436D02*
X15314206Y-13362960D01*
X15314206Y-13362960D02*
X15333253Y-13372484D01*
X15333253Y-13372484D02*
X15371348Y-13372484D01*
X15371348Y-13372484D02*
X15390396Y-13362960D01*
X15390396Y-13362960D02*
X15399920Y-13353436D01*
X15399920Y-13353436D02*
X15409444Y-13334388D01*
X15409444Y-13334388D02*
X15409444Y-13286769D01*
X15409444Y-13286769D02*
X15399920Y-13267722D01*
X15399920Y-13267722D02*
X15390396Y-13258198D01*
X15390396Y-13258198D02*
X15371348Y-13248674D01*
X15371348Y-13248674D02*
X15333253Y-13248674D01*
X15333253Y-13248674D02*
X15314206Y-13258198D01*
X15314206Y-13258198D02*
X15304682Y-13267722D01*
X15304682Y-13267722D02*
X15295158Y-13286769D01*
X15485634Y-13172484D02*
X15485634Y-13210579D01*
X15561825Y-13172484D02*
X15561825Y-13210579D01*
X15857063Y-13448674D02*
X15847539Y-13439150D01*
X15847539Y-13439150D02*
X15828491Y-13410579D01*
X15828491Y-13410579D02*
X15818968Y-13391531D01*
X15818968Y-13391531D02*
X15809444Y-13362960D01*
X15809444Y-13362960D02*
X15799920Y-13315341D01*
X15799920Y-13315341D02*
X15799920Y-13277246D01*
X15799920Y-13277246D02*
X15809444Y-13229627D01*
X15809444Y-13229627D02*
X15818968Y-13201055D01*
X15818968Y-13201055D02*
X15828491Y-13182008D01*
X15828491Y-13182008D02*
X15847539Y-13153436D01*
X15847539Y-13153436D02*
X15857063Y-13143912D01*
X15914206Y-13172484D02*
X16047539Y-13172484D01*
X16047539Y-13172484D02*
X15961825Y-13372484D01*
X16276110Y-13372484D02*
X16276110Y-13172484D01*
X16361825Y-13372484D02*
X16361825Y-13267722D01*
X16361825Y-13267722D02*
X16352301Y-13248674D01*
X16352301Y-13248674D02*
X16333253Y-13239150D01*
X16333253Y-13239150D02*
X16304682Y-13239150D01*
X16304682Y-13239150D02*
X16285634Y-13248674D01*
X16285634Y-13248674D02*
X16276110Y-13258198D01*
X16485634Y-13372484D02*
X16466587Y-13362960D01*
X16466587Y-13362960D02*
X16457063Y-13353436D01*
X16457063Y-13353436D02*
X16447539Y-13334388D01*
X16447539Y-13334388D02*
X16447539Y-13277246D01*
X16447539Y-13277246D02*
X16457063Y-13258198D01*
X16457063Y-13258198D02*
X16466587Y-13248674D01*
X16466587Y-13248674D02*
X16485634Y-13239150D01*
X16485634Y-13239150D02*
X16514206Y-13239150D01*
X16514206Y-13239150D02*
X16533253Y-13248674D01*
X16533253Y-13248674D02*
X16542777Y-13258198D01*
X16542777Y-13258198D02*
X16552301Y-13277246D01*
X16552301Y-13277246D02*
X16552301Y-13334388D01*
X16552301Y-13334388D02*
X16542777Y-13353436D01*
X16542777Y-13353436D02*
X16533253Y-13362960D01*
X16533253Y-13362960D02*
X16514206Y-13372484D01*
X16514206Y-13372484D02*
X16485634Y-13372484D01*
X16666587Y-13372484D02*
X16647539Y-13362960D01*
X16647539Y-13362960D02*
X16638015Y-13343912D01*
X16638015Y-13343912D02*
X16638015Y-13172484D01*
X16818968Y-13362960D02*
X16799920Y-13372484D01*
X16799920Y-13372484D02*
X16761825Y-13372484D01*
X16761825Y-13372484D02*
X16742777Y-13362960D01*
X16742777Y-13362960D02*
X16733253Y-13343912D01*
X16733253Y-13343912D02*
X16733253Y-13267722D01*
X16733253Y-13267722D02*
X16742777Y-13248674D01*
X16742777Y-13248674D02*
X16761825Y-13239150D01*
X16761825Y-13239150D02*
X16799920Y-13239150D01*
X16799920Y-13239150D02*
X16818968Y-13248674D01*
X16818968Y-13248674D02*
X16828492Y-13267722D01*
X16828492Y-13267722D02*
X16828492Y-13286769D01*
X16828492Y-13286769D02*
X16733253Y-13305817D01*
X16904682Y-13362960D02*
X16923730Y-13372484D01*
X16923730Y-13372484D02*
X16961825Y-13372484D01*
X16961825Y-13372484D02*
X16980873Y-13362960D01*
X16980873Y-13362960D02*
X16990396Y-13343912D01*
X16990396Y-13343912D02*
X16990396Y-13334388D01*
X16990396Y-13334388D02*
X16980873Y-13315341D01*
X16980873Y-13315341D02*
X16961825Y-13305817D01*
X16961825Y-13305817D02*
X16933253Y-13305817D01*
X16933253Y-13305817D02*
X16914206Y-13296293D01*
X16914206Y-13296293D02*
X16904682Y-13277246D01*
X16904682Y-13277246D02*
X16904682Y-13267722D01*
X16904682Y-13267722D02*
X16914206Y-13248674D01*
X16914206Y-13248674D02*
X16933253Y-13239150D01*
X16933253Y-13239150D02*
X16961825Y-13239150D01*
X16961825Y-13239150D02*
X16980873Y-13248674D01*
X17057063Y-13448674D02*
X17066587Y-13439150D01*
X17066587Y-13439150D02*
X17085634Y-13410579D01*
X17085634Y-13410579D02*
X17095158Y-13391531D01*
X17095158Y-13391531D02*
X17104682Y-13362960D01*
X17104682Y-13362960D02*
X17114206Y-13315341D01*
X17114206Y-13315341D02*
X17114206Y-13277246D01*
X17114206Y-13277246D02*
X17104682Y-13229627D01*
X17104682Y-13229627D02*
X17095158Y-13201055D01*
X17095158Y-13201055D02*
X17085634Y-13182008D01*
X17085634Y-13182008D02*
X17066587Y-13153436D01*
X17066587Y-13153436D02*
X17057063Y-13143912D01*
D10*
X12252000Y-13575000D02*
X12282000Y-13545000D01*
X12252000Y-13515000D01*
X12222000Y-13545000D01*
X12252000Y-13575000D01*
D11*
X12580872Y-13436484D02*
X12599920Y-13436484D01*
X12599920Y-13436484D02*
X12618967Y-13446008D01*
X12618967Y-13446008D02*
X12628491Y-13455531D01*
X12628491Y-13455531D02*
X12638015Y-13474579D01*
X12638015Y-13474579D02*
X12647539Y-13512674D01*
X12647539Y-13512674D02*
X12647539Y-13560293D01*
X12647539Y-13560293D02*
X12638015Y-13598388D01*
X12638015Y-13598388D02*
X12628491Y-13617436D01*
X12628491Y-13617436D02*
X12618967Y-13626960D01*
X12618967Y-13626960D02*
X12599920Y-13636484D01*
X12599920Y-13636484D02*
X12580872Y-13636484D01*
X12580872Y-13636484D02*
X12561824Y-13626960D01*
X12561824Y-13626960D02*
X12552301Y-13617436D01*
X12552301Y-13617436D02*
X12542777Y-13598388D01*
X12542777Y-13598388D02*
X12533253Y-13560293D01*
X12533253Y-13560293D02*
X12533253Y-13512674D01*
X12533253Y-13512674D02*
X12542777Y-13474579D01*
X12542777Y-13474579D02*
X12552301Y-13455531D01*
X12552301Y-13455531D02*
X12561824Y-13446008D01*
X12561824Y-13446008D02*
X12580872Y-13436484D01*
X12733253Y-13617436D02*
X12742777Y-13626960D01*
X12742777Y-13626960D02*
X12733253Y-13636484D01*
X12733253Y-13636484D02*
X12723729Y-13626960D01*
X12723729Y-13626960D02*
X12733253Y-13617436D01*
X12733253Y-13617436D02*
X12733253Y-13636484D01*
X12914205Y-13436484D02*
X12876110Y-13436484D01*
X12876110Y-13436484D02*
X12857062Y-13446008D01*
X12857062Y-13446008D02*
X12847539Y-13455531D01*
X12847539Y-13455531D02*
X12828491Y-13484103D01*
X12828491Y-13484103D02*
X12818967Y-13522198D01*
X12818967Y-13522198D02*
X12818967Y-13598388D01*
X12818967Y-13598388D02*
X12828491Y-13617436D01*
X12828491Y-13617436D02*
X12838015Y-13626960D01*
X12838015Y-13626960D02*
X12857062Y-13636484D01*
X12857062Y-13636484D02*
X12895158Y-13636484D01*
X12895158Y-13636484D02*
X12914205Y-13626960D01*
X12914205Y-13626960D02*
X12923729Y-13617436D01*
X12923729Y-13617436D02*
X12933253Y-13598388D01*
X12933253Y-13598388D02*
X12933253Y-13550769D01*
X12933253Y-13550769D02*
X12923729Y-13531722D01*
X12923729Y-13531722D02*
X12914205Y-13522198D01*
X12914205Y-13522198D02*
X12895158Y-13512674D01*
X12895158Y-13512674D02*
X12857062Y-13512674D01*
X12857062Y-13512674D02*
X12838015Y-13522198D01*
X12838015Y-13522198D02*
X12828491Y-13531722D01*
X12828491Y-13531722D02*
X12818967Y-13550769D01*
X13057062Y-13436484D02*
X13076110Y-13436484D01*
X13076110Y-13436484D02*
X13095158Y-13446008D01*
X13095158Y-13446008D02*
X13104682Y-13455531D01*
X13104682Y-13455531D02*
X13114205Y-13474579D01*
X13114205Y-13474579D02*
X13123729Y-13512674D01*
X13123729Y-13512674D02*
X13123729Y-13560293D01*
X13123729Y-13560293D02*
X13114205Y-13598388D01*
X13114205Y-13598388D02*
X13104682Y-13617436D01*
X13104682Y-13617436D02*
X13095158Y-13626960D01*
X13095158Y-13626960D02*
X13076110Y-13636484D01*
X13076110Y-13636484D02*
X13057062Y-13636484D01*
X13057062Y-13636484D02*
X13038015Y-13626960D01*
X13038015Y-13626960D02*
X13028491Y-13617436D01*
X13028491Y-13617436D02*
X13018967Y-13598388D01*
X13018967Y-13598388D02*
X13009443Y-13560293D01*
X13009443Y-13560293D02*
X13009443Y-13512674D01*
X13009443Y-13512674D02*
X13018967Y-13474579D01*
X13018967Y-13474579D02*
X13028491Y-13455531D01*
X13028491Y-13455531D02*
X13038015Y-13446008D01*
X13038015Y-13446008D02*
X13057062Y-13436484D01*
X13247539Y-13436484D02*
X13266586Y-13436484D01*
X13266586Y-13436484D02*
X13285634Y-13446008D01*
X13285634Y-13446008D02*
X13295158Y-13455531D01*
X13295158Y-13455531D02*
X13304682Y-13474579D01*
X13304682Y-13474579D02*
X13314205Y-13512674D01*
X13314205Y-13512674D02*
X13314205Y-13560293D01*
X13314205Y-13560293D02*
X13304682Y-13598388D01*
X13304682Y-13598388D02*
X13295158Y-13617436D01*
X13295158Y-13617436D02*
X13285634Y-13626960D01*
X13285634Y-13626960D02*
X13266586Y-13636484D01*
X13266586Y-13636484D02*
X13247539Y-13636484D01*
X13247539Y-13636484D02*
X13228491Y-13626960D01*
X13228491Y-13626960D02*
X13218967Y-13617436D01*
X13218967Y-13617436D02*
X13209443Y-13598388D01*
X13209443Y-13598388D02*
X13199920Y-13560293D01*
X13199920Y-13560293D02*
X13199920Y-13512674D01*
X13199920Y-13512674D02*
X13209443Y-13474579D01*
X13209443Y-13474579D02*
X13218967Y-13455531D01*
X13218967Y-13455531D02*
X13228491Y-13446008D01*
X13228491Y-13446008D02*
X13247539Y-13436484D01*
X13399920Y-13636484D02*
X13399920Y-13503150D01*
X13399920Y-13522198D02*
X13409443Y-13512674D01*
X13409443Y-13512674D02*
X13428491Y-13503150D01*
X13428491Y-13503150D02*
X13457063Y-13503150D01*
X13457063Y-13503150D02*
X13476110Y-13512674D01*
X13476110Y-13512674D02*
X13485634Y-13531722D01*
X13485634Y-13531722D02*
X13485634Y-13636484D01*
X13485634Y-13531722D02*
X13495158Y-13512674D01*
X13495158Y-13512674D02*
X13514205Y-13503150D01*
X13514205Y-13503150D02*
X13542777Y-13503150D01*
X13542777Y-13503150D02*
X13561824Y-13512674D01*
X13561824Y-13512674D02*
X13571348Y-13531722D01*
X13571348Y-13531722D02*
X13571348Y-13636484D01*
X13666586Y-13636484D02*
X13666586Y-13503150D01*
X13666586Y-13522198D02*
X13676110Y-13512674D01*
X13676110Y-13512674D02*
X13695158Y-13503150D01*
X13695158Y-13503150D02*
X13723729Y-13503150D01*
X13723729Y-13503150D02*
X13742777Y-13512674D01*
X13742777Y-13512674D02*
X13752301Y-13531722D01*
X13752301Y-13531722D02*
X13752301Y-13636484D01*
X13752301Y-13531722D02*
X13761824Y-13512674D01*
X13761824Y-13512674D02*
X13780872Y-13503150D01*
X13780872Y-13503150D02*
X13809443Y-13503150D01*
X13809443Y-13503150D02*
X13828491Y-13512674D01*
X13828491Y-13512674D02*
X13838015Y-13531722D01*
X13838015Y-13531722D02*
X13838015Y-13636484D01*
X14228491Y-13426960D02*
X14057063Y-13684103D01*
X14485634Y-13436484D02*
X14504682Y-13436484D01*
X14504682Y-13436484D02*
X14523729Y-13446008D01*
X14523729Y-13446008D02*
X14533253Y-13455531D01*
X14533253Y-13455531D02*
X14542777Y-13474579D01*
X14542777Y-13474579D02*
X14552301Y-13512674D01*
X14552301Y-13512674D02*
X14552301Y-13560293D01*
X14552301Y-13560293D02*
X14542777Y-13598388D01*
X14542777Y-13598388D02*
X14533253Y-13617436D01*
X14533253Y-13617436D02*
X14523729Y-13626960D01*
X14523729Y-13626960D02*
X14504682Y-13636484D01*
X14504682Y-13636484D02*
X14485634Y-13636484D01*
X14485634Y-13636484D02*
X14466586Y-13626960D01*
X14466586Y-13626960D02*
X14457063Y-13617436D01*
X14457063Y-13617436D02*
X14447539Y-13598388D01*
X14447539Y-13598388D02*
X14438015Y-13560293D01*
X14438015Y-13560293D02*
X14438015Y-13512674D01*
X14438015Y-13512674D02*
X14447539Y-13474579D01*
X14447539Y-13474579D02*
X14457063Y-13455531D01*
X14457063Y-13455531D02*
X14466586Y-13446008D01*
X14466586Y-13446008D02*
X14485634Y-13436484D01*
X14638015Y-13617436D02*
X14647539Y-13626960D01*
X14647539Y-13626960D02*
X14638015Y-13636484D01*
X14638015Y-13636484D02*
X14628491Y-13626960D01*
X14628491Y-13626960D02*
X14638015Y-13617436D01*
X14638015Y-13617436D02*
X14638015Y-13636484D01*
X14771348Y-13436484D02*
X14790396Y-13436484D01*
X14790396Y-13436484D02*
X14809444Y-13446008D01*
X14809444Y-13446008D02*
X14818967Y-13455531D01*
X14818967Y-13455531D02*
X14828491Y-13474579D01*
X14828491Y-13474579D02*
X14838015Y-13512674D01*
X14838015Y-13512674D02*
X14838015Y-13560293D01*
X14838015Y-13560293D02*
X14828491Y-13598388D01*
X14828491Y-13598388D02*
X14818967Y-13617436D01*
X14818967Y-13617436D02*
X14809444Y-13626960D01*
X14809444Y-13626960D02*
X14790396Y-13636484D01*
X14790396Y-13636484D02*
X14771348Y-13636484D01*
X14771348Y-13636484D02*
X14752301Y-13626960D01*
X14752301Y-13626960D02*
X14742777Y-13617436D01*
X14742777Y-13617436D02*
X14733253Y-13598388D01*
X14733253Y-13598388D02*
X14723729Y-13560293D01*
X14723729Y-13560293D02*
X14723729Y-13512674D01*
X14723729Y-13512674D02*
X14733253Y-13474579D01*
X14733253Y-13474579D02*
X14742777Y-13455531D01*
X14742777Y-13455531D02*
X14752301Y-13446008D01*
X14752301Y-13446008D02*
X14771348Y-13436484D01*
X14914206Y-13455531D02*
X14923729Y-13446008D01*
X14923729Y-13446008D02*
X14942777Y-13436484D01*
X14942777Y-13436484D02*
X14990396Y-13436484D01*
X14990396Y-13436484D02*
X15009444Y-13446008D01*
X15009444Y-13446008D02*
X15018967Y-13455531D01*
X15018967Y-13455531D02*
X15028491Y-13474579D01*
X15028491Y-13474579D02*
X15028491Y-13493627D01*
X15028491Y-13493627D02*
X15018967Y-13522198D01*
X15018967Y-13522198D02*
X14904682Y-13636484D01*
X14904682Y-13636484D02*
X15028491Y-13636484D01*
X15095158Y-13436484D02*
X15218967Y-13436484D01*
X15218967Y-13436484D02*
X15152301Y-13512674D01*
X15152301Y-13512674D02*
X15180872Y-13512674D01*
X15180872Y-13512674D02*
X15199920Y-13522198D01*
X15199920Y-13522198D02*
X15209444Y-13531722D01*
X15209444Y-13531722D02*
X15218967Y-13550769D01*
X15218967Y-13550769D02*
X15218967Y-13598388D01*
X15218967Y-13598388D02*
X15209444Y-13617436D01*
X15209444Y-13617436D02*
X15199920Y-13626960D01*
X15199920Y-13626960D02*
X15180872Y-13636484D01*
X15180872Y-13636484D02*
X15123729Y-13636484D01*
X15123729Y-13636484D02*
X15104682Y-13626960D01*
X15104682Y-13626960D02*
X15095158Y-13617436D01*
X15390396Y-13436484D02*
X15352301Y-13436484D01*
X15352301Y-13436484D02*
X15333253Y-13446008D01*
X15333253Y-13446008D02*
X15323729Y-13455531D01*
X15323729Y-13455531D02*
X15304682Y-13484103D01*
X15304682Y-13484103D02*
X15295158Y-13522198D01*
X15295158Y-13522198D02*
X15295158Y-13598388D01*
X15295158Y-13598388D02*
X15304682Y-13617436D01*
X15304682Y-13617436D02*
X15314206Y-13626960D01*
X15314206Y-13626960D02*
X15333253Y-13636484D01*
X15333253Y-13636484D02*
X15371348Y-13636484D01*
X15371348Y-13636484D02*
X15390396Y-13626960D01*
X15390396Y-13626960D02*
X15399920Y-13617436D01*
X15399920Y-13617436D02*
X15409444Y-13598388D01*
X15409444Y-13598388D02*
X15409444Y-13550769D01*
X15409444Y-13550769D02*
X15399920Y-13531722D01*
X15399920Y-13531722D02*
X15390396Y-13522198D01*
X15390396Y-13522198D02*
X15371348Y-13512674D01*
X15371348Y-13512674D02*
X15333253Y-13512674D01*
X15333253Y-13512674D02*
X15314206Y-13522198D01*
X15314206Y-13522198D02*
X15304682Y-13531722D01*
X15304682Y-13531722D02*
X15295158Y-13550769D01*
X15485634Y-13436484D02*
X15485634Y-13474579D01*
X15561825Y-13436484D02*
X15561825Y-13474579D01*
X15857063Y-13712674D02*
X15847539Y-13703150D01*
X15847539Y-13703150D02*
X15828491Y-13674579D01*
X15828491Y-13674579D02*
X15818968Y-13655531D01*
X15818968Y-13655531D02*
X15809444Y-13626960D01*
X15809444Y-13626960D02*
X15799920Y-13579341D01*
X15799920Y-13579341D02*
X15799920Y-13541246D01*
X15799920Y-13541246D02*
X15809444Y-13493627D01*
X15809444Y-13493627D02*
X15818968Y-13465055D01*
X15818968Y-13465055D02*
X15828491Y-13446008D01*
X15828491Y-13446008D02*
X15847539Y-13417436D01*
X15847539Y-13417436D02*
X15857063Y-13407912D01*
X15971348Y-13436484D02*
X15990396Y-13436484D01*
X15990396Y-13436484D02*
X16009444Y-13446008D01*
X16009444Y-13446008D02*
X16018968Y-13455531D01*
X16018968Y-13455531D02*
X16028491Y-13474579D01*
X16028491Y-13474579D02*
X16038015Y-13512674D01*
X16038015Y-13512674D02*
X16038015Y-13560293D01*
X16038015Y-13560293D02*
X16028491Y-13598388D01*
X16028491Y-13598388D02*
X16018968Y-13617436D01*
X16018968Y-13617436D02*
X16009444Y-13626960D01*
X16009444Y-13626960D02*
X15990396Y-13636484D01*
X15990396Y-13636484D02*
X15971348Y-13636484D01*
X15971348Y-13636484D02*
X15952301Y-13626960D01*
X15952301Y-13626960D02*
X15942777Y-13617436D01*
X15942777Y-13617436D02*
X15933253Y-13598388D01*
X15933253Y-13598388D02*
X15923729Y-13560293D01*
X15923729Y-13560293D02*
X15923729Y-13512674D01*
X15923729Y-13512674D02*
X15933253Y-13474579D01*
X15933253Y-13474579D02*
X15942777Y-13455531D01*
X15942777Y-13455531D02*
X15952301Y-13446008D01*
X15952301Y-13446008D02*
X15971348Y-13436484D01*
X16276110Y-13636484D02*
X16276110Y-13436484D01*
X16361825Y-13636484D02*
X16361825Y-13531722D01*
X16361825Y-13531722D02*
X16352301Y-13512674D01*
X16352301Y-13512674D02*
X16333253Y-13503150D01*
X16333253Y-13503150D02*
X16304682Y-13503150D01*
X16304682Y-13503150D02*
X16285634Y-13512674D01*
X16285634Y-13512674D02*
X16276110Y-13522198D01*
X16485634Y-13636484D02*
X16466587Y-13626960D01*
X16466587Y-13626960D02*
X16457063Y-13617436D01*
X16457063Y-13617436D02*
X16447539Y-13598388D01*
X16447539Y-13598388D02*
X16447539Y-13541246D01*
X16447539Y-13541246D02*
X16457063Y-13522198D01*
X16457063Y-13522198D02*
X16466587Y-13512674D01*
X16466587Y-13512674D02*
X16485634Y-13503150D01*
X16485634Y-13503150D02*
X16514206Y-13503150D01*
X16514206Y-13503150D02*
X16533253Y-13512674D01*
X16533253Y-13512674D02*
X16542777Y-13522198D01*
X16542777Y-13522198D02*
X16552301Y-13541246D01*
X16552301Y-13541246D02*
X16552301Y-13598388D01*
X16552301Y-13598388D02*
X16542777Y-13617436D01*
X16542777Y-13617436D02*
X16533253Y-13626960D01*
X16533253Y-13626960D02*
X16514206Y-13636484D01*
X16514206Y-13636484D02*
X16485634Y-13636484D01*
X16666587Y-13636484D02*
X16647539Y-13626960D01*
X16647539Y-13626960D02*
X16638015Y-13607912D01*
X16638015Y-13607912D02*
X16638015Y-13436484D01*
X16818968Y-13626960D02*
X16799920Y-13636484D01*
X16799920Y-13636484D02*
X16761825Y-13636484D01*
X16761825Y-13636484D02*
X16742777Y-13626960D01*
X16742777Y-13626960D02*
X16733253Y-13607912D01*
X16733253Y-13607912D02*
X16733253Y-13531722D01*
X16733253Y-13531722D02*
X16742777Y-13512674D01*
X16742777Y-13512674D02*
X16761825Y-13503150D01*
X16761825Y-13503150D02*
X16799920Y-13503150D01*
X16799920Y-13503150D02*
X16818968Y-13512674D01*
X16818968Y-13512674D02*
X16828492Y-13531722D01*
X16828492Y-13531722D02*
X16828492Y-13550769D01*
X16828492Y-13550769D02*
X16733253Y-13569817D01*
X16904682Y-13626960D02*
X16923730Y-13636484D01*
X16923730Y-13636484D02*
X16961825Y-13636484D01*
X16961825Y-13636484D02*
X16980873Y-13626960D01*
X16980873Y-13626960D02*
X16990396Y-13607912D01*
X16990396Y-13607912D02*
X16990396Y-13598388D01*
X16990396Y-13598388D02*
X16980873Y-13579341D01*
X16980873Y-13579341D02*
X16961825Y-13569817D01*
X16961825Y-13569817D02*
X16933253Y-13569817D01*
X16933253Y-13569817D02*
X16914206Y-13560293D01*
X16914206Y-13560293D02*
X16904682Y-13541246D01*
X16904682Y-13541246D02*
X16904682Y-13531722D01*
X16904682Y-13531722D02*
X16914206Y-13512674D01*
X16914206Y-13512674D02*
X16933253Y-13503150D01*
X16933253Y-13503150D02*
X16961825Y-13503150D01*
X16961825Y-13503150D02*
X16980873Y-13512674D01*
X17228492Y-13560293D02*
X17380873Y-13560293D01*
X17304682Y-13636484D02*
X17304682Y-13484103D01*
X17714206Y-13503150D02*
X17714206Y-13636484D01*
X17666587Y-13426960D02*
X17618968Y-13569817D01*
X17618968Y-13569817D02*
X17742777Y-13569817D01*
X17961825Y-13626960D02*
X17980873Y-13636484D01*
X17980873Y-13636484D02*
X18018968Y-13636484D01*
X18018968Y-13636484D02*
X18038016Y-13626960D01*
X18038016Y-13626960D02*
X18047539Y-13607912D01*
X18047539Y-13607912D02*
X18047539Y-13598388D01*
X18047539Y-13598388D02*
X18038016Y-13579341D01*
X18038016Y-13579341D02*
X18018968Y-13569817D01*
X18018968Y-13569817D02*
X17990396Y-13569817D01*
X17990396Y-13569817D02*
X17971349Y-13560293D01*
X17971349Y-13560293D02*
X17961825Y-13541246D01*
X17961825Y-13541246D02*
X17961825Y-13531722D01*
X17961825Y-13531722D02*
X17971349Y-13512674D01*
X17971349Y-13512674D02*
X17990396Y-13503150D01*
X17990396Y-13503150D02*
X18018968Y-13503150D01*
X18018968Y-13503150D02*
X18038016Y-13512674D01*
X18161825Y-13636484D02*
X18142777Y-13626960D01*
X18142777Y-13626960D02*
X18133254Y-13607912D01*
X18133254Y-13607912D02*
X18133254Y-13436484D01*
X18266587Y-13636484D02*
X18247539Y-13626960D01*
X18247539Y-13626960D02*
X18238016Y-13617436D01*
X18238016Y-13617436D02*
X18228492Y-13598388D01*
X18228492Y-13598388D02*
X18228492Y-13541246D01*
X18228492Y-13541246D02*
X18238016Y-13522198D01*
X18238016Y-13522198D02*
X18247539Y-13512674D01*
X18247539Y-13512674D02*
X18266587Y-13503150D01*
X18266587Y-13503150D02*
X18295158Y-13503150D01*
X18295158Y-13503150D02*
X18314206Y-13512674D01*
X18314206Y-13512674D02*
X18323730Y-13522198D01*
X18323730Y-13522198D02*
X18333254Y-13541246D01*
X18333254Y-13541246D02*
X18333254Y-13598388D01*
X18333254Y-13598388D02*
X18323730Y-13617436D01*
X18323730Y-13617436D02*
X18314206Y-13626960D01*
X18314206Y-13626960D02*
X18295158Y-13636484D01*
X18295158Y-13636484D02*
X18266587Y-13636484D01*
X18390397Y-13503150D02*
X18466587Y-13503150D01*
X18418968Y-13436484D02*
X18418968Y-13607912D01*
X18418968Y-13607912D02*
X18428492Y-13626960D01*
X18428492Y-13626960D02*
X18447539Y-13636484D01*
X18447539Y-13636484D02*
X18466587Y-13636484D01*
X18523730Y-13626960D02*
X18542777Y-13636484D01*
X18542777Y-13636484D02*
X18580873Y-13636484D01*
X18580873Y-13636484D02*
X18599920Y-13626960D01*
X18599920Y-13626960D02*
X18609444Y-13607912D01*
X18609444Y-13607912D02*
X18609444Y-13598388D01*
X18609444Y-13598388D02*
X18599920Y-13579341D01*
X18599920Y-13579341D02*
X18580873Y-13569817D01*
X18580873Y-13569817D02*
X18552301Y-13569817D01*
X18552301Y-13569817D02*
X18533254Y-13560293D01*
X18533254Y-13560293D02*
X18523730Y-13541246D01*
X18523730Y-13541246D02*
X18523730Y-13531722D01*
X18523730Y-13531722D02*
X18533254Y-13512674D01*
X18533254Y-13512674D02*
X18552301Y-13503150D01*
X18552301Y-13503150D02*
X18580873Y-13503150D01*
X18580873Y-13503150D02*
X18599920Y-13512674D01*
X18676111Y-13712674D02*
X18685635Y-13703150D01*
X18685635Y-13703150D02*
X18704682Y-13674579D01*
X18704682Y-13674579D02*
X18714206Y-13655531D01*
X18714206Y-13655531D02*
X18723730Y-13626960D01*
X18723730Y-13626960D02*
X18733254Y-13579341D01*
X18733254Y-13579341D02*
X18733254Y-13541246D01*
X18733254Y-13541246D02*
X18723730Y-13493627D01*
X18723730Y-13493627D02*
X18714206Y-13465055D01*
X18714206Y-13465055D02*
X18704682Y-13446008D01*
X18704682Y-13446008D02*
X18685635Y-13417436D01*
X18685635Y-13417436D02*
X18676111Y-13407912D01*
D10*
X12202000Y-13769000D02*
X12282000Y-13849000D01*
X12282000Y-13769000D02*
X12202000Y-13849000D01*
X12282000Y-13809000D02*
G75*
G02*
X12202000Y-13809000I-40000J0D01*
G01*
X12202000Y-13809000D02*
G75*
G02*
X12282000Y-13809000I40000J0D01*
G01*
D11*
X12580872Y-13700484D02*
X12599920Y-13700484D01*
X12599920Y-13700484D02*
X12618967Y-13710008D01*
X12618967Y-13710008D02*
X12628491Y-13719531D01*
X12628491Y-13719531D02*
X12638015Y-13738579D01*
X12638015Y-13738579D02*
X12647539Y-13776674D01*
X12647539Y-13776674D02*
X12647539Y-13824293D01*
X12647539Y-13824293D02*
X12638015Y-13862388D01*
X12638015Y-13862388D02*
X12628491Y-13881436D01*
X12628491Y-13881436D02*
X12618967Y-13890960D01*
X12618967Y-13890960D02*
X12599920Y-13900484D01*
X12599920Y-13900484D02*
X12580872Y-13900484D01*
X12580872Y-13900484D02*
X12561824Y-13890960D01*
X12561824Y-13890960D02*
X12552301Y-13881436D01*
X12552301Y-13881436D02*
X12542777Y-13862388D01*
X12542777Y-13862388D02*
X12533253Y-13824293D01*
X12533253Y-13824293D02*
X12533253Y-13776674D01*
X12533253Y-13776674D02*
X12542777Y-13738579D01*
X12542777Y-13738579D02*
X12552301Y-13719531D01*
X12552301Y-13719531D02*
X12561824Y-13710008D01*
X12561824Y-13710008D02*
X12580872Y-13700484D01*
X12733253Y-13881436D02*
X12742777Y-13890960D01*
X12742777Y-13890960D02*
X12733253Y-13900484D01*
X12733253Y-13900484D02*
X12723729Y-13890960D01*
X12723729Y-13890960D02*
X12733253Y-13881436D01*
X12733253Y-13881436D02*
X12733253Y-13900484D01*
X12857062Y-13786198D02*
X12838015Y-13776674D01*
X12838015Y-13776674D02*
X12828491Y-13767150D01*
X12828491Y-13767150D02*
X12818967Y-13748103D01*
X12818967Y-13748103D02*
X12818967Y-13738579D01*
X12818967Y-13738579D02*
X12828491Y-13719531D01*
X12828491Y-13719531D02*
X12838015Y-13710008D01*
X12838015Y-13710008D02*
X12857062Y-13700484D01*
X12857062Y-13700484D02*
X12895158Y-13700484D01*
X12895158Y-13700484D02*
X12914205Y-13710008D01*
X12914205Y-13710008D02*
X12923729Y-13719531D01*
X12923729Y-13719531D02*
X12933253Y-13738579D01*
X12933253Y-13738579D02*
X12933253Y-13748103D01*
X12933253Y-13748103D02*
X12923729Y-13767150D01*
X12923729Y-13767150D02*
X12914205Y-13776674D01*
X12914205Y-13776674D02*
X12895158Y-13786198D01*
X12895158Y-13786198D02*
X12857062Y-13786198D01*
X12857062Y-13786198D02*
X12838015Y-13795722D01*
X12838015Y-13795722D02*
X12828491Y-13805246D01*
X12828491Y-13805246D02*
X12818967Y-13824293D01*
X12818967Y-13824293D02*
X12818967Y-13862388D01*
X12818967Y-13862388D02*
X12828491Y-13881436D01*
X12828491Y-13881436D02*
X12838015Y-13890960D01*
X12838015Y-13890960D02*
X12857062Y-13900484D01*
X12857062Y-13900484D02*
X12895158Y-13900484D01*
X12895158Y-13900484D02*
X12914205Y-13890960D01*
X12914205Y-13890960D02*
X12923729Y-13881436D01*
X12923729Y-13881436D02*
X12933253Y-13862388D01*
X12933253Y-13862388D02*
X12933253Y-13824293D01*
X12933253Y-13824293D02*
X12923729Y-13805246D01*
X12923729Y-13805246D02*
X12914205Y-13795722D01*
X12914205Y-13795722D02*
X12895158Y-13786198D01*
X13057062Y-13700484D02*
X13076110Y-13700484D01*
X13076110Y-13700484D02*
X13095158Y-13710008D01*
X13095158Y-13710008D02*
X13104682Y-13719531D01*
X13104682Y-13719531D02*
X13114205Y-13738579D01*
X13114205Y-13738579D02*
X13123729Y-13776674D01*
X13123729Y-13776674D02*
X13123729Y-13824293D01*
X13123729Y-13824293D02*
X13114205Y-13862388D01*
X13114205Y-13862388D02*
X13104682Y-13881436D01*
X13104682Y-13881436D02*
X13095158Y-13890960D01*
X13095158Y-13890960D02*
X13076110Y-13900484D01*
X13076110Y-13900484D02*
X13057062Y-13900484D01*
X13057062Y-13900484D02*
X13038015Y-13890960D01*
X13038015Y-13890960D02*
X13028491Y-13881436D01*
X13028491Y-13881436D02*
X13018967Y-13862388D01*
X13018967Y-13862388D02*
X13009443Y-13824293D01*
X13009443Y-13824293D02*
X13009443Y-13776674D01*
X13009443Y-13776674D02*
X13018967Y-13738579D01*
X13018967Y-13738579D02*
X13028491Y-13719531D01*
X13028491Y-13719531D02*
X13038015Y-13710008D01*
X13038015Y-13710008D02*
X13057062Y-13700484D01*
X13247539Y-13700484D02*
X13266586Y-13700484D01*
X13266586Y-13700484D02*
X13285634Y-13710008D01*
X13285634Y-13710008D02*
X13295158Y-13719531D01*
X13295158Y-13719531D02*
X13304682Y-13738579D01*
X13304682Y-13738579D02*
X13314205Y-13776674D01*
X13314205Y-13776674D02*
X13314205Y-13824293D01*
X13314205Y-13824293D02*
X13304682Y-13862388D01*
X13304682Y-13862388D02*
X13295158Y-13881436D01*
X13295158Y-13881436D02*
X13285634Y-13890960D01*
X13285634Y-13890960D02*
X13266586Y-13900484D01*
X13266586Y-13900484D02*
X13247539Y-13900484D01*
X13247539Y-13900484D02*
X13228491Y-13890960D01*
X13228491Y-13890960D02*
X13218967Y-13881436D01*
X13218967Y-13881436D02*
X13209443Y-13862388D01*
X13209443Y-13862388D02*
X13199920Y-13824293D01*
X13199920Y-13824293D02*
X13199920Y-13776674D01*
X13199920Y-13776674D02*
X13209443Y-13738579D01*
X13209443Y-13738579D02*
X13218967Y-13719531D01*
X13218967Y-13719531D02*
X13228491Y-13710008D01*
X13228491Y-13710008D02*
X13247539Y-13700484D01*
X13399920Y-13900484D02*
X13399920Y-13767150D01*
X13399920Y-13786198D02*
X13409443Y-13776674D01*
X13409443Y-13776674D02*
X13428491Y-13767150D01*
X13428491Y-13767150D02*
X13457063Y-13767150D01*
X13457063Y-13767150D02*
X13476110Y-13776674D01*
X13476110Y-13776674D02*
X13485634Y-13795722D01*
X13485634Y-13795722D02*
X13485634Y-13900484D01*
X13485634Y-13795722D02*
X13495158Y-13776674D01*
X13495158Y-13776674D02*
X13514205Y-13767150D01*
X13514205Y-13767150D02*
X13542777Y-13767150D01*
X13542777Y-13767150D02*
X13561824Y-13776674D01*
X13561824Y-13776674D02*
X13571348Y-13795722D01*
X13571348Y-13795722D02*
X13571348Y-13900484D01*
X13666586Y-13900484D02*
X13666586Y-13767150D01*
X13666586Y-13786198D02*
X13676110Y-13776674D01*
X13676110Y-13776674D02*
X13695158Y-13767150D01*
X13695158Y-13767150D02*
X13723729Y-13767150D01*
X13723729Y-13767150D02*
X13742777Y-13776674D01*
X13742777Y-13776674D02*
X13752301Y-13795722D01*
X13752301Y-13795722D02*
X13752301Y-13900484D01*
X13752301Y-13795722D02*
X13761824Y-13776674D01*
X13761824Y-13776674D02*
X13780872Y-13767150D01*
X13780872Y-13767150D02*
X13809443Y-13767150D01*
X13809443Y-13767150D02*
X13828491Y-13776674D01*
X13828491Y-13776674D02*
X13838015Y-13795722D01*
X13838015Y-13795722D02*
X13838015Y-13900484D01*
X14228491Y-13690960D02*
X14057063Y-13948103D01*
X14485634Y-13700484D02*
X14504682Y-13700484D01*
X14504682Y-13700484D02*
X14523729Y-13710008D01*
X14523729Y-13710008D02*
X14533253Y-13719531D01*
X14533253Y-13719531D02*
X14542777Y-13738579D01*
X14542777Y-13738579D02*
X14552301Y-13776674D01*
X14552301Y-13776674D02*
X14552301Y-13824293D01*
X14552301Y-13824293D02*
X14542777Y-13862388D01*
X14542777Y-13862388D02*
X14533253Y-13881436D01*
X14533253Y-13881436D02*
X14523729Y-13890960D01*
X14523729Y-13890960D02*
X14504682Y-13900484D01*
X14504682Y-13900484D02*
X14485634Y-13900484D01*
X14485634Y-13900484D02*
X14466586Y-13890960D01*
X14466586Y-13890960D02*
X14457063Y-13881436D01*
X14457063Y-13881436D02*
X14447539Y-13862388D01*
X14447539Y-13862388D02*
X14438015Y-13824293D01*
X14438015Y-13824293D02*
X14438015Y-13776674D01*
X14438015Y-13776674D02*
X14447539Y-13738579D01*
X14447539Y-13738579D02*
X14457063Y-13719531D01*
X14457063Y-13719531D02*
X14466586Y-13710008D01*
X14466586Y-13710008D02*
X14485634Y-13700484D01*
X14638015Y-13881436D02*
X14647539Y-13890960D01*
X14647539Y-13890960D02*
X14638015Y-13900484D01*
X14638015Y-13900484D02*
X14628491Y-13890960D01*
X14628491Y-13890960D02*
X14638015Y-13881436D01*
X14638015Y-13881436D02*
X14638015Y-13900484D01*
X14771348Y-13700484D02*
X14790396Y-13700484D01*
X14790396Y-13700484D02*
X14809444Y-13710008D01*
X14809444Y-13710008D02*
X14818967Y-13719531D01*
X14818967Y-13719531D02*
X14828491Y-13738579D01*
X14828491Y-13738579D02*
X14838015Y-13776674D01*
X14838015Y-13776674D02*
X14838015Y-13824293D01*
X14838015Y-13824293D02*
X14828491Y-13862388D01*
X14828491Y-13862388D02*
X14818967Y-13881436D01*
X14818967Y-13881436D02*
X14809444Y-13890960D01*
X14809444Y-13890960D02*
X14790396Y-13900484D01*
X14790396Y-13900484D02*
X14771348Y-13900484D01*
X14771348Y-13900484D02*
X14752301Y-13890960D01*
X14752301Y-13890960D02*
X14742777Y-13881436D01*
X14742777Y-13881436D02*
X14733253Y-13862388D01*
X14733253Y-13862388D02*
X14723729Y-13824293D01*
X14723729Y-13824293D02*
X14723729Y-13776674D01*
X14723729Y-13776674D02*
X14733253Y-13738579D01*
X14733253Y-13738579D02*
X14742777Y-13719531D01*
X14742777Y-13719531D02*
X14752301Y-13710008D01*
X14752301Y-13710008D02*
X14771348Y-13700484D01*
X14904682Y-13700484D02*
X15028491Y-13700484D01*
X15028491Y-13700484D02*
X14961825Y-13776674D01*
X14961825Y-13776674D02*
X14990396Y-13776674D01*
X14990396Y-13776674D02*
X15009444Y-13786198D01*
X15009444Y-13786198D02*
X15018967Y-13795722D01*
X15018967Y-13795722D02*
X15028491Y-13814769D01*
X15028491Y-13814769D02*
X15028491Y-13862388D01*
X15028491Y-13862388D02*
X15018967Y-13881436D01*
X15018967Y-13881436D02*
X15009444Y-13890960D01*
X15009444Y-13890960D02*
X14990396Y-13900484D01*
X14990396Y-13900484D02*
X14933253Y-13900484D01*
X14933253Y-13900484D02*
X14914206Y-13890960D01*
X14914206Y-13890960D02*
X14904682Y-13881436D01*
X15218967Y-13900484D02*
X15104682Y-13900484D01*
X15161825Y-13900484D02*
X15161825Y-13700484D01*
X15161825Y-13700484D02*
X15142777Y-13729055D01*
X15142777Y-13729055D02*
X15123729Y-13748103D01*
X15123729Y-13748103D02*
X15104682Y-13757627D01*
X15399920Y-13700484D02*
X15304682Y-13700484D01*
X15304682Y-13700484D02*
X15295158Y-13795722D01*
X15295158Y-13795722D02*
X15304682Y-13786198D01*
X15304682Y-13786198D02*
X15323729Y-13776674D01*
X15323729Y-13776674D02*
X15371348Y-13776674D01*
X15371348Y-13776674D02*
X15390396Y-13786198D01*
X15390396Y-13786198D02*
X15399920Y-13795722D01*
X15399920Y-13795722D02*
X15409444Y-13814769D01*
X15409444Y-13814769D02*
X15409444Y-13862388D01*
X15409444Y-13862388D02*
X15399920Y-13881436D01*
X15399920Y-13881436D02*
X15390396Y-13890960D01*
X15390396Y-13890960D02*
X15371348Y-13900484D01*
X15371348Y-13900484D02*
X15323729Y-13900484D01*
X15323729Y-13900484D02*
X15304682Y-13890960D01*
X15304682Y-13890960D02*
X15295158Y-13881436D01*
X15485634Y-13700484D02*
X15485634Y-13738579D01*
X15561825Y-13700484D02*
X15561825Y-13738579D01*
X15857063Y-13976674D02*
X15847539Y-13967150D01*
X15847539Y-13967150D02*
X15828491Y-13938579D01*
X15828491Y-13938579D02*
X15818968Y-13919531D01*
X15818968Y-13919531D02*
X15809444Y-13890960D01*
X15809444Y-13890960D02*
X15799920Y-13843341D01*
X15799920Y-13843341D02*
X15799920Y-13805246D01*
X15799920Y-13805246D02*
X15809444Y-13757627D01*
X15809444Y-13757627D02*
X15818968Y-13729055D01*
X15818968Y-13729055D02*
X15828491Y-13710008D01*
X15828491Y-13710008D02*
X15847539Y-13681436D01*
X15847539Y-13681436D02*
X15857063Y-13671912D01*
X15914206Y-13700484D02*
X16047539Y-13700484D01*
X16047539Y-13700484D02*
X15961825Y-13900484D01*
X16276110Y-13900484D02*
X16276110Y-13700484D01*
X16361825Y-13900484D02*
X16361825Y-13795722D01*
X16361825Y-13795722D02*
X16352301Y-13776674D01*
X16352301Y-13776674D02*
X16333253Y-13767150D01*
X16333253Y-13767150D02*
X16304682Y-13767150D01*
X16304682Y-13767150D02*
X16285634Y-13776674D01*
X16285634Y-13776674D02*
X16276110Y-13786198D01*
X16485634Y-13900484D02*
X16466587Y-13890960D01*
X16466587Y-13890960D02*
X16457063Y-13881436D01*
X16457063Y-13881436D02*
X16447539Y-13862388D01*
X16447539Y-13862388D02*
X16447539Y-13805246D01*
X16447539Y-13805246D02*
X16457063Y-13786198D01*
X16457063Y-13786198D02*
X16466587Y-13776674D01*
X16466587Y-13776674D02*
X16485634Y-13767150D01*
X16485634Y-13767150D02*
X16514206Y-13767150D01*
X16514206Y-13767150D02*
X16533253Y-13776674D01*
X16533253Y-13776674D02*
X16542777Y-13786198D01*
X16542777Y-13786198D02*
X16552301Y-13805246D01*
X16552301Y-13805246D02*
X16552301Y-13862388D01*
X16552301Y-13862388D02*
X16542777Y-13881436D01*
X16542777Y-13881436D02*
X16533253Y-13890960D01*
X16533253Y-13890960D02*
X16514206Y-13900484D01*
X16514206Y-13900484D02*
X16485634Y-13900484D01*
X16666587Y-13900484D02*
X16647539Y-13890960D01*
X16647539Y-13890960D02*
X16638015Y-13871912D01*
X16638015Y-13871912D02*
X16638015Y-13700484D01*
X16818968Y-13890960D02*
X16799920Y-13900484D01*
X16799920Y-13900484D02*
X16761825Y-13900484D01*
X16761825Y-13900484D02*
X16742777Y-13890960D01*
X16742777Y-13890960D02*
X16733253Y-13871912D01*
X16733253Y-13871912D02*
X16733253Y-13795722D01*
X16733253Y-13795722D02*
X16742777Y-13776674D01*
X16742777Y-13776674D02*
X16761825Y-13767150D01*
X16761825Y-13767150D02*
X16799920Y-13767150D01*
X16799920Y-13767150D02*
X16818968Y-13776674D01*
X16818968Y-13776674D02*
X16828492Y-13795722D01*
X16828492Y-13795722D02*
X16828492Y-13814769D01*
X16828492Y-13814769D02*
X16733253Y-13833817D01*
X16904682Y-13890960D02*
X16923730Y-13900484D01*
X16923730Y-13900484D02*
X16961825Y-13900484D01*
X16961825Y-13900484D02*
X16980873Y-13890960D01*
X16980873Y-13890960D02*
X16990396Y-13871912D01*
X16990396Y-13871912D02*
X16990396Y-13862388D01*
X16990396Y-13862388D02*
X16980873Y-13843341D01*
X16980873Y-13843341D02*
X16961825Y-13833817D01*
X16961825Y-13833817D02*
X16933253Y-13833817D01*
X16933253Y-13833817D02*
X16914206Y-13824293D01*
X16914206Y-13824293D02*
X16904682Y-13805246D01*
X16904682Y-13805246D02*
X16904682Y-13795722D01*
X16904682Y-13795722D02*
X16914206Y-13776674D01*
X16914206Y-13776674D02*
X16933253Y-13767150D01*
X16933253Y-13767150D02*
X16961825Y-13767150D01*
X16961825Y-13767150D02*
X16980873Y-13776674D01*
X17057063Y-13976674D02*
X17066587Y-13967150D01*
X17066587Y-13967150D02*
X17085634Y-13938579D01*
X17085634Y-13938579D02*
X17095158Y-13919531D01*
X17095158Y-13919531D02*
X17104682Y-13890960D01*
X17104682Y-13890960D02*
X17114206Y-13843341D01*
X17114206Y-13843341D02*
X17114206Y-13805246D01*
X17114206Y-13805246D02*
X17104682Y-13757627D01*
X17104682Y-13757627D02*
X17095158Y-13729055D01*
X17095158Y-13729055D02*
X17085634Y-13710008D01*
X17085634Y-13710008D02*
X17066587Y-13681436D01*
X17066587Y-13681436D02*
X17057063Y-13671912D01*
D10*
X12187000Y-14025500D02*
X12282000Y-14120500D01*
X12282000Y-14025500D02*
X12187000Y-14120500D01*
X12234500Y-14025500D02*
X12234500Y-14120500D01*
X12187000Y-14073000D02*
X12282000Y-14073000D01*
D11*
X12580872Y-13964484D02*
X12599920Y-13964484D01*
X12599920Y-13964484D02*
X12618967Y-13974008D01*
X12618967Y-13974008D02*
X12628491Y-13983531D01*
X12628491Y-13983531D02*
X12638015Y-14002579D01*
X12638015Y-14002579D02*
X12647539Y-14040674D01*
X12647539Y-14040674D02*
X12647539Y-14088293D01*
X12647539Y-14088293D02*
X12638015Y-14126388D01*
X12638015Y-14126388D02*
X12628491Y-14145436D01*
X12628491Y-14145436D02*
X12618967Y-14154960D01*
X12618967Y-14154960D02*
X12599920Y-14164484D01*
X12599920Y-14164484D02*
X12580872Y-14164484D01*
X12580872Y-14164484D02*
X12561824Y-14154960D01*
X12561824Y-14154960D02*
X12552301Y-14145436D01*
X12552301Y-14145436D02*
X12542777Y-14126388D01*
X12542777Y-14126388D02*
X12533253Y-14088293D01*
X12533253Y-14088293D02*
X12533253Y-14040674D01*
X12533253Y-14040674D02*
X12542777Y-14002579D01*
X12542777Y-14002579D02*
X12552301Y-13983531D01*
X12552301Y-13983531D02*
X12561824Y-13974008D01*
X12561824Y-13974008D02*
X12580872Y-13964484D01*
X12733253Y-14145436D02*
X12742777Y-14154960D01*
X12742777Y-14154960D02*
X12733253Y-14164484D01*
X12733253Y-14164484D02*
X12723729Y-14154960D01*
X12723729Y-14154960D02*
X12733253Y-14145436D01*
X12733253Y-14145436D02*
X12733253Y-14164484D01*
X12838015Y-14164484D02*
X12876110Y-14164484D01*
X12876110Y-14164484D02*
X12895158Y-14154960D01*
X12895158Y-14154960D02*
X12904682Y-14145436D01*
X12904682Y-14145436D02*
X12923729Y-14116865D01*
X12923729Y-14116865D02*
X12933253Y-14078769D01*
X12933253Y-14078769D02*
X12933253Y-14002579D01*
X12933253Y-14002579D02*
X12923729Y-13983531D01*
X12923729Y-13983531D02*
X12914205Y-13974008D01*
X12914205Y-13974008D02*
X12895158Y-13964484D01*
X12895158Y-13964484D02*
X12857062Y-13964484D01*
X12857062Y-13964484D02*
X12838015Y-13974008D01*
X12838015Y-13974008D02*
X12828491Y-13983531D01*
X12828491Y-13983531D02*
X12818967Y-14002579D01*
X12818967Y-14002579D02*
X12818967Y-14050198D01*
X12818967Y-14050198D02*
X12828491Y-14069246D01*
X12828491Y-14069246D02*
X12838015Y-14078769D01*
X12838015Y-14078769D02*
X12857062Y-14088293D01*
X12857062Y-14088293D02*
X12895158Y-14088293D01*
X12895158Y-14088293D02*
X12914205Y-14078769D01*
X12914205Y-14078769D02*
X12923729Y-14069246D01*
X12923729Y-14069246D02*
X12933253Y-14050198D01*
X13114205Y-13964484D02*
X13018967Y-13964484D01*
X13018967Y-13964484D02*
X13009443Y-14059722D01*
X13009443Y-14059722D02*
X13018967Y-14050198D01*
X13018967Y-14050198D02*
X13038015Y-14040674D01*
X13038015Y-14040674D02*
X13085634Y-14040674D01*
X13085634Y-14040674D02*
X13104682Y-14050198D01*
X13104682Y-14050198D02*
X13114205Y-14059722D01*
X13114205Y-14059722D02*
X13123729Y-14078769D01*
X13123729Y-14078769D02*
X13123729Y-14126388D01*
X13123729Y-14126388D02*
X13114205Y-14145436D01*
X13114205Y-14145436D02*
X13104682Y-14154960D01*
X13104682Y-14154960D02*
X13085634Y-14164484D01*
X13085634Y-14164484D02*
X13038015Y-14164484D01*
X13038015Y-14164484D02*
X13018967Y-14154960D01*
X13018967Y-14154960D02*
X13009443Y-14145436D01*
X13247539Y-13964484D02*
X13266586Y-13964484D01*
X13266586Y-13964484D02*
X13285634Y-13974008D01*
X13285634Y-13974008D02*
X13295158Y-13983531D01*
X13295158Y-13983531D02*
X13304682Y-14002579D01*
X13304682Y-14002579D02*
X13314205Y-14040674D01*
X13314205Y-14040674D02*
X13314205Y-14088293D01*
X13314205Y-14088293D02*
X13304682Y-14126388D01*
X13304682Y-14126388D02*
X13295158Y-14145436D01*
X13295158Y-14145436D02*
X13285634Y-14154960D01*
X13285634Y-14154960D02*
X13266586Y-14164484D01*
X13266586Y-14164484D02*
X13247539Y-14164484D01*
X13247539Y-14164484D02*
X13228491Y-14154960D01*
X13228491Y-14154960D02*
X13218967Y-14145436D01*
X13218967Y-14145436D02*
X13209443Y-14126388D01*
X13209443Y-14126388D02*
X13199920Y-14088293D01*
X13199920Y-14088293D02*
X13199920Y-14040674D01*
X13199920Y-14040674D02*
X13209443Y-14002579D01*
X13209443Y-14002579D02*
X13218967Y-13983531D01*
X13218967Y-13983531D02*
X13228491Y-13974008D01*
X13228491Y-13974008D02*
X13247539Y-13964484D01*
X13399920Y-14164484D02*
X13399920Y-14031150D01*
X13399920Y-14050198D02*
X13409443Y-14040674D01*
X13409443Y-14040674D02*
X13428491Y-14031150D01*
X13428491Y-14031150D02*
X13457063Y-14031150D01*
X13457063Y-14031150D02*
X13476110Y-14040674D01*
X13476110Y-14040674D02*
X13485634Y-14059722D01*
X13485634Y-14059722D02*
X13485634Y-14164484D01*
X13485634Y-14059722D02*
X13495158Y-14040674D01*
X13495158Y-14040674D02*
X13514205Y-14031150D01*
X13514205Y-14031150D02*
X13542777Y-14031150D01*
X13542777Y-14031150D02*
X13561824Y-14040674D01*
X13561824Y-14040674D02*
X13571348Y-14059722D01*
X13571348Y-14059722D02*
X13571348Y-14164484D01*
X13666586Y-14164484D02*
X13666586Y-14031150D01*
X13666586Y-14050198D02*
X13676110Y-14040674D01*
X13676110Y-14040674D02*
X13695158Y-14031150D01*
X13695158Y-14031150D02*
X13723729Y-14031150D01*
X13723729Y-14031150D02*
X13742777Y-14040674D01*
X13742777Y-14040674D02*
X13752301Y-14059722D01*
X13752301Y-14059722D02*
X13752301Y-14164484D01*
X13752301Y-14059722D02*
X13761824Y-14040674D01*
X13761824Y-14040674D02*
X13780872Y-14031150D01*
X13780872Y-14031150D02*
X13809443Y-14031150D01*
X13809443Y-14031150D02*
X13828491Y-14040674D01*
X13828491Y-14040674D02*
X13838015Y-14059722D01*
X13838015Y-14059722D02*
X13838015Y-14164484D01*
X14228491Y-13954960D02*
X14057063Y-14212103D01*
X14485634Y-13964484D02*
X14504682Y-13964484D01*
X14504682Y-13964484D02*
X14523729Y-13974008D01*
X14523729Y-13974008D02*
X14533253Y-13983531D01*
X14533253Y-13983531D02*
X14542777Y-14002579D01*
X14542777Y-14002579D02*
X14552301Y-14040674D01*
X14552301Y-14040674D02*
X14552301Y-14088293D01*
X14552301Y-14088293D02*
X14542777Y-14126388D01*
X14542777Y-14126388D02*
X14533253Y-14145436D01*
X14533253Y-14145436D02*
X14523729Y-14154960D01*
X14523729Y-14154960D02*
X14504682Y-14164484D01*
X14504682Y-14164484D02*
X14485634Y-14164484D01*
X14485634Y-14164484D02*
X14466586Y-14154960D01*
X14466586Y-14154960D02*
X14457063Y-14145436D01*
X14457063Y-14145436D02*
X14447539Y-14126388D01*
X14447539Y-14126388D02*
X14438015Y-14088293D01*
X14438015Y-14088293D02*
X14438015Y-14040674D01*
X14438015Y-14040674D02*
X14447539Y-14002579D01*
X14447539Y-14002579D02*
X14457063Y-13983531D01*
X14457063Y-13983531D02*
X14466586Y-13974008D01*
X14466586Y-13974008D02*
X14485634Y-13964484D01*
X14638015Y-14145436D02*
X14647539Y-14154960D01*
X14647539Y-14154960D02*
X14638015Y-14164484D01*
X14638015Y-14164484D02*
X14628491Y-14154960D01*
X14628491Y-14154960D02*
X14638015Y-14145436D01*
X14638015Y-14145436D02*
X14638015Y-14164484D01*
X14771348Y-13964484D02*
X14790396Y-13964484D01*
X14790396Y-13964484D02*
X14809444Y-13974008D01*
X14809444Y-13974008D02*
X14818967Y-13983531D01*
X14818967Y-13983531D02*
X14828491Y-14002579D01*
X14828491Y-14002579D02*
X14838015Y-14040674D01*
X14838015Y-14040674D02*
X14838015Y-14088293D01*
X14838015Y-14088293D02*
X14828491Y-14126388D01*
X14828491Y-14126388D02*
X14818967Y-14145436D01*
X14818967Y-14145436D02*
X14809444Y-14154960D01*
X14809444Y-14154960D02*
X14790396Y-14164484D01*
X14790396Y-14164484D02*
X14771348Y-14164484D01*
X14771348Y-14164484D02*
X14752301Y-14154960D01*
X14752301Y-14154960D02*
X14742777Y-14145436D01*
X14742777Y-14145436D02*
X14733253Y-14126388D01*
X14733253Y-14126388D02*
X14723729Y-14088293D01*
X14723729Y-14088293D02*
X14723729Y-14040674D01*
X14723729Y-14040674D02*
X14733253Y-14002579D01*
X14733253Y-14002579D02*
X14742777Y-13983531D01*
X14742777Y-13983531D02*
X14752301Y-13974008D01*
X14752301Y-13974008D02*
X14771348Y-13964484D01*
X14904682Y-13964484D02*
X15028491Y-13964484D01*
X15028491Y-13964484D02*
X14961825Y-14040674D01*
X14961825Y-14040674D02*
X14990396Y-14040674D01*
X14990396Y-14040674D02*
X15009444Y-14050198D01*
X15009444Y-14050198D02*
X15018967Y-14059722D01*
X15018967Y-14059722D02*
X15028491Y-14078769D01*
X15028491Y-14078769D02*
X15028491Y-14126388D01*
X15028491Y-14126388D02*
X15018967Y-14145436D01*
X15018967Y-14145436D02*
X15009444Y-14154960D01*
X15009444Y-14154960D02*
X14990396Y-14164484D01*
X14990396Y-14164484D02*
X14933253Y-14164484D01*
X14933253Y-14164484D02*
X14914206Y-14154960D01*
X14914206Y-14154960D02*
X14904682Y-14145436D01*
X15095158Y-13964484D02*
X15228491Y-13964484D01*
X15228491Y-13964484D02*
X15142777Y-14164484D01*
X15390396Y-14031150D02*
X15390396Y-14164484D01*
X15342777Y-13954960D02*
X15295158Y-14097817D01*
X15295158Y-14097817D02*
X15418967Y-14097817D01*
X15485634Y-13964484D02*
X15485634Y-14002579D01*
X15561825Y-13964484D02*
X15561825Y-14002579D01*
X15857063Y-14240674D02*
X15847539Y-14231150D01*
X15847539Y-14231150D02*
X15828491Y-14202579D01*
X15828491Y-14202579D02*
X15818968Y-14183531D01*
X15818968Y-14183531D02*
X15809444Y-14154960D01*
X15809444Y-14154960D02*
X15799920Y-14107341D01*
X15799920Y-14107341D02*
X15799920Y-14069246D01*
X15799920Y-14069246D02*
X15809444Y-14021627D01*
X15809444Y-14021627D02*
X15818968Y-13993055D01*
X15818968Y-13993055D02*
X15828491Y-13974008D01*
X15828491Y-13974008D02*
X15847539Y-13945436D01*
X15847539Y-13945436D02*
X15857063Y-13935912D01*
X15914206Y-13964484D02*
X16038015Y-13964484D01*
X16038015Y-13964484D02*
X15971348Y-14040674D01*
X15971348Y-14040674D02*
X15999920Y-14040674D01*
X15999920Y-14040674D02*
X16018968Y-14050198D01*
X16018968Y-14050198D02*
X16028491Y-14059722D01*
X16028491Y-14059722D02*
X16038015Y-14078769D01*
X16038015Y-14078769D02*
X16038015Y-14126388D01*
X16038015Y-14126388D02*
X16028491Y-14145436D01*
X16028491Y-14145436D02*
X16018968Y-14154960D01*
X16018968Y-14154960D02*
X15999920Y-14164484D01*
X15999920Y-14164484D02*
X15942777Y-14164484D01*
X15942777Y-14164484D02*
X15923729Y-14154960D01*
X15923729Y-14154960D02*
X15914206Y-14145436D01*
X16276110Y-14164484D02*
X16276110Y-13964484D01*
X16361825Y-14164484D02*
X16361825Y-14059722D01*
X16361825Y-14059722D02*
X16352301Y-14040674D01*
X16352301Y-14040674D02*
X16333253Y-14031150D01*
X16333253Y-14031150D02*
X16304682Y-14031150D01*
X16304682Y-14031150D02*
X16285634Y-14040674D01*
X16285634Y-14040674D02*
X16276110Y-14050198D01*
X16485634Y-14164484D02*
X16466587Y-14154960D01*
X16466587Y-14154960D02*
X16457063Y-14145436D01*
X16457063Y-14145436D02*
X16447539Y-14126388D01*
X16447539Y-14126388D02*
X16447539Y-14069246D01*
X16447539Y-14069246D02*
X16457063Y-14050198D01*
X16457063Y-14050198D02*
X16466587Y-14040674D01*
X16466587Y-14040674D02*
X16485634Y-14031150D01*
X16485634Y-14031150D02*
X16514206Y-14031150D01*
X16514206Y-14031150D02*
X16533253Y-14040674D01*
X16533253Y-14040674D02*
X16542777Y-14050198D01*
X16542777Y-14050198D02*
X16552301Y-14069246D01*
X16552301Y-14069246D02*
X16552301Y-14126388D01*
X16552301Y-14126388D02*
X16542777Y-14145436D01*
X16542777Y-14145436D02*
X16533253Y-14154960D01*
X16533253Y-14154960D02*
X16514206Y-14164484D01*
X16514206Y-14164484D02*
X16485634Y-14164484D01*
X16666587Y-14164484D02*
X16647539Y-14154960D01*
X16647539Y-14154960D02*
X16638015Y-14135912D01*
X16638015Y-14135912D02*
X16638015Y-13964484D01*
X16818968Y-14154960D02*
X16799920Y-14164484D01*
X16799920Y-14164484D02*
X16761825Y-14164484D01*
X16761825Y-14164484D02*
X16742777Y-14154960D01*
X16742777Y-14154960D02*
X16733253Y-14135912D01*
X16733253Y-14135912D02*
X16733253Y-14059722D01*
X16733253Y-14059722D02*
X16742777Y-14040674D01*
X16742777Y-14040674D02*
X16761825Y-14031150D01*
X16761825Y-14031150D02*
X16799920Y-14031150D01*
X16799920Y-14031150D02*
X16818968Y-14040674D01*
X16818968Y-14040674D02*
X16828492Y-14059722D01*
X16828492Y-14059722D02*
X16828492Y-14078769D01*
X16828492Y-14078769D02*
X16733253Y-14097817D01*
X16904682Y-14154960D02*
X16923730Y-14164484D01*
X16923730Y-14164484D02*
X16961825Y-14164484D01*
X16961825Y-14164484D02*
X16980873Y-14154960D01*
X16980873Y-14154960D02*
X16990396Y-14135912D01*
X16990396Y-14135912D02*
X16990396Y-14126388D01*
X16990396Y-14126388D02*
X16980873Y-14107341D01*
X16980873Y-14107341D02*
X16961825Y-14097817D01*
X16961825Y-14097817D02*
X16933253Y-14097817D01*
X16933253Y-14097817D02*
X16914206Y-14088293D01*
X16914206Y-14088293D02*
X16904682Y-14069246D01*
X16904682Y-14069246D02*
X16904682Y-14059722D01*
X16904682Y-14059722D02*
X16914206Y-14040674D01*
X16914206Y-14040674D02*
X16933253Y-14031150D01*
X16933253Y-14031150D02*
X16961825Y-14031150D01*
X16961825Y-14031150D02*
X16980873Y-14040674D01*
X17057063Y-14240674D02*
X17066587Y-14231150D01*
X17066587Y-14231150D02*
X17085634Y-14202579D01*
X17085634Y-14202579D02*
X17095158Y-14183531D01*
X17095158Y-14183531D02*
X17104682Y-14154960D01*
X17104682Y-14154960D02*
X17114206Y-14107341D01*
X17114206Y-14107341D02*
X17114206Y-14069246D01*
X17114206Y-14069246D02*
X17104682Y-14021627D01*
X17104682Y-14021627D02*
X17095158Y-13993055D01*
X17095158Y-13993055D02*
X17085634Y-13974008D01*
X17085634Y-13974008D02*
X17066587Y-13945436D01*
X17066587Y-13945436D02*
X17057063Y-13935912D01*
D10*
X12182000Y-14287000D02*
X12282000Y-14387000D01*
X12282000Y-14287000D02*
X12182000Y-14387000D01*
X12267356Y-14372356D02*
X12267356Y-14301644D01*
X12196644Y-14301644D01*
X12196644Y-14372356D01*
X12267356Y-14372356D01*
D11*
X12647539Y-14428484D02*
X12533253Y-14428484D01*
X12590396Y-14428484D02*
X12590396Y-14228484D01*
X12590396Y-14228484D02*
X12571348Y-14257055D01*
X12571348Y-14257055D02*
X12552301Y-14276103D01*
X12552301Y-14276103D02*
X12533253Y-14285627D01*
X12733253Y-14409436D02*
X12742777Y-14418960D01*
X12742777Y-14418960D02*
X12733253Y-14428484D01*
X12733253Y-14428484D02*
X12723729Y-14418960D01*
X12723729Y-14418960D02*
X12733253Y-14409436D01*
X12733253Y-14409436D02*
X12733253Y-14428484D01*
X12866586Y-14228484D02*
X12885634Y-14228484D01*
X12885634Y-14228484D02*
X12904682Y-14238008D01*
X12904682Y-14238008D02*
X12914205Y-14247531D01*
X12914205Y-14247531D02*
X12923729Y-14266579D01*
X12923729Y-14266579D02*
X12933253Y-14304674D01*
X12933253Y-14304674D02*
X12933253Y-14352293D01*
X12933253Y-14352293D02*
X12923729Y-14390388D01*
X12923729Y-14390388D02*
X12914205Y-14409436D01*
X12914205Y-14409436D02*
X12904682Y-14418960D01*
X12904682Y-14418960D02*
X12885634Y-14428484D01*
X12885634Y-14428484D02*
X12866586Y-14428484D01*
X12866586Y-14428484D02*
X12847539Y-14418960D01*
X12847539Y-14418960D02*
X12838015Y-14409436D01*
X12838015Y-14409436D02*
X12828491Y-14390388D01*
X12828491Y-14390388D02*
X12818967Y-14352293D01*
X12818967Y-14352293D02*
X12818967Y-14304674D01*
X12818967Y-14304674D02*
X12828491Y-14266579D01*
X12828491Y-14266579D02*
X12838015Y-14247531D01*
X12838015Y-14247531D02*
X12847539Y-14238008D01*
X12847539Y-14238008D02*
X12866586Y-14228484D01*
X13057062Y-14228484D02*
X13076110Y-14228484D01*
X13076110Y-14228484D02*
X13095158Y-14238008D01*
X13095158Y-14238008D02*
X13104682Y-14247531D01*
X13104682Y-14247531D02*
X13114205Y-14266579D01*
X13114205Y-14266579D02*
X13123729Y-14304674D01*
X13123729Y-14304674D02*
X13123729Y-14352293D01*
X13123729Y-14352293D02*
X13114205Y-14390388D01*
X13114205Y-14390388D02*
X13104682Y-14409436D01*
X13104682Y-14409436D02*
X13095158Y-14418960D01*
X13095158Y-14418960D02*
X13076110Y-14428484D01*
X13076110Y-14428484D02*
X13057062Y-14428484D01*
X13057062Y-14428484D02*
X13038015Y-14418960D01*
X13038015Y-14418960D02*
X13028491Y-14409436D01*
X13028491Y-14409436D02*
X13018967Y-14390388D01*
X13018967Y-14390388D02*
X13009443Y-14352293D01*
X13009443Y-14352293D02*
X13009443Y-14304674D01*
X13009443Y-14304674D02*
X13018967Y-14266579D01*
X13018967Y-14266579D02*
X13028491Y-14247531D01*
X13028491Y-14247531D02*
X13038015Y-14238008D01*
X13038015Y-14238008D02*
X13057062Y-14228484D01*
X13247539Y-14228484D02*
X13266586Y-14228484D01*
X13266586Y-14228484D02*
X13285634Y-14238008D01*
X13285634Y-14238008D02*
X13295158Y-14247531D01*
X13295158Y-14247531D02*
X13304682Y-14266579D01*
X13304682Y-14266579D02*
X13314205Y-14304674D01*
X13314205Y-14304674D02*
X13314205Y-14352293D01*
X13314205Y-14352293D02*
X13304682Y-14390388D01*
X13304682Y-14390388D02*
X13295158Y-14409436D01*
X13295158Y-14409436D02*
X13285634Y-14418960D01*
X13285634Y-14418960D02*
X13266586Y-14428484D01*
X13266586Y-14428484D02*
X13247539Y-14428484D01*
X13247539Y-14428484D02*
X13228491Y-14418960D01*
X13228491Y-14418960D02*
X13218967Y-14409436D01*
X13218967Y-14409436D02*
X13209443Y-14390388D01*
X13209443Y-14390388D02*
X13199920Y-14352293D01*
X13199920Y-14352293D02*
X13199920Y-14304674D01*
X13199920Y-14304674D02*
X13209443Y-14266579D01*
X13209443Y-14266579D02*
X13218967Y-14247531D01*
X13218967Y-14247531D02*
X13228491Y-14238008D01*
X13228491Y-14238008D02*
X13247539Y-14228484D01*
X13399920Y-14428484D02*
X13399920Y-14295150D01*
X13399920Y-14314198D02*
X13409443Y-14304674D01*
X13409443Y-14304674D02*
X13428491Y-14295150D01*
X13428491Y-14295150D02*
X13457063Y-14295150D01*
X13457063Y-14295150D02*
X13476110Y-14304674D01*
X13476110Y-14304674D02*
X13485634Y-14323722D01*
X13485634Y-14323722D02*
X13485634Y-14428484D01*
X13485634Y-14323722D02*
X13495158Y-14304674D01*
X13495158Y-14304674D02*
X13514205Y-14295150D01*
X13514205Y-14295150D02*
X13542777Y-14295150D01*
X13542777Y-14295150D02*
X13561824Y-14304674D01*
X13561824Y-14304674D02*
X13571348Y-14323722D01*
X13571348Y-14323722D02*
X13571348Y-14428484D01*
X13666586Y-14428484D02*
X13666586Y-14295150D01*
X13666586Y-14314198D02*
X13676110Y-14304674D01*
X13676110Y-14304674D02*
X13695158Y-14295150D01*
X13695158Y-14295150D02*
X13723729Y-14295150D01*
X13723729Y-14295150D02*
X13742777Y-14304674D01*
X13742777Y-14304674D02*
X13752301Y-14323722D01*
X13752301Y-14323722D02*
X13752301Y-14428484D01*
X13752301Y-14323722D02*
X13761824Y-14304674D01*
X13761824Y-14304674D02*
X13780872Y-14295150D01*
X13780872Y-14295150D02*
X13809443Y-14295150D01*
X13809443Y-14295150D02*
X13828491Y-14304674D01*
X13828491Y-14304674D02*
X13838015Y-14323722D01*
X13838015Y-14323722D02*
X13838015Y-14428484D01*
X14228491Y-14218960D02*
X14057063Y-14476103D01*
X14485634Y-14228484D02*
X14504682Y-14228484D01*
X14504682Y-14228484D02*
X14523729Y-14238008D01*
X14523729Y-14238008D02*
X14533253Y-14247531D01*
X14533253Y-14247531D02*
X14542777Y-14266579D01*
X14542777Y-14266579D02*
X14552301Y-14304674D01*
X14552301Y-14304674D02*
X14552301Y-14352293D01*
X14552301Y-14352293D02*
X14542777Y-14390388D01*
X14542777Y-14390388D02*
X14533253Y-14409436D01*
X14533253Y-14409436D02*
X14523729Y-14418960D01*
X14523729Y-14418960D02*
X14504682Y-14428484D01*
X14504682Y-14428484D02*
X14485634Y-14428484D01*
X14485634Y-14428484D02*
X14466586Y-14418960D01*
X14466586Y-14418960D02*
X14457063Y-14409436D01*
X14457063Y-14409436D02*
X14447539Y-14390388D01*
X14447539Y-14390388D02*
X14438015Y-14352293D01*
X14438015Y-14352293D02*
X14438015Y-14304674D01*
X14438015Y-14304674D02*
X14447539Y-14266579D01*
X14447539Y-14266579D02*
X14457063Y-14247531D01*
X14457063Y-14247531D02*
X14466586Y-14238008D01*
X14466586Y-14238008D02*
X14485634Y-14228484D01*
X14638015Y-14409436D02*
X14647539Y-14418960D01*
X14647539Y-14418960D02*
X14638015Y-14428484D01*
X14638015Y-14428484D02*
X14628491Y-14418960D01*
X14628491Y-14418960D02*
X14638015Y-14409436D01*
X14638015Y-14409436D02*
X14638015Y-14428484D01*
X14771348Y-14228484D02*
X14790396Y-14228484D01*
X14790396Y-14228484D02*
X14809444Y-14238008D01*
X14809444Y-14238008D02*
X14818967Y-14247531D01*
X14818967Y-14247531D02*
X14828491Y-14266579D01*
X14828491Y-14266579D02*
X14838015Y-14304674D01*
X14838015Y-14304674D02*
X14838015Y-14352293D01*
X14838015Y-14352293D02*
X14828491Y-14390388D01*
X14828491Y-14390388D02*
X14818967Y-14409436D01*
X14818967Y-14409436D02*
X14809444Y-14418960D01*
X14809444Y-14418960D02*
X14790396Y-14428484D01*
X14790396Y-14428484D02*
X14771348Y-14428484D01*
X14771348Y-14428484D02*
X14752301Y-14418960D01*
X14752301Y-14418960D02*
X14742777Y-14409436D01*
X14742777Y-14409436D02*
X14733253Y-14390388D01*
X14733253Y-14390388D02*
X14723729Y-14352293D01*
X14723729Y-14352293D02*
X14723729Y-14304674D01*
X14723729Y-14304674D02*
X14733253Y-14266579D01*
X14733253Y-14266579D02*
X14742777Y-14247531D01*
X14742777Y-14247531D02*
X14752301Y-14238008D01*
X14752301Y-14238008D02*
X14771348Y-14228484D01*
X14904682Y-14228484D02*
X15028491Y-14228484D01*
X15028491Y-14228484D02*
X14961825Y-14304674D01*
X14961825Y-14304674D02*
X14990396Y-14304674D01*
X14990396Y-14304674D02*
X15009444Y-14314198D01*
X15009444Y-14314198D02*
X15018967Y-14323722D01*
X15018967Y-14323722D02*
X15028491Y-14342769D01*
X15028491Y-14342769D02*
X15028491Y-14390388D01*
X15028491Y-14390388D02*
X15018967Y-14409436D01*
X15018967Y-14409436D02*
X15009444Y-14418960D01*
X15009444Y-14418960D02*
X14990396Y-14428484D01*
X14990396Y-14428484D02*
X14933253Y-14428484D01*
X14933253Y-14428484D02*
X14914206Y-14418960D01*
X14914206Y-14418960D02*
X14904682Y-14409436D01*
X15123729Y-14428484D02*
X15161825Y-14428484D01*
X15161825Y-14428484D02*
X15180872Y-14418960D01*
X15180872Y-14418960D02*
X15190396Y-14409436D01*
X15190396Y-14409436D02*
X15209444Y-14380865D01*
X15209444Y-14380865D02*
X15218967Y-14342769D01*
X15218967Y-14342769D02*
X15218967Y-14266579D01*
X15218967Y-14266579D02*
X15209444Y-14247531D01*
X15209444Y-14247531D02*
X15199920Y-14238008D01*
X15199920Y-14238008D02*
X15180872Y-14228484D01*
X15180872Y-14228484D02*
X15142777Y-14228484D01*
X15142777Y-14228484D02*
X15123729Y-14238008D01*
X15123729Y-14238008D02*
X15114206Y-14247531D01*
X15114206Y-14247531D02*
X15104682Y-14266579D01*
X15104682Y-14266579D02*
X15104682Y-14314198D01*
X15104682Y-14314198D02*
X15114206Y-14333246D01*
X15114206Y-14333246D02*
X15123729Y-14342769D01*
X15123729Y-14342769D02*
X15142777Y-14352293D01*
X15142777Y-14352293D02*
X15180872Y-14352293D01*
X15180872Y-14352293D02*
X15199920Y-14342769D01*
X15199920Y-14342769D02*
X15209444Y-14333246D01*
X15209444Y-14333246D02*
X15218967Y-14314198D01*
X15390396Y-14295150D02*
X15390396Y-14428484D01*
X15342777Y-14218960D02*
X15295158Y-14361817D01*
X15295158Y-14361817D02*
X15418967Y-14361817D01*
X15485634Y-14228484D02*
X15485634Y-14266579D01*
X15561825Y-14228484D02*
X15561825Y-14266579D01*
X15857063Y-14504674D02*
X15847539Y-14495150D01*
X15847539Y-14495150D02*
X15828491Y-14466579D01*
X15828491Y-14466579D02*
X15818968Y-14447531D01*
X15818968Y-14447531D02*
X15809444Y-14418960D01*
X15809444Y-14418960D02*
X15799920Y-14371341D01*
X15799920Y-14371341D02*
X15799920Y-14333246D01*
X15799920Y-14333246D02*
X15809444Y-14285627D01*
X15809444Y-14285627D02*
X15818968Y-14257055D01*
X15818968Y-14257055D02*
X15828491Y-14238008D01*
X15828491Y-14238008D02*
X15847539Y-14209436D01*
X15847539Y-14209436D02*
X15857063Y-14199912D01*
X16038015Y-14428484D02*
X15923729Y-14428484D01*
X15980872Y-14428484D02*
X15980872Y-14228484D01*
X15980872Y-14228484D02*
X15961825Y-14257055D01*
X15961825Y-14257055D02*
X15942777Y-14276103D01*
X15942777Y-14276103D02*
X15923729Y-14285627D01*
X16209444Y-14295150D02*
X16209444Y-14428484D01*
X16161825Y-14218960D02*
X16114206Y-14361817D01*
X16114206Y-14361817D02*
X16238015Y-14361817D01*
X16466587Y-14428484D02*
X16466587Y-14228484D01*
X16552301Y-14428484D02*
X16552301Y-14323722D01*
X16552301Y-14323722D02*
X16542777Y-14304674D01*
X16542777Y-14304674D02*
X16523730Y-14295150D01*
X16523730Y-14295150D02*
X16495158Y-14295150D01*
X16495158Y-14295150D02*
X16476110Y-14304674D01*
X16476110Y-14304674D02*
X16466587Y-14314198D01*
X16676110Y-14428484D02*
X16657063Y-14418960D01*
X16657063Y-14418960D02*
X16647539Y-14409436D01*
X16647539Y-14409436D02*
X16638015Y-14390388D01*
X16638015Y-14390388D02*
X16638015Y-14333246D01*
X16638015Y-14333246D02*
X16647539Y-14314198D01*
X16647539Y-14314198D02*
X16657063Y-14304674D01*
X16657063Y-14304674D02*
X16676110Y-14295150D01*
X16676110Y-14295150D02*
X16704682Y-14295150D01*
X16704682Y-14295150D02*
X16723730Y-14304674D01*
X16723730Y-14304674D02*
X16733253Y-14314198D01*
X16733253Y-14314198D02*
X16742777Y-14333246D01*
X16742777Y-14333246D02*
X16742777Y-14390388D01*
X16742777Y-14390388D02*
X16733253Y-14409436D01*
X16733253Y-14409436D02*
X16723730Y-14418960D01*
X16723730Y-14418960D02*
X16704682Y-14428484D01*
X16704682Y-14428484D02*
X16676110Y-14428484D01*
X16857063Y-14428484D02*
X16838015Y-14418960D01*
X16838015Y-14418960D02*
X16828492Y-14399912D01*
X16828492Y-14399912D02*
X16828492Y-14228484D01*
X17009444Y-14418960D02*
X16990396Y-14428484D01*
X16990396Y-14428484D02*
X16952301Y-14428484D01*
X16952301Y-14428484D02*
X16933253Y-14418960D01*
X16933253Y-14418960D02*
X16923730Y-14399912D01*
X16923730Y-14399912D02*
X16923730Y-14323722D01*
X16923730Y-14323722D02*
X16933253Y-14304674D01*
X16933253Y-14304674D02*
X16952301Y-14295150D01*
X16952301Y-14295150D02*
X16990396Y-14295150D01*
X16990396Y-14295150D02*
X17009444Y-14304674D01*
X17009444Y-14304674D02*
X17018968Y-14323722D01*
X17018968Y-14323722D02*
X17018968Y-14342769D01*
X17018968Y-14342769D02*
X16923730Y-14361817D01*
X17095158Y-14418960D02*
X17114206Y-14428484D01*
X17114206Y-14428484D02*
X17152301Y-14428484D01*
X17152301Y-14428484D02*
X17171349Y-14418960D01*
X17171349Y-14418960D02*
X17180873Y-14399912D01*
X17180873Y-14399912D02*
X17180873Y-14390388D01*
X17180873Y-14390388D02*
X17171349Y-14371341D01*
X17171349Y-14371341D02*
X17152301Y-14361817D01*
X17152301Y-14361817D02*
X17123730Y-14361817D01*
X17123730Y-14361817D02*
X17104682Y-14352293D01*
X17104682Y-14352293D02*
X17095158Y-14333246D01*
X17095158Y-14333246D02*
X17095158Y-14323722D01*
X17095158Y-14323722D02*
X17104682Y-14304674D01*
X17104682Y-14304674D02*
X17123730Y-14295150D01*
X17123730Y-14295150D02*
X17152301Y-14295150D01*
X17152301Y-14295150D02*
X17171349Y-14304674D01*
X17247539Y-14504674D02*
X17257063Y-14495150D01*
X17257063Y-14495150D02*
X17276111Y-14466579D01*
X17276111Y-14466579D02*
X17285634Y-14447531D01*
X17285634Y-14447531D02*
X17295158Y-14418960D01*
X17295158Y-14418960D02*
X17304682Y-14371341D01*
X17304682Y-14371341D02*
X17304682Y-14333246D01*
X17304682Y-14333246D02*
X17295158Y-14285627D01*
X17295158Y-14285627D02*
X17285634Y-14257055D01*
X17285634Y-14257055D02*
X17276111Y-14238008D01*
X17276111Y-14238008D02*
X17257063Y-14209436D01*
X17257063Y-14209436D02*
X17247539Y-14199912D01*
M02*
