G04 #@! TF.GenerationSoftware,KiCad,Pcbnew,8.0.5*
G04 #@! TF.CreationDate,2025-03-07T10:13:00-08:00*
G04 #@! TF.ProjectId,Telemetry PCB V2,54656c65-6d65-4747-9279-205043422056,rev?*
G04 #@! TF.SameCoordinates,Original*
G04 #@! TF.FileFunction,Copper,L1,Top*
G04 #@! TF.FilePolarity,Positive*
%FSLAX46Y46*%
G04 Gerber Fmt 4.6, Leading zero omitted, Abs format (unit mm)*
G04 Created by KiCad (PCBNEW 8.0.5) date 2025-03-07 10:13:00*
%MOMM*%
%LPD*%
G01*
G04 APERTURE LIST*
G04 Aperture macros list*
%AMRoundRect*
0 Rectangle with rounded corners*
0 $1 Rounding radius*
0 $2 $3 $4 $5 $6 $7 $8 $9 X,Y pos of 4 corners*
0 Add a 4 corners polygon primitive as box body*
4,1,4,$2,$3,$4,$5,$6,$7,$8,$9,$2,$3,0*
0 Add four circle primitives for the rounded corners*
1,1,$1+$1,$2,$3*
1,1,$1+$1,$4,$5*
1,1,$1+$1,$6,$7*
1,1,$1+$1,$8,$9*
0 Add four rect primitives between the rounded corners*
20,1,$1+$1,$2,$3,$4,$5,0*
20,1,$1+$1,$4,$5,$6,$7,0*
20,1,$1+$1,$6,$7,$8,$9,0*
20,1,$1+$1,$8,$9,$2,$3,0*%
%AMHorizOval*
0 Thick line with rounded ends*
0 $1 width*
0 $2 $3 position (X,Y) of the first rounded end (center of the circle)*
0 $4 $5 position (X,Y) of the second rounded end (center of the circle)*
0 Add line between two ends*
20,1,$1,$2,$3,$4,$5,0*
0 Add two circle primitives to create the rounded ends*
1,1,$1,$2,$3*
1,1,$1,$4,$5*%
G04 Aperture macros list end*
%ADD10C,0.300000*%
G04 #@! TA.AperFunction,NonConductor*
%ADD11C,0.300000*%
G04 #@! TD*
G04 #@! TA.AperFunction,NonConductor*
%ADD12C,0.200000*%
G04 #@! TD*
G04 #@! TA.AperFunction,SMDPad,CuDef*
%ADD13RoundRect,0.250000X0.650000X-0.412500X0.650000X0.412500X-0.650000X0.412500X-0.650000X-0.412500X0*%
G04 #@! TD*
G04 #@! TA.AperFunction,SMDPad,CuDef*
%ADD14RoundRect,0.062500X-0.375000X-0.062500X0.375000X-0.062500X0.375000X0.062500X-0.375000X0.062500X0*%
G04 #@! TD*
G04 #@! TA.AperFunction,SMDPad,CuDef*
%ADD15RoundRect,0.062500X-0.062500X-0.375000X0.062500X-0.375000X0.062500X0.375000X-0.062500X0.375000X0*%
G04 #@! TD*
G04 #@! TA.AperFunction,HeatsinkPad*
%ADD16R,5.600000X5.600000*%
G04 #@! TD*
G04 #@! TA.AperFunction,SMDPad,CuDef*
%ADD17R,0.711200X0.711200*%
G04 #@! TD*
G04 #@! TA.AperFunction,SMDPad,CuDef*
%ADD18RoundRect,0.250000X-0.625000X0.400000X-0.625000X-0.400000X0.625000X-0.400000X0.625000X0.400000X0*%
G04 #@! TD*
G04 #@! TA.AperFunction,SMDPad,CuDef*
%ADD19RoundRect,0.237500X0.237500X-0.300000X0.237500X0.300000X-0.237500X0.300000X-0.237500X-0.300000X0*%
G04 #@! TD*
G04 #@! TA.AperFunction,SMDPad,CuDef*
%ADD20RoundRect,0.150000X-0.150000X-0.435000X0.150000X-0.435000X0.150000X0.435000X-0.150000X0.435000X0*%
G04 #@! TD*
G04 #@! TA.AperFunction,SMDPad,CuDef*
%ADD21RoundRect,0.150000X-0.150000X-0.447500X0.150000X-0.447500X0.150000X0.447500X-0.150000X0.447500X0*%
G04 #@! TD*
G04 #@! TA.AperFunction,SMDPad,CuDef*
%ADD22RoundRect,0.075000X-0.075000X-0.575000X0.075000X-0.575000X0.075000X0.575000X-0.075000X0.575000X0*%
G04 #@! TD*
G04 #@! TA.AperFunction,ComponentPad*
%ADD23O,1.000000X2.100000*%
G04 #@! TD*
G04 #@! TA.AperFunction,ComponentPad*
%ADD24O,1.000000X1.600000*%
G04 #@! TD*
G04 #@! TA.AperFunction,ComponentPad*
%ADD25C,2.000000*%
G04 #@! TD*
G04 #@! TA.AperFunction,SMDPad,CuDef*
%ADD26RoundRect,0.250000X-0.650000X0.412500X-0.650000X-0.412500X0.650000X-0.412500X0.650000X0.412500X0*%
G04 #@! TD*
G04 #@! TA.AperFunction,SMDPad,CuDef*
%ADD27R,1.498600X3.987800*%
G04 #@! TD*
G04 #@! TA.AperFunction,ComponentPad*
%ADD28R,1.700000X1.700000*%
G04 #@! TD*
G04 #@! TA.AperFunction,ComponentPad*
%ADD29O,1.700000X1.700000*%
G04 #@! TD*
G04 #@! TA.AperFunction,SMDPad,CuDef*
%ADD30RoundRect,0.250000X0.625000X-0.400000X0.625000X0.400000X-0.625000X0.400000X-0.625000X-0.400000X0*%
G04 #@! TD*
G04 #@! TA.AperFunction,SMDPad,CuDef*
%ADD31RoundRect,0.237500X-0.237500X0.300000X-0.237500X-0.300000X0.237500X-0.300000X0.237500X0.300000X0*%
G04 #@! TD*
G04 #@! TA.AperFunction,SMDPad,CuDef*
%ADD32R,1.510000X2.080000*%
G04 #@! TD*
G04 #@! TA.AperFunction,SMDPad,CuDef*
%ADD33R,0.558800X0.950500*%
G04 #@! TD*
G04 #@! TA.AperFunction,SMDPad,CuDef*
%ADD34RoundRect,0.150000X-0.587500X-0.150000X0.587500X-0.150000X0.587500X0.150000X-0.587500X0.150000X0*%
G04 #@! TD*
G04 #@! TA.AperFunction,SMDPad,CuDef*
%ADD35RoundRect,0.250000X0.400000X0.625000X-0.400000X0.625000X-0.400000X-0.625000X0.400000X-0.625000X0*%
G04 #@! TD*
G04 #@! TA.AperFunction,SMDPad,CuDef*
%ADD36R,1.900000X1.100000*%
G04 #@! TD*
G04 #@! TA.AperFunction,SMDPad,CuDef*
%ADD37R,2.000000X7.875000*%
G04 #@! TD*
G04 #@! TA.AperFunction,SMDPad,CuDef*
%ADD38RoundRect,0.237500X-0.300000X-0.237500X0.300000X-0.237500X0.300000X0.237500X-0.300000X0.237500X0*%
G04 #@! TD*
G04 #@! TA.AperFunction,SMDPad,CuDef*
%ADD39RoundRect,0.237500X0.300000X0.237500X-0.300000X0.237500X-0.300000X-0.237500X0.300000X-0.237500X0*%
G04 #@! TD*
G04 #@! TA.AperFunction,SMDPad,CuDef*
%ADD40RoundRect,0.250000X0.412500X0.650000X-0.412500X0.650000X-0.412500X-0.650000X0.412500X-0.650000X0*%
G04 #@! TD*
G04 #@! TA.AperFunction,SMDPad,CuDef*
%ADD41RoundRect,0.150000X-0.512500X-0.150000X0.512500X-0.150000X0.512500X0.150000X-0.512500X0.150000X0*%
G04 #@! TD*
G04 #@! TA.AperFunction,ComponentPad*
%ADD42RoundRect,0.250000X0.088388X-0.936916X0.936916X-0.088388X-0.088388X0.936916X-0.936916X0.088388X0*%
G04 #@! TD*
G04 #@! TA.AperFunction,ComponentPad*
%ADD43HorizOval,1.700000X-0.088388X0.088388X0.088388X-0.088388X0*%
G04 #@! TD*
G04 #@! TA.AperFunction,SMDPad,CuDef*
%ADD44RoundRect,0.090000X0.360000X-0.660000X0.360000X0.660000X-0.360000X0.660000X-0.360000X-0.660000X0*%
G04 #@! TD*
G04 #@! TA.AperFunction,ComponentPad*
%ADD45RoundRect,0.250000X-0.750000X0.600000X-0.750000X-0.600000X0.750000X-0.600000X0.750000X0.600000X0*%
G04 #@! TD*
G04 #@! TA.AperFunction,ComponentPad*
%ADD46O,2.000000X1.700000*%
G04 #@! TD*
G04 #@! TA.AperFunction,ViaPad*
%ADD47C,1.000000*%
G04 #@! TD*
G04 #@! TA.AperFunction,ViaPad*
%ADD48C,0.900000*%
G04 #@! TD*
G04 #@! TA.AperFunction,ViaPad*
%ADD49C,1.200000*%
G04 #@! TD*
G04 #@! TA.AperFunction,ViaPad*
%ADD50C,0.800000*%
G04 #@! TD*
G04 #@! TA.AperFunction,ViaPad*
%ADD51C,1.600000*%
G04 #@! TD*
G04 #@! TA.AperFunction,Conductor*
%ADD52C,0.250000*%
G04 #@! TD*
G04 #@! TA.AperFunction,Conductor*
%ADD53C,1.000000*%
G04 #@! TD*
G04 #@! TA.AperFunction,Conductor*
%ADD54C,0.800000*%
G04 #@! TD*
G04 #@! TA.AperFunction,Conductor*
%ADD55C,1.200000*%
G04 #@! TD*
G04 #@! TA.AperFunction,Conductor*
%ADD56C,0.350000*%
G04 #@! TD*
G04 #@! TA.AperFunction,Conductor*
%ADD57C,0.600000*%
G04 #@! TD*
G04 #@! TA.AperFunction,Conductor*
%ADD58C,2.000000*%
G04 #@! TD*
G04 #@! TA.AperFunction,Conductor*
%ADD59C,0.700000*%
G04 #@! TD*
G04 #@! TA.AperFunction,Conductor*
%ADD60C,0.200000*%
G04 #@! TD*
G04 APERTURE END LIST*
D10*
D11*
X150870001Y-42248328D02*
X151870001Y-42248328D01*
X151870001Y-42248328D02*
X151227144Y-43748328D01*
X152727144Y-42248328D02*
X152870001Y-42248328D01*
X152870001Y-42248328D02*
X153012858Y-42319757D01*
X153012858Y-42319757D02*
X153084287Y-42391185D01*
X153084287Y-42391185D02*
X153155715Y-42534042D01*
X153155715Y-42534042D02*
X153227144Y-42819757D01*
X153227144Y-42819757D02*
X153227144Y-43176900D01*
X153227144Y-43176900D02*
X153155715Y-43462614D01*
X153155715Y-43462614D02*
X153084287Y-43605471D01*
X153084287Y-43605471D02*
X153012858Y-43676900D01*
X153012858Y-43676900D02*
X152870001Y-43748328D01*
X152870001Y-43748328D02*
X152727144Y-43748328D01*
X152727144Y-43748328D02*
X152584287Y-43676900D01*
X152584287Y-43676900D02*
X152512858Y-43605471D01*
X152512858Y-43605471D02*
X152441429Y-43462614D01*
X152441429Y-43462614D02*
X152370001Y-43176900D01*
X152370001Y-43176900D02*
X152370001Y-42819757D01*
X152370001Y-42819757D02*
X152441429Y-42534042D01*
X152441429Y-42534042D02*
X152512858Y-42391185D01*
X152512858Y-42391185D02*
X152584287Y-42319757D01*
X152584287Y-42319757D02*
X152727144Y-42248328D01*
X153870000Y-43605471D02*
X153941429Y-43676900D01*
X153941429Y-43676900D02*
X153870000Y-43748328D01*
X153870000Y-43748328D02*
X153798572Y-43676900D01*
X153798572Y-43676900D02*
X153870000Y-43605471D01*
X153870000Y-43605471D02*
X153870000Y-43748328D01*
X154870001Y-42248328D02*
X155012858Y-42248328D01*
X155012858Y-42248328D02*
X155155715Y-42319757D01*
X155155715Y-42319757D02*
X155227144Y-42391185D01*
X155227144Y-42391185D02*
X155298572Y-42534042D01*
X155298572Y-42534042D02*
X155370001Y-42819757D01*
X155370001Y-42819757D02*
X155370001Y-43176900D01*
X155370001Y-43176900D02*
X155298572Y-43462614D01*
X155298572Y-43462614D02*
X155227144Y-43605471D01*
X155227144Y-43605471D02*
X155155715Y-43676900D01*
X155155715Y-43676900D02*
X155012858Y-43748328D01*
X155012858Y-43748328D02*
X154870001Y-43748328D01*
X154870001Y-43748328D02*
X154727144Y-43676900D01*
X154727144Y-43676900D02*
X154655715Y-43605471D01*
X154655715Y-43605471D02*
X154584286Y-43462614D01*
X154584286Y-43462614D02*
X154512858Y-43176900D01*
X154512858Y-43176900D02*
X154512858Y-42819757D01*
X154512858Y-42819757D02*
X154584286Y-42534042D01*
X154584286Y-42534042D02*
X154655715Y-42391185D01*
X154655715Y-42391185D02*
X154727144Y-42319757D01*
X154727144Y-42319757D02*
X154870001Y-42248328D01*
X156298572Y-42248328D02*
X156441429Y-42248328D01*
X156441429Y-42248328D02*
X156584286Y-42319757D01*
X156584286Y-42319757D02*
X156655715Y-42391185D01*
X156655715Y-42391185D02*
X156727143Y-42534042D01*
X156727143Y-42534042D02*
X156798572Y-42819757D01*
X156798572Y-42819757D02*
X156798572Y-43176900D01*
X156798572Y-43176900D02*
X156727143Y-43462614D01*
X156727143Y-43462614D02*
X156655715Y-43605471D01*
X156655715Y-43605471D02*
X156584286Y-43676900D01*
X156584286Y-43676900D02*
X156441429Y-43748328D01*
X156441429Y-43748328D02*
X156298572Y-43748328D01*
X156298572Y-43748328D02*
X156155715Y-43676900D01*
X156155715Y-43676900D02*
X156084286Y-43605471D01*
X156084286Y-43605471D02*
X156012857Y-43462614D01*
X156012857Y-43462614D02*
X155941429Y-43176900D01*
X155941429Y-43176900D02*
X155941429Y-42819757D01*
X155941429Y-42819757D02*
X156012857Y-42534042D01*
X156012857Y-42534042D02*
X156084286Y-42391185D01*
X156084286Y-42391185D02*
X156155715Y-42319757D01*
X156155715Y-42319757D02*
X156298572Y-42248328D01*
X157727143Y-42248328D02*
X157870000Y-42248328D01*
X157870000Y-42248328D02*
X158012857Y-42319757D01*
X158012857Y-42319757D02*
X158084286Y-42391185D01*
X158084286Y-42391185D02*
X158155714Y-42534042D01*
X158155714Y-42534042D02*
X158227143Y-42819757D01*
X158227143Y-42819757D02*
X158227143Y-43176900D01*
X158227143Y-43176900D02*
X158155714Y-43462614D01*
X158155714Y-43462614D02*
X158084286Y-43605471D01*
X158084286Y-43605471D02*
X158012857Y-43676900D01*
X158012857Y-43676900D02*
X157870000Y-43748328D01*
X157870000Y-43748328D02*
X157727143Y-43748328D01*
X157727143Y-43748328D02*
X157584286Y-43676900D01*
X157584286Y-43676900D02*
X157512857Y-43605471D01*
X157512857Y-43605471D02*
X157441428Y-43462614D01*
X157441428Y-43462614D02*
X157370000Y-43176900D01*
X157370000Y-43176900D02*
X157370000Y-42819757D01*
X157370000Y-42819757D02*
X157441428Y-42534042D01*
X157441428Y-42534042D02*
X157512857Y-42391185D01*
X157512857Y-42391185D02*
X157584286Y-42319757D01*
X157584286Y-42319757D02*
X157727143Y-42248328D01*
X159155714Y-42248328D02*
X159298571Y-42248328D01*
X159298571Y-42248328D02*
X159441428Y-42319757D01*
X159441428Y-42319757D02*
X159512857Y-42391185D01*
X159512857Y-42391185D02*
X159584285Y-42534042D01*
X159584285Y-42534042D02*
X159655714Y-42819757D01*
X159655714Y-42819757D02*
X159655714Y-43176900D01*
X159655714Y-43176900D02*
X159584285Y-43462614D01*
X159584285Y-43462614D02*
X159512857Y-43605471D01*
X159512857Y-43605471D02*
X159441428Y-43676900D01*
X159441428Y-43676900D02*
X159298571Y-43748328D01*
X159298571Y-43748328D02*
X159155714Y-43748328D01*
X159155714Y-43748328D02*
X159012857Y-43676900D01*
X159012857Y-43676900D02*
X158941428Y-43605471D01*
X158941428Y-43605471D02*
X158869999Y-43462614D01*
X158869999Y-43462614D02*
X158798571Y-43176900D01*
X158798571Y-43176900D02*
X158798571Y-42819757D01*
X158798571Y-42819757D02*
X158869999Y-42534042D01*
X158869999Y-42534042D02*
X158941428Y-42391185D01*
X158941428Y-42391185D02*
X159012857Y-42319757D01*
X159012857Y-42319757D02*
X159155714Y-42248328D01*
X161441427Y-43748328D02*
X161441427Y-42748328D01*
X161441427Y-42891185D02*
X161512856Y-42819757D01*
X161512856Y-42819757D02*
X161655713Y-42748328D01*
X161655713Y-42748328D02*
X161869999Y-42748328D01*
X161869999Y-42748328D02*
X162012856Y-42819757D01*
X162012856Y-42819757D02*
X162084285Y-42962614D01*
X162084285Y-42962614D02*
X162084285Y-43748328D01*
X162084285Y-42962614D02*
X162155713Y-42819757D01*
X162155713Y-42819757D02*
X162298570Y-42748328D01*
X162298570Y-42748328D02*
X162512856Y-42748328D01*
X162512856Y-42748328D02*
X162655713Y-42819757D01*
X162655713Y-42819757D02*
X162727142Y-42962614D01*
X162727142Y-42962614D02*
X162727142Y-43748328D01*
X163441427Y-43748328D02*
X163441427Y-42748328D01*
X163441427Y-42891185D02*
X163512856Y-42819757D01*
X163512856Y-42819757D02*
X163655713Y-42748328D01*
X163655713Y-42748328D02*
X163869999Y-42748328D01*
X163869999Y-42748328D02*
X164012856Y-42819757D01*
X164012856Y-42819757D02*
X164084285Y-42962614D01*
X164084285Y-42962614D02*
X164084285Y-43748328D01*
X164084285Y-42962614D02*
X164155713Y-42819757D01*
X164155713Y-42819757D02*
X164298570Y-42748328D01*
X164298570Y-42748328D02*
X164512856Y-42748328D01*
X164512856Y-42748328D02*
X164655713Y-42819757D01*
X164655713Y-42819757D02*
X164727142Y-42962614D01*
X164727142Y-42962614D02*
X164727142Y-43748328D01*
D12*
X122870000Y-47950000D02*
X122870000Y-44283580D01*
X192870000Y-47950000D02*
X192870000Y-44283580D01*
X122870000Y-44870000D02*
X192870000Y-44870000D01*
X122870000Y-44870000D02*
X192870000Y-44870000D01*
X122870000Y-44870000D02*
X123996504Y-44283579D01*
X122870000Y-44870000D02*
X123996504Y-45456421D01*
X192870000Y-44870000D02*
X191743496Y-45456421D01*
X192870000Y-44870000D02*
X191743496Y-44283579D01*
D10*
D11*
X115108329Y-90449998D02*
X115108329Y-89449998D01*
X115108329Y-89449998D02*
X116608329Y-90092855D01*
X115108329Y-88592855D02*
X115108329Y-88449998D01*
X115108329Y-88449998D02*
X115179758Y-88307141D01*
X115179758Y-88307141D02*
X115251186Y-88235713D01*
X115251186Y-88235713D02*
X115394043Y-88164284D01*
X115394043Y-88164284D02*
X115679758Y-88092855D01*
X115679758Y-88092855D02*
X116036901Y-88092855D01*
X116036901Y-88092855D02*
X116322615Y-88164284D01*
X116322615Y-88164284D02*
X116465472Y-88235713D01*
X116465472Y-88235713D02*
X116536901Y-88307141D01*
X116536901Y-88307141D02*
X116608329Y-88449998D01*
X116608329Y-88449998D02*
X116608329Y-88592855D01*
X116608329Y-88592855D02*
X116536901Y-88735713D01*
X116536901Y-88735713D02*
X116465472Y-88807141D01*
X116465472Y-88807141D02*
X116322615Y-88878570D01*
X116322615Y-88878570D02*
X116036901Y-88949998D01*
X116036901Y-88949998D02*
X115679758Y-88949998D01*
X115679758Y-88949998D02*
X115394043Y-88878570D01*
X115394043Y-88878570D02*
X115251186Y-88807141D01*
X115251186Y-88807141D02*
X115179758Y-88735713D01*
X115179758Y-88735713D02*
X115108329Y-88592855D01*
X116465472Y-87449999D02*
X116536901Y-87378570D01*
X116536901Y-87378570D02*
X116608329Y-87449999D01*
X116608329Y-87449999D02*
X116536901Y-87521427D01*
X116536901Y-87521427D02*
X116465472Y-87449999D01*
X116465472Y-87449999D02*
X116608329Y-87449999D01*
X115108329Y-86449998D02*
X115108329Y-86307141D01*
X115108329Y-86307141D02*
X115179758Y-86164284D01*
X115179758Y-86164284D02*
X115251186Y-86092856D01*
X115251186Y-86092856D02*
X115394043Y-86021427D01*
X115394043Y-86021427D02*
X115679758Y-85949998D01*
X115679758Y-85949998D02*
X116036901Y-85949998D01*
X116036901Y-85949998D02*
X116322615Y-86021427D01*
X116322615Y-86021427D02*
X116465472Y-86092856D01*
X116465472Y-86092856D02*
X116536901Y-86164284D01*
X116536901Y-86164284D02*
X116608329Y-86307141D01*
X116608329Y-86307141D02*
X116608329Y-86449998D01*
X116608329Y-86449998D02*
X116536901Y-86592856D01*
X116536901Y-86592856D02*
X116465472Y-86664284D01*
X116465472Y-86664284D02*
X116322615Y-86735713D01*
X116322615Y-86735713D02*
X116036901Y-86807141D01*
X116036901Y-86807141D02*
X115679758Y-86807141D01*
X115679758Y-86807141D02*
X115394043Y-86735713D01*
X115394043Y-86735713D02*
X115251186Y-86664284D01*
X115251186Y-86664284D02*
X115179758Y-86592856D01*
X115179758Y-86592856D02*
X115108329Y-86449998D01*
X115108329Y-85021427D02*
X115108329Y-84878570D01*
X115108329Y-84878570D02*
X115179758Y-84735713D01*
X115179758Y-84735713D02*
X115251186Y-84664285D01*
X115251186Y-84664285D02*
X115394043Y-84592856D01*
X115394043Y-84592856D02*
X115679758Y-84521427D01*
X115679758Y-84521427D02*
X116036901Y-84521427D01*
X116036901Y-84521427D02*
X116322615Y-84592856D01*
X116322615Y-84592856D02*
X116465472Y-84664285D01*
X116465472Y-84664285D02*
X116536901Y-84735713D01*
X116536901Y-84735713D02*
X116608329Y-84878570D01*
X116608329Y-84878570D02*
X116608329Y-85021427D01*
X116608329Y-85021427D02*
X116536901Y-85164285D01*
X116536901Y-85164285D02*
X116465472Y-85235713D01*
X116465472Y-85235713D02*
X116322615Y-85307142D01*
X116322615Y-85307142D02*
X116036901Y-85378570D01*
X116036901Y-85378570D02*
X115679758Y-85378570D01*
X115679758Y-85378570D02*
X115394043Y-85307142D01*
X115394043Y-85307142D02*
X115251186Y-85235713D01*
X115251186Y-85235713D02*
X115179758Y-85164285D01*
X115179758Y-85164285D02*
X115108329Y-85021427D01*
X115108329Y-83592856D02*
X115108329Y-83449999D01*
X115108329Y-83449999D02*
X115179758Y-83307142D01*
X115179758Y-83307142D02*
X115251186Y-83235714D01*
X115251186Y-83235714D02*
X115394043Y-83164285D01*
X115394043Y-83164285D02*
X115679758Y-83092856D01*
X115679758Y-83092856D02*
X116036901Y-83092856D01*
X116036901Y-83092856D02*
X116322615Y-83164285D01*
X116322615Y-83164285D02*
X116465472Y-83235714D01*
X116465472Y-83235714D02*
X116536901Y-83307142D01*
X116536901Y-83307142D02*
X116608329Y-83449999D01*
X116608329Y-83449999D02*
X116608329Y-83592856D01*
X116608329Y-83592856D02*
X116536901Y-83735714D01*
X116536901Y-83735714D02*
X116465472Y-83807142D01*
X116465472Y-83807142D02*
X116322615Y-83878571D01*
X116322615Y-83878571D02*
X116036901Y-83949999D01*
X116036901Y-83949999D02*
X115679758Y-83949999D01*
X115679758Y-83949999D02*
X115394043Y-83878571D01*
X115394043Y-83878571D02*
X115251186Y-83807142D01*
X115251186Y-83807142D02*
X115179758Y-83735714D01*
X115179758Y-83735714D02*
X115108329Y-83592856D01*
X115108329Y-82164285D02*
X115108329Y-82021428D01*
X115108329Y-82021428D02*
X115179758Y-81878571D01*
X115179758Y-81878571D02*
X115251186Y-81807143D01*
X115251186Y-81807143D02*
X115394043Y-81735714D01*
X115394043Y-81735714D02*
X115679758Y-81664285D01*
X115679758Y-81664285D02*
X116036901Y-81664285D01*
X116036901Y-81664285D02*
X116322615Y-81735714D01*
X116322615Y-81735714D02*
X116465472Y-81807143D01*
X116465472Y-81807143D02*
X116536901Y-81878571D01*
X116536901Y-81878571D02*
X116608329Y-82021428D01*
X116608329Y-82021428D02*
X116608329Y-82164285D01*
X116608329Y-82164285D02*
X116536901Y-82307143D01*
X116536901Y-82307143D02*
X116465472Y-82378571D01*
X116465472Y-82378571D02*
X116322615Y-82450000D01*
X116322615Y-82450000D02*
X116036901Y-82521428D01*
X116036901Y-82521428D02*
X115679758Y-82521428D01*
X115679758Y-82521428D02*
X115394043Y-82450000D01*
X115394043Y-82450000D02*
X115251186Y-82378571D01*
X115251186Y-82378571D02*
X115179758Y-82307143D01*
X115179758Y-82307143D02*
X115108329Y-82164285D01*
X116608329Y-79878572D02*
X115608329Y-79878572D01*
X115751186Y-79878572D02*
X115679758Y-79807143D01*
X115679758Y-79807143D02*
X115608329Y-79664286D01*
X115608329Y-79664286D02*
X115608329Y-79450000D01*
X115608329Y-79450000D02*
X115679758Y-79307143D01*
X115679758Y-79307143D02*
X115822615Y-79235715D01*
X115822615Y-79235715D02*
X116608329Y-79235715D01*
X115822615Y-79235715D02*
X115679758Y-79164286D01*
X115679758Y-79164286D02*
X115608329Y-79021429D01*
X115608329Y-79021429D02*
X115608329Y-78807143D01*
X115608329Y-78807143D02*
X115679758Y-78664286D01*
X115679758Y-78664286D02*
X115822615Y-78592857D01*
X115822615Y-78592857D02*
X116608329Y-78592857D01*
X116608329Y-77878572D02*
X115608329Y-77878572D01*
X115751186Y-77878572D02*
X115679758Y-77807143D01*
X115679758Y-77807143D02*
X115608329Y-77664286D01*
X115608329Y-77664286D02*
X115608329Y-77450000D01*
X115608329Y-77450000D02*
X115679758Y-77307143D01*
X115679758Y-77307143D02*
X115822615Y-77235715D01*
X115822615Y-77235715D02*
X116608329Y-77235715D01*
X115822615Y-77235715D02*
X115679758Y-77164286D01*
X115679758Y-77164286D02*
X115608329Y-77021429D01*
X115608329Y-77021429D02*
X115608329Y-76807143D01*
X115608329Y-76807143D02*
X115679758Y-76664286D01*
X115679758Y-76664286D02*
X115822615Y-76592857D01*
X115822615Y-76592857D02*
X116608329Y-76592857D01*
D12*
X122370000Y-48450000D02*
X117143581Y-48450000D01*
X122370000Y-118450000D02*
X117143581Y-118450000D01*
X117730001Y-48450000D02*
X117730001Y-118450000D01*
X117730001Y-48450000D02*
X117730001Y-118450000D01*
X117730001Y-48450000D02*
X118316422Y-49576504D01*
X117730001Y-48450000D02*
X117143580Y-49576504D01*
X117730001Y-118450000D02*
X117143580Y-117323496D01*
X117730001Y-118450000D02*
X118316422Y-117323496D01*
D13*
X169875000Y-103579999D03*
X169875000Y-100454999D03*
D14*
X147175000Y-88610000D03*
X147175000Y-89110000D03*
X147175000Y-89610000D03*
X147175000Y-90110000D03*
X147175000Y-90610000D03*
X147175000Y-91110000D03*
X147175000Y-91610000D03*
X147175000Y-92110000D03*
X147175000Y-92610000D03*
X147175000Y-93110000D03*
X147175000Y-93610000D03*
X147175000Y-94110000D03*
D15*
X147862500Y-94797500D03*
X148362500Y-94797500D03*
X148862500Y-94797500D03*
X149362500Y-94797500D03*
X149862500Y-94797500D03*
X150362500Y-94797500D03*
X150862500Y-94797500D03*
X151362500Y-94797500D03*
X151862500Y-94797500D03*
X152362500Y-94797500D03*
X152862500Y-94797500D03*
X153362500Y-94797500D03*
D14*
X154050000Y-94110000D03*
X154050000Y-93610000D03*
X154050000Y-93110000D03*
X154050000Y-92610000D03*
X154050000Y-92110000D03*
X154050000Y-91610000D03*
X154050000Y-91110000D03*
X154050000Y-90610000D03*
X154050000Y-90110000D03*
X154050000Y-89610000D03*
X154050000Y-89110000D03*
X154050000Y-88610000D03*
D15*
X153362500Y-87922500D03*
X152862500Y-87922500D03*
X152362500Y-87922500D03*
X151862500Y-87922500D03*
X151362500Y-87922500D03*
X150862500Y-87922500D03*
X150362500Y-87922500D03*
X149862500Y-87922500D03*
X149362500Y-87922500D03*
X148862500Y-87922500D03*
X148362500Y-87922500D03*
X147862500Y-87922500D03*
D16*
X150612500Y-91360000D03*
D17*
X143330000Y-51550000D03*
X141044000Y-51550000D03*
D13*
X143925000Y-114200000D03*
X143925000Y-111075000D03*
D18*
X188590000Y-93989999D03*
X188590000Y-97090001D03*
D19*
X145288000Y-94308001D03*
X145288000Y-92583001D03*
D20*
X147475000Y-110945000D03*
D21*
X148275000Y-110957500D03*
D22*
X149425000Y-111010000D03*
X150425000Y-111010000D03*
X150925000Y-111010000D03*
X151925000Y-111010000D03*
D21*
X153075000Y-110957500D03*
D20*
X153875000Y-110945000D03*
X153875000Y-110945000D03*
D21*
X153075000Y-110957500D03*
D22*
X152425000Y-111010000D03*
X151425000Y-111010000D03*
X149925000Y-111010000D03*
X148925000Y-111010000D03*
D21*
X148275000Y-110957500D03*
D20*
X147475000Y-110945000D03*
D23*
X146355000Y-111650000D03*
D24*
X146355000Y-115830000D03*
D23*
X154995000Y-111650000D03*
D24*
X154995000Y-115830000D03*
D25*
X168770000Y-89190000D03*
D26*
X130990000Y-97010000D03*
X130990000Y-100135000D03*
X149480000Y-103875000D03*
X149480000Y-107000000D03*
D13*
X157450000Y-114180000D03*
X157450000Y-111055000D03*
D27*
X186025000Y-87900000D03*
X182443600Y-87900000D03*
D28*
X170256396Y-82010000D03*
D29*
X167716396Y-82010000D03*
X165176396Y-82010000D03*
X162636396Y-82010000D03*
D30*
X128720000Y-100160000D03*
X128720000Y-97060000D03*
D13*
X188620000Y-91870000D03*
X188620000Y-88745000D03*
D31*
X143870000Y-83315002D03*
X143870000Y-85040002D03*
D32*
X171425000Y-53857500D03*
X168885000Y-53857500D03*
X166345000Y-53857500D03*
X158745000Y-53857500D03*
X156205000Y-53857500D03*
X153665000Y-53857500D03*
X151125000Y-53857500D03*
X148585000Y-53857500D03*
X146045000Y-53857500D03*
X143505000Y-53857500D03*
X140965000Y-53857500D03*
X140965000Y-77007500D03*
X143505000Y-77007500D03*
X146045000Y-77007500D03*
X148585000Y-77007500D03*
X151125000Y-77007500D03*
X153665000Y-77007500D03*
X156205000Y-77007500D03*
X158745000Y-77007500D03*
X166345000Y-77007500D03*
X168885000Y-77007500D03*
X171425000Y-77007500D03*
D33*
X126750002Y-95270698D03*
X130450000Y-95270698D03*
X130450000Y-88910000D03*
X126750002Y-88910000D03*
D34*
X172049999Y-101839999D03*
X172049999Y-103739999D03*
X173925000Y-102789999D03*
D26*
X130049999Y-72357849D03*
X130049999Y-75482849D03*
D35*
X156925000Y-101600000D03*
X153825000Y-101600000D03*
D36*
X141910000Y-81320001D03*
X141910000Y-83820001D03*
D37*
X136275000Y-84974999D03*
X136275000Y-96849999D03*
D38*
X153214999Y-96266000D03*
X154939999Y-96266000D03*
D31*
X155575000Y-86920999D03*
X155575000Y-88645999D03*
D13*
X140075000Y-89150000D03*
X140075000Y-86025000D03*
D18*
X186320000Y-95400000D03*
X186320000Y-98500002D03*
D39*
X148156001Y-86487000D03*
X146431001Y-86487000D03*
D31*
X143860000Y-80015002D03*
X143860000Y-81740002D03*
D28*
X170220000Y-95970000D03*
D29*
X167680000Y-95970000D03*
X165140001Y-95970000D03*
X162600000Y-95970000D03*
D17*
X174501400Y-85193601D03*
X174501400Y-87479601D03*
D13*
X180172501Y-87904601D03*
X180172501Y-84779601D03*
D40*
X156950000Y-99300000D03*
X153825000Y-99300000D03*
D26*
X140075000Y-92550000D03*
X140075000Y-95675000D03*
D33*
X130609999Y-77129651D03*
X126910001Y-77129651D03*
X126910001Y-83490349D03*
X130609999Y-83490349D03*
D41*
X184253899Y-91799600D03*
X184253899Y-92749600D03*
X184253899Y-93699600D03*
X186528899Y-93699600D03*
X186528899Y-92749600D03*
X186528899Y-91799600D03*
D26*
X151800000Y-103875000D03*
X151800000Y-107000000D03*
D42*
X140964466Y-103685534D03*
D43*
X142732233Y-101917767D03*
X144500000Y-100150000D03*
D44*
X162550000Y-110325000D03*
X165850000Y-110325000D03*
X165850000Y-105425000D03*
X162550000Y-105425000D03*
D18*
X127399999Y-72350349D03*
X127399999Y-75450349D03*
D13*
X176620000Y-87904601D03*
X176620000Y-84779601D03*
D25*
X164170000Y-89120000D03*
D13*
X182178899Y-95004601D03*
X182178899Y-91879601D03*
X176065000Y-103550000D03*
X176065000Y-100425000D03*
D25*
X185580000Y-73410000D03*
X185630000Y-66660000D03*
D45*
X178178899Y-91879602D03*
D46*
X178178899Y-94379602D03*
D47*
X165820000Y-104070000D03*
X143500000Y-55500000D03*
X158740000Y-55590000D03*
X171410000Y-75280000D03*
D48*
X142780000Y-80020000D03*
D47*
X171430000Y-55600000D03*
X166340000Y-55590000D03*
D49*
X178400000Y-87900000D03*
D50*
X130990000Y-98870000D03*
D47*
X153212800Y-97434400D03*
D50*
X128700000Y-71200000D03*
D49*
X173000000Y-100400000D03*
D50*
X143935000Y-109810000D03*
X184800000Y-98500000D03*
D47*
X140960000Y-55500000D03*
D50*
X157450000Y-109775000D03*
D47*
X158175000Y-100475000D03*
X168880000Y-55600000D03*
X148132800Y-85293200D03*
X140960000Y-75280000D03*
X143953364Y-93153364D03*
X156200000Y-55590000D03*
X140110000Y-90900000D03*
X156758982Y-88585382D03*
X166330000Y-75280000D03*
D48*
X142790000Y-85050000D03*
D50*
X128580000Y-88910000D03*
D49*
X169200000Y-105050000D03*
D47*
X144101591Y-94344177D03*
X156768800Y-86918800D03*
D50*
X128720000Y-98909999D03*
D49*
X170500000Y-105000000D03*
D50*
X128740000Y-83430000D03*
D47*
X146405600Y-85293200D03*
X154940000Y-97434400D03*
D50*
X149550000Y-82230000D03*
X131400000Y-76370000D03*
D49*
X174200000Y-101700000D03*
D51*
X148300000Y-109200000D03*
D49*
X174250000Y-103900000D03*
D47*
X174160000Y-98490000D03*
D51*
X153100000Y-109200000D03*
X147000000Y-51550000D03*
X145050000Y-51600000D03*
X176500000Y-82700000D03*
D50*
X188590000Y-98409999D03*
D51*
X181400000Y-82700000D03*
D47*
X162520000Y-111679999D03*
D51*
X178900000Y-82700000D03*
D47*
X153700000Y-55630000D03*
X159164136Y-89392740D03*
X157892816Y-89785000D03*
X151120000Y-55590000D03*
D52*
X152862500Y-93610000D02*
X150612500Y-91360000D01*
D53*
X169880000Y-100450000D02*
X169875000Y-100455000D01*
D54*
X184800000Y-98500000D02*
X186319998Y-98500000D01*
X186319998Y-98500000D02*
X186320000Y-98500002D01*
D53*
X148132800Y-86463798D02*
X148156002Y-86487000D01*
D52*
X147175000Y-92110000D02*
X149862500Y-92110000D01*
D55*
X176620000Y-87904601D02*
X174732800Y-87904601D01*
X178395000Y-91663501D02*
X178178899Y-91879602D01*
D52*
X148362500Y-86693498D02*
X148156002Y-86487000D01*
D53*
X172049999Y-101839999D02*
X172049999Y-100895001D01*
D55*
X178395000Y-87905000D02*
X180172102Y-87905000D01*
X178178899Y-91879602D02*
X178178899Y-88121101D01*
D53*
X176010000Y-100370000D02*
X176065000Y-100425000D01*
D55*
X176620399Y-87905000D02*
X176620000Y-87904601D01*
D52*
X148362500Y-87922500D02*
X148362500Y-86693498D01*
D53*
X143935000Y-109810000D02*
X143935000Y-111065000D01*
D52*
X149862500Y-92110000D02*
X150612500Y-91360000D01*
D55*
X174732800Y-87904601D02*
X174501400Y-87673201D01*
D56*
X145761000Y-92110000D02*
X145288000Y-92583000D01*
D53*
X156758982Y-88585382D02*
X155635618Y-88585382D01*
X176070000Y-100430000D02*
X176065000Y-100425000D01*
X165820000Y-105430000D02*
X165820000Y-104070000D01*
D52*
X152862500Y-94797500D02*
X152862500Y-93610000D01*
D53*
X144523728Y-92583000D02*
X145288000Y-92583000D01*
X171605000Y-100450000D02*
X171685000Y-100370000D01*
D55*
X178178899Y-88121101D02*
X178395000Y-87905000D01*
D53*
X171605000Y-100450000D02*
X169880000Y-100450000D01*
D56*
X147175000Y-92110000D02*
X145761000Y-92110000D01*
D53*
X143953364Y-93153364D02*
X144523728Y-92583000D01*
X157450000Y-109775000D02*
X157450000Y-111030000D01*
D52*
X152862500Y-94797500D02*
X152862500Y-95913502D01*
X152862500Y-95913502D02*
X153214998Y-96266000D01*
X154050000Y-89110000D02*
X152862500Y-89110000D01*
D53*
X155635618Y-88585382D02*
X155575000Y-88646000D01*
X153214998Y-97432202D02*
X153212800Y-97434400D01*
D52*
X148362500Y-89110000D02*
X150612500Y-91360000D01*
X152862500Y-89110000D02*
X150612500Y-91360000D01*
D55*
X178395000Y-87905000D02*
X176620399Y-87905000D01*
D53*
X153214998Y-96266000D02*
X153214998Y-97432202D01*
X171685000Y-100370000D02*
X176010000Y-100370000D01*
X148132800Y-85293200D02*
X148132800Y-86463798D01*
D52*
X155111000Y-89110000D02*
X155575000Y-88646000D01*
X154050000Y-89110000D02*
X155111000Y-89110000D01*
D53*
X172049999Y-100895001D02*
X171605000Y-100450000D01*
D52*
X148362500Y-87922500D02*
X148362500Y-89110000D01*
D55*
X180172102Y-87905000D02*
X180172501Y-87904601D01*
D52*
X141325000Y-92063604D02*
X141325000Y-94425000D01*
X141325000Y-94425000D02*
X140075000Y-95675000D01*
X142278604Y-91110000D02*
X141325000Y-92063604D01*
X147175000Y-91110000D02*
X142278604Y-91110000D01*
X143860000Y-81740002D02*
X145120000Y-83000002D01*
X145120000Y-83000002D02*
X145120000Y-88450000D01*
X145120000Y-88450000D02*
X146280000Y-89610000D01*
X146280000Y-89610000D02*
X147175000Y-89610000D01*
X144670000Y-84115002D02*
X144670000Y-86140000D01*
X144670000Y-87994000D02*
X144670000Y-88200000D01*
X144670000Y-88200000D02*
X144670000Y-88680000D01*
X143870000Y-83315002D02*
X144670000Y-84115002D01*
X143830000Y-86964000D02*
X143830000Y-87170000D01*
X144258000Y-86552000D02*
X144242000Y-86552000D01*
X146100000Y-90110000D02*
X147175000Y-90110000D01*
X144670000Y-88680000D02*
X146100000Y-90110000D01*
X144242000Y-87582000D02*
X144258000Y-87582000D01*
X143830000Y-87170000D02*
G75*
G03*
X144242000Y-87582000I412000J0D01*
G01*
X144258000Y-87582000D02*
G75*
G02*
X144670000Y-87994000I0J-412000D01*
G01*
X144670000Y-86140000D02*
G75*
G02*
X144258000Y-86552000I-412000J0D01*
G01*
X144242000Y-86552000D02*
G75*
G03*
X143830000Y-86964000I0J-412000D01*
G01*
X152787500Y-99300000D02*
X151812500Y-98325000D01*
X151812500Y-98325000D02*
X151812500Y-96000000D01*
X152362500Y-95450000D02*
X152362500Y-94797500D01*
X153825000Y-99300000D02*
X152787500Y-99300000D01*
X151812500Y-96000000D02*
X152362500Y-95450000D01*
X141400000Y-89625000D02*
X141400000Y-87350000D01*
X142385000Y-90610000D02*
X141400000Y-89625000D01*
X147175000Y-90610000D02*
X142385000Y-90610000D01*
X141400000Y-87350000D02*
X140075000Y-86025000D01*
D53*
X145242638Y-94353364D02*
X144101591Y-94353364D01*
X146405600Y-86461600D02*
X146431000Y-86487000D01*
D52*
X147175000Y-92610000D02*
X146687760Y-92610000D01*
D53*
X156768800Y-86918800D02*
X155577198Y-86918800D01*
D57*
X170035001Y-103740001D02*
X169875000Y-103580000D01*
D53*
X146405600Y-85293200D02*
X146405600Y-86461600D01*
X155577198Y-86918800D02*
X155575000Y-86920998D01*
D57*
X172049999Y-103740000D02*
X170035001Y-103740001D01*
D53*
X145288000Y-94308002D02*
X145242638Y-94353364D01*
X154940000Y-96266000D02*
X154940000Y-97434400D01*
D52*
X149862500Y-87922500D02*
X149862500Y-82542500D01*
X149862500Y-82542500D02*
X149550000Y-82230000D01*
D58*
X146040000Y-51570000D02*
X147050000Y-51570000D01*
D59*
X143330000Y-51550000D02*
X145000000Y-51550000D01*
D57*
X153075000Y-111075000D02*
X153075000Y-109215000D01*
D54*
X188590000Y-97090001D02*
X188590000Y-98409999D01*
D53*
X171640000Y-95970000D02*
X174160000Y-98490000D01*
D57*
X153075000Y-109215000D02*
X153070000Y-109210000D01*
D58*
X146045001Y-53857500D02*
X146045001Y-51575001D01*
X146045001Y-51575001D02*
X146040000Y-51570000D01*
D57*
X148275000Y-111075000D02*
X148275000Y-109215000D01*
X148275000Y-109215000D02*
X148280000Y-109210000D01*
D53*
X162520000Y-110330000D02*
X162520000Y-111679999D01*
D58*
X145020000Y-51570000D02*
X146040000Y-51570000D01*
D53*
X170220000Y-95970000D02*
X171640000Y-95970000D01*
D59*
X145000000Y-51550000D02*
X145020000Y-51570000D01*
D52*
X144330000Y-91610000D02*
X147175000Y-91610000D01*
X137830000Y-102120000D02*
X134040000Y-102120000D01*
X134040000Y-102120000D02*
X132970000Y-101050000D01*
X142680000Y-93260000D02*
X144330000Y-91610000D01*
X132970000Y-98990000D02*
X130990000Y-97010000D01*
X132970000Y-101050000D02*
X132970000Y-98990000D01*
X142680000Y-97270000D02*
X142680000Y-93260000D01*
X137830000Y-102120000D02*
X142680000Y-97270000D01*
D57*
X188528899Y-91679601D02*
X188578899Y-91629600D01*
X188549600Y-91799600D02*
X188620000Y-91870000D01*
X186528899Y-91799600D02*
X188549600Y-91799600D01*
D52*
X143504999Y-77007500D02*
X148730000Y-82232501D01*
X148730000Y-82232501D02*
X148730000Y-83930000D01*
X149362500Y-84562500D02*
X149362500Y-87922500D01*
X148730000Y-83930000D02*
X149362500Y-84562500D01*
X151125000Y-77007500D02*
X151862500Y-77745000D01*
X151862500Y-77745000D02*
X151862500Y-87922500D01*
X152812500Y-81637500D02*
X152812500Y-87872500D01*
X152812500Y-87872500D02*
X152862500Y-87922500D01*
X156642500Y-79110000D02*
X155340000Y-79110000D01*
X155340000Y-79110000D02*
X152812500Y-81637500D01*
X158745000Y-77007500D02*
X156642500Y-79110000D01*
D60*
X151362500Y-79640000D02*
X151362500Y-87922500D01*
X153665000Y-77007500D02*
X152325000Y-75667500D01*
X152325000Y-75667500D02*
X150070000Y-75667500D01*
X149825000Y-75912500D02*
X149825000Y-78102500D01*
X149825000Y-78102500D02*
X151362500Y-79640000D01*
X150070000Y-75667500D02*
X149825000Y-75912500D01*
D52*
X158234543Y-90610000D02*
X159164136Y-89680407D01*
X158056396Y-90610000D02*
X154050000Y-90610000D01*
X158056396Y-90610000D02*
X158234543Y-90610000D01*
X153720000Y-53912500D02*
X153665000Y-53857500D01*
X153720000Y-55530000D02*
X153720000Y-53912500D01*
X159164136Y-89680407D02*
X159164136Y-89392740D01*
X152362500Y-87922500D02*
X152362500Y-80849999D01*
X152362500Y-80849999D02*
X156205000Y-77007499D01*
X146045001Y-77315001D02*
X150362500Y-81632500D01*
X146045001Y-77007500D02*
X146045001Y-77315001D01*
X150362500Y-81632500D02*
X150362500Y-87922500D01*
X157426396Y-90110000D02*
X157751396Y-89785000D01*
X151130000Y-53862500D02*
X151125000Y-53857500D01*
X157751396Y-89785000D02*
X157892816Y-89785000D01*
X151130000Y-55410000D02*
X151130000Y-53862500D01*
X157426396Y-90110000D02*
X154050000Y-90110000D01*
X153362500Y-87922500D02*
X153362500Y-82307500D01*
X154835000Y-80835000D02*
X164001397Y-80835000D01*
X164001397Y-80835000D02*
X165176397Y-82010000D01*
X153362500Y-82307500D02*
X154835000Y-80835000D01*
X167716396Y-82010000D02*
X166176396Y-83550000D01*
X166176396Y-83550000D02*
X160866396Y-83550000D01*
X160866396Y-83550000D02*
X158766396Y-85650000D01*
X158766396Y-87744695D02*
X156901091Y-89610000D01*
X158766396Y-85650000D02*
X158766396Y-87744695D01*
X156901091Y-89610000D02*
X154050000Y-89610000D01*
X147862500Y-94797500D02*
X147862500Y-96787500D01*
X147862500Y-96787500D02*
X144500000Y-100150000D01*
X142732233Y-98552767D02*
X142732233Y-101917767D01*
X147175000Y-94110000D02*
X142732233Y-98552767D01*
X160780001Y-91610000D02*
X165140001Y-95970000D01*
X154050000Y-91610000D02*
X160780001Y-91610000D01*
X154050000Y-91110000D02*
X162820000Y-91110000D01*
X162820000Y-91110000D02*
X167680000Y-95970000D01*
X150682236Y-110035000D02*
X151217764Y-110035000D01*
X151425000Y-111010000D02*
X151425000Y-107375000D01*
X150425000Y-111010000D02*
X150425000Y-110292236D01*
X150425000Y-110292236D02*
X150682236Y-110035000D01*
X151425000Y-107375000D02*
X151800000Y-107000000D01*
X151425000Y-110242236D02*
X151425000Y-111010000D01*
X151217764Y-110035000D02*
X151425000Y-110242236D01*
X149925000Y-111727764D02*
X150182236Y-111985000D01*
X149925000Y-107445000D02*
X149480000Y-107000000D01*
X149925000Y-111010000D02*
X149925000Y-111727764D01*
X150182236Y-111985000D02*
X150675000Y-111985000D01*
X150925000Y-111735000D02*
X150925000Y-111010000D01*
X149925000Y-111010000D02*
X149925000Y-107445000D01*
X150675000Y-111985000D02*
X150925000Y-111735000D01*
X152425000Y-112070660D02*
X154534340Y-114180000D01*
X154534340Y-114180000D02*
X157450000Y-114180000D01*
X152425000Y-111010000D02*
X152425000Y-112070660D01*
X149425000Y-111010000D02*
X149425000Y-111727764D01*
X149425000Y-111727764D02*
X146952764Y-114200000D01*
X146952764Y-114200000D02*
X143925000Y-114200000D01*
X151362500Y-99137500D02*
X151362500Y-94797500D01*
X153825000Y-101600000D02*
X151362500Y-99137500D01*
X150362500Y-94797500D02*
X150362500Y-101727500D01*
X150362500Y-101727500D02*
X149480000Y-102610000D01*
X149480000Y-102610000D02*
X149480000Y-103875000D01*
X150862500Y-101727500D02*
X151800000Y-102665000D01*
X150862500Y-94797500D02*
X150862500Y-101727500D01*
X151800000Y-102665000D02*
X151800000Y-103875000D01*
X162450000Y-105460000D02*
X162450000Y-101022760D01*
X162450000Y-101022760D02*
X154537240Y-93110000D01*
X154537240Y-93110000D02*
X154050000Y-93110000D01*
D60*
X150862500Y-81531460D02*
X148585000Y-79253960D01*
X148585000Y-79253960D02*
X148585000Y-77007500D01*
X150862500Y-87922500D02*
X150862500Y-81531460D01*
G04 #@! TA.AperFunction,Conductor*
G36*
X147438853Y-92487215D02*
G01*
X147505419Y-92508434D01*
X147549949Y-92562276D01*
X147560000Y-92611181D01*
X147560000Y-92626000D01*
X147540315Y-92693039D01*
X147487511Y-92738794D01*
X147436000Y-92750000D01*
X146659999Y-92750000D01*
X146609586Y-92856661D01*
X146600581Y-92872562D01*
X146552261Y-92944880D01*
X146552259Y-92944885D01*
X146543879Y-92987007D01*
X146534372Y-93015798D01*
X145729025Y-94719746D01*
X145682581Y-94771945D01*
X145669715Y-94778956D01*
X145565079Y-94828197D01*
X145512280Y-94840000D01*
X145324000Y-94840000D01*
X145256961Y-94820315D01*
X145211206Y-94767511D01*
X145200000Y-94716000D01*
X145200000Y-93822738D01*
X145219685Y-93755699D01*
X145237984Y-93733422D01*
X145684643Y-93303306D01*
X145729701Y-93275587D01*
X145732475Y-93274617D01*
X145838711Y-93196212D01*
X145917116Y-93089976D01*
X145917118Y-93089968D01*
X145919154Y-93086118D01*
X145942777Y-93054733D01*
X146497891Y-92520180D01*
X146559834Y-92487858D01*
X146583902Y-92485500D01*
X147224432Y-92485500D01*
X147224435Y-92485500D01*
X147224437Y-92485499D01*
X147232496Y-92484438D01*
X147232626Y-92485428D01*
X147253249Y-92482948D01*
X147438853Y-92487215D01*
G37*
G04 #@! TD.AperFunction*
G04 #@! TA.AperFunction,Conductor*
G36*
X147654236Y-110518647D02*
G01*
X147679770Y-110536930D01*
X147734875Y-110588098D01*
X147770607Y-110648139D01*
X147774500Y-110678965D01*
X147774500Y-111412569D01*
X147754815Y-111479608D01*
X147702011Y-111525363D01*
X147674692Y-111534186D01*
X147602554Y-111548535D01*
X147602545Y-111548538D01*
X147488716Y-111595687D01*
X147488707Y-111595692D01*
X147386267Y-111664141D01*
X147386263Y-111664144D01*
X147299144Y-111751263D01*
X147299141Y-111751267D01*
X147230692Y-111853707D01*
X147230687Y-111853716D01*
X147183538Y-111967545D01*
X147183535Y-111967555D01*
X147159500Y-112088389D01*
X147159500Y-112141639D01*
X147139815Y-112208678D01*
X147124071Y-112228421D01*
X146784232Y-112575267D01*
X146726460Y-112608599D01*
X146522536Y-112660888D01*
X146452708Y-112658472D01*
X146395272Y-112618687D01*
X146368462Y-112554165D01*
X146367750Y-112542558D01*
X146341663Y-110716468D01*
X146360388Y-110649158D01*
X146412533Y-110602654D01*
X146456139Y-110591066D01*
X147585887Y-110504162D01*
X147654236Y-110518647D01*
G37*
G04 #@! TD.AperFunction*
G04 #@! TA.AperFunction,Conductor*
G36*
X182695677Y-81569685D02*
G01*
X182716319Y-81586319D01*
X183263681Y-82133681D01*
X183297166Y-82195004D01*
X183300000Y-82221362D01*
X183300000Y-90098638D01*
X183280315Y-90165677D01*
X183263681Y-90186319D01*
X183196319Y-90253681D01*
X183134996Y-90287166D01*
X183108638Y-90290000D01*
X181801362Y-90290000D01*
X181734323Y-90270315D01*
X181713681Y-90253681D01*
X181546319Y-90086319D01*
X181512834Y-90024996D01*
X181510000Y-89998638D01*
X181510000Y-87070000D01*
X180040001Y-85600001D01*
X175149100Y-85600001D01*
X173977700Y-85600001D01*
X173910661Y-85580316D01*
X173864906Y-85527512D01*
X173853700Y-85476001D01*
X173853700Y-83507662D01*
X173873385Y-83440623D01*
X173890019Y-83419981D01*
X175723681Y-81586319D01*
X175785004Y-81552834D01*
X175811362Y-81550000D01*
X182628638Y-81550000D01*
X182695677Y-81569685D01*
G37*
G04 #@! TD.AperFunction*
G04 #@! TA.AperFunction,Conductor*
G36*
X184941028Y-93295969D02*
G01*
X184962310Y-93313012D01*
X184992580Y-93343282D01*
X185026065Y-93404605D01*
X185028899Y-93430963D01*
X185028899Y-93778239D01*
X185009214Y-93845278D01*
X184992580Y-93865920D01*
X184865218Y-93993282D01*
X184803895Y-94026767D01*
X184777537Y-94029601D01*
X184528898Y-94029601D01*
X183278899Y-95279600D01*
X183278899Y-95528239D01*
X183259214Y-95595278D01*
X183242580Y-95615920D01*
X183065218Y-95793282D01*
X183003895Y-95826767D01*
X182977537Y-95829601D01*
X177930261Y-95829601D01*
X177863222Y-95809916D01*
X177842580Y-95793282D01*
X176965218Y-94915919D01*
X176931733Y-94854596D01*
X176928899Y-94828238D01*
X176928899Y-93905963D01*
X176948584Y-93838924D01*
X176965218Y-93818282D01*
X177005261Y-93778239D01*
X177425364Y-93358135D01*
X177486685Y-93324652D01*
X177512274Y-93321820D01*
X184873870Y-93276695D01*
X184941028Y-93295969D01*
G37*
G04 #@! TD.AperFunction*
G04 #@! TA.AperFunction,Conductor*
G36*
X157405870Y-98407254D02*
G01*
X157535435Y-98468627D01*
X157587594Y-98515115D01*
X157589336Y-98517997D01*
X158557984Y-100170962D01*
X158575000Y-100233655D01*
X158575000Y-100713675D01*
X158555401Y-100780582D01*
X157556862Y-102338687D01*
X157512681Y-102380175D01*
X157388087Y-102449395D01*
X157327867Y-102465000D01*
X156529988Y-102465000D01*
X156462949Y-102445315D01*
X156432766Y-102417967D01*
X156306897Y-102258975D01*
X156280719Y-102194195D01*
X156280119Y-102181666D01*
X156284163Y-100713675D01*
X156289848Y-98649820D01*
X156309718Y-98582839D01*
X156330651Y-98558219D01*
X156465176Y-98436506D01*
X156528092Y-98406127D01*
X156546952Y-98404466D01*
X157351379Y-98395325D01*
X157405870Y-98407254D01*
G37*
G04 #@! TD.AperFunction*
G04 #@! TA.AperFunction,Conductor*
G36*
X140757282Y-88509685D02*
G01*
X140775954Y-88524392D01*
X140931711Y-88673376D01*
X140966551Y-88733940D01*
X140970000Y-88762984D01*
X140970000Y-92913209D01*
X140950315Y-92980248D01*
X140939088Y-92995127D01*
X140787032Y-93167918D01*
X140727967Y-93205241D01*
X140693944Y-93210000D01*
X139436498Y-93210000D01*
X139369459Y-93190315D01*
X139342927Y-93167366D01*
X139210429Y-93014993D01*
X139181293Y-92951488D01*
X139180000Y-92933627D01*
X139180000Y-88771362D01*
X139199685Y-88704323D01*
X139216319Y-88683681D01*
X139373681Y-88526319D01*
X139435004Y-88492834D01*
X139461362Y-88490000D01*
X140690243Y-88490000D01*
X140757282Y-88509685D01*
G37*
G04 #@! TD.AperFunction*
G04 #@! TA.AperFunction,Conductor*
G36*
X174246305Y-101126208D02*
G01*
X174287576Y-101151738D01*
X174748363Y-101581806D01*
X174783942Y-101641938D01*
X174784883Y-101698995D01*
X174605000Y-102519999D01*
X174654999Y-102590000D01*
X174654998Y-102590000D01*
X174928339Y-102630001D01*
X176599765Y-102874599D01*
X176663247Y-102903783D01*
X176700873Y-102962656D01*
X176705805Y-102996353D01*
X176714152Y-104098193D01*
X176694976Y-104165379D01*
X176642520Y-104211533D01*
X176603876Y-104222371D01*
X174256653Y-104483692D01*
X174187848Y-104471546D01*
X174158326Y-104451104D01*
X173619288Y-103948002D01*
X173589711Y-103905704D01*
X173194814Y-102973176D01*
X173184999Y-102924830D01*
X173184999Y-102655654D01*
X173195179Y-102606452D01*
X173232552Y-102519999D01*
X173590605Y-101691731D01*
X173616740Y-101653259D01*
X174115292Y-101154707D01*
X174176613Y-101121224D01*
X174246305Y-101126208D01*
G37*
G04 #@! TD.AperFunction*
G04 #@! TA.AperFunction,Conductor*
G36*
X128817492Y-70822547D02*
G01*
X130718278Y-71690086D01*
X130756486Y-71717271D01*
X130913428Y-71881687D01*
X130915696Y-71884062D01*
X130947746Y-71946147D01*
X130950000Y-71969681D01*
X130950000Y-72738638D01*
X130930315Y-72805677D01*
X130913685Y-72826314D01*
X130777937Y-72962063D01*
X130756578Y-72983422D01*
X130695255Y-73016906D01*
X130668271Y-73019738D01*
X126812545Y-73000265D01*
X126745606Y-72980243D01*
X126723644Y-72962063D01*
X126564473Y-72795971D01*
X126532300Y-72733950D01*
X126530000Y-72710175D01*
X126530000Y-71942480D01*
X126545924Y-71881690D01*
X126600616Y-71784459D01*
X126650638Y-71735682D01*
X126655754Y-71733121D01*
X126725914Y-71700000D01*
X128567790Y-70830484D01*
X128614531Y-70818773D01*
X128759816Y-70811509D01*
X128817492Y-70822547D01*
G37*
G04 #@! TD.AperFunction*
G04 #@! TA.AperFunction,Conductor*
G36*
X127053367Y-94819685D02*
G01*
X127087100Y-94851745D01*
X127090840Y-94856961D01*
X127999998Y-96124998D01*
X128000000Y-96125000D01*
X130034839Y-96084839D01*
X130139878Y-94912929D01*
X130165469Y-94847916D01*
X130222147Y-94807057D01*
X130263383Y-94800000D01*
X130664812Y-94800000D01*
X130731851Y-94819685D01*
X130766956Y-94853697D01*
X131641911Y-96124999D01*
X131877744Y-96467662D01*
X131899536Y-96534047D01*
X131899591Y-96539255D01*
X131890392Y-97422347D01*
X131870010Y-97489177D01*
X131868737Y-97491076D01*
X131796697Y-97596365D01*
X131742595Y-97640577D01*
X131695012Y-97650342D01*
X128021579Y-97669675D01*
X127954436Y-97650344D01*
X127922527Y-97621133D01*
X126505601Y-95773385D01*
X126480427Y-95708208D01*
X126480000Y-95697929D01*
X126480000Y-94924000D01*
X126499685Y-94856961D01*
X126552489Y-94811206D01*
X126604000Y-94800000D01*
X126986328Y-94800000D01*
X127053367Y-94819685D01*
G37*
G04 #@! TD.AperFunction*
G04 #@! TA.AperFunction,Conductor*
G36*
X172133039Y-52849685D02*
G01*
X172178794Y-52902489D01*
X172190000Y-52954000D01*
X172190000Y-54888865D01*
X172183000Y-54929939D01*
X171870870Y-55819036D01*
X171835236Y-55871533D01*
X171651830Y-56031016D01*
X171602021Y-56057362D01*
X171467744Y-56092698D01*
X171411869Y-56094373D01*
X171268500Y-56065700D01*
X171217002Y-56042228D01*
X171049222Y-55912581D01*
X171008213Y-55856016D01*
X171007943Y-55855247D01*
X170686850Y-54929744D01*
X170680000Y-54889100D01*
X170680000Y-52954000D01*
X170699685Y-52886961D01*
X170752489Y-52841206D01*
X170804000Y-52830000D01*
X172066000Y-52830000D01*
X172133039Y-52849685D01*
G37*
G04 #@! TD.AperFunction*
G04 #@! TA.AperFunction,Conductor*
G36*
X187546173Y-85894683D02*
G01*
X187564860Y-85909403D01*
X189590618Y-87847377D01*
X189625452Y-87907943D01*
X189628899Y-87936977D01*
X189628899Y-89429616D01*
X189609214Y-89496655D01*
X189556410Y-89542410D01*
X189524895Y-89551993D01*
X187978900Y-89804600D01*
X187978899Y-89804601D01*
X187253899Y-90192101D01*
X186528898Y-90579601D01*
X185678899Y-91429600D01*
X185678899Y-91519541D01*
X185676035Y-91538506D01*
X185677214Y-91538678D01*
X185675826Y-91548207D01*
X185665899Y-91616340D01*
X185665899Y-91982860D01*
X185675826Y-92050992D01*
X185677215Y-92060525D01*
X185676034Y-92060697D01*
X185678899Y-92079660D01*
X185678899Y-92469541D01*
X185676035Y-92488506D01*
X185677214Y-92488678D01*
X185665899Y-92566339D01*
X185665899Y-92791239D01*
X185646214Y-92858278D01*
X185629580Y-92878920D01*
X185465218Y-93043282D01*
X185403895Y-93076767D01*
X185377537Y-93079601D01*
X184942187Y-93079601D01*
X184925297Y-93078445D01*
X184872610Y-93071199D01*
X184872608Y-93071199D01*
X183729626Y-93078204D01*
X183662467Y-93058930D01*
X183641185Y-93041887D01*
X183465218Y-92865919D01*
X183431733Y-92804596D01*
X183428899Y-92778246D01*
X183428899Y-92571579D01*
X183448584Y-92504542D01*
X183465210Y-92483908D01*
X183577701Y-92371417D01*
X183639022Y-92337935D01*
X183665380Y-92335101D01*
X184627538Y-92335101D01*
X184630079Y-92334964D01*
X184649506Y-92333923D01*
X184649513Y-92333922D01*
X184649517Y-92333922D01*
X184661619Y-92332620D01*
X184675864Y-92331089D01*
X184752381Y-92307130D01*
X184752382Y-92307128D01*
X184756739Y-92305765D01*
X184793792Y-92300100D01*
X184799660Y-92300100D01*
X184822370Y-92296791D01*
X184867792Y-92290173D01*
X184972882Y-92238798D01*
X185055597Y-92156083D01*
X185106972Y-92050993D01*
X185109476Y-92033805D01*
X185123186Y-92003931D01*
X185119459Y-92002388D01*
X185128897Y-91979602D01*
X185128899Y-91979601D01*
X185128899Y-91875359D01*
X185130161Y-91857712D01*
X185134399Y-91828237D01*
X185134399Y-91530962D01*
X185134244Y-91528088D01*
X185133221Y-91508994D01*
X185130387Y-91482636D01*
X185129736Y-91476580D01*
X185130318Y-91476517D01*
X185128899Y-91462717D01*
X185128899Y-89429616D01*
X185128899Y-86162566D01*
X185145272Y-86100988D01*
X185238772Y-85937591D01*
X185289152Y-85889183D01*
X185346385Y-85875179D01*
X187479132Y-85875004D01*
X187546173Y-85894683D01*
G37*
G04 #@! TD.AperFunction*
G04 #@! TA.AperFunction,Conductor*
G36*
X130823039Y-83039685D02*
G01*
X130868794Y-83092489D01*
X130880000Y-83144000D01*
X130880000Y-83835706D01*
X130860315Y-83902745D01*
X130807511Y-83948500D01*
X130755708Y-83959706D01*
X126763708Y-83950291D01*
X126696715Y-83930448D01*
X126651084Y-83877536D01*
X126640000Y-83826291D01*
X126640000Y-83144000D01*
X126659685Y-83076961D01*
X126712489Y-83031206D01*
X126764000Y-83020000D01*
X130756000Y-83020000D01*
X130823039Y-83039685D01*
G37*
G04 #@! TD.AperFunction*
G04 #@! TA.AperFunction,Conductor*
G36*
X146982522Y-86429685D02*
G01*
X147006855Y-86450172D01*
X147525600Y-87015605D01*
X147533997Y-87025798D01*
X147542786Y-87037707D01*
X147542897Y-87037818D01*
X147560462Y-87053604D01*
X147954665Y-87483285D01*
X147978420Y-87521051D01*
X147981128Y-87527821D01*
X147990000Y-87573879D01*
X147990000Y-88235500D01*
X147970315Y-88302539D01*
X147917511Y-88348294D01*
X147866000Y-88359500D01*
X147823065Y-88359500D01*
X147756026Y-88339815D01*
X147745340Y-88332117D01*
X146005690Y-86932622D01*
X145979110Y-86903060D01*
X145918713Y-86809109D01*
X145899065Y-86745406D01*
X145893442Y-86537350D01*
X145911308Y-86469803D01*
X145962857Y-86422638D01*
X146017397Y-86410000D01*
X146915483Y-86410000D01*
X146982522Y-86429685D01*
G37*
G04 #@! TD.AperFunction*
G04 #@! TA.AperFunction,Conductor*
G36*
X130689003Y-74819744D02*
G01*
X130755942Y-74839764D01*
X130776061Y-74856061D01*
X130940800Y-75020800D01*
X130957086Y-75040902D01*
X131580505Y-76000009D01*
X131600525Y-76065765D01*
X131609339Y-76665099D01*
X131590642Y-76732420D01*
X131581756Y-76744911D01*
X130927526Y-77553613D01*
X130870058Y-77593353D01*
X130830334Y-77599620D01*
X130821948Y-77599567D01*
X130396173Y-77596863D01*
X130329260Y-77576753D01*
X130283842Y-77523660D01*
X130278799Y-77510463D01*
X129909708Y-76350000D01*
X127724999Y-76350000D01*
X127256179Y-77522052D01*
X127213005Y-77576986D01*
X127146984Y-77599858D01*
X127141048Y-77600000D01*
X126749233Y-77600000D01*
X126682194Y-77580315D01*
X126636439Y-77527511D01*
X126625328Y-77480859D01*
X126531943Y-75099549D01*
X126548986Y-75031790D01*
X126562751Y-75012782D01*
X126712724Y-74842358D01*
X126771785Y-74805039D01*
X126806423Y-74800282D01*
X130689003Y-74819744D01*
G37*
G04 #@! TD.AperFunction*
G04 #@! TA.AperFunction,Conductor*
G36*
X159443039Y-52839685D02*
G01*
X159488794Y-52892489D01*
X159500000Y-52944000D01*
X159500000Y-54878865D01*
X159493000Y-54919939D01*
X159180870Y-55809036D01*
X159145236Y-55861533D01*
X158961830Y-56021016D01*
X158912021Y-56047362D01*
X158777744Y-56082698D01*
X158721869Y-56084373D01*
X158578500Y-56055700D01*
X158527002Y-56032228D01*
X158359222Y-55902581D01*
X158318213Y-55846016D01*
X158317943Y-55845247D01*
X157996850Y-54919744D01*
X157990000Y-54879100D01*
X157990000Y-52944000D01*
X158009685Y-52876961D01*
X158062489Y-52831206D01*
X158114000Y-52820000D01*
X159376000Y-52820000D01*
X159443039Y-52839685D01*
G37*
G04 #@! TD.AperFunction*
G04 #@! TA.AperFunction,Conductor*
G36*
X189415677Y-93219685D02*
G01*
X189436319Y-93236319D01*
X189663681Y-93463681D01*
X189697166Y-93525004D01*
X189700000Y-93551362D01*
X189700000Y-94448638D01*
X189680315Y-94515677D01*
X189663681Y-94536319D01*
X188536319Y-95663681D01*
X188474996Y-95697166D01*
X188448638Y-95700000D01*
X187900000Y-95700000D01*
X187400001Y-95999998D01*
X187037230Y-96453462D01*
X186979979Y-96493514D01*
X186940402Y-96500000D01*
X185759598Y-96500000D01*
X185692559Y-96480315D01*
X185662770Y-96453462D01*
X185327172Y-96033965D01*
X185300664Y-95969319D01*
X185300000Y-95956503D01*
X185300000Y-93751362D01*
X185319685Y-93684323D01*
X185336319Y-93663681D01*
X185536319Y-93463681D01*
X185748178Y-93251821D01*
X185809499Y-93218338D01*
X185879190Y-93223322D01*
X185890318Y-93228104D01*
X185915006Y-93240173D01*
X185983138Y-93250100D01*
X185983139Y-93250100D01*
X187074660Y-93250100D01*
X187111062Y-93244796D01*
X187142792Y-93240173D01*
X187199196Y-93212599D01*
X187253656Y-93200000D01*
X189348638Y-93200000D01*
X189415677Y-93219685D01*
G37*
G04 #@! TD.AperFunction*
G04 #@! TA.AperFunction,Conductor*
G36*
X140997743Y-74787300D02*
G01*
X141100336Y-74814299D01*
X141132021Y-74822637D01*
X141181830Y-74848983D01*
X141365236Y-75008466D01*
X141400870Y-75060963D01*
X141713000Y-75950060D01*
X141720000Y-75991134D01*
X141720000Y-77926000D01*
X141700315Y-77993039D01*
X141647511Y-78038794D01*
X141596000Y-78050000D01*
X140334000Y-78050000D01*
X140266961Y-78030315D01*
X140221206Y-77977511D01*
X140210000Y-77926000D01*
X140210000Y-75990899D01*
X140216850Y-75950255D01*
X140216918Y-75950060D01*
X140537895Y-75024888D01*
X140578465Y-74968007D01*
X140578917Y-74967654D01*
X140747005Y-74837768D01*
X140798496Y-74814300D01*
X140941869Y-74785626D01*
X140997743Y-74787300D01*
G37*
G04 #@! TD.AperFunction*
G04 #@! TA.AperFunction,Conductor*
G36*
X153475583Y-94380185D02*
G01*
X153484052Y-94386141D01*
X155390652Y-95849794D01*
X155431842Y-95906231D01*
X155437657Y-95929009D01*
X155457634Y-96056856D01*
X155448536Y-96126131D01*
X155403429Y-96179490D01*
X155336634Y-96199991D01*
X155335121Y-96200000D01*
X154445972Y-96200000D01*
X154378933Y-96180315D01*
X154365138Y-96170031D01*
X154314071Y-96126131D01*
X153285971Y-95242326D01*
X153249168Y-95187504D01*
X153246362Y-95179085D01*
X153240000Y-95139877D01*
X153240000Y-94484500D01*
X153259685Y-94417461D01*
X153312489Y-94371706D01*
X153364000Y-94360500D01*
X153408544Y-94360500D01*
X153475583Y-94380185D01*
G37*
G04 #@! TD.AperFunction*
G04 #@! TA.AperFunction,Conductor*
G36*
X137299289Y-92937410D02*
G01*
X140809362Y-95023954D01*
X140856930Y-95075130D01*
X140870000Y-95130543D01*
X140870000Y-96246427D01*
X140850315Y-96313466D01*
X140842744Y-96323994D01*
X137307229Y-100733567D01*
X137249935Y-100773557D01*
X137210485Y-100780000D01*
X135404000Y-100780000D01*
X135336961Y-100760315D01*
X135291206Y-100707511D01*
X135280000Y-100656000D01*
X135280000Y-93044000D01*
X135299685Y-92976961D01*
X135352489Y-92931206D01*
X135404000Y-92920000D01*
X137235928Y-92920000D01*
X137299289Y-92937410D01*
G37*
G04 #@! TD.AperFunction*
G04 #@! TA.AperFunction,Conductor*
G36*
X142879474Y-80776646D02*
G01*
X144095810Y-81191744D01*
X144138949Y-81217145D01*
X144289194Y-81353081D01*
X144325699Y-81412653D01*
X144330000Y-81445029D01*
X144330000Y-81986857D01*
X144310315Y-82053896D01*
X144303222Y-82063824D01*
X144177234Y-82222967D01*
X144120189Y-82263311D01*
X144080012Y-82270000D01*
X143619305Y-82270000D01*
X143600798Y-82268611D01*
X141065493Y-81885923D01*
X141002142Y-81856453D01*
X140964781Y-81797412D01*
X140960000Y-81763312D01*
X140960000Y-80894000D01*
X140979685Y-80826961D01*
X141032489Y-80781206D01*
X141084000Y-80770000D01*
X142839425Y-80770000D01*
X142879474Y-80776646D01*
G37*
G04 #@! TD.AperFunction*
G04 #@! TA.AperFunction,Conductor*
G36*
X137278622Y-81059685D02*
G01*
X137307196Y-81085043D01*
X140891613Y-85425624D01*
X140919122Y-85489851D01*
X140920000Y-85504581D01*
X140920000Y-86512044D01*
X140900315Y-86579083D01*
X140862721Y-86616564D01*
X137300516Y-88890520D01*
X137233795Y-88910000D01*
X135404000Y-88910000D01*
X135336961Y-88890315D01*
X135291206Y-88837511D01*
X135280000Y-88786000D01*
X135280000Y-81164000D01*
X135299685Y-81096961D01*
X135352489Y-81051206D01*
X135404000Y-81040000D01*
X137211583Y-81040000D01*
X137278622Y-81059685D01*
G37*
G04 #@! TD.AperFunction*
G04 #@! TA.AperFunction,Conductor*
G36*
X169583039Y-52849685D02*
G01*
X169628794Y-52902489D01*
X169640000Y-52954000D01*
X169640000Y-54888865D01*
X169633000Y-54929939D01*
X169320870Y-55819036D01*
X169285236Y-55871533D01*
X169101830Y-56031016D01*
X169052021Y-56057362D01*
X168917744Y-56092698D01*
X168861869Y-56094373D01*
X168718500Y-56065700D01*
X168667002Y-56042228D01*
X168499222Y-55912581D01*
X168458213Y-55856016D01*
X168457943Y-55855247D01*
X168136850Y-54929744D01*
X168130000Y-54889100D01*
X168130000Y-52954000D01*
X168149685Y-52886961D01*
X168202489Y-52841206D01*
X168254000Y-52830000D01*
X169516000Y-52830000D01*
X169583039Y-52849685D01*
G37*
G04 #@! TD.AperFunction*
G04 #@! TA.AperFunction,Conductor*
G36*
X154893859Y-110591066D02*
G01*
X154959192Y-110615835D01*
X155000762Y-110671992D01*
X155008336Y-110716472D01*
X154982249Y-112542545D01*
X154961609Y-112609297D01*
X154908157Y-112654293D01*
X154838864Y-112663247D01*
X154827463Y-112660888D01*
X154623539Y-112608599D01*
X154565767Y-112575267D01*
X154225929Y-112228421D01*
X154193071Y-112166759D01*
X154190500Y-112141639D01*
X154190500Y-112088393D01*
X154190499Y-112088389D01*
X154166464Y-111967555D01*
X154166463Y-111967548D01*
X154128020Y-111874739D01*
X154119312Y-111853716D01*
X154119307Y-111853707D01*
X154050858Y-111751267D01*
X154050855Y-111751263D01*
X153963736Y-111664144D01*
X153963732Y-111664141D01*
X153861292Y-111595692D01*
X153861283Y-111595687D01*
X153747454Y-111548538D01*
X153747456Y-111548538D01*
X153747452Y-111548537D01*
X153747449Y-111548536D01*
X153747445Y-111548535D01*
X153675308Y-111534186D01*
X153613397Y-111501801D01*
X153578823Y-111441085D01*
X153575500Y-111412569D01*
X153575500Y-110678965D01*
X153595185Y-110611926D01*
X153615124Y-110588099D01*
X153670228Y-110536931D01*
X153732749Y-110505738D01*
X153764109Y-110504162D01*
X154893859Y-110591066D01*
G37*
G04 #@! TD.AperFunction*
G04 #@! TA.AperFunction,Conductor*
G36*
X170557144Y-102929685D02*
G01*
X170569487Y-102938740D01*
X170730382Y-103072818D01*
X170769282Y-103130858D01*
X170775000Y-103168078D01*
X170775000Y-103810001D01*
X171104260Y-104957706D01*
X171103826Y-105027574D01*
X171070473Y-105081800D01*
X170560107Y-105566647D01*
X170497946Y-105598549D01*
X170476581Y-105600733D01*
X169259313Y-105619177D01*
X169191983Y-105600510D01*
X169167571Y-105580635D01*
X169151980Y-105564238D01*
X168668682Y-105055941D01*
X168636754Y-104993795D01*
X168636662Y-104947691D01*
X168967166Y-103181849D01*
X168998847Y-103119578D01*
X169006880Y-103111797D01*
X169199816Y-102941123D01*
X169263071Y-102911449D01*
X169281975Y-102910000D01*
X170490105Y-102910000D01*
X170557144Y-102929685D01*
G37*
G04 #@! TD.AperFunction*
G04 #@! TA.AperFunction,Conductor*
G36*
X131045743Y-98506973D02*
G01*
X131264723Y-98612930D01*
X131316496Y-98659849D01*
X131319061Y-98664244D01*
X131845471Y-99609999D01*
X131874347Y-99661877D01*
X131890000Y-99722183D01*
X131890000Y-100515708D01*
X131870315Y-100582747D01*
X131850107Y-100606824D01*
X131665624Y-100777116D01*
X131603011Y-100808123D01*
X131581517Y-100810000D01*
X130389886Y-100810000D01*
X130322847Y-100790315D01*
X130304012Y-100775452D01*
X130128126Y-100606600D01*
X130093397Y-100545972D01*
X130090000Y-100517148D01*
X130090000Y-99763135D01*
X130092753Y-99737153D01*
X130116057Y-99628403D01*
X130129229Y-99593593D01*
X130641769Y-98682409D01*
X130691791Y-98633631D01*
X130692951Y-98633025D01*
X130934950Y-98508359D01*
X131003559Y-98495158D01*
X131045743Y-98506973D01*
G37*
G04 #@! TD.AperFunction*
G04 #@! TA.AperFunction,Conductor*
G36*
X167043039Y-52839685D02*
G01*
X167088794Y-52892489D01*
X167100000Y-52944000D01*
X167100000Y-54878865D01*
X167093000Y-54919939D01*
X166780870Y-55809036D01*
X166745236Y-55861533D01*
X166561830Y-56021016D01*
X166512021Y-56047362D01*
X166377744Y-56082698D01*
X166321869Y-56084373D01*
X166178500Y-56055700D01*
X166127002Y-56032228D01*
X165959222Y-55902581D01*
X165918213Y-55846016D01*
X165917943Y-55845247D01*
X165596850Y-54919744D01*
X165590000Y-54879100D01*
X165590000Y-52944000D01*
X165609685Y-52876961D01*
X165662489Y-52831206D01*
X165714000Y-52820000D01*
X166976000Y-52820000D01*
X167043039Y-52839685D01*
G37*
G04 #@! TD.AperFunction*
G04 #@! TA.AperFunction,Conductor*
G36*
X184244576Y-90799286D02*
G01*
X184265218Y-90815920D01*
X184892580Y-91443282D01*
X184926065Y-91504605D01*
X184928899Y-91530963D01*
X184928899Y-91828239D01*
X184909214Y-91895278D01*
X184892580Y-91915920D01*
X184715218Y-92093282D01*
X184653895Y-92126767D01*
X184627537Y-92129601D01*
X183528898Y-92129601D01*
X182715217Y-92943282D01*
X182653894Y-92976767D01*
X182627536Y-92979601D01*
X177380261Y-92979601D01*
X177313222Y-92959916D01*
X177292580Y-92943282D01*
X176915218Y-92565920D01*
X176881733Y-92504597D01*
X176878899Y-92478239D01*
X176878899Y-91280963D01*
X176898584Y-91213924D01*
X176915218Y-91193282D01*
X177292580Y-90815920D01*
X177353903Y-90782435D01*
X177380261Y-90779601D01*
X184177537Y-90779601D01*
X184244576Y-90799286D01*
G37*
G04 #@! TD.AperFunction*
G04 #@! TA.AperFunction,Conductor*
G36*
X171447743Y-74787300D02*
G01*
X171550336Y-74814299D01*
X171582021Y-74822637D01*
X171631830Y-74848983D01*
X171815236Y-75008466D01*
X171850870Y-75060963D01*
X172163000Y-75950060D01*
X172170000Y-75991134D01*
X172170000Y-77926000D01*
X172150315Y-77993039D01*
X172097511Y-78038794D01*
X172046000Y-78050000D01*
X170784000Y-78050000D01*
X170716961Y-78030315D01*
X170671206Y-77977511D01*
X170660000Y-77926000D01*
X170660000Y-75990899D01*
X170666850Y-75950255D01*
X170666918Y-75950060D01*
X170987895Y-75024888D01*
X171028465Y-74968007D01*
X171028917Y-74967654D01*
X171197005Y-74837768D01*
X171248496Y-74814300D01*
X171391869Y-74785626D01*
X171447743Y-74787300D01*
G37*
G04 #@! TD.AperFunction*
G04 #@! TA.AperFunction,Conductor*
G36*
X166367743Y-74787300D02*
G01*
X166470336Y-74814299D01*
X166502021Y-74822637D01*
X166551830Y-74848983D01*
X166735236Y-75008466D01*
X166770870Y-75060963D01*
X167083000Y-75950060D01*
X167090000Y-75991134D01*
X167090000Y-77926000D01*
X167070315Y-77993039D01*
X167017511Y-78038794D01*
X166966000Y-78050000D01*
X165704000Y-78050000D01*
X165636961Y-78030315D01*
X165591206Y-77977511D01*
X165580000Y-77926000D01*
X165580000Y-75990899D01*
X165586850Y-75950255D01*
X165586918Y-75950060D01*
X165907895Y-75024888D01*
X165948465Y-74968007D01*
X165948917Y-74967654D01*
X166117005Y-74837768D01*
X166168496Y-74814300D01*
X166311869Y-74785626D01*
X166367743Y-74787300D01*
G37*
G04 #@! TD.AperFunction*
G04 #@! TA.AperFunction,Conductor*
G36*
X156903039Y-52839685D02*
G01*
X156948794Y-52892489D01*
X156960000Y-52944000D01*
X156960000Y-54878865D01*
X156953000Y-54919939D01*
X156640870Y-55809036D01*
X156605236Y-55861533D01*
X156421830Y-56021016D01*
X156372021Y-56047362D01*
X156237744Y-56082698D01*
X156181869Y-56084373D01*
X156038500Y-56055700D01*
X155987002Y-56032228D01*
X155819222Y-55902581D01*
X155778213Y-55846016D01*
X155777943Y-55845247D01*
X155456850Y-54919744D01*
X155450000Y-54879100D01*
X155450000Y-52944000D01*
X155469685Y-52876961D01*
X155522489Y-52831206D01*
X155574000Y-52820000D01*
X156836000Y-52820000D01*
X156903039Y-52839685D01*
G37*
G04 #@! TD.AperFunction*
G04 #@! TA.AperFunction,Conductor*
G36*
X128755743Y-98506973D02*
G01*
X128974722Y-98612930D01*
X129026495Y-98659849D01*
X129029055Y-98664235D01*
X129584347Y-99661879D01*
X129600000Y-99722183D01*
X129600000Y-100515708D01*
X129580315Y-100582747D01*
X129560107Y-100606824D01*
X129375624Y-100777116D01*
X129313011Y-100808123D01*
X129291517Y-100810000D01*
X128099886Y-100810000D01*
X128032847Y-100790315D01*
X128014012Y-100775452D01*
X127838126Y-100606600D01*
X127803397Y-100545972D01*
X127800000Y-100517148D01*
X127800000Y-99763138D01*
X127802752Y-99737157D01*
X127812857Y-99690000D01*
X127826057Y-99628396D01*
X127839225Y-99593597D01*
X128351769Y-98682409D01*
X128401791Y-98633632D01*
X128403056Y-98632971D01*
X128644948Y-98508359D01*
X128713558Y-98495158D01*
X128755743Y-98506973D01*
G37*
G04 #@! TD.AperFunction*
G04 #@! TA.AperFunction,Conductor*
G36*
X144145677Y-82799685D02*
G01*
X144166319Y-82816319D01*
X144303681Y-82953681D01*
X144337166Y-83015004D01*
X144340000Y-83041362D01*
X144340000Y-83563407D01*
X144320315Y-83630446D01*
X144309319Y-83645062D01*
X144149260Y-83827986D01*
X144102927Y-83861084D01*
X142882584Y-84360753D01*
X142835598Y-84370000D01*
X141084000Y-84370000D01*
X141016961Y-84350315D01*
X140971206Y-84297511D01*
X140960000Y-84246000D01*
X140960000Y-83373102D01*
X140979685Y-83306063D01*
X141032489Y-83260308D01*
X141061363Y-83251186D01*
X143588783Y-82782082D01*
X143611412Y-82780000D01*
X144078638Y-82780000D01*
X144145677Y-82799685D01*
G37*
G04 #@! TD.AperFunction*
G04 #@! TA.AperFunction,Conductor*
G36*
X144127358Y-79499685D02*
G01*
X144145935Y-79514301D01*
X144291619Y-79653364D01*
X144326521Y-79713891D01*
X144330000Y-79743059D01*
X144330000Y-80270243D01*
X144310315Y-80337282D01*
X144295608Y-80355955D01*
X144146623Y-80511712D01*
X144086058Y-80546551D01*
X144057015Y-80550000D01*
X143629860Y-80550000D01*
X143610269Y-80548443D01*
X142675328Y-80398852D01*
X142612241Y-80368823D01*
X142590078Y-80342624D01*
X142426852Y-80084183D01*
X142407697Y-80016991D01*
X142427909Y-79950108D01*
X142434352Y-79941153D01*
X142650237Y-79667698D01*
X142707226Y-79627279D01*
X142727384Y-79622189D01*
X143579984Y-79481651D01*
X143600151Y-79480000D01*
X144060319Y-79480000D01*
X144127358Y-79499685D01*
G37*
G04 #@! TD.AperFunction*
G04 #@! TA.AperFunction,Conductor*
G36*
X130633039Y-88409685D02*
G01*
X130678794Y-88462489D01*
X130690000Y-88514000D01*
X130690000Y-89206000D01*
X130670315Y-89273039D01*
X130617511Y-89318794D01*
X130566000Y-89330000D01*
X127319999Y-89330000D01*
X126574001Y-89330000D01*
X126506962Y-89310315D01*
X126461207Y-89257511D01*
X126450001Y-89206000D01*
X126450000Y-88514000D01*
X126469684Y-88446961D01*
X126522488Y-88401206D01*
X126573995Y-88390000D01*
X130566000Y-88390000D01*
X130633039Y-88409685D01*
G37*
G04 #@! TD.AperFunction*
G04 #@! TA.AperFunction,Conductor*
G36*
X155423039Y-86409685D02*
G01*
X155468794Y-86462489D01*
X155480000Y-86514000D01*
X155480000Y-87416435D01*
X155460315Y-87483474D01*
X155452753Y-87493991D01*
X154506641Y-88674288D01*
X154449352Y-88714285D01*
X154411419Y-88720723D01*
X153745531Y-88728944D01*
X153678253Y-88710088D01*
X153631850Y-88657853D01*
X153620000Y-88604953D01*
X153620000Y-88561227D01*
X153639685Y-88494188D01*
X153644684Y-88486981D01*
X154387016Y-87493991D01*
X155142415Y-86483521D01*
X155186273Y-86446863D01*
X155230047Y-86424976D01*
X155273819Y-86403091D01*
X155329272Y-86390000D01*
X155356000Y-86390000D01*
X155423039Y-86409685D01*
G37*
G04 #@! TD.AperFunction*
G04 #@! TA.AperFunction,Conductor*
G36*
X144137358Y-84519685D02*
G01*
X144155935Y-84534301D01*
X144301619Y-84673364D01*
X144336521Y-84733891D01*
X144340000Y-84763059D01*
X144340000Y-85290243D01*
X144320315Y-85357282D01*
X144305608Y-85375955D01*
X144156623Y-85531712D01*
X144096058Y-85566551D01*
X144067015Y-85570000D01*
X143639860Y-85570000D01*
X143620269Y-85568443D01*
X142685328Y-85418852D01*
X142622241Y-85388823D01*
X142600078Y-85362624D01*
X142436852Y-85104183D01*
X142417697Y-85036991D01*
X142437909Y-84970108D01*
X142444352Y-84961153D01*
X142660237Y-84687698D01*
X142717226Y-84647279D01*
X142737384Y-84642189D01*
X143589984Y-84501651D01*
X143610151Y-84500000D01*
X144070319Y-84500000D01*
X144137358Y-84519685D01*
G37*
G04 #@! TD.AperFunction*
G04 #@! TA.AperFunction,Conductor*
G36*
X141343039Y-51209685D02*
G01*
X141388794Y-51262489D01*
X141400000Y-51314000D01*
X141400000Y-52150000D01*
X141760000Y-52510000D01*
X144168638Y-52510000D01*
X144235677Y-52529685D01*
X144256319Y-52546319D01*
X144403681Y-52693681D01*
X144437166Y-52755004D01*
X144440000Y-52781362D01*
X144440000Y-55338638D01*
X144420315Y-55405677D01*
X144403681Y-55426319D01*
X143776319Y-56053681D01*
X143714996Y-56087166D01*
X143688638Y-56090000D01*
X140771362Y-56090000D01*
X140704323Y-56070315D01*
X140683681Y-56053681D01*
X140036319Y-55406319D01*
X140002834Y-55344996D01*
X140000000Y-55318638D01*
X140000000Y-51941362D01*
X140019685Y-51874323D01*
X140036319Y-51853681D01*
X140663681Y-51226319D01*
X140725004Y-51192834D01*
X140751362Y-51190000D01*
X141276000Y-51190000D01*
X141343039Y-51209685D01*
G37*
G04 #@! TD.AperFunction*
G04 #@! TA.AperFunction,Conductor*
G36*
X149938963Y-82229972D02*
G01*
X149947228Y-82233420D01*
X149950616Y-82241019D01*
X149986809Y-82888206D01*
X149983849Y-82896657D01*
X149975780Y-82900541D01*
X149975127Y-82900559D01*
X149741701Y-82900559D01*
X149734259Y-82897887D01*
X149277078Y-82521021D01*
X149272874Y-82513114D01*
X149275492Y-82504551D01*
X149276212Y-82503755D01*
X149546559Y-82232452D01*
X149554824Y-82229012D01*
X149938963Y-82229972D01*
G37*
G04 #@! TD.AperFunction*
G04 #@! TA.AperFunction,Conductor*
G36*
X153845306Y-54637405D02*
G01*
X153847919Y-54641390D01*
X154157734Y-55427980D01*
X154157577Y-55436934D01*
X154151345Y-55443069D01*
X153704497Y-55629127D01*
X153695543Y-55629144D01*
X153695503Y-55629127D01*
X153249112Y-55443259D01*
X153242791Y-55436915D01*
X153242808Y-55427961D01*
X153242897Y-55427751D01*
X153591914Y-54640933D01*
X153598401Y-54634761D01*
X153602609Y-54633978D01*
X153837033Y-54633978D01*
X153845306Y-54637405D01*
G37*
G04 #@! TD.AperFunction*
G04 #@! TA.AperFunction,Conductor*
G36*
X151255391Y-54595416D02*
G01*
X151257961Y-54599294D01*
X151577586Y-55387916D01*
X151577518Y-55396871D01*
X151571240Y-55403112D01*
X151124497Y-55589127D01*
X151115543Y-55589144D01*
X151115503Y-55589127D01*
X150801296Y-55458298D01*
X150668986Y-55403207D01*
X150662666Y-55396864D01*
X150662683Y-55387910D01*
X150662700Y-55387868D01*
X151001956Y-54599065D01*
X151008373Y-54592820D01*
X151012704Y-54591989D01*
X151247118Y-54591989D01*
X151255391Y-54595416D01*
G37*
G04 #@! TD.AperFunction*
M02*
