M48
; DRILL file {KiCad 8.0.5} date 2025-03-07T10:13:10-0800
; FORMAT={-:-/ absolute / metric / decimal}
; #@! TF.CreationDate,2025-03-07T10:13:10-08:00
; #@! TF.GenerationSoftware,Kicad,Pcbnew,8.0.5
; #@! TF.FileFunction,Plated,1,4,PTH
FMAT,2
METRIC
; #@! TA.AperFunction,Plated,PTH,ViaDrill
T1C0.300
; #@! TA.AperFunction,Plated,PTH,ViaDrill
T2C0.400
; #@! TA.AperFunction,Plated,PTH,ViaDrill
T3C0.500
; #@! TA.AperFunction,Plated,PTH,ViaDrill
T4C0.600
; #@! TA.AperFunction,Plated,PTH,ComponentDrill
T5C0.600
; #@! TA.AperFunction,Plated,PTH,ViaDrill
T6C0.800
; #@! TA.AperFunction,Plated,PTH,ComponentDrill
T7C0.950
; #@! TA.AperFunction,Plated,PTH,ComponentDrill
T8C1.000
%
G90
G05
T1
X128.58Y-88.91
X128.7Y-71.2
X128.72Y-98.91
X128.74Y-83.43
X130.99Y-98.87
X131.4Y-76.37
X143.935Y-109.81
X149.55Y-82.23
X157.45Y-109.775
X184.8Y-98.5
X188.59Y-98.41
T2
X142.78Y-80.02
X142.79Y-85.05
X174.16Y-98.49
T3
X140.11Y-90.9
X140.96Y-55.5
X140.96Y-75.28
X143.5Y-55.5
X143.953Y-93.153
X144.102Y-94.344
X146.406Y-85.293
X148.133Y-85.293
X151.12Y-55.59
X153.213Y-97.434
X153.7Y-55.63
X154.94Y-97.434
X156.2Y-55.59
X156.759Y-88.585
X156.769Y-86.919
X157.893Y-89.785
X158.175Y-100.475
X158.74Y-55.59
X159.164Y-89.393
X162.52Y-111.68
X165.82Y-104.07
X166.33Y-75.28
X166.34Y-55.59
X168.88Y-55.6
X171.41Y-75.28
X171.43Y-55.6
T4
X169.2Y-105.05
X170.5Y-105.0
X173.0Y-100.4
X174.2Y-101.7
X174.25Y-103.9
X178.4Y-87.9
T6
X145.05Y-51.6
X147.0Y-51.55
X148.3Y-109.2
X153.1Y-109.2
X176.5Y-82.7
X178.9Y-82.7
X181.4Y-82.7
T7
X140.964Y-103.686
X142.732Y-101.918
X144.5Y-100.15
T8
X162.6Y-95.97
X162.636Y-82.01
X164.17Y-89.12
X165.14Y-95.97
X165.176Y-82.01
X167.68Y-95.97
X167.716Y-82.01
X168.77Y-89.19
X170.22Y-95.97
X170.256Y-82.01
X178.179Y-91.88
X178.179Y-94.38
X185.58Y-73.41
X185.63Y-66.66
T5
X146.355Y-111.1G85X146.355Y-112.2
G05
X146.355Y-115.53G85X146.355Y-116.13
G05
X154.995Y-111.1G85X154.995Y-112.2
G05
X154.995Y-115.53G85X154.995Y-116.13
G05
M30
