G04 #@! TF.GenerationSoftware,KiCad,Pcbnew,9.0.3*
G04 #@! TF.CreationDate,2025-07-24T20:29:09-07:00*
G04 #@! TF.ProjectId,Telemetry PCB V2,54656c65-6d65-4747-9279-205043422056,rev?*
G04 #@! TF.SameCoordinates,Original*
G04 #@! TF.FileFunction,Legend,Top*
G04 #@! TF.FilePolarity,Positive*
%FSLAX46Y46*%
G04 Gerber Fmt 4.6, Leading zero omitted, Abs format (unit mm)*
G04 Created by KiCad (PCBNEW 9.0.3) date 2025-07-24 20:29:09*
%MOMM*%
%LPD*%
G01*
G04 APERTURE LIST*
G04 Aperture macros list*
%AMRoundRect*
0 Rectangle with rounded corners*
0 $1 Rounding radius*
0 $2 $3 $4 $5 $6 $7 $8 $9 X,Y pos of 4 corners*
0 Add a 4 corners polygon primitive as box body*
4,1,4,$2,$3,$4,$5,$6,$7,$8,$9,$2,$3,0*
0 Add four circle primitives for the rounded corners*
1,1,$1+$1,$2,$3*
1,1,$1+$1,$4,$5*
1,1,$1+$1,$6,$7*
1,1,$1+$1,$8,$9*
0 Add four rect primitives between the rounded corners*
20,1,$1+$1,$2,$3,$4,$5,0*
20,1,$1+$1,$4,$5,$6,$7,0*
20,1,$1+$1,$6,$7,$8,$9,0*
20,1,$1+$1,$8,$9,$2,$3,0*%
G04 Aperture macros list end*
%ADD10C,0.201288*%
%ADD11C,0.000000*%
%ADD12C,0.180000*%
%ADD13C,0.200000*%
%ADD14C,0.120000*%
%ADD15C,0.152400*%
%ADD16C,0.127000*%
%ADD17C,0.300000*%
%ADD18RoundRect,0.250000X0.650000X-0.412500X0.650000X0.412500X-0.650000X0.412500X-0.650000X-0.412500X0*%
%ADD19RoundRect,0.062500X-0.375000X-0.062500X0.375000X-0.062500X0.375000X0.062500X-0.375000X0.062500X0*%
%ADD20RoundRect,0.062500X-0.062500X-0.375000X0.062500X-0.375000X0.062500X0.375000X-0.062500X0.375000X0*%
%ADD21R,5.600000X5.600000*%
%ADD22R,0.711200X0.711200*%
%ADD23RoundRect,0.250000X-0.625000X0.400000X-0.625000X-0.400000X0.625000X-0.400000X0.625000X0.400000X0*%
%ADD24RoundRect,0.237500X0.237500X-0.300000X0.237500X0.300000X-0.237500X0.300000X-0.237500X-0.300000X0*%
%ADD25R,0.950500X0.558800*%
%ADD26C,0.650000*%
%ADD27RoundRect,0.150000X-0.150000X-0.435000X0.150000X-0.435000X0.150000X0.435000X-0.150000X0.435000X0*%
%ADD28RoundRect,0.150000X-0.150000X-0.447500X0.150000X-0.447500X0.150000X0.447500X-0.150000X0.447500X0*%
%ADD29RoundRect,0.075000X-0.075000X-0.575000X0.075000X-0.575000X0.075000X0.575000X-0.075000X0.575000X0*%
%ADD30O,1.000000X2.100000*%
%ADD31O,1.000000X1.600000*%
%ADD32RoundRect,0.250000X-0.650000X0.412500X-0.650000X-0.412500X0.650000X-0.412500X0.650000X0.412500X0*%
%ADD33R,1.498600X3.987800*%
%ADD34R,1.700000X1.700000*%
%ADD35O,1.700000X1.700000*%
%ADD36RoundRect,0.250000X0.625000X-0.400000X0.625000X0.400000X-0.625000X0.400000X-0.625000X-0.400000X0*%
%ADD37RoundRect,0.237500X-0.237500X0.300000X-0.237500X-0.300000X0.237500X-0.300000X0.237500X0.300000X0*%
%ADD38RoundRect,0.102000X0.755000X-1.040000X0.755000X1.040000X-0.755000X1.040000X-0.755000X-1.040000X0*%
%ADD39RoundRect,0.150000X-0.587500X-0.150000X0.587500X-0.150000X0.587500X0.150000X-0.587500X0.150000X0*%
%ADD40RoundRect,0.250000X-0.600000X-0.750000X0.600000X-0.750000X0.600000X0.750000X-0.600000X0.750000X0*%
%ADD41O,1.700000X2.000000*%
%ADD42RoundRect,0.250000X-0.312500X-0.625000X0.312500X-0.625000X0.312500X0.625000X-0.312500X0.625000X0*%
%ADD43RoundRect,0.102000X-0.950000X0.550000X-0.950000X-0.550000X0.950000X-0.550000X0.950000X0.550000X0*%
%ADD44R,2.000000X7.875000*%
%ADD45RoundRect,0.237500X-0.300000X-0.237500X0.300000X-0.237500X0.300000X0.237500X-0.300000X0.237500X0*%
%ADD46RoundRect,0.237500X0.300000X0.237500X-0.300000X0.237500X-0.300000X-0.237500X0.300000X-0.237500X0*%
%ADD47RoundRect,0.150000X-0.512500X-0.150000X0.512500X-0.150000X0.512500X0.150000X-0.512500X0.150000X0*%
%ADD48RoundRect,0.250000X0.375000X0.625000X-0.375000X0.625000X-0.375000X-0.625000X0.375000X-0.625000X0*%
%ADD49RoundRect,0.250000X-0.600000X-0.725000X0.600000X-0.725000X0.600000X0.725000X-0.600000X0.725000X0*%
%ADD50O,1.700000X1.950000*%
%ADD51RoundRect,0.090000X0.660000X0.360000X-0.660000X0.360000X-0.660000X-0.360000X0.660000X-0.360000X0*%
%ADD52C,2.000000*%
%ADD53RoundRect,0.250000X-0.750000X0.600000X-0.750000X-0.600000X0.750000X-0.600000X0.750000X0.600000X0*%
%ADD54O,2.000000X1.700000*%
G04 APERTURE END LIST*
D10*
X165011260Y-89716771D02*
X165027045Y-89717626D01*
X165042491Y-89719003D01*
X165057580Y-89720904D01*
X165072291Y-89723326D01*
X165067203Y-89751933D01*
X165061113Y-89783379D01*
X165054251Y-89817115D01*
X165046848Y-89852591D01*
X165029881Y-89934258D01*
X165022179Y-89973578D01*
X165015723Y-90009870D01*
X165013065Y-90026823D01*
X165011863Y-90035283D01*
X165010774Y-90043670D01*
X165009816Y-90051940D01*
X165009012Y-90060046D01*
X165008381Y-90067942D01*
X165007944Y-90075582D01*
X165007800Y-90079357D01*
X165007706Y-90083414D01*
X165007684Y-90087719D01*
X165007755Y-90092240D01*
X165007939Y-90096943D01*
X165008258Y-90101796D01*
X165008732Y-90106766D01*
X165009383Y-90111819D01*
X165009924Y-90115328D01*
X165010941Y-90120676D01*
X165011689Y-90123941D01*
X165012627Y-90127547D01*
X165013781Y-90131454D01*
X165015172Y-90135624D01*
X165016827Y-90140016D01*
X165018767Y-90144590D01*
X165021018Y-90149309D01*
X165023602Y-90154131D01*
X165025027Y-90156569D01*
X165026545Y-90159018D01*
X165028158Y-90161473D01*
X165029869Y-90163929D01*
X165031681Y-90166382D01*
X165033598Y-90168826D01*
X165035623Y-90171256D01*
X165037757Y-90173668D01*
X165038304Y-90174990D01*
X165038903Y-90176514D01*
X165039550Y-90178246D01*
X165040244Y-90180193D01*
X165040982Y-90182360D01*
X165041761Y-90184753D01*
X165042578Y-90187378D01*
X165043430Y-90190242D01*
X165045594Y-90198032D01*
X165047719Y-90206402D01*
X165049809Y-90215327D01*
X165051873Y-90224784D01*
X165053915Y-90234748D01*
X165055943Y-90245196D01*
X165059982Y-90267447D01*
X165067671Y-90313082D01*
X165071633Y-90336456D01*
X165075487Y-90357956D01*
X165079350Y-90377546D01*
X165081827Y-90388673D01*
X165084734Y-90400300D01*
X165088122Y-90412134D01*
X165090013Y-90418039D01*
X165092042Y-90423887D01*
X165094218Y-90429640D01*
X165096545Y-90435265D01*
X165099030Y-90440722D01*
X165101680Y-90445977D01*
X165103633Y-90449482D01*
X165104727Y-90451317D01*
X165105902Y-90453201D01*
X165107160Y-90455126D01*
X165108502Y-90457086D01*
X165109929Y-90459077D01*
X165111444Y-90461092D01*
X165113047Y-90463124D01*
X165114741Y-90465169D01*
X165116527Y-90467220D01*
X165118406Y-90469270D01*
X165120380Y-90471316D01*
X165122451Y-90473349D01*
X165124621Y-90475365D01*
X165126890Y-90477357D01*
X165114201Y-90494466D01*
X165101105Y-90511693D01*
X165087602Y-90529034D01*
X165073693Y-90546487D01*
X165059377Y-90564049D01*
X165044654Y-90581718D01*
X165029524Y-90599490D01*
X165013987Y-90617364D01*
X164981308Y-90652963D01*
X164946036Y-90688429D01*
X164908394Y-90723701D01*
X164868607Y-90758717D01*
X164826898Y-90793418D01*
X164783493Y-90827742D01*
X164738614Y-90861628D01*
X164692487Y-90895015D01*
X164645334Y-90927842D01*
X164597381Y-90960048D01*
X164499968Y-91022355D01*
X164402040Y-91081447D01*
X164305391Y-91136836D01*
X164256694Y-91163763D01*
X164209389Y-91189336D01*
X164163754Y-91213490D01*
X164120067Y-91236161D01*
X164148247Y-91176596D01*
X164162312Y-91145780D01*
X164176232Y-91114435D01*
X164189910Y-91082683D01*
X164203249Y-91050645D01*
X164216153Y-91018441D01*
X164228524Y-90986193D01*
X164237458Y-90961885D01*
X164246048Y-90937515D01*
X164254245Y-90913140D01*
X164261999Y-90888820D01*
X164269258Y-90864612D01*
X164275973Y-90840575D01*
X164282093Y-90816768D01*
X164287568Y-90793248D01*
X164292320Y-90770235D01*
X164296429Y-90747063D01*
X164299787Y-90723833D01*
X164302283Y-90700645D01*
X164303174Y-90689099D01*
X164303808Y-90677601D01*
X164304173Y-90666164D01*
X164304253Y-90654801D01*
X164304037Y-90643524D01*
X164303508Y-90632346D01*
X164302656Y-90621279D01*
X164301464Y-90610337D01*
X164299865Y-90599228D01*
X164297821Y-90588006D01*
X164295300Y-90576716D01*
X164292272Y-90565405D01*
X164288706Y-90554121D01*
X164284571Y-90542911D01*
X164279835Y-90531823D01*
X164274467Y-90520902D01*
X164268437Y-90510197D01*
X164261713Y-90499754D01*
X164254265Y-90489620D01*
X164246060Y-90479844D01*
X164237068Y-90470471D01*
X164227259Y-90461549D01*
X164216600Y-90453125D01*
X164205061Y-90445247D01*
X164200472Y-90442428D01*
X164195837Y-90439747D01*
X164191155Y-90437204D01*
X164186429Y-90434794D01*
X164181660Y-90432518D01*
X164176850Y-90430372D01*
X164172001Y-90428353D01*
X164167113Y-90426462D01*
X164173981Y-90412280D01*
X164181289Y-90397500D01*
X164189041Y-90382150D01*
X164197240Y-90366253D01*
X164221218Y-90321566D01*
X164248426Y-90273744D01*
X164278946Y-90223236D01*
X164312861Y-90170492D01*
X164350254Y-90115961D01*
X164370281Y-90088167D01*
X164391209Y-90060094D01*
X164413047Y-90031800D01*
X164435807Y-90003340D01*
X164459499Y-89974770D01*
X164484133Y-89946147D01*
X164498899Y-89930017D01*
X164514572Y-89914258D01*
X164531105Y-89898898D01*
X164548448Y-89883963D01*
X164566555Y-89869480D01*
X164585379Y-89855477D01*
X164604871Y-89841978D01*
X164624983Y-89829013D01*
X164645669Y-89816606D01*
X164666881Y-89804786D01*
X164688571Y-89793578D01*
X164710691Y-89783010D01*
X164733193Y-89773108D01*
X164756031Y-89763899D01*
X164779156Y-89755410D01*
X164802521Y-89747668D01*
X164820851Y-89742173D01*
X164839075Y-89737211D01*
X164857175Y-89732783D01*
X164875131Y-89728886D01*
X164892923Y-89725522D01*
X164910533Y-89722687D01*
X164927940Y-89720382D01*
X164945125Y-89718606D01*
X164962070Y-89717358D01*
X164978753Y-89716636D01*
X164995157Y-89716441D01*
X165011260Y-89716771D01*
D11*
G36*
X167423108Y-86659312D02*
G01*
X167441631Y-86660774D01*
X167459993Y-86663331D01*
X167478157Y-86666905D01*
X167496080Y-86671415D01*
X167513723Y-86676781D01*
X167531046Y-86682922D01*
X167548008Y-86689758D01*
X167564569Y-86697208D01*
X167596328Y-86713633D01*
X167626001Y-86731552D01*
X167653266Y-86750323D01*
X167677801Y-86769305D01*
X167699284Y-86787854D01*
X167717393Y-86805329D01*
X167701247Y-86818059D01*
X167683268Y-86830508D01*
X167663683Y-86842595D01*
X167642721Y-86854243D01*
X167620608Y-86865371D01*
X167597572Y-86875901D01*
X167573840Y-86885754D01*
X167549639Y-86894850D01*
X167525196Y-86903112D01*
X167500739Y-86910459D01*
X167476496Y-86916812D01*
X167452692Y-86922094D01*
X167429557Y-86926223D01*
X167407316Y-86929123D01*
X167386198Y-86930713D01*
X167366429Y-86930914D01*
X167358714Y-86921194D01*
X167351542Y-86911043D01*
X167344945Y-86900479D01*
X167338959Y-86889523D01*
X167333617Y-86878192D01*
X167328951Y-86866506D01*
X167324997Y-86854485D01*
X167321787Y-86842148D01*
X167319356Y-86829514D01*
X167317736Y-86816602D01*
X167316962Y-86803431D01*
X167317067Y-86790022D01*
X167318085Y-86776393D01*
X167320050Y-86762562D01*
X167322995Y-86748551D01*
X167326953Y-86734377D01*
X167318472Y-86734522D01*
X167310133Y-86734905D01*
X167301925Y-86735510D01*
X167293841Y-86736322D01*
X167285870Y-86737326D01*
X167278003Y-86738505D01*
X167270231Y-86739845D01*
X167262546Y-86741329D01*
X167247395Y-86744669D01*
X167232477Y-86748401D01*
X167217718Y-86752401D01*
X167203043Y-86756543D01*
X167220342Y-86738581D01*
X167237963Y-86722679D01*
X167255868Y-86708758D01*
X167274015Y-86696736D01*
X167292365Y-86686534D01*
X167310877Y-86678070D01*
X167329512Y-86671265D01*
X167348228Y-86666039D01*
X167366986Y-86662311D01*
X167385746Y-86660001D01*
X167404466Y-86659028D01*
X167423108Y-86659312D01*
G37*
G36*
X165129703Y-87498466D02*
G01*
X165130447Y-87500508D01*
X165130321Y-87502001D01*
X165129202Y-87502861D01*
X165126969Y-87503003D01*
X165123498Y-87502345D01*
X165119252Y-87500989D01*
X165127339Y-87494925D01*
X165129703Y-87498466D01*
G37*
G36*
X166296901Y-89042478D02*
G01*
X166258435Y-89143959D01*
X166212944Y-89269158D01*
X166165253Y-89408339D01*
X166142091Y-89480130D01*
X166120187Y-89551766D01*
X166100147Y-89622030D01*
X166082571Y-89689704D01*
X166068064Y-89753572D01*
X166057229Y-89812417D01*
X165981907Y-90310257D01*
X165936466Y-90287286D01*
X165887462Y-90260536D01*
X165858663Y-90243917D01*
X165827865Y-90225353D01*
X165795719Y-90205009D01*
X165762875Y-90183047D01*
X165729981Y-90159632D01*
X165697688Y-90134927D01*
X165666646Y-90109095D01*
X165637504Y-90082300D01*
X165623848Y-90068592D01*
X165610912Y-90054705D01*
X165598775Y-90040659D01*
X165587519Y-90026475D01*
X165574154Y-90008124D01*
X165561767Y-89989830D01*
X165550342Y-89971748D01*
X165539863Y-89954033D01*
X165530314Y-89936843D01*
X165521678Y-89920331D01*
X165507086Y-89889966D01*
X165495958Y-89864183D01*
X165488167Y-89844226D01*
X165482088Y-89826768D01*
X165681467Y-89540467D01*
X165677889Y-89572135D01*
X165675193Y-89607741D01*
X165674136Y-89629326D01*
X165673472Y-89652991D01*
X165673346Y-89678403D01*
X165673909Y-89705232D01*
X165675308Y-89733145D01*
X165677690Y-89761812D01*
X165681204Y-89790900D01*
X165685999Y-89820078D01*
X165688922Y-89834597D01*
X165692221Y-89849014D01*
X165695914Y-89863288D01*
X165700020Y-89877377D01*
X165703425Y-89887384D01*
X165707506Y-89897617D01*
X165717491Y-89918618D01*
X165729563Y-89940094D01*
X165743310Y-89961761D01*
X165758322Y-89983333D01*
X165774187Y-90004526D01*
X165790493Y-90025053D01*
X165806829Y-90044631D01*
X165837947Y-90079795D01*
X165864249Y-90107736D01*
X165889239Y-90132827D01*
X165894139Y-90070772D01*
X165900121Y-90003296D01*
X165908328Y-89920493D01*
X165918665Y-89829093D01*
X165931035Y-89735822D01*
X165937953Y-89690588D01*
X165945343Y-89647411D01*
X165953193Y-89607130D01*
X165961492Y-89570587D01*
X165984299Y-89487489D01*
X166011222Y-89402321D01*
X166040055Y-89319136D01*
X166068591Y-89241987D01*
X166115953Y-89122009D01*
X166135662Y-89074811D01*
X166333464Y-88949610D01*
X166296901Y-89042478D01*
G37*
G36*
X164475928Y-87338549D02*
G01*
X164526250Y-87340195D01*
X164577257Y-87342837D01*
X164628934Y-87346479D01*
X164703543Y-87353023D01*
X164777791Y-87360792D01*
X164851750Y-87369852D01*
X164925492Y-87380272D01*
X164999090Y-87392115D01*
X165072617Y-87405451D01*
X165146146Y-87420344D01*
X165219748Y-87436861D01*
X165204998Y-87446375D01*
X165191764Y-87454018D01*
X165179960Y-87459925D01*
X165169505Y-87464233D01*
X165160313Y-87467075D01*
X165152301Y-87468588D01*
X165145385Y-87468906D01*
X165139481Y-87468164D01*
X165134505Y-87466498D01*
X165130374Y-87464043D01*
X165127002Y-87460935D01*
X165124308Y-87457308D01*
X165122205Y-87453297D01*
X165120612Y-87449039D01*
X165118615Y-87440318D01*
X165117035Y-87425849D01*
X165116109Y-87422264D01*
X165115319Y-87421857D01*
X165114198Y-87422555D01*
X165110630Y-87427802D01*
X165104735Y-87439089D01*
X165083276Y-87484105D01*
X165104429Y-87494725D01*
X165118666Y-87500802D01*
X165119252Y-87500989D01*
X165114242Y-87504745D01*
X165114420Y-87504714D01*
X165114959Y-87504819D01*
X165115326Y-87505181D01*
X165115497Y-87505831D01*
X165115447Y-87506798D01*
X165115150Y-87508114D01*
X165113717Y-87511910D01*
X165110999Y-87517463D01*
X165106796Y-87525015D01*
X165100908Y-87534809D01*
X165093135Y-87547087D01*
X165083276Y-87562093D01*
X165058323Y-87545675D01*
X165037808Y-87531842D01*
X165010936Y-87513346D01*
X165102771Y-87513346D01*
X165114242Y-87504745D01*
X165113735Y-87504835D01*
X165112026Y-87505637D01*
X165110031Y-87506981D01*
X165107950Y-87508625D01*
X165102771Y-87513346D01*
X165010936Y-87513346D01*
X165008796Y-87511873D01*
X164999646Y-87505706D01*
X164993635Y-87502063D01*
X164991704Y-87501183D01*
X164990436Y-87500929D01*
X164989790Y-87501298D01*
X164989725Y-87502288D01*
X164991175Y-87506126D01*
X164994462Y-87512426D01*
X165005246Y-87532353D01*
X165012091Y-87545949D01*
X165019472Y-87561946D01*
X165027064Y-87580329D01*
X165034540Y-87601082D01*
X165052746Y-87590290D01*
X165067326Y-87580083D01*
X165078535Y-87570819D01*
X165080283Y-87569099D01*
X165077734Y-87573464D01*
X165070180Y-87588746D01*
X165061826Y-87608540D01*
X165052931Y-87633203D01*
X165043749Y-87663092D01*
X165034540Y-87698565D01*
X164931761Y-87681510D01*
X164831584Y-87669282D01*
X164734237Y-87661871D01*
X164639949Y-87659267D01*
X164548949Y-87661460D01*
X164461464Y-87668438D01*
X164419113Y-87673719D01*
X164377725Y-87680192D01*
X164337332Y-87687857D01*
X164297960Y-87696712D01*
X164259639Y-87706755D01*
X164222398Y-87717986D01*
X164186264Y-87730403D01*
X164151267Y-87744005D01*
X164117434Y-87758791D01*
X164084795Y-87774758D01*
X164053379Y-87791907D01*
X164023213Y-87810235D01*
X163994327Y-87829742D01*
X163966748Y-87850426D01*
X163940506Y-87872285D01*
X163915630Y-87895319D01*
X163892147Y-87919527D01*
X163870086Y-87944906D01*
X163849476Y-87971455D01*
X163830346Y-87999174D01*
X163800110Y-88051456D01*
X163775447Y-88106413D01*
X163756271Y-88163901D01*
X163742496Y-88223777D01*
X163734037Y-88285897D01*
X163730806Y-88350117D01*
X163732718Y-88416294D01*
X163739687Y-88484283D01*
X163751627Y-88553942D01*
X163768451Y-88625127D01*
X163790074Y-88697693D01*
X163816410Y-88771497D01*
X163847372Y-88846396D01*
X163882874Y-88922245D01*
X163922830Y-88998902D01*
X163967155Y-89076222D01*
X164068565Y-89232276D01*
X164186415Y-89389259D01*
X164320016Y-89546022D01*
X164468680Y-89701414D01*
X164631718Y-89854286D01*
X164808441Y-90003488D01*
X164998161Y-90147871D01*
X165200190Y-90286285D01*
X165408813Y-90414552D01*
X165617883Y-90529145D01*
X165826069Y-90629905D01*
X166032040Y-90716669D01*
X166234468Y-90789277D01*
X166432020Y-90847566D01*
X166528553Y-90871291D01*
X166623367Y-90891376D01*
X166716298Y-90907800D01*
X166807179Y-90920544D01*
X166895844Y-90929588D01*
X166982126Y-90934911D01*
X167065858Y-90936493D01*
X167146876Y-90934313D01*
X167225012Y-90928353D01*
X167300100Y-90918590D01*
X167371974Y-90905006D01*
X167440467Y-90887581D01*
X167505414Y-90866293D01*
X167566648Y-90841123D01*
X167624002Y-90812051D01*
X167677311Y-90779056D01*
X167726408Y-90742118D01*
X167771126Y-90701218D01*
X167811301Y-90656334D01*
X167846764Y-90607447D01*
X167870768Y-90567015D01*
X167891386Y-90524945D01*
X167908661Y-90481305D01*
X167922632Y-90436161D01*
X167933340Y-90389583D01*
X167940827Y-90341636D01*
X167945131Y-90292390D01*
X167946295Y-90241912D01*
X167944359Y-90190269D01*
X167939363Y-90137529D01*
X167931349Y-90083760D01*
X167920357Y-90029030D01*
X167906427Y-89973405D01*
X167889601Y-89916954D01*
X167869918Y-89859745D01*
X167847421Y-89801844D01*
X167873749Y-89773962D01*
X167901416Y-89743715D01*
X167930311Y-89711081D01*
X167960323Y-89676042D01*
X167991342Y-89638578D01*
X168023255Y-89598667D01*
X168055953Y-89556290D01*
X168089324Y-89511427D01*
X168109205Y-89544355D01*
X168128580Y-89577303D01*
X168147411Y-89610266D01*
X168165661Y-89643242D01*
X168219555Y-89747464D01*
X168267241Y-89850514D01*
X168308707Y-89952225D01*
X168343940Y-90052431D01*
X168372927Y-90150967D01*
X168395655Y-90247665D01*
X168412112Y-90342359D01*
X168422285Y-90434885D01*
X168426160Y-90525074D01*
X168423726Y-90612761D01*
X168414969Y-90697781D01*
X168399877Y-90779966D01*
X168378436Y-90859151D01*
X168365331Y-90897566D01*
X168350634Y-90935169D01*
X168334344Y-90971938D01*
X168316459Y-91007854D01*
X168296977Y-91042895D01*
X168275897Y-91077040D01*
X168229190Y-91142237D01*
X168176689Y-91203022D01*
X168118550Y-91259340D01*
X168054932Y-91311134D01*
X167985990Y-91358350D01*
X167911882Y-91400930D01*
X167832765Y-91438820D01*
X167748796Y-91471963D01*
X167660132Y-91500303D01*
X167566930Y-91523784D01*
X167469348Y-91542352D01*
X167367541Y-91555948D01*
X167261668Y-91564519D01*
X167151886Y-91568007D01*
X167038351Y-91566357D01*
X166921220Y-91559513D01*
X166801267Y-91547490D01*
X166679328Y-91530400D01*
X166555637Y-91508331D01*
X166430431Y-91481371D01*
X166303942Y-91449606D01*
X166176407Y-91413123D01*
X166048060Y-91372010D01*
X165919136Y-91326353D01*
X165789869Y-91276240D01*
X165660495Y-91221758D01*
X165531247Y-91162994D01*
X165402362Y-91100035D01*
X165274074Y-91032968D01*
X165146617Y-90961880D01*
X165020226Y-90886859D01*
X164895136Y-90807991D01*
X164772207Y-90725794D01*
X164652263Y-90640845D01*
X164535479Y-90553321D01*
X164422029Y-90463401D01*
X164312090Y-90371266D01*
X164205835Y-90277094D01*
X164103441Y-90181064D01*
X164005082Y-90083355D01*
X163910933Y-89984147D01*
X163821170Y-89883618D01*
X163735967Y-89781947D01*
X163655500Y-89679314D01*
X163579944Y-89575898D01*
X163509474Y-89471877D01*
X163444265Y-89367431D01*
X163384492Y-89262740D01*
X163330599Y-89158519D01*
X163282912Y-89055471D01*
X163241446Y-88953760D01*
X163206213Y-88853555D01*
X163177226Y-88755020D01*
X163154498Y-88658321D01*
X163138041Y-88563627D01*
X163127869Y-88471101D01*
X163123993Y-88380911D01*
X163126428Y-88293223D01*
X163135185Y-88208203D01*
X163150277Y-88126017D01*
X163171718Y-88046832D01*
X163184823Y-88008416D01*
X163199519Y-87970813D01*
X163215809Y-87934043D01*
X163233695Y-87898128D01*
X163253176Y-87863087D01*
X163274256Y-87828941D01*
X163315569Y-87770664D01*
X163361492Y-87715880D01*
X163411913Y-87664629D01*
X163466723Y-87616952D01*
X163525809Y-87572886D01*
X163589061Y-87532473D01*
X163656368Y-87495751D01*
X163727619Y-87462761D01*
X163802704Y-87433541D01*
X163881511Y-87408130D01*
X163963929Y-87386570D01*
X164049847Y-87368899D01*
X164139155Y-87355156D01*
X164231741Y-87345382D01*
X164327495Y-87339615D01*
X164426305Y-87337896D01*
X164475928Y-87338549D01*
G37*
G36*
X165094939Y-87550967D02*
G01*
X165094513Y-87552248D01*
X165091872Y-87556544D01*
X165086631Y-87562853D01*
X165080283Y-87569099D01*
X165084231Y-87562339D01*
X165089414Y-87555011D01*
X165093027Y-87551125D01*
X165094164Y-87550361D01*
X165094813Y-87550323D01*
X165094939Y-87550967D01*
G37*
G36*
X167317881Y-86265703D02*
G01*
X167336594Y-86266256D01*
X167355240Y-86267255D01*
X167373670Y-86268697D01*
X167391737Y-86270579D01*
X167409291Y-86272898D01*
X167426184Y-86275653D01*
X167442268Y-86278839D01*
X167457393Y-86282454D01*
X167471705Y-86286477D01*
X167486623Y-86291132D01*
X167502047Y-86296370D01*
X167517874Y-86302146D01*
X167550331Y-86315120D01*
X167583180Y-86329680D01*
X167615605Y-86345448D01*
X167646793Y-86362050D01*
X167661668Y-86370545D01*
X167675928Y-86379108D01*
X167689471Y-86387691D01*
X167702196Y-86396247D01*
X167713236Y-86404367D01*
X167726458Y-86414846D01*
X167741363Y-86427250D01*
X167757451Y-86441139D01*
X167774224Y-86456078D01*
X167791183Y-86471630D01*
X167807828Y-86487357D01*
X167823661Y-86502822D01*
X167839378Y-86518028D01*
X167856106Y-86533408D01*
X167892350Y-86564511D01*
X167931894Y-86595775D01*
X167974242Y-86626847D01*
X168018896Y-86657371D01*
X168065359Y-86686993D01*
X168113134Y-86715357D01*
X168161724Y-86742110D01*
X168193305Y-86758871D01*
X168219489Y-86772898D01*
X168237548Y-86782761D01*
X168242676Y-86785686D01*
X168244117Y-86786568D01*
X168244750Y-86787034D01*
X168244796Y-86787171D01*
X168244710Y-86787375D01*
X168244153Y-86787980D01*
X168241588Y-86789919D01*
X168237255Y-86792732D01*
X168231355Y-86796298D01*
X168224086Y-86800499D01*
X168215649Y-86805212D01*
X168206242Y-86810319D01*
X168196067Y-86815699D01*
X168171978Y-86828780D01*
X168147884Y-86842684D01*
X168123898Y-86857314D01*
X168100131Y-86872572D01*
X168076697Y-86888362D01*
X168053708Y-86904586D01*
X168031277Y-86921147D01*
X168009516Y-86937948D01*
X167988538Y-86954891D01*
X167968456Y-86971879D01*
X167949382Y-86988815D01*
X167931428Y-87005601D01*
X167914708Y-87022141D01*
X167899334Y-87038336D01*
X167885419Y-87054090D01*
X167873074Y-87069306D01*
X167850254Y-87100759D01*
X167830785Y-87131638D01*
X167814435Y-87162149D01*
X167800967Y-87192498D01*
X167790149Y-87222890D01*
X167781746Y-87253532D01*
X167775523Y-87284629D01*
X167771247Y-87316388D01*
X167768682Y-87349014D01*
X167767596Y-87382713D01*
X167767753Y-87417691D01*
X167768919Y-87454155D01*
X167772026Y-87505021D01*
X167786040Y-87505625D01*
X167810123Y-87507657D01*
X167834053Y-87510703D01*
X167857809Y-87514788D01*
X167881371Y-87519940D01*
X167904716Y-87526184D01*
X167927825Y-87533547D01*
X167950676Y-87542054D01*
X167973247Y-87551732D01*
X167995518Y-87562606D01*
X168017468Y-87574704D01*
X168039075Y-87588052D01*
X168060318Y-87602675D01*
X168081177Y-87618599D01*
X168101629Y-87635851D01*
X168121655Y-87654457D01*
X168141232Y-87674443D01*
X168160340Y-87695836D01*
X168178957Y-87718661D01*
X168197063Y-87742944D01*
X168214636Y-87768712D01*
X168231656Y-87795992D01*
X168248100Y-87824808D01*
X168263949Y-87855188D01*
X168279180Y-87887157D01*
X168293773Y-87920741D01*
X168312815Y-87972949D01*
X168327382Y-88026374D01*
X168337758Y-88080853D01*
X168344228Y-88136223D01*
X168347080Y-88192322D01*
X168346597Y-88248985D01*
X168343066Y-88306049D01*
X168336771Y-88363352D01*
X168327999Y-88420730D01*
X168317035Y-88478019D01*
X168304164Y-88535056D01*
X168289672Y-88591679D01*
X168256967Y-88703027D01*
X168221203Y-88810757D01*
X168187458Y-88899573D01*
X168147606Y-88989320D01*
X168102095Y-89079532D01*
X168051371Y-89169744D01*
X167995882Y-89259491D01*
X167936075Y-89348308D01*
X167872399Y-89435729D01*
X167805300Y-89521289D01*
X167735226Y-89604523D01*
X167662625Y-89684965D01*
X167587944Y-89762150D01*
X167511630Y-89835613D01*
X167434132Y-89904888D01*
X167355896Y-89969511D01*
X167277369Y-90029016D01*
X167199001Y-90082937D01*
X167126268Y-90128525D01*
X167054070Y-90170190D01*
X166982417Y-90208140D01*
X166911320Y-90242580D01*
X166840790Y-90273716D01*
X166770837Y-90301755D01*
X166701471Y-90326902D01*
X166632703Y-90349363D01*
X166564543Y-90369346D01*
X166497001Y-90387055D01*
X166430089Y-90402697D01*
X166363816Y-90416477D01*
X166233231Y-90439280D01*
X166105330Y-90457111D01*
X166156459Y-90395957D01*
X166285019Y-90235373D01*
X166366697Y-90128519D01*
X166453766Y-90009675D01*
X166541572Y-89883133D01*
X166584296Y-89818315D01*
X166625458Y-89753181D01*
X166676444Y-89667657D01*
X166728788Y-89573002D01*
X166754294Y-89523637D01*
X166778730Y-89473653D01*
X166801626Y-89423604D01*
X166822511Y-89374045D01*
X166840915Y-89325529D01*
X166856370Y-89278611D01*
X166868404Y-89233846D01*
X166876548Y-89191787D01*
X166879014Y-89171946D01*
X166880331Y-89152990D01*
X166880441Y-89134988D01*
X166879285Y-89118008D01*
X166876803Y-89102122D01*
X166872938Y-89087397D01*
X166867630Y-89073903D01*
X166860821Y-89061709D01*
X166855525Y-89054348D01*
X166849651Y-89047402D01*
X166843229Y-89040863D01*
X166836290Y-89034723D01*
X166828864Y-89028975D01*
X166820981Y-89023610D01*
X166812673Y-89018620D01*
X166803970Y-89013997D01*
X166785498Y-89005822D01*
X166765811Y-88999020D01*
X166745152Y-88993528D01*
X166723765Y-88989282D01*
X166701894Y-88986218D01*
X166679782Y-88984273D01*
X166657674Y-88983382D01*
X166635812Y-88983482D01*
X166614442Y-88984509D01*
X166593806Y-88986400D01*
X166574149Y-88989090D01*
X166555714Y-88992515D01*
X166524984Y-88999960D01*
X166494884Y-89009030D01*
X166465371Y-89019619D01*
X166436404Y-89031622D01*
X166407944Y-89044937D01*
X166379948Y-89059457D01*
X166352376Y-89075078D01*
X166325187Y-89091696D01*
X166298339Y-89109205D01*
X166271792Y-89127502D01*
X166245504Y-89146481D01*
X166219435Y-89166038D01*
X166167790Y-89206468D01*
X166116527Y-89247955D01*
X166076402Y-89281784D01*
X166037346Y-89316834D01*
X165999311Y-89353028D01*
X165962254Y-89390286D01*
X165926127Y-89428531D01*
X165890886Y-89467684D01*
X165856486Y-89507668D01*
X165822879Y-89548405D01*
X165757867Y-89631822D01*
X165695486Y-89717311D01*
X165635371Y-89804246D01*
X165577158Y-89892003D01*
X165545425Y-89942016D01*
X165513816Y-89994312D01*
X165482597Y-90048132D01*
X165452032Y-90102716D01*
X165393929Y-90211131D01*
X165341629Y-90313474D01*
X165297255Y-90403663D01*
X165262931Y-90475615D01*
X165232924Y-90540476D01*
X165221198Y-90531048D01*
X165190353Y-90502624D01*
X165169792Y-90481224D01*
X165146888Y-90454995D01*
X165122453Y-90423913D01*
X165097300Y-90387952D01*
X165072242Y-90347084D01*
X165048091Y-90301283D01*
X165025659Y-90250525D01*
X165005758Y-90194781D01*
X164989201Y-90134027D01*
X164982430Y-90101762D01*
X164976800Y-90068235D01*
X164972412Y-90033442D01*
X164969368Y-89997380D01*
X164967769Y-89960046D01*
X164967717Y-89921436D01*
X164968642Y-89891595D01*
X164970245Y-89859671D01*
X164975080Y-89791785D01*
X164981406Y-89722203D01*
X164988410Y-89655349D01*
X165001188Y-89547529D01*
X165006896Y-89503722D01*
X164962971Y-89500088D01*
X164855054Y-89489341D01*
X164788282Y-89481372D01*
X164718932Y-89471714D01*
X164651476Y-89460393D01*
X164619857Y-89454119D01*
X164590389Y-89447440D01*
X164561433Y-89440021D01*
X164533662Y-89432228D01*
X164507059Y-89424103D01*
X164481607Y-89415684D01*
X164457288Y-89407011D01*
X164434085Y-89398125D01*
X164411980Y-89389065D01*
X164390956Y-89379872D01*
X164370996Y-89370584D01*
X164352081Y-89361243D01*
X164334195Y-89351888D01*
X164317320Y-89342559D01*
X164301438Y-89333296D01*
X164286532Y-89324138D01*
X164272585Y-89315127D01*
X164259579Y-89306301D01*
X164247497Y-89297700D01*
X164236320Y-89289365D01*
X164216616Y-89273652D01*
X164201239Y-89260274D01*
X164453473Y-89260274D01*
X164478964Y-89273849D01*
X164511814Y-89286905D01*
X164533552Y-89293859D01*
X164558943Y-89300662D01*
X164588069Y-89306988D01*
X164621011Y-89312511D01*
X164657851Y-89316905D01*
X164698673Y-89319844D01*
X164743558Y-89321001D01*
X164792588Y-89320050D01*
X164845845Y-89316667D01*
X164903412Y-89310523D01*
X164947459Y-89304214D01*
X164991585Y-89296643D01*
X165035388Y-89288042D01*
X165078465Y-89278639D01*
X165120411Y-89268666D01*
X165160825Y-89258352D01*
X165199303Y-89247928D01*
X165235442Y-89237624D01*
X165299091Y-89218296D01*
X165348547Y-89202211D01*
X165391981Y-89187132D01*
X165375175Y-89222202D01*
X165332917Y-89314970D01*
X165306071Y-89377159D01*
X165277454Y-89446776D01*
X165248596Y-89521488D01*
X165221029Y-89598962D01*
X165209878Y-89633903D01*
X165200129Y-89668495D01*
X165191712Y-89702689D01*
X165184559Y-89736435D01*
X165178602Y-89769682D01*
X165173771Y-89802382D01*
X165169998Y-89834483D01*
X165167215Y-89865937D01*
X165165352Y-89896693D01*
X165164341Y-89926701D01*
X165164113Y-89955912D01*
X165164600Y-89984275D01*
X165167443Y-90038260D01*
X165172319Y-90088257D01*
X165178680Y-90133866D01*
X165185975Y-90174689D01*
X165193656Y-90210326D01*
X165201172Y-90240379D01*
X165213514Y-90282135D01*
X165218605Y-90296763D01*
X165233983Y-90249155D01*
X165251987Y-90196907D01*
X165275782Y-90132150D01*
X165304555Y-90059725D01*
X165337495Y-89984474D01*
X165355273Y-89947301D01*
X165373787Y-89911237D01*
X165392936Y-89876886D01*
X165412619Y-89844855D01*
X165541752Y-89645278D01*
X165607797Y-89545987D01*
X165675974Y-89448306D01*
X165711132Y-89400371D01*
X165747145Y-89353197D01*
X165784120Y-89306907D01*
X165822167Y-89261620D01*
X165861392Y-89217455D01*
X165901902Y-89174533D01*
X165943805Y-89132974D01*
X165987209Y-89092898D01*
X166054719Y-89033339D01*
X166124496Y-88974160D01*
X166160281Y-88945286D01*
X166196689Y-88917195D01*
X166233736Y-88890115D01*
X166271443Y-88864276D01*
X166309827Y-88839906D01*
X166348908Y-88817236D01*
X166388702Y-88796493D01*
X166429229Y-88777908D01*
X166470507Y-88761709D01*
X166512554Y-88748125D01*
X166555390Y-88737386D01*
X166599032Y-88729720D01*
X166626310Y-88727088D01*
X166655868Y-88726364D01*
X166687242Y-88727598D01*
X166719969Y-88730839D01*
X166753586Y-88736137D01*
X166787628Y-88743541D01*
X166821631Y-88753102D01*
X166855134Y-88764868D01*
X166871552Y-88771594D01*
X166887671Y-88778889D01*
X166903432Y-88786761D01*
X166918779Y-88795216D01*
X166933652Y-88804258D01*
X166947994Y-88813896D01*
X166961748Y-88824135D01*
X166974854Y-88834981D01*
X166987255Y-88846440D01*
X166998894Y-88858519D01*
X167009711Y-88871224D01*
X167019650Y-88884560D01*
X167028652Y-88898535D01*
X167036659Y-88913154D01*
X167043614Y-88928424D01*
X167049458Y-88944351D01*
X167057088Y-88970091D01*
X167063286Y-88995714D01*
X167068105Y-89021220D01*
X167071594Y-89046608D01*
X167073807Y-89071877D01*
X167074794Y-89097027D01*
X167074605Y-89122057D01*
X167073294Y-89146966D01*
X167070910Y-89171755D01*
X167067506Y-89196423D01*
X167057839Y-89245392D01*
X167044705Y-89293870D01*
X167028513Y-89341853D01*
X167009673Y-89389335D01*
X166988597Y-89436314D01*
X166965694Y-89482784D01*
X166941375Y-89528742D01*
X166890129Y-89619104D01*
X166838141Y-89707367D01*
X166819632Y-89738419D01*
X166801114Y-89768657D01*
X166764209Y-89826646D01*
X166727738Y-89881244D01*
X166692013Y-89932360D01*
X166657349Y-89979905D01*
X166624057Y-90023789D01*
X166592451Y-90063921D01*
X166562843Y-90100211D01*
X166535547Y-90132569D01*
X166510875Y-90160905D01*
X166489140Y-90185129D01*
X166470656Y-90205150D01*
X166444689Y-90232227D01*
X166435477Y-90241412D01*
X166501781Y-90221479D01*
X166576325Y-90195641D01*
X166671054Y-90158403D01*
X166724251Y-90135317D01*
X166780411Y-90109150D01*
X166838838Y-90079826D01*
X166898838Y-90047267D01*
X166959717Y-90011398D01*
X167020779Y-89972141D01*
X167081330Y-89929419D01*
X167140676Y-89883156D01*
X167219152Y-89817400D01*
X167293459Y-89752335D01*
X167363776Y-89687605D01*
X167430282Y-89622857D01*
X167493154Y-89557736D01*
X167552570Y-89491888D01*
X167608710Y-89424959D01*
X167661750Y-89356594D01*
X167711871Y-89286439D01*
X167759248Y-89214141D01*
X167804062Y-89139344D01*
X167846489Y-89061694D01*
X167886709Y-88980838D01*
X167924899Y-88896421D01*
X167961239Y-88808088D01*
X167995905Y-88715486D01*
X168009414Y-88676059D01*
X168022437Y-88634647D01*
X168034770Y-88591544D01*
X168046208Y-88547046D01*
X168056548Y-88501446D01*
X168065584Y-88455041D01*
X168073113Y-88408125D01*
X168078929Y-88360992D01*
X168082830Y-88313937D01*
X168084611Y-88267256D01*
X168084067Y-88221243D01*
X168080994Y-88176192D01*
X168075188Y-88132400D01*
X168066444Y-88090159D01*
X168054559Y-88049766D01*
X168047375Y-88030354D01*
X168039328Y-88011514D01*
X168023075Y-87978421D01*
X168005286Y-87946872D01*
X167985916Y-87916942D01*
X167964922Y-87888708D01*
X167942260Y-87862245D01*
X167917884Y-87837630D01*
X167891752Y-87814938D01*
X167863818Y-87794245D01*
X167834038Y-87775628D01*
X167802369Y-87759162D01*
X167768766Y-87744923D01*
X167733184Y-87732987D01*
X167695580Y-87723430D01*
X167655909Y-87716329D01*
X167614127Y-87711758D01*
X167570190Y-87709794D01*
X167545259Y-87710050D01*
X167520203Y-87711468D01*
X167495084Y-87713971D01*
X167469961Y-87717484D01*
X167444894Y-87721928D01*
X167419943Y-87727229D01*
X167395169Y-87733307D01*
X167370630Y-87740088D01*
X167346388Y-87747493D01*
X167322503Y-87755447D01*
X167276040Y-87772693D01*
X167231723Y-87791210D01*
X167190033Y-87810386D01*
X167151448Y-87829606D01*
X167116450Y-87848255D01*
X167085518Y-87865720D01*
X167059133Y-87881387D01*
X167021926Y-87904869D01*
X167008670Y-87913788D01*
X167018232Y-87899946D01*
X167046869Y-87862794D01*
X167068316Y-87837526D01*
X167094503Y-87808889D01*
X167125420Y-87777703D01*
X167161058Y-87744788D01*
X167201407Y-87710964D01*
X167246459Y-87677050D01*
X167296202Y-87643866D01*
X167350628Y-87612232D01*
X167409727Y-87582968D01*
X167441026Y-87569481D01*
X167473490Y-87556893D01*
X167507117Y-87545308D01*
X167541907Y-87534827D01*
X167565926Y-87528632D01*
X167566820Y-87513108D01*
X167571375Y-87446259D01*
X167573657Y-87418515D01*
X167576322Y-87392574D01*
X167579366Y-87368293D01*
X167582783Y-87345532D01*
X167586568Y-87324149D01*
X167590715Y-87304004D01*
X167595220Y-87284955D01*
X167600077Y-87266860D01*
X167605281Y-87249579D01*
X167610827Y-87232971D01*
X167616708Y-87216894D01*
X167622921Y-87201207D01*
X167629458Y-87185769D01*
X167636317Y-87170439D01*
X167650973Y-87139537D01*
X167659367Y-87123298D01*
X167668699Y-87107091D01*
X167678976Y-87090906D01*
X167690207Y-87074734D01*
X167702402Y-87058567D01*
X167715570Y-87042394D01*
X167729720Y-87026207D01*
X167744861Y-87009997D01*
X167761002Y-86993755D01*
X167778152Y-86977472D01*
X167796320Y-86961139D01*
X167815515Y-86944746D01*
X167835747Y-86928284D01*
X167857024Y-86911745D01*
X167879355Y-86895120D01*
X167902750Y-86878398D01*
X167971829Y-86829906D01*
X167993730Y-86814480D01*
X168002816Y-86807998D01*
X168003004Y-86807833D01*
X168003156Y-86807651D01*
X168003271Y-86807453D01*
X168003350Y-86807240D01*
X168003394Y-86807012D01*
X168003403Y-86806770D01*
X168003378Y-86806513D01*
X168003320Y-86806244D01*
X168003230Y-86805962D01*
X168003107Y-86805669D01*
X168002768Y-86805048D01*
X168002308Y-86804387D01*
X168001733Y-86803690D01*
X168001048Y-86802962D01*
X168000257Y-86802208D01*
X167999366Y-86801432D01*
X167998380Y-86800640D01*
X167997304Y-86799836D01*
X167996143Y-86799025D01*
X167994902Y-86798211D01*
X167993587Y-86797400D01*
X167974269Y-86783723D01*
X167931613Y-86752127D01*
X167801489Y-86654034D01*
X167764712Y-86626351D01*
X167728689Y-86599762D01*
X167694331Y-86574903D01*
X167662551Y-86552409D01*
X167634259Y-86532914D01*
X167610367Y-86517053D01*
X167591786Y-86505461D01*
X167584773Y-86501465D01*
X167579429Y-86498774D01*
X167569130Y-86494397D01*
X167557857Y-86490079D01*
X167545748Y-86485850D01*
X167532939Y-86481740D01*
X167505768Y-86474004D01*
X167477439Y-86467114D01*
X167449044Y-86461316D01*
X167421679Y-86456856D01*
X167408724Y-86455204D01*
X167396436Y-86453978D01*
X167384952Y-86453209D01*
X167374409Y-86452927D01*
X167359705Y-86453155D01*
X167345057Y-86453910D01*
X167330475Y-86455186D01*
X167315968Y-86456978D01*
X167301547Y-86459280D01*
X167287220Y-86462085D01*
X167272998Y-86465389D01*
X167258890Y-86469185D01*
X167244905Y-86473467D01*
X167231054Y-86478229D01*
X167217346Y-86483467D01*
X167203790Y-86489173D01*
X167190397Y-86495343D01*
X167177176Y-86501969D01*
X167164136Y-86509047D01*
X167151287Y-86516571D01*
X167126202Y-86532933D01*
X167101997Y-86551007D01*
X167078750Y-86570747D01*
X167056537Y-86592106D01*
X167035437Y-86615039D01*
X167015525Y-86639498D01*
X166996879Y-86665437D01*
X166979577Y-86692809D01*
X166968335Y-86712944D01*
X166957423Y-86734787D01*
X166946874Y-86758205D01*
X166936725Y-86783063D01*
X166927011Y-86809229D01*
X166917765Y-86836568D01*
X166909024Y-86864949D01*
X166900823Y-86894237D01*
X166893197Y-86924299D01*
X166886180Y-86955002D01*
X166879809Y-86986212D01*
X166874117Y-87017796D01*
X166869140Y-87049620D01*
X166864914Y-87081552D01*
X166861473Y-87113457D01*
X166858853Y-87145203D01*
X166853116Y-87227612D01*
X166821726Y-87249240D01*
X166771215Y-87284589D01*
X166741588Y-87306096D01*
X166709699Y-87330094D01*
X166676037Y-87356536D01*
X166641091Y-87385372D01*
X166605350Y-87416555D01*
X166587334Y-87433012D01*
X166569303Y-87450037D01*
X166553545Y-87466203D01*
X166530253Y-87491557D01*
X166465670Y-87564784D01*
X166384749Y-87659628D01*
X166296687Y-87766002D01*
X166251758Y-87820390D01*
X166205539Y-87874972D01*
X166158023Y-87929930D01*
X166109202Y-87985445D01*
X166007617Y-88098874D01*
X165900722Y-88216715D01*
X165785591Y-88346281D01*
X165725569Y-88413170D01*
X165661519Y-88481735D01*
X165627423Y-88516709D01*
X165591647Y-88552180D01*
X165553968Y-88588171D01*
X165514160Y-88624709D01*
X165472001Y-88661819D01*
X165427266Y-88699527D01*
X165379730Y-88737858D01*
X165329169Y-88776837D01*
X165266020Y-88822452D01*
X165198656Y-88867622D01*
X165128220Y-88912002D01*
X165055856Y-88955249D01*
X164982708Y-88997017D01*
X164909921Y-89036961D01*
X164770000Y-89110000D01*
X164645245Y-89171608D01*
X164544805Y-89219028D01*
X164453473Y-89260274D01*
X164201239Y-89260274D01*
X164200327Y-89259480D01*
X164187312Y-89247168D01*
X164177433Y-89237036D01*
X164170550Y-89229404D01*
X164165211Y-89222914D01*
X164242578Y-89196611D01*
X164330949Y-89163008D01*
X164445032Y-89115127D01*
X164579269Y-89052486D01*
X164652208Y-89015480D01*
X164728101Y-88974602D01*
X164806253Y-88929793D01*
X164885969Y-88880993D01*
X164966554Y-88828140D01*
X165047314Y-88771175D01*
X165124383Y-88713682D01*
X165194654Y-88659155D01*
X165258652Y-88607385D01*
X165316898Y-88558162D01*
X165369915Y-88511276D01*
X165418226Y-88466516D01*
X165462352Y-88423673D01*
X165502817Y-88382537D01*
X165540142Y-88342897D01*
X165574851Y-88304543D01*
X165638508Y-88230855D01*
X165757413Y-88089672D01*
X165780509Y-88061971D01*
X165803068Y-88033778D01*
X165846909Y-87976205D01*
X165889604Y-87917523D01*
X165931820Y-87858303D01*
X165974224Y-87799117D01*
X166017483Y-87740535D01*
X166062264Y-87683128D01*
X166085434Y-87655043D01*
X166109235Y-87627466D01*
X166160430Y-87560430D01*
X166185507Y-87529145D01*
X166210440Y-87499146D01*
X166235385Y-87470278D01*
X166260493Y-87442389D01*
X166285920Y-87415324D01*
X166311817Y-87388930D01*
X166338340Y-87363055D01*
X166365640Y-87337544D01*
X166393872Y-87312245D01*
X166423190Y-87287004D01*
X166453746Y-87261667D01*
X166485694Y-87236081D01*
X166554381Y-87183551D01*
X166646498Y-87114973D01*
X166669421Y-87008194D01*
X166686872Y-86933909D01*
X166706574Y-86863000D01*
X166728465Y-86795564D01*
X166752481Y-86731693D01*
X166778560Y-86671482D01*
X166792354Y-86642779D01*
X166806640Y-86615025D01*
X166821410Y-86588234D01*
X166836656Y-86562417D01*
X166852371Y-86537586D01*
X166868547Y-86513751D01*
X166885175Y-86490926D01*
X166902249Y-86469122D01*
X166919759Y-86448351D01*
X166937699Y-86428624D01*
X166956060Y-86409954D01*
X166974834Y-86392351D01*
X166994015Y-86375829D01*
X167013592Y-86360398D01*
X167033560Y-86346070D01*
X167053910Y-86332858D01*
X167074634Y-86320772D01*
X167095724Y-86309825D01*
X167117173Y-86300029D01*
X167138973Y-86291395D01*
X167161115Y-86283934D01*
X167183592Y-86277660D01*
X167197493Y-86274547D01*
X167212516Y-86271901D01*
X167228511Y-86269721D01*
X167245331Y-86268004D01*
X167262826Y-86266746D01*
X167280849Y-86265945D01*
X167299250Y-86265598D01*
X167317881Y-86265703D01*
G37*
D10*
X164965059Y-89512729D02*
X164993651Y-89515575D01*
X165021987Y-89519601D01*
X165050031Y-89524814D01*
X165077745Y-89531226D01*
X165105091Y-89538847D01*
X165132034Y-89547685D01*
X165137847Y-89551130D01*
X165142193Y-89556721D01*
X165145169Y-89564319D01*
X165146868Y-89573786D01*
X165147388Y-89584985D01*
X165146822Y-89597777D01*
X165142817Y-89627592D01*
X165135617Y-89662126D01*
X165125985Y-89700276D01*
X165102477Y-89783013D01*
X165078399Y-89866978D01*
X165068053Y-89906663D01*
X165059855Y-89943345D01*
X165054566Y-89975920D01*
X165053252Y-89990324D01*
X165052951Y-90003287D01*
X165053759Y-90014672D01*
X165055772Y-90024341D01*
X165059084Y-90032156D01*
X165063792Y-90037979D01*
X165066819Y-90041854D01*
X165069618Y-90047842D01*
X165074629Y-90065536D01*
X165079007Y-90089835D01*
X165082934Y-90119508D01*
X165097782Y-90267361D01*
X165107243Y-90341578D01*
X165113120Y-90374457D01*
X165120006Y-90402877D01*
X165128082Y-90425611D01*
X165132623Y-90434460D01*
X165137531Y-90441427D01*
X165142827Y-90446358D01*
X165148534Y-90449099D01*
X165154676Y-90449496D01*
X165161275Y-90447395D01*
X165172100Y-90440797D01*
X165183386Y-90431657D01*
X165195085Y-90420168D01*
X165207145Y-90406521D01*
X165232154Y-90373527D01*
X165258012Y-90334216D01*
X165284320Y-90290130D01*
X165310679Y-90242810D01*
X165361951Y-90144631D01*
X165408634Y-90052009D01*
X165447531Y-89977270D01*
X165463062Y-89950460D01*
X165475448Y-89932744D01*
X165480337Y-89927778D01*
X165484290Y-89925664D01*
X165487258Y-89926593D01*
X165489189Y-89930760D01*
X165499070Y-89983032D01*
X165504236Y-90036960D01*
X165504781Y-90092382D01*
X165500799Y-90149140D01*
X165492384Y-90207073D01*
X165479630Y-90266021D01*
X165462631Y-90325823D01*
X165441480Y-90386320D01*
X165416271Y-90447352D01*
X165387099Y-90508757D01*
X165354057Y-90570377D01*
X165317239Y-90632051D01*
X165276739Y-90693619D01*
X165232651Y-90754920D01*
X165185069Y-90815795D01*
X165134087Y-90876084D01*
X165046971Y-90965278D01*
X164943803Y-91054507D01*
X164827574Y-91142972D01*
X164701273Y-91229874D01*
X164567892Y-91314415D01*
X164430421Y-91395796D01*
X164155168Y-91545881D01*
X163899439Y-91673738D01*
X163687156Y-91772977D01*
X163488622Y-91860038D01*
X163657221Y-91522719D01*
X163735937Y-91356205D01*
X163769955Y-91276721D01*
X163798913Y-91200986D01*
X163821682Y-91129923D01*
X163837137Y-91064458D01*
X163841770Y-91034114D01*
X163844151Y-91005516D01*
X163844141Y-90978780D01*
X163841598Y-90954021D01*
X163836381Y-90931355D01*
X163828350Y-90910898D01*
X163817364Y-90892766D01*
X163803281Y-90877073D01*
X163785962Y-90863935D01*
X163765266Y-90853468D01*
X163741050Y-90845789D01*
X163713176Y-90841011D01*
X163750867Y-90734822D01*
X163796525Y-90617979D01*
X163825634Y-90548257D01*
X163858766Y-90472766D01*
X163895802Y-90392832D01*
X163936620Y-90309778D01*
X163981098Y-90224929D01*
X164029116Y-90139610D01*
X164080552Y-90055146D01*
X164135285Y-89972860D01*
X164193193Y-89894077D01*
X164223301Y-89856413D01*
X164254157Y-89820121D01*
X164299166Y-89772368D01*
X164346881Y-89728343D01*
X164397004Y-89688127D01*
X164449237Y-89651796D01*
X164503281Y-89619432D01*
X164558838Y-89591111D01*
X164615610Y-89566913D01*
X164673299Y-89546918D01*
X164731607Y-89531203D01*
X164790235Y-89519848D01*
X164848885Y-89512931D01*
X164907259Y-89510532D01*
X164965059Y-89512729D01*
D11*
G36*
X166131275Y-86763344D02*
G01*
X166181910Y-86769605D01*
X166227705Y-86778328D01*
X166268345Y-86788912D01*
X166296713Y-86798131D01*
X166323817Y-86808434D01*
X166349682Y-86819730D01*
X166374330Y-86831928D01*
X166397787Y-86844940D01*
X166420075Y-86858674D01*
X166441218Y-86873040D01*
X166461241Y-86887948D01*
X166480167Y-86903307D01*
X166498020Y-86919028D01*
X166514824Y-86935021D01*
X166530602Y-86951194D01*
X166559176Y-86983723D01*
X166583935Y-87015893D01*
X166605067Y-87046982D01*
X166622764Y-87076268D01*
X166637216Y-87103029D01*
X166648613Y-87126543D01*
X166663005Y-87160944D01*
X166667464Y-87173694D01*
X166483366Y-87298728D01*
X166482047Y-87288388D01*
X166479944Y-87276251D01*
X166476473Y-87260171D01*
X166471332Y-87240673D01*
X166464218Y-87218284D01*
X166454827Y-87193527D01*
X166442856Y-87166930D01*
X166435808Y-87153106D01*
X166428002Y-87139018D01*
X166419399Y-87124733D01*
X166409962Y-87110317D01*
X166399652Y-87095835D01*
X166388432Y-87081352D01*
X166376264Y-87066935D01*
X166363110Y-87052649D01*
X166348932Y-87038560D01*
X166333692Y-87024734D01*
X166317352Y-87011236D01*
X166299875Y-86998132D01*
X166281222Y-86985488D01*
X166261355Y-86973369D01*
X166240238Y-86961842D01*
X166217830Y-86950971D01*
X166204193Y-86945298D01*
X166189862Y-86940369D01*
X166174879Y-86936166D01*
X166159289Y-86932671D01*
X166126452Y-86927734D01*
X166091694Y-86925416D01*
X166055353Y-86925573D01*
X166017773Y-86928063D01*
X165979292Y-86932743D01*
X165940254Y-86939471D01*
X165900997Y-86948104D01*
X165861865Y-86958499D01*
X165823196Y-86970513D01*
X165785333Y-86984004D01*
X165748616Y-86998830D01*
X165713387Y-87014846D01*
X165679986Y-87031911D01*
X165648754Y-87049882D01*
X165596829Y-87083038D01*
X165547250Y-87117434D01*
X165499908Y-87153015D01*
X165454696Y-87189729D01*
X165411506Y-87227522D01*
X165370229Y-87266340D01*
X165330759Y-87306130D01*
X165292986Y-87346838D01*
X165256804Y-87388411D01*
X165222104Y-87430796D01*
X165188778Y-87473939D01*
X165156718Y-87517786D01*
X165125817Y-87562283D01*
X165095966Y-87607379D01*
X165067058Y-87653018D01*
X165038985Y-87699147D01*
X165016676Y-87737515D01*
X164994525Y-87777636D01*
X164972617Y-87819386D01*
X164951035Y-87862643D01*
X164929865Y-87907285D01*
X164909191Y-87953189D01*
X164889098Y-88000233D01*
X164869669Y-88048294D01*
X164850989Y-88097250D01*
X164833143Y-88146978D01*
X164816215Y-88197356D01*
X164800290Y-88248261D01*
X164785452Y-88299570D01*
X164771785Y-88351162D01*
X164759374Y-88402913D01*
X164748303Y-88454702D01*
X164761202Y-88438631D01*
X164797962Y-88395078D01*
X164824381Y-88365180D01*
X164855674Y-88331033D01*
X164891479Y-88293509D01*
X164931430Y-88253484D01*
X164975166Y-88211830D01*
X165022323Y-88169421D01*
X165072537Y-88127132D01*
X165125444Y-88085835D01*
X165152794Y-88065831D01*
X165180681Y-88046404D01*
X165209060Y-88027661D01*
X165237885Y-88009713D01*
X165267111Y-87992668D01*
X165296692Y-87976636D01*
X165326583Y-87961726D01*
X165356739Y-87948046D01*
X165400358Y-87930621D01*
X165444111Y-87915734D01*
X165487680Y-87903437D01*
X165530752Y-87893780D01*
X165573009Y-87886814D01*
X165614136Y-87882592D01*
X165653818Y-87881164D01*
X165691740Y-87882580D01*
X165727585Y-87886894D01*
X165761037Y-87894154D01*
X165791782Y-87904414D01*
X165806040Y-87910685D01*
X165819504Y-87917724D01*
X165832132Y-87925539D01*
X165843886Y-87934135D01*
X165854726Y-87943519D01*
X165864614Y-87953698D01*
X165873508Y-87964678D01*
X165881371Y-87976465D01*
X165888162Y-87989066D01*
X165893843Y-88002487D01*
X165717006Y-88226557D01*
X165714984Y-88209696D01*
X165711715Y-88194160D01*
X165707243Y-88179924D01*
X165701606Y-88166962D01*
X165694848Y-88155248D01*
X165687008Y-88144756D01*
X165678128Y-88135459D01*
X165668249Y-88127332D01*
X165657411Y-88120350D01*
X165645657Y-88114485D01*
X165633027Y-88109712D01*
X165619562Y-88106006D01*
X165605303Y-88103339D01*
X165590291Y-88101686D01*
X165574568Y-88101022D01*
X165558174Y-88101319D01*
X165541151Y-88102553D01*
X165523539Y-88104697D01*
X165505380Y-88107725D01*
X165486715Y-88111611D01*
X165467584Y-88116329D01*
X165448030Y-88121854D01*
X165428092Y-88128159D01*
X165407813Y-88135218D01*
X165387232Y-88143006D01*
X165366392Y-88151496D01*
X165345333Y-88160662D01*
X165324096Y-88170479D01*
X165281254Y-88191960D01*
X165238195Y-88215730D01*
X165185560Y-88248020D01*
X165130600Y-88285154D01*
X165074105Y-88326176D01*
X165016862Y-88370131D01*
X164903296Y-88463013D01*
X164796216Y-88556155D01*
X164701939Y-88641910D01*
X164626779Y-88712630D01*
X164559073Y-88778383D01*
X164570055Y-88618629D01*
X164579368Y-88528847D01*
X164591899Y-88433610D01*
X164608149Y-88333780D01*
X164628620Y-88230218D01*
X164653815Y-88123787D01*
X164684234Y-88015347D01*
X164720381Y-87905760D01*
X164762757Y-87795888D01*
X164811864Y-87686593D01*
X164868204Y-87578735D01*
X164932279Y-87473176D01*
X164967374Y-87421529D01*
X165004591Y-87370779D01*
X165043992Y-87321035D01*
X165085642Y-87272405D01*
X165129601Y-87224995D01*
X165175933Y-87178914D01*
X165218448Y-87137429D01*
X165260816Y-87098584D01*
X165344955Y-87028514D01*
X165428035Y-86968104D01*
X165509741Y-86916754D01*
X165589758Y-86873865D01*
X165667771Y-86838836D01*
X165743465Y-86811069D01*
X165816524Y-86789962D01*
X165886634Y-86774916D01*
X165953479Y-86765331D01*
X166016744Y-86760607D01*
X166076114Y-86760145D01*
X166131275Y-86763344D01*
G37*
G36*
X165099698Y-87459426D02*
G01*
X165107544Y-87463258D01*
X165121241Y-87471261D01*
X165141770Y-87484105D01*
X165127339Y-87494925D01*
X165126098Y-87493067D01*
X165120487Y-87486476D01*
X165113853Y-87479362D01*
X165101441Y-87466250D01*
X165097628Y-87461592D01*
X165096750Y-87460031D01*
X165096720Y-87459094D01*
X165097662Y-87458864D01*
X165099698Y-87459426D01*
G37*
D12*
X164553659Y-97768259D02*
X165125087Y-97768259D01*
X164839373Y-98768259D02*
X164839373Y-97768259D01*
X165363183Y-97768259D02*
X166029849Y-98768259D01*
X166029849Y-97768259D02*
X165363183Y-98768259D01*
X164557944Y-79913020D02*
X164510325Y-79960640D01*
X164510325Y-79960640D02*
X164367468Y-80008259D01*
X164367468Y-80008259D02*
X164272230Y-80008259D01*
X164272230Y-80008259D02*
X164129373Y-79960640D01*
X164129373Y-79960640D02*
X164034135Y-79865401D01*
X164034135Y-79865401D02*
X163986516Y-79770163D01*
X163986516Y-79770163D02*
X163938897Y-79579687D01*
X163938897Y-79579687D02*
X163938897Y-79436830D01*
X163938897Y-79436830D02*
X163986516Y-79246354D01*
X163986516Y-79246354D02*
X164034135Y-79151116D01*
X164034135Y-79151116D02*
X164129373Y-79055878D01*
X164129373Y-79055878D02*
X164272230Y-79008259D01*
X164272230Y-79008259D02*
X164367468Y-79008259D01*
X164367468Y-79008259D02*
X164510325Y-79055878D01*
X164510325Y-79055878D02*
X164557944Y-79103497D01*
X165462706Y-80008259D02*
X164986516Y-80008259D01*
X164986516Y-80008259D02*
X164986516Y-79008259D01*
X165796040Y-80008259D02*
X165796040Y-79008259D01*
X166367468Y-80008259D02*
X165938897Y-79436830D01*
X166367468Y-79008259D02*
X165796040Y-79579687D01*
X138760325Y-116805878D02*
X138665087Y-116758259D01*
X138665087Y-116758259D02*
X138522230Y-116758259D01*
X138522230Y-116758259D02*
X138379373Y-116805878D01*
X138379373Y-116805878D02*
X138284135Y-116901116D01*
X138284135Y-116901116D02*
X138236516Y-116996354D01*
X138236516Y-116996354D02*
X138188897Y-117186830D01*
X138188897Y-117186830D02*
X138188897Y-117329687D01*
X138188897Y-117329687D02*
X138236516Y-117520163D01*
X138236516Y-117520163D02*
X138284135Y-117615401D01*
X138284135Y-117615401D02*
X138379373Y-117710640D01*
X138379373Y-117710640D02*
X138522230Y-117758259D01*
X138522230Y-117758259D02*
X138617468Y-117758259D01*
X138617468Y-117758259D02*
X138760325Y-117710640D01*
X138760325Y-117710640D02*
X138807944Y-117663020D01*
X138807944Y-117663020D02*
X138807944Y-117329687D01*
X138807944Y-117329687D02*
X138617468Y-117329687D01*
X139236516Y-117758259D02*
X139236516Y-116758259D01*
X139236516Y-116758259D02*
X139807944Y-117758259D01*
X139807944Y-117758259D02*
X139807944Y-116758259D01*
X140284135Y-117758259D02*
X140284135Y-116758259D01*
X140284135Y-116758259D02*
X140522230Y-116758259D01*
X140522230Y-116758259D02*
X140665087Y-116805878D01*
X140665087Y-116805878D02*
X140760325Y-116901116D01*
X140760325Y-116901116D02*
X140807944Y-116996354D01*
X140807944Y-116996354D02*
X140855563Y-117186830D01*
X140855563Y-117186830D02*
X140855563Y-117329687D01*
X140855563Y-117329687D02*
X140807944Y-117520163D01*
X140807944Y-117520163D02*
X140760325Y-117615401D01*
X140760325Y-117615401D02*
X140665087Y-117710640D01*
X140665087Y-117710640D02*
X140522230Y-117758259D01*
X140522230Y-117758259D02*
X140284135Y-117758259D01*
X141343659Y-116808259D02*
X141915087Y-116808259D01*
X141629373Y-117808259D02*
X141629373Y-116808259D01*
X142153183Y-116808259D02*
X142819849Y-117808259D01*
X142819849Y-116808259D02*
X142153183Y-117808259D01*
X167737944Y-98718259D02*
X167404611Y-98242068D01*
X167166516Y-98718259D02*
X167166516Y-97718259D01*
X167166516Y-97718259D02*
X167547468Y-97718259D01*
X167547468Y-97718259D02*
X167642706Y-97765878D01*
X167642706Y-97765878D02*
X167690325Y-97813497D01*
X167690325Y-97813497D02*
X167737944Y-97908735D01*
X167737944Y-97908735D02*
X167737944Y-98051592D01*
X167737944Y-98051592D02*
X167690325Y-98146830D01*
X167690325Y-98146830D02*
X167642706Y-98194449D01*
X167642706Y-98194449D02*
X167547468Y-98242068D01*
X167547468Y-98242068D02*
X167166516Y-98242068D01*
X168071278Y-97718259D02*
X168737944Y-98718259D01*
X168737944Y-97718259D02*
X168071278Y-98718259D01*
X162120325Y-97815878D02*
X162025087Y-97768259D01*
X162025087Y-97768259D02*
X161882230Y-97768259D01*
X161882230Y-97768259D02*
X161739373Y-97815878D01*
X161739373Y-97815878D02*
X161644135Y-97911116D01*
X161644135Y-97911116D02*
X161596516Y-98006354D01*
X161596516Y-98006354D02*
X161548897Y-98196830D01*
X161548897Y-98196830D02*
X161548897Y-98339687D01*
X161548897Y-98339687D02*
X161596516Y-98530163D01*
X161596516Y-98530163D02*
X161644135Y-98625401D01*
X161644135Y-98625401D02*
X161739373Y-98720640D01*
X161739373Y-98720640D02*
X161882230Y-98768259D01*
X161882230Y-98768259D02*
X161977468Y-98768259D01*
X161977468Y-98768259D02*
X162120325Y-98720640D01*
X162120325Y-98720640D02*
X162167944Y-98673020D01*
X162167944Y-98673020D02*
X162167944Y-98339687D01*
X162167944Y-98339687D02*
X161977468Y-98339687D01*
X162596516Y-98768259D02*
X162596516Y-97768259D01*
X162596516Y-97768259D02*
X163167944Y-98768259D01*
X163167944Y-98768259D02*
X163167944Y-97768259D01*
X163644135Y-98768259D02*
X163644135Y-97768259D01*
X163644135Y-97768259D02*
X163882230Y-97768259D01*
X163882230Y-97768259D02*
X164025087Y-97815878D01*
X164025087Y-97815878D02*
X164120325Y-97911116D01*
X164120325Y-97911116D02*
X164167944Y-98006354D01*
X164167944Y-98006354D02*
X164215563Y-98196830D01*
X164215563Y-98196830D02*
X164215563Y-98339687D01*
X164215563Y-98339687D02*
X164167944Y-98530163D01*
X164167944Y-98530163D02*
X164120325Y-98625401D01*
X164120325Y-98625401D02*
X164025087Y-98720640D01*
X164025087Y-98720640D02*
X163882230Y-98768259D01*
X163882230Y-98768259D02*
X163644135Y-98768259D01*
X170312706Y-97708259D02*
X169836516Y-97708259D01*
X169836516Y-97708259D02*
X169788897Y-98184449D01*
X169788897Y-98184449D02*
X169836516Y-98136830D01*
X169836516Y-98136830D02*
X169931754Y-98089211D01*
X169931754Y-98089211D02*
X170169849Y-98089211D01*
X170169849Y-98089211D02*
X170265087Y-98136830D01*
X170265087Y-98136830D02*
X170312706Y-98184449D01*
X170312706Y-98184449D02*
X170360325Y-98279687D01*
X170360325Y-98279687D02*
X170360325Y-98517782D01*
X170360325Y-98517782D02*
X170312706Y-98613020D01*
X170312706Y-98613020D02*
X170265087Y-98660640D01*
X170265087Y-98660640D02*
X170169849Y-98708259D01*
X170169849Y-98708259D02*
X169931754Y-98708259D01*
X169931754Y-98708259D02*
X169836516Y-98660640D01*
X169836516Y-98660640D02*
X169788897Y-98613020D01*
X170693659Y-98041592D02*
X170931754Y-98708259D01*
X170931754Y-98708259D02*
X171169849Y-98041592D01*
X161500325Y-78995878D02*
X161405087Y-78948259D01*
X161405087Y-78948259D02*
X161262230Y-78948259D01*
X161262230Y-78948259D02*
X161119373Y-78995878D01*
X161119373Y-78995878D02*
X161024135Y-79091116D01*
X161024135Y-79091116D02*
X160976516Y-79186354D01*
X160976516Y-79186354D02*
X160928897Y-79376830D01*
X160928897Y-79376830D02*
X160928897Y-79519687D01*
X160928897Y-79519687D02*
X160976516Y-79710163D01*
X160976516Y-79710163D02*
X161024135Y-79805401D01*
X161024135Y-79805401D02*
X161119373Y-79900640D01*
X161119373Y-79900640D02*
X161262230Y-79948259D01*
X161262230Y-79948259D02*
X161357468Y-79948259D01*
X161357468Y-79948259D02*
X161500325Y-79900640D01*
X161500325Y-79900640D02*
X161547944Y-79853020D01*
X161547944Y-79853020D02*
X161547944Y-79519687D01*
X161547944Y-79519687D02*
X161357468Y-79519687D01*
X161976516Y-79948259D02*
X161976516Y-78948259D01*
X161976516Y-78948259D02*
X162547944Y-79948259D01*
X162547944Y-79948259D02*
X162547944Y-78948259D01*
X163024135Y-79948259D02*
X163024135Y-78948259D01*
X163024135Y-78948259D02*
X163262230Y-78948259D01*
X163262230Y-78948259D02*
X163405087Y-78995878D01*
X163405087Y-78995878D02*
X163500325Y-79091116D01*
X163500325Y-79091116D02*
X163547944Y-79186354D01*
X163547944Y-79186354D02*
X163595563Y-79376830D01*
X163595563Y-79376830D02*
X163595563Y-79519687D01*
X163595563Y-79519687D02*
X163547944Y-79710163D01*
X163547944Y-79710163D02*
X163500325Y-79805401D01*
X163500325Y-79805401D02*
X163405087Y-79900640D01*
X163405087Y-79900640D02*
X163262230Y-79948259D01*
X163262230Y-79948259D02*
X163024135Y-79948259D01*
X172658259Y-95556340D02*
X173658259Y-95223007D01*
X173658259Y-95223007D02*
X172658259Y-94889674D01*
X173658259Y-94556340D02*
X172658259Y-94556340D01*
X173658259Y-94080150D02*
X172658259Y-94080150D01*
X172658259Y-94080150D02*
X173658259Y-93508722D01*
X173658259Y-93508722D02*
X172658259Y-93508722D01*
X144307944Y-117788259D02*
X143974611Y-117312068D01*
X143736516Y-117788259D02*
X143736516Y-116788259D01*
X143736516Y-116788259D02*
X144117468Y-116788259D01*
X144117468Y-116788259D02*
X144212706Y-116835878D01*
X144212706Y-116835878D02*
X144260325Y-116883497D01*
X144260325Y-116883497D02*
X144307944Y-116978735D01*
X144307944Y-116978735D02*
X144307944Y-117121592D01*
X144307944Y-117121592D02*
X144260325Y-117216830D01*
X144260325Y-117216830D02*
X144212706Y-117264449D01*
X144212706Y-117264449D02*
X144117468Y-117312068D01*
X144117468Y-117312068D02*
X143736516Y-117312068D01*
X144641278Y-116788259D02*
X145307944Y-117788259D01*
X145307944Y-116788259D02*
X144641278Y-117788259D01*
X166916516Y-80028259D02*
X166916516Y-79028259D01*
X166916516Y-79028259D02*
X167154611Y-79028259D01*
X167154611Y-79028259D02*
X167297468Y-79075878D01*
X167297468Y-79075878D02*
X167392706Y-79171116D01*
X167392706Y-79171116D02*
X167440325Y-79266354D01*
X167440325Y-79266354D02*
X167487944Y-79456830D01*
X167487944Y-79456830D02*
X167487944Y-79599687D01*
X167487944Y-79599687D02*
X167440325Y-79790163D01*
X167440325Y-79790163D02*
X167392706Y-79885401D01*
X167392706Y-79885401D02*
X167297468Y-79980640D01*
X167297468Y-79980640D02*
X167154611Y-80028259D01*
X167154611Y-80028259D02*
X166916516Y-80028259D01*
X167916516Y-80028259D02*
X167916516Y-79028259D01*
X168583182Y-79028259D02*
X168773658Y-79028259D01*
X168773658Y-79028259D02*
X168868896Y-79075878D01*
X168868896Y-79075878D02*
X168964134Y-79171116D01*
X168964134Y-79171116D02*
X169011753Y-79361592D01*
X169011753Y-79361592D02*
X169011753Y-79694925D01*
X169011753Y-79694925D02*
X168964134Y-79885401D01*
X168964134Y-79885401D02*
X168868896Y-79980640D01*
X168868896Y-79980640D02*
X168773658Y-80028259D01*
X168773658Y-80028259D02*
X168583182Y-80028259D01*
X168583182Y-80028259D02*
X168487944Y-79980640D01*
X168487944Y-79980640D02*
X168392706Y-79885401D01*
X168392706Y-79885401D02*
X168345087Y-79694925D01*
X168345087Y-79694925D02*
X168345087Y-79361592D01*
X168345087Y-79361592D02*
X168392706Y-79171116D01*
X168392706Y-79171116D02*
X168487944Y-79075878D01*
X168487944Y-79075878D02*
X168583182Y-79028259D01*
X169391278Y-78998259D02*
X170010325Y-78998259D01*
X170010325Y-78998259D02*
X169676992Y-79379211D01*
X169676992Y-79379211D02*
X169819849Y-79379211D01*
X169819849Y-79379211D02*
X169915087Y-79426830D01*
X169915087Y-79426830D02*
X169962706Y-79474449D01*
X169962706Y-79474449D02*
X170010325Y-79569687D01*
X170010325Y-79569687D02*
X170010325Y-79807782D01*
X170010325Y-79807782D02*
X169962706Y-79903020D01*
X169962706Y-79903020D02*
X169915087Y-79950640D01*
X169915087Y-79950640D02*
X169819849Y-79998259D01*
X169819849Y-79998259D02*
X169534135Y-79998259D01*
X169534135Y-79998259D02*
X169438897Y-79950640D01*
X169438897Y-79950640D02*
X169391278Y-79903020D01*
X170438897Y-79903020D02*
X170486516Y-79950640D01*
X170486516Y-79950640D02*
X170438897Y-79998259D01*
X170438897Y-79998259D02*
X170391278Y-79950640D01*
X170391278Y-79950640D02*
X170438897Y-79903020D01*
X170438897Y-79903020D02*
X170438897Y-79998259D01*
X170819849Y-78998259D02*
X171438896Y-78998259D01*
X171438896Y-78998259D02*
X171105563Y-79379211D01*
X171105563Y-79379211D02*
X171248420Y-79379211D01*
X171248420Y-79379211D02*
X171343658Y-79426830D01*
X171343658Y-79426830D02*
X171391277Y-79474449D01*
X171391277Y-79474449D02*
X171438896Y-79569687D01*
X171438896Y-79569687D02*
X171438896Y-79807782D01*
X171438896Y-79807782D02*
X171391277Y-79903020D01*
X171391277Y-79903020D02*
X171343658Y-79950640D01*
X171343658Y-79950640D02*
X171248420Y-79998259D01*
X171248420Y-79998259D02*
X170962706Y-79998259D01*
X170962706Y-79998259D02*
X170867468Y-79950640D01*
X170867468Y-79950640D02*
X170819849Y-79903020D01*
X171772230Y-79331592D02*
X172010325Y-79998259D01*
X172010325Y-79998259D02*
X172248420Y-79331592D01*
X172635878Y-92309674D02*
X172588259Y-92404912D01*
X172588259Y-92404912D02*
X172588259Y-92547769D01*
X172588259Y-92547769D02*
X172635878Y-92690626D01*
X172635878Y-92690626D02*
X172731116Y-92785864D01*
X172731116Y-92785864D02*
X172826354Y-92833483D01*
X172826354Y-92833483D02*
X173016830Y-92881102D01*
X173016830Y-92881102D02*
X173159687Y-92881102D01*
X173159687Y-92881102D02*
X173350163Y-92833483D01*
X173350163Y-92833483D02*
X173445401Y-92785864D01*
X173445401Y-92785864D02*
X173540640Y-92690626D01*
X173540640Y-92690626D02*
X173588259Y-92547769D01*
X173588259Y-92547769D02*
X173588259Y-92452531D01*
X173588259Y-92452531D02*
X173540640Y-92309674D01*
X173540640Y-92309674D02*
X173493020Y-92262055D01*
X173493020Y-92262055D02*
X173159687Y-92262055D01*
X173159687Y-92262055D02*
X173159687Y-92452531D01*
X173588259Y-91833483D02*
X172588259Y-91833483D01*
X172588259Y-91833483D02*
X173588259Y-91262055D01*
X173588259Y-91262055D02*
X172588259Y-91262055D01*
X173588259Y-90785864D02*
X172588259Y-90785864D01*
X172588259Y-90785864D02*
X172588259Y-90547769D01*
X172588259Y-90547769D02*
X172635878Y-90404912D01*
X172635878Y-90404912D02*
X172731116Y-90309674D01*
X172731116Y-90309674D02*
X172826354Y-90262055D01*
X172826354Y-90262055D02*
X173016830Y-90214436D01*
X173016830Y-90214436D02*
X173159687Y-90214436D01*
X173159687Y-90214436D02*
X173350163Y-90262055D01*
X173350163Y-90262055D02*
X173445401Y-90309674D01*
X173445401Y-90309674D02*
X173540640Y-90404912D01*
X173540640Y-90404912D02*
X173588259Y-90547769D01*
X173588259Y-90547769D02*
X173588259Y-90785864D01*
X168303019Y-102692856D02*
X168350639Y-102740475D01*
X168350639Y-102740475D02*
X168398258Y-102883332D01*
X168398258Y-102883332D02*
X168398258Y-102978570D01*
X168398258Y-102978570D02*
X168350639Y-103121427D01*
X168350639Y-103121427D02*
X168255400Y-103216665D01*
X168255400Y-103216665D02*
X168160162Y-103264284D01*
X168160162Y-103264284D02*
X167969686Y-103311903D01*
X167969686Y-103311903D02*
X167826829Y-103311903D01*
X167826829Y-103311903D02*
X167636353Y-103264284D01*
X167636353Y-103264284D02*
X167541115Y-103216665D01*
X167541115Y-103216665D02*
X167445877Y-103121427D01*
X167445877Y-103121427D02*
X167398258Y-102978570D01*
X167398258Y-102978570D02*
X167398258Y-102883332D01*
X167398258Y-102883332D02*
X167445877Y-102740475D01*
X167445877Y-102740475D02*
X167493496Y-102692856D01*
X168398258Y-101740475D02*
X168398258Y-102311903D01*
X168398258Y-102026189D02*
X167398258Y-102026189D01*
X167398258Y-102026189D02*
X167541115Y-102121427D01*
X167541115Y-102121427D02*
X167636353Y-102216665D01*
X167636353Y-102216665D02*
X167683972Y-102311903D01*
X167731591Y-100883332D02*
X168398258Y-100883332D01*
X167350639Y-101121427D02*
X168064924Y-101359522D01*
X168064924Y-101359522D02*
X168064924Y-100740475D01*
X149850595Y-85983259D02*
X149850595Y-86792782D01*
X149850595Y-86792782D02*
X149898214Y-86888020D01*
X149898214Y-86888020D02*
X149945833Y-86935640D01*
X149945833Y-86935640D02*
X150041071Y-86983259D01*
X150041071Y-86983259D02*
X150231547Y-86983259D01*
X150231547Y-86983259D02*
X150326785Y-86935640D01*
X150326785Y-86935640D02*
X150374404Y-86888020D01*
X150374404Y-86888020D02*
X150422023Y-86792782D01*
X150422023Y-86792782D02*
X150422023Y-85983259D01*
X151422023Y-86983259D02*
X150850595Y-86983259D01*
X151136309Y-86983259D02*
X151136309Y-85983259D01*
X151136309Y-85983259D02*
X151041071Y-86126116D01*
X151041071Y-86126116D02*
X150945833Y-86221354D01*
X150945833Y-86221354D02*
X150850595Y-86268973D01*
X138491905Y-52123259D02*
X138491905Y-51123259D01*
X138491905Y-51123259D02*
X138730000Y-51123259D01*
X138730000Y-51123259D02*
X138872857Y-51170878D01*
X138872857Y-51170878D02*
X138968095Y-51266116D01*
X138968095Y-51266116D02*
X139015714Y-51361354D01*
X139015714Y-51361354D02*
X139063333Y-51551830D01*
X139063333Y-51551830D02*
X139063333Y-51694687D01*
X139063333Y-51694687D02*
X139015714Y-51885163D01*
X139015714Y-51885163D02*
X138968095Y-51980401D01*
X138968095Y-51980401D02*
X138872857Y-52075640D01*
X138872857Y-52075640D02*
X138730000Y-52123259D01*
X138730000Y-52123259D02*
X138491905Y-52123259D01*
X139396667Y-51123259D02*
X140015714Y-51123259D01*
X140015714Y-51123259D02*
X139682381Y-51504211D01*
X139682381Y-51504211D02*
X139825238Y-51504211D01*
X139825238Y-51504211D02*
X139920476Y-51551830D01*
X139920476Y-51551830D02*
X139968095Y-51599449D01*
X139968095Y-51599449D02*
X140015714Y-51694687D01*
X140015714Y-51694687D02*
X140015714Y-51932782D01*
X140015714Y-51932782D02*
X139968095Y-52028020D01*
X139968095Y-52028020D02*
X139920476Y-52075640D01*
X139920476Y-52075640D02*
X139825238Y-52123259D01*
X139825238Y-52123259D02*
X139539524Y-52123259D01*
X139539524Y-52123259D02*
X139444286Y-52075640D01*
X139444286Y-52075640D02*
X139396667Y-52028020D01*
X143939999Y-50406740D02*
X143939999Y-50168645D01*
X144178094Y-50263883D02*
X143939999Y-50168645D01*
X143939999Y-50168645D02*
X143701904Y-50263883D01*
X144082856Y-49978169D02*
X143939999Y-50168645D01*
X143939999Y-50168645D02*
X143797142Y-49978169D01*
X149803260Y-111051666D02*
X149327069Y-111384999D01*
X149803260Y-111623094D02*
X148803260Y-111623094D01*
X148803260Y-111623094D02*
X148803260Y-111242142D01*
X148803260Y-111242142D02*
X148850879Y-111146904D01*
X148850879Y-111146904D02*
X148898498Y-111099285D01*
X148898498Y-111099285D02*
X148993736Y-111051666D01*
X148993736Y-111051666D02*
X149136593Y-111051666D01*
X149136593Y-111051666D02*
X149231831Y-111099285D01*
X149231831Y-111099285D02*
X149279450Y-111146904D01*
X149279450Y-111146904D02*
X149327069Y-111242142D01*
X149327069Y-111242142D02*
X149327069Y-111623094D01*
X148803260Y-110718332D02*
X148803260Y-110099285D01*
X148803260Y-110099285D02*
X149184212Y-110432618D01*
X149184212Y-110432618D02*
X149184212Y-110289761D01*
X149184212Y-110289761D02*
X149231831Y-110194523D01*
X149231831Y-110194523D02*
X149279450Y-110146904D01*
X149279450Y-110146904D02*
X149374688Y-110099285D01*
X149374688Y-110099285D02*
X149612783Y-110099285D01*
X149612783Y-110099285D02*
X149708021Y-110146904D01*
X149708021Y-110146904D02*
X149755641Y-110194523D01*
X149755641Y-110194523D02*
X149803260Y-110289761D01*
X149803260Y-110289761D02*
X149803260Y-110575475D01*
X149803260Y-110575475D02*
X149755641Y-110670713D01*
X149755641Y-110670713D02*
X149708021Y-110718332D01*
X188583333Y-100043258D02*
X188250000Y-99567067D01*
X188011905Y-100043258D02*
X188011905Y-99043258D01*
X188011905Y-99043258D02*
X188392857Y-99043258D01*
X188392857Y-99043258D02*
X188488095Y-99090877D01*
X188488095Y-99090877D02*
X188535714Y-99138496D01*
X188535714Y-99138496D02*
X188583333Y-99233734D01*
X188583333Y-99233734D02*
X188583333Y-99376591D01*
X188583333Y-99376591D02*
X188535714Y-99471829D01*
X188535714Y-99471829D02*
X188488095Y-99519448D01*
X188488095Y-99519448D02*
X188392857Y-99567067D01*
X188392857Y-99567067D02*
X188011905Y-99567067D01*
X189059524Y-100043258D02*
X189250000Y-100043258D01*
X189250000Y-100043258D02*
X189345238Y-99995639D01*
X189345238Y-99995639D02*
X189392857Y-99948019D01*
X189392857Y-99948019D02*
X189488095Y-99805162D01*
X189488095Y-99805162D02*
X189535714Y-99614686D01*
X189535714Y-99614686D02*
X189535714Y-99233734D01*
X189535714Y-99233734D02*
X189488095Y-99138496D01*
X189488095Y-99138496D02*
X189440476Y-99090877D01*
X189440476Y-99090877D02*
X189345238Y-99043258D01*
X189345238Y-99043258D02*
X189154762Y-99043258D01*
X189154762Y-99043258D02*
X189059524Y-99090877D01*
X189059524Y-99090877D02*
X189011905Y-99138496D01*
X189011905Y-99138496D02*
X188964286Y-99233734D01*
X188964286Y-99233734D02*
X188964286Y-99471829D01*
X188964286Y-99471829D02*
X189011905Y-99567067D01*
X189011905Y-99567067D02*
X189059524Y-99614686D01*
X189059524Y-99614686D02*
X189154762Y-99662305D01*
X189154762Y-99662305D02*
X189345238Y-99662305D01*
X189345238Y-99662305D02*
X189440476Y-99614686D01*
X189440476Y-99614686D02*
X189488095Y-99567067D01*
X189488095Y-99567067D02*
X189535714Y-99471829D01*
X144933333Y-96138020D02*
X144885714Y-96185640D01*
X144885714Y-96185640D02*
X144742857Y-96233259D01*
X144742857Y-96233259D02*
X144647619Y-96233259D01*
X144647619Y-96233259D02*
X144504762Y-96185640D01*
X144504762Y-96185640D02*
X144409524Y-96090401D01*
X144409524Y-96090401D02*
X144361905Y-95995163D01*
X144361905Y-95995163D02*
X144314286Y-95804687D01*
X144314286Y-95804687D02*
X144314286Y-95661830D01*
X144314286Y-95661830D02*
X144361905Y-95471354D01*
X144361905Y-95471354D02*
X144409524Y-95376116D01*
X144409524Y-95376116D02*
X144504762Y-95280878D01*
X144504762Y-95280878D02*
X144647619Y-95233259D01*
X144647619Y-95233259D02*
X144742857Y-95233259D01*
X144742857Y-95233259D02*
X144885714Y-95280878D01*
X144885714Y-95280878D02*
X144933333Y-95328497D01*
X145504762Y-95661830D02*
X145409524Y-95614211D01*
X145409524Y-95614211D02*
X145361905Y-95566592D01*
X145361905Y-95566592D02*
X145314286Y-95471354D01*
X145314286Y-95471354D02*
X145314286Y-95423735D01*
X145314286Y-95423735D02*
X145361905Y-95328497D01*
X145361905Y-95328497D02*
X145409524Y-95280878D01*
X145409524Y-95280878D02*
X145504762Y-95233259D01*
X145504762Y-95233259D02*
X145695238Y-95233259D01*
X145695238Y-95233259D02*
X145790476Y-95280878D01*
X145790476Y-95280878D02*
X145838095Y-95328497D01*
X145838095Y-95328497D02*
X145885714Y-95423735D01*
X145885714Y-95423735D02*
X145885714Y-95471354D01*
X145885714Y-95471354D02*
X145838095Y-95566592D01*
X145838095Y-95566592D02*
X145790476Y-95614211D01*
X145790476Y-95614211D02*
X145695238Y-95661830D01*
X145695238Y-95661830D02*
X145504762Y-95661830D01*
X145504762Y-95661830D02*
X145409524Y-95709449D01*
X145409524Y-95709449D02*
X145361905Y-95757068D01*
X145361905Y-95757068D02*
X145314286Y-95852306D01*
X145314286Y-95852306D02*
X145314286Y-96042782D01*
X145314286Y-96042782D02*
X145361905Y-96138020D01*
X145361905Y-96138020D02*
X145409524Y-96185640D01*
X145409524Y-96185640D02*
X145504762Y-96233259D01*
X145504762Y-96233259D02*
X145695238Y-96233259D01*
X145695238Y-96233259D02*
X145790476Y-96185640D01*
X145790476Y-96185640D02*
X145838095Y-96138020D01*
X145838095Y-96138020D02*
X145885714Y-96042782D01*
X145885714Y-96042782D02*
X145885714Y-95852306D01*
X145885714Y-95852306D02*
X145838095Y-95757068D01*
X145838095Y-95757068D02*
X145790476Y-95709449D01*
X145790476Y-95709449D02*
X145695238Y-95661830D01*
X126526667Y-92965641D02*
X126669524Y-93013260D01*
X126669524Y-93013260D02*
X126907619Y-93013260D01*
X126907619Y-93013260D02*
X127002857Y-92965641D01*
X127002857Y-92965641D02*
X127050476Y-92918021D01*
X127050476Y-92918021D02*
X127098095Y-92822783D01*
X127098095Y-92822783D02*
X127098095Y-92727545D01*
X127098095Y-92727545D02*
X127050476Y-92632307D01*
X127050476Y-92632307D02*
X127002857Y-92584688D01*
X127002857Y-92584688D02*
X126907619Y-92537069D01*
X126907619Y-92537069D02*
X126717143Y-92489450D01*
X126717143Y-92489450D02*
X126621905Y-92441831D01*
X126621905Y-92441831D02*
X126574286Y-92394212D01*
X126574286Y-92394212D02*
X126526667Y-92298974D01*
X126526667Y-92298974D02*
X126526667Y-92203736D01*
X126526667Y-92203736D02*
X126574286Y-92108498D01*
X126574286Y-92108498D02*
X126621905Y-92060879D01*
X126621905Y-92060879D02*
X126717143Y-92013260D01*
X126717143Y-92013260D02*
X126955238Y-92013260D01*
X126955238Y-92013260D02*
X127098095Y-92060879D01*
X127431429Y-92013260D02*
X127669524Y-93013260D01*
X127669524Y-93013260D02*
X127860000Y-92298974D01*
X127860000Y-92298974D02*
X128050476Y-93013260D01*
X128050476Y-93013260D02*
X128288572Y-92013260D01*
X128621905Y-92108498D02*
X128669524Y-92060879D01*
X128669524Y-92060879D02*
X128764762Y-92013260D01*
X128764762Y-92013260D02*
X129002857Y-92013260D01*
X129002857Y-92013260D02*
X129098095Y-92060879D01*
X129098095Y-92060879D02*
X129145714Y-92108498D01*
X129145714Y-92108498D02*
X129193333Y-92203736D01*
X129193333Y-92203736D02*
X129193333Y-92298974D01*
X129193333Y-92298974D02*
X129145714Y-92441831D01*
X129145714Y-92441831D02*
X128574286Y-93013260D01*
X128574286Y-93013260D02*
X129193333Y-93013260D01*
X133223259Y-94012382D02*
X132747068Y-94345715D01*
X133223259Y-94583810D02*
X132223259Y-94583810D01*
X132223259Y-94583810D02*
X132223259Y-94202858D01*
X132223259Y-94202858D02*
X132270878Y-94107620D01*
X132270878Y-94107620D02*
X132318497Y-94060001D01*
X132318497Y-94060001D02*
X132413735Y-94012382D01*
X132413735Y-94012382D02*
X132556592Y-94012382D01*
X132556592Y-94012382D02*
X132651830Y-94060001D01*
X132651830Y-94060001D02*
X132699449Y-94107620D01*
X132699449Y-94107620D02*
X132747068Y-94202858D01*
X132747068Y-94202858D02*
X132747068Y-94583810D01*
X132699449Y-93583810D02*
X132699449Y-93250477D01*
X133223259Y-93107620D02*
X133223259Y-93583810D01*
X133223259Y-93583810D02*
X132223259Y-93583810D01*
X132223259Y-93583810D02*
X132223259Y-93107620D01*
X133175640Y-92726667D02*
X133223259Y-92583810D01*
X133223259Y-92583810D02*
X133223259Y-92345715D01*
X133223259Y-92345715D02*
X133175640Y-92250477D01*
X133175640Y-92250477D02*
X133128020Y-92202858D01*
X133128020Y-92202858D02*
X133032782Y-92155239D01*
X133032782Y-92155239D02*
X132937544Y-92155239D01*
X132937544Y-92155239D02*
X132842306Y-92202858D01*
X132842306Y-92202858D02*
X132794687Y-92250477D01*
X132794687Y-92250477D02*
X132747068Y-92345715D01*
X132747068Y-92345715D02*
X132699449Y-92536191D01*
X132699449Y-92536191D02*
X132651830Y-92631429D01*
X132651830Y-92631429D02*
X132604211Y-92679048D01*
X132604211Y-92679048D02*
X132508973Y-92726667D01*
X132508973Y-92726667D02*
X132413735Y-92726667D01*
X132413735Y-92726667D02*
X132318497Y-92679048D01*
X132318497Y-92679048D02*
X132270878Y-92631429D01*
X132270878Y-92631429D02*
X132223259Y-92536191D01*
X132223259Y-92536191D02*
X132223259Y-92298096D01*
X132223259Y-92298096D02*
X132270878Y-92155239D01*
X132699449Y-91726667D02*
X132699449Y-91393334D01*
X133223259Y-91250477D02*
X133223259Y-91726667D01*
X133223259Y-91726667D02*
X132223259Y-91726667D01*
X132223259Y-91726667D02*
X132223259Y-91250477D01*
X132223259Y-90964762D02*
X132223259Y-90393334D01*
X133223259Y-90679048D02*
X132223259Y-90679048D01*
X131294348Y-96658541D02*
X131294348Y-96420446D01*
X131532443Y-96515684D02*
X131294348Y-96420446D01*
X131294348Y-96420446D02*
X131056253Y-96515684D01*
X131437205Y-96229970D02*
X131294348Y-96420446D01*
X131294348Y-96420446D02*
X131151491Y-96229970D01*
X131294349Y-95565060D02*
X131294349Y-95803155D01*
X131056254Y-95707917D02*
X131294349Y-95803155D01*
X131294349Y-95803155D02*
X131532444Y-95707917D01*
X131151492Y-95993631D02*
X131294349Y-95803155D01*
X131294349Y-95803155D02*
X131437206Y-95993631D01*
X157666666Y-108308259D02*
X157666666Y-109022544D01*
X157666666Y-109022544D02*
X157619047Y-109165401D01*
X157619047Y-109165401D02*
X157523809Y-109260640D01*
X157523809Y-109260640D02*
X157380952Y-109308259D01*
X157380952Y-109308259D02*
X157285714Y-109308259D01*
X158666666Y-109308259D02*
X158095238Y-109308259D01*
X158380952Y-109308259D02*
X158380952Y-108308259D01*
X158380952Y-108308259D02*
X158285714Y-108451116D01*
X158285714Y-108451116D02*
X158190476Y-108546354D01*
X158190476Y-108546354D02*
X158095238Y-108593973D01*
X131048021Y-99645358D02*
X131095641Y-99692977D01*
X131095641Y-99692977D02*
X131143260Y-99835834D01*
X131143260Y-99835834D02*
X131143260Y-99931072D01*
X131143260Y-99931072D02*
X131095641Y-100073929D01*
X131095641Y-100073929D02*
X131000402Y-100169167D01*
X131000402Y-100169167D02*
X130905164Y-100216786D01*
X130905164Y-100216786D02*
X130714688Y-100264405D01*
X130714688Y-100264405D02*
X130571831Y-100264405D01*
X130571831Y-100264405D02*
X130381355Y-100216786D01*
X130381355Y-100216786D02*
X130286117Y-100169167D01*
X130286117Y-100169167D02*
X130190879Y-100073929D01*
X130190879Y-100073929D02*
X130143260Y-99931072D01*
X130143260Y-99931072D02*
X130143260Y-99835834D01*
X130143260Y-99835834D02*
X130190879Y-99692977D01*
X130190879Y-99692977D02*
X130238498Y-99645358D01*
X131143260Y-98692977D02*
X131143260Y-99264405D01*
X131143260Y-98978691D02*
X130143260Y-98978691D01*
X130143260Y-98978691D02*
X130286117Y-99073929D01*
X130286117Y-99073929D02*
X130381355Y-99169167D01*
X130381355Y-99169167D02*
X130428974Y-99264405D01*
X130238498Y-98312024D02*
X130190879Y-98264405D01*
X130190879Y-98264405D02*
X130143260Y-98169167D01*
X130143260Y-98169167D02*
X130143260Y-97931072D01*
X130143260Y-97931072D02*
X130190879Y-97835834D01*
X130190879Y-97835834D02*
X130238498Y-97788215D01*
X130238498Y-97788215D02*
X130333736Y-97740596D01*
X130333736Y-97740596D02*
X130428974Y-97740596D01*
X130428974Y-97740596D02*
X130571831Y-97788215D01*
X130571831Y-97788215D02*
X131143260Y-98359643D01*
X131143260Y-98359643D02*
X131143260Y-97740596D01*
X154483333Y-105323259D02*
X154150000Y-104847068D01*
X153911905Y-105323259D02*
X153911905Y-104323259D01*
X153911905Y-104323259D02*
X154292857Y-104323259D01*
X154292857Y-104323259D02*
X154388095Y-104370878D01*
X154388095Y-104370878D02*
X154435714Y-104418497D01*
X154435714Y-104418497D02*
X154483333Y-104513735D01*
X154483333Y-104513735D02*
X154483333Y-104656592D01*
X154483333Y-104656592D02*
X154435714Y-104751830D01*
X154435714Y-104751830D02*
X154388095Y-104799449D01*
X154388095Y-104799449D02*
X154292857Y-104847068D01*
X154292857Y-104847068D02*
X153911905Y-104847068D01*
X155435714Y-105323259D02*
X154864286Y-105323259D01*
X155150000Y-105323259D02*
X155150000Y-104323259D01*
X155150000Y-104323259D02*
X155054762Y-104466116D01*
X155054762Y-104466116D02*
X154959524Y-104561354D01*
X154959524Y-104561354D02*
X154864286Y-104608973D01*
X167398259Y-110681666D02*
X166922068Y-111014999D01*
X167398259Y-111253094D02*
X166398259Y-111253094D01*
X166398259Y-111253094D02*
X166398259Y-110872142D01*
X166398259Y-110872142D02*
X166445878Y-110776904D01*
X166445878Y-110776904D02*
X166493497Y-110729285D01*
X166493497Y-110729285D02*
X166588735Y-110681666D01*
X166588735Y-110681666D02*
X166731592Y-110681666D01*
X166731592Y-110681666D02*
X166826830Y-110729285D01*
X166826830Y-110729285D02*
X166874449Y-110776904D01*
X166874449Y-110776904D02*
X166922068Y-110872142D01*
X166922068Y-110872142D02*
X166922068Y-111253094D01*
X166731592Y-109824523D02*
X167398259Y-109824523D01*
X166350640Y-110062618D02*
X167064925Y-110300713D01*
X167064925Y-110300713D02*
X167064925Y-109681666D01*
X184728259Y-84291666D02*
X184728259Y-84767856D01*
X184728259Y-84767856D02*
X183728259Y-84767856D01*
X184728259Y-83434523D02*
X184728259Y-84005951D01*
X184728259Y-83720237D02*
X183728259Y-83720237D01*
X183728259Y-83720237D02*
X183871116Y-83815475D01*
X183871116Y-83815475D02*
X183966354Y-83910713D01*
X183966354Y-83910713D02*
X184013973Y-84005951D01*
X170166666Y-83953259D02*
X170166666Y-84667544D01*
X170166666Y-84667544D02*
X170119047Y-84810401D01*
X170119047Y-84810401D02*
X170023809Y-84905640D01*
X170023809Y-84905640D02*
X169880952Y-84953259D01*
X169880952Y-84953259D02*
X169785714Y-84953259D01*
X170595238Y-84048497D02*
X170642857Y-84000878D01*
X170642857Y-84000878D02*
X170738095Y-83953259D01*
X170738095Y-83953259D02*
X170976190Y-83953259D01*
X170976190Y-83953259D02*
X171071428Y-84000878D01*
X171071428Y-84000878D02*
X171119047Y-84048497D01*
X171119047Y-84048497D02*
X171166666Y-84143735D01*
X171166666Y-84143735D02*
X171166666Y-84238973D01*
X171166666Y-84238973D02*
X171119047Y-84381830D01*
X171119047Y-84381830D02*
X170547619Y-84953259D01*
X170547619Y-84953259D02*
X171166666Y-84953259D01*
X125203259Y-99206667D02*
X124727068Y-99540000D01*
X125203259Y-99778095D02*
X124203259Y-99778095D01*
X124203259Y-99778095D02*
X124203259Y-99397143D01*
X124203259Y-99397143D02*
X124250878Y-99301905D01*
X124250878Y-99301905D02*
X124298497Y-99254286D01*
X124298497Y-99254286D02*
X124393735Y-99206667D01*
X124393735Y-99206667D02*
X124536592Y-99206667D01*
X124536592Y-99206667D02*
X124631830Y-99254286D01*
X124631830Y-99254286D02*
X124679449Y-99301905D01*
X124679449Y-99301905D02*
X124727068Y-99397143D01*
X124727068Y-99397143D02*
X124727068Y-99778095D01*
X124203259Y-98873333D02*
X124203259Y-98206667D01*
X124203259Y-98206667D02*
X125203259Y-98635238D01*
X126526667Y-84965641D02*
X126669524Y-85013260D01*
X126669524Y-85013260D02*
X126907619Y-85013260D01*
X126907619Y-85013260D02*
X127002857Y-84965641D01*
X127002857Y-84965641D02*
X127050476Y-84918021D01*
X127050476Y-84918021D02*
X127098095Y-84822783D01*
X127098095Y-84822783D02*
X127098095Y-84727545D01*
X127098095Y-84727545D02*
X127050476Y-84632307D01*
X127050476Y-84632307D02*
X127002857Y-84584688D01*
X127002857Y-84584688D02*
X126907619Y-84537069D01*
X126907619Y-84537069D02*
X126717143Y-84489450D01*
X126717143Y-84489450D02*
X126621905Y-84441831D01*
X126621905Y-84441831D02*
X126574286Y-84394212D01*
X126574286Y-84394212D02*
X126526667Y-84298974D01*
X126526667Y-84298974D02*
X126526667Y-84203736D01*
X126526667Y-84203736D02*
X126574286Y-84108498D01*
X126574286Y-84108498D02*
X126621905Y-84060879D01*
X126621905Y-84060879D02*
X126717143Y-84013260D01*
X126717143Y-84013260D02*
X126955238Y-84013260D01*
X126955238Y-84013260D02*
X127098095Y-84060879D01*
X127431429Y-84013260D02*
X127669524Y-85013260D01*
X127669524Y-85013260D02*
X127860000Y-84298974D01*
X127860000Y-84298974D02*
X128050476Y-85013260D01*
X128050476Y-85013260D02*
X128288572Y-84013260D01*
X129193333Y-85013260D02*
X128621905Y-85013260D01*
X128907619Y-85013260D02*
X128907619Y-84013260D01*
X128907619Y-84013260D02*
X128812381Y-84156117D01*
X128812381Y-84156117D02*
X128717143Y-84251355D01*
X128717143Y-84251355D02*
X128621905Y-84298974D01*
X132669449Y-85987142D02*
X132717068Y-85844285D01*
X132717068Y-85844285D02*
X132764687Y-85796666D01*
X132764687Y-85796666D02*
X132859925Y-85749047D01*
X132859925Y-85749047D02*
X133002782Y-85749047D01*
X133002782Y-85749047D02*
X133098020Y-85796666D01*
X133098020Y-85796666D02*
X133145640Y-85844285D01*
X133145640Y-85844285D02*
X133193259Y-85939523D01*
X133193259Y-85939523D02*
X133193259Y-86320475D01*
X133193259Y-86320475D02*
X132193259Y-86320475D01*
X132193259Y-86320475D02*
X132193259Y-85987142D01*
X132193259Y-85987142D02*
X132240878Y-85891904D01*
X132240878Y-85891904D02*
X132288497Y-85844285D01*
X132288497Y-85844285D02*
X132383735Y-85796666D01*
X132383735Y-85796666D02*
X132478973Y-85796666D01*
X132478973Y-85796666D02*
X132574211Y-85844285D01*
X132574211Y-85844285D02*
X132621830Y-85891904D01*
X132621830Y-85891904D02*
X132669449Y-85987142D01*
X132669449Y-85987142D02*
X132669449Y-86320475D01*
X132193259Y-85129999D02*
X132193259Y-84939523D01*
X132193259Y-84939523D02*
X132240878Y-84844285D01*
X132240878Y-84844285D02*
X132336116Y-84749047D01*
X132336116Y-84749047D02*
X132526592Y-84701428D01*
X132526592Y-84701428D02*
X132859925Y-84701428D01*
X132859925Y-84701428D02*
X133050401Y-84749047D01*
X133050401Y-84749047D02*
X133145640Y-84844285D01*
X133145640Y-84844285D02*
X133193259Y-84939523D01*
X133193259Y-84939523D02*
X133193259Y-85129999D01*
X133193259Y-85129999D02*
X133145640Y-85225237D01*
X133145640Y-85225237D02*
X133050401Y-85320475D01*
X133050401Y-85320475D02*
X132859925Y-85368094D01*
X132859925Y-85368094D02*
X132526592Y-85368094D01*
X132526592Y-85368094D02*
X132336116Y-85320475D01*
X132336116Y-85320475D02*
X132240878Y-85225237D01*
X132240878Y-85225237D02*
X132193259Y-85129999D01*
X132193259Y-84082380D02*
X132193259Y-83891904D01*
X132193259Y-83891904D02*
X132240878Y-83796666D01*
X132240878Y-83796666D02*
X132336116Y-83701428D01*
X132336116Y-83701428D02*
X132526592Y-83653809D01*
X132526592Y-83653809D02*
X132859925Y-83653809D01*
X132859925Y-83653809D02*
X133050401Y-83701428D01*
X133050401Y-83701428D02*
X133145640Y-83796666D01*
X133145640Y-83796666D02*
X133193259Y-83891904D01*
X133193259Y-83891904D02*
X133193259Y-84082380D01*
X133193259Y-84082380D02*
X133145640Y-84177618D01*
X133145640Y-84177618D02*
X133050401Y-84272856D01*
X133050401Y-84272856D02*
X132859925Y-84320475D01*
X132859925Y-84320475D02*
X132526592Y-84320475D01*
X132526592Y-84320475D02*
X132336116Y-84272856D01*
X132336116Y-84272856D02*
X132240878Y-84177618D01*
X132240878Y-84177618D02*
X132193259Y-84082380D01*
X132193259Y-83368094D02*
X132193259Y-82796666D01*
X133193259Y-83082380D02*
X132193259Y-83082380D01*
X131294349Y-87565060D02*
X131294349Y-87803155D01*
X131056254Y-87707917D02*
X131294349Y-87803155D01*
X131294349Y-87803155D02*
X131532444Y-87707917D01*
X131151492Y-87993631D02*
X131294349Y-87803155D01*
X131294349Y-87803155D02*
X131437206Y-87993631D01*
X131294348Y-88658541D02*
X131294348Y-88420446D01*
X131532443Y-88515684D02*
X131294348Y-88420446D01*
X131294348Y-88420446D02*
X131056253Y-88515684D01*
X131437205Y-88229970D02*
X131294348Y-88420446D01*
X131294348Y-88420446D02*
X131151491Y-88229970D01*
X190828020Y-89912857D02*
X190875640Y-89960476D01*
X190875640Y-89960476D02*
X190923259Y-90103333D01*
X190923259Y-90103333D02*
X190923259Y-90198571D01*
X190923259Y-90198571D02*
X190875640Y-90341428D01*
X190875640Y-90341428D02*
X190780401Y-90436666D01*
X190780401Y-90436666D02*
X190685163Y-90484285D01*
X190685163Y-90484285D02*
X190494687Y-90531904D01*
X190494687Y-90531904D02*
X190351830Y-90531904D01*
X190351830Y-90531904D02*
X190161354Y-90484285D01*
X190161354Y-90484285D02*
X190066116Y-90436666D01*
X190066116Y-90436666D02*
X189970878Y-90341428D01*
X189970878Y-90341428D02*
X189923259Y-90198571D01*
X189923259Y-90198571D02*
X189923259Y-90103333D01*
X189923259Y-90103333D02*
X189970878Y-89960476D01*
X189970878Y-89960476D02*
X190018497Y-89912857D01*
X190923259Y-88960476D02*
X190923259Y-89531904D01*
X190923259Y-89246190D02*
X189923259Y-89246190D01*
X189923259Y-89246190D02*
X190066116Y-89341428D01*
X190066116Y-89341428D02*
X190161354Y-89436666D01*
X190161354Y-89436666D02*
X190208973Y-89531904D01*
X189923259Y-88627142D02*
X189923259Y-87960476D01*
X189923259Y-87960476D02*
X190923259Y-88389047D01*
X142893333Y-87088020D02*
X142845714Y-87135640D01*
X142845714Y-87135640D02*
X142702857Y-87183259D01*
X142702857Y-87183259D02*
X142607619Y-87183259D01*
X142607619Y-87183259D02*
X142464762Y-87135640D01*
X142464762Y-87135640D02*
X142369524Y-87040401D01*
X142369524Y-87040401D02*
X142321905Y-86945163D01*
X142321905Y-86945163D02*
X142274286Y-86754687D01*
X142274286Y-86754687D02*
X142274286Y-86611830D01*
X142274286Y-86611830D02*
X142321905Y-86421354D01*
X142321905Y-86421354D02*
X142369524Y-86326116D01*
X142369524Y-86326116D02*
X142464762Y-86230878D01*
X142464762Y-86230878D02*
X142607619Y-86183259D01*
X142607619Y-86183259D02*
X142702857Y-86183259D01*
X142702857Y-86183259D02*
X142845714Y-86230878D01*
X142845714Y-86230878D02*
X142893333Y-86278497D01*
X143226667Y-86183259D02*
X143845714Y-86183259D01*
X143845714Y-86183259D02*
X143512381Y-86564211D01*
X143512381Y-86564211D02*
X143655238Y-86564211D01*
X143655238Y-86564211D02*
X143750476Y-86611830D01*
X143750476Y-86611830D02*
X143798095Y-86659449D01*
X143798095Y-86659449D02*
X143845714Y-86754687D01*
X143845714Y-86754687D02*
X143845714Y-86992782D01*
X143845714Y-86992782D02*
X143798095Y-87088020D01*
X143798095Y-87088020D02*
X143750476Y-87135640D01*
X143750476Y-87135640D02*
X143655238Y-87183259D01*
X143655238Y-87183259D02*
X143369524Y-87183259D01*
X143369524Y-87183259D02*
X143274286Y-87135640D01*
X143274286Y-87135640D02*
X143226667Y-87088020D01*
X172133095Y-104893258D02*
X172133095Y-105702781D01*
X172133095Y-105702781D02*
X172180714Y-105798019D01*
X172180714Y-105798019D02*
X172228333Y-105845639D01*
X172228333Y-105845639D02*
X172323571Y-105893258D01*
X172323571Y-105893258D02*
X172514047Y-105893258D01*
X172514047Y-105893258D02*
X172609285Y-105845639D01*
X172609285Y-105845639D02*
X172656904Y-105798019D01*
X172656904Y-105798019D02*
X172704523Y-105702781D01*
X172704523Y-105702781D02*
X172704523Y-104893258D01*
X173133095Y-104988496D02*
X173180714Y-104940877D01*
X173180714Y-104940877D02*
X173275952Y-104893258D01*
X173275952Y-104893258D02*
X173514047Y-104893258D01*
X173514047Y-104893258D02*
X173609285Y-104940877D01*
X173609285Y-104940877D02*
X173656904Y-104988496D01*
X173656904Y-104988496D02*
X173704523Y-105083734D01*
X173704523Y-105083734D02*
X173704523Y-105178972D01*
X173704523Y-105178972D02*
X173656904Y-105321829D01*
X173656904Y-105321829D02*
X173085476Y-105893258D01*
X173085476Y-105893258D02*
X173704523Y-105893258D01*
D13*
X173606666Y-108362219D02*
X173606666Y-109076504D01*
X173606666Y-109076504D02*
X173559047Y-109219361D01*
X173559047Y-109219361D02*
X173463809Y-109314600D01*
X173463809Y-109314600D02*
X173320952Y-109362219D01*
X173320952Y-109362219D02*
X173225714Y-109362219D01*
X174511428Y-108362219D02*
X174320952Y-108362219D01*
X174320952Y-108362219D02*
X174225714Y-108409838D01*
X174225714Y-108409838D02*
X174178095Y-108457457D01*
X174178095Y-108457457D02*
X174082857Y-108600314D01*
X174082857Y-108600314D02*
X174035238Y-108790790D01*
X174035238Y-108790790D02*
X174035238Y-109171742D01*
X174035238Y-109171742D02*
X174082857Y-109266980D01*
X174082857Y-109266980D02*
X174130476Y-109314600D01*
X174130476Y-109314600D02*
X174225714Y-109362219D01*
X174225714Y-109362219D02*
X174416190Y-109362219D01*
X174416190Y-109362219D02*
X174511428Y-109314600D01*
X174511428Y-109314600D02*
X174559047Y-109266980D01*
X174559047Y-109266980D02*
X174606666Y-109171742D01*
X174606666Y-109171742D02*
X174606666Y-108933647D01*
X174606666Y-108933647D02*
X174559047Y-108838409D01*
X174559047Y-108838409D02*
X174511428Y-108790790D01*
X174511428Y-108790790D02*
X174416190Y-108743171D01*
X174416190Y-108743171D02*
X174225714Y-108743171D01*
X174225714Y-108743171D02*
X174130476Y-108790790D01*
X174130476Y-108790790D02*
X174082857Y-108838409D01*
X174082857Y-108838409D02*
X174035238Y-108933647D01*
X170201904Y-117416980D02*
X170154285Y-117464600D01*
X170154285Y-117464600D02*
X170011428Y-117512219D01*
X170011428Y-117512219D02*
X169916190Y-117512219D01*
X169916190Y-117512219D02*
X169773333Y-117464600D01*
X169773333Y-117464600D02*
X169678095Y-117369361D01*
X169678095Y-117369361D02*
X169630476Y-117274123D01*
X169630476Y-117274123D02*
X169582857Y-117083647D01*
X169582857Y-117083647D02*
X169582857Y-116940790D01*
X169582857Y-116940790D02*
X169630476Y-116750314D01*
X169630476Y-116750314D02*
X169678095Y-116655076D01*
X169678095Y-116655076D02*
X169773333Y-116559838D01*
X169773333Y-116559838D02*
X169916190Y-116512219D01*
X169916190Y-116512219D02*
X170011428Y-116512219D01*
X170011428Y-116512219D02*
X170154285Y-116559838D01*
X170154285Y-116559838D02*
X170201904Y-116607457D01*
X170773333Y-117512219D02*
X170678095Y-117464600D01*
X170678095Y-117464600D02*
X170630476Y-117416980D01*
X170630476Y-117416980D02*
X170582857Y-117321742D01*
X170582857Y-117321742D02*
X170582857Y-117036028D01*
X170582857Y-117036028D02*
X170630476Y-116940790D01*
X170630476Y-116940790D02*
X170678095Y-116893171D01*
X170678095Y-116893171D02*
X170773333Y-116845552D01*
X170773333Y-116845552D02*
X170916190Y-116845552D01*
X170916190Y-116845552D02*
X171011428Y-116893171D01*
X171011428Y-116893171D02*
X171059047Y-116940790D01*
X171059047Y-116940790D02*
X171106666Y-117036028D01*
X171106666Y-117036028D02*
X171106666Y-117321742D01*
X171106666Y-117321742D02*
X171059047Y-117416980D01*
X171059047Y-117416980D02*
X171011428Y-117464600D01*
X171011428Y-117464600D02*
X170916190Y-117512219D01*
X170916190Y-117512219D02*
X170773333Y-117512219D01*
X171535238Y-116845552D02*
X171535238Y-117512219D01*
X171535238Y-116940790D02*
X171582857Y-116893171D01*
X171582857Y-116893171D02*
X171678095Y-116845552D01*
X171678095Y-116845552D02*
X171820952Y-116845552D01*
X171820952Y-116845552D02*
X171916190Y-116893171D01*
X171916190Y-116893171D02*
X171963809Y-116988409D01*
X171963809Y-116988409D02*
X171963809Y-117512219D01*
X172440000Y-116845552D02*
X172440000Y-117512219D01*
X172440000Y-116940790D02*
X172487619Y-116893171D01*
X172487619Y-116893171D02*
X172582857Y-116845552D01*
X172582857Y-116845552D02*
X172725714Y-116845552D01*
X172725714Y-116845552D02*
X172820952Y-116893171D01*
X172820952Y-116893171D02*
X172868571Y-116988409D01*
X172868571Y-116988409D02*
X172868571Y-117512219D01*
X173106667Y-117607457D02*
X173868571Y-117607457D01*
X174297143Y-116512219D02*
X174392381Y-116512219D01*
X174392381Y-116512219D02*
X174487619Y-116559838D01*
X174487619Y-116559838D02*
X174535238Y-116607457D01*
X174535238Y-116607457D02*
X174582857Y-116702695D01*
X174582857Y-116702695D02*
X174630476Y-116893171D01*
X174630476Y-116893171D02*
X174630476Y-117131266D01*
X174630476Y-117131266D02*
X174582857Y-117321742D01*
X174582857Y-117321742D02*
X174535238Y-117416980D01*
X174535238Y-117416980D02*
X174487619Y-117464600D01*
X174487619Y-117464600D02*
X174392381Y-117512219D01*
X174392381Y-117512219D02*
X174297143Y-117512219D01*
X174297143Y-117512219D02*
X174201905Y-117464600D01*
X174201905Y-117464600D02*
X174154286Y-117416980D01*
X174154286Y-117416980D02*
X174106667Y-117321742D01*
X174106667Y-117321742D02*
X174059048Y-117131266D01*
X174059048Y-117131266D02*
X174059048Y-116893171D01*
X174059048Y-116893171D02*
X174106667Y-116702695D01*
X174106667Y-116702695D02*
X174154286Y-116607457D01*
X174154286Y-116607457D02*
X174201905Y-116559838D01*
X174201905Y-116559838D02*
X174297143Y-116512219D01*
X175582857Y-117512219D02*
X175011429Y-117512219D01*
X175297143Y-117512219D02*
X175297143Y-116512219D01*
X175297143Y-116512219D02*
X175201905Y-116655076D01*
X175201905Y-116655076D02*
X175106667Y-116750314D01*
X175106667Y-116750314D02*
X175011429Y-116797933D01*
X175916191Y-117512219D02*
X176440000Y-116845552D01*
X175916191Y-116845552D02*
X176440000Y-117512219D01*
X177011429Y-116512219D02*
X177106667Y-116512219D01*
X177106667Y-116512219D02*
X177201905Y-116559838D01*
X177201905Y-116559838D02*
X177249524Y-116607457D01*
X177249524Y-116607457D02*
X177297143Y-116702695D01*
X177297143Y-116702695D02*
X177344762Y-116893171D01*
X177344762Y-116893171D02*
X177344762Y-117131266D01*
X177344762Y-117131266D02*
X177297143Y-117321742D01*
X177297143Y-117321742D02*
X177249524Y-117416980D01*
X177249524Y-117416980D02*
X177201905Y-117464600D01*
X177201905Y-117464600D02*
X177106667Y-117512219D01*
X177106667Y-117512219D02*
X177011429Y-117512219D01*
X177011429Y-117512219D02*
X176916191Y-117464600D01*
X176916191Y-117464600D02*
X176868572Y-117416980D01*
X176868572Y-117416980D02*
X176820953Y-117321742D01*
X176820953Y-117321742D02*
X176773334Y-117131266D01*
X176773334Y-117131266D02*
X176773334Y-116893171D01*
X176773334Y-116893171D02*
X176820953Y-116702695D01*
X176820953Y-116702695D02*
X176868572Y-116607457D01*
X176868572Y-116607457D02*
X176916191Y-116559838D01*
X176916191Y-116559838D02*
X177011429Y-116512219D01*
X177725715Y-116607457D02*
X177773334Y-116559838D01*
X177773334Y-116559838D02*
X177868572Y-116512219D01*
X177868572Y-116512219D02*
X178106667Y-116512219D01*
X178106667Y-116512219D02*
X178201905Y-116559838D01*
X178201905Y-116559838D02*
X178249524Y-116607457D01*
X178249524Y-116607457D02*
X178297143Y-116702695D01*
X178297143Y-116702695D02*
X178297143Y-116797933D01*
X178297143Y-116797933D02*
X178249524Y-116940790D01*
X178249524Y-116940790D02*
X177678096Y-117512219D01*
X177678096Y-117512219D02*
X178297143Y-117512219D01*
D12*
X127257142Y-72393259D02*
X126923809Y-71917068D01*
X126685714Y-72393259D02*
X126685714Y-71393259D01*
X126685714Y-71393259D02*
X127066666Y-71393259D01*
X127066666Y-71393259D02*
X127161904Y-71440878D01*
X127161904Y-71440878D02*
X127209523Y-71488497D01*
X127209523Y-71488497D02*
X127257142Y-71583735D01*
X127257142Y-71583735D02*
X127257142Y-71726592D01*
X127257142Y-71726592D02*
X127209523Y-71821830D01*
X127209523Y-71821830D02*
X127161904Y-71869449D01*
X127161904Y-71869449D02*
X127066666Y-71917068D01*
X127066666Y-71917068D02*
X126685714Y-71917068D01*
X128209523Y-72393259D02*
X127638095Y-72393259D01*
X127923809Y-72393259D02*
X127923809Y-71393259D01*
X127923809Y-71393259D02*
X127828571Y-71536116D01*
X127828571Y-71536116D02*
X127733333Y-71631354D01*
X127733333Y-71631354D02*
X127638095Y-71678973D01*
X128828571Y-71393259D02*
X128923809Y-71393259D01*
X128923809Y-71393259D02*
X129019047Y-71440878D01*
X129019047Y-71440878D02*
X129066666Y-71488497D01*
X129066666Y-71488497D02*
X129114285Y-71583735D01*
X129114285Y-71583735D02*
X129161904Y-71774211D01*
X129161904Y-71774211D02*
X129161904Y-72012306D01*
X129161904Y-72012306D02*
X129114285Y-72202782D01*
X129114285Y-72202782D02*
X129066666Y-72298020D01*
X129066666Y-72298020D02*
X129019047Y-72345640D01*
X129019047Y-72345640D02*
X128923809Y-72393259D01*
X128923809Y-72393259D02*
X128828571Y-72393259D01*
X128828571Y-72393259D02*
X128733333Y-72345640D01*
X128733333Y-72345640D02*
X128685714Y-72298020D01*
X128685714Y-72298020D02*
X128638095Y-72202782D01*
X128638095Y-72202782D02*
X128590476Y-72012306D01*
X128590476Y-72012306D02*
X128590476Y-71774211D01*
X128590476Y-71774211D02*
X128638095Y-71583735D01*
X128638095Y-71583735D02*
X128685714Y-71488497D01*
X128685714Y-71488497D02*
X128733333Y-71440878D01*
X128733333Y-71440878D02*
X128828571Y-71393259D01*
X130947143Y-76967672D02*
X130899524Y-77015292D01*
X130899524Y-77015292D02*
X130756667Y-77062911D01*
X130756667Y-77062911D02*
X130661429Y-77062911D01*
X130661429Y-77062911D02*
X130518572Y-77015292D01*
X130518572Y-77015292D02*
X130423334Y-76920053D01*
X130423334Y-76920053D02*
X130375715Y-76824815D01*
X130375715Y-76824815D02*
X130328096Y-76634339D01*
X130328096Y-76634339D02*
X130328096Y-76491482D01*
X130328096Y-76491482D02*
X130375715Y-76301006D01*
X130375715Y-76301006D02*
X130423334Y-76205768D01*
X130423334Y-76205768D02*
X130518572Y-76110530D01*
X130518572Y-76110530D02*
X130661429Y-76062911D01*
X130661429Y-76062911D02*
X130756667Y-76062911D01*
X130756667Y-76062911D02*
X130899524Y-76110530D01*
X130899524Y-76110530D02*
X130947143Y-76158149D01*
X131899524Y-77062911D02*
X131328096Y-77062911D01*
X131613810Y-77062911D02*
X131613810Y-76062911D01*
X131613810Y-76062911D02*
X131518572Y-76205768D01*
X131518572Y-76205768D02*
X131423334Y-76301006D01*
X131423334Y-76301006D02*
X131328096Y-76348625D01*
X132518572Y-76062911D02*
X132613810Y-76062911D01*
X132613810Y-76062911D02*
X132709048Y-76110530D01*
X132709048Y-76110530D02*
X132756667Y-76158149D01*
X132756667Y-76158149D02*
X132804286Y-76253387D01*
X132804286Y-76253387D02*
X132851905Y-76443863D01*
X132851905Y-76443863D02*
X132851905Y-76681958D01*
X132851905Y-76681958D02*
X132804286Y-76872434D01*
X132804286Y-76872434D02*
X132756667Y-76967672D01*
X132756667Y-76967672D02*
X132709048Y-77015292D01*
X132709048Y-77015292D02*
X132613810Y-77062911D01*
X132613810Y-77062911D02*
X132518572Y-77062911D01*
X132518572Y-77062911D02*
X132423334Y-77015292D01*
X132423334Y-77015292D02*
X132375715Y-76967672D01*
X132375715Y-76967672D02*
X132328096Y-76872434D01*
X132328096Y-76872434D02*
X132280477Y-76681958D01*
X132280477Y-76681958D02*
X132280477Y-76443863D01*
X132280477Y-76443863D02*
X132328096Y-76253387D01*
X132328096Y-76253387D02*
X132375715Y-76158149D01*
X132375715Y-76158149D02*
X132423334Y-76110530D01*
X132423334Y-76110530D02*
X132518572Y-76062911D01*
X147313259Y-99936666D02*
X146837068Y-100269999D01*
X147313259Y-100508094D02*
X146313259Y-100508094D01*
X146313259Y-100508094D02*
X146313259Y-100127142D01*
X146313259Y-100127142D02*
X146360878Y-100031904D01*
X146360878Y-100031904D02*
X146408497Y-99984285D01*
X146408497Y-99984285D02*
X146503735Y-99936666D01*
X146503735Y-99936666D02*
X146646592Y-99936666D01*
X146646592Y-99936666D02*
X146741830Y-99984285D01*
X146741830Y-99984285D02*
X146789449Y-100031904D01*
X146789449Y-100031904D02*
X146837068Y-100127142D01*
X146837068Y-100127142D02*
X146837068Y-100508094D01*
X146313259Y-99079523D02*
X146313259Y-99269999D01*
X146313259Y-99269999D02*
X146360878Y-99365237D01*
X146360878Y-99365237D02*
X146408497Y-99412856D01*
X146408497Y-99412856D02*
X146551354Y-99508094D01*
X146551354Y-99508094D02*
X146741830Y-99555713D01*
X146741830Y-99555713D02*
X147122782Y-99555713D01*
X147122782Y-99555713D02*
X147218020Y-99508094D01*
X147218020Y-99508094D02*
X147265640Y-99460475D01*
X147265640Y-99460475D02*
X147313259Y-99365237D01*
X147313259Y-99365237D02*
X147313259Y-99174761D01*
X147313259Y-99174761D02*
X147265640Y-99079523D01*
X147265640Y-99079523D02*
X147218020Y-99031904D01*
X147218020Y-99031904D02*
X147122782Y-98984285D01*
X147122782Y-98984285D02*
X146884687Y-98984285D01*
X146884687Y-98984285D02*
X146789449Y-99031904D01*
X146789449Y-99031904D02*
X146741830Y-99079523D01*
X146741830Y-99079523D02*
X146694211Y-99174761D01*
X146694211Y-99174761D02*
X146694211Y-99365237D01*
X146694211Y-99365237D02*
X146741830Y-99460475D01*
X146741830Y-99460475D02*
X146789449Y-99508094D01*
X146789449Y-99508094D02*
X146884687Y-99555713D01*
X139333809Y-80077068D02*
X139333809Y-80553259D01*
X139000476Y-79553259D02*
X139333809Y-80077068D01*
X139333809Y-80077068D02*
X139667142Y-79553259D01*
X139952857Y-79648497D02*
X140000476Y-79600878D01*
X140000476Y-79600878D02*
X140095714Y-79553259D01*
X140095714Y-79553259D02*
X140333809Y-79553259D01*
X140333809Y-79553259D02*
X140429047Y-79600878D01*
X140429047Y-79600878D02*
X140476666Y-79648497D01*
X140476666Y-79648497D02*
X140524285Y-79743735D01*
X140524285Y-79743735D02*
X140524285Y-79838973D01*
X140524285Y-79838973D02*
X140476666Y-79981830D01*
X140476666Y-79981830D02*
X139905238Y-80553259D01*
X139905238Y-80553259D02*
X140524285Y-80553259D01*
X136033809Y-80197068D02*
X136033809Y-80673259D01*
X135700476Y-79673259D02*
X136033809Y-80197068D01*
X136033809Y-80197068D02*
X136367142Y-79673259D01*
X137224285Y-80673259D02*
X136652857Y-80673259D01*
X136938571Y-80673259D02*
X136938571Y-79673259D01*
X136938571Y-79673259D02*
X136843333Y-79816116D01*
X136843333Y-79816116D02*
X136748095Y-79911354D01*
X136748095Y-79911354D02*
X136652857Y-79958973D01*
X156443333Y-96748020D02*
X156395714Y-96795640D01*
X156395714Y-96795640D02*
X156252857Y-96843259D01*
X156252857Y-96843259D02*
X156157619Y-96843259D01*
X156157619Y-96843259D02*
X156014762Y-96795640D01*
X156014762Y-96795640D02*
X155919524Y-96700401D01*
X155919524Y-96700401D02*
X155871905Y-96605163D01*
X155871905Y-96605163D02*
X155824286Y-96414687D01*
X155824286Y-96414687D02*
X155824286Y-96271830D01*
X155824286Y-96271830D02*
X155871905Y-96081354D01*
X155871905Y-96081354D02*
X155919524Y-95986116D01*
X155919524Y-95986116D02*
X156014762Y-95890878D01*
X156014762Y-95890878D02*
X156157619Y-95843259D01*
X156157619Y-95843259D02*
X156252857Y-95843259D01*
X156252857Y-95843259D02*
X156395714Y-95890878D01*
X156395714Y-95890878D02*
X156443333Y-95938497D01*
X156919524Y-96843259D02*
X157110000Y-96843259D01*
X157110000Y-96843259D02*
X157205238Y-96795640D01*
X157205238Y-96795640D02*
X157252857Y-96748020D01*
X157252857Y-96748020D02*
X157348095Y-96605163D01*
X157348095Y-96605163D02*
X157395714Y-96414687D01*
X157395714Y-96414687D02*
X157395714Y-96033735D01*
X157395714Y-96033735D02*
X157348095Y-95938497D01*
X157348095Y-95938497D02*
X157300476Y-95890878D01*
X157300476Y-95890878D02*
X157205238Y-95843259D01*
X157205238Y-95843259D02*
X157014762Y-95843259D01*
X157014762Y-95843259D02*
X156919524Y-95890878D01*
X156919524Y-95890878D02*
X156871905Y-95938497D01*
X156871905Y-95938497D02*
X156824286Y-96033735D01*
X156824286Y-96033735D02*
X156824286Y-96271830D01*
X156824286Y-96271830D02*
X156871905Y-96367068D01*
X156871905Y-96367068D02*
X156919524Y-96414687D01*
X156919524Y-96414687D02*
X157014762Y-96462306D01*
X157014762Y-96462306D02*
X157205238Y-96462306D01*
X157205238Y-96462306D02*
X157300476Y-96414687D01*
X157300476Y-96414687D02*
X157348095Y-96367068D01*
X157348095Y-96367068D02*
X157395714Y-96271830D01*
X155423333Y-85798020D02*
X155375714Y-85845640D01*
X155375714Y-85845640D02*
X155232857Y-85893259D01*
X155232857Y-85893259D02*
X155137619Y-85893259D01*
X155137619Y-85893259D02*
X154994762Y-85845640D01*
X154994762Y-85845640D02*
X154899524Y-85750401D01*
X154899524Y-85750401D02*
X154851905Y-85655163D01*
X154851905Y-85655163D02*
X154804286Y-85464687D01*
X154804286Y-85464687D02*
X154804286Y-85321830D01*
X154804286Y-85321830D02*
X154851905Y-85131354D01*
X154851905Y-85131354D02*
X154899524Y-85036116D01*
X154899524Y-85036116D02*
X154994762Y-84940878D01*
X154994762Y-84940878D02*
X155137619Y-84893259D01*
X155137619Y-84893259D02*
X155232857Y-84893259D01*
X155232857Y-84893259D02*
X155375714Y-84940878D01*
X155375714Y-84940878D02*
X155423333Y-84988497D01*
X155756667Y-84893259D02*
X156423333Y-84893259D01*
X156423333Y-84893259D02*
X155994762Y-85893259D01*
X142083333Y-88858020D02*
X142035714Y-88905640D01*
X142035714Y-88905640D02*
X141892857Y-88953259D01*
X141892857Y-88953259D02*
X141797619Y-88953259D01*
X141797619Y-88953259D02*
X141654762Y-88905640D01*
X141654762Y-88905640D02*
X141559524Y-88810401D01*
X141559524Y-88810401D02*
X141511905Y-88715163D01*
X141511905Y-88715163D02*
X141464286Y-88524687D01*
X141464286Y-88524687D02*
X141464286Y-88381830D01*
X141464286Y-88381830D02*
X141511905Y-88191354D01*
X141511905Y-88191354D02*
X141559524Y-88096116D01*
X141559524Y-88096116D02*
X141654762Y-88000878D01*
X141654762Y-88000878D02*
X141797619Y-87953259D01*
X141797619Y-87953259D02*
X141892857Y-87953259D01*
X141892857Y-87953259D02*
X142035714Y-88000878D01*
X142035714Y-88000878D02*
X142083333Y-88048497D01*
X142988095Y-87953259D02*
X142511905Y-87953259D01*
X142511905Y-87953259D02*
X142464286Y-88429449D01*
X142464286Y-88429449D02*
X142511905Y-88381830D01*
X142511905Y-88381830D02*
X142607143Y-88334211D01*
X142607143Y-88334211D02*
X142845238Y-88334211D01*
X142845238Y-88334211D02*
X142940476Y-88381830D01*
X142940476Y-88381830D02*
X142988095Y-88429449D01*
X142988095Y-88429449D02*
X143035714Y-88524687D01*
X143035714Y-88524687D02*
X143035714Y-88762782D01*
X143035714Y-88762782D02*
X142988095Y-88858020D01*
X142988095Y-88858020D02*
X142940476Y-88905640D01*
X142940476Y-88905640D02*
X142845238Y-88953259D01*
X142845238Y-88953259D02*
X142607143Y-88953259D01*
X142607143Y-88953259D02*
X142511905Y-88905640D01*
X142511905Y-88905640D02*
X142464286Y-88858020D01*
X185993333Y-100903259D02*
X185660000Y-100427068D01*
X185421905Y-100903259D02*
X185421905Y-99903259D01*
X185421905Y-99903259D02*
X185802857Y-99903259D01*
X185802857Y-99903259D02*
X185898095Y-99950878D01*
X185898095Y-99950878D02*
X185945714Y-99998497D01*
X185945714Y-99998497D02*
X185993333Y-100093735D01*
X185993333Y-100093735D02*
X185993333Y-100236592D01*
X185993333Y-100236592D02*
X185945714Y-100331830D01*
X185945714Y-100331830D02*
X185898095Y-100379449D01*
X185898095Y-100379449D02*
X185802857Y-100427068D01*
X185802857Y-100427068D02*
X185421905Y-100427068D01*
X186564762Y-100331830D02*
X186469524Y-100284211D01*
X186469524Y-100284211D02*
X186421905Y-100236592D01*
X186421905Y-100236592D02*
X186374286Y-100141354D01*
X186374286Y-100141354D02*
X186374286Y-100093735D01*
X186374286Y-100093735D02*
X186421905Y-99998497D01*
X186421905Y-99998497D02*
X186469524Y-99950878D01*
X186469524Y-99950878D02*
X186564762Y-99903259D01*
X186564762Y-99903259D02*
X186755238Y-99903259D01*
X186755238Y-99903259D02*
X186850476Y-99950878D01*
X186850476Y-99950878D02*
X186898095Y-99998497D01*
X186898095Y-99998497D02*
X186945714Y-100093735D01*
X186945714Y-100093735D02*
X186945714Y-100141354D01*
X186945714Y-100141354D02*
X186898095Y-100236592D01*
X186898095Y-100236592D02*
X186850476Y-100284211D01*
X186850476Y-100284211D02*
X186755238Y-100331830D01*
X186755238Y-100331830D02*
X186564762Y-100331830D01*
X186564762Y-100331830D02*
X186469524Y-100379449D01*
X186469524Y-100379449D02*
X186421905Y-100427068D01*
X186421905Y-100427068D02*
X186374286Y-100522306D01*
X186374286Y-100522306D02*
X186374286Y-100712782D01*
X186374286Y-100712782D02*
X186421905Y-100808020D01*
X186421905Y-100808020D02*
X186469524Y-100855640D01*
X186469524Y-100855640D02*
X186564762Y-100903259D01*
X186564762Y-100903259D02*
X186755238Y-100903259D01*
X186755238Y-100903259D02*
X186850476Y-100855640D01*
X186850476Y-100855640D02*
X186898095Y-100808020D01*
X186898095Y-100808020D02*
X186945714Y-100712782D01*
X186945714Y-100712782D02*
X186945714Y-100522306D01*
X186945714Y-100522306D02*
X186898095Y-100427068D01*
X186898095Y-100427068D02*
X186850476Y-100379449D01*
X186850476Y-100379449D02*
X186755238Y-100331830D01*
X145343333Y-88328020D02*
X145295714Y-88375640D01*
X145295714Y-88375640D02*
X145152857Y-88423259D01*
X145152857Y-88423259D02*
X145057619Y-88423259D01*
X145057619Y-88423259D02*
X144914762Y-88375640D01*
X144914762Y-88375640D02*
X144819524Y-88280401D01*
X144819524Y-88280401D02*
X144771905Y-88185163D01*
X144771905Y-88185163D02*
X144724286Y-87994687D01*
X144724286Y-87994687D02*
X144724286Y-87851830D01*
X144724286Y-87851830D02*
X144771905Y-87661354D01*
X144771905Y-87661354D02*
X144819524Y-87566116D01*
X144819524Y-87566116D02*
X144914762Y-87470878D01*
X144914762Y-87470878D02*
X145057619Y-87423259D01*
X145057619Y-87423259D02*
X145152857Y-87423259D01*
X145152857Y-87423259D02*
X145295714Y-87470878D01*
X145295714Y-87470878D02*
X145343333Y-87518497D01*
X146200476Y-87423259D02*
X146010000Y-87423259D01*
X146010000Y-87423259D02*
X145914762Y-87470878D01*
X145914762Y-87470878D02*
X145867143Y-87518497D01*
X145867143Y-87518497D02*
X145771905Y-87661354D01*
X145771905Y-87661354D02*
X145724286Y-87851830D01*
X145724286Y-87851830D02*
X145724286Y-88232782D01*
X145724286Y-88232782D02*
X145771905Y-88328020D01*
X145771905Y-88328020D02*
X145819524Y-88375640D01*
X145819524Y-88375640D02*
X145914762Y-88423259D01*
X145914762Y-88423259D02*
X146105238Y-88423259D01*
X146105238Y-88423259D02*
X146200476Y-88375640D01*
X146200476Y-88375640D02*
X146248095Y-88328020D01*
X146248095Y-88328020D02*
X146295714Y-88232782D01*
X146295714Y-88232782D02*
X146295714Y-87994687D01*
X146295714Y-87994687D02*
X146248095Y-87899449D01*
X146248095Y-87899449D02*
X146200476Y-87851830D01*
X146200476Y-87851830D02*
X146105238Y-87804211D01*
X146105238Y-87804211D02*
X145914762Y-87804211D01*
X145914762Y-87804211D02*
X145819524Y-87851830D01*
X145819524Y-87851830D02*
X145771905Y-87899449D01*
X145771905Y-87899449D02*
X145724286Y-87994687D01*
X144843333Y-80688020D02*
X144795714Y-80735640D01*
X144795714Y-80735640D02*
X144652857Y-80783259D01*
X144652857Y-80783259D02*
X144557619Y-80783259D01*
X144557619Y-80783259D02*
X144414762Y-80735640D01*
X144414762Y-80735640D02*
X144319524Y-80640401D01*
X144319524Y-80640401D02*
X144271905Y-80545163D01*
X144271905Y-80545163D02*
X144224286Y-80354687D01*
X144224286Y-80354687D02*
X144224286Y-80211830D01*
X144224286Y-80211830D02*
X144271905Y-80021354D01*
X144271905Y-80021354D02*
X144319524Y-79926116D01*
X144319524Y-79926116D02*
X144414762Y-79830878D01*
X144414762Y-79830878D02*
X144557619Y-79783259D01*
X144557619Y-79783259D02*
X144652857Y-79783259D01*
X144652857Y-79783259D02*
X144795714Y-79830878D01*
X144795714Y-79830878D02*
X144843333Y-79878497D01*
X145224286Y-79878497D02*
X145271905Y-79830878D01*
X145271905Y-79830878D02*
X145367143Y-79783259D01*
X145367143Y-79783259D02*
X145605238Y-79783259D01*
X145605238Y-79783259D02*
X145700476Y-79830878D01*
X145700476Y-79830878D02*
X145748095Y-79878497D01*
X145748095Y-79878497D02*
X145795714Y-79973735D01*
X145795714Y-79973735D02*
X145795714Y-80068973D01*
X145795714Y-80068973D02*
X145748095Y-80211830D01*
X145748095Y-80211830D02*
X145176667Y-80783259D01*
X145176667Y-80783259D02*
X145795714Y-80783259D01*
X170076666Y-92923259D02*
X170076666Y-93637544D01*
X170076666Y-93637544D02*
X170029047Y-93780401D01*
X170029047Y-93780401D02*
X169933809Y-93875640D01*
X169933809Y-93875640D02*
X169790952Y-93923259D01*
X169790952Y-93923259D02*
X169695714Y-93923259D01*
X170981428Y-93256592D02*
X170981428Y-93923259D01*
X170743333Y-92875640D02*
X170505238Y-93589925D01*
X170505238Y-93589925D02*
X171124285Y-93589925D01*
X159970880Y-96684285D02*
X159923261Y-96779523D01*
X159923261Y-96779523D02*
X159923261Y-96922380D01*
X159923261Y-96922380D02*
X159970880Y-97065237D01*
X159970880Y-97065237D02*
X160066118Y-97160475D01*
X160066118Y-97160475D02*
X160161356Y-97208094D01*
X160161356Y-97208094D02*
X160351832Y-97255713D01*
X160351832Y-97255713D02*
X160494689Y-97255713D01*
X160494689Y-97255713D02*
X160685165Y-97208094D01*
X160685165Y-97208094D02*
X160780403Y-97160475D01*
X160780403Y-97160475D02*
X160875642Y-97065237D01*
X160875642Y-97065237D02*
X160923261Y-96922380D01*
X160923261Y-96922380D02*
X160923261Y-96827142D01*
X160923261Y-96827142D02*
X160875642Y-96684285D01*
X160875642Y-96684285D02*
X160828022Y-96636666D01*
X160828022Y-96636666D02*
X160494689Y-96636666D01*
X160494689Y-96636666D02*
X160494689Y-96827142D01*
X160923261Y-96208094D02*
X159923261Y-96208094D01*
X159923261Y-96208094D02*
X159923261Y-95827142D01*
X159923261Y-95827142D02*
X159970880Y-95731904D01*
X159970880Y-95731904D02*
X160018499Y-95684285D01*
X160018499Y-95684285D02*
X160113737Y-95636666D01*
X160113737Y-95636666D02*
X160256594Y-95636666D01*
X160256594Y-95636666D02*
X160351832Y-95684285D01*
X160351832Y-95684285D02*
X160399451Y-95731904D01*
X160399451Y-95731904D02*
X160447070Y-95827142D01*
X160447070Y-95827142D02*
X160447070Y-96208094D01*
X160875642Y-95255713D02*
X160923261Y-95112856D01*
X160923261Y-95112856D02*
X160923261Y-94874761D01*
X160923261Y-94874761D02*
X160875642Y-94779523D01*
X160875642Y-94779523D02*
X160828022Y-94731904D01*
X160828022Y-94731904D02*
X160732784Y-94684285D01*
X160732784Y-94684285D02*
X160637546Y-94684285D01*
X160637546Y-94684285D02*
X160542308Y-94731904D01*
X160542308Y-94731904D02*
X160494689Y-94779523D01*
X160494689Y-94779523D02*
X160447070Y-94874761D01*
X160447070Y-94874761D02*
X160399451Y-95065237D01*
X160399451Y-95065237D02*
X160351832Y-95160475D01*
X160351832Y-95160475D02*
X160304213Y-95208094D01*
X160304213Y-95208094D02*
X160208975Y-95255713D01*
X160208975Y-95255713D02*
X160113737Y-95255713D01*
X160113737Y-95255713D02*
X160018499Y-95208094D01*
X160018499Y-95208094D02*
X159970880Y-95160475D01*
X159970880Y-95160475D02*
X159923261Y-95065237D01*
X159923261Y-95065237D02*
X159923261Y-94827142D01*
X159923261Y-94827142D02*
X159970880Y-94684285D01*
X173411905Y-84053259D02*
X173411905Y-83053259D01*
X173411905Y-83053259D02*
X173650000Y-83053259D01*
X173650000Y-83053259D02*
X173792857Y-83100878D01*
X173792857Y-83100878D02*
X173888095Y-83196116D01*
X173888095Y-83196116D02*
X173935714Y-83291354D01*
X173935714Y-83291354D02*
X173983333Y-83481830D01*
X173983333Y-83481830D02*
X173983333Y-83624687D01*
X173983333Y-83624687D02*
X173935714Y-83815163D01*
X173935714Y-83815163D02*
X173888095Y-83910401D01*
X173888095Y-83910401D02*
X173792857Y-84005640D01*
X173792857Y-84005640D02*
X173650000Y-84053259D01*
X173650000Y-84053259D02*
X173411905Y-84053259D01*
X174364286Y-83148497D02*
X174411905Y-83100878D01*
X174411905Y-83100878D02*
X174507143Y-83053259D01*
X174507143Y-83053259D02*
X174745238Y-83053259D01*
X174745238Y-83053259D02*
X174840476Y-83100878D01*
X174840476Y-83100878D02*
X174888095Y-83148497D01*
X174888095Y-83148497D02*
X174935714Y-83243735D01*
X174935714Y-83243735D02*
X174935714Y-83338973D01*
X174935714Y-83338973D02*
X174888095Y-83481830D01*
X174888095Y-83481830D02*
X174316667Y-84053259D01*
X174316667Y-84053259D02*
X174935714Y-84053259D01*
X172921740Y-84425000D02*
X172683645Y-84425000D01*
X172778883Y-84186905D02*
X172683645Y-84425000D01*
X172683645Y-84425000D02*
X172778883Y-84663095D01*
X172493169Y-84282143D02*
X172683645Y-84425000D01*
X172683645Y-84425000D02*
X172493169Y-84567857D01*
X179461041Y-81158020D02*
X179413422Y-81205640D01*
X179413422Y-81205640D02*
X179270565Y-81253259D01*
X179270565Y-81253259D02*
X179175327Y-81253259D01*
X179175327Y-81253259D02*
X179032470Y-81205640D01*
X179032470Y-81205640D02*
X178937232Y-81110401D01*
X178937232Y-81110401D02*
X178889613Y-81015163D01*
X178889613Y-81015163D02*
X178841994Y-80824687D01*
X178841994Y-80824687D02*
X178841994Y-80681830D01*
X178841994Y-80681830D02*
X178889613Y-80491354D01*
X178889613Y-80491354D02*
X178937232Y-80396116D01*
X178937232Y-80396116D02*
X179032470Y-80300878D01*
X179032470Y-80300878D02*
X179175327Y-80253259D01*
X179175327Y-80253259D02*
X179270565Y-80253259D01*
X179270565Y-80253259D02*
X179413422Y-80300878D01*
X179413422Y-80300878D02*
X179461041Y-80348497D01*
X180413422Y-81253259D02*
X179841994Y-81253259D01*
X180127708Y-81253259D02*
X180127708Y-80253259D01*
X180127708Y-80253259D02*
X180032470Y-80396116D01*
X180032470Y-80396116D02*
X179937232Y-80491354D01*
X179937232Y-80491354D02*
X179841994Y-80538973D01*
X180984851Y-80681830D02*
X180889613Y-80634211D01*
X180889613Y-80634211D02*
X180841994Y-80586592D01*
X180841994Y-80586592D02*
X180794375Y-80491354D01*
X180794375Y-80491354D02*
X180794375Y-80443735D01*
X180794375Y-80443735D02*
X180841994Y-80348497D01*
X180841994Y-80348497D02*
X180889613Y-80300878D01*
X180889613Y-80300878D02*
X180984851Y-80253259D01*
X180984851Y-80253259D02*
X181175327Y-80253259D01*
X181175327Y-80253259D02*
X181270565Y-80300878D01*
X181270565Y-80300878D02*
X181318184Y-80348497D01*
X181318184Y-80348497D02*
X181365803Y-80443735D01*
X181365803Y-80443735D02*
X181365803Y-80491354D01*
X181365803Y-80491354D02*
X181318184Y-80586592D01*
X181318184Y-80586592D02*
X181270565Y-80634211D01*
X181270565Y-80634211D02*
X181175327Y-80681830D01*
X181175327Y-80681830D02*
X180984851Y-80681830D01*
X180984851Y-80681830D02*
X180889613Y-80729449D01*
X180889613Y-80729449D02*
X180841994Y-80777068D01*
X180841994Y-80777068D02*
X180794375Y-80872306D01*
X180794375Y-80872306D02*
X180794375Y-81062782D01*
X180794375Y-81062782D02*
X180841994Y-81158020D01*
X180841994Y-81158020D02*
X180889613Y-81205640D01*
X180889613Y-81205640D02*
X180984851Y-81253259D01*
X180984851Y-81253259D02*
X181175327Y-81253259D01*
X181175327Y-81253259D02*
X181270565Y-81205640D01*
X181270565Y-81205640D02*
X181318184Y-81158020D01*
X181318184Y-81158020D02*
X181365803Y-81062782D01*
X181365803Y-81062782D02*
X181365803Y-80872306D01*
X181365803Y-80872306D02*
X181318184Y-80777068D01*
X181318184Y-80777068D02*
X181270565Y-80729449D01*
X181270565Y-80729449D02*
X181175327Y-80681830D01*
X153528020Y-100156666D02*
X153575640Y-100204285D01*
X153575640Y-100204285D02*
X153623259Y-100347142D01*
X153623259Y-100347142D02*
X153623259Y-100442380D01*
X153623259Y-100442380D02*
X153575640Y-100585237D01*
X153575640Y-100585237D02*
X153480401Y-100680475D01*
X153480401Y-100680475D02*
X153385163Y-100728094D01*
X153385163Y-100728094D02*
X153194687Y-100775713D01*
X153194687Y-100775713D02*
X153051830Y-100775713D01*
X153051830Y-100775713D02*
X152861354Y-100728094D01*
X152861354Y-100728094D02*
X152766116Y-100680475D01*
X152766116Y-100680475D02*
X152670878Y-100585237D01*
X152670878Y-100585237D02*
X152623259Y-100442380D01*
X152623259Y-100442380D02*
X152623259Y-100347142D01*
X152623259Y-100347142D02*
X152670878Y-100204285D01*
X152670878Y-100204285D02*
X152718497Y-100156666D01*
X152956592Y-99299523D02*
X153623259Y-99299523D01*
X152575640Y-99537618D02*
X153289925Y-99775713D01*
X153289925Y-99775713D02*
X153289925Y-99156666D01*
X142083333Y-92358020D02*
X142035714Y-92405640D01*
X142035714Y-92405640D02*
X141892857Y-92453259D01*
X141892857Y-92453259D02*
X141797619Y-92453259D01*
X141797619Y-92453259D02*
X141654762Y-92405640D01*
X141654762Y-92405640D02*
X141559524Y-92310401D01*
X141559524Y-92310401D02*
X141511905Y-92215163D01*
X141511905Y-92215163D02*
X141464286Y-92024687D01*
X141464286Y-92024687D02*
X141464286Y-91881830D01*
X141464286Y-91881830D02*
X141511905Y-91691354D01*
X141511905Y-91691354D02*
X141559524Y-91596116D01*
X141559524Y-91596116D02*
X141654762Y-91500878D01*
X141654762Y-91500878D02*
X141797619Y-91453259D01*
X141797619Y-91453259D02*
X141892857Y-91453259D01*
X141892857Y-91453259D02*
X142035714Y-91500878D01*
X142035714Y-91500878D02*
X142083333Y-91548497D01*
X143035714Y-92453259D02*
X142464286Y-92453259D01*
X142750000Y-92453259D02*
X142750000Y-91453259D01*
X142750000Y-91453259D02*
X142654762Y-91596116D01*
X142654762Y-91596116D02*
X142559524Y-91691354D01*
X142559524Y-91691354D02*
X142464286Y-91738973D01*
X183828259Y-96486904D02*
X184637782Y-96486904D01*
X184637782Y-96486904D02*
X184733020Y-96439285D01*
X184733020Y-96439285D02*
X184780640Y-96391666D01*
X184780640Y-96391666D02*
X184828259Y-96296428D01*
X184828259Y-96296428D02*
X184828259Y-96105952D01*
X184828259Y-96105952D02*
X184780640Y-96010714D01*
X184780640Y-96010714D02*
X184733020Y-95963095D01*
X184733020Y-95963095D02*
X184637782Y-95915476D01*
X184637782Y-95915476D02*
X183828259Y-95915476D01*
X183828259Y-95534523D02*
X183828259Y-94915476D01*
X183828259Y-94915476D02*
X184209211Y-95248809D01*
X184209211Y-95248809D02*
X184209211Y-95105952D01*
X184209211Y-95105952D02*
X184256830Y-95010714D01*
X184256830Y-95010714D02*
X184304449Y-94963095D01*
X184304449Y-94963095D02*
X184399687Y-94915476D01*
X184399687Y-94915476D02*
X184637782Y-94915476D01*
X184637782Y-94915476D02*
X184733020Y-94963095D01*
X184733020Y-94963095D02*
X184780640Y-95010714D01*
X184780640Y-95010714D02*
X184828259Y-95105952D01*
X184828259Y-95105952D02*
X184828259Y-95391666D01*
X184828259Y-95391666D02*
X184780640Y-95486904D01*
X184780640Y-95486904D02*
X184733020Y-95534523D01*
X131961905Y-65083259D02*
X131961905Y-64083259D01*
X131961905Y-64083259D02*
X132200000Y-64083259D01*
X132200000Y-64083259D02*
X132342857Y-64130878D01*
X132342857Y-64130878D02*
X132438095Y-64226116D01*
X132438095Y-64226116D02*
X132485714Y-64321354D01*
X132485714Y-64321354D02*
X132533333Y-64511830D01*
X132533333Y-64511830D02*
X132533333Y-64654687D01*
X132533333Y-64654687D02*
X132485714Y-64845163D01*
X132485714Y-64845163D02*
X132438095Y-64940401D01*
X132438095Y-64940401D02*
X132342857Y-65035640D01*
X132342857Y-65035640D02*
X132200000Y-65083259D01*
X132200000Y-65083259D02*
X131961905Y-65083259D01*
X133438095Y-64083259D02*
X132961905Y-64083259D01*
X132961905Y-64083259D02*
X132914286Y-64559449D01*
X132914286Y-64559449D02*
X132961905Y-64511830D01*
X132961905Y-64511830D02*
X133057143Y-64464211D01*
X133057143Y-64464211D02*
X133295238Y-64464211D01*
X133295238Y-64464211D02*
X133390476Y-64511830D01*
X133390476Y-64511830D02*
X133438095Y-64559449D01*
X133438095Y-64559449D02*
X133485714Y-64654687D01*
X133485714Y-64654687D02*
X133485714Y-64892782D01*
X133485714Y-64892782D02*
X133438095Y-64988020D01*
X133438095Y-64988020D02*
X133390476Y-65035640D01*
X133390476Y-65035640D02*
X133295238Y-65083259D01*
X133295238Y-65083259D02*
X133057143Y-65083259D01*
X133057143Y-65083259D02*
X132961905Y-65035640D01*
X132961905Y-65035640D02*
X132914286Y-64988020D01*
X160933333Y-105748259D02*
X160600000Y-105272068D01*
X160361905Y-105748259D02*
X160361905Y-104748259D01*
X160361905Y-104748259D02*
X160742857Y-104748259D01*
X160742857Y-104748259D02*
X160838095Y-104795878D01*
X160838095Y-104795878D02*
X160885714Y-104843497D01*
X160885714Y-104843497D02*
X160933333Y-104938735D01*
X160933333Y-104938735D02*
X160933333Y-105081592D01*
X160933333Y-105081592D02*
X160885714Y-105176830D01*
X160885714Y-105176830D02*
X160838095Y-105224449D01*
X160838095Y-105224449D02*
X160742857Y-105272068D01*
X160742857Y-105272068D02*
X160361905Y-105272068D01*
X161314286Y-104843497D02*
X161361905Y-104795878D01*
X161361905Y-104795878D02*
X161457143Y-104748259D01*
X161457143Y-104748259D02*
X161695238Y-104748259D01*
X161695238Y-104748259D02*
X161790476Y-104795878D01*
X161790476Y-104795878D02*
X161838095Y-104843497D01*
X161838095Y-104843497D02*
X161885714Y-104938735D01*
X161885714Y-104938735D02*
X161885714Y-105033973D01*
X161885714Y-105033973D02*
X161838095Y-105176830D01*
X161838095Y-105176830D02*
X161266667Y-105748259D01*
X161266667Y-105748259D02*
X161885714Y-105748259D01*
X135281736Y-111930475D02*
X134776660Y-112435551D01*
X134776660Y-112435551D02*
X134641973Y-112502895D01*
X134641973Y-112502895D02*
X134507286Y-112502895D01*
X134507286Y-112502895D02*
X134372599Y-112435551D01*
X134372599Y-112435551D02*
X134305256Y-112368208D01*
X135551111Y-112199849D02*
X135988843Y-112637582D01*
X135988843Y-112637582D02*
X135483767Y-112671254D01*
X135483767Y-112671254D02*
X135584782Y-112772269D01*
X135584782Y-112772269D02*
X135618454Y-112873284D01*
X135618454Y-112873284D02*
X135618454Y-112940628D01*
X135618454Y-112940628D02*
X135584782Y-113041643D01*
X135584782Y-113041643D02*
X135416424Y-113210002D01*
X135416424Y-113210002D02*
X135315408Y-113243673D01*
X135315408Y-113243673D02*
X135248065Y-113243673D01*
X135248065Y-113243673D02*
X135147050Y-113210002D01*
X135147050Y-113210002D02*
X134945019Y-113007971D01*
X134945019Y-113007971D02*
X134911347Y-112906956D01*
X134911347Y-112906956D02*
X134911347Y-112839612D01*
X135357143Y-108453259D02*
X135357143Y-107453259D01*
X135357143Y-107453259D02*
X135595238Y-107453259D01*
X135595238Y-107453259D02*
X135738095Y-107500878D01*
X135738095Y-107500878D02*
X135833333Y-107596116D01*
X135833333Y-107596116D02*
X135880952Y-107691354D01*
X135880952Y-107691354D02*
X135928571Y-107881830D01*
X135928571Y-107881830D02*
X135928571Y-108024687D01*
X135928571Y-108024687D02*
X135880952Y-108215163D01*
X135880952Y-108215163D02*
X135833333Y-108310401D01*
X135833333Y-108310401D02*
X135738095Y-108405640D01*
X135738095Y-108405640D02*
X135595238Y-108453259D01*
X135595238Y-108453259D02*
X135357143Y-108453259D01*
X136309524Y-108167544D02*
X136785714Y-108167544D01*
X136214286Y-108453259D02*
X136547619Y-107453259D01*
X136547619Y-107453259D02*
X136880952Y-108453259D01*
X137071429Y-107453259D02*
X137642857Y-107453259D01*
X137357143Y-108453259D02*
X137357143Y-107453259D01*
X137928572Y-108167544D02*
X138404762Y-108167544D01*
X137833334Y-108453259D02*
X138166667Y-107453259D01*
X138166667Y-107453259D02*
X138500000Y-108453259D01*
X139595239Y-108453259D02*
X139595239Y-107453259D01*
X140071429Y-108453259D02*
X140071429Y-107453259D01*
X140071429Y-107453259D02*
X140642857Y-108453259D01*
X140642857Y-108453259D02*
X140642857Y-107453259D01*
X184471905Y-68813259D02*
X184471905Y-67813259D01*
X184471905Y-67813259D02*
X184710000Y-67813259D01*
X184710000Y-67813259D02*
X184852857Y-67860878D01*
X184852857Y-67860878D02*
X184948095Y-67956116D01*
X184948095Y-67956116D02*
X184995714Y-68051354D01*
X184995714Y-68051354D02*
X185043333Y-68241830D01*
X185043333Y-68241830D02*
X185043333Y-68384687D01*
X185043333Y-68384687D02*
X184995714Y-68575163D01*
X184995714Y-68575163D02*
X184948095Y-68670401D01*
X184948095Y-68670401D02*
X184852857Y-68765640D01*
X184852857Y-68765640D02*
X184710000Y-68813259D01*
X184710000Y-68813259D02*
X184471905Y-68813259D01*
X185995714Y-68813259D02*
X185424286Y-68813259D01*
X185710000Y-68813259D02*
X185710000Y-67813259D01*
X185710000Y-67813259D02*
X185614762Y-67956116D01*
X185614762Y-67956116D02*
X185519524Y-68051354D01*
X185519524Y-68051354D02*
X185424286Y-68098973D01*
X189735714Y-70333259D02*
X189164286Y-70333259D01*
X189450000Y-70333259D02*
X189450000Y-69333259D01*
X189450000Y-69333259D02*
X189354762Y-69476116D01*
X189354762Y-69476116D02*
X189259524Y-69571354D01*
X189259524Y-69571354D02*
X189164286Y-69618973D01*
X124173334Y-77062911D02*
X123840001Y-76586720D01*
X123601906Y-77062911D02*
X123601906Y-76062911D01*
X123601906Y-76062911D02*
X123982858Y-76062911D01*
X123982858Y-76062911D02*
X124078096Y-76110530D01*
X124078096Y-76110530D02*
X124125715Y-76158149D01*
X124125715Y-76158149D02*
X124173334Y-76253387D01*
X124173334Y-76253387D02*
X124173334Y-76396244D01*
X124173334Y-76396244D02*
X124125715Y-76491482D01*
X124125715Y-76491482D02*
X124078096Y-76539101D01*
X124078096Y-76539101D02*
X123982858Y-76586720D01*
X123982858Y-76586720D02*
X123601906Y-76586720D01*
X125078096Y-76062911D02*
X124601906Y-76062911D01*
X124601906Y-76062911D02*
X124554287Y-76539101D01*
X124554287Y-76539101D02*
X124601906Y-76491482D01*
X124601906Y-76491482D02*
X124697144Y-76443863D01*
X124697144Y-76443863D02*
X124935239Y-76443863D01*
X124935239Y-76443863D02*
X125030477Y-76491482D01*
X125030477Y-76491482D02*
X125078096Y-76539101D01*
X125078096Y-76539101D02*
X125125715Y-76634339D01*
X125125715Y-76634339D02*
X125125715Y-76872434D01*
X125125715Y-76872434D02*
X125078096Y-76967672D01*
X125078096Y-76967672D02*
X125030477Y-77015292D01*
X125030477Y-77015292D02*
X124935239Y-77062911D01*
X124935239Y-77062911D02*
X124697144Y-77062911D01*
X124697144Y-77062911D02*
X124601906Y-77015292D01*
X124601906Y-77015292D02*
X124554287Y-76967672D01*
X175932142Y-81058020D02*
X175884523Y-81105640D01*
X175884523Y-81105640D02*
X175741666Y-81153259D01*
X175741666Y-81153259D02*
X175646428Y-81153259D01*
X175646428Y-81153259D02*
X175503571Y-81105640D01*
X175503571Y-81105640D02*
X175408333Y-81010401D01*
X175408333Y-81010401D02*
X175360714Y-80915163D01*
X175360714Y-80915163D02*
X175313095Y-80724687D01*
X175313095Y-80724687D02*
X175313095Y-80581830D01*
X175313095Y-80581830D02*
X175360714Y-80391354D01*
X175360714Y-80391354D02*
X175408333Y-80296116D01*
X175408333Y-80296116D02*
X175503571Y-80200878D01*
X175503571Y-80200878D02*
X175646428Y-80153259D01*
X175646428Y-80153259D02*
X175741666Y-80153259D01*
X175741666Y-80153259D02*
X175884523Y-80200878D01*
X175884523Y-80200878D02*
X175932142Y-80248497D01*
X176884523Y-81153259D02*
X176313095Y-81153259D01*
X176598809Y-81153259D02*
X176598809Y-80153259D01*
X176598809Y-80153259D02*
X176503571Y-80296116D01*
X176503571Y-80296116D02*
X176408333Y-80391354D01*
X176408333Y-80391354D02*
X176313095Y-80438973D01*
X177741666Y-80153259D02*
X177551190Y-80153259D01*
X177551190Y-80153259D02*
X177455952Y-80200878D01*
X177455952Y-80200878D02*
X177408333Y-80248497D01*
X177408333Y-80248497D02*
X177313095Y-80391354D01*
X177313095Y-80391354D02*
X177265476Y-80581830D01*
X177265476Y-80581830D02*
X177265476Y-80962782D01*
X177265476Y-80962782D02*
X177313095Y-81058020D01*
X177313095Y-81058020D02*
X177360714Y-81105640D01*
X177360714Y-81105640D02*
X177455952Y-81153259D01*
X177455952Y-81153259D02*
X177646428Y-81153259D01*
X177646428Y-81153259D02*
X177741666Y-81105640D01*
X177741666Y-81105640D02*
X177789285Y-81058020D01*
X177789285Y-81058020D02*
X177836904Y-80962782D01*
X177836904Y-80962782D02*
X177836904Y-80724687D01*
X177836904Y-80724687D02*
X177789285Y-80629449D01*
X177789285Y-80629449D02*
X177741666Y-80581830D01*
X177741666Y-80581830D02*
X177646428Y-80534211D01*
X177646428Y-80534211D02*
X177455952Y-80534211D01*
X177455952Y-80534211D02*
X177360714Y-80581830D01*
X177360714Y-80581830D02*
X177313095Y-80629449D01*
X177313095Y-80629449D02*
X177265476Y-80724687D01*
X182586919Y-97997458D02*
X182634539Y-98045077D01*
X182634539Y-98045077D02*
X182682158Y-98187934D01*
X182682158Y-98187934D02*
X182682158Y-98283172D01*
X182682158Y-98283172D02*
X182634539Y-98426029D01*
X182634539Y-98426029D02*
X182539300Y-98521267D01*
X182539300Y-98521267D02*
X182444062Y-98568886D01*
X182444062Y-98568886D02*
X182253586Y-98616505D01*
X182253586Y-98616505D02*
X182110729Y-98616505D01*
X182110729Y-98616505D02*
X181920253Y-98568886D01*
X181920253Y-98568886D02*
X181825015Y-98521267D01*
X181825015Y-98521267D02*
X181729777Y-98426029D01*
X181729777Y-98426029D02*
X181682158Y-98283172D01*
X181682158Y-98283172D02*
X181682158Y-98187934D01*
X181682158Y-98187934D02*
X181729777Y-98045077D01*
X181729777Y-98045077D02*
X181777396Y-97997458D01*
X182682158Y-97045077D02*
X182682158Y-97616505D01*
X182682158Y-97330791D02*
X181682158Y-97330791D01*
X181682158Y-97330791D02*
X181825015Y-97426029D01*
X181825015Y-97426029D02*
X181920253Y-97521267D01*
X181920253Y-97521267D02*
X181967872Y-97616505D01*
X181682158Y-96140315D02*
X181682158Y-96616505D01*
X181682158Y-96616505D02*
X182158348Y-96664124D01*
X182158348Y-96664124D02*
X182110729Y-96616505D01*
X182110729Y-96616505D02*
X182063110Y-96521267D01*
X182063110Y-96521267D02*
X182063110Y-96283172D01*
X182063110Y-96283172D02*
X182110729Y-96187934D01*
X182110729Y-96187934D02*
X182158348Y-96140315D01*
X182158348Y-96140315D02*
X182253586Y-96092696D01*
X182253586Y-96092696D02*
X182491681Y-96092696D01*
X182491681Y-96092696D02*
X182586919Y-96140315D01*
X182586919Y-96140315D02*
X182634539Y-96187934D01*
X182634539Y-96187934D02*
X182682158Y-96283172D01*
X182682158Y-96283172D02*
X182682158Y-96521267D01*
X182682158Y-96521267D02*
X182634539Y-96616505D01*
X182634539Y-96616505D02*
X182586919Y-96664124D01*
X178248020Y-102622857D02*
X178295640Y-102670476D01*
X178295640Y-102670476D02*
X178343259Y-102813333D01*
X178343259Y-102813333D02*
X178343259Y-102908571D01*
X178343259Y-102908571D02*
X178295640Y-103051428D01*
X178295640Y-103051428D02*
X178200401Y-103146666D01*
X178200401Y-103146666D02*
X178105163Y-103194285D01*
X178105163Y-103194285D02*
X177914687Y-103241904D01*
X177914687Y-103241904D02*
X177771830Y-103241904D01*
X177771830Y-103241904D02*
X177581354Y-103194285D01*
X177581354Y-103194285D02*
X177486116Y-103146666D01*
X177486116Y-103146666D02*
X177390878Y-103051428D01*
X177390878Y-103051428D02*
X177343259Y-102908571D01*
X177343259Y-102908571D02*
X177343259Y-102813333D01*
X177343259Y-102813333D02*
X177390878Y-102670476D01*
X177390878Y-102670476D02*
X177438497Y-102622857D01*
X178343259Y-101670476D02*
X178343259Y-102241904D01*
X178343259Y-101956190D02*
X177343259Y-101956190D01*
X177343259Y-101956190D02*
X177486116Y-102051428D01*
X177486116Y-102051428D02*
X177581354Y-102146666D01*
X177581354Y-102146666D02*
X177628973Y-102241904D01*
X177343259Y-101337142D02*
X177343259Y-100718095D01*
X177343259Y-100718095D02*
X177724211Y-101051428D01*
X177724211Y-101051428D02*
X177724211Y-100908571D01*
X177724211Y-100908571D02*
X177771830Y-100813333D01*
X177771830Y-100813333D02*
X177819449Y-100765714D01*
X177819449Y-100765714D02*
X177914687Y-100718095D01*
X177914687Y-100718095D02*
X178152782Y-100718095D01*
X178152782Y-100718095D02*
X178248020Y-100765714D01*
X178248020Y-100765714D02*
X178295640Y-100813333D01*
X178295640Y-100813333D02*
X178343259Y-100908571D01*
X178343259Y-100908571D02*
X178343259Y-101194285D01*
X178343259Y-101194285D02*
X178295640Y-101289523D01*
X178295640Y-101289523D02*
X178248020Y-101337142D01*
X181108095Y-78210878D02*
X181012857Y-78163259D01*
X181012857Y-78163259D02*
X180870000Y-78163259D01*
X180870000Y-78163259D02*
X180727143Y-78210878D01*
X180727143Y-78210878D02*
X180631905Y-78306116D01*
X180631905Y-78306116D02*
X180584286Y-78401354D01*
X180584286Y-78401354D02*
X180536667Y-78591830D01*
X180536667Y-78591830D02*
X180536667Y-78734687D01*
X180536667Y-78734687D02*
X180584286Y-78925163D01*
X180584286Y-78925163D02*
X180631905Y-79020401D01*
X180631905Y-79020401D02*
X180727143Y-79115640D01*
X180727143Y-79115640D02*
X180870000Y-79163259D01*
X180870000Y-79163259D02*
X180965238Y-79163259D01*
X180965238Y-79163259D02*
X181108095Y-79115640D01*
X181108095Y-79115640D02*
X181155714Y-79068020D01*
X181155714Y-79068020D02*
X181155714Y-78734687D01*
X181155714Y-78734687D02*
X180965238Y-78734687D01*
X181584286Y-79163259D02*
X181584286Y-78163259D01*
X181584286Y-78163259D02*
X182155714Y-79163259D01*
X182155714Y-79163259D02*
X182155714Y-78163259D01*
X182631905Y-79163259D02*
X182631905Y-78163259D01*
X182631905Y-78163259D02*
X182870000Y-78163259D01*
X182870000Y-78163259D02*
X183012857Y-78210878D01*
X183012857Y-78210878D02*
X183108095Y-78306116D01*
X183108095Y-78306116D02*
X183155714Y-78401354D01*
X183155714Y-78401354D02*
X183203333Y-78591830D01*
X183203333Y-78591830D02*
X183203333Y-78734687D01*
X183203333Y-78734687D02*
X183155714Y-78925163D01*
X183155714Y-78925163D02*
X183108095Y-79020401D01*
X183108095Y-79020401D02*
X183012857Y-79115640D01*
X183012857Y-79115640D02*
X182870000Y-79163259D01*
X182870000Y-79163259D02*
X182631905Y-79163259D01*
X185861905Y-78842306D02*
X186623810Y-78842306D01*
X186242857Y-79223259D02*
X186242857Y-78461354D01*
X187576190Y-78223259D02*
X187100000Y-78223259D01*
X187100000Y-78223259D02*
X187052381Y-78699449D01*
X187052381Y-78699449D02*
X187100000Y-78651830D01*
X187100000Y-78651830D02*
X187195238Y-78604211D01*
X187195238Y-78604211D02*
X187433333Y-78604211D01*
X187433333Y-78604211D02*
X187528571Y-78651830D01*
X187528571Y-78651830D02*
X187576190Y-78699449D01*
X187576190Y-78699449D02*
X187623809Y-78794687D01*
X187623809Y-78794687D02*
X187623809Y-79032782D01*
X187623809Y-79032782D02*
X187576190Y-79128020D01*
X187576190Y-79128020D02*
X187528571Y-79175640D01*
X187528571Y-79175640D02*
X187433333Y-79223259D01*
X187433333Y-79223259D02*
X187195238Y-79223259D01*
X187195238Y-79223259D02*
X187100000Y-79175640D01*
X187100000Y-79175640D02*
X187052381Y-79128020D01*
X187957143Y-78556592D02*
X188195238Y-79223259D01*
X188195238Y-79223259D02*
X188433333Y-78556592D01*
X131901905Y-72403259D02*
X131901905Y-71403259D01*
X131901905Y-71403259D02*
X132140000Y-71403259D01*
X132140000Y-71403259D02*
X132282857Y-71450878D01*
X132282857Y-71450878D02*
X132378095Y-71546116D01*
X132378095Y-71546116D02*
X132425714Y-71641354D01*
X132425714Y-71641354D02*
X132473333Y-71831830D01*
X132473333Y-71831830D02*
X132473333Y-71974687D01*
X132473333Y-71974687D02*
X132425714Y-72165163D01*
X132425714Y-72165163D02*
X132378095Y-72260401D01*
X132378095Y-72260401D02*
X132282857Y-72355640D01*
X132282857Y-72355640D02*
X132140000Y-72403259D01*
X132140000Y-72403259D02*
X131901905Y-72403259D01*
X133330476Y-71736592D02*
X133330476Y-72403259D01*
X133092381Y-71355640D02*
X132854286Y-72069925D01*
X132854286Y-72069925D02*
X133473333Y-72069925D01*
X126257142Y-65133259D02*
X125923809Y-64657068D01*
X125685714Y-65133259D02*
X125685714Y-64133259D01*
X125685714Y-64133259D02*
X126066666Y-64133259D01*
X126066666Y-64133259D02*
X126161904Y-64180878D01*
X126161904Y-64180878D02*
X126209523Y-64228497D01*
X126209523Y-64228497D02*
X126257142Y-64323735D01*
X126257142Y-64323735D02*
X126257142Y-64466592D01*
X126257142Y-64466592D02*
X126209523Y-64561830D01*
X126209523Y-64561830D02*
X126161904Y-64609449D01*
X126161904Y-64609449D02*
X126066666Y-64657068D01*
X126066666Y-64657068D02*
X125685714Y-64657068D01*
X127209523Y-65133259D02*
X126638095Y-65133259D01*
X126923809Y-65133259D02*
X126923809Y-64133259D01*
X126923809Y-64133259D02*
X126828571Y-64276116D01*
X126828571Y-64276116D02*
X126733333Y-64371354D01*
X126733333Y-64371354D02*
X126638095Y-64418973D01*
X128161904Y-65133259D02*
X127590476Y-65133259D01*
X127876190Y-65133259D02*
X127876190Y-64133259D01*
X127876190Y-64133259D02*
X127780952Y-64276116D01*
X127780952Y-64276116D02*
X127685714Y-64371354D01*
X127685714Y-64371354D02*
X127590476Y-64418973D01*
D14*
X168965000Y-102728751D02*
X168965000Y-101306247D01*
X170785000Y-102728751D02*
X170785000Y-101306247D01*
X147002500Y-88225000D02*
X147002500Y-87990000D01*
X147002500Y-94970000D02*
X147002500Y-94495000D01*
X147477500Y-87750000D02*
X147302500Y-87750000D01*
X147477500Y-94970000D02*
X147002500Y-94970000D01*
X153747500Y-87750000D02*
X154222500Y-87750000D01*
X153747500Y-94970000D02*
X154222500Y-94970000D01*
X154222500Y-87750000D02*
X154222500Y-88225000D01*
X154222500Y-94970000D02*
X154222500Y-94495000D01*
X147002500Y-87750000D02*
X146762500Y-87420000D01*
X147242500Y-87420000D01*
X147002500Y-87750000D01*
G36*
X147002500Y-87750000D02*
G01*
X146762500Y-87420000D01*
X147242500Y-87420000D01*
X147002500Y-87750000D01*
G37*
D15*
X141056700Y-52375500D02*
X143317300Y-52375500D01*
X143317300Y-50724500D02*
X141056700Y-50724500D01*
D14*
X150340000Y-113093752D02*
X150340000Y-111671248D01*
X152160000Y-113093752D02*
X152160000Y-111671248D01*
X187680000Y-94812936D02*
X187680000Y-96267064D01*
X189500000Y-94812936D02*
X189500000Y-96267064D01*
X144778000Y-93591768D02*
X144778000Y-93299234D01*
X145798000Y-93591768D02*
X145798000Y-93299234D01*
D15*
X125027900Y-89727901D02*
X125027900Y-90097862D01*
X125027900Y-91322142D02*
X125027900Y-93797860D01*
X125027900Y-95022140D02*
X125027900Y-95392101D01*
X125027900Y-95392101D02*
X130692100Y-95392101D01*
X130692100Y-89727901D02*
X125027900Y-89727901D01*
X130692100Y-90097862D02*
X130692100Y-89727901D01*
X130692100Y-93797860D02*
X130692100Y-91322142D01*
X130692100Y-95392101D02*
X130692100Y-95022140D01*
D14*
X153300000Y-112720000D02*
X153300000Y-114500000D01*
X155200000Y-109800000D02*
X154400000Y-109800000D01*
X162700000Y-112720000D02*
X162700000Y-114500000D01*
X127930000Y-98291249D02*
X127930000Y-99713753D01*
X129750000Y-98291249D02*
X129750000Y-99713753D01*
X155895000Y-104471248D02*
X155895000Y-105893752D01*
X157715000Y-104471248D02*
X157715000Y-105893752D01*
X163865000Y-113073752D02*
X163865000Y-111651248D01*
X165685000Y-113073752D02*
X165685000Y-111651248D01*
D15*
X181503800Y-85169500D02*
X181503800Y-85633289D01*
X181503800Y-90166711D02*
X181503800Y-90630500D01*
X181503800Y-90630500D02*
X186964800Y-90630500D01*
X186964800Y-85169500D02*
X181503800Y-85169500D01*
X186964800Y-85633289D02*
X186964800Y-85169500D01*
X186964800Y-90630500D02*
X186964800Y-90166711D01*
D14*
X161306396Y-80680000D02*
X161306396Y-83340000D01*
X168986396Y-80680000D02*
X161306396Y-80680000D01*
X168986396Y-80680000D02*
X168986396Y-83340000D01*
X168986396Y-83340000D02*
X161306396Y-83340000D01*
X170256396Y-80680000D02*
X171586396Y-80680000D01*
X171586396Y-80680000D02*
X171586396Y-82010000D01*
X125660000Y-99767065D02*
X125660000Y-98312937D01*
X127480000Y-99767065D02*
X127480000Y-98312937D01*
D15*
X125027900Y-81727901D02*
X125027900Y-82097862D01*
X125027900Y-83322142D02*
X125027900Y-85797860D01*
X125027900Y-87022140D02*
X125027900Y-87392101D01*
X125027900Y-87392101D02*
X130692100Y-87392101D01*
X130692100Y-81727901D02*
X125027900Y-81727901D01*
X130692100Y-82097862D02*
X130692100Y-81727901D01*
X130692100Y-85797860D02*
X130692100Y-83322142D01*
X130692100Y-87392101D02*
X130692100Y-87022140D01*
D14*
X187710000Y-91018752D02*
X187710000Y-89596248D01*
X189530000Y-91018752D02*
X189530000Y-89596248D01*
X142470000Y-84311235D02*
X142470000Y-84603769D01*
X143490000Y-84311235D02*
X143490000Y-84603769D01*
D13*
X171525000Y-51817500D02*
G75*
G02*
X171325000Y-51817500I-100000J0D01*
G01*
X171325000Y-51817500D02*
G75*
G02*
X171525000Y-51817500I100000J0D01*
G01*
D16*
X176855000Y-77432500D02*
X172500000Y-77432500D01*
X176855000Y-53432500D02*
X176855000Y-77432500D01*
X176855000Y-53432500D02*
X172500000Y-53432500D01*
X139890000Y-77432500D02*
X138355000Y-77432500D01*
X138355000Y-77432500D02*
X138355000Y-53432500D01*
X138355000Y-53432500D02*
X139890000Y-53432500D01*
D14*
X172987499Y-101229998D02*
X172337499Y-101229999D01*
X172987499Y-101229998D02*
X173637499Y-101229999D01*
X172987499Y-104350000D02*
X172337499Y-104349999D01*
X172987499Y-104350000D02*
X173637499Y-104349999D01*
X172064999Y-100950000D02*
X171824999Y-101279999D01*
X171584999Y-100949999D01*
X172064999Y-100950000D01*
G36*
X172064999Y-100950000D02*
G01*
X171824999Y-101279999D01*
X171584999Y-100949999D01*
X172064999Y-100950000D01*
G37*
X169840000Y-109710000D02*
X169840000Y-110960000D01*
X170130000Y-110000000D02*
X170130000Y-115970000D01*
X170130000Y-115970000D02*
X177750000Y-115970000D01*
X170140000Y-110010000D02*
X170140000Y-110760000D01*
X170140000Y-110760000D02*
X171940000Y-110760000D01*
X170140000Y-112260000D02*
X170890000Y-112260000D01*
X170890000Y-112260000D02*
X170890000Y-115210000D01*
X170890000Y-115210000D02*
X173940000Y-115210000D01*
X171090000Y-109710000D02*
X169840000Y-109710000D01*
X171940000Y-110010000D02*
X170140000Y-110010000D01*
X171940000Y-110760000D02*
X171940000Y-110010000D01*
X173440000Y-110010000D02*
X173440000Y-110760000D01*
X173440000Y-110760000D02*
X174440000Y-110760000D01*
X174440000Y-110010000D02*
X173440000Y-110010000D01*
X174440000Y-110760000D02*
X174440000Y-110010000D01*
X175940000Y-110010000D02*
X175940000Y-110760000D01*
X175940000Y-110760000D02*
X177740000Y-110760000D01*
X176990000Y-112260000D02*
X176990000Y-115210000D01*
X176990000Y-115210000D02*
X173940000Y-115210000D01*
X177740000Y-110010000D02*
X175940000Y-110010000D01*
X177740000Y-110760000D02*
X177740000Y-110010000D01*
X177740000Y-112260000D02*
X176990000Y-112260000D01*
X177750000Y-110000000D02*
X170130000Y-110000000D01*
X177750000Y-115970000D02*
X177750000Y-110000000D01*
X126320436Y-69030000D02*
X127774564Y-69030000D01*
X126320436Y-70850000D02*
X127774564Y-70850000D01*
X128230000Y-77568749D02*
X128230000Y-78991253D01*
X130050000Y-77568749D02*
X130050000Y-78991253D01*
X147820000Y-100597064D02*
X147820000Y-99142936D01*
X149640000Y-100597064D02*
X149640000Y-99142936D01*
D16*
X140270000Y-82410001D02*
X140270000Y-83290001D01*
X141770000Y-82410001D02*
X141770000Y-83290001D01*
D17*
X141161419Y-80150001D02*
G75*
G02*
X140878581Y-80150001I-141419J0D01*
G01*
X140878581Y-80150001D02*
G75*
G02*
X141161419Y-80150001I141419J0D01*
G01*
D14*
X133725000Y-80837499D02*
X133725000Y-96812499D01*
X138825000Y-80837499D02*
X133725000Y-80837499D01*
X138825000Y-96812499D02*
X138825000Y-80837499D01*
X153931232Y-95756000D02*
X154223766Y-95756000D01*
X153931232Y-96776000D02*
X154223766Y-96776000D01*
X155065000Y-87637232D02*
X155065000Y-87929766D01*
X156085000Y-87637232D02*
X156085000Y-87929766D01*
X139165000Y-88298752D02*
X139165000Y-86876248D01*
X140985000Y-88298752D02*
X140985000Y-86876248D01*
X185410000Y-96222937D02*
X185410000Y-97677065D01*
X187230000Y-96222937D02*
X187230000Y-97677065D01*
X147439768Y-85977000D02*
X147147234Y-85977000D01*
X147439768Y-86997000D02*
X147147234Y-86997000D01*
X142460000Y-81011235D02*
X142460000Y-81303769D01*
X143480000Y-81011235D02*
X143480000Y-81303769D01*
X161270000Y-94640000D02*
X161270000Y-97300000D01*
X168949999Y-94640000D02*
X161270000Y-94640000D01*
X168949999Y-94640000D02*
X168949999Y-97300000D01*
X168949999Y-97300000D02*
X161270000Y-97300000D01*
X170220000Y-94640000D02*
X171550000Y-94640000D01*
X171550000Y-94640000D02*
X171550000Y-95970000D01*
D15*
X173675900Y-85206301D02*
X173675900Y-87466901D01*
X175326900Y-87466901D02*
X175326900Y-85206301D01*
D14*
X179262501Y-87053353D02*
X179262501Y-85630849D01*
X181082501Y-87053353D02*
X181082501Y-85630849D01*
X150120000Y-100593752D02*
X150120000Y-99171248D01*
X151940000Y-100593752D02*
X151940000Y-99171248D01*
X139165000Y-93401248D02*
X139165000Y-94823752D01*
X140985000Y-93401248D02*
X140985000Y-94823752D01*
X185391399Y-91189600D02*
X184591399Y-91189600D01*
X185391399Y-91189600D02*
X186191399Y-91189600D01*
X185391399Y-94309600D02*
X184591399Y-94309600D01*
X185391399Y-94309600D02*
X186191399Y-94309600D01*
X184091399Y-91239600D02*
X183851399Y-90909600D01*
X184331399Y-90909600D01*
X184091399Y-91239600D01*
G36*
X184091399Y-91239600D02*
G01*
X183851399Y-90909600D01*
X184331399Y-90909600D01*
X184091399Y-91239600D01*
G37*
X131057500Y-67645000D02*
X134942500Y-67645000D01*
X134942500Y-65375000D02*
X131057500Y-65375000D01*
X134942500Y-67645000D02*
X134942500Y-65375000D01*
X158215000Y-104471248D02*
X158215000Y-105893752D01*
X160035000Y-104471248D02*
X160035000Y-105893752D01*
X136650000Y-109725000D02*
X136650000Y-110975000D01*
X136940000Y-110015000D02*
X136940000Y-115985000D01*
X136940000Y-115985000D02*
X147060000Y-115985000D01*
X136950000Y-110025000D02*
X136950000Y-110775000D01*
X136950000Y-110775000D02*
X138749999Y-110775000D01*
X136950000Y-112275000D02*
X137700000Y-112275000D01*
X137700000Y-112275000D02*
X137700000Y-115225000D01*
X137700000Y-115225000D02*
X142000000Y-115225000D01*
X137900000Y-109725000D02*
X136650000Y-109725000D01*
X138749999Y-110775000D02*
X138750000Y-110024999D01*
X138750000Y-110024999D02*
X136950000Y-110025000D01*
X140250000Y-110024999D02*
X140250001Y-110775000D01*
X140250001Y-110775000D02*
X143750000Y-110775000D01*
X143750000Y-110025000D02*
X140250000Y-110024999D01*
X143750000Y-110775000D02*
X143750000Y-110025000D01*
X145250000Y-110024999D02*
X145250000Y-110774999D01*
X145250000Y-110774999D02*
X147050000Y-110775000D01*
X146300000Y-112275001D02*
X146300000Y-115225000D01*
X146300000Y-115225000D02*
X142000000Y-115225000D01*
X147050000Y-110025000D02*
X145250000Y-110024999D01*
X147050000Y-110775000D02*
X147050000Y-110025000D01*
X147050000Y-112275000D02*
X146300000Y-112275001D01*
X147060000Y-110015000D02*
X136940000Y-110015000D01*
X147060000Y-115985000D02*
X147060000Y-110015000D01*
X181800000Y-65980000D02*
X181800000Y-71030000D01*
X182250000Y-65530000D02*
X181800000Y-65980000D01*
X182600000Y-67380000D02*
X182600000Y-69180000D01*
X188000000Y-67380000D02*
X188000000Y-69180000D01*
X188800000Y-65530000D02*
X182250000Y-65530000D01*
X188800000Y-71030000D02*
X181800000Y-71030000D01*
X188800000Y-71030000D02*
X188800000Y-65530000D01*
X125580000Y-77532937D02*
X125580000Y-78987065D01*
X127400000Y-77532937D02*
X127400000Y-78987065D01*
X175710000Y-87053353D02*
X175710000Y-85630849D01*
X177530000Y-87053353D02*
X177530000Y-85630849D01*
X181268899Y-94153353D02*
X181268899Y-92730849D01*
X183088899Y-94153353D02*
X183088899Y-92730849D01*
X175155000Y-102698752D02*
X175155000Y-101276248D01*
X176975000Y-102698752D02*
X176975000Y-101276248D01*
X183370000Y-75980000D02*
G75*
G02*
X180370000Y-75980000I-1500000J0D01*
G01*
X180370000Y-75980000D02*
G75*
G02*
X183370000Y-75980000I1500000J0D01*
G01*
X188570000Y-75980000D02*
G75*
G02*
X185570000Y-75980000I-1500000J0D01*
G01*
X185570000Y-75980000D02*
G75*
G02*
X188570000Y-75980000I1500000J0D01*
G01*
X131057500Y-71035000D02*
X134942500Y-71035000D01*
X134942500Y-68765000D02*
X131057500Y-68765000D01*
X134942500Y-71035000D02*
X134942500Y-68765000D01*
X126302936Y-65590000D02*
X127757064Y-65590000D01*
X126302936Y-67410000D02*
X127757064Y-67410000D01*
X174668899Y-89319602D02*
X174668899Y-96939602D01*
X174668899Y-96939602D02*
X180638899Y-96939602D01*
X175428899Y-90079602D02*
X175428899Y-93129602D01*
X175428899Y-96179602D02*
X175428899Y-93129602D01*
X178378899Y-89329602D02*
X178378899Y-90079602D01*
X178378899Y-90079602D02*
X175428899Y-90079602D01*
X178378899Y-96179602D02*
X175428899Y-96179602D01*
X178378899Y-96929602D02*
X178378899Y-96179602D01*
X179878899Y-89329602D02*
X179878899Y-91129602D01*
X179878899Y-91129602D02*
X180628899Y-91129602D01*
X179878899Y-92629602D02*
X179878899Y-93629602D01*
X179878899Y-93629602D02*
X180628899Y-93629602D01*
X179878899Y-95129602D02*
X179878899Y-96929602D01*
X179878899Y-96929602D02*
X180628899Y-96929602D01*
X180628899Y-89329602D02*
X179878899Y-89329602D01*
X180628899Y-91129602D02*
X180628899Y-89329602D01*
X180628899Y-92629602D02*
X179878899Y-92629602D01*
X180628899Y-93629602D02*
X180628899Y-92629602D01*
X180628899Y-95129602D02*
X179878899Y-95129602D01*
X180628899Y-96929602D02*
X180628899Y-95129602D01*
X180638899Y-89319602D02*
X174668899Y-89319602D01*
X180638899Y-96939602D02*
X180638899Y-89319602D01*
X180928899Y-89029602D02*
X179678899Y-89029602D01*
X180928899Y-90279602D02*
X180928899Y-89029602D01*
%LPC*%
D18*
X169875000Y-103579999D03*
X169875000Y-100454999D03*
D19*
X147175000Y-88610000D03*
X147175000Y-89110000D03*
X147175000Y-89610000D03*
X147175000Y-90110000D03*
X147175000Y-90610000D03*
X147175000Y-91110000D03*
X147175000Y-91610000D03*
X147175000Y-92110000D03*
X147175000Y-92610000D03*
X147175000Y-93110000D03*
X147175000Y-93610000D03*
X147175000Y-94110000D03*
D20*
X147862500Y-94797500D03*
X148362500Y-94797500D03*
X148862500Y-94797500D03*
X149362500Y-94797500D03*
X149862500Y-94797500D03*
X150362500Y-94797500D03*
X150862500Y-94797500D03*
X151362500Y-94797500D03*
X151862500Y-94797500D03*
X152362500Y-94797500D03*
X152862500Y-94797500D03*
X153362500Y-94797500D03*
D19*
X154050000Y-94110000D03*
X154050000Y-93610000D03*
X154050000Y-93110000D03*
X154050000Y-92610000D03*
X154050000Y-92110000D03*
X154050000Y-91610000D03*
X154050000Y-91110000D03*
X154050000Y-90610000D03*
X154050000Y-90110000D03*
X154050000Y-89610000D03*
X154050000Y-89110000D03*
X154050000Y-88610000D03*
D20*
X153362500Y-87922500D03*
X152862500Y-87922500D03*
X152362500Y-87922500D03*
X151862500Y-87922500D03*
X151362500Y-87922500D03*
X150862500Y-87922500D03*
X150362500Y-87922500D03*
X149862500Y-87922500D03*
X149362500Y-87922500D03*
X148862500Y-87922500D03*
X148362500Y-87922500D03*
X147862500Y-87922500D03*
D21*
X150612500Y-91360000D03*
D22*
X143330000Y-51550000D03*
X141044000Y-51550000D03*
D18*
X151250000Y-113945000D03*
X151250000Y-110820000D03*
D23*
X188590000Y-93989999D03*
X188590000Y-97090001D03*
D24*
X145288000Y-94308001D03*
X145288000Y-92583001D03*
D25*
X131040349Y-94410000D03*
X124679651Y-94410000D03*
X131040349Y-90710002D03*
X124679651Y-90710002D03*
D26*
X155110000Y-111895000D03*
X160890000Y-111895000D03*
D27*
X154800000Y-110690000D03*
D28*
X155600000Y-110702500D03*
D29*
X156750000Y-110755000D03*
X157750000Y-110755000D03*
X158250000Y-110755000D03*
X159250000Y-110755000D03*
D28*
X160400000Y-110702500D03*
D27*
X161200000Y-110690000D03*
X161200000Y-110690000D03*
D28*
X160400000Y-110702500D03*
D29*
X159750000Y-110755000D03*
X158750000Y-110755000D03*
X157250000Y-110755000D03*
X156250000Y-110755000D03*
D28*
X155600000Y-110702500D03*
D27*
X154800000Y-110690000D03*
D30*
X153680000Y-111395000D03*
D31*
X153680000Y-115575000D03*
D30*
X162320000Y-111395000D03*
D31*
X162320000Y-115575000D03*
D32*
X128840000Y-97440001D03*
X128840000Y-100565001D03*
X156805000Y-103620000D03*
X156805000Y-106745000D03*
D18*
X164775000Y-113925000D03*
X164775000Y-110800000D03*
D33*
X186025000Y-87900000D03*
X182443600Y-87900000D03*
D34*
X170256396Y-82010000D03*
D35*
X167716396Y-82010000D03*
X165176396Y-82010000D03*
X162636396Y-82010000D03*
D36*
X126570000Y-100590001D03*
X126570000Y-97490001D03*
D25*
X131040349Y-86410000D03*
X124679651Y-86410000D03*
X131040349Y-82710002D03*
X124679651Y-82710002D03*
D18*
X188620000Y-91870000D03*
X188620000Y-88745000D03*
D37*
X142980000Y-83595002D03*
X142980000Y-85320002D03*
D38*
X171425000Y-77007500D03*
X168885000Y-77007500D03*
X166345000Y-77007500D03*
X158745000Y-77007500D03*
X156205000Y-77007500D03*
X153665000Y-77007500D03*
X151125000Y-77007500D03*
X148585000Y-77007500D03*
X146045000Y-77007500D03*
X143505000Y-77007500D03*
X140965000Y-77007500D03*
X140965000Y-53857500D03*
X143505000Y-53857500D03*
X146045000Y-53857500D03*
X148585000Y-53857500D03*
X151125000Y-53857500D03*
X153665000Y-53857500D03*
X156205000Y-53857500D03*
X158745000Y-53857500D03*
X166345000Y-53857500D03*
X168885000Y-53857500D03*
X171425000Y-53857500D03*
D39*
X172049999Y-101839999D03*
X172049999Y-103739999D03*
X173925000Y-102789999D03*
D40*
X172690000Y-112460000D03*
D41*
X175190000Y-112460000D03*
D42*
X125585000Y-69940000D03*
X128510000Y-69940000D03*
D32*
X129140000Y-76717501D03*
X129140000Y-79842501D03*
D36*
X148730000Y-101420000D03*
X148730000Y-98320000D03*
D43*
X141020000Y-81600001D03*
X141020000Y-84100001D03*
D44*
X136275000Y-84974999D03*
X136275000Y-96849999D03*
D45*
X153214999Y-96266000D03*
X154939999Y-96266000D03*
D37*
X155575000Y-86920999D03*
X155575000Y-88645999D03*
D18*
X140075000Y-89150000D03*
X140075000Y-86025000D03*
D23*
X186320000Y-95400000D03*
X186320000Y-98500002D03*
D46*
X148156001Y-86487000D03*
X146431001Y-86487000D03*
D37*
X142970000Y-80295002D03*
X142970000Y-82020002D03*
D34*
X170220000Y-95970000D03*
D35*
X167680000Y-95970000D03*
X165140001Y-95970000D03*
X162600000Y-95970000D03*
D22*
X174501400Y-85193601D03*
X174501400Y-87479601D03*
D18*
X180172501Y-87904601D03*
X180172501Y-84779601D03*
X151030000Y-101445000D03*
X151030000Y-98320000D03*
D32*
X140075000Y-92550000D03*
X140075000Y-95675000D03*
D47*
X184253899Y-91799600D03*
X184253899Y-92749600D03*
X184253899Y-93699600D03*
X186528899Y-93699600D03*
X186528899Y-92749600D03*
X186528899Y-91799600D03*
D48*
X134057500Y-66510000D03*
X131257500Y-66510000D03*
D32*
X159125000Y-103620000D03*
X159125000Y-106745000D03*
D49*
X139500000Y-112475000D03*
D50*
X142000000Y-112475000D03*
X144500000Y-112475000D03*
D51*
X187750000Y-69930000D03*
X187750000Y-66630000D03*
X182850000Y-66630000D03*
X182850000Y-69930000D03*
D23*
X126490000Y-76710001D03*
X126490000Y-79810001D03*
D18*
X176620000Y-87904601D03*
X176620000Y-84779601D03*
X182178899Y-95004601D03*
X182178899Y-91879601D03*
X176065000Y-103550000D03*
X176065000Y-100425000D03*
D52*
X181870000Y-75980000D03*
X187070000Y-75980000D03*
D48*
X134057500Y-69900000D03*
X131257500Y-69900000D03*
D42*
X125567500Y-66500000D03*
X128492500Y-66500000D03*
D53*
X178178899Y-91879602D03*
D54*
X178178899Y-94379602D03*
G36*
X181564130Y-81918493D02*
G01*
X181591201Y-81924671D01*
X181733921Y-81974611D01*
X181758938Y-81986659D01*
X181886963Y-82067102D01*
X181908672Y-82084415D01*
X182015584Y-82191327D01*
X182032897Y-82213036D01*
X182113340Y-82341061D01*
X182125388Y-82366078D01*
X182175328Y-82508798D01*
X182181506Y-82535869D01*
X182198435Y-82686116D01*
X182198435Y-82713884D01*
X182181506Y-82864130D01*
X182175328Y-82891201D01*
X182125388Y-83033921D01*
X182113340Y-83058938D01*
X182032897Y-83186963D01*
X182015584Y-83208672D01*
X181908672Y-83315584D01*
X181886963Y-83332897D01*
X181758938Y-83413340D01*
X181733921Y-83425388D01*
X181591201Y-83475328D01*
X181564130Y-83481506D01*
X181413884Y-83498435D01*
X181386116Y-83498435D01*
X181235869Y-83481506D01*
X181208798Y-83475328D01*
X181066078Y-83425388D01*
X181041061Y-83413340D01*
X180913036Y-83332897D01*
X180891327Y-83315584D01*
X180784415Y-83208672D01*
X180767102Y-83186963D01*
X180686659Y-83058938D01*
X180674611Y-83033921D01*
X180624671Y-82891201D01*
X180618493Y-82864130D01*
X180601564Y-82713884D01*
X180601564Y-82686116D01*
X180618493Y-82535869D01*
X180624671Y-82508798D01*
X180674611Y-82366078D01*
X180686659Y-82341061D01*
X180767102Y-82213036D01*
X180784415Y-82191327D01*
X180891327Y-82084415D01*
X180913036Y-82067102D01*
X181041061Y-81986659D01*
X181066078Y-81974611D01*
X181208798Y-81924671D01*
X181235869Y-81918493D01*
X181386116Y-81901564D01*
X181413884Y-81901564D01*
X181564130Y-81918493D01*
G37*
G36*
X173139107Y-99818314D02*
G01*
X173170374Y-99826692D01*
X173284917Y-99874137D01*
X173312950Y-99890322D01*
X173411312Y-99965797D01*
X173434202Y-99988687D01*
X173509677Y-100087049D01*
X173525862Y-100115082D01*
X173573307Y-100229625D01*
X173581685Y-100260892D01*
X173597869Y-100383814D01*
X173597869Y-100416186D01*
X173581685Y-100539107D01*
X173573307Y-100570374D01*
X173525862Y-100684917D01*
X173509677Y-100712950D01*
X173434202Y-100811312D01*
X173411312Y-100834202D01*
X173312950Y-100909677D01*
X173284917Y-100925862D01*
X173170374Y-100973307D01*
X173139107Y-100981685D01*
X173016186Y-100997869D01*
X172983814Y-100997869D01*
X172860892Y-100981685D01*
X172829625Y-100973307D01*
X172715082Y-100925862D01*
X172687049Y-100909677D01*
X172588687Y-100834202D01*
X172565797Y-100811312D01*
X172490322Y-100712950D01*
X172474137Y-100684917D01*
X172426692Y-100570374D01*
X172418314Y-100539107D01*
X172402130Y-100416186D01*
X172402130Y-100383814D01*
X172418314Y-100260892D01*
X172426692Y-100229625D01*
X172474137Y-100115082D01*
X172490322Y-100087049D01*
X172565797Y-99988687D01*
X172588687Y-99965797D01*
X172687049Y-99890322D01*
X172715082Y-99874137D01*
X172829625Y-99826692D01*
X172860892Y-99818314D01*
X172983814Y-99802130D01*
X173016186Y-99802130D01*
X173139107Y-99818314D01*
G37*
G36*
X174339107Y-101118314D02*
G01*
X174370374Y-101126692D01*
X174484917Y-101174137D01*
X174512950Y-101190322D01*
X174611312Y-101265797D01*
X174634202Y-101288687D01*
X174709677Y-101387049D01*
X174725862Y-101415082D01*
X174773307Y-101529625D01*
X174781685Y-101560892D01*
X174797869Y-101683814D01*
X174797869Y-101716186D01*
X174781685Y-101839107D01*
X174773307Y-101870374D01*
X174725862Y-101984917D01*
X174709677Y-102012950D01*
X174634202Y-102111312D01*
X174611312Y-102134202D01*
X174512950Y-102209677D01*
X174484917Y-102225862D01*
X174370374Y-102273307D01*
X174339107Y-102281685D01*
X174216186Y-102297869D01*
X174183814Y-102297869D01*
X174060892Y-102281685D01*
X174029625Y-102273307D01*
X173915082Y-102225862D01*
X173887049Y-102209677D01*
X173788687Y-102134202D01*
X173765797Y-102111312D01*
X173690322Y-102012950D01*
X173674137Y-101984917D01*
X173626692Y-101870374D01*
X173618314Y-101839107D01*
X173602130Y-101716186D01*
X173602130Y-101683814D01*
X173618314Y-101560892D01*
X173626692Y-101529625D01*
X173674137Y-101415082D01*
X173690322Y-101387049D01*
X173765797Y-101288687D01*
X173788687Y-101265797D01*
X173887049Y-101190322D01*
X173915082Y-101174137D01*
X174029625Y-101126692D01*
X174060892Y-101118314D01*
X174183814Y-101102130D01*
X174216186Y-101102130D01*
X174339107Y-101118314D01*
G37*
G36*
X178539107Y-87318314D02*
G01*
X178570374Y-87326692D01*
X178684917Y-87374137D01*
X178712950Y-87390322D01*
X178811312Y-87465797D01*
X178834202Y-87488687D01*
X178909677Y-87587049D01*
X178925862Y-87615082D01*
X178973307Y-87729625D01*
X178981685Y-87760892D01*
X178997869Y-87883814D01*
X178997869Y-87916186D01*
X178981685Y-88039107D01*
X178973307Y-88070374D01*
X178925862Y-88184917D01*
X178909677Y-88212950D01*
X178834202Y-88311312D01*
X178811312Y-88334202D01*
X178712950Y-88409677D01*
X178684917Y-88425862D01*
X178570374Y-88473307D01*
X178539107Y-88481685D01*
X178416186Y-88497869D01*
X178383814Y-88497869D01*
X178260892Y-88481685D01*
X178229625Y-88473307D01*
X178115082Y-88425862D01*
X178087049Y-88409677D01*
X177988687Y-88334202D01*
X177965797Y-88311312D01*
X177890322Y-88212950D01*
X177874137Y-88184917D01*
X177826692Y-88070374D01*
X177818314Y-88039107D01*
X177802130Y-87916186D01*
X177802130Y-87883814D01*
X177818314Y-87760892D01*
X177826692Y-87729625D01*
X177874137Y-87615082D01*
X177890322Y-87587049D01*
X177965797Y-87488687D01*
X177988687Y-87465797D01*
X178087049Y-87390322D01*
X178115082Y-87374137D01*
X178229625Y-87326692D01*
X178260892Y-87318314D01*
X178383814Y-87302130D01*
X178416186Y-87302130D01*
X178539107Y-87318314D01*
G37*
G36*
X155789130Y-108163493D02*
G01*
X155816201Y-108169671D01*
X155958921Y-108219611D01*
X155983938Y-108231659D01*
X156111963Y-108312102D01*
X156133672Y-108329415D01*
X156240584Y-108436327D01*
X156257897Y-108458036D01*
X156338340Y-108586061D01*
X156350388Y-108611078D01*
X156400328Y-108753798D01*
X156406506Y-108780869D01*
X156423435Y-108931116D01*
X156423435Y-108958884D01*
X156406506Y-109109130D01*
X156400328Y-109136201D01*
X156350388Y-109278921D01*
X156338340Y-109303938D01*
X156257897Y-109431963D01*
X156240584Y-109453672D01*
X156133672Y-109560584D01*
X156111963Y-109577897D01*
X155983938Y-109658340D01*
X155958921Y-109670388D01*
X155816201Y-109720328D01*
X155789130Y-109726506D01*
X155638884Y-109743435D01*
X155611116Y-109743435D01*
X155460869Y-109726506D01*
X155433798Y-109720328D01*
X155291078Y-109670388D01*
X155266061Y-109658340D01*
X155138036Y-109577897D01*
X155116327Y-109560584D01*
X155009415Y-109453672D01*
X154992102Y-109431963D01*
X154911659Y-109303938D01*
X154899611Y-109278921D01*
X154849671Y-109136201D01*
X154843493Y-109109130D01*
X154826564Y-108958884D01*
X154826564Y-108931116D01*
X154843493Y-108780869D01*
X154849671Y-108753798D01*
X154899611Y-108611078D01*
X154911659Y-108586061D01*
X154992102Y-108458036D01*
X155009415Y-108436327D01*
X155116327Y-108329415D01*
X155138036Y-108312102D01*
X155266061Y-108231659D01*
X155291078Y-108219611D01*
X155433798Y-108169671D01*
X155460869Y-108163493D01*
X155611116Y-108146564D01*
X155638884Y-108146564D01*
X155789130Y-108163493D01*
G37*
G36*
X170639107Y-104418314D02*
G01*
X170670374Y-104426692D01*
X170784917Y-104474137D01*
X170812950Y-104490322D01*
X170911312Y-104565797D01*
X170934202Y-104588687D01*
X171009677Y-104687049D01*
X171025862Y-104715082D01*
X171073307Y-104829625D01*
X171081685Y-104860892D01*
X171097869Y-104983814D01*
X171097869Y-105016186D01*
X171081685Y-105139107D01*
X171073307Y-105170374D01*
X171025862Y-105284917D01*
X171009677Y-105312950D01*
X170934202Y-105411312D01*
X170911312Y-105434202D01*
X170812950Y-105509677D01*
X170784917Y-105525862D01*
X170670374Y-105573307D01*
X170639107Y-105581685D01*
X170516186Y-105597869D01*
X170483814Y-105597869D01*
X170360892Y-105581685D01*
X170329625Y-105573307D01*
X170215082Y-105525862D01*
X170187049Y-105509677D01*
X170088687Y-105434202D01*
X170065797Y-105411312D01*
X169990322Y-105312950D01*
X169974137Y-105284917D01*
X169926692Y-105170374D01*
X169918314Y-105139107D01*
X169902130Y-105016186D01*
X169902130Y-104983814D01*
X169918314Y-104860892D01*
X169926692Y-104829625D01*
X169974137Y-104715082D01*
X169990322Y-104687049D01*
X170065797Y-104588687D01*
X170088687Y-104565797D01*
X170187049Y-104490322D01*
X170215082Y-104474137D01*
X170329625Y-104426692D01*
X170360892Y-104418314D01*
X170483814Y-104402130D01*
X170516186Y-104402130D01*
X170639107Y-104418314D01*
G37*
G36*
X145214130Y-50818493D02*
G01*
X145241201Y-50824671D01*
X145383921Y-50874611D01*
X145408938Y-50886659D01*
X145536963Y-50967102D01*
X145558672Y-50984415D01*
X145665584Y-51091327D01*
X145682897Y-51113036D01*
X145763340Y-51241061D01*
X145775388Y-51266078D01*
X145825328Y-51408798D01*
X145831506Y-51435869D01*
X145848435Y-51586116D01*
X145848435Y-51613884D01*
X145831506Y-51764130D01*
X145825328Y-51791201D01*
X145775388Y-51933921D01*
X145763340Y-51958938D01*
X145682897Y-52086963D01*
X145665584Y-52108672D01*
X145558672Y-52215584D01*
X145536963Y-52232897D01*
X145408938Y-52313340D01*
X145383921Y-52325388D01*
X145241201Y-52375328D01*
X145214130Y-52381506D01*
X145063884Y-52398435D01*
X145036116Y-52398435D01*
X144885869Y-52381506D01*
X144858798Y-52375328D01*
X144716078Y-52325388D01*
X144691061Y-52313340D01*
X144563036Y-52232897D01*
X144541327Y-52215584D01*
X144434415Y-52108672D01*
X144417102Y-52086963D01*
X144336659Y-51958938D01*
X144324611Y-51933921D01*
X144274671Y-51791201D01*
X144268493Y-51764130D01*
X144251564Y-51613884D01*
X144251564Y-51586116D01*
X144268493Y-51435869D01*
X144274671Y-51408798D01*
X144324611Y-51266078D01*
X144336659Y-51241061D01*
X144417102Y-51113036D01*
X144434415Y-51091327D01*
X144541327Y-50984415D01*
X144563036Y-50967102D01*
X144691061Y-50886659D01*
X144716078Y-50874611D01*
X144858798Y-50824671D01*
X144885869Y-50818493D01*
X145036116Y-50801564D01*
X145063884Y-50801564D01*
X145214130Y-50818493D01*
G37*
G36*
X169339107Y-104468314D02*
G01*
X169370374Y-104476692D01*
X169484917Y-104524137D01*
X169512950Y-104540322D01*
X169611312Y-104615797D01*
X169634202Y-104638687D01*
X169709677Y-104737049D01*
X169725862Y-104765082D01*
X169773307Y-104879625D01*
X169781685Y-104910892D01*
X169797869Y-105033814D01*
X169797869Y-105066186D01*
X169781685Y-105189107D01*
X169773307Y-105220374D01*
X169725862Y-105334917D01*
X169709677Y-105362950D01*
X169634202Y-105461312D01*
X169611312Y-105484202D01*
X169512950Y-105559677D01*
X169484917Y-105575862D01*
X169370374Y-105623307D01*
X169339107Y-105631685D01*
X169216186Y-105647869D01*
X169183814Y-105647869D01*
X169060892Y-105631685D01*
X169029625Y-105623307D01*
X168915082Y-105575862D01*
X168887049Y-105559677D01*
X168788687Y-105484202D01*
X168765797Y-105461312D01*
X168690322Y-105362950D01*
X168674137Y-105334917D01*
X168626692Y-105220374D01*
X168618314Y-105189107D01*
X168602130Y-105066186D01*
X168602130Y-105033814D01*
X168618314Y-104910892D01*
X168626692Y-104879625D01*
X168674137Y-104765082D01*
X168690322Y-104737049D01*
X168765797Y-104638687D01*
X168788687Y-104615797D01*
X168887049Y-104540322D01*
X168915082Y-104524137D01*
X169029625Y-104476692D01*
X169060892Y-104468314D01*
X169183814Y-104452130D01*
X169216186Y-104452130D01*
X169339107Y-104468314D01*
G37*
G36*
X160589130Y-108163493D02*
G01*
X160616201Y-108169671D01*
X160758921Y-108219611D01*
X160783938Y-108231659D01*
X160911963Y-108312102D01*
X160933672Y-108329415D01*
X161040584Y-108436327D01*
X161057897Y-108458036D01*
X161138340Y-108586061D01*
X161150388Y-108611078D01*
X161200328Y-108753798D01*
X161206506Y-108780869D01*
X161223435Y-108931116D01*
X161223435Y-108958884D01*
X161206506Y-109109130D01*
X161200328Y-109136201D01*
X161150388Y-109278921D01*
X161138340Y-109303938D01*
X161057897Y-109431963D01*
X161040584Y-109453672D01*
X160933672Y-109560584D01*
X160911963Y-109577897D01*
X160783938Y-109658340D01*
X160758921Y-109670388D01*
X160616201Y-109720328D01*
X160589130Y-109726506D01*
X160438884Y-109743435D01*
X160411116Y-109743435D01*
X160260869Y-109726506D01*
X160233798Y-109720328D01*
X160091078Y-109670388D01*
X160066061Y-109658340D01*
X159938036Y-109577897D01*
X159916327Y-109560584D01*
X159809415Y-109453672D01*
X159792102Y-109431963D01*
X159711659Y-109303938D01*
X159699611Y-109278921D01*
X159649671Y-109136201D01*
X159643493Y-109109130D01*
X159626564Y-108958884D01*
X159626564Y-108931116D01*
X159643493Y-108780869D01*
X159649671Y-108753798D01*
X159699611Y-108611078D01*
X159711659Y-108586061D01*
X159792102Y-108458036D01*
X159809415Y-108436327D01*
X159916327Y-108329415D01*
X159938036Y-108312102D01*
X160066061Y-108231659D01*
X160091078Y-108219611D01*
X160233798Y-108169671D01*
X160260869Y-108163493D01*
X160411116Y-108146564D01*
X160438884Y-108146564D01*
X160589130Y-108163493D01*
G37*
G36*
X179064130Y-81918493D02*
G01*
X179091201Y-81924671D01*
X179233921Y-81974611D01*
X179258938Y-81986659D01*
X179386963Y-82067102D01*
X179408672Y-82084415D01*
X179515584Y-82191327D01*
X179532897Y-82213036D01*
X179613340Y-82341061D01*
X179625388Y-82366078D01*
X179675328Y-82508798D01*
X179681506Y-82535869D01*
X179698435Y-82686116D01*
X179698435Y-82713884D01*
X179681506Y-82864130D01*
X179675328Y-82891201D01*
X179625388Y-83033921D01*
X179613340Y-83058938D01*
X179532897Y-83186963D01*
X179515584Y-83208672D01*
X179408672Y-83315584D01*
X179386963Y-83332897D01*
X179258938Y-83413340D01*
X179233921Y-83425388D01*
X179091201Y-83475328D01*
X179064130Y-83481506D01*
X178913884Y-83498435D01*
X178886116Y-83498435D01*
X178735869Y-83481506D01*
X178708798Y-83475328D01*
X178566078Y-83425388D01*
X178541061Y-83413340D01*
X178413036Y-83332897D01*
X178391327Y-83315584D01*
X178284415Y-83208672D01*
X178267102Y-83186963D01*
X178186659Y-83058938D01*
X178174611Y-83033921D01*
X178124671Y-82891201D01*
X178118493Y-82864130D01*
X178101564Y-82713884D01*
X178101564Y-82686116D01*
X178118493Y-82535869D01*
X178124671Y-82508798D01*
X178174611Y-82366078D01*
X178186659Y-82341061D01*
X178267102Y-82213036D01*
X178284415Y-82191327D01*
X178391327Y-82084415D01*
X178413036Y-82067102D01*
X178541061Y-81986659D01*
X178566078Y-81974611D01*
X178708798Y-81924671D01*
X178735869Y-81918493D01*
X178886116Y-81901564D01*
X178913884Y-81901564D01*
X179064130Y-81918493D01*
G37*
G36*
X176664130Y-81918493D02*
G01*
X176691201Y-81924671D01*
X176833921Y-81974611D01*
X176858938Y-81986659D01*
X176986963Y-82067102D01*
X177008672Y-82084415D01*
X177115584Y-82191327D01*
X177132897Y-82213036D01*
X177213340Y-82341061D01*
X177225388Y-82366078D01*
X177275328Y-82508798D01*
X177281506Y-82535869D01*
X177298435Y-82686116D01*
X177298435Y-82713884D01*
X177281506Y-82864130D01*
X177275328Y-82891201D01*
X177225388Y-83033921D01*
X177213340Y-83058938D01*
X177132897Y-83186963D01*
X177115584Y-83208672D01*
X177008672Y-83315584D01*
X176986963Y-83332897D01*
X176858938Y-83413340D01*
X176833921Y-83425388D01*
X176691201Y-83475328D01*
X176664130Y-83481506D01*
X176513884Y-83498435D01*
X176486116Y-83498435D01*
X176335869Y-83481506D01*
X176308798Y-83475328D01*
X176166078Y-83425388D01*
X176141061Y-83413340D01*
X176013036Y-83332897D01*
X175991327Y-83315584D01*
X175884415Y-83208672D01*
X175867102Y-83186963D01*
X175786659Y-83058938D01*
X175774611Y-83033921D01*
X175724671Y-82891201D01*
X175718493Y-82864130D01*
X175701564Y-82713884D01*
X175701564Y-82686116D01*
X175718493Y-82535869D01*
X175724671Y-82508798D01*
X175774611Y-82366078D01*
X175786659Y-82341061D01*
X175867102Y-82213036D01*
X175884415Y-82191327D01*
X175991327Y-82084415D01*
X176013036Y-82067102D01*
X176141061Y-81986659D01*
X176166078Y-81974611D01*
X176308798Y-81924671D01*
X176335869Y-81918493D01*
X176486116Y-81901564D01*
X176513884Y-81901564D01*
X176664130Y-81918493D01*
G37*
G36*
X174389107Y-103318314D02*
G01*
X174420374Y-103326692D01*
X174534917Y-103374137D01*
X174562950Y-103390322D01*
X174661312Y-103465797D01*
X174684202Y-103488687D01*
X174759677Y-103587049D01*
X174775862Y-103615082D01*
X174823307Y-103729625D01*
X174831685Y-103760892D01*
X174847869Y-103883814D01*
X174847869Y-103916186D01*
X174831685Y-104039107D01*
X174823307Y-104070374D01*
X174775862Y-104184917D01*
X174759677Y-104212950D01*
X174684202Y-104311312D01*
X174661312Y-104334202D01*
X174562950Y-104409677D01*
X174534917Y-104425862D01*
X174420374Y-104473307D01*
X174389107Y-104481685D01*
X174266186Y-104497869D01*
X174233814Y-104497869D01*
X174110892Y-104481685D01*
X174079625Y-104473307D01*
X173965082Y-104425862D01*
X173937049Y-104409677D01*
X173838687Y-104334202D01*
X173815797Y-104311312D01*
X173740322Y-104212950D01*
X173724137Y-104184917D01*
X173676692Y-104070374D01*
X173668314Y-104039107D01*
X173652130Y-103916186D01*
X173652130Y-103883814D01*
X173668314Y-103760892D01*
X173676692Y-103729625D01*
X173724137Y-103615082D01*
X173740322Y-103587049D01*
X173815797Y-103488687D01*
X173838687Y-103465797D01*
X173937049Y-103390322D01*
X173965082Y-103374137D01*
X174079625Y-103326692D01*
X174110892Y-103318314D01*
X174233814Y-103302130D01*
X174266186Y-103302130D01*
X174389107Y-103318314D01*
G37*
G36*
X147164130Y-50768493D02*
G01*
X147191201Y-50774671D01*
X147333921Y-50824611D01*
X147358938Y-50836659D01*
X147486963Y-50917102D01*
X147508672Y-50934415D01*
X147615584Y-51041327D01*
X147632897Y-51063036D01*
X147713340Y-51191061D01*
X147725388Y-51216078D01*
X147775328Y-51358798D01*
X147781506Y-51385869D01*
X147798435Y-51536116D01*
X147798435Y-51563884D01*
X147781506Y-51714130D01*
X147775328Y-51741201D01*
X147725388Y-51883921D01*
X147713340Y-51908938D01*
X147632897Y-52036963D01*
X147615584Y-52058672D01*
X147508672Y-52165584D01*
X147486963Y-52182897D01*
X147358938Y-52263340D01*
X147333921Y-52275388D01*
X147191201Y-52325328D01*
X147164130Y-52331506D01*
X147013884Y-52348435D01*
X146986116Y-52348435D01*
X146835869Y-52331506D01*
X146808798Y-52325328D01*
X146666078Y-52275388D01*
X146641061Y-52263340D01*
X146513036Y-52182897D01*
X146491327Y-52165584D01*
X146384415Y-52058672D01*
X146367102Y-52036963D01*
X146286659Y-51908938D01*
X146274611Y-51883921D01*
X146224671Y-51741201D01*
X146218493Y-51714130D01*
X146201564Y-51563884D01*
X146201564Y-51536116D01*
X146218493Y-51385869D01*
X146224671Y-51358798D01*
X146274611Y-51216078D01*
X146286659Y-51191061D01*
X146367102Y-51063036D01*
X146384415Y-51041327D01*
X146491327Y-50934415D01*
X146513036Y-50917102D01*
X146641061Y-50836659D01*
X146666078Y-50824611D01*
X146808798Y-50774671D01*
X146835869Y-50768493D01*
X146986116Y-50751564D01*
X147013884Y-50751564D01*
X147164130Y-50768493D01*
G37*
%LPD*%
M02*
