G04 #@! TF.GenerationSoftware,KiCad,Pcbnew,9.0.2+1*
G04 #@! TF.CreationDate,2025-06-19T19:53:33-07:00*
G04 #@! TF.ProjectId,Telemetry PCB V2,54656c65-6d65-4747-9279-205043422056,rev?*
G04 #@! TF.SameCoordinates,Original*
G04 #@! TF.FileFunction,Copper,L4,Bot*
G04 #@! TF.FilePolarity,Positive*
%FSLAX46Y46*%
G04 Gerber Fmt 4.6, Leading zero omitted, Abs format (unit mm)*
G04 Created by KiCad (PCBNEW 9.0.2+1) date 2025-06-19 19:53:33*
%MOMM*%
%LPD*%
G01*
G04 APERTURE LIST*
G04 Aperture macros list*
%AMRoundRect*
0 Rectangle with rounded corners*
0 $1 Rounding radius*
0 $2 $3 $4 $5 $6 $7 $8 $9 X,Y pos of 4 corners*
0 Add a 4 corners polygon primitive as box body*
4,1,4,$2,$3,$4,$5,$6,$7,$8,$9,$2,$3,0*
0 Add four circle primitives for the rounded corners*
1,1,$1+$1,$2,$3*
1,1,$1+$1,$4,$5*
1,1,$1+$1,$6,$7*
1,1,$1+$1,$8,$9*
0 Add four rect primitives between the rounded corners*
20,1,$1+$1,$2,$3,$4,$5,0*
20,1,$1+$1,$4,$5,$6,$7,0*
20,1,$1+$1,$6,$7,$8,$9,0*
20,1,$1+$1,$8,$9,$2,$3,0*%
G04 Aperture macros list end*
G04 #@! TA.AperFunction,ComponentPad*
%ADD10O,1.000000X2.100000*%
G04 #@! TD*
G04 #@! TA.AperFunction,ComponentPad*
%ADD11O,1.000000X1.600000*%
G04 #@! TD*
G04 #@! TA.AperFunction,ComponentPad*
%ADD12C,2.000000*%
G04 #@! TD*
G04 #@! TA.AperFunction,ComponentPad*
%ADD13R,1.700000X1.700000*%
G04 #@! TD*
G04 #@! TA.AperFunction,ComponentPad*
%ADD14O,1.700000X1.700000*%
G04 #@! TD*
G04 #@! TA.AperFunction,ComponentPad*
%ADD15RoundRect,0.250000X-0.600000X-0.725000X0.600000X-0.725000X0.600000X0.725000X-0.600000X0.725000X0*%
G04 #@! TD*
G04 #@! TA.AperFunction,ComponentPad*
%ADD16O,1.700000X1.950000*%
G04 #@! TD*
G04 #@! TA.AperFunction,ComponentPad*
%ADD17RoundRect,0.250000X-0.750000X0.600000X-0.750000X-0.600000X0.750000X-0.600000X0.750000X0.600000X0*%
G04 #@! TD*
G04 #@! TA.AperFunction,ComponentPad*
%ADD18O,2.000000X1.700000*%
G04 #@! TD*
G04 #@! TA.AperFunction,ViaPad*
%ADD19C,1.000000*%
G04 #@! TD*
G04 #@! TA.AperFunction,ViaPad*
%ADD20C,0.900000*%
G04 #@! TD*
G04 #@! TA.AperFunction,ViaPad*
%ADD21C,1.200000*%
G04 #@! TD*
G04 #@! TA.AperFunction,ViaPad*
%ADD22C,0.800000*%
G04 #@! TD*
G04 #@! TA.AperFunction,ViaPad*
%ADD23C,1.600000*%
G04 #@! TD*
G04 #@! TA.AperFunction,Conductor*
%ADD24C,0.250000*%
G04 #@! TD*
G04 APERTURE END LIST*
D10*
X153680000Y-111395000D03*
D11*
X153680000Y-115575000D03*
D10*
X162320000Y-111395000D03*
D11*
X162320000Y-115575000D03*
D12*
X167490000Y-88660000D03*
D13*
X170256396Y-82010000D03*
D14*
X167716396Y-82010000D03*
X165176396Y-82010000D03*
X162636396Y-82010000D03*
D13*
X170220000Y-95970000D03*
D14*
X167680000Y-95970000D03*
X165140001Y-95970000D03*
X162600000Y-95970000D03*
D15*
X139500000Y-112475000D03*
D16*
X142000000Y-112475000D03*
X144500000Y-112475000D03*
D12*
X162990000Y-88660000D03*
X181870000Y-75980000D03*
X187070000Y-75980000D03*
D17*
X178178899Y-91879602D03*
D18*
X178178899Y-94379602D03*
D19*
X181495000Y-66660000D03*
X143500000Y-55500000D03*
X158740000Y-55590000D03*
X171410000Y-75280000D03*
D20*
X141890000Y-80300000D03*
D19*
X171430000Y-55600000D03*
X166340000Y-55590000D03*
D21*
X178400000Y-87900000D03*
D22*
X128840000Y-99300001D03*
D20*
X135490000Y-66530000D03*
D19*
X153212800Y-97434400D03*
D22*
X127790001Y-75559652D03*
D21*
X173000000Y-100400000D03*
D22*
X151260000Y-109555000D03*
X184800000Y-98500000D03*
D19*
X140960000Y-55500000D03*
D22*
X164775000Y-109520000D03*
D19*
X149855000Y-102670000D03*
X168880000Y-55600000D03*
X148132800Y-85293200D03*
X140960000Y-75280000D03*
X143953364Y-93153364D03*
X156200000Y-55590000D03*
X140110000Y-90900000D03*
X156758982Y-88585382D03*
X166330000Y-75280000D03*
D20*
X141900000Y-85330000D03*
D22*
X127780000Y-90560001D03*
D21*
X169200000Y-105050000D03*
D19*
X144101591Y-94344177D03*
X156768800Y-86918800D03*
D20*
X125580000Y-71510000D03*
D22*
X126570000Y-99340000D03*
D21*
X170500000Y-105000000D03*
D22*
X127860000Y-86560001D03*
D19*
X146405600Y-85293200D03*
X154940000Y-97434400D03*
D21*
X174200000Y-101700000D03*
D23*
X155625000Y-108945000D03*
D21*
X174250000Y-103900000D03*
D23*
X160425000Y-108945000D03*
D21*
X174650000Y-98450000D03*
D23*
X147000000Y-51550000D03*
X145050000Y-51600000D03*
X176500000Y-82700000D03*
D22*
X188590000Y-98409999D03*
D23*
X181400000Y-82700000D03*
D19*
X189104999Y-69960000D03*
D23*
X178900000Y-82700000D03*
D20*
X155990000Y-92160000D03*
D19*
X153700000Y-55630000D03*
D20*
X155160000Y-91410000D03*
D19*
X151120000Y-55590000D03*
D20*
X155290000Y-94860000D03*
X156260000Y-94160000D03*
X136740000Y-78880000D03*
X134060000Y-71470000D03*
X182850000Y-71130000D03*
X156650000Y-93080000D03*
D24*
X156065100Y-92160000D02*
X155990000Y-92160000D01*
X159164136Y-89060964D02*
X156065100Y-92160000D01*
X160020000Y-78994000D02*
X159164136Y-79849864D01*
X153720000Y-55530000D02*
X153720000Y-60220000D01*
X160020000Y-66520000D02*
X160020000Y-78994000D01*
X153720000Y-60220000D02*
X160020000Y-66520000D01*
X159164136Y-79849864D02*
X159164136Y-89060964D01*
X151170000Y-55450000D02*
X151130000Y-55410000D01*
X157900000Y-89300000D02*
X155790000Y-91410000D01*
X157480000Y-78994000D02*
X157480000Y-66460000D01*
X151170000Y-60150000D02*
X151170000Y-55450000D01*
X157900000Y-89300000D02*
X157892816Y-79406816D01*
X155790000Y-91410000D02*
X155160000Y-91410000D01*
X157892816Y-79406816D02*
X157480000Y-78994000D01*
X157480000Y-66460000D02*
X151170000Y-60150000D01*
X163964001Y-94794000D02*
X165140001Y-95970000D01*
X162112884Y-94794000D02*
X163964001Y-94794000D01*
X155506000Y-94794000D02*
X155440000Y-94860000D01*
X155366000Y-94936000D02*
X161970884Y-94936000D01*
X161970884Y-94936000D02*
X162112884Y-94794000D01*
X155290000Y-94860000D02*
X155366000Y-94936000D01*
X155440000Y-94860000D02*
X155290000Y-94860000D01*
X165870000Y-94160000D02*
X167680000Y-95970000D01*
X156260000Y-94160000D02*
X165870000Y-94160000D01*
X134060000Y-71470000D02*
X134060000Y-76200000D01*
X134060000Y-76200000D02*
X136740000Y-78880000D01*
X162230000Y-85050000D02*
X171360000Y-85050000D01*
X156650000Y-93080000D02*
X160170000Y-89560000D01*
X178260000Y-78150000D02*
X178260000Y-75720000D01*
X171360000Y-85050000D02*
X178260000Y-78150000D01*
X160170000Y-89560000D02*
X160170000Y-87110000D01*
X178260000Y-75720000D02*
X182850000Y-71130000D01*
X160170000Y-87110000D02*
X162230000Y-85050000D01*
G04 #@! TA.AperFunction,Conductor*
G36*
X154176774Y-55724808D02*
G01*
X154184210Y-55729798D01*
X154185940Y-55738584D01*
X154185381Y-55740500D01*
X153847893Y-56612914D01*
X153841712Y-56619394D01*
X153836981Y-56620393D01*
X153602663Y-56620393D01*
X153594390Y-56616966D01*
X153591938Y-56613370D01*
X153288169Y-55916738D01*
X153288004Y-55907784D01*
X153292377Y-55902345D01*
X153695954Y-55631712D01*
X153704732Y-55629951D01*
X154176774Y-55724808D01*
G37*
G04 #@! TD.AperFunction*
G04 #@! TA.AperFunction,Conductor*
G36*
X151597176Y-55684889D02*
G01*
X151604611Y-55689878D01*
X151606341Y-55698664D01*
X151605902Y-55700256D01*
X151297756Y-56572590D01*
X151291769Y-56579249D01*
X151286724Y-56580393D01*
X151052374Y-56580393D01*
X151044101Y-56576966D01*
X151041819Y-56573740D01*
X150974157Y-56432233D01*
X150708628Y-55876911D01*
X150708151Y-55867971D01*
X150712666Y-55862151D01*
X151115954Y-55591712D01*
X151124732Y-55589951D01*
X151597176Y-55684889D01*
G37*
G04 #@! TD.AperFunction*
M02*
