G04 #@! TF.GenerationSoftware,KiCad,Pcbnew,9.0.3*
G04 #@! TF.CreationDate,2025-07-24T20:29:09-07:00*
G04 #@! TF.ProjectId,Telemetry PCB V2,54656c65-6d65-4747-9279-205043422056,rev?*
G04 #@! TF.SameCoordinates,Original*
G04 #@! TF.FileFunction,Copper,L3,Inr*
G04 #@! TF.FilePolarity,Positive*
%FSLAX46Y46*%
G04 Gerber Fmt 4.6, Leading zero omitted, Abs format (unit mm)*
G04 Created by KiCad (PCBNEW 9.0.3) date 2025-07-24 20:29:09*
%MOMM*%
%LPD*%
G01*
G04 APERTURE LIST*
G04 Aperture macros list*
%AMRoundRect*
0 Rectangle with rounded corners*
0 $1 Rounding radius*
0 $2 $3 $4 $5 $6 $7 $8 $9 X,Y pos of 4 corners*
0 Add a 4 corners polygon primitive as box body*
4,1,4,$2,$3,$4,$5,$6,$7,$8,$9,$2,$3,0*
0 Add four circle primitives for the rounded corners*
1,1,$1+$1,$2,$3*
1,1,$1+$1,$4,$5*
1,1,$1+$1,$6,$7*
1,1,$1+$1,$8,$9*
0 Add four rect primitives between the rounded corners*
20,1,$1+$1,$2,$3,$4,$5,0*
20,1,$1+$1,$4,$5,$6,$7,0*
20,1,$1+$1,$6,$7,$8,$9,0*
20,1,$1+$1,$8,$9,$2,$3,0*%
G04 Aperture macros list end*
G04 #@! TA.AperFunction,ComponentPad*
%ADD10O,1.000000X2.100000*%
G04 #@! TD*
G04 #@! TA.AperFunction,ComponentPad*
%ADD11O,1.000000X1.600000*%
G04 #@! TD*
G04 #@! TA.AperFunction,ComponentPad*
%ADD12R,1.700000X1.700000*%
G04 #@! TD*
G04 #@! TA.AperFunction,ComponentPad*
%ADD13O,1.700000X1.700000*%
G04 #@! TD*
G04 #@! TA.AperFunction,ComponentPad*
%ADD14RoundRect,0.250000X-0.600000X-0.750000X0.600000X-0.750000X0.600000X0.750000X-0.600000X0.750000X0*%
G04 #@! TD*
G04 #@! TA.AperFunction,ComponentPad*
%ADD15O,1.700000X2.000000*%
G04 #@! TD*
G04 #@! TA.AperFunction,ComponentPad*
%ADD16RoundRect,0.250000X-0.600000X-0.725000X0.600000X-0.725000X0.600000X0.725000X-0.600000X0.725000X0*%
G04 #@! TD*
G04 #@! TA.AperFunction,ComponentPad*
%ADD17O,1.700000X1.950000*%
G04 #@! TD*
G04 #@! TA.AperFunction,ComponentPad*
%ADD18C,2.000000*%
G04 #@! TD*
G04 #@! TA.AperFunction,ComponentPad*
%ADD19RoundRect,0.250000X-0.750000X0.600000X-0.750000X-0.600000X0.750000X-0.600000X0.750000X0.600000X0*%
G04 #@! TD*
G04 #@! TA.AperFunction,ComponentPad*
%ADD20O,2.000000X1.700000*%
G04 #@! TD*
G04 #@! TA.AperFunction,ViaPad*
%ADD21C,1.000000*%
G04 #@! TD*
G04 #@! TA.AperFunction,ViaPad*
%ADD22C,0.900000*%
G04 #@! TD*
G04 #@! TA.AperFunction,ViaPad*
%ADD23C,1.200000*%
G04 #@! TD*
G04 #@! TA.AperFunction,ViaPad*
%ADD24C,0.800000*%
G04 #@! TD*
G04 #@! TA.AperFunction,ViaPad*
%ADD25C,1.600000*%
G04 #@! TD*
G04 APERTURE END LIST*
D10*
X153680000Y-111395000D03*
D11*
X153680000Y-115575000D03*
D10*
X162320000Y-111395000D03*
D11*
X162320000Y-115575000D03*
D12*
X170256396Y-82010000D03*
D13*
X167716396Y-82010000D03*
X165176396Y-82010000D03*
X162636396Y-82010000D03*
D14*
X172690000Y-112460000D03*
D15*
X175190000Y-112460000D03*
D12*
X170220000Y-95970000D03*
D13*
X167680000Y-95970000D03*
X165140001Y-95970000D03*
X162600000Y-95970000D03*
D16*
X139500000Y-112475000D03*
D17*
X142000000Y-112475000D03*
X144500000Y-112475000D03*
D18*
X181870000Y-75980000D03*
X187070000Y-75980000D03*
D19*
X178178899Y-91879602D03*
D20*
X178178899Y-94379602D03*
D21*
X181495000Y-66660000D03*
X158740000Y-55590000D03*
X171410000Y-75280000D03*
D22*
X141890000Y-80300000D03*
D21*
X171430000Y-55600000D03*
X166340000Y-55590000D03*
D23*
X178400000Y-87900000D03*
D24*
X128840000Y-99300001D03*
D22*
X135490000Y-66530000D03*
D21*
X153212800Y-97434400D03*
D24*
X127790001Y-75559652D03*
D23*
X173000000Y-100400000D03*
D24*
X151260000Y-109555000D03*
X184800000Y-98500000D03*
D21*
X140960000Y-55500000D03*
D24*
X164775000Y-109520000D03*
D21*
X149855000Y-102670000D03*
X168880000Y-55600000D03*
X148132800Y-85293200D03*
X140960000Y-75280000D03*
X143953364Y-93153364D03*
X156200000Y-55590000D03*
X140110000Y-90900000D03*
X156758982Y-88585382D03*
X166330000Y-75280000D03*
D22*
X141900000Y-85330000D03*
D24*
X127780000Y-90560001D03*
D23*
X169200000Y-105050000D03*
D21*
X144101591Y-94344177D03*
X156768800Y-86918800D03*
D22*
X125580000Y-71510000D03*
D24*
X126570000Y-99340000D03*
D23*
X170500000Y-105000000D03*
D24*
X127860000Y-86560001D03*
D21*
X146405600Y-85293200D03*
X154940000Y-97434400D03*
D23*
X174200000Y-101700000D03*
D25*
X155625000Y-108945000D03*
D23*
X174250000Y-103900000D03*
D25*
X160425000Y-108945000D03*
D23*
X174650000Y-98450000D03*
D25*
X147000000Y-51550000D03*
X145050000Y-51600000D03*
X176500000Y-82700000D03*
D24*
X188590000Y-98409999D03*
D25*
X181400000Y-82700000D03*
D21*
X189104999Y-69960000D03*
D25*
X178900000Y-82700000D03*
D22*
X155990000Y-92160000D03*
D21*
X153700000Y-55630000D03*
D22*
X155160000Y-91410000D03*
D21*
X151120000Y-55590000D03*
D22*
X155290000Y-94860000D03*
X156260000Y-94160000D03*
X136740000Y-78880000D03*
X134060000Y-71470000D03*
X182850000Y-71130000D03*
X156650000Y-93080000D03*
G04 #@! TA.AperFunction,Conductor*
G36*
X167875252Y-68450447D02*
G01*
X168797750Y-68528957D01*
X168821800Y-68533426D01*
X169725675Y-68795841D01*
X169752930Y-68807438D01*
X170857518Y-69442820D01*
X170880499Y-69459843D01*
X171661145Y-70191699D01*
X171677077Y-70209861D01*
X172270484Y-71036740D01*
X172285762Y-71065276D01*
X172629006Y-71975273D01*
X172704848Y-72176341D01*
X172711839Y-72204482D01*
X172869012Y-73442219D01*
X172870000Y-73457840D01*
X172870000Y-99507911D01*
X172850315Y-99574950D01*
X172797511Y-99620705D01*
X172770202Y-99629526D01*
X172766513Y-99630259D01*
X172766498Y-99630264D01*
X172620827Y-99690602D01*
X172620814Y-99690609D01*
X172489711Y-99778210D01*
X172489707Y-99778213D01*
X172378213Y-99889707D01*
X172378210Y-99889711D01*
X172290609Y-100020814D01*
X172290602Y-100020827D01*
X172230264Y-100166498D01*
X172230261Y-100166510D01*
X172199500Y-100321153D01*
X172199500Y-100478846D01*
X172230261Y-100633489D01*
X172230264Y-100633501D01*
X172290602Y-100779172D01*
X172290609Y-100779185D01*
X172378210Y-100910288D01*
X172378213Y-100910292D01*
X172489707Y-101021786D01*
X172489711Y-101021789D01*
X172620814Y-101109390D01*
X172620827Y-101109397D01*
X172766498Y-101169735D01*
X172766503Y-101169737D01*
X172770184Y-101170469D01*
X172771932Y-101171383D01*
X172772336Y-101171506D01*
X172772312Y-101171582D01*
X172832094Y-101202847D01*
X172866674Y-101263560D01*
X172870000Y-101292087D01*
X172870000Y-107876000D01*
X172850315Y-107943039D01*
X172797511Y-107988794D01*
X172746000Y-108000000D01*
X160782665Y-108000000D01*
X160735213Y-107990561D01*
X160716839Y-107982950D01*
X160716829Y-107982947D01*
X160523543Y-107944500D01*
X160523541Y-107944500D01*
X160326459Y-107944500D01*
X160326457Y-107944500D01*
X160133170Y-107982947D01*
X160133160Y-107982950D01*
X160114787Y-107990561D01*
X160067335Y-108000000D01*
X155982665Y-108000000D01*
X155935213Y-107990561D01*
X155916839Y-107982950D01*
X155916829Y-107982947D01*
X155723543Y-107944500D01*
X155723541Y-107944500D01*
X155526459Y-107944500D01*
X155526457Y-107944500D01*
X155333170Y-107982947D01*
X155333160Y-107982950D01*
X155314787Y-107990561D01*
X155267335Y-108000000D01*
X146870000Y-108000000D01*
X146870000Y-118315500D01*
X146850315Y-118382539D01*
X146797511Y-118428294D01*
X146746000Y-118439500D01*
X130372126Y-118439500D01*
X130367892Y-118439428D01*
X129910235Y-118423793D01*
X129905623Y-118423549D01*
X129800759Y-118416049D01*
X129796924Y-118415715D01*
X129394314Y-118374325D01*
X129389349Y-118373713D01*
X129288995Y-118359285D01*
X129285572Y-118358744D01*
X128882305Y-118289213D01*
X128877016Y-118288182D01*
X128784487Y-118268054D01*
X128781486Y-118267362D01*
X128376838Y-118168752D01*
X128371262Y-118167255D01*
X128290436Y-118143522D01*
X128287859Y-118142735D01*
X127880438Y-118013426D01*
X127874617Y-118011418D01*
X127810406Y-117987469D01*
X127808249Y-117986641D01*
X127395604Y-117823914D01*
X127389582Y-117821354D01*
X127348817Y-117802737D01*
X127347073Y-117801924D01*
X126924791Y-117601095D01*
X126918630Y-117597951D01*
X126912109Y-117594391D01*
X126910752Y-117593640D01*
X126477073Y-117349794D01*
X126469839Y-117345395D01*
X126048723Y-117069186D01*
X126041806Y-117064303D01*
X125640517Y-116759996D01*
X125633966Y-116754666D01*
X125254387Y-116423689D01*
X125248199Y-116417910D01*
X124892089Y-116061800D01*
X124886310Y-116055612D01*
X124788983Y-115943993D01*
X124555330Y-115676029D01*
X124550006Y-115669485D01*
X124245690Y-115268185D01*
X124240813Y-115261276D01*
X124204562Y-115206007D01*
X123964604Y-114840160D01*
X123960205Y-114832926D01*
X123839479Y-114618216D01*
X123716313Y-114399166D01*
X123715607Y-114397889D01*
X123712047Y-114391368D01*
X123708903Y-114385207D01*
X123618555Y-114195233D01*
X123508052Y-113962879D01*
X123507261Y-113961181D01*
X123488633Y-113920392D01*
X123486084Y-113914394D01*
X123363204Y-113602793D01*
X123323346Y-113501720D01*
X123322574Y-113499710D01*
X123298570Y-113435353D01*
X123296581Y-113429588D01*
X123167248Y-113022090D01*
X123166492Y-113019614D01*
X123142731Y-112938694D01*
X123141257Y-112933204D01*
X123042616Y-112528426D01*
X123041963Y-112525596D01*
X123021811Y-112432956D01*
X123020790Y-112427719D01*
X122951238Y-112024329D01*
X122950726Y-112021090D01*
X122936282Y-111920627D01*
X122935676Y-111915715D01*
X122894278Y-111513019D01*
X122893953Y-111509294D01*
X122886446Y-111404328D01*
X122886207Y-111399809D01*
X122870842Y-110949997D01*
X127120000Y-110949997D01*
X127120000Y-110950002D01*
X127139051Y-111301384D01*
X127195984Y-111648659D01*
X127195986Y-111648667D01*
X127290123Y-111987719D01*
X127290125Y-111987726D01*
X127420375Y-112314630D01*
X127420384Y-112314648D01*
X127585214Y-112625550D01*
X127782697Y-112916815D01*
X127936255Y-113097598D01*
X128010515Y-113185023D01*
X128265995Y-113427027D01*
X128546142Y-113639989D01*
X128546150Y-113639994D01*
X128546162Y-113640002D01*
X128847668Y-113821411D01*
X128847673Y-113821414D01*
X128847677Y-113821415D01*
X128847681Y-113821418D01*
X129048646Y-113914394D01*
X129167051Y-113969174D01*
X129500533Y-114081537D01*
X129844209Y-114157186D01*
X130194049Y-114195234D01*
X130194054Y-114195234D01*
X130545946Y-114195234D01*
X130545951Y-114195234D01*
X130895791Y-114157186D01*
X131239467Y-114081537D01*
X131572949Y-113969174D01*
X131892327Y-113821414D01*
X132105429Y-113693195D01*
X132193837Y-113640002D01*
X132193841Y-113639999D01*
X132193858Y-113639989D01*
X132474005Y-113427027D01*
X132729485Y-113185023D01*
X132957302Y-112916816D01*
X133154786Y-112625550D01*
X133319620Y-112314640D01*
X133449873Y-111987730D01*
X133468504Y-111920627D01*
X133530947Y-111695730D01*
X138449500Y-111695730D01*
X138449500Y-113254269D01*
X138452353Y-113284699D01*
X138452353Y-113284701D01*
X138497206Y-113412880D01*
X138497207Y-113412882D01*
X138577850Y-113522150D01*
X138687118Y-113602793D01*
X138729845Y-113617744D01*
X138815299Y-113647646D01*
X138845730Y-113650500D01*
X138845734Y-113650500D01*
X140154270Y-113650500D01*
X140184699Y-113647646D01*
X140184701Y-113647646D01*
X140248790Y-113625219D01*
X140312882Y-113602793D01*
X140422150Y-113522150D01*
X140502793Y-113412882D01*
X140544147Y-113294699D01*
X140547646Y-113284701D01*
X140547646Y-113284699D01*
X140550500Y-113254269D01*
X140550500Y-112246530D01*
X140949500Y-112246530D01*
X140949500Y-112703469D01*
X140989868Y-112906412D01*
X140989870Y-112906420D01*
X141069058Y-113097596D01*
X141184024Y-113269657D01*
X141330342Y-113415975D01*
X141330345Y-113415977D01*
X141502402Y-113530941D01*
X141693580Y-113610130D01*
X141843758Y-113640002D01*
X141896530Y-113650499D01*
X141896534Y-113650500D01*
X141896535Y-113650500D01*
X142103466Y-113650500D01*
X142103467Y-113650499D01*
X142306420Y-113610130D01*
X142497598Y-113530941D01*
X142669655Y-113415977D01*
X142815977Y-113269655D01*
X142930941Y-113097598D01*
X143010130Y-112906420D01*
X143050500Y-112703465D01*
X143050500Y-112246535D01*
X143050499Y-112246530D01*
X143449500Y-112246530D01*
X143449500Y-112703469D01*
X143489868Y-112906412D01*
X143489870Y-112906420D01*
X143569058Y-113097596D01*
X143684024Y-113269657D01*
X143830342Y-113415975D01*
X143830345Y-113415977D01*
X144002402Y-113530941D01*
X144193580Y-113610130D01*
X144343758Y-113640002D01*
X144396530Y-113650499D01*
X144396534Y-113650500D01*
X144396535Y-113650500D01*
X144603466Y-113650500D01*
X144603467Y-113650499D01*
X144806420Y-113610130D01*
X144997598Y-113530941D01*
X145169655Y-113415977D01*
X145315977Y-113269655D01*
X145430941Y-113097598D01*
X145510130Y-112906420D01*
X145550500Y-112703465D01*
X145550500Y-112246535D01*
X145510130Y-112043580D01*
X145430941Y-111852402D01*
X145315977Y-111680345D01*
X145315975Y-111680342D01*
X145169657Y-111534024D01*
X145046575Y-111451784D01*
X144997598Y-111419059D01*
X144973656Y-111409142D01*
X144806420Y-111339870D01*
X144806412Y-111339868D01*
X144603469Y-111299500D01*
X144603465Y-111299500D01*
X144396535Y-111299500D01*
X144396530Y-111299500D01*
X144193587Y-111339868D01*
X144193579Y-111339870D01*
X144002403Y-111419058D01*
X143830342Y-111534024D01*
X143684024Y-111680342D01*
X143569058Y-111852403D01*
X143489870Y-112043579D01*
X143489868Y-112043587D01*
X143449500Y-112246530D01*
X143050499Y-112246530D01*
X143010130Y-112043580D01*
X142930941Y-111852402D01*
X142815977Y-111680345D01*
X142815975Y-111680342D01*
X142669657Y-111534024D01*
X142546575Y-111451784D01*
X142497598Y-111419059D01*
X142473656Y-111409142D01*
X142306420Y-111339870D01*
X142306412Y-111339868D01*
X142103469Y-111299500D01*
X142103465Y-111299500D01*
X141896535Y-111299500D01*
X141896530Y-111299500D01*
X141693587Y-111339868D01*
X141693579Y-111339870D01*
X141502403Y-111419058D01*
X141330342Y-111534024D01*
X141184024Y-111680342D01*
X141069058Y-111852403D01*
X140989870Y-112043579D01*
X140989868Y-112043587D01*
X140949500Y-112246530D01*
X140550500Y-112246530D01*
X140550500Y-111695730D01*
X140547646Y-111665300D01*
X140547646Y-111665298D01*
X140502793Y-111537119D01*
X140502792Y-111537117D01*
X140422150Y-111427850D01*
X140312882Y-111347207D01*
X140312880Y-111347206D01*
X140184700Y-111302353D01*
X140154270Y-111299500D01*
X140154266Y-111299500D01*
X138845734Y-111299500D01*
X138845730Y-111299500D01*
X138815300Y-111302353D01*
X138815298Y-111302353D01*
X138687119Y-111347206D01*
X138687117Y-111347207D01*
X138577850Y-111427850D01*
X138497207Y-111537117D01*
X138497206Y-111537119D01*
X138452353Y-111665298D01*
X138452353Y-111665300D01*
X138449500Y-111695730D01*
X133530947Y-111695730D01*
X133540961Y-111659662D01*
X133540961Y-111659660D01*
X133544013Y-111648667D01*
X133544017Y-111648654D01*
X133600948Y-111301387D01*
X133620000Y-110950000D01*
X133600948Y-110598613D01*
X133544017Y-110251346D01*
X133484093Y-110035520D01*
X133449876Y-109912280D01*
X133449874Y-109912273D01*
X133447793Y-109907051D01*
X133399875Y-109786784D01*
X133319624Y-109585369D01*
X133319615Y-109585351D01*
X133318253Y-109582782D01*
X133154786Y-109274450D01*
X132957302Y-108983184D01*
X132729485Y-108714977D01*
X132474005Y-108472973D01*
X132473998Y-108472967D01*
X132473995Y-108472965D01*
X132380963Y-108402244D01*
X132193858Y-108260011D01*
X132193852Y-108260007D01*
X132193837Y-108259997D01*
X131892331Y-108078588D01*
X131892318Y-108078581D01*
X131572959Y-107930830D01*
X131572954Y-107930828D01*
X131572949Y-107930826D01*
X131410231Y-107876000D01*
X131239466Y-107818462D01*
X130895789Y-107742813D01*
X130545952Y-107704766D01*
X130545951Y-107704766D01*
X130194049Y-107704766D01*
X130194047Y-107704766D01*
X129844210Y-107742813D01*
X129500533Y-107818462D01*
X129242745Y-107905321D01*
X129167051Y-107930826D01*
X129167048Y-107930827D01*
X129167040Y-107930830D01*
X128847681Y-108078581D01*
X128847668Y-108078588D01*
X128546162Y-108259997D01*
X128546146Y-108260008D01*
X128266004Y-108472965D01*
X128265995Y-108472973D01*
X128010512Y-108714979D01*
X128010507Y-108714985D01*
X127782697Y-108983184D01*
X127585214Y-109274449D01*
X127420384Y-109585351D01*
X127420375Y-109585369D01*
X127290125Y-109912273D01*
X127290123Y-109912280D01*
X127195986Y-110251332D01*
X127195984Y-110251340D01*
X127139051Y-110598615D01*
X127120000Y-110949997D01*
X122870842Y-110949997D01*
X122870572Y-110942101D01*
X122870500Y-110937874D01*
X122870500Y-102738995D01*
X149154499Y-102738995D01*
X149181418Y-102874322D01*
X149181421Y-102874332D01*
X149234221Y-103001804D01*
X149234228Y-103001817D01*
X149310885Y-103116541D01*
X149310888Y-103116545D01*
X149408454Y-103214111D01*
X149408458Y-103214114D01*
X149523182Y-103290771D01*
X149523195Y-103290778D01*
X149650667Y-103343578D01*
X149650672Y-103343580D01*
X149650676Y-103343580D01*
X149650677Y-103343581D01*
X149786004Y-103370500D01*
X149786007Y-103370500D01*
X149923995Y-103370500D01*
X150015041Y-103352389D01*
X150059328Y-103343580D01*
X150186811Y-103290775D01*
X150301542Y-103214114D01*
X150399114Y-103116542D01*
X150475775Y-103001811D01*
X150528580Y-102874328D01*
X150555500Y-102738993D01*
X150555500Y-102601007D01*
X150555500Y-102601004D01*
X150528581Y-102465677D01*
X150528580Y-102465676D01*
X150528580Y-102465672D01*
X150528578Y-102465667D01*
X150475778Y-102338195D01*
X150475771Y-102338182D01*
X150399114Y-102223458D01*
X150399111Y-102223454D01*
X150301545Y-102125888D01*
X150301541Y-102125885D01*
X150186817Y-102049228D01*
X150186804Y-102049221D01*
X150059332Y-101996421D01*
X150059322Y-101996418D01*
X149923995Y-101969500D01*
X149923993Y-101969500D01*
X149786007Y-101969500D01*
X149786005Y-101969500D01*
X149650677Y-101996418D01*
X149650667Y-101996421D01*
X149523195Y-102049221D01*
X149523182Y-102049228D01*
X149408458Y-102125885D01*
X149408454Y-102125888D01*
X149310888Y-102223454D01*
X149310885Y-102223458D01*
X149234228Y-102338182D01*
X149234221Y-102338195D01*
X149181421Y-102465667D01*
X149181418Y-102465677D01*
X149154500Y-102601004D01*
X149154500Y-102601007D01*
X149154500Y-102738993D01*
X149154500Y-102738995D01*
X149154499Y-102738995D01*
X122870500Y-102738995D01*
X122870500Y-99220944D01*
X128239500Y-99220944D01*
X128239500Y-99379057D01*
X128280423Y-99531784D01*
X128280426Y-99531791D01*
X128359475Y-99668710D01*
X128359479Y-99668715D01*
X128359480Y-99668717D01*
X128471284Y-99780521D01*
X128471286Y-99780522D01*
X128471290Y-99780525D01*
X128608209Y-99859574D01*
X128608216Y-99859578D01*
X128760943Y-99900501D01*
X128760945Y-99900501D01*
X128919055Y-99900501D01*
X128919057Y-99900501D01*
X129071784Y-99859578D01*
X129208716Y-99780521D01*
X129320520Y-99668717D01*
X129399577Y-99531785D01*
X129440500Y-99379058D01*
X129440500Y-99220944D01*
X129399577Y-99068217D01*
X129399573Y-99068210D01*
X129320524Y-98931291D01*
X129320518Y-98931283D01*
X129208717Y-98819482D01*
X129208709Y-98819476D01*
X129071790Y-98740427D01*
X129071786Y-98740425D01*
X129071784Y-98740424D01*
X128919057Y-98699501D01*
X128760943Y-98699501D01*
X128608216Y-98740424D01*
X128608209Y-98740427D01*
X128471290Y-98819476D01*
X128471282Y-98819482D01*
X128359481Y-98931283D01*
X128359475Y-98931291D01*
X128280426Y-99068210D01*
X128280423Y-99068217D01*
X128239500Y-99220944D01*
X122870500Y-99220944D01*
X122870500Y-97503395D01*
X152512299Y-97503395D01*
X152539218Y-97638722D01*
X152539221Y-97638732D01*
X152592021Y-97766204D01*
X152592028Y-97766217D01*
X152668685Y-97880941D01*
X152668688Y-97880945D01*
X152766254Y-97978511D01*
X152766258Y-97978514D01*
X152880982Y-98055171D01*
X152880995Y-98055178D01*
X153008467Y-98107978D01*
X153008472Y-98107980D01*
X153008476Y-98107980D01*
X153008477Y-98107981D01*
X153143804Y-98134900D01*
X153143807Y-98134900D01*
X153281795Y-98134900D01*
X153372841Y-98116789D01*
X153417128Y-98107980D01*
X153544611Y-98055175D01*
X153659342Y-97978514D01*
X153756914Y-97880942D01*
X153833575Y-97766211D01*
X153886380Y-97638728D01*
X153913300Y-97503393D01*
X153913300Y-97365407D01*
X153913300Y-97365404D01*
X153886381Y-97230077D01*
X153886380Y-97230076D01*
X153886380Y-97230072D01*
X153886378Y-97230067D01*
X153833578Y-97102595D01*
X153833571Y-97102582D01*
X153756914Y-96987858D01*
X153756911Y-96987854D01*
X153659345Y-96890288D01*
X153659341Y-96890285D01*
X153544617Y-96813628D01*
X153544604Y-96813621D01*
X153417132Y-96760821D01*
X153417122Y-96760818D01*
X153281795Y-96733900D01*
X153281793Y-96733900D01*
X153143807Y-96733900D01*
X153143805Y-96733900D01*
X153008477Y-96760818D01*
X153008467Y-96760821D01*
X152880995Y-96813621D01*
X152880982Y-96813628D01*
X152766258Y-96890285D01*
X152766254Y-96890288D01*
X152668688Y-96987854D01*
X152668685Y-96987858D01*
X152592028Y-97102582D01*
X152592021Y-97102595D01*
X152539221Y-97230067D01*
X152539218Y-97230077D01*
X152512300Y-97365404D01*
X152512300Y-97365407D01*
X152512300Y-97503393D01*
X152512300Y-97503395D01*
X152512299Y-97503395D01*
X122870500Y-97503395D01*
X122870500Y-95866530D01*
X161549500Y-95866530D01*
X161549500Y-96073469D01*
X161589868Y-96276412D01*
X161589870Y-96276420D01*
X161669058Y-96467596D01*
X161784024Y-96639657D01*
X161930342Y-96785975D01*
X161930345Y-96785977D01*
X162102402Y-96900941D01*
X162293580Y-96980130D01*
X162438052Y-97008867D01*
X162496530Y-97020499D01*
X162496534Y-97020500D01*
X162496535Y-97020500D01*
X162703466Y-97020500D01*
X162703467Y-97020499D01*
X162906420Y-96980130D01*
X163097598Y-96900941D01*
X163269655Y-96785977D01*
X163415977Y-96639655D01*
X163530941Y-96467598D01*
X163610130Y-96276420D01*
X163650500Y-96073465D01*
X163650500Y-95866535D01*
X163650499Y-95866530D01*
X164089501Y-95866530D01*
X164089501Y-96073469D01*
X164129869Y-96276412D01*
X164129871Y-96276420D01*
X164209059Y-96467596D01*
X164324025Y-96639657D01*
X164470343Y-96785975D01*
X164470346Y-96785977D01*
X164642403Y-96900941D01*
X164833581Y-96980130D01*
X164978053Y-97008867D01*
X165036531Y-97020499D01*
X165036535Y-97020500D01*
X165036536Y-97020500D01*
X165243467Y-97020500D01*
X165243468Y-97020499D01*
X165446421Y-96980130D01*
X165637599Y-96900941D01*
X165809656Y-96785977D01*
X165955978Y-96639655D01*
X166070942Y-96467598D01*
X166150131Y-96276420D01*
X166190501Y-96073465D01*
X166190501Y-95866535D01*
X166190500Y-95866530D01*
X166629500Y-95866530D01*
X166629500Y-96073469D01*
X166669868Y-96276412D01*
X166669870Y-96276420D01*
X166749058Y-96467596D01*
X166864024Y-96639657D01*
X167010342Y-96785975D01*
X167010345Y-96785977D01*
X167182402Y-96900941D01*
X167373580Y-96980130D01*
X167518052Y-97008867D01*
X167576530Y-97020499D01*
X167576534Y-97020500D01*
X167576535Y-97020500D01*
X167783466Y-97020500D01*
X167783467Y-97020499D01*
X167986420Y-96980130D01*
X168177598Y-96900941D01*
X168349655Y-96785977D01*
X168495977Y-96639655D01*
X168610941Y-96467598D01*
X168690130Y-96276420D01*
X168730500Y-96073465D01*
X168730500Y-95866535D01*
X168690130Y-95663580D01*
X168610941Y-95472402D01*
X168495977Y-95300345D01*
X168495975Y-95300342D01*
X168349657Y-95154024D01*
X168269173Y-95100247D01*
X169169500Y-95100247D01*
X169169500Y-96839752D01*
X169181131Y-96898229D01*
X169181132Y-96898230D01*
X169225447Y-96964552D01*
X169291769Y-97008867D01*
X169291770Y-97008868D01*
X169350247Y-97020499D01*
X169350250Y-97020500D01*
X169350252Y-97020500D01*
X171089750Y-97020500D01*
X171089751Y-97020499D01*
X171104568Y-97017552D01*
X171148229Y-97008868D01*
X171148229Y-97008867D01*
X171148231Y-97008867D01*
X171214552Y-96964552D01*
X171258867Y-96898231D01*
X171258867Y-96898229D01*
X171258868Y-96898229D01*
X171270499Y-96839752D01*
X171270500Y-96839750D01*
X171270500Y-95100249D01*
X171270499Y-95100247D01*
X171258868Y-95041770D01*
X171258867Y-95041769D01*
X171214552Y-94975447D01*
X171148230Y-94931132D01*
X171148229Y-94931131D01*
X171089752Y-94919500D01*
X171089748Y-94919500D01*
X169350252Y-94919500D01*
X169350247Y-94919500D01*
X169291770Y-94931131D01*
X169291769Y-94931132D01*
X169225447Y-94975447D01*
X169181132Y-95041769D01*
X169181131Y-95041770D01*
X169169500Y-95100247D01*
X168269173Y-95100247D01*
X168181655Y-95041770D01*
X168177598Y-95039059D01*
X167986420Y-94959870D01*
X167986412Y-94959868D01*
X167783469Y-94919500D01*
X167783465Y-94919500D01*
X167576535Y-94919500D01*
X167576530Y-94919500D01*
X167373587Y-94959868D01*
X167373579Y-94959870D01*
X167182403Y-95039058D01*
X167010342Y-95154024D01*
X166864024Y-95300342D01*
X166749058Y-95472403D01*
X166669870Y-95663579D01*
X166669868Y-95663587D01*
X166629500Y-95866530D01*
X166190500Y-95866530D01*
X166150131Y-95663580D01*
X166070942Y-95472402D01*
X165955978Y-95300345D01*
X165955976Y-95300342D01*
X165809658Y-95154024D01*
X165641656Y-95041770D01*
X165637599Y-95039059D01*
X165446421Y-94959870D01*
X165446413Y-94959868D01*
X165243470Y-94919500D01*
X165243466Y-94919500D01*
X165036536Y-94919500D01*
X165036531Y-94919500D01*
X164833588Y-94959868D01*
X164833580Y-94959870D01*
X164642404Y-95039058D01*
X164470343Y-95154024D01*
X164324025Y-95300342D01*
X164209059Y-95472403D01*
X164129871Y-95663579D01*
X164129869Y-95663587D01*
X164089501Y-95866530D01*
X163650499Y-95866530D01*
X163610130Y-95663580D01*
X163530941Y-95472402D01*
X163415977Y-95300345D01*
X163415975Y-95300342D01*
X163269657Y-95154024D01*
X163101655Y-95041770D01*
X163097598Y-95039059D01*
X162906420Y-94959870D01*
X162906412Y-94959868D01*
X162703469Y-94919500D01*
X162703465Y-94919500D01*
X162496535Y-94919500D01*
X162496530Y-94919500D01*
X162293587Y-94959868D01*
X162293579Y-94959870D01*
X162102403Y-95039058D01*
X161930342Y-95154024D01*
X161784024Y-95300342D01*
X161669058Y-95472403D01*
X161589870Y-95663579D01*
X161589868Y-95663587D01*
X161549500Y-95866530D01*
X122870500Y-95866530D01*
X122870500Y-93222359D01*
X143252863Y-93222359D01*
X143279782Y-93357686D01*
X143279785Y-93357696D01*
X143332585Y-93485168D01*
X143332592Y-93485181D01*
X143409249Y-93599905D01*
X143409252Y-93599909D01*
X143506818Y-93697475D01*
X143506822Y-93697478D01*
X143621546Y-93774135D01*
X143621559Y-93774142D01*
X143749031Y-93826942D01*
X143749036Y-93826944D01*
X143749040Y-93826944D01*
X143749041Y-93826945D01*
X143884368Y-93853864D01*
X143884371Y-93853864D01*
X144022359Y-93853864D01*
X144113405Y-93835753D01*
X144157692Y-93826944D01*
X144285175Y-93774139D01*
X144399906Y-93697478D01*
X144497478Y-93599906D01*
X144574139Y-93485175D01*
X144626944Y-93357692D01*
X144653864Y-93222357D01*
X144653864Y-93084371D01*
X144653864Y-93084368D01*
X144626945Y-92949041D01*
X144626944Y-92949040D01*
X144626944Y-92949036D01*
X144582024Y-92840589D01*
X144574142Y-92821559D01*
X144574135Y-92821546D01*
X144497478Y-92706822D01*
X144497475Y-92706818D01*
X144399909Y-92609252D01*
X144399905Y-92609249D01*
X144285181Y-92532592D01*
X144285168Y-92532585D01*
X144157696Y-92479785D01*
X144157686Y-92479782D01*
X144022359Y-92452864D01*
X144022357Y-92452864D01*
X143884371Y-92452864D01*
X143884369Y-92452864D01*
X143749041Y-92479782D01*
X143749031Y-92479785D01*
X143621559Y-92532585D01*
X143621546Y-92532592D01*
X143506822Y-92609249D01*
X143506818Y-92609252D01*
X143409252Y-92706818D01*
X143409249Y-92706822D01*
X143332592Y-92821546D01*
X143332585Y-92821559D01*
X143279785Y-92949031D01*
X143279782Y-92949041D01*
X143252864Y-93084368D01*
X143252864Y-93084371D01*
X143252864Y-93222357D01*
X143252864Y-93222359D01*
X143252863Y-93222359D01*
X122870500Y-93222359D01*
X122870500Y-90480944D01*
X127179500Y-90480944D01*
X127179500Y-90639058D01*
X127220423Y-90791783D01*
X127220423Y-90791784D01*
X127220426Y-90791791D01*
X127299475Y-90928710D01*
X127299479Y-90928715D01*
X127299480Y-90928717D01*
X127411284Y-91040521D01*
X127411286Y-91040522D01*
X127411290Y-91040525D01*
X127521802Y-91104328D01*
X127548216Y-91119578D01*
X127700943Y-91160501D01*
X127700945Y-91160501D01*
X127859055Y-91160501D01*
X127859057Y-91160501D01*
X128011784Y-91119578D01*
X128148716Y-91040521D01*
X128220242Y-90968995D01*
X139409499Y-90968995D01*
X139436418Y-91104322D01*
X139436421Y-91104332D01*
X139489221Y-91231804D01*
X139489228Y-91231817D01*
X139565885Y-91346541D01*
X139565888Y-91346545D01*
X139663454Y-91444111D01*
X139663458Y-91444114D01*
X139778182Y-91520771D01*
X139778195Y-91520778D01*
X139905667Y-91573578D01*
X139905672Y-91573580D01*
X139905676Y-91573580D01*
X139905677Y-91573581D01*
X140041004Y-91600500D01*
X140041007Y-91600500D01*
X140178995Y-91600500D01*
X140270041Y-91582389D01*
X140314328Y-91573580D01*
X140441811Y-91520775D01*
X140511708Y-91474071D01*
X154509499Y-91474071D01*
X154534497Y-91599738D01*
X154534499Y-91599744D01*
X154583533Y-91718124D01*
X154583538Y-91718133D01*
X154654723Y-91824668D01*
X154654726Y-91824672D01*
X154745327Y-91915273D01*
X154745331Y-91915276D01*
X154851866Y-91986461D01*
X154851872Y-91986464D01*
X154851873Y-91986465D01*
X154970256Y-92035501D01*
X154970260Y-92035501D01*
X154970261Y-92035502D01*
X155095928Y-92060500D01*
X155215500Y-92060500D01*
X155282539Y-92080185D01*
X155328294Y-92132989D01*
X155339500Y-92184500D01*
X155339500Y-92224069D01*
X155339500Y-92224071D01*
X155339499Y-92224071D01*
X155364497Y-92349738D01*
X155364499Y-92349744D01*
X155413533Y-92468124D01*
X155413538Y-92468133D01*
X155484723Y-92574668D01*
X155484726Y-92574672D01*
X155575327Y-92665273D01*
X155575331Y-92665276D01*
X155681866Y-92736461D01*
X155681872Y-92736464D01*
X155681873Y-92736465D01*
X155800256Y-92785501D01*
X155914390Y-92808204D01*
X155976301Y-92840589D01*
X156010875Y-92901304D01*
X156011816Y-92954013D01*
X155999500Y-93015928D01*
X155999500Y-93015931D01*
X155999500Y-93144069D01*
X155999500Y-93144071D01*
X155999499Y-93144071D01*
X156024497Y-93269738D01*
X156024499Y-93269744D01*
X156075866Y-93393755D01*
X156074220Y-93394436D01*
X156086744Y-93454606D01*
X156061740Y-93519848D01*
X156010598Y-93559210D01*
X155951872Y-93583535D01*
X155951866Y-93583538D01*
X155845331Y-93654723D01*
X155845327Y-93654726D01*
X155754726Y-93745327D01*
X155754723Y-93745331D01*
X155683538Y-93851866D01*
X155683533Y-93851875D01*
X155634499Y-93970255D01*
X155634497Y-93970261D01*
X155609500Y-94095928D01*
X155609500Y-94109214D01*
X155589815Y-94176253D01*
X155537011Y-94222008D01*
X155467853Y-94231952D01*
X155461308Y-94230831D01*
X155354071Y-94209500D01*
X155354069Y-94209500D01*
X155225931Y-94209500D01*
X155225929Y-94209500D01*
X155100261Y-94234497D01*
X155100255Y-94234499D01*
X154981875Y-94283533D01*
X154981866Y-94283538D01*
X154875331Y-94354723D01*
X154875327Y-94354726D01*
X154784726Y-94445327D01*
X154784723Y-94445331D01*
X154713538Y-94551866D01*
X154713533Y-94551875D01*
X154664499Y-94670255D01*
X154664497Y-94670261D01*
X154639500Y-94795928D01*
X154639500Y-94795931D01*
X154639500Y-94924069D01*
X154639500Y-94924071D01*
X154639499Y-94924071D01*
X154664497Y-95049738D01*
X154664499Y-95049744D01*
X154713533Y-95168124D01*
X154713538Y-95168133D01*
X154784723Y-95274668D01*
X154784726Y-95274672D01*
X154875327Y-95365273D01*
X154875331Y-95365276D01*
X154981866Y-95436461D01*
X154981872Y-95436464D01*
X154981873Y-95436465D01*
X155100256Y-95485501D01*
X155100260Y-95485501D01*
X155100261Y-95485502D01*
X155225928Y-95510500D01*
X155225931Y-95510500D01*
X155354071Y-95510500D01*
X155438615Y-95493682D01*
X155479744Y-95485501D01*
X155598127Y-95436465D01*
X155704669Y-95365276D01*
X155795276Y-95274669D01*
X155866465Y-95168127D01*
X155915501Y-95049744D01*
X155939095Y-94931132D01*
X155940500Y-94924071D01*
X155940500Y-94910785D01*
X155960185Y-94843746D01*
X156012989Y-94797991D01*
X156082147Y-94788047D01*
X156088676Y-94789165D01*
X156162970Y-94803943D01*
X156195930Y-94810500D01*
X156195931Y-94810500D01*
X156324071Y-94810500D01*
X156431309Y-94789168D01*
X156449744Y-94785501D01*
X156568127Y-94736465D01*
X156674669Y-94665276D01*
X156765276Y-94574669D01*
X156836465Y-94468127D01*
X156885501Y-94349744D01*
X156898672Y-94283533D01*
X156910500Y-94224071D01*
X156910500Y-94095928D01*
X156885502Y-93970261D01*
X156885501Y-93970260D01*
X156885501Y-93970256D01*
X156836465Y-93851873D01*
X156834134Y-93846245D01*
X156835782Y-93845562D01*
X156823254Y-93785406D01*
X156848251Y-93720161D01*
X156899401Y-93680790D01*
X156958127Y-93656465D01*
X157064669Y-93585276D01*
X157155276Y-93494669D01*
X157226465Y-93388127D01*
X157275501Y-93269744D01*
X157300500Y-93144069D01*
X157300500Y-93015931D01*
X157300500Y-93015928D01*
X157275502Y-92890261D01*
X157275501Y-92890260D01*
X157275501Y-92890256D01*
X157226465Y-92771873D01*
X157226464Y-92771872D01*
X157226461Y-92771866D01*
X157155276Y-92665331D01*
X157155273Y-92665327D01*
X157064672Y-92574726D01*
X157064668Y-92574723D01*
X156958133Y-92503538D01*
X156958124Y-92503533D01*
X156839744Y-92454499D01*
X156839738Y-92454497D01*
X156725609Y-92431795D01*
X156663698Y-92399410D01*
X156629124Y-92338694D01*
X156628184Y-92285986D01*
X156640500Y-92224071D01*
X156640500Y-92095928D01*
X156615502Y-91970261D01*
X156615501Y-91970260D01*
X156615501Y-91970256D01*
X156566465Y-91851873D01*
X156566464Y-91851872D01*
X156566461Y-91851866D01*
X156495276Y-91745331D01*
X156495273Y-91745327D01*
X156404672Y-91654726D01*
X156404668Y-91654723D01*
X156298133Y-91583538D01*
X156298124Y-91583533D01*
X156179744Y-91534499D01*
X156179738Y-91534497D01*
X156054071Y-91509500D01*
X156054069Y-91509500D01*
X155934500Y-91509500D01*
X155867461Y-91489815D01*
X155821706Y-91437011D01*
X155810500Y-91385500D01*
X155810500Y-91345928D01*
X155785502Y-91220261D01*
X155785501Y-91220260D01*
X155785501Y-91220256D01*
X155737482Y-91104328D01*
X155736466Y-91101875D01*
X155736461Y-91101866D01*
X155665276Y-90995331D01*
X155665273Y-90995327D01*
X155574672Y-90904726D01*
X155574668Y-90904723D01*
X155468133Y-90833538D01*
X155468124Y-90833533D01*
X155349744Y-90784499D01*
X155349738Y-90784497D01*
X155224071Y-90759500D01*
X155224069Y-90759500D01*
X155095931Y-90759500D01*
X155095929Y-90759500D01*
X154970261Y-90784497D01*
X154970255Y-90784499D01*
X154851875Y-90833533D01*
X154851866Y-90833538D01*
X154745331Y-90904723D01*
X154745327Y-90904726D01*
X154654726Y-90995327D01*
X154654723Y-90995331D01*
X154583538Y-91101866D01*
X154583533Y-91101875D01*
X154534499Y-91220255D01*
X154534497Y-91220261D01*
X154509500Y-91345928D01*
X154509500Y-91345931D01*
X154509500Y-91474069D01*
X154509500Y-91474071D01*
X154509499Y-91474071D01*
X140511708Y-91474071D01*
X140556542Y-91444114D01*
X140654114Y-91346542D01*
X140681274Y-91305893D01*
X140704625Y-91270948D01*
X140730771Y-91231817D01*
X140730771Y-91231816D01*
X140730775Y-91231811D01*
X140783580Y-91104328D01*
X140796272Y-91040521D01*
X140810500Y-90968995D01*
X140810500Y-90831004D01*
X140783581Y-90695677D01*
X140783580Y-90695676D01*
X140783580Y-90695672D01*
X140760130Y-90639058D01*
X140730778Y-90568195D01*
X140730771Y-90568182D01*
X140654114Y-90453458D01*
X140654111Y-90453454D01*
X140556545Y-90355888D01*
X140556541Y-90355885D01*
X140441817Y-90279228D01*
X140441804Y-90279221D01*
X140314332Y-90226421D01*
X140314322Y-90226418D01*
X140178995Y-90199500D01*
X140178993Y-90199500D01*
X140041007Y-90199500D01*
X140041005Y-90199500D01*
X139905677Y-90226418D01*
X139905667Y-90226421D01*
X139778195Y-90279221D01*
X139778182Y-90279228D01*
X139663458Y-90355885D01*
X139663454Y-90355888D01*
X139565888Y-90453454D01*
X139565885Y-90453458D01*
X139489228Y-90568182D01*
X139489221Y-90568195D01*
X139436421Y-90695667D01*
X139436418Y-90695677D01*
X139409500Y-90831004D01*
X139409500Y-90831007D01*
X139409500Y-90968993D01*
X139409500Y-90968995D01*
X139409499Y-90968995D01*
X128220242Y-90968995D01*
X128260520Y-90928717D01*
X128339577Y-90791785D01*
X128380500Y-90639058D01*
X128380500Y-90480944D01*
X128339577Y-90328217D01*
X128339573Y-90328210D01*
X128260524Y-90191291D01*
X128260518Y-90191283D01*
X128148717Y-90079482D01*
X128148709Y-90079476D01*
X128011790Y-90000427D01*
X128011786Y-90000425D01*
X128011784Y-90000424D01*
X127859057Y-89959501D01*
X127700943Y-89959501D01*
X127548216Y-90000424D01*
X127548209Y-90000427D01*
X127411290Y-90079476D01*
X127411282Y-90079482D01*
X127299481Y-90191283D01*
X127299475Y-90191291D01*
X127220426Y-90328210D01*
X127220423Y-90328217D01*
X127179500Y-90480944D01*
X122870500Y-90480944D01*
X122870500Y-88654377D01*
X156058481Y-88654377D01*
X156085400Y-88789704D01*
X156085403Y-88789714D01*
X156138203Y-88917186D01*
X156138210Y-88917199D01*
X156214867Y-89031923D01*
X156214870Y-89031927D01*
X156312436Y-89129493D01*
X156312440Y-89129496D01*
X156427164Y-89206153D01*
X156427177Y-89206160D01*
X156554649Y-89258960D01*
X156554654Y-89258962D01*
X156554658Y-89258962D01*
X156554659Y-89258963D01*
X156689986Y-89285882D01*
X156689989Y-89285882D01*
X156827977Y-89285882D01*
X156919023Y-89267771D01*
X156963310Y-89258962D01*
X157090793Y-89206157D01*
X157205524Y-89129496D01*
X157303096Y-89031924D01*
X157379757Y-88917193D01*
X157432562Y-88789710D01*
X157459482Y-88654375D01*
X157459482Y-88516389D01*
X157459482Y-88516386D01*
X157432563Y-88381059D01*
X157432562Y-88381058D01*
X157432562Y-88381054D01*
X157432560Y-88381049D01*
X157379760Y-88253577D01*
X157379753Y-88253564D01*
X157303096Y-88138840D01*
X157303093Y-88138836D01*
X157205527Y-88041270D01*
X157205523Y-88041267D01*
X157090799Y-87964610D01*
X157090786Y-87964603D01*
X156963314Y-87911803D01*
X156963304Y-87911800D01*
X156827977Y-87884882D01*
X156827975Y-87884882D01*
X156689989Y-87884882D01*
X156689987Y-87884882D01*
X156554659Y-87911800D01*
X156554649Y-87911803D01*
X156427177Y-87964603D01*
X156427164Y-87964610D01*
X156312440Y-88041267D01*
X156312436Y-88041270D01*
X156214870Y-88138836D01*
X156214867Y-88138840D01*
X156138210Y-88253564D01*
X156138203Y-88253577D01*
X156085403Y-88381049D01*
X156085400Y-88381059D01*
X156058482Y-88516386D01*
X156058482Y-88516389D01*
X156058482Y-88654375D01*
X156058482Y-88654377D01*
X156058481Y-88654377D01*
X122870500Y-88654377D01*
X122870500Y-85394071D01*
X141249499Y-85394071D01*
X141274497Y-85519738D01*
X141274499Y-85519744D01*
X141323533Y-85638124D01*
X141323538Y-85638133D01*
X141394723Y-85744668D01*
X141394726Y-85744672D01*
X141485327Y-85835273D01*
X141485331Y-85835276D01*
X141591866Y-85906461D01*
X141591872Y-85906464D01*
X141591873Y-85906465D01*
X141710256Y-85955501D01*
X141710260Y-85955501D01*
X141710261Y-85955502D01*
X141835928Y-85980500D01*
X141835931Y-85980500D01*
X141964071Y-85980500D01*
X142048615Y-85963682D01*
X142089744Y-85955501D01*
X142208127Y-85906465D01*
X142314669Y-85835276D01*
X142405276Y-85744669D01*
X142476465Y-85638127D01*
X142525501Y-85519744D01*
X142550500Y-85394069D01*
X142550500Y-85362195D01*
X147432299Y-85362195D01*
X147459218Y-85497522D01*
X147459221Y-85497532D01*
X147512021Y-85625004D01*
X147512028Y-85625017D01*
X147588685Y-85739741D01*
X147588688Y-85739745D01*
X147686254Y-85837311D01*
X147686258Y-85837314D01*
X147800982Y-85913971D01*
X147800995Y-85913978D01*
X147901242Y-85955501D01*
X147928472Y-85966780D01*
X147928476Y-85966780D01*
X147928477Y-85966781D01*
X148063804Y-85993700D01*
X148063807Y-85993700D01*
X148201795Y-85993700D01*
X148292841Y-85975589D01*
X148337128Y-85966780D01*
X148464611Y-85913975D01*
X148579342Y-85837314D01*
X148676914Y-85739742D01*
X148753575Y-85625011D01*
X148806380Y-85497528D01*
X148826959Y-85394071D01*
X148833300Y-85362195D01*
X148833300Y-85224204D01*
X148806381Y-85088877D01*
X148806380Y-85088876D01*
X148806380Y-85088872D01*
X148778629Y-85021875D01*
X148753578Y-84961395D01*
X148753571Y-84961382D01*
X148676914Y-84846658D01*
X148676911Y-84846654D01*
X148579345Y-84749088D01*
X148579341Y-84749085D01*
X148464617Y-84672428D01*
X148464604Y-84672421D01*
X148337132Y-84619621D01*
X148337122Y-84619618D01*
X148201795Y-84592700D01*
X148201793Y-84592700D01*
X148063807Y-84592700D01*
X148063805Y-84592700D01*
X147928477Y-84619618D01*
X147928467Y-84619621D01*
X147800995Y-84672421D01*
X147800982Y-84672428D01*
X147686258Y-84749085D01*
X147686254Y-84749088D01*
X147588688Y-84846654D01*
X147588685Y-84846658D01*
X147512028Y-84961382D01*
X147512021Y-84961395D01*
X147459221Y-85088867D01*
X147459218Y-85088877D01*
X147432300Y-85224204D01*
X147432300Y-85224207D01*
X147432300Y-85362193D01*
X147432300Y-85362195D01*
X147432299Y-85362195D01*
X142550500Y-85362195D01*
X142550500Y-85265931D01*
X142550499Y-85265928D01*
X142545801Y-85242308D01*
X142545801Y-85242307D01*
X142525502Y-85140261D01*
X142525501Y-85140260D01*
X142525501Y-85140256D01*
X142476465Y-85021873D01*
X142476464Y-85021872D01*
X142476461Y-85021866D01*
X142405276Y-84915331D01*
X142405273Y-84915327D01*
X142314672Y-84824726D01*
X142314668Y-84824723D01*
X142208133Y-84753538D01*
X142208124Y-84753533D01*
X142089744Y-84704499D01*
X142089738Y-84704497D01*
X141964071Y-84679500D01*
X141964069Y-84679500D01*
X141835931Y-84679500D01*
X141835929Y-84679500D01*
X141710261Y-84704497D01*
X141710255Y-84704499D01*
X141591875Y-84753533D01*
X141591866Y-84753538D01*
X141485331Y-84824723D01*
X141485327Y-84824726D01*
X141394726Y-84915327D01*
X141394723Y-84915331D01*
X141323538Y-85021866D01*
X141323533Y-85021875D01*
X141274499Y-85140255D01*
X141274497Y-85140261D01*
X141249500Y-85265928D01*
X141249500Y-85265929D01*
X141249500Y-85265931D01*
X141249500Y-85394069D01*
X141249500Y-85394071D01*
X141249499Y-85394071D01*
X122870500Y-85394071D01*
X122870500Y-81906530D01*
X161585896Y-81906530D01*
X161585896Y-82113469D01*
X161626264Y-82316412D01*
X161626266Y-82316420D01*
X161705454Y-82507596D01*
X161820420Y-82679657D01*
X161966738Y-82825975D01*
X161966741Y-82825977D01*
X162138798Y-82940941D01*
X162329976Y-83020130D01*
X162532926Y-83060499D01*
X162532930Y-83060500D01*
X162532931Y-83060500D01*
X162739862Y-83060500D01*
X162739863Y-83060499D01*
X162942816Y-83020130D01*
X163133994Y-82940941D01*
X163306051Y-82825977D01*
X163452373Y-82679655D01*
X163567337Y-82507598D01*
X163646526Y-82316420D01*
X163686896Y-82113465D01*
X163686896Y-81906535D01*
X163686895Y-81906530D01*
X164125896Y-81906530D01*
X164125896Y-82113469D01*
X164166264Y-82316412D01*
X164166266Y-82316420D01*
X164245454Y-82507596D01*
X164360420Y-82679657D01*
X164506738Y-82825975D01*
X164506741Y-82825977D01*
X164678798Y-82940941D01*
X164869976Y-83020130D01*
X165072926Y-83060499D01*
X165072930Y-83060500D01*
X165072931Y-83060500D01*
X165279862Y-83060500D01*
X165279863Y-83060499D01*
X165482816Y-83020130D01*
X165673994Y-82940941D01*
X165846051Y-82825977D01*
X165992373Y-82679655D01*
X166107337Y-82507598D01*
X166186526Y-82316420D01*
X166226896Y-82113465D01*
X166226896Y-81906535D01*
X166226895Y-81906530D01*
X166665896Y-81906530D01*
X166665896Y-82113469D01*
X166706264Y-82316412D01*
X166706266Y-82316420D01*
X166785454Y-82507596D01*
X166900420Y-82679657D01*
X167046738Y-82825975D01*
X167046741Y-82825977D01*
X167218798Y-82940941D01*
X167409976Y-83020130D01*
X167612926Y-83060499D01*
X167612930Y-83060500D01*
X167612931Y-83060500D01*
X167819862Y-83060500D01*
X167819863Y-83060499D01*
X168022816Y-83020130D01*
X168213994Y-82940941D01*
X168386051Y-82825977D01*
X168532373Y-82679655D01*
X168647337Y-82507598D01*
X168667835Y-82458112D01*
X168711675Y-82403708D01*
X168777969Y-82381643D01*
X168845669Y-82398922D01*
X168893280Y-82450059D01*
X168906396Y-82505564D01*
X168906396Y-82907844D01*
X168912797Y-82967372D01*
X168912799Y-82967379D01*
X168963041Y-83102086D01*
X168963045Y-83102093D01*
X169049205Y-83217187D01*
X169049208Y-83217190D01*
X169164302Y-83303350D01*
X169164309Y-83303354D01*
X169299016Y-83353596D01*
X169299023Y-83353598D01*
X169358551Y-83359999D01*
X169358568Y-83360000D01*
X170006396Y-83360000D01*
X170006396Y-82443012D01*
X170063403Y-82475925D01*
X170190570Y-82510000D01*
X170322222Y-82510000D01*
X170449389Y-82475925D01*
X170506396Y-82443012D01*
X170506396Y-83360000D01*
X171154224Y-83360000D01*
X171154240Y-83359999D01*
X171213768Y-83353598D01*
X171213775Y-83353596D01*
X171348482Y-83303354D01*
X171348489Y-83303350D01*
X171463583Y-83217190D01*
X171463586Y-83217187D01*
X171549746Y-83102093D01*
X171549750Y-83102086D01*
X171599992Y-82967379D01*
X171599994Y-82967372D01*
X171606395Y-82907844D01*
X171606396Y-82907827D01*
X171606396Y-82260000D01*
X170689408Y-82260000D01*
X170722321Y-82202993D01*
X170756396Y-82075826D01*
X170756396Y-81944174D01*
X170722321Y-81817007D01*
X170689408Y-81760000D01*
X171606396Y-81760000D01*
X171606396Y-81112172D01*
X171606395Y-81112155D01*
X171599994Y-81052627D01*
X171599992Y-81052620D01*
X171549750Y-80917913D01*
X171549746Y-80917906D01*
X171463586Y-80802812D01*
X171463583Y-80802809D01*
X171348489Y-80716649D01*
X171348482Y-80716645D01*
X171213775Y-80666403D01*
X171213768Y-80666401D01*
X171154240Y-80660000D01*
X170506396Y-80660000D01*
X170506396Y-81576988D01*
X170449389Y-81544075D01*
X170322222Y-81510000D01*
X170190570Y-81510000D01*
X170063403Y-81544075D01*
X170006396Y-81576988D01*
X170006396Y-80660000D01*
X169358551Y-80660000D01*
X169299023Y-80666401D01*
X169299016Y-80666403D01*
X169164309Y-80716645D01*
X169164302Y-80716649D01*
X169049208Y-80802809D01*
X169049205Y-80802812D01*
X168963045Y-80917906D01*
X168963041Y-80917913D01*
X168912799Y-81052620D01*
X168912797Y-81052627D01*
X168906396Y-81112155D01*
X168906396Y-81514435D01*
X168886711Y-81581474D01*
X168833907Y-81627229D01*
X168764749Y-81637173D01*
X168701193Y-81608148D01*
X168667835Y-81561888D01*
X168647337Y-81512403D01*
X168647337Y-81512402D01*
X168532373Y-81340345D01*
X168532371Y-81340342D01*
X168386053Y-81194024D01*
X168263526Y-81112155D01*
X168213994Y-81079059D01*
X168022816Y-80999870D01*
X168022808Y-80999868D01*
X167819865Y-80959500D01*
X167819861Y-80959500D01*
X167612931Y-80959500D01*
X167612926Y-80959500D01*
X167409983Y-80999868D01*
X167409975Y-80999870D01*
X167218799Y-81079058D01*
X167046738Y-81194024D01*
X166900420Y-81340342D01*
X166785454Y-81512403D01*
X166706266Y-81703579D01*
X166706264Y-81703587D01*
X166665896Y-81906530D01*
X166226895Y-81906530D01*
X166186526Y-81703580D01*
X166107337Y-81512402D01*
X165992373Y-81340345D01*
X165992371Y-81340342D01*
X165846053Y-81194024D01*
X165723526Y-81112155D01*
X165673994Y-81079059D01*
X165482816Y-80999870D01*
X165482808Y-80999868D01*
X165279865Y-80959500D01*
X165279861Y-80959500D01*
X165072931Y-80959500D01*
X165072926Y-80959500D01*
X164869983Y-80999868D01*
X164869975Y-80999870D01*
X164678799Y-81079058D01*
X164506738Y-81194024D01*
X164360420Y-81340342D01*
X164245454Y-81512403D01*
X164166266Y-81703579D01*
X164166264Y-81703587D01*
X164125896Y-81906530D01*
X163686895Y-81906530D01*
X163646526Y-81703580D01*
X163567337Y-81512402D01*
X163452373Y-81340345D01*
X163452371Y-81340342D01*
X163306053Y-81194024D01*
X163183526Y-81112155D01*
X163133994Y-81079059D01*
X162942816Y-80999870D01*
X162942808Y-80999868D01*
X162739865Y-80959500D01*
X162739861Y-80959500D01*
X162532931Y-80959500D01*
X162532926Y-80959500D01*
X162329983Y-80999868D01*
X162329975Y-80999870D01*
X162138799Y-81079058D01*
X161966738Y-81194024D01*
X161820420Y-81340342D01*
X161705454Y-81512403D01*
X161626266Y-81703579D01*
X161626264Y-81703587D01*
X161585896Y-81906530D01*
X122870500Y-81906530D01*
X122870500Y-80364071D01*
X141239499Y-80364071D01*
X141264497Y-80489738D01*
X141264499Y-80489744D01*
X141313533Y-80608124D01*
X141313538Y-80608133D01*
X141384723Y-80714668D01*
X141384726Y-80714672D01*
X141475327Y-80805273D01*
X141475331Y-80805276D01*
X141581866Y-80876461D01*
X141581872Y-80876464D01*
X141581873Y-80876465D01*
X141700256Y-80925501D01*
X141700260Y-80925501D01*
X141700261Y-80925502D01*
X141825928Y-80950500D01*
X141825931Y-80950500D01*
X141954071Y-80950500D01*
X142038615Y-80933682D01*
X142079744Y-80925501D01*
X142198127Y-80876465D01*
X142304669Y-80805276D01*
X142395276Y-80714669D01*
X142466465Y-80608127D01*
X142515501Y-80489744D01*
X142540500Y-80364069D01*
X142540500Y-80235931D01*
X142540500Y-80235928D01*
X142515502Y-80110261D01*
X142515501Y-80110260D01*
X142515501Y-80110256D01*
X142466465Y-79991873D01*
X142466464Y-79991872D01*
X142466461Y-79991866D01*
X142395276Y-79885331D01*
X142395273Y-79885327D01*
X142304672Y-79794726D01*
X142304668Y-79794723D01*
X142198133Y-79723538D01*
X142198124Y-79723533D01*
X142079744Y-79674499D01*
X142079738Y-79674497D01*
X141954071Y-79649500D01*
X141954069Y-79649500D01*
X141825931Y-79649500D01*
X141825929Y-79649500D01*
X141700261Y-79674497D01*
X141700255Y-79674499D01*
X141581875Y-79723533D01*
X141581866Y-79723538D01*
X141475331Y-79794723D01*
X141475327Y-79794726D01*
X141384726Y-79885327D01*
X141384723Y-79885331D01*
X141313538Y-79991866D01*
X141313533Y-79991875D01*
X141264499Y-80110255D01*
X141264497Y-80110261D01*
X141239500Y-80235928D01*
X141239500Y-80235931D01*
X141239500Y-80364069D01*
X141239500Y-80364071D01*
X141239499Y-80364071D01*
X122870500Y-80364071D01*
X122870500Y-78944071D01*
X136089499Y-78944071D01*
X136114497Y-79069738D01*
X136114499Y-79069744D01*
X136163533Y-79188124D01*
X136163538Y-79188133D01*
X136234723Y-79294668D01*
X136234726Y-79294672D01*
X136325327Y-79385273D01*
X136325331Y-79385276D01*
X136431866Y-79456461D01*
X136431872Y-79456464D01*
X136431873Y-79456465D01*
X136550256Y-79505501D01*
X136550260Y-79505501D01*
X136550261Y-79505502D01*
X136675928Y-79530500D01*
X136675931Y-79530500D01*
X136804071Y-79530500D01*
X136888615Y-79513682D01*
X136929744Y-79505501D01*
X137048127Y-79456465D01*
X137154669Y-79385276D01*
X137245276Y-79294669D01*
X137316465Y-79188127D01*
X137365501Y-79069744D01*
X137390500Y-78944069D01*
X137390500Y-78815931D01*
X137390500Y-78815928D01*
X137365502Y-78690261D01*
X137365501Y-78690260D01*
X137365501Y-78690256D01*
X137316465Y-78571873D01*
X137316464Y-78571872D01*
X137316461Y-78571866D01*
X137245276Y-78465331D01*
X137245273Y-78465327D01*
X137154672Y-78374726D01*
X137154668Y-78374723D01*
X137048133Y-78303538D01*
X137048124Y-78303533D01*
X136929744Y-78254499D01*
X136929738Y-78254497D01*
X136804071Y-78229500D01*
X136804069Y-78229500D01*
X136675931Y-78229500D01*
X136675929Y-78229500D01*
X136550261Y-78254497D01*
X136550255Y-78254499D01*
X136431875Y-78303533D01*
X136431866Y-78303538D01*
X136325331Y-78374723D01*
X136325327Y-78374726D01*
X136234726Y-78465327D01*
X136234723Y-78465331D01*
X136163538Y-78571866D01*
X136163533Y-78571875D01*
X136114499Y-78690255D01*
X136114497Y-78690261D01*
X136089500Y-78815928D01*
X136089500Y-78815931D01*
X136089500Y-78944069D01*
X136089500Y-78944071D01*
X136089499Y-78944071D01*
X122870500Y-78944071D01*
X122870500Y-75480595D01*
X127189501Y-75480595D01*
X127189501Y-75638709D01*
X127213036Y-75726541D01*
X127230424Y-75791435D01*
X127230427Y-75791442D01*
X127309476Y-75928361D01*
X127309480Y-75928366D01*
X127309481Y-75928368D01*
X127421285Y-76040172D01*
X127421287Y-76040173D01*
X127421291Y-76040176D01*
X127558210Y-76119225D01*
X127558217Y-76119229D01*
X127710944Y-76160152D01*
X127710946Y-76160152D01*
X127869056Y-76160152D01*
X127869058Y-76160152D01*
X128021785Y-76119229D01*
X128158717Y-76040172D01*
X128270521Y-75928368D01*
X128349578Y-75791436D01*
X128390501Y-75638709D01*
X128390501Y-75480595D01*
X128355239Y-75348995D01*
X140259499Y-75348995D01*
X140286418Y-75484322D01*
X140286421Y-75484332D01*
X140339221Y-75611804D01*
X140339228Y-75611817D01*
X140415885Y-75726541D01*
X140415888Y-75726545D01*
X140513454Y-75824111D01*
X140513458Y-75824114D01*
X140628182Y-75900771D01*
X140628195Y-75900778D01*
X140755667Y-75953578D01*
X140755672Y-75953580D01*
X140755676Y-75953580D01*
X140755677Y-75953581D01*
X140891004Y-75980500D01*
X140891007Y-75980500D01*
X141028995Y-75980500D01*
X141120041Y-75962389D01*
X141164328Y-75953580D01*
X141291811Y-75900775D01*
X141406542Y-75824114D01*
X141504114Y-75726542D01*
X141580775Y-75611811D01*
X141633580Y-75484328D01*
X141660500Y-75348995D01*
X165629499Y-75348995D01*
X165656418Y-75484322D01*
X165656421Y-75484332D01*
X165709221Y-75611804D01*
X165709228Y-75611817D01*
X165785885Y-75726541D01*
X165785888Y-75726545D01*
X165883454Y-75824111D01*
X165883458Y-75824114D01*
X165998182Y-75900771D01*
X165998195Y-75900778D01*
X166125667Y-75953578D01*
X166125672Y-75953580D01*
X166125676Y-75953580D01*
X166125677Y-75953581D01*
X166261004Y-75980500D01*
X166261007Y-75980500D01*
X166398995Y-75980500D01*
X166490041Y-75962389D01*
X166534328Y-75953580D01*
X166661811Y-75900775D01*
X166776542Y-75824114D01*
X166874114Y-75726542D01*
X166950775Y-75611811D01*
X167003580Y-75484328D01*
X167030500Y-75348995D01*
X170709499Y-75348995D01*
X170736418Y-75484322D01*
X170736421Y-75484332D01*
X170789221Y-75611804D01*
X170789228Y-75611817D01*
X170865885Y-75726541D01*
X170865888Y-75726545D01*
X170963454Y-75824111D01*
X170963458Y-75824114D01*
X171078182Y-75900771D01*
X171078195Y-75900778D01*
X171205667Y-75953578D01*
X171205672Y-75953580D01*
X171205676Y-75953580D01*
X171205677Y-75953581D01*
X171341004Y-75980500D01*
X171341007Y-75980500D01*
X171478995Y-75980500D01*
X171570041Y-75962389D01*
X171614328Y-75953580D01*
X171741811Y-75900775D01*
X171856542Y-75824114D01*
X171954114Y-75726542D01*
X172030775Y-75611811D01*
X172083580Y-75484328D01*
X172110500Y-75348993D01*
X172110500Y-75211007D01*
X172110500Y-75211004D01*
X172083581Y-75075677D01*
X172083580Y-75075676D01*
X172083580Y-75075672D01*
X172035316Y-74959152D01*
X172030778Y-74948195D01*
X172030771Y-74948182D01*
X171954114Y-74833458D01*
X171954111Y-74833454D01*
X171856545Y-74735888D01*
X171856541Y-74735885D01*
X171741817Y-74659228D01*
X171741804Y-74659221D01*
X171614332Y-74606421D01*
X171614322Y-74606418D01*
X171478995Y-74579500D01*
X171478993Y-74579500D01*
X171341007Y-74579500D01*
X171341005Y-74579500D01*
X171205677Y-74606418D01*
X171205667Y-74606421D01*
X171078195Y-74659221D01*
X171078182Y-74659228D01*
X170963458Y-74735885D01*
X170963454Y-74735888D01*
X170865888Y-74833454D01*
X170865885Y-74833458D01*
X170789228Y-74948182D01*
X170789221Y-74948195D01*
X170736421Y-75075667D01*
X170736418Y-75075677D01*
X170709500Y-75211004D01*
X170709500Y-75211007D01*
X170709500Y-75348993D01*
X170709500Y-75348995D01*
X170709499Y-75348995D01*
X167030500Y-75348995D01*
X167030500Y-75348993D01*
X167030500Y-75211007D01*
X167030500Y-75211004D01*
X167003581Y-75075677D01*
X167003580Y-75075676D01*
X167003580Y-75075672D01*
X166955316Y-74959152D01*
X166950778Y-74948195D01*
X166950771Y-74948182D01*
X166874114Y-74833458D01*
X166874111Y-74833454D01*
X166776545Y-74735888D01*
X166776541Y-74735885D01*
X166661817Y-74659228D01*
X166661804Y-74659221D01*
X166534332Y-74606421D01*
X166534322Y-74606418D01*
X166398995Y-74579500D01*
X166398993Y-74579500D01*
X166261007Y-74579500D01*
X166261005Y-74579500D01*
X166125677Y-74606418D01*
X166125667Y-74606421D01*
X165998195Y-74659221D01*
X165998182Y-74659228D01*
X165883458Y-74735885D01*
X165883454Y-74735888D01*
X165785888Y-74833454D01*
X165785885Y-74833458D01*
X165709228Y-74948182D01*
X165709221Y-74948195D01*
X165656421Y-75075667D01*
X165656418Y-75075677D01*
X165629500Y-75211004D01*
X165629500Y-75211007D01*
X165629500Y-75348993D01*
X165629500Y-75348995D01*
X165629499Y-75348995D01*
X141660500Y-75348995D01*
X141660500Y-75348993D01*
X141660500Y-75211007D01*
X141660500Y-75211004D01*
X141633581Y-75075677D01*
X141633580Y-75075676D01*
X141633580Y-75075672D01*
X141585316Y-74959152D01*
X141580778Y-74948195D01*
X141580771Y-74948182D01*
X141504114Y-74833458D01*
X141504111Y-74833454D01*
X141406545Y-74735888D01*
X141406541Y-74735885D01*
X141291817Y-74659228D01*
X141291804Y-74659221D01*
X141164332Y-74606421D01*
X141164322Y-74606418D01*
X141028995Y-74579500D01*
X141028993Y-74579500D01*
X140891007Y-74579500D01*
X140891005Y-74579500D01*
X140755677Y-74606418D01*
X140755667Y-74606421D01*
X140628195Y-74659221D01*
X140628182Y-74659228D01*
X140513458Y-74735885D01*
X140513454Y-74735888D01*
X140415888Y-74833454D01*
X140415885Y-74833458D01*
X140339228Y-74948182D01*
X140339221Y-74948195D01*
X140286421Y-75075667D01*
X140286418Y-75075677D01*
X140259500Y-75211004D01*
X140259500Y-75211007D01*
X140259500Y-75348993D01*
X140259500Y-75348995D01*
X140259499Y-75348995D01*
X128355239Y-75348995D01*
X128349578Y-75327868D01*
X128270521Y-75190936D01*
X128158717Y-75079132D01*
X128158715Y-75079131D01*
X128158710Y-75079127D01*
X128021791Y-75000078D01*
X128021787Y-75000076D01*
X128021785Y-75000075D01*
X127869058Y-74959152D01*
X127710944Y-74959152D01*
X127558217Y-75000075D01*
X127558210Y-75000078D01*
X127421291Y-75079127D01*
X127421283Y-75079133D01*
X127309482Y-75190934D01*
X127309476Y-75190942D01*
X127230427Y-75327861D01*
X127230424Y-75327868D01*
X127189501Y-75480595D01*
X122870500Y-75480595D01*
X122870500Y-71534071D01*
X133409499Y-71534071D01*
X133434497Y-71659738D01*
X133434499Y-71659744D01*
X133483533Y-71778124D01*
X133483538Y-71778133D01*
X133554723Y-71884668D01*
X133554726Y-71884672D01*
X133645327Y-71975273D01*
X133645331Y-71975276D01*
X133751866Y-72046461D01*
X133751872Y-72046464D01*
X133751873Y-72046465D01*
X133870256Y-72095501D01*
X133870260Y-72095501D01*
X133870261Y-72095502D01*
X133995928Y-72120500D01*
X133995931Y-72120500D01*
X134124071Y-72120500D01*
X134208615Y-72103682D01*
X134249744Y-72095501D01*
X134368127Y-72046465D01*
X134474669Y-71975276D01*
X134565276Y-71884669D01*
X134636465Y-71778127D01*
X134685501Y-71659744D01*
X134710500Y-71534069D01*
X134710500Y-71405931D01*
X134710500Y-71405928D01*
X134685502Y-71280261D01*
X134685501Y-71280260D01*
X134685501Y-71280256D01*
X134636465Y-71161873D01*
X134636464Y-71161872D01*
X134636461Y-71161866D01*
X134565276Y-71055331D01*
X134565273Y-71055327D01*
X134474672Y-70964726D01*
X134474668Y-70964723D01*
X134368133Y-70893538D01*
X134368124Y-70893533D01*
X134249744Y-70844499D01*
X134249738Y-70844497D01*
X134124071Y-70819500D01*
X134124069Y-70819500D01*
X133995931Y-70819500D01*
X133995929Y-70819500D01*
X133870261Y-70844497D01*
X133870255Y-70844499D01*
X133751875Y-70893533D01*
X133751866Y-70893538D01*
X133645331Y-70964723D01*
X133645327Y-70964726D01*
X133554726Y-71055327D01*
X133554723Y-71055331D01*
X133483538Y-71161866D01*
X133483533Y-71161875D01*
X133434499Y-71280255D01*
X133434497Y-71280261D01*
X133409500Y-71405928D01*
X133409500Y-71405931D01*
X133409500Y-71534069D01*
X133409500Y-71534071D01*
X133409499Y-71534071D01*
X122870500Y-71534071D01*
X122870500Y-68574000D01*
X122890185Y-68506961D01*
X122942989Y-68461206D01*
X122994500Y-68450000D01*
X167864737Y-68450000D01*
X167875252Y-68450447D01*
G37*
G04 #@! TD.AperFunction*
G04 #@! TA.AperFunction,Conductor*
G36*
X185650202Y-48450071D02*
G01*
X185829809Y-48456207D01*
X185834328Y-48456446D01*
X185939294Y-48463953D01*
X185943019Y-48464278D01*
X186345715Y-48505676D01*
X186350627Y-48506282D01*
X186451090Y-48520726D01*
X186454329Y-48521238D01*
X186857719Y-48590790D01*
X186862956Y-48591811D01*
X186955596Y-48611963D01*
X186958426Y-48612616D01*
X187363204Y-48711257D01*
X187368694Y-48712731D01*
X187449614Y-48736492D01*
X187452090Y-48737248D01*
X187859588Y-48866581D01*
X187865353Y-48868570D01*
X187929710Y-48892574D01*
X187931720Y-48893346D01*
X188096627Y-48958377D01*
X188344394Y-49056084D01*
X188350392Y-49058633D01*
X188391228Y-49077283D01*
X188392879Y-49078052D01*
X188706381Y-49227147D01*
X188815207Y-49278903D01*
X188821368Y-49282047D01*
X188827889Y-49285607D01*
X188829166Y-49286313D01*
X189242952Y-49518974D01*
X189262926Y-49530205D01*
X189270160Y-49534604D01*
X189691284Y-49810819D01*
X189698185Y-49815690D01*
X190099485Y-50120006D01*
X190106029Y-50125330D01*
X190485612Y-50456310D01*
X190491800Y-50462089D01*
X190847910Y-50818199D01*
X190853689Y-50824387D01*
X191184666Y-51203966D01*
X191190003Y-51210526D01*
X191494303Y-51611806D01*
X191499186Y-51618723D01*
X191775395Y-52039839D01*
X191779794Y-52047073D01*
X192023640Y-52480752D01*
X192024391Y-52482109D01*
X192027951Y-52488630D01*
X192031095Y-52494791D01*
X192231924Y-52917073D01*
X192232737Y-52918817D01*
X192251354Y-52959582D01*
X192253914Y-52965604D01*
X192416641Y-53378249D01*
X192417469Y-53380406D01*
X192441418Y-53444617D01*
X192443426Y-53450438D01*
X192572735Y-53857859D01*
X192573522Y-53860436D01*
X192597255Y-53941262D01*
X192598752Y-53946838D01*
X192697362Y-54351486D01*
X192698054Y-54354487D01*
X192718182Y-54447016D01*
X192719213Y-54452305D01*
X192788744Y-54855572D01*
X192789285Y-54858995D01*
X192803713Y-54959349D01*
X192804325Y-54964314D01*
X192845715Y-55366924D01*
X192846049Y-55370759D01*
X192853549Y-55475623D01*
X192853793Y-55480235D01*
X192869428Y-55937892D01*
X192869500Y-55942126D01*
X192869500Y-110937873D01*
X192869428Y-110942107D01*
X192853793Y-111399763D01*
X192853549Y-111404375D01*
X192846049Y-111509239D01*
X192845715Y-111513074D01*
X192804325Y-111915684D01*
X192803713Y-111920649D01*
X192789285Y-112021003D01*
X192788744Y-112024426D01*
X192719213Y-112427693D01*
X192718182Y-112432982D01*
X192698054Y-112525511D01*
X192697362Y-112528512D01*
X192598752Y-112933160D01*
X192597255Y-112938736D01*
X192573522Y-113019562D01*
X192572735Y-113022139D01*
X192443426Y-113429560D01*
X192441418Y-113435381D01*
X192417469Y-113499592D01*
X192416641Y-113501749D01*
X192253914Y-113914394D01*
X192251354Y-113920416D01*
X192232737Y-113961181D01*
X192231924Y-113962925D01*
X192031095Y-114385207D01*
X192027951Y-114391368D01*
X192024391Y-114397889D01*
X192023640Y-114399246D01*
X191779794Y-114832926D01*
X191775395Y-114840160D01*
X191499186Y-115261276D01*
X191494303Y-115268193D01*
X191190003Y-115669473D01*
X191184659Y-115676041D01*
X190853689Y-116055612D01*
X190847910Y-116061800D01*
X190491800Y-116417910D01*
X190485612Y-116423689D01*
X190106041Y-116754659D01*
X190099473Y-116760003D01*
X189698193Y-117064303D01*
X189691276Y-117069186D01*
X189270160Y-117345395D01*
X189262926Y-117349794D01*
X188829246Y-117593640D01*
X188827889Y-117594391D01*
X188821368Y-117597951D01*
X188815207Y-117601095D01*
X188392925Y-117801924D01*
X188391181Y-117802737D01*
X188350416Y-117821354D01*
X188344394Y-117823914D01*
X187931749Y-117986641D01*
X187929592Y-117987469D01*
X187865381Y-118011418D01*
X187859560Y-118013426D01*
X187452139Y-118142735D01*
X187449562Y-118143522D01*
X187368736Y-118167255D01*
X187363160Y-118168752D01*
X186958512Y-118267362D01*
X186955511Y-118268054D01*
X186862982Y-118288182D01*
X186857693Y-118289213D01*
X186454426Y-118358744D01*
X186451003Y-118359285D01*
X186350649Y-118373713D01*
X186345684Y-118374325D01*
X185943074Y-118415715D01*
X185939239Y-118416049D01*
X185834375Y-118423549D01*
X185829763Y-118423793D01*
X185372108Y-118439428D01*
X185367874Y-118439500D01*
X147199500Y-118439500D01*
X147132461Y-118419815D01*
X147086706Y-118367011D01*
X147075500Y-118315500D01*
X147075500Y-115943995D01*
X152979499Y-115943995D01*
X153006418Y-116079322D01*
X153006421Y-116079332D01*
X153059221Y-116206804D01*
X153059228Y-116206817D01*
X153135885Y-116321541D01*
X153135888Y-116321545D01*
X153233454Y-116419111D01*
X153233458Y-116419114D01*
X153348182Y-116495771D01*
X153348195Y-116495778D01*
X153475667Y-116548578D01*
X153475672Y-116548580D01*
X153475676Y-116548580D01*
X153475677Y-116548581D01*
X153611004Y-116575500D01*
X153611007Y-116575500D01*
X153748995Y-116575500D01*
X153840041Y-116557389D01*
X153884328Y-116548580D01*
X154011811Y-116495775D01*
X154126542Y-116419114D01*
X154224114Y-116321542D01*
X154300775Y-116206811D01*
X154353580Y-116079328D01*
X154380500Y-115943995D01*
X161619499Y-115943995D01*
X161646418Y-116079322D01*
X161646421Y-116079332D01*
X161699221Y-116206804D01*
X161699228Y-116206817D01*
X161775885Y-116321541D01*
X161775888Y-116321545D01*
X161873454Y-116419111D01*
X161873458Y-116419114D01*
X161988182Y-116495771D01*
X161988195Y-116495778D01*
X162115667Y-116548578D01*
X162115672Y-116548580D01*
X162115676Y-116548580D01*
X162115677Y-116548581D01*
X162251004Y-116575500D01*
X162251007Y-116575500D01*
X162388995Y-116575500D01*
X162480041Y-116557389D01*
X162524328Y-116548580D01*
X162651811Y-116495775D01*
X162766542Y-116419114D01*
X162864114Y-116321542D01*
X162940775Y-116206811D01*
X162993580Y-116079328D01*
X163020500Y-115943993D01*
X163020500Y-115206007D01*
X163020500Y-115206004D01*
X162993581Y-115070677D01*
X162993580Y-115070676D01*
X162993580Y-115070672D01*
X162942326Y-114946933D01*
X162940778Y-114943195D01*
X162940771Y-114943182D01*
X162864114Y-114828458D01*
X162864111Y-114828454D01*
X162766545Y-114730888D01*
X162766541Y-114730885D01*
X162651817Y-114654228D01*
X162651804Y-114654221D01*
X162524332Y-114601421D01*
X162524322Y-114601418D01*
X162388995Y-114574500D01*
X162388993Y-114574500D01*
X162251007Y-114574500D01*
X162251005Y-114574500D01*
X162115677Y-114601418D01*
X162115667Y-114601421D01*
X161988195Y-114654221D01*
X161988182Y-114654228D01*
X161873458Y-114730885D01*
X161873454Y-114730888D01*
X161775888Y-114828454D01*
X161775885Y-114828458D01*
X161699228Y-114943182D01*
X161699221Y-114943195D01*
X161646421Y-115070667D01*
X161646418Y-115070677D01*
X161619500Y-115206004D01*
X161619500Y-115206007D01*
X161619500Y-115943993D01*
X161619500Y-115943995D01*
X161619499Y-115943995D01*
X154380500Y-115943995D01*
X154380500Y-115943993D01*
X154380500Y-115206007D01*
X154380500Y-115206004D01*
X154353581Y-115070677D01*
X154353580Y-115070676D01*
X154353580Y-115070672D01*
X154302326Y-114946933D01*
X154300778Y-114943195D01*
X154300771Y-114943182D01*
X154224114Y-114828458D01*
X154224111Y-114828454D01*
X154126545Y-114730888D01*
X154126541Y-114730885D01*
X154011817Y-114654228D01*
X154011804Y-114654221D01*
X153884332Y-114601421D01*
X153884322Y-114601418D01*
X153748995Y-114574500D01*
X153748993Y-114574500D01*
X153611007Y-114574500D01*
X153611005Y-114574500D01*
X153475677Y-114601418D01*
X153475667Y-114601421D01*
X153348195Y-114654221D01*
X153348182Y-114654228D01*
X153233458Y-114730885D01*
X153233454Y-114730888D01*
X153135888Y-114828454D01*
X153135885Y-114828458D01*
X153059228Y-114943182D01*
X153059221Y-114943195D01*
X153006421Y-115070667D01*
X153006418Y-115070677D01*
X152979500Y-115206004D01*
X152979500Y-115206007D01*
X152979500Y-115943993D01*
X152979500Y-115943995D01*
X152979499Y-115943995D01*
X147075500Y-115943995D01*
X147075500Y-112013995D01*
X152979499Y-112013995D01*
X153006418Y-112149322D01*
X153006421Y-112149332D01*
X153059221Y-112276804D01*
X153059228Y-112276817D01*
X153135885Y-112391541D01*
X153135888Y-112391545D01*
X153233454Y-112489111D01*
X153233458Y-112489114D01*
X153348182Y-112565771D01*
X153348195Y-112565778D01*
X153475667Y-112618578D01*
X153475672Y-112618580D01*
X153475676Y-112618580D01*
X153475677Y-112618581D01*
X153611004Y-112645500D01*
X153611007Y-112645500D01*
X153748995Y-112645500D01*
X153840041Y-112627389D01*
X153884328Y-112618580D01*
X153984516Y-112577081D01*
X154011804Y-112565778D01*
X154011804Y-112565777D01*
X154011811Y-112565775D01*
X154126542Y-112489114D01*
X154224114Y-112391542D01*
X154300775Y-112276811D01*
X154331699Y-112202153D01*
X154375538Y-112147752D01*
X154441832Y-112125686D01*
X154509531Y-112142964D01*
X154551449Y-112186792D01*
X154552304Y-112186221D01*
X154555552Y-112191082D01*
X154555613Y-112191146D01*
X154555685Y-112191282D01*
X154624141Y-112293732D01*
X154624144Y-112293736D01*
X154711263Y-112380855D01*
X154711267Y-112380858D01*
X154813707Y-112449307D01*
X154813713Y-112449310D01*
X154813714Y-112449311D01*
X154927548Y-112496463D01*
X155048389Y-112520499D01*
X155048393Y-112520500D01*
X155048394Y-112520500D01*
X155171607Y-112520500D01*
X155171608Y-112520499D01*
X155292452Y-112496463D01*
X155406286Y-112449311D01*
X155508733Y-112380858D01*
X155595858Y-112293733D01*
X155664311Y-112191286D01*
X155711463Y-112077452D01*
X155735500Y-111956606D01*
X155735500Y-111833394D01*
X155735499Y-111833389D01*
X160264500Y-111833389D01*
X160264500Y-111956610D01*
X160288535Y-112077444D01*
X160288538Y-112077454D01*
X160335687Y-112191283D01*
X160335692Y-112191292D01*
X160404141Y-112293732D01*
X160404144Y-112293736D01*
X160491263Y-112380855D01*
X160491267Y-112380858D01*
X160593707Y-112449307D01*
X160593713Y-112449310D01*
X160593714Y-112449311D01*
X160707548Y-112496463D01*
X160828389Y-112520499D01*
X160828393Y-112520500D01*
X160828394Y-112520500D01*
X160951607Y-112520500D01*
X160951608Y-112520499D01*
X161072452Y-112496463D01*
X161186286Y-112449311D01*
X161288733Y-112380858D01*
X161375858Y-112293733D01*
X161444311Y-112191286D01*
X161444312Y-112191282D01*
X161444378Y-112191161D01*
X161444431Y-112191106D01*
X161447696Y-112186221D01*
X161448622Y-112186839D01*
X161493337Y-112141314D01*
X161561473Y-112125848D01*
X161627155Y-112149676D01*
X161668301Y-112202154D01*
X161699223Y-112276808D01*
X161699228Y-112276817D01*
X161775885Y-112391541D01*
X161775888Y-112391545D01*
X161873454Y-112489111D01*
X161873458Y-112489114D01*
X161988182Y-112565771D01*
X161988195Y-112565778D01*
X162115667Y-112618578D01*
X162115672Y-112618580D01*
X162115676Y-112618580D01*
X162115677Y-112618581D01*
X162251004Y-112645500D01*
X162251007Y-112645500D01*
X162388995Y-112645500D01*
X162480041Y-112627389D01*
X162524328Y-112618580D01*
X162624516Y-112577081D01*
X162651804Y-112565778D01*
X162651804Y-112565777D01*
X162651811Y-112565775D01*
X162766542Y-112489114D01*
X162864114Y-112391542D01*
X162940775Y-112276811D01*
X162993580Y-112149328D01*
X163020500Y-112013993D01*
X163020500Y-111655730D01*
X171639500Y-111655730D01*
X171639500Y-113264269D01*
X171642353Y-113294699D01*
X171642353Y-113294701D01*
X171687206Y-113422880D01*
X171687207Y-113422882D01*
X171767850Y-113532150D01*
X171877118Y-113612793D01*
X171898089Y-113620131D01*
X172005299Y-113657646D01*
X172035730Y-113660500D01*
X172035734Y-113660500D01*
X173344270Y-113660500D01*
X173374699Y-113657646D01*
X173374701Y-113657646D01*
X173438790Y-113635219D01*
X173502882Y-113612793D01*
X173612150Y-113532150D01*
X173692793Y-113422882D01*
X173715219Y-113358790D01*
X173737646Y-113294701D01*
X173737646Y-113294699D01*
X173740500Y-113264269D01*
X173740500Y-112206530D01*
X174139500Y-112206530D01*
X174139500Y-112713469D01*
X174179868Y-112916412D01*
X174179870Y-112916420D01*
X174259058Y-113107596D01*
X174374024Y-113279657D01*
X174520342Y-113425975D01*
X174520345Y-113425977D01*
X174692402Y-113540941D01*
X174883580Y-113620130D01*
X175072187Y-113657646D01*
X175086530Y-113660499D01*
X175086534Y-113660500D01*
X175086535Y-113660500D01*
X175293466Y-113660500D01*
X175293467Y-113660499D01*
X175496420Y-113620130D01*
X175687598Y-113540941D01*
X175859655Y-113425977D01*
X176005977Y-113279655D01*
X176120941Y-113107598D01*
X176200130Y-112916420D01*
X176240500Y-112713465D01*
X176240500Y-112206535D01*
X176200130Y-112003580D01*
X176120941Y-111812402D01*
X176005977Y-111640345D01*
X176005975Y-111640342D01*
X175859657Y-111494024D01*
X175741659Y-111415181D01*
X175687598Y-111379059D01*
X175594972Y-111340692D01*
X175496420Y-111299870D01*
X175496412Y-111299868D01*
X175293469Y-111259500D01*
X175293465Y-111259500D01*
X175086535Y-111259500D01*
X175086530Y-111259500D01*
X174883587Y-111299868D01*
X174883579Y-111299870D01*
X174692403Y-111379058D01*
X174520342Y-111494024D01*
X174374024Y-111640342D01*
X174259058Y-111812403D01*
X174179870Y-112003579D01*
X174179868Y-112003587D01*
X174139500Y-112206530D01*
X173740500Y-112206530D01*
X173740500Y-111655730D01*
X173737646Y-111625300D01*
X173737646Y-111625298D01*
X173701157Y-111521020D01*
X173692793Y-111497118D01*
X173612150Y-111387850D01*
X173502882Y-111307207D01*
X173502880Y-111307206D01*
X173374700Y-111262353D01*
X173344270Y-111259500D01*
X173344266Y-111259500D01*
X172035734Y-111259500D01*
X172035730Y-111259500D01*
X172005300Y-111262353D01*
X172005298Y-111262353D01*
X171877119Y-111307206D01*
X171877117Y-111307207D01*
X171767850Y-111387850D01*
X171687207Y-111497117D01*
X171687206Y-111497119D01*
X171642353Y-111625298D01*
X171642353Y-111625300D01*
X171639500Y-111655730D01*
X163020500Y-111655730D01*
X163020500Y-110949997D01*
X182120000Y-110949997D01*
X182120000Y-110950002D01*
X182139051Y-111301384D01*
X182195984Y-111648659D01*
X182195986Y-111648667D01*
X182290123Y-111987719D01*
X182290125Y-111987726D01*
X182420375Y-112314630D01*
X182420384Y-112314648D01*
X182585214Y-112625550D01*
X182782697Y-112916815D01*
X182944749Y-113107598D01*
X183010515Y-113185023D01*
X183265995Y-113427027D01*
X183266002Y-113427032D01*
X183266004Y-113427034D01*
X183298097Y-113451430D01*
X183546142Y-113639989D01*
X183546150Y-113639994D01*
X183546162Y-113640002D01*
X183847668Y-113821411D01*
X183847673Y-113821414D01*
X183847677Y-113821415D01*
X183847681Y-113821418D01*
X184048646Y-113914394D01*
X184167051Y-113969174D01*
X184500533Y-114081537D01*
X184844209Y-114157186D01*
X185194049Y-114195234D01*
X185194054Y-114195234D01*
X185545946Y-114195234D01*
X185545951Y-114195234D01*
X185895791Y-114157186D01*
X186239467Y-114081537D01*
X186572949Y-113969174D01*
X186892327Y-113821414D01*
X187105429Y-113693195D01*
X187193837Y-113640002D01*
X187193841Y-113639999D01*
X187193858Y-113639989D01*
X187474005Y-113427027D01*
X187729485Y-113185023D01*
X187957302Y-112916816D01*
X188154786Y-112625550D01*
X188319620Y-112314640D01*
X188449873Y-111987730D01*
X188544017Y-111648654D01*
X188600948Y-111301387D01*
X188620000Y-110950000D01*
X188619761Y-110945601D01*
X188600948Y-110598615D01*
X188600948Y-110598613D01*
X188544017Y-110251346D01*
X188496325Y-110079576D01*
X188449876Y-109912280D01*
X188449874Y-109912273D01*
X188440488Y-109888717D01*
X188385932Y-109751790D01*
X188319624Y-109585369D01*
X188319615Y-109585351D01*
X188261612Y-109475945D01*
X188154786Y-109274450D01*
X187957302Y-108983184D01*
X187729485Y-108714977D01*
X187474005Y-108472973D01*
X187473998Y-108472967D01*
X187473995Y-108472965D01*
X187285269Y-108329500D01*
X187193858Y-108260011D01*
X187193852Y-108260007D01*
X187193837Y-108259997D01*
X186892331Y-108078588D01*
X186892318Y-108078581D01*
X186572959Y-107930830D01*
X186572954Y-107930828D01*
X186572949Y-107930826D01*
X186410219Y-107875996D01*
X186239466Y-107818462D01*
X185895789Y-107742813D01*
X185545952Y-107704766D01*
X185545951Y-107704766D01*
X185194049Y-107704766D01*
X185194047Y-107704766D01*
X184844210Y-107742813D01*
X184500533Y-107818462D01*
X184242745Y-107905321D01*
X184167051Y-107930826D01*
X184167048Y-107930827D01*
X184167040Y-107930830D01*
X183847681Y-108078581D01*
X183847668Y-108078588D01*
X183546162Y-108259997D01*
X183546146Y-108260008D01*
X183266004Y-108472965D01*
X183265995Y-108472973D01*
X183010512Y-108714979D01*
X183010507Y-108714985D01*
X182782697Y-108983184D01*
X182585214Y-109274449D01*
X182420384Y-109585351D01*
X182420375Y-109585369D01*
X182290125Y-109912273D01*
X182290123Y-109912280D01*
X182195986Y-110251332D01*
X182195984Y-110251340D01*
X182139051Y-110598615D01*
X182120000Y-110949997D01*
X163020500Y-110949997D01*
X163020500Y-110776007D01*
X163020500Y-110776004D01*
X162993581Y-110640677D01*
X162993580Y-110640676D01*
X162993580Y-110640672D01*
X162993578Y-110640667D01*
X162940778Y-110513195D01*
X162940771Y-110513182D01*
X162864114Y-110398458D01*
X162864111Y-110398454D01*
X162766545Y-110300888D01*
X162766541Y-110300885D01*
X162651817Y-110224228D01*
X162651804Y-110224221D01*
X162524332Y-110171421D01*
X162524322Y-110171418D01*
X162388995Y-110144500D01*
X162388993Y-110144500D01*
X162251007Y-110144500D01*
X162251005Y-110144500D01*
X162115677Y-110171418D01*
X162115667Y-110171421D01*
X161988195Y-110224221D01*
X161988182Y-110224228D01*
X161873458Y-110300885D01*
X161873454Y-110300888D01*
X161775888Y-110398454D01*
X161775885Y-110398458D01*
X161699228Y-110513182D01*
X161699221Y-110513195D01*
X161646421Y-110640667D01*
X161646418Y-110640677D01*
X161619500Y-110776004D01*
X161619500Y-111452129D01*
X161599815Y-111519168D01*
X161547011Y-111564923D01*
X161477853Y-111574867D01*
X161414297Y-111545842D01*
X161392398Y-111521020D01*
X161375858Y-111496267D01*
X161375855Y-111496263D01*
X161288736Y-111409144D01*
X161288732Y-111409141D01*
X161186292Y-111340692D01*
X161186283Y-111340687D01*
X161072454Y-111293538D01*
X161072455Y-111293538D01*
X161072452Y-111293537D01*
X161072448Y-111293536D01*
X161072444Y-111293535D01*
X160951610Y-111269500D01*
X160951606Y-111269500D01*
X160828394Y-111269500D01*
X160828389Y-111269500D01*
X160707555Y-111293535D01*
X160707545Y-111293538D01*
X160593716Y-111340687D01*
X160593707Y-111340692D01*
X160491267Y-111409141D01*
X160491263Y-111409144D01*
X160404144Y-111496263D01*
X160404141Y-111496267D01*
X160335692Y-111598707D01*
X160335687Y-111598716D01*
X160288538Y-111712545D01*
X160288535Y-111712555D01*
X160264500Y-111833389D01*
X155735499Y-111833389D01*
X155711463Y-111712548D01*
X155664311Y-111598714D01*
X155664310Y-111598713D01*
X155664307Y-111598707D01*
X155595858Y-111496267D01*
X155595855Y-111496263D01*
X155508736Y-111409144D01*
X155508732Y-111409141D01*
X155406292Y-111340692D01*
X155406283Y-111340687D01*
X155292454Y-111293538D01*
X155292455Y-111293538D01*
X155292452Y-111293537D01*
X155292448Y-111293536D01*
X155292444Y-111293535D01*
X155171610Y-111269500D01*
X155171606Y-111269500D01*
X155048394Y-111269500D01*
X155048389Y-111269500D01*
X154927555Y-111293535D01*
X154927545Y-111293538D01*
X154813716Y-111340687D01*
X154813707Y-111340692D01*
X154711267Y-111409141D01*
X154711263Y-111409144D01*
X154624144Y-111496263D01*
X154624141Y-111496267D01*
X154607602Y-111521020D01*
X154553989Y-111565825D01*
X154484664Y-111574532D01*
X154421637Y-111544377D01*
X154384918Y-111484934D01*
X154380500Y-111452129D01*
X154380500Y-110776004D01*
X154353581Y-110640677D01*
X154353580Y-110640676D01*
X154353580Y-110640672D01*
X154353578Y-110640667D01*
X154300778Y-110513195D01*
X154300771Y-110513182D01*
X154224114Y-110398458D01*
X154224111Y-110398454D01*
X154126545Y-110300888D01*
X154126541Y-110300885D01*
X154011817Y-110224228D01*
X154011804Y-110224221D01*
X153884332Y-110171421D01*
X153884322Y-110171418D01*
X153748995Y-110144500D01*
X153748993Y-110144500D01*
X153611007Y-110144500D01*
X153611005Y-110144500D01*
X153475677Y-110171418D01*
X153475667Y-110171421D01*
X153348195Y-110224221D01*
X153348182Y-110224228D01*
X153233458Y-110300885D01*
X153233454Y-110300888D01*
X153135888Y-110398454D01*
X153135885Y-110398458D01*
X153059228Y-110513182D01*
X153059221Y-110513195D01*
X153006421Y-110640667D01*
X153006418Y-110640677D01*
X152979500Y-110776004D01*
X152979500Y-110776007D01*
X152979500Y-112013993D01*
X152979500Y-112013995D01*
X152979499Y-112013995D01*
X147075500Y-112013995D01*
X147075500Y-109475943D01*
X150659500Y-109475943D01*
X150659500Y-109634057D01*
X150691047Y-109751790D01*
X150700423Y-109786783D01*
X150700426Y-109786790D01*
X150779475Y-109923709D01*
X150779479Y-109923714D01*
X150779480Y-109923716D01*
X150891284Y-110035520D01*
X150891286Y-110035521D01*
X150891290Y-110035524D01*
X151028209Y-110114573D01*
X151028216Y-110114577D01*
X151180943Y-110155500D01*
X151180945Y-110155500D01*
X151339055Y-110155500D01*
X151339057Y-110155500D01*
X151491784Y-110114577D01*
X151628716Y-110035520D01*
X151740520Y-109923716D01*
X151819577Y-109786784D01*
X151860500Y-109634057D01*
X151860500Y-109475943D01*
X151851122Y-109440943D01*
X164174500Y-109440943D01*
X164174500Y-109599056D01*
X164215423Y-109751783D01*
X164215426Y-109751790D01*
X164294475Y-109888709D01*
X164294479Y-109888714D01*
X164294480Y-109888716D01*
X164406284Y-110000520D01*
X164406286Y-110000521D01*
X164406290Y-110000524D01*
X164466906Y-110035520D01*
X164543216Y-110079577D01*
X164695943Y-110120500D01*
X164695945Y-110120500D01*
X164854055Y-110120500D01*
X164854057Y-110120500D01*
X165006784Y-110079577D01*
X165143716Y-110000520D01*
X165255520Y-109888716D01*
X165334577Y-109751784D01*
X165375500Y-109599057D01*
X165375500Y-109440943D01*
X165334577Y-109288216D01*
X165275726Y-109186282D01*
X165255524Y-109151290D01*
X165255518Y-109151282D01*
X165143717Y-109039481D01*
X165143709Y-109039475D01*
X165006790Y-108960426D01*
X165006786Y-108960424D01*
X165006784Y-108960423D01*
X164854057Y-108919500D01*
X164695943Y-108919500D01*
X164543216Y-108960423D01*
X164543209Y-108960426D01*
X164406290Y-109039475D01*
X164406282Y-109039481D01*
X164294481Y-109151282D01*
X164294475Y-109151290D01*
X164215426Y-109288209D01*
X164215423Y-109288216D01*
X164174500Y-109440943D01*
X151851122Y-109440943D01*
X151819577Y-109323216D01*
X151791422Y-109274449D01*
X151740524Y-109186290D01*
X151740518Y-109186282D01*
X151628717Y-109074481D01*
X151628709Y-109074475D01*
X151491790Y-108995426D01*
X151491786Y-108995424D01*
X151491784Y-108995423D01*
X151339057Y-108954500D01*
X151180943Y-108954500D01*
X151028216Y-108995423D01*
X151028209Y-108995426D01*
X150891290Y-109074475D01*
X150891282Y-109074481D01*
X150779481Y-109186282D01*
X150779475Y-109186290D01*
X150700426Y-109323209D01*
X150700423Y-109323216D01*
X150659500Y-109475943D01*
X147075500Y-109475943D01*
X147075500Y-108329500D01*
X147095185Y-108262461D01*
X147147989Y-108216706D01*
X147199500Y-108205500D01*
X155267329Y-108205500D01*
X155267335Y-108205500D01*
X155307427Y-108201551D01*
X155354879Y-108192112D01*
X155386945Y-108182384D01*
X155398729Y-108179431D01*
X155534723Y-108152381D01*
X155558906Y-108150000D01*
X155691089Y-108150000D01*
X155715278Y-108152381D01*
X155851266Y-108179430D01*
X155863057Y-108182384D01*
X155895121Y-108192112D01*
X155942573Y-108201551D01*
X155982665Y-108205500D01*
X155982671Y-108205500D01*
X160067329Y-108205500D01*
X160067335Y-108205500D01*
X160107427Y-108201551D01*
X160154879Y-108192112D01*
X160186945Y-108182384D01*
X160198729Y-108179431D01*
X160334723Y-108152381D01*
X160358906Y-108150000D01*
X160491089Y-108150000D01*
X160515278Y-108152381D01*
X160651266Y-108179430D01*
X160663057Y-108182384D01*
X160695121Y-108192112D01*
X160742573Y-108201551D01*
X160782665Y-108205500D01*
X160782671Y-108205500D01*
X172745991Y-108205500D01*
X172746000Y-108205500D01*
X172789684Y-108200803D01*
X172818875Y-108194452D01*
X172841174Y-108189602D01*
X172841190Y-108189598D01*
X172841195Y-108189597D01*
X172851373Y-108187110D01*
X172932085Y-108144100D01*
X172984889Y-108098345D01*
X173002843Y-108080754D01*
X173047490Y-108000937D01*
X173067175Y-107933898D01*
X173075500Y-107876000D01*
X173075500Y-101302928D01*
X173095185Y-101235889D01*
X173147989Y-101190134D01*
X173175300Y-101181313D01*
X173233497Y-101169737D01*
X173379179Y-101109394D01*
X173510289Y-101021789D01*
X173621789Y-100910289D01*
X173709394Y-100779179D01*
X173769737Y-100633497D01*
X173800500Y-100478842D01*
X173800500Y-100321158D01*
X173800500Y-100321155D01*
X173800499Y-100321153D01*
X173769738Y-100166510D01*
X173769737Y-100166503D01*
X173769735Y-100166498D01*
X173709397Y-100020827D01*
X173709390Y-100020814D01*
X173621789Y-99889711D01*
X173621786Y-99889707D01*
X173510292Y-99778213D01*
X173510288Y-99778210D01*
X173379185Y-99690609D01*
X173379172Y-99690602D01*
X173233501Y-99630264D01*
X173233491Y-99630261D01*
X173175308Y-99618688D01*
X173113398Y-99586303D01*
X173078823Y-99525587D01*
X173075500Y-99497071D01*
X173075500Y-98420943D01*
X184199500Y-98420943D01*
X184199500Y-98579056D01*
X184240423Y-98731783D01*
X184240426Y-98731790D01*
X184319475Y-98868709D01*
X184319479Y-98868714D01*
X184319480Y-98868716D01*
X184431284Y-98980520D01*
X184431286Y-98980521D01*
X184431290Y-98980524D01*
X184568209Y-99059573D01*
X184568216Y-99059577D01*
X184720943Y-99100500D01*
X184720945Y-99100500D01*
X184879055Y-99100500D01*
X184879057Y-99100500D01*
X185031784Y-99059577D01*
X185168716Y-98980520D01*
X185280520Y-98868716D01*
X185359577Y-98731784D01*
X185400500Y-98579057D01*
X185400500Y-98420943D01*
X185359577Y-98268216D01*
X185359573Y-98268209D01*
X185280524Y-98131290D01*
X185280518Y-98131282D01*
X185168717Y-98019481D01*
X185168709Y-98019475D01*
X185031790Y-97940426D01*
X185031786Y-97940424D01*
X185031784Y-97940423D01*
X184879057Y-97899500D01*
X184720943Y-97899500D01*
X184568216Y-97940423D01*
X184568209Y-97940426D01*
X184431290Y-98019475D01*
X184431282Y-98019481D01*
X184319481Y-98131282D01*
X184319475Y-98131290D01*
X184240426Y-98268209D01*
X184240423Y-98268216D01*
X184199500Y-98420943D01*
X173075500Y-98420943D01*
X173075500Y-94276132D01*
X176978399Y-94276132D01*
X176978399Y-94483071D01*
X177018767Y-94686014D01*
X177018769Y-94686022D01*
X177097957Y-94877198D01*
X177212923Y-95049259D01*
X177359241Y-95195577D01*
X177359244Y-95195579D01*
X177531301Y-95310543D01*
X177722479Y-95389732D01*
X177925429Y-95430101D01*
X177925433Y-95430102D01*
X177925434Y-95430102D01*
X178432365Y-95430102D01*
X178432366Y-95430101D01*
X178635319Y-95389732D01*
X178826497Y-95310543D01*
X178998554Y-95195579D01*
X179144876Y-95049257D01*
X179259840Y-94877200D01*
X179339029Y-94686022D01*
X179379399Y-94483067D01*
X179379399Y-94276137D01*
X179339029Y-94073182D01*
X179259840Y-93882004D01*
X179144876Y-93709947D01*
X179144874Y-93709944D01*
X178998556Y-93563626D01*
X178912525Y-93506143D01*
X178826497Y-93448661D01*
X178635319Y-93369472D01*
X178635311Y-93369470D01*
X178432368Y-93329102D01*
X178432364Y-93329102D01*
X177925434Y-93329102D01*
X177925429Y-93329102D01*
X177722486Y-93369470D01*
X177722478Y-93369472D01*
X177531302Y-93448660D01*
X177359241Y-93563626D01*
X177212923Y-93709944D01*
X177097957Y-93882005D01*
X177018769Y-94073181D01*
X177018767Y-94073189D01*
X176978399Y-94276132D01*
X173075500Y-94276132D01*
X173075500Y-91225332D01*
X176978399Y-91225332D01*
X176978399Y-92533871D01*
X176981252Y-92564301D01*
X176981252Y-92564303D01*
X177026105Y-92692482D01*
X177026106Y-92692484D01*
X177106749Y-92801752D01*
X177216017Y-92882395D01*
X177258744Y-92897346D01*
X177344198Y-92927248D01*
X177374629Y-92930102D01*
X177374633Y-92930102D01*
X178983169Y-92930102D01*
X179013598Y-92927248D01*
X179013600Y-92927248D01*
X179077689Y-92904821D01*
X179141781Y-92882395D01*
X179251049Y-92801752D01*
X179331692Y-92692484D01*
X179354118Y-92628392D01*
X179376545Y-92564303D01*
X179376545Y-92564301D01*
X179379399Y-92533871D01*
X179379399Y-91225332D01*
X179376545Y-91194902D01*
X179376545Y-91194900D01*
X179331692Y-91066721D01*
X179331691Y-91066719D01*
X179251049Y-90957452D01*
X179141781Y-90876809D01*
X179141779Y-90876808D01*
X179013599Y-90831955D01*
X178983169Y-90829102D01*
X178983165Y-90829102D01*
X177374633Y-90829102D01*
X177374629Y-90829102D01*
X177344199Y-90831955D01*
X177344197Y-90831955D01*
X177216018Y-90876808D01*
X177216016Y-90876809D01*
X177106749Y-90957452D01*
X177026106Y-91066719D01*
X177026105Y-91066721D01*
X176981252Y-91194900D01*
X176981252Y-91194902D01*
X176978399Y-91225332D01*
X173075500Y-91225332D01*
X173075500Y-87821153D01*
X177599500Y-87821153D01*
X177599500Y-87978846D01*
X177630261Y-88133489D01*
X177630264Y-88133501D01*
X177690602Y-88279172D01*
X177690609Y-88279185D01*
X177778210Y-88410288D01*
X177778213Y-88410292D01*
X177889707Y-88521786D01*
X177889711Y-88521789D01*
X178020814Y-88609390D01*
X178020827Y-88609397D01*
X178166498Y-88669735D01*
X178166503Y-88669737D01*
X178321153Y-88700499D01*
X178321156Y-88700500D01*
X178321158Y-88700500D01*
X178478844Y-88700500D01*
X178478845Y-88700499D01*
X178633497Y-88669737D01*
X178779179Y-88609394D01*
X178910289Y-88521789D01*
X179021789Y-88410289D01*
X179109394Y-88279179D01*
X179169737Y-88133497D01*
X179200500Y-87978842D01*
X179200500Y-87821158D01*
X179200500Y-87821155D01*
X179200499Y-87821153D01*
X179169738Y-87666510D01*
X179169737Y-87666503D01*
X179169735Y-87666498D01*
X179109397Y-87520827D01*
X179109390Y-87520814D01*
X179021789Y-87389711D01*
X179021786Y-87389707D01*
X178910292Y-87278213D01*
X178910288Y-87278210D01*
X178779185Y-87190609D01*
X178779172Y-87190602D01*
X178633501Y-87130264D01*
X178633489Y-87130261D01*
X178478845Y-87099500D01*
X178478842Y-87099500D01*
X178321158Y-87099500D01*
X178321155Y-87099500D01*
X178166510Y-87130261D01*
X178166498Y-87130264D01*
X178020827Y-87190602D01*
X178020814Y-87190609D01*
X177889711Y-87278210D01*
X177889707Y-87278213D01*
X177778213Y-87389707D01*
X177778210Y-87389711D01*
X177690609Y-87520814D01*
X177690602Y-87520827D01*
X177630264Y-87666498D01*
X177630261Y-87666510D01*
X177599500Y-87821153D01*
X173075500Y-87821153D01*
X173075500Y-75885513D01*
X180669500Y-75885513D01*
X180669500Y-76074486D01*
X180699059Y-76261118D01*
X180757454Y-76440836D01*
X180816033Y-76555802D01*
X180843240Y-76609199D01*
X180954310Y-76762073D01*
X181087927Y-76895690D01*
X181240801Y-77006760D01*
X181315683Y-77044914D01*
X181409163Y-77092545D01*
X181409165Y-77092545D01*
X181409168Y-77092547D01*
X181505497Y-77123846D01*
X181588881Y-77150940D01*
X181775514Y-77180500D01*
X181775519Y-77180500D01*
X181964486Y-77180500D01*
X182151118Y-77150940D01*
X182330832Y-77092547D01*
X182499199Y-77006760D01*
X182652073Y-76895690D01*
X182785690Y-76762073D01*
X182896760Y-76609199D01*
X182982547Y-76440832D01*
X183040940Y-76261118D01*
X183070500Y-76074486D01*
X183070500Y-75885514D01*
X183069068Y-75876474D01*
X183069068Y-75876473D01*
X183066767Y-75861947D01*
X185570000Y-75861947D01*
X185570000Y-76098052D01*
X185606934Y-76331247D01*
X185679897Y-76555802D01*
X185787087Y-76766174D01*
X185847338Y-76849104D01*
X185847340Y-76849105D01*
X186587037Y-76109408D01*
X186604075Y-76172993D01*
X186669901Y-76287007D01*
X186762993Y-76380099D01*
X186877007Y-76445925D01*
X186940590Y-76462962D01*
X186200893Y-77202658D01*
X186283828Y-77262914D01*
X186494197Y-77370102D01*
X186718752Y-77443065D01*
X186718751Y-77443065D01*
X186951948Y-77480000D01*
X187188052Y-77480000D01*
X187421247Y-77443065D01*
X187645802Y-77370102D01*
X187856163Y-77262918D01*
X187856169Y-77262914D01*
X187939104Y-77202658D01*
X187939105Y-77202658D01*
X187199408Y-76462962D01*
X187262993Y-76445925D01*
X187377007Y-76380099D01*
X187470099Y-76287007D01*
X187535925Y-76172993D01*
X187552962Y-76109408D01*
X188292658Y-76849105D01*
X188292658Y-76849104D01*
X188352914Y-76766169D01*
X188352918Y-76766163D01*
X188460102Y-76555802D01*
X188533065Y-76331247D01*
X188570000Y-76098052D01*
X188570000Y-75861947D01*
X188533065Y-75628752D01*
X188460102Y-75404197D01*
X188352914Y-75193828D01*
X188292658Y-75110894D01*
X188292658Y-75110893D01*
X187552962Y-75850590D01*
X187535925Y-75787007D01*
X187470099Y-75672993D01*
X187377007Y-75579901D01*
X187262993Y-75514075D01*
X187199409Y-75497037D01*
X187939105Y-74757340D01*
X187939104Y-74757338D01*
X187856174Y-74697087D01*
X187645802Y-74589897D01*
X187421247Y-74516934D01*
X187421248Y-74516934D01*
X187188052Y-74480000D01*
X186951948Y-74480000D01*
X186718752Y-74516934D01*
X186494197Y-74589897D01*
X186283830Y-74697084D01*
X186200894Y-74757340D01*
X186940591Y-75497037D01*
X186877007Y-75514075D01*
X186762993Y-75579901D01*
X186669901Y-75672993D01*
X186604075Y-75787007D01*
X186587037Y-75850591D01*
X185847340Y-75110894D01*
X185787084Y-75193830D01*
X185679897Y-75404197D01*
X185606934Y-75628752D01*
X185570000Y-75861947D01*
X183066767Y-75861947D01*
X183040940Y-75698881D01*
X182982545Y-75519163D01*
X182937290Y-75430347D01*
X182896760Y-75350801D01*
X182785690Y-75197927D01*
X182652073Y-75064310D01*
X182499199Y-74953240D01*
X182409079Y-74907321D01*
X182330836Y-74867454D01*
X182151118Y-74809059D01*
X181964486Y-74779500D01*
X181964481Y-74779500D01*
X181775519Y-74779500D01*
X181775514Y-74779500D01*
X181588881Y-74809059D01*
X181409163Y-74867454D01*
X181240800Y-74953240D01*
X181153579Y-75016610D01*
X181087927Y-75064310D01*
X181087925Y-75064312D01*
X181087924Y-75064312D01*
X180954312Y-75197924D01*
X180954312Y-75197925D01*
X180954310Y-75197927D01*
X180906610Y-75263579D01*
X180843240Y-75350800D01*
X180757454Y-75519163D01*
X180699059Y-75698881D01*
X180669500Y-75885513D01*
X173075500Y-75885513D01*
X173075500Y-73457839D01*
X173075090Y-73444878D01*
X173075090Y-73444868D01*
X173074102Y-73429247D01*
X173072875Y-73416332D01*
X172915702Y-72178595D01*
X172911277Y-72154936D01*
X172904286Y-72126795D01*
X172897125Y-72103816D01*
X172610595Y-71344178D01*
X172553976Y-71194071D01*
X182199499Y-71194071D01*
X182224497Y-71319738D01*
X182224499Y-71319744D01*
X182273533Y-71438124D01*
X182273538Y-71438133D01*
X182344723Y-71544668D01*
X182344726Y-71544672D01*
X182435327Y-71635273D01*
X182435331Y-71635276D01*
X182541866Y-71706461D01*
X182541872Y-71706464D01*
X182541873Y-71706465D01*
X182660256Y-71755501D01*
X182660260Y-71755501D01*
X182660261Y-71755502D01*
X182785928Y-71780500D01*
X182785931Y-71780500D01*
X182914071Y-71780500D01*
X182998615Y-71763682D01*
X183039744Y-71755501D01*
X183158127Y-71706465D01*
X183264669Y-71635276D01*
X183355276Y-71544669D01*
X183426465Y-71438127D01*
X183475501Y-71319744D01*
X183500500Y-71194069D01*
X183500500Y-71065931D01*
X183500500Y-71065928D01*
X183475502Y-70940261D01*
X183475501Y-70940260D01*
X183475501Y-70940256D01*
X183426465Y-70821873D01*
X183426464Y-70821872D01*
X183426461Y-70821866D01*
X183355276Y-70715331D01*
X183355273Y-70715327D01*
X183264672Y-70624726D01*
X183264668Y-70624723D01*
X183158133Y-70553538D01*
X183158124Y-70553533D01*
X183039744Y-70504499D01*
X183039738Y-70504497D01*
X182914071Y-70479500D01*
X182914069Y-70479500D01*
X182785931Y-70479500D01*
X182785929Y-70479500D01*
X182660261Y-70504497D01*
X182660255Y-70504499D01*
X182541875Y-70553533D01*
X182541866Y-70553538D01*
X182435331Y-70624723D01*
X182435327Y-70624726D01*
X182344726Y-70715327D01*
X182344723Y-70715331D01*
X182273538Y-70821866D01*
X182273533Y-70821875D01*
X182224499Y-70940255D01*
X182224497Y-70940261D01*
X182199500Y-71065928D01*
X182199500Y-71065931D01*
X182199500Y-71194069D01*
X182199500Y-71194071D01*
X182199499Y-71194071D01*
X172553976Y-71194071D01*
X172519851Y-71103601D01*
X172478038Y-70992747D01*
X172466940Y-70968301D01*
X172466928Y-70968277D01*
X172451652Y-70939744D01*
X172437440Y-70916924D01*
X171844033Y-70090045D01*
X171831562Y-70074345D01*
X171815630Y-70056183D01*
X171801695Y-70041779D01*
X171021049Y-69309923D01*
X171021036Y-69309912D01*
X171002821Y-69294714D01*
X171002805Y-69294701D01*
X170979844Y-69277694D01*
X170979841Y-69277692D01*
X170979837Y-69277689D01*
X170959983Y-69264688D01*
X170959969Y-69264680D01*
X170959963Y-69264676D01*
X170328789Y-68901612D01*
X169855395Y-68629306D01*
X169855389Y-68629303D01*
X169855382Y-68629299D01*
X169833400Y-68618349D01*
X169833393Y-68618346D01*
X169833389Y-68618344D01*
X169819761Y-68612545D01*
X169806137Y-68606748D01*
X169803238Y-68605714D01*
X169782970Y-68598490D01*
X169782962Y-68598487D01*
X169782949Y-68598483D01*
X168879099Y-68336076D01*
X168879097Y-68336075D01*
X168879095Y-68336075D01*
X168859344Y-68331385D01*
X168849163Y-68329493D01*
X168835287Y-68326914D01*
X168815176Y-68324197D01*
X167892713Y-68245689D01*
X167887366Y-68245348D01*
X167883980Y-68245132D01*
X167883973Y-68245131D01*
X167883962Y-68245131D01*
X167876253Y-68244803D01*
X167873465Y-68244685D01*
X167870555Y-68244623D01*
X167864741Y-68244500D01*
X167864737Y-68244500D01*
X122994500Y-68244500D01*
X122927461Y-68224815D01*
X122881706Y-68172011D01*
X122870500Y-68120500D01*
X122870500Y-66594071D01*
X134839499Y-66594071D01*
X134864497Y-66719738D01*
X134864499Y-66719744D01*
X134913533Y-66838124D01*
X134913538Y-66838133D01*
X134984723Y-66944668D01*
X134984726Y-66944672D01*
X135075327Y-67035273D01*
X135075331Y-67035276D01*
X135181866Y-67106461D01*
X135181875Y-67106466D01*
X135182066Y-67106545D01*
X135300256Y-67155501D01*
X135300260Y-67155501D01*
X135300261Y-67155502D01*
X135425928Y-67180500D01*
X135425931Y-67180500D01*
X135554071Y-67180500D01*
X135638615Y-67163682D01*
X135679744Y-67155501D01*
X135798127Y-67106465D01*
X135904669Y-67035276D01*
X135995276Y-66944669D01*
X136066465Y-66838127D01*
X136111669Y-66728995D01*
X180794499Y-66728995D01*
X180821418Y-66864322D01*
X180821421Y-66864332D01*
X180874221Y-66991804D01*
X180874228Y-66991817D01*
X180950885Y-67106541D01*
X180950888Y-67106545D01*
X181048454Y-67204111D01*
X181048458Y-67204114D01*
X181163182Y-67280771D01*
X181163195Y-67280778D01*
X181290667Y-67333578D01*
X181290672Y-67333580D01*
X181290676Y-67333580D01*
X181290677Y-67333581D01*
X181426004Y-67360500D01*
X181426007Y-67360500D01*
X181563995Y-67360500D01*
X181655041Y-67342389D01*
X181699328Y-67333580D01*
X181826811Y-67280775D01*
X181941542Y-67204114D01*
X182039114Y-67106542D01*
X182115775Y-66991811D01*
X182168580Y-66864328D01*
X182195500Y-66728993D01*
X182195500Y-66591007D01*
X182195500Y-66591004D01*
X182168581Y-66455677D01*
X182168580Y-66455676D01*
X182168580Y-66455672D01*
X182168578Y-66455667D01*
X182115778Y-66328195D01*
X182115771Y-66328182D01*
X182039114Y-66213458D01*
X182039111Y-66213454D01*
X181941545Y-66115888D01*
X181941541Y-66115885D01*
X181826817Y-66039228D01*
X181826804Y-66039221D01*
X181699332Y-65986421D01*
X181699322Y-65986418D01*
X181563995Y-65959500D01*
X181563993Y-65959500D01*
X181426007Y-65959500D01*
X181426005Y-65959500D01*
X181290677Y-65986418D01*
X181290667Y-65986421D01*
X181163195Y-66039221D01*
X181163182Y-66039228D01*
X181048458Y-66115885D01*
X181048454Y-66115888D01*
X180950888Y-66213454D01*
X180950885Y-66213458D01*
X180874228Y-66328182D01*
X180874221Y-66328195D01*
X180821421Y-66455667D01*
X180821418Y-66455677D01*
X180794500Y-66591004D01*
X180794500Y-66591007D01*
X180794500Y-66728993D01*
X180794500Y-66728995D01*
X180794499Y-66728995D01*
X136111669Y-66728995D01*
X136115501Y-66719744D01*
X136140500Y-66594069D01*
X136140500Y-66465931D01*
X136140500Y-66465928D01*
X136115502Y-66340261D01*
X136115501Y-66340260D01*
X136115501Y-66340256D01*
X136066465Y-66221873D01*
X136066464Y-66221872D01*
X136066461Y-66221866D01*
X135995276Y-66115331D01*
X135995273Y-66115327D01*
X135904672Y-66024726D01*
X135904668Y-66024723D01*
X135798133Y-65953538D01*
X135798124Y-65953533D01*
X135679744Y-65904499D01*
X135679738Y-65904497D01*
X135554071Y-65879500D01*
X135554069Y-65879500D01*
X135425931Y-65879500D01*
X135425929Y-65879500D01*
X135300261Y-65904497D01*
X135300255Y-65904499D01*
X135181875Y-65953533D01*
X135181866Y-65953538D01*
X135075331Y-66024723D01*
X135075327Y-66024726D01*
X134984726Y-66115327D01*
X134984723Y-66115331D01*
X134913538Y-66221866D01*
X134913533Y-66221875D01*
X134864499Y-66340255D01*
X134864497Y-66340261D01*
X134839500Y-66465928D01*
X134839500Y-66465931D01*
X134839500Y-66594069D01*
X134839500Y-66594071D01*
X134839499Y-66594071D01*
X122870500Y-66594071D01*
X122870500Y-55942125D01*
X122870536Y-55939997D01*
X127120000Y-55939997D01*
X127120000Y-55940002D01*
X127139051Y-56291384D01*
X127195984Y-56638659D01*
X127195986Y-56638667D01*
X127290123Y-56977719D01*
X127290125Y-56977726D01*
X127420375Y-57304630D01*
X127420380Y-57304640D01*
X127585214Y-57615550D01*
X127782698Y-57906816D01*
X128010515Y-58175023D01*
X128265995Y-58417027D01*
X128546142Y-58629989D01*
X128546150Y-58629994D01*
X128546162Y-58630002D01*
X128847668Y-58811411D01*
X128847673Y-58811414D01*
X128847677Y-58811415D01*
X128847681Y-58811418D01*
X129167040Y-58959169D01*
X129167051Y-58959174D01*
X129500533Y-59071537D01*
X129844209Y-59147186D01*
X130194049Y-59185234D01*
X130194054Y-59185234D01*
X130545946Y-59185234D01*
X130545951Y-59185234D01*
X130895791Y-59147186D01*
X131239467Y-59071537D01*
X131572949Y-58959174D01*
X131892327Y-58811414D01*
X132079048Y-58699067D01*
X132193837Y-58630002D01*
X132193841Y-58629999D01*
X132193858Y-58629989D01*
X132474005Y-58417027D01*
X132729485Y-58175023D01*
X132957302Y-57906816D01*
X133154786Y-57615550D01*
X133319620Y-57304640D01*
X133449873Y-56977730D01*
X133544017Y-56638654D01*
X133600948Y-56291387D01*
X133618817Y-55961817D01*
X133620000Y-55940002D01*
X133620000Y-55939997D01*
X133600948Y-55588615D01*
X133597731Y-55568995D01*
X140259499Y-55568995D01*
X140286418Y-55704322D01*
X140286421Y-55704332D01*
X140339221Y-55831804D01*
X140339228Y-55831817D01*
X140415885Y-55946541D01*
X140415888Y-55946545D01*
X140513454Y-56044111D01*
X140513458Y-56044114D01*
X140628182Y-56120771D01*
X140628195Y-56120778D01*
X140755667Y-56173578D01*
X140755672Y-56173580D01*
X140755676Y-56173580D01*
X140755677Y-56173581D01*
X140891004Y-56200500D01*
X140891007Y-56200500D01*
X141028995Y-56200500D01*
X141161643Y-56174114D01*
X141164328Y-56173580D01*
X141291811Y-56120775D01*
X141406542Y-56044114D01*
X141504114Y-55946542D01*
X141580775Y-55831811D01*
X141633580Y-55704328D01*
X141642597Y-55658995D01*
X150419499Y-55658995D01*
X150446418Y-55794322D01*
X150446421Y-55794332D01*
X150499221Y-55921804D01*
X150499228Y-55921817D01*
X150575885Y-56036541D01*
X150575888Y-56036545D01*
X150673454Y-56134111D01*
X150673458Y-56134114D01*
X150788182Y-56210771D01*
X150788195Y-56210778D01*
X150884765Y-56250778D01*
X150915672Y-56263580D01*
X150915676Y-56263580D01*
X150915677Y-56263581D01*
X151051004Y-56290500D01*
X151051007Y-56290500D01*
X151188995Y-56290500D01*
X151280041Y-56272389D01*
X151324328Y-56263580D01*
X151451811Y-56210775D01*
X151566542Y-56134114D01*
X151664114Y-56036542D01*
X151740775Y-55921811D01*
X151793580Y-55794328D01*
X151802389Y-55750041D01*
X151812543Y-55698995D01*
X152999499Y-55698995D01*
X153026418Y-55834322D01*
X153026421Y-55834332D01*
X153079221Y-55961804D01*
X153079228Y-55961817D01*
X153155885Y-56076541D01*
X153155888Y-56076545D01*
X153253454Y-56174111D01*
X153253458Y-56174114D01*
X153368182Y-56250771D01*
X153368195Y-56250778D01*
X153464094Y-56290500D01*
X153495672Y-56303580D01*
X153495676Y-56303580D01*
X153495677Y-56303581D01*
X153631004Y-56330500D01*
X153631007Y-56330500D01*
X153768995Y-56330500D01*
X153860041Y-56312389D01*
X153904328Y-56303580D01*
X154031811Y-56250775D01*
X154146542Y-56174114D01*
X154244114Y-56076542D01*
X154320775Y-55961811D01*
X154373580Y-55834328D01*
X154400500Y-55698993D01*
X154400500Y-55658995D01*
X155499499Y-55658995D01*
X155526418Y-55794322D01*
X155526421Y-55794332D01*
X155579221Y-55921804D01*
X155579228Y-55921817D01*
X155655885Y-56036541D01*
X155655888Y-56036545D01*
X155753454Y-56134111D01*
X155753458Y-56134114D01*
X155868182Y-56210771D01*
X155868195Y-56210778D01*
X155964765Y-56250778D01*
X155995672Y-56263580D01*
X155995676Y-56263580D01*
X155995677Y-56263581D01*
X156131004Y-56290500D01*
X156131007Y-56290500D01*
X156268995Y-56290500D01*
X156360041Y-56272389D01*
X156404328Y-56263580D01*
X156531811Y-56210775D01*
X156646542Y-56134114D01*
X156744114Y-56036542D01*
X156820775Y-55921811D01*
X156873580Y-55794328D01*
X156882389Y-55750041D01*
X156900500Y-55658995D01*
X158039499Y-55658995D01*
X158066418Y-55794322D01*
X158066421Y-55794332D01*
X158119221Y-55921804D01*
X158119228Y-55921817D01*
X158195885Y-56036541D01*
X158195888Y-56036545D01*
X158293454Y-56134111D01*
X158293458Y-56134114D01*
X158408182Y-56210771D01*
X158408195Y-56210778D01*
X158504765Y-56250778D01*
X158535672Y-56263580D01*
X158535676Y-56263580D01*
X158535677Y-56263581D01*
X158671004Y-56290500D01*
X158671007Y-56290500D01*
X158808995Y-56290500D01*
X158900041Y-56272389D01*
X158944328Y-56263580D01*
X159071811Y-56210775D01*
X159186542Y-56134114D01*
X159284114Y-56036542D01*
X159360775Y-55921811D01*
X159413580Y-55794328D01*
X159422389Y-55750041D01*
X159440500Y-55658995D01*
X165639499Y-55658995D01*
X165666418Y-55794322D01*
X165666421Y-55794332D01*
X165719221Y-55921804D01*
X165719228Y-55921817D01*
X165795885Y-56036541D01*
X165795888Y-56036545D01*
X165893454Y-56134111D01*
X165893458Y-56134114D01*
X166008182Y-56210771D01*
X166008195Y-56210778D01*
X166104765Y-56250778D01*
X166135672Y-56263580D01*
X166135676Y-56263580D01*
X166135677Y-56263581D01*
X166271004Y-56290500D01*
X166271007Y-56290500D01*
X166408995Y-56290500D01*
X166500041Y-56272389D01*
X166544328Y-56263580D01*
X166671811Y-56210775D01*
X166786542Y-56134114D01*
X166884114Y-56036542D01*
X166960775Y-55921811D01*
X167013580Y-55794328D01*
X167022389Y-55750041D01*
X167038511Y-55668995D01*
X168179499Y-55668995D01*
X168206418Y-55804322D01*
X168206421Y-55804332D01*
X168259221Y-55931804D01*
X168259228Y-55931817D01*
X168335885Y-56046541D01*
X168335888Y-56046545D01*
X168433454Y-56144111D01*
X168433458Y-56144114D01*
X168548182Y-56220771D01*
X168548195Y-56220778D01*
X168651532Y-56263581D01*
X168675672Y-56273580D01*
X168675676Y-56273580D01*
X168675677Y-56273581D01*
X168811004Y-56300500D01*
X168811007Y-56300500D01*
X168948995Y-56300500D01*
X169040041Y-56282389D01*
X169084328Y-56273580D01*
X169211811Y-56220775D01*
X169326542Y-56144114D01*
X169424114Y-56046542D01*
X169500775Y-55931811D01*
X169553580Y-55804328D01*
X169573471Y-55704332D01*
X169580500Y-55668995D01*
X170729499Y-55668995D01*
X170756418Y-55804322D01*
X170756421Y-55804332D01*
X170809221Y-55931804D01*
X170809228Y-55931817D01*
X170885885Y-56046541D01*
X170885888Y-56046545D01*
X170983454Y-56144111D01*
X170983458Y-56144114D01*
X171098182Y-56220771D01*
X171098195Y-56220778D01*
X171201532Y-56263581D01*
X171225672Y-56273580D01*
X171225676Y-56273580D01*
X171225677Y-56273581D01*
X171361004Y-56300500D01*
X171361007Y-56300500D01*
X171498995Y-56300500D01*
X171590041Y-56282389D01*
X171634328Y-56273580D01*
X171761811Y-56220775D01*
X171876542Y-56144114D01*
X171974114Y-56046542D01*
X172045305Y-55939997D01*
X182120000Y-55939997D01*
X182120000Y-55940002D01*
X182139051Y-56291384D01*
X182195984Y-56638659D01*
X182195986Y-56638667D01*
X182290123Y-56977719D01*
X182290125Y-56977726D01*
X182420375Y-57304630D01*
X182420380Y-57304640D01*
X182585214Y-57615550D01*
X182782698Y-57906816D01*
X183010515Y-58175023D01*
X183265995Y-58417027D01*
X183546142Y-58629989D01*
X183546150Y-58629994D01*
X183546162Y-58630002D01*
X183847668Y-58811411D01*
X183847673Y-58811414D01*
X183847677Y-58811415D01*
X183847681Y-58811418D01*
X184167040Y-58959169D01*
X184167051Y-58959174D01*
X184500533Y-59071537D01*
X184844209Y-59147186D01*
X185194049Y-59185234D01*
X185194054Y-59185234D01*
X185545946Y-59185234D01*
X185545951Y-59185234D01*
X185895791Y-59147186D01*
X186239467Y-59071537D01*
X186572949Y-58959174D01*
X186892327Y-58811414D01*
X187079048Y-58699067D01*
X187193837Y-58630002D01*
X187193841Y-58629999D01*
X187193858Y-58629989D01*
X187474005Y-58417027D01*
X187729485Y-58175023D01*
X187957302Y-57906816D01*
X188154786Y-57615550D01*
X188319620Y-57304640D01*
X188449873Y-56977730D01*
X188544017Y-56638654D01*
X188600948Y-56291387D01*
X188618817Y-55961817D01*
X188620000Y-55940002D01*
X188620000Y-55939997D01*
X188600948Y-55588615D01*
X188600948Y-55588613D01*
X188544017Y-55241346D01*
X188500854Y-55085886D01*
X188449876Y-54902280D01*
X188449874Y-54902273D01*
X188432587Y-54858887D01*
X188319620Y-54575360D01*
X188154786Y-54264450D01*
X187957302Y-53973184D01*
X187729485Y-53704977D01*
X187474005Y-53462973D01*
X187473998Y-53462967D01*
X187473995Y-53462965D01*
X187365390Y-53380406D01*
X187193858Y-53250011D01*
X187193852Y-53250007D01*
X187193837Y-53249997D01*
X186892331Y-53068588D01*
X186892318Y-53068581D01*
X186572959Y-52920830D01*
X186572954Y-52920828D01*
X186572949Y-52920826D01*
X186410394Y-52866055D01*
X186239466Y-52808462D01*
X185895789Y-52732813D01*
X185545952Y-52694766D01*
X185545951Y-52694766D01*
X185194049Y-52694766D01*
X185194047Y-52694766D01*
X184844210Y-52732813D01*
X184500533Y-52808462D01*
X184242745Y-52895321D01*
X184167051Y-52920826D01*
X184167048Y-52920827D01*
X184167040Y-52920830D01*
X183847681Y-53068581D01*
X183847668Y-53068588D01*
X183546162Y-53249997D01*
X183546146Y-53250008D01*
X183266004Y-53462965D01*
X183265995Y-53462973D01*
X183010512Y-53704979D01*
X183010507Y-53704985D01*
X182782697Y-53973184D01*
X182585214Y-54264449D01*
X182420384Y-54575351D01*
X182420375Y-54575369D01*
X182290125Y-54902273D01*
X182290123Y-54902280D01*
X182195986Y-55241332D01*
X182195984Y-55241340D01*
X182139051Y-55588615D01*
X182120000Y-55939997D01*
X172045305Y-55939997D01*
X172050775Y-55931811D01*
X172103580Y-55804328D01*
X172123471Y-55704332D01*
X172130500Y-55668995D01*
X172130500Y-55531004D01*
X172103581Y-55395677D01*
X172103580Y-55395676D01*
X172103580Y-55395672D01*
X172063204Y-55298195D01*
X172050778Y-55268195D01*
X172050771Y-55268182D01*
X171974114Y-55153458D01*
X171974111Y-55153454D01*
X171876545Y-55055888D01*
X171876541Y-55055885D01*
X171761817Y-54979228D01*
X171761804Y-54979221D01*
X171634332Y-54926421D01*
X171634322Y-54926418D01*
X171498995Y-54899500D01*
X171498993Y-54899500D01*
X171361007Y-54899500D01*
X171361005Y-54899500D01*
X171225677Y-54926418D01*
X171225667Y-54926421D01*
X171098195Y-54979221D01*
X171098182Y-54979228D01*
X170983458Y-55055885D01*
X170983454Y-55055888D01*
X170885888Y-55153454D01*
X170885885Y-55153458D01*
X170809228Y-55268182D01*
X170809221Y-55268195D01*
X170756421Y-55395667D01*
X170756418Y-55395677D01*
X170729500Y-55531004D01*
X170729500Y-55531007D01*
X170729500Y-55668993D01*
X170729500Y-55668995D01*
X170729499Y-55668995D01*
X169580500Y-55668995D01*
X169580500Y-55531004D01*
X169553581Y-55395677D01*
X169553580Y-55395676D01*
X169553580Y-55395672D01*
X169513204Y-55298195D01*
X169500778Y-55268195D01*
X169500771Y-55268182D01*
X169424114Y-55153458D01*
X169424111Y-55153454D01*
X169326545Y-55055888D01*
X169326541Y-55055885D01*
X169211817Y-54979228D01*
X169211804Y-54979221D01*
X169084332Y-54926421D01*
X169084322Y-54926418D01*
X168948995Y-54899500D01*
X168948993Y-54899500D01*
X168811007Y-54899500D01*
X168811005Y-54899500D01*
X168675677Y-54926418D01*
X168675667Y-54926421D01*
X168548195Y-54979221D01*
X168548182Y-54979228D01*
X168433458Y-55055885D01*
X168433454Y-55055888D01*
X168335888Y-55153454D01*
X168335885Y-55153458D01*
X168259228Y-55268182D01*
X168259221Y-55268195D01*
X168206421Y-55395667D01*
X168206418Y-55395677D01*
X168179500Y-55531004D01*
X168179500Y-55531007D01*
X168179500Y-55668993D01*
X168179500Y-55668995D01*
X168179499Y-55668995D01*
X167038511Y-55668995D01*
X167040500Y-55658995D01*
X167040500Y-55521004D01*
X167013581Y-55385677D01*
X167013580Y-55385676D01*
X167013580Y-55385672D01*
X166977346Y-55298195D01*
X166960778Y-55258195D01*
X166960771Y-55258182D01*
X166884114Y-55143458D01*
X166884111Y-55143454D01*
X166786545Y-55045888D01*
X166786541Y-55045885D01*
X166671817Y-54969228D01*
X166671804Y-54969221D01*
X166544332Y-54916421D01*
X166544322Y-54916418D01*
X166408995Y-54889500D01*
X166408993Y-54889500D01*
X166271007Y-54889500D01*
X166271005Y-54889500D01*
X166135677Y-54916418D01*
X166135667Y-54916421D01*
X166008195Y-54969221D01*
X166008182Y-54969228D01*
X165893458Y-55045885D01*
X165893454Y-55045888D01*
X165795888Y-55143454D01*
X165795885Y-55143458D01*
X165719228Y-55258182D01*
X165719221Y-55258195D01*
X165666421Y-55385667D01*
X165666418Y-55385677D01*
X165639500Y-55521004D01*
X165639500Y-55521007D01*
X165639500Y-55658993D01*
X165639500Y-55658995D01*
X165639499Y-55658995D01*
X159440500Y-55658995D01*
X159440500Y-55521004D01*
X159413581Y-55385677D01*
X159413580Y-55385676D01*
X159413580Y-55385672D01*
X159377346Y-55298195D01*
X159360778Y-55258195D01*
X159360771Y-55258182D01*
X159284114Y-55143458D01*
X159284111Y-55143454D01*
X159186545Y-55045888D01*
X159186541Y-55045885D01*
X159071817Y-54969228D01*
X159071804Y-54969221D01*
X158944332Y-54916421D01*
X158944322Y-54916418D01*
X158808995Y-54889500D01*
X158808993Y-54889500D01*
X158671007Y-54889500D01*
X158671005Y-54889500D01*
X158535677Y-54916418D01*
X158535667Y-54916421D01*
X158408195Y-54969221D01*
X158408182Y-54969228D01*
X158293458Y-55045885D01*
X158293454Y-55045888D01*
X158195888Y-55143454D01*
X158195885Y-55143458D01*
X158119228Y-55258182D01*
X158119221Y-55258195D01*
X158066421Y-55385667D01*
X158066418Y-55385677D01*
X158039500Y-55521004D01*
X158039500Y-55521007D01*
X158039500Y-55658993D01*
X158039500Y-55658995D01*
X158039499Y-55658995D01*
X156900500Y-55658995D01*
X156900500Y-55521004D01*
X156873581Y-55385677D01*
X156873580Y-55385676D01*
X156873580Y-55385672D01*
X156837346Y-55298195D01*
X156820778Y-55258195D01*
X156820771Y-55258182D01*
X156744114Y-55143458D01*
X156744111Y-55143454D01*
X156646545Y-55045888D01*
X156646541Y-55045885D01*
X156531817Y-54969228D01*
X156531804Y-54969221D01*
X156404332Y-54916421D01*
X156404322Y-54916418D01*
X156268995Y-54889500D01*
X156268993Y-54889500D01*
X156131007Y-54889500D01*
X156131005Y-54889500D01*
X155995677Y-54916418D01*
X155995667Y-54916421D01*
X155868195Y-54969221D01*
X155868182Y-54969228D01*
X155753458Y-55045885D01*
X155753454Y-55045888D01*
X155655888Y-55143454D01*
X155655885Y-55143458D01*
X155579228Y-55258182D01*
X155579221Y-55258195D01*
X155526421Y-55385667D01*
X155526418Y-55385677D01*
X155499500Y-55521004D01*
X155499500Y-55521007D01*
X155499500Y-55658993D01*
X155499500Y-55658995D01*
X155499499Y-55658995D01*
X154400500Y-55658995D01*
X154400500Y-55561007D01*
X154400499Y-55561004D01*
X154396144Y-55539108D01*
X154396144Y-55539106D01*
X154374641Y-55431007D01*
X154373580Y-55425672D01*
X154357012Y-55385672D01*
X154320778Y-55298195D01*
X154320771Y-55298182D01*
X154244114Y-55183458D01*
X154244111Y-55183454D01*
X154146545Y-55085888D01*
X154146541Y-55085885D01*
X154031817Y-55009228D01*
X154031804Y-55009221D01*
X153904332Y-54956421D01*
X153904322Y-54956418D01*
X153768995Y-54929500D01*
X153768993Y-54929500D01*
X153631007Y-54929500D01*
X153631005Y-54929500D01*
X153495677Y-54956418D01*
X153495667Y-54956421D01*
X153368195Y-55009221D01*
X153368182Y-55009228D01*
X153253458Y-55085885D01*
X153253454Y-55085888D01*
X153155888Y-55183454D01*
X153155885Y-55183458D01*
X153079228Y-55298182D01*
X153079221Y-55298195D01*
X153026421Y-55425667D01*
X153026418Y-55425677D01*
X152999500Y-55561004D01*
X152999500Y-55561005D01*
X152999500Y-55561007D01*
X152999500Y-55698993D01*
X152999500Y-55698995D01*
X152999499Y-55698995D01*
X151812543Y-55698995D01*
X151820500Y-55658995D01*
X151820500Y-55521004D01*
X151793581Y-55385677D01*
X151793580Y-55385676D01*
X151793580Y-55385672D01*
X151757346Y-55298195D01*
X151740778Y-55258195D01*
X151740771Y-55258182D01*
X151664114Y-55143458D01*
X151664111Y-55143454D01*
X151566545Y-55045888D01*
X151566541Y-55045885D01*
X151451817Y-54969228D01*
X151451804Y-54969221D01*
X151324332Y-54916421D01*
X151324322Y-54916418D01*
X151188995Y-54889500D01*
X151188993Y-54889500D01*
X151051007Y-54889500D01*
X151051005Y-54889500D01*
X150915677Y-54916418D01*
X150915667Y-54916421D01*
X150788195Y-54969221D01*
X150788182Y-54969228D01*
X150673458Y-55045885D01*
X150673454Y-55045888D01*
X150575888Y-55143454D01*
X150575885Y-55143458D01*
X150499228Y-55258182D01*
X150499221Y-55258195D01*
X150446421Y-55385667D01*
X150446418Y-55385677D01*
X150419500Y-55521004D01*
X150419500Y-55521007D01*
X150419500Y-55658993D01*
X150419500Y-55658995D01*
X150419499Y-55658995D01*
X141642597Y-55658995D01*
X141656597Y-55588615D01*
X141660500Y-55568995D01*
X141660500Y-55431004D01*
X141633581Y-55295677D01*
X141633580Y-55295676D01*
X141633580Y-55295672D01*
X141618051Y-55258182D01*
X141580778Y-55168195D01*
X141580771Y-55168182D01*
X141504114Y-55053458D01*
X141504111Y-55053454D01*
X141406545Y-54955888D01*
X141406541Y-54955885D01*
X141291817Y-54879228D01*
X141291804Y-54879221D01*
X141164332Y-54826421D01*
X141164322Y-54826418D01*
X141028995Y-54799500D01*
X141028993Y-54799500D01*
X140891007Y-54799500D01*
X140891005Y-54799500D01*
X140755677Y-54826418D01*
X140755667Y-54826421D01*
X140628195Y-54879221D01*
X140628182Y-54879228D01*
X140513458Y-54955885D01*
X140513454Y-54955888D01*
X140415888Y-55053454D01*
X140415885Y-55053458D01*
X140339228Y-55168182D01*
X140339221Y-55168195D01*
X140286421Y-55295667D01*
X140286418Y-55295677D01*
X140259500Y-55431004D01*
X140259500Y-55431007D01*
X140259500Y-55568993D01*
X140259500Y-55568995D01*
X140259499Y-55568995D01*
X133597731Y-55568995D01*
X133596421Y-55561004D01*
X133577400Y-55444975D01*
X133577400Y-55444972D01*
X133544019Y-55241358D01*
X133544018Y-55241357D01*
X133544017Y-55241346D01*
X133500854Y-55085886D01*
X133449876Y-54902280D01*
X133449874Y-54902273D01*
X133432587Y-54858887D01*
X133319620Y-54575360D01*
X133154786Y-54264450D01*
X132957302Y-53973184D01*
X132729485Y-53704977D01*
X132474005Y-53462973D01*
X132473998Y-53462967D01*
X132473995Y-53462965D01*
X132365390Y-53380406D01*
X132193858Y-53250011D01*
X132193852Y-53250007D01*
X132193837Y-53249997D01*
X131892331Y-53068588D01*
X131892318Y-53068581D01*
X131572959Y-52920830D01*
X131572954Y-52920828D01*
X131572949Y-52920826D01*
X131410394Y-52866055D01*
X131239466Y-52808462D01*
X130895789Y-52732813D01*
X130545952Y-52694766D01*
X130545951Y-52694766D01*
X130194049Y-52694766D01*
X130194047Y-52694766D01*
X129844210Y-52732813D01*
X129500533Y-52808462D01*
X129242745Y-52895321D01*
X129167051Y-52920826D01*
X129167048Y-52920827D01*
X129167040Y-52920830D01*
X128847681Y-53068581D01*
X128847668Y-53068588D01*
X128546162Y-53249997D01*
X128546146Y-53250008D01*
X128266004Y-53462965D01*
X128265995Y-53462973D01*
X128010512Y-53704979D01*
X128010507Y-53704985D01*
X127782697Y-53973184D01*
X127585214Y-54264449D01*
X127420384Y-54575351D01*
X127420375Y-54575369D01*
X127290125Y-54902273D01*
X127290123Y-54902280D01*
X127195986Y-55241332D01*
X127195984Y-55241340D01*
X127139051Y-55588615D01*
X127120000Y-55939997D01*
X122870536Y-55939997D01*
X122870572Y-55937899D01*
X122870759Y-55932415D01*
X122870759Y-55932408D01*
X122886207Y-55480185D01*
X122886446Y-55475676D01*
X122893954Y-55370694D01*
X122894277Y-55366991D01*
X122935678Y-54964272D01*
X122936280Y-54959384D01*
X122950729Y-54858887D01*
X122951234Y-54855693D01*
X123020793Y-54452263D01*
X123021807Y-54447060D01*
X123041971Y-54354367D01*
X123042607Y-54351609D01*
X123141263Y-53946773D01*
X123142725Y-53941326D01*
X123166507Y-53860333D01*
X123167231Y-53857962D01*
X123296589Y-53450385D01*
X123298561Y-53444671D01*
X123322600Y-53380218D01*
X123323315Y-53378358D01*
X123486092Y-52965584D01*
X123488621Y-52959634D01*
X123507328Y-52918672D01*
X123508002Y-52917225D01*
X123708914Y-52494767D01*
X123712047Y-52488630D01*
X123715685Y-52481966D01*
X123716229Y-52480983D01*
X123960212Y-52047061D01*
X123964597Y-52039850D01*
X124240828Y-51618701D01*
X124245680Y-51611827D01*
X124550017Y-51210499D01*
X124555318Y-51203984D01*
X124886324Y-50824371D01*
X124892074Y-50818214D01*
X125248214Y-50462074D01*
X125254371Y-50456324D01*
X125633984Y-50125318D01*
X125640499Y-50120017D01*
X126041827Y-49815680D01*
X126048701Y-49810828D01*
X126469850Y-49534597D01*
X126477061Y-49530212D01*
X126910983Y-49286229D01*
X126911966Y-49285685D01*
X126918638Y-49282042D01*
X126924767Y-49278914D01*
X127347225Y-49078002D01*
X127348672Y-49077328D01*
X127389634Y-49058621D01*
X127395584Y-49056092D01*
X127808358Y-48893315D01*
X127810218Y-48892600D01*
X127874671Y-48868561D01*
X127880385Y-48866589D01*
X128287962Y-48737231D01*
X128290333Y-48736507D01*
X128371326Y-48712725D01*
X128376773Y-48711263D01*
X128781609Y-48612607D01*
X128784367Y-48611971D01*
X128877060Y-48591807D01*
X128882263Y-48590793D01*
X129285693Y-48521234D01*
X129288887Y-48520729D01*
X129389384Y-48506280D01*
X129394272Y-48505678D01*
X129796991Y-48464277D01*
X129800694Y-48463954D01*
X129905676Y-48456446D01*
X129910185Y-48456207D01*
X130089797Y-48450071D01*
X130094029Y-48450000D01*
X185645971Y-48450000D01*
X185650202Y-48450071D01*
G37*
G04 #@! TD.AperFunction*
M02*
