G04 #@! TF.GenerationSoftware,KiCad,Pcbnew,8.0.5*
G04 #@! TF.CreationDate,2025-03-07T10:13:00-08:00*
G04 #@! TF.ProjectId,Telemetry PCB V2,54656c65-6d65-4747-9279-205043422056,rev?*
G04 #@! TF.SameCoordinates,Original*
G04 #@! TF.FileFunction,Paste,Top*
G04 #@! TF.FilePolarity,Positive*
%FSLAX46Y46*%
G04 Gerber Fmt 4.6, Leading zero omitted, Abs format (unit mm)*
G04 Created by KiCad (PCBNEW 8.0.5) date 2025-03-07 10:13:00*
%MOMM*%
%LPD*%
G01*
G04 APERTURE LIST*
G04 Aperture macros list*
%AMRoundRect*
0 Rectangle with rounded corners*
0 $1 Rounding radius*
0 $2 $3 $4 $5 $6 $7 $8 $9 X,Y pos of 4 corners*
0 Add a 4 corners polygon primitive as box body*
4,1,4,$2,$3,$4,$5,$6,$7,$8,$9,$2,$3,0*
0 Add four circle primitives for the rounded corners*
1,1,$1+$1,$2,$3*
1,1,$1+$1,$4,$5*
1,1,$1+$1,$6,$7*
1,1,$1+$1,$8,$9*
0 Add four rect primitives between the rounded corners*
20,1,$1+$1,$2,$3,$4,$5,0*
20,1,$1+$1,$4,$5,$6,$7,0*
20,1,$1+$1,$6,$7,$8,$9,0*
20,1,$1+$1,$8,$9,$2,$3,0*%
G04 Aperture macros list end*
%ADD10RoundRect,0.250000X0.650000X-0.412500X0.650000X0.412500X-0.650000X0.412500X-0.650000X-0.412500X0*%
%ADD11RoundRect,0.250000X-0.315000X-0.315000X0.315000X-0.315000X0.315000X0.315000X-0.315000X0.315000X0*%
%ADD12RoundRect,0.062500X-0.375000X-0.062500X0.375000X-0.062500X0.375000X0.062500X-0.375000X0.062500X0*%
%ADD13RoundRect,0.062500X-0.062500X-0.375000X0.062500X-0.375000X0.062500X0.375000X-0.062500X0.375000X0*%
%ADD14R,0.711200X0.711200*%
%ADD15RoundRect,0.250000X-0.625000X0.400000X-0.625000X-0.400000X0.625000X-0.400000X0.625000X0.400000X0*%
%ADD16RoundRect,0.237500X0.237500X-0.300000X0.237500X0.300000X-0.237500X0.300000X-0.237500X-0.300000X0*%
%ADD17RoundRect,0.150000X-0.150000X-0.435000X0.150000X-0.435000X0.150000X0.435000X-0.150000X0.435000X0*%
%ADD18RoundRect,0.150000X-0.150000X-0.447500X0.150000X-0.447500X0.150000X0.447500X-0.150000X0.447500X0*%
%ADD19RoundRect,0.075000X-0.075000X-0.575000X0.075000X-0.575000X0.075000X0.575000X-0.075000X0.575000X0*%
%ADD20RoundRect,0.250000X-0.650000X0.412500X-0.650000X-0.412500X0.650000X-0.412500X0.650000X0.412500X0*%
%ADD21R,1.498600X3.987800*%
%ADD22RoundRect,0.250000X0.625000X-0.400000X0.625000X0.400000X-0.625000X0.400000X-0.625000X-0.400000X0*%
%ADD23RoundRect,0.237500X-0.237500X0.300000X-0.237500X-0.300000X0.237500X-0.300000X0.237500X0.300000X0*%
%ADD24R,1.510000X2.080000*%
%ADD25R,0.558800X0.950500*%
%ADD26RoundRect,0.150000X-0.587500X-0.150000X0.587500X-0.150000X0.587500X0.150000X-0.587500X0.150000X0*%
%ADD27RoundRect,0.250000X0.400000X0.625000X-0.400000X0.625000X-0.400000X-0.625000X0.400000X-0.625000X0*%
%ADD28R,1.900000X1.100000*%
%ADD29R,2.000000X7.875000*%
%ADD30RoundRect,0.237500X-0.300000X-0.237500X0.300000X-0.237500X0.300000X0.237500X-0.300000X0.237500X0*%
%ADD31RoundRect,0.237500X0.300000X0.237500X-0.300000X0.237500X-0.300000X-0.237500X0.300000X-0.237500X0*%
%ADD32RoundRect,0.250000X0.412500X0.650000X-0.412500X0.650000X-0.412500X-0.650000X0.412500X-0.650000X0*%
%ADD33RoundRect,0.150000X-0.512500X-0.150000X0.512500X-0.150000X0.512500X0.150000X-0.512500X0.150000X0*%
%ADD34RoundRect,0.090000X0.360000X-0.660000X0.360000X0.660000X-0.360000X0.660000X-0.360000X-0.660000X0*%
G04 APERTURE END LIST*
D10*
X169875000Y-103579999D03*
X169875000Y-100454999D03*
D11*
X148512500Y-89260000D03*
X148512500Y-90660000D03*
X148512500Y-92060000D03*
X148512500Y-93460000D03*
X149912500Y-89260000D03*
X149912500Y-90660000D03*
X149912500Y-92060000D03*
X149912500Y-93460000D03*
X151312500Y-89260000D03*
X151312500Y-90660000D03*
X151312500Y-92060000D03*
X151312500Y-93460000D03*
X152712500Y-89260000D03*
X152712500Y-90660000D03*
X152712500Y-92060000D03*
X152712500Y-93460000D03*
D12*
X147175000Y-88610000D03*
X147175000Y-89110000D03*
X147175000Y-89610000D03*
X147175000Y-90110000D03*
X147175000Y-90610000D03*
X147175000Y-91110000D03*
X147175000Y-91610000D03*
X147175000Y-92110000D03*
X147175000Y-92610000D03*
X147175000Y-93110000D03*
X147175000Y-93610000D03*
X147175000Y-94110000D03*
D13*
X147862500Y-94797500D03*
X148362500Y-94797500D03*
X148862500Y-94797500D03*
X149362500Y-94797500D03*
X149862500Y-94797500D03*
X150362500Y-94797500D03*
X150862500Y-94797500D03*
X151362500Y-94797500D03*
X151862500Y-94797500D03*
X152362500Y-94797500D03*
X152862500Y-94797500D03*
X153362500Y-94797500D03*
D12*
X154050000Y-94110000D03*
X154050000Y-93610000D03*
X154050000Y-93110000D03*
X154050000Y-92610000D03*
X154050000Y-92110000D03*
X154050000Y-91610000D03*
X154050000Y-91110000D03*
X154050000Y-90610000D03*
X154050000Y-90110000D03*
X154050000Y-89610000D03*
X154050000Y-89110000D03*
X154050000Y-88610000D03*
D13*
X153362500Y-87922500D03*
X152862500Y-87922500D03*
X152362500Y-87922500D03*
X151862500Y-87922500D03*
X151362500Y-87922500D03*
X150862500Y-87922500D03*
X150362500Y-87922500D03*
X149862500Y-87922500D03*
X149362500Y-87922500D03*
X148862500Y-87922500D03*
X148362500Y-87922500D03*
X147862500Y-87922500D03*
D14*
X143330000Y-51550000D03*
X141044000Y-51550000D03*
D10*
X143925000Y-114200000D03*
X143925000Y-111075000D03*
D15*
X188590000Y-93989999D03*
X188590000Y-97090001D03*
D16*
X145288000Y-94308001D03*
X145288000Y-92583001D03*
D17*
X147475000Y-110945000D03*
D18*
X148275000Y-110957500D03*
D19*
X149425000Y-111010000D03*
X150425000Y-111010000D03*
X150925000Y-111010000D03*
X151925000Y-111010000D03*
D18*
X153075000Y-110957500D03*
D17*
X153875000Y-110945000D03*
X153875000Y-110945000D03*
D18*
X153075000Y-110957500D03*
D19*
X152425000Y-111010000D03*
X151425000Y-111010000D03*
X149925000Y-111010000D03*
X148925000Y-111010000D03*
D18*
X148275000Y-110957500D03*
D17*
X147475000Y-110945000D03*
D20*
X130990000Y-97010000D03*
X130990000Y-100135000D03*
X149480000Y-103875000D03*
X149480000Y-107000000D03*
D10*
X157450000Y-114180000D03*
X157450000Y-111055000D03*
D21*
X186025000Y-87900000D03*
X182443600Y-87900000D03*
D22*
X128720000Y-100160000D03*
X128720000Y-97060000D03*
D10*
X188620000Y-91870000D03*
X188620000Y-88745000D03*
D23*
X143870000Y-83315002D03*
X143870000Y-85040002D03*
D24*
X171425000Y-53857500D03*
X168885000Y-53857500D03*
X166345000Y-53857500D03*
X158745000Y-53857500D03*
X156205000Y-53857500D03*
X153665000Y-53857500D03*
X151125000Y-53857500D03*
X148585000Y-53857500D03*
X146045000Y-53857500D03*
X143505000Y-53857500D03*
X140965000Y-53857500D03*
X140965000Y-77007500D03*
X143505000Y-77007500D03*
X146045000Y-77007500D03*
X148585000Y-77007500D03*
X151125000Y-77007500D03*
X153665000Y-77007500D03*
X156205000Y-77007500D03*
X158745000Y-77007500D03*
X166345000Y-77007500D03*
X168885000Y-77007500D03*
X171425000Y-77007500D03*
D25*
X126750002Y-95270698D03*
X130450000Y-95270698D03*
X130450000Y-88910000D03*
X126750002Y-88910000D03*
D26*
X172049999Y-101839999D03*
X172049999Y-103739999D03*
X173925000Y-102789999D03*
D20*
X130049999Y-72357849D03*
X130049999Y-75482849D03*
D27*
X156925000Y-101600000D03*
X153825000Y-101600000D03*
D28*
X141910000Y-81320001D03*
X141910000Y-83820001D03*
D29*
X136275000Y-84974999D03*
X136275000Y-96849999D03*
D30*
X153214999Y-96266000D03*
X154939999Y-96266000D03*
D23*
X155575000Y-86920999D03*
X155575000Y-88645999D03*
D10*
X140075000Y-89150000D03*
X140075000Y-86025000D03*
D15*
X186320000Y-95400000D03*
X186320000Y-98500002D03*
D31*
X148156001Y-86487000D03*
X146431001Y-86487000D03*
D23*
X143860000Y-80015002D03*
X143860000Y-81740002D03*
D14*
X174501400Y-85193601D03*
X174501400Y-87479601D03*
D10*
X180172501Y-87904601D03*
X180172501Y-84779601D03*
D32*
X156950000Y-99300000D03*
X153825000Y-99300000D03*
D20*
X140075000Y-92550000D03*
X140075000Y-95675000D03*
D25*
X130609999Y-77129651D03*
X126910001Y-77129651D03*
X126910001Y-83490349D03*
X130609999Y-83490349D03*
D33*
X184253899Y-91799600D03*
X184253899Y-92749600D03*
X184253899Y-93699600D03*
X186528899Y-93699600D03*
X186528899Y-92749600D03*
X186528899Y-91799600D03*
D20*
X151800000Y-103875000D03*
X151800000Y-107000000D03*
D34*
X162550000Y-110325000D03*
X165850000Y-110325000D03*
X165850000Y-105425000D03*
X162550000Y-105425000D03*
D15*
X127399999Y-72350349D03*
X127399999Y-75450349D03*
D10*
X176620000Y-87904601D03*
X176620000Y-84779601D03*
X182178899Y-95004601D03*
X182178899Y-91879601D03*
X176065000Y-103550000D03*
X176065000Y-100425000D03*
M02*
