G04 #@! TF.GenerationSoftware,KiCad,Pcbnew,8.0.5*
G04 #@! TF.CreationDate,2025-03-07T10:13:00-08:00*
G04 #@! TF.ProjectId,Telemetry PCB V2,54656c65-6d65-4747-9279-205043422056,rev?*
G04 #@! TF.SameCoordinates,Original*
G04 #@! TF.FileFunction,Copper,L4,Bot*
G04 #@! TF.FilePolarity,Positive*
%FSLAX46Y46*%
G04 Gerber Fmt 4.6, Leading zero omitted, Abs format (unit mm)*
G04 Created by KiCad (PCBNEW 8.0.5) date 2025-03-07 10:13:00*
%MOMM*%
%LPD*%
G01*
G04 APERTURE LIST*
G04 Aperture macros list*
%AMRoundRect*
0 Rectangle with rounded corners*
0 $1 Rounding radius*
0 $2 $3 $4 $5 $6 $7 $8 $9 X,Y pos of 4 corners*
0 Add a 4 corners polygon primitive as box body*
4,1,4,$2,$3,$4,$5,$6,$7,$8,$9,$2,$3,0*
0 Add four circle primitives for the rounded corners*
1,1,$1+$1,$2,$3*
1,1,$1+$1,$4,$5*
1,1,$1+$1,$6,$7*
1,1,$1+$1,$8,$9*
0 Add four rect primitives between the rounded corners*
20,1,$1+$1,$2,$3,$4,$5,0*
20,1,$1+$1,$4,$5,$6,$7,0*
20,1,$1+$1,$6,$7,$8,$9,0*
20,1,$1+$1,$8,$9,$2,$3,0*%
%AMHorizOval*
0 Thick line with rounded ends*
0 $1 width*
0 $2 $3 position (X,Y) of the first rounded end (center of the circle)*
0 $4 $5 position (X,Y) of the second rounded end (center of the circle)*
0 Add line between two ends*
20,1,$1,$2,$3,$4,$5,0*
0 Add two circle primitives to create the rounded ends*
1,1,$1,$2,$3*
1,1,$1,$4,$5*%
G04 Aperture macros list end*
G04 #@! TA.AperFunction,ComponentPad*
%ADD10O,1.000000X2.100000*%
G04 #@! TD*
G04 #@! TA.AperFunction,ComponentPad*
%ADD11O,1.000000X1.600000*%
G04 #@! TD*
G04 #@! TA.AperFunction,ComponentPad*
%ADD12C,2.000000*%
G04 #@! TD*
G04 #@! TA.AperFunction,ComponentPad*
%ADD13R,1.700000X1.700000*%
G04 #@! TD*
G04 #@! TA.AperFunction,ComponentPad*
%ADD14O,1.700000X1.700000*%
G04 #@! TD*
G04 #@! TA.AperFunction,ComponentPad*
%ADD15RoundRect,0.250000X0.088388X-0.936916X0.936916X-0.088388X-0.088388X0.936916X-0.936916X0.088388X0*%
G04 #@! TD*
G04 #@! TA.AperFunction,ComponentPad*
%ADD16HorizOval,1.700000X-0.088388X0.088388X0.088388X-0.088388X0*%
G04 #@! TD*
G04 #@! TA.AperFunction,ComponentPad*
%ADD17RoundRect,0.250000X-0.750000X0.600000X-0.750000X-0.600000X0.750000X-0.600000X0.750000X0.600000X0*%
G04 #@! TD*
G04 #@! TA.AperFunction,ComponentPad*
%ADD18O,2.000000X1.700000*%
G04 #@! TD*
G04 #@! TA.AperFunction,ViaPad*
%ADD19C,1.000000*%
G04 #@! TD*
G04 #@! TA.AperFunction,ViaPad*
%ADD20C,0.900000*%
G04 #@! TD*
G04 #@! TA.AperFunction,ViaPad*
%ADD21C,1.200000*%
G04 #@! TD*
G04 #@! TA.AperFunction,ViaPad*
%ADD22C,0.800000*%
G04 #@! TD*
G04 #@! TA.AperFunction,ViaPad*
%ADD23C,1.600000*%
G04 #@! TD*
G04 #@! TA.AperFunction,Conductor*
%ADD24C,0.250000*%
G04 #@! TD*
G04 APERTURE END LIST*
D10*
X146355000Y-111650000D03*
D11*
X146355000Y-115830000D03*
D10*
X154995000Y-111650000D03*
D11*
X154995000Y-115830000D03*
D12*
X168770000Y-89190000D03*
D13*
X170256396Y-82010000D03*
D14*
X167716396Y-82010000D03*
X165176396Y-82010000D03*
X162636396Y-82010000D03*
D13*
X170220000Y-95970000D03*
D14*
X167680000Y-95970000D03*
X165140001Y-95970000D03*
X162600000Y-95970000D03*
D15*
X140964466Y-103685534D03*
D16*
X142732233Y-101917767D03*
X144500000Y-100150000D03*
D12*
X164170000Y-89120000D03*
X185580000Y-73410000D03*
X185630000Y-66660000D03*
D17*
X178178899Y-91879602D03*
D18*
X178178899Y-94379602D03*
D19*
X165820000Y-104070000D03*
X143500000Y-55500000D03*
X158740000Y-55590000D03*
X171410000Y-75280000D03*
D20*
X142780000Y-80020000D03*
D19*
X171430000Y-55600000D03*
X166340000Y-55590000D03*
D21*
X178400000Y-87900000D03*
D22*
X130990000Y-98870000D03*
D19*
X153212800Y-97434400D03*
D22*
X128700000Y-71200000D03*
D21*
X173000000Y-100400000D03*
D22*
X143935000Y-109810000D03*
X184800000Y-98500000D03*
D19*
X140960000Y-55500000D03*
D22*
X157450000Y-109775000D03*
D19*
X158175000Y-100475000D03*
X168880000Y-55600000D03*
X148132800Y-85293200D03*
X140960000Y-75280000D03*
X143953364Y-93153364D03*
X156200000Y-55590000D03*
X140110000Y-90900000D03*
X156758982Y-88585382D03*
X166330000Y-75280000D03*
D20*
X142790000Y-85050000D03*
D22*
X128580000Y-88910000D03*
D21*
X169200000Y-105050000D03*
D19*
X144101591Y-94344177D03*
X156768800Y-86918800D03*
D22*
X128720000Y-98909999D03*
D21*
X170500000Y-105000000D03*
D22*
X128740000Y-83430000D03*
D19*
X146405600Y-85293200D03*
X154940000Y-97434400D03*
D22*
X149550000Y-82230000D03*
X131400000Y-76370000D03*
D21*
X174200000Y-101700000D03*
D23*
X148300000Y-109200000D03*
D21*
X174250000Y-103900000D03*
D19*
X174160000Y-98490000D03*
D23*
X153100000Y-109200000D03*
X147000000Y-51550000D03*
X145050000Y-51600000D03*
X176500000Y-82700000D03*
D22*
X188590000Y-98409999D03*
D23*
X181400000Y-82700000D03*
D19*
X162520000Y-111679999D03*
D23*
X178900000Y-82700000D03*
D19*
X153700000Y-55630000D03*
X159164136Y-89392740D03*
X157892816Y-89785000D03*
X151120000Y-55590000D03*
D24*
X149550000Y-82230000D02*
X146020000Y-78700000D01*
X134480000Y-78700000D02*
X132150000Y-76370000D01*
X132150000Y-76370000D02*
X131400000Y-76370000D01*
X146020000Y-78700000D02*
X134480000Y-78700000D01*
X159164136Y-89392740D02*
X159164136Y-79849864D01*
X153720000Y-60220000D02*
X153720000Y-55530000D01*
X160020000Y-78994000D02*
X160020000Y-66520000D01*
X160020000Y-66520000D02*
X153720000Y-60220000D01*
X159164136Y-79849864D02*
X160020000Y-78994000D01*
X157480000Y-66460000D02*
X151170000Y-60150000D01*
X151170000Y-60150000D02*
X151170000Y-55450000D01*
X151170000Y-55450000D02*
X151130000Y-55410000D01*
X157480000Y-78994000D02*
X157480000Y-66460000D01*
X157892816Y-89785000D02*
X157892816Y-79406816D01*
X157892816Y-79406816D02*
X157480000Y-78994000D01*
G04 #@! TA.AperFunction,Conductor*
G36*
X149080071Y-81579252D02*
G01*
X149692760Y-81855793D01*
X149698891Y-81862320D01*
X149698767Y-81870909D01*
X149552563Y-82226195D01*
X149546245Y-82232542D01*
X149546195Y-82232563D01*
X149190909Y-82378767D01*
X149181955Y-82378746D01*
X149175793Y-82372760D01*
X149111676Y-82230707D01*
X148949279Y-81870909D01*
X148899252Y-81760071D01*
X148898972Y-81751121D01*
X148901641Y-81746987D01*
X149066986Y-81581642D01*
X149075258Y-81578216D01*
X149080071Y-81579252D01*
G37*
G04 #@! TD.AperFunction*
G04 #@! TA.AperFunction,Conductor*
G36*
X131563786Y-76005155D02*
G01*
X131563959Y-76005229D01*
X132258072Y-76310084D01*
X132264269Y-76316548D01*
X132264079Y-76325501D01*
X132261640Y-76329069D01*
X132098476Y-76492233D01*
X132095021Y-76494622D01*
X131564067Y-76734582D01*
X131555117Y-76734866D01*
X131548587Y-76728738D01*
X131548457Y-76728438D01*
X131401159Y-76373788D01*
X131401151Y-76364836D01*
X131548485Y-76011451D01*
X131554832Y-76005134D01*
X131563786Y-76005155D01*
G37*
G04 #@! TD.AperFunction*
G04 #@! TA.AperFunction,Conductor*
G36*
X154151345Y-55816930D02*
G01*
X154157666Y-55823274D01*
X154157734Y-55832019D01*
X153847919Y-56618610D01*
X153841699Y-56625051D01*
X153837033Y-56626022D01*
X153602609Y-56626022D01*
X153594336Y-56622595D01*
X153591914Y-56619066D01*
X153242914Y-55832285D01*
X153242692Y-55823333D01*
X153248865Y-55816846D01*
X153249112Y-55816740D01*
X153695504Y-55630871D01*
X153704455Y-55630855D01*
X154151345Y-55816930D01*
G37*
G04 #@! TD.AperFunction*
G04 #@! TA.AperFunction,Conductor*
G36*
X151570508Y-55776582D02*
G01*
X151571661Y-55777062D01*
X151577982Y-55783406D01*
X151578175Y-55791819D01*
X151297782Y-56572310D01*
X151291760Y-56578937D01*
X151286771Y-56580054D01*
X151052332Y-56580054D01*
X151044059Y-56576627D01*
X151041803Y-56573455D01*
X150663458Y-55792484D01*
X150662935Y-55783545D01*
X150668886Y-55776854D01*
X150669466Y-55776592D01*
X151115504Y-55590871D01*
X151124455Y-55590855D01*
X151570508Y-55776582D01*
G37*
G04 #@! TD.AperFunction*
M02*
