G04 #@! TF.GenerationSoftware,KiCad,Pcbnew,9.0.3*
G04 #@! TF.CreationDate,2025-07-24T20:29:08-07:00*
G04 #@! TF.ProjectId,Telemetry PCB V2,54656c65-6d65-4747-9279-205043422056,rev?*
G04 #@! TF.SameCoordinates,Original*
G04 #@! TF.FileFunction,Copper,L1,Top*
G04 #@! TF.FilePolarity,Positive*
%FSLAX46Y46*%
G04 Gerber Fmt 4.6, Leading zero omitted, Abs format (unit mm)*
G04 Created by KiCad (PCBNEW 9.0.3) date 2025-07-24 20:29:08*
%MOMM*%
%LPD*%
G01*
G04 APERTURE LIST*
G04 Aperture macros list*
%AMRoundRect*
0 Rectangle with rounded corners*
0 $1 Rounding radius*
0 $2 $3 $4 $5 $6 $7 $8 $9 X,Y pos of 4 corners*
0 Add a 4 corners polygon primitive as box body*
4,1,4,$2,$3,$4,$5,$6,$7,$8,$9,$2,$3,0*
0 Add four circle primitives for the rounded corners*
1,1,$1+$1,$2,$3*
1,1,$1+$1,$4,$5*
1,1,$1+$1,$6,$7*
1,1,$1+$1,$8,$9*
0 Add four rect primitives between the rounded corners*
20,1,$1+$1,$2,$3,$4,$5,0*
20,1,$1+$1,$4,$5,$6,$7,0*
20,1,$1+$1,$6,$7,$8,$9,0*
20,1,$1+$1,$8,$9,$2,$3,0*%
G04 Aperture macros list end*
%ADD10C,0.300000*%
G04 #@! TA.AperFunction,NonConductor*
%ADD11C,0.300000*%
G04 #@! TD*
G04 #@! TA.AperFunction,NonConductor*
%ADD12C,0.200000*%
G04 #@! TD*
G04 #@! TA.AperFunction,SMDPad,CuDef*
%ADD13RoundRect,0.250000X0.650000X-0.412500X0.650000X0.412500X-0.650000X0.412500X-0.650000X-0.412500X0*%
G04 #@! TD*
G04 #@! TA.AperFunction,SMDPad,CuDef*
%ADD14RoundRect,0.062500X-0.375000X-0.062500X0.375000X-0.062500X0.375000X0.062500X-0.375000X0.062500X0*%
G04 #@! TD*
G04 #@! TA.AperFunction,SMDPad,CuDef*
%ADD15RoundRect,0.062500X-0.062500X-0.375000X0.062500X-0.375000X0.062500X0.375000X-0.062500X0.375000X0*%
G04 #@! TD*
G04 #@! TA.AperFunction,HeatsinkPad*
%ADD16R,5.600000X5.600000*%
G04 #@! TD*
G04 #@! TA.AperFunction,SMDPad,CuDef*
%ADD17R,0.711200X0.711200*%
G04 #@! TD*
G04 #@! TA.AperFunction,SMDPad,CuDef*
%ADD18RoundRect,0.250000X-0.625000X0.400000X-0.625000X-0.400000X0.625000X-0.400000X0.625000X0.400000X0*%
G04 #@! TD*
G04 #@! TA.AperFunction,SMDPad,CuDef*
%ADD19RoundRect,0.237500X0.237500X-0.300000X0.237500X0.300000X-0.237500X0.300000X-0.237500X-0.300000X0*%
G04 #@! TD*
G04 #@! TA.AperFunction,SMDPad,CuDef*
%ADD20R,0.950500X0.558800*%
G04 #@! TD*
G04 #@! TA.AperFunction,SMDPad,CuDef*
%ADD21RoundRect,0.150000X-0.150000X-0.435000X0.150000X-0.435000X0.150000X0.435000X-0.150000X0.435000X0*%
G04 #@! TD*
G04 #@! TA.AperFunction,SMDPad,CuDef*
%ADD22RoundRect,0.150000X-0.150000X-0.447500X0.150000X-0.447500X0.150000X0.447500X-0.150000X0.447500X0*%
G04 #@! TD*
G04 #@! TA.AperFunction,SMDPad,CuDef*
%ADD23RoundRect,0.075000X-0.075000X-0.575000X0.075000X-0.575000X0.075000X0.575000X-0.075000X0.575000X0*%
G04 #@! TD*
G04 #@! TA.AperFunction,ComponentPad*
%ADD24O,1.000000X2.100000*%
G04 #@! TD*
G04 #@! TA.AperFunction,ComponentPad*
%ADD25O,1.000000X1.600000*%
G04 #@! TD*
G04 #@! TA.AperFunction,SMDPad,CuDef*
%ADD26RoundRect,0.250000X-0.650000X0.412500X-0.650000X-0.412500X0.650000X-0.412500X0.650000X0.412500X0*%
G04 #@! TD*
G04 #@! TA.AperFunction,SMDPad,CuDef*
%ADD27R,1.498600X3.987800*%
G04 #@! TD*
G04 #@! TA.AperFunction,ComponentPad*
%ADD28R,1.700000X1.700000*%
G04 #@! TD*
G04 #@! TA.AperFunction,ComponentPad*
%ADD29O,1.700000X1.700000*%
G04 #@! TD*
G04 #@! TA.AperFunction,SMDPad,CuDef*
%ADD30RoundRect,0.250000X0.625000X-0.400000X0.625000X0.400000X-0.625000X0.400000X-0.625000X-0.400000X0*%
G04 #@! TD*
G04 #@! TA.AperFunction,SMDPad,CuDef*
%ADD31RoundRect,0.237500X-0.237500X0.300000X-0.237500X-0.300000X0.237500X-0.300000X0.237500X0.300000X0*%
G04 #@! TD*
G04 #@! TA.AperFunction,SMDPad,CuDef*
%ADD32R,1.510000X2.080000*%
G04 #@! TD*
G04 #@! TA.AperFunction,SMDPad,CuDef*
%ADD33RoundRect,0.150000X-0.587500X-0.150000X0.587500X-0.150000X0.587500X0.150000X-0.587500X0.150000X0*%
G04 #@! TD*
G04 #@! TA.AperFunction,ComponentPad*
%ADD34RoundRect,0.250000X-0.600000X-0.750000X0.600000X-0.750000X0.600000X0.750000X-0.600000X0.750000X0*%
G04 #@! TD*
G04 #@! TA.AperFunction,ComponentPad*
%ADD35O,1.700000X2.000000*%
G04 #@! TD*
G04 #@! TA.AperFunction,SMDPad,CuDef*
%ADD36RoundRect,0.250000X-0.312500X-0.625000X0.312500X-0.625000X0.312500X0.625000X-0.312500X0.625000X0*%
G04 #@! TD*
G04 #@! TA.AperFunction,SMDPad,CuDef*
%ADD37R,1.900000X1.100000*%
G04 #@! TD*
G04 #@! TA.AperFunction,SMDPad,CuDef*
%ADD38R,2.000000X7.875000*%
G04 #@! TD*
G04 #@! TA.AperFunction,SMDPad,CuDef*
%ADD39RoundRect,0.237500X-0.300000X-0.237500X0.300000X-0.237500X0.300000X0.237500X-0.300000X0.237500X0*%
G04 #@! TD*
G04 #@! TA.AperFunction,SMDPad,CuDef*
%ADD40RoundRect,0.237500X0.300000X0.237500X-0.300000X0.237500X-0.300000X-0.237500X0.300000X-0.237500X0*%
G04 #@! TD*
G04 #@! TA.AperFunction,SMDPad,CuDef*
%ADD41RoundRect,0.150000X-0.512500X-0.150000X0.512500X-0.150000X0.512500X0.150000X-0.512500X0.150000X0*%
G04 #@! TD*
G04 #@! TA.AperFunction,SMDPad,CuDef*
%ADD42RoundRect,0.250000X0.375000X0.625000X-0.375000X0.625000X-0.375000X-0.625000X0.375000X-0.625000X0*%
G04 #@! TD*
G04 #@! TA.AperFunction,ComponentPad*
%ADD43RoundRect,0.250000X-0.600000X-0.725000X0.600000X-0.725000X0.600000X0.725000X-0.600000X0.725000X0*%
G04 #@! TD*
G04 #@! TA.AperFunction,ComponentPad*
%ADD44O,1.700000X1.950000*%
G04 #@! TD*
G04 #@! TA.AperFunction,SMDPad,CuDef*
%ADD45RoundRect,0.090000X0.660000X0.360000X-0.660000X0.360000X-0.660000X-0.360000X0.660000X-0.360000X0*%
G04 #@! TD*
G04 #@! TA.AperFunction,ComponentPad*
%ADD46C,2.000000*%
G04 #@! TD*
G04 #@! TA.AperFunction,ComponentPad*
%ADD47RoundRect,0.250000X-0.750000X0.600000X-0.750000X-0.600000X0.750000X-0.600000X0.750000X0.600000X0*%
G04 #@! TD*
G04 #@! TA.AperFunction,ComponentPad*
%ADD48O,2.000000X1.700000*%
G04 #@! TD*
G04 #@! TA.AperFunction,ViaPad*
%ADD49C,1.000000*%
G04 #@! TD*
G04 #@! TA.AperFunction,ViaPad*
%ADD50C,0.900000*%
G04 #@! TD*
G04 #@! TA.AperFunction,ViaPad*
%ADD51C,1.200000*%
G04 #@! TD*
G04 #@! TA.AperFunction,ViaPad*
%ADD52C,0.800000*%
G04 #@! TD*
G04 #@! TA.AperFunction,ViaPad*
%ADD53C,1.600000*%
G04 #@! TD*
G04 #@! TA.AperFunction,Conductor*
%ADD54C,0.250000*%
G04 #@! TD*
G04 #@! TA.AperFunction,Conductor*
%ADD55C,1.000000*%
G04 #@! TD*
G04 #@! TA.AperFunction,Conductor*
%ADD56C,0.800000*%
G04 #@! TD*
G04 #@! TA.AperFunction,Conductor*
%ADD57C,1.200000*%
G04 #@! TD*
G04 #@! TA.AperFunction,Conductor*
%ADD58C,0.350000*%
G04 #@! TD*
G04 #@! TA.AperFunction,Conductor*
%ADD59C,0.600000*%
G04 #@! TD*
G04 #@! TA.AperFunction,Conductor*
%ADD60C,0.700000*%
G04 #@! TD*
G04 #@! TA.AperFunction,Conductor*
%ADD61C,0.200000*%
G04 #@! TD*
G04 APERTURE END LIST*
D10*
D11*
X150870001Y-42248328D02*
X151870001Y-42248328D01*
X151870001Y-42248328D02*
X151227144Y-43748328D01*
X152727144Y-42248328D02*
X152870001Y-42248328D01*
X152870001Y-42248328D02*
X153012858Y-42319757D01*
X153012858Y-42319757D02*
X153084287Y-42391185D01*
X153084287Y-42391185D02*
X153155715Y-42534042D01*
X153155715Y-42534042D02*
X153227144Y-42819757D01*
X153227144Y-42819757D02*
X153227144Y-43176900D01*
X153227144Y-43176900D02*
X153155715Y-43462614D01*
X153155715Y-43462614D02*
X153084287Y-43605471D01*
X153084287Y-43605471D02*
X153012858Y-43676900D01*
X153012858Y-43676900D02*
X152870001Y-43748328D01*
X152870001Y-43748328D02*
X152727144Y-43748328D01*
X152727144Y-43748328D02*
X152584287Y-43676900D01*
X152584287Y-43676900D02*
X152512858Y-43605471D01*
X152512858Y-43605471D02*
X152441429Y-43462614D01*
X152441429Y-43462614D02*
X152370001Y-43176900D01*
X152370001Y-43176900D02*
X152370001Y-42819757D01*
X152370001Y-42819757D02*
X152441429Y-42534042D01*
X152441429Y-42534042D02*
X152512858Y-42391185D01*
X152512858Y-42391185D02*
X152584287Y-42319757D01*
X152584287Y-42319757D02*
X152727144Y-42248328D01*
X153870000Y-43605471D02*
X153941429Y-43676900D01*
X153941429Y-43676900D02*
X153870000Y-43748328D01*
X153870000Y-43748328D02*
X153798572Y-43676900D01*
X153798572Y-43676900D02*
X153870000Y-43605471D01*
X153870000Y-43605471D02*
X153870000Y-43748328D01*
X154870001Y-42248328D02*
X155012858Y-42248328D01*
X155012858Y-42248328D02*
X155155715Y-42319757D01*
X155155715Y-42319757D02*
X155227144Y-42391185D01*
X155227144Y-42391185D02*
X155298572Y-42534042D01*
X155298572Y-42534042D02*
X155370001Y-42819757D01*
X155370001Y-42819757D02*
X155370001Y-43176900D01*
X155370001Y-43176900D02*
X155298572Y-43462614D01*
X155298572Y-43462614D02*
X155227144Y-43605471D01*
X155227144Y-43605471D02*
X155155715Y-43676900D01*
X155155715Y-43676900D02*
X155012858Y-43748328D01*
X155012858Y-43748328D02*
X154870001Y-43748328D01*
X154870001Y-43748328D02*
X154727144Y-43676900D01*
X154727144Y-43676900D02*
X154655715Y-43605471D01*
X154655715Y-43605471D02*
X154584286Y-43462614D01*
X154584286Y-43462614D02*
X154512858Y-43176900D01*
X154512858Y-43176900D02*
X154512858Y-42819757D01*
X154512858Y-42819757D02*
X154584286Y-42534042D01*
X154584286Y-42534042D02*
X154655715Y-42391185D01*
X154655715Y-42391185D02*
X154727144Y-42319757D01*
X154727144Y-42319757D02*
X154870001Y-42248328D01*
X156298572Y-42248328D02*
X156441429Y-42248328D01*
X156441429Y-42248328D02*
X156584286Y-42319757D01*
X156584286Y-42319757D02*
X156655715Y-42391185D01*
X156655715Y-42391185D02*
X156727143Y-42534042D01*
X156727143Y-42534042D02*
X156798572Y-42819757D01*
X156798572Y-42819757D02*
X156798572Y-43176900D01*
X156798572Y-43176900D02*
X156727143Y-43462614D01*
X156727143Y-43462614D02*
X156655715Y-43605471D01*
X156655715Y-43605471D02*
X156584286Y-43676900D01*
X156584286Y-43676900D02*
X156441429Y-43748328D01*
X156441429Y-43748328D02*
X156298572Y-43748328D01*
X156298572Y-43748328D02*
X156155715Y-43676900D01*
X156155715Y-43676900D02*
X156084286Y-43605471D01*
X156084286Y-43605471D02*
X156012857Y-43462614D01*
X156012857Y-43462614D02*
X155941429Y-43176900D01*
X155941429Y-43176900D02*
X155941429Y-42819757D01*
X155941429Y-42819757D02*
X156012857Y-42534042D01*
X156012857Y-42534042D02*
X156084286Y-42391185D01*
X156084286Y-42391185D02*
X156155715Y-42319757D01*
X156155715Y-42319757D02*
X156298572Y-42248328D01*
X157727143Y-42248328D02*
X157870000Y-42248328D01*
X157870000Y-42248328D02*
X158012857Y-42319757D01*
X158012857Y-42319757D02*
X158084286Y-42391185D01*
X158084286Y-42391185D02*
X158155714Y-42534042D01*
X158155714Y-42534042D02*
X158227143Y-42819757D01*
X158227143Y-42819757D02*
X158227143Y-43176900D01*
X158227143Y-43176900D02*
X158155714Y-43462614D01*
X158155714Y-43462614D02*
X158084286Y-43605471D01*
X158084286Y-43605471D02*
X158012857Y-43676900D01*
X158012857Y-43676900D02*
X157870000Y-43748328D01*
X157870000Y-43748328D02*
X157727143Y-43748328D01*
X157727143Y-43748328D02*
X157584286Y-43676900D01*
X157584286Y-43676900D02*
X157512857Y-43605471D01*
X157512857Y-43605471D02*
X157441428Y-43462614D01*
X157441428Y-43462614D02*
X157370000Y-43176900D01*
X157370000Y-43176900D02*
X157370000Y-42819757D01*
X157370000Y-42819757D02*
X157441428Y-42534042D01*
X157441428Y-42534042D02*
X157512857Y-42391185D01*
X157512857Y-42391185D02*
X157584286Y-42319757D01*
X157584286Y-42319757D02*
X157727143Y-42248328D01*
X159155714Y-42248328D02*
X159298571Y-42248328D01*
X159298571Y-42248328D02*
X159441428Y-42319757D01*
X159441428Y-42319757D02*
X159512857Y-42391185D01*
X159512857Y-42391185D02*
X159584285Y-42534042D01*
X159584285Y-42534042D02*
X159655714Y-42819757D01*
X159655714Y-42819757D02*
X159655714Y-43176900D01*
X159655714Y-43176900D02*
X159584285Y-43462614D01*
X159584285Y-43462614D02*
X159512857Y-43605471D01*
X159512857Y-43605471D02*
X159441428Y-43676900D01*
X159441428Y-43676900D02*
X159298571Y-43748328D01*
X159298571Y-43748328D02*
X159155714Y-43748328D01*
X159155714Y-43748328D02*
X159012857Y-43676900D01*
X159012857Y-43676900D02*
X158941428Y-43605471D01*
X158941428Y-43605471D02*
X158869999Y-43462614D01*
X158869999Y-43462614D02*
X158798571Y-43176900D01*
X158798571Y-43176900D02*
X158798571Y-42819757D01*
X158798571Y-42819757D02*
X158869999Y-42534042D01*
X158869999Y-42534042D02*
X158941428Y-42391185D01*
X158941428Y-42391185D02*
X159012857Y-42319757D01*
X159012857Y-42319757D02*
X159155714Y-42248328D01*
X161441427Y-43748328D02*
X161441427Y-42748328D01*
X161441427Y-42891185D02*
X161512856Y-42819757D01*
X161512856Y-42819757D02*
X161655713Y-42748328D01*
X161655713Y-42748328D02*
X161869999Y-42748328D01*
X161869999Y-42748328D02*
X162012856Y-42819757D01*
X162012856Y-42819757D02*
X162084285Y-42962614D01*
X162084285Y-42962614D02*
X162084285Y-43748328D01*
X162084285Y-42962614D02*
X162155713Y-42819757D01*
X162155713Y-42819757D02*
X162298570Y-42748328D01*
X162298570Y-42748328D02*
X162512856Y-42748328D01*
X162512856Y-42748328D02*
X162655713Y-42819757D01*
X162655713Y-42819757D02*
X162727142Y-42962614D01*
X162727142Y-42962614D02*
X162727142Y-43748328D01*
X163441427Y-43748328D02*
X163441427Y-42748328D01*
X163441427Y-42891185D02*
X163512856Y-42819757D01*
X163512856Y-42819757D02*
X163655713Y-42748328D01*
X163655713Y-42748328D02*
X163869999Y-42748328D01*
X163869999Y-42748328D02*
X164012856Y-42819757D01*
X164012856Y-42819757D02*
X164084285Y-42962614D01*
X164084285Y-42962614D02*
X164084285Y-43748328D01*
X164084285Y-42962614D02*
X164155713Y-42819757D01*
X164155713Y-42819757D02*
X164298570Y-42748328D01*
X164298570Y-42748328D02*
X164512856Y-42748328D01*
X164512856Y-42748328D02*
X164655713Y-42819757D01*
X164655713Y-42819757D02*
X164727142Y-42962614D01*
X164727142Y-42962614D02*
X164727142Y-43748328D01*
D12*
X122870000Y-47950000D02*
X122870000Y-44283580D01*
X192870000Y-47950000D02*
X192870000Y-44283580D01*
X122870000Y-44870000D02*
X192870000Y-44870000D01*
X122870000Y-44870000D02*
X123996504Y-44283579D01*
X122870000Y-44870000D02*
X123996504Y-45456421D01*
X192870000Y-44870000D02*
X191743496Y-45456421D01*
X192870000Y-44870000D02*
X191743496Y-44283579D01*
D10*
D11*
X115108329Y-90449998D02*
X115108329Y-89449998D01*
X115108329Y-89449998D02*
X116608329Y-90092855D01*
X115108329Y-88592855D02*
X115108329Y-88449998D01*
X115108329Y-88449998D02*
X115179758Y-88307141D01*
X115179758Y-88307141D02*
X115251186Y-88235713D01*
X115251186Y-88235713D02*
X115394043Y-88164284D01*
X115394043Y-88164284D02*
X115679758Y-88092855D01*
X115679758Y-88092855D02*
X116036901Y-88092855D01*
X116036901Y-88092855D02*
X116322615Y-88164284D01*
X116322615Y-88164284D02*
X116465472Y-88235713D01*
X116465472Y-88235713D02*
X116536901Y-88307141D01*
X116536901Y-88307141D02*
X116608329Y-88449998D01*
X116608329Y-88449998D02*
X116608329Y-88592855D01*
X116608329Y-88592855D02*
X116536901Y-88735713D01*
X116536901Y-88735713D02*
X116465472Y-88807141D01*
X116465472Y-88807141D02*
X116322615Y-88878570D01*
X116322615Y-88878570D02*
X116036901Y-88949998D01*
X116036901Y-88949998D02*
X115679758Y-88949998D01*
X115679758Y-88949998D02*
X115394043Y-88878570D01*
X115394043Y-88878570D02*
X115251186Y-88807141D01*
X115251186Y-88807141D02*
X115179758Y-88735713D01*
X115179758Y-88735713D02*
X115108329Y-88592855D01*
X116465472Y-87449999D02*
X116536901Y-87378570D01*
X116536901Y-87378570D02*
X116608329Y-87449999D01*
X116608329Y-87449999D02*
X116536901Y-87521427D01*
X116536901Y-87521427D02*
X116465472Y-87449999D01*
X116465472Y-87449999D02*
X116608329Y-87449999D01*
X115108329Y-86449998D02*
X115108329Y-86307141D01*
X115108329Y-86307141D02*
X115179758Y-86164284D01*
X115179758Y-86164284D02*
X115251186Y-86092856D01*
X115251186Y-86092856D02*
X115394043Y-86021427D01*
X115394043Y-86021427D02*
X115679758Y-85949998D01*
X115679758Y-85949998D02*
X116036901Y-85949998D01*
X116036901Y-85949998D02*
X116322615Y-86021427D01*
X116322615Y-86021427D02*
X116465472Y-86092856D01*
X116465472Y-86092856D02*
X116536901Y-86164284D01*
X116536901Y-86164284D02*
X116608329Y-86307141D01*
X116608329Y-86307141D02*
X116608329Y-86449998D01*
X116608329Y-86449998D02*
X116536901Y-86592856D01*
X116536901Y-86592856D02*
X116465472Y-86664284D01*
X116465472Y-86664284D02*
X116322615Y-86735713D01*
X116322615Y-86735713D02*
X116036901Y-86807141D01*
X116036901Y-86807141D02*
X115679758Y-86807141D01*
X115679758Y-86807141D02*
X115394043Y-86735713D01*
X115394043Y-86735713D02*
X115251186Y-86664284D01*
X115251186Y-86664284D02*
X115179758Y-86592856D01*
X115179758Y-86592856D02*
X115108329Y-86449998D01*
X115108329Y-85021427D02*
X115108329Y-84878570D01*
X115108329Y-84878570D02*
X115179758Y-84735713D01*
X115179758Y-84735713D02*
X115251186Y-84664285D01*
X115251186Y-84664285D02*
X115394043Y-84592856D01*
X115394043Y-84592856D02*
X115679758Y-84521427D01*
X115679758Y-84521427D02*
X116036901Y-84521427D01*
X116036901Y-84521427D02*
X116322615Y-84592856D01*
X116322615Y-84592856D02*
X116465472Y-84664285D01*
X116465472Y-84664285D02*
X116536901Y-84735713D01*
X116536901Y-84735713D02*
X116608329Y-84878570D01*
X116608329Y-84878570D02*
X116608329Y-85021427D01*
X116608329Y-85021427D02*
X116536901Y-85164285D01*
X116536901Y-85164285D02*
X116465472Y-85235713D01*
X116465472Y-85235713D02*
X116322615Y-85307142D01*
X116322615Y-85307142D02*
X116036901Y-85378570D01*
X116036901Y-85378570D02*
X115679758Y-85378570D01*
X115679758Y-85378570D02*
X115394043Y-85307142D01*
X115394043Y-85307142D02*
X115251186Y-85235713D01*
X115251186Y-85235713D02*
X115179758Y-85164285D01*
X115179758Y-85164285D02*
X115108329Y-85021427D01*
X115108329Y-83592856D02*
X115108329Y-83449999D01*
X115108329Y-83449999D02*
X115179758Y-83307142D01*
X115179758Y-83307142D02*
X115251186Y-83235714D01*
X115251186Y-83235714D02*
X115394043Y-83164285D01*
X115394043Y-83164285D02*
X115679758Y-83092856D01*
X115679758Y-83092856D02*
X116036901Y-83092856D01*
X116036901Y-83092856D02*
X116322615Y-83164285D01*
X116322615Y-83164285D02*
X116465472Y-83235714D01*
X116465472Y-83235714D02*
X116536901Y-83307142D01*
X116536901Y-83307142D02*
X116608329Y-83449999D01*
X116608329Y-83449999D02*
X116608329Y-83592856D01*
X116608329Y-83592856D02*
X116536901Y-83735714D01*
X116536901Y-83735714D02*
X116465472Y-83807142D01*
X116465472Y-83807142D02*
X116322615Y-83878571D01*
X116322615Y-83878571D02*
X116036901Y-83949999D01*
X116036901Y-83949999D02*
X115679758Y-83949999D01*
X115679758Y-83949999D02*
X115394043Y-83878571D01*
X115394043Y-83878571D02*
X115251186Y-83807142D01*
X115251186Y-83807142D02*
X115179758Y-83735714D01*
X115179758Y-83735714D02*
X115108329Y-83592856D01*
X115108329Y-82164285D02*
X115108329Y-82021428D01*
X115108329Y-82021428D02*
X115179758Y-81878571D01*
X115179758Y-81878571D02*
X115251186Y-81807143D01*
X115251186Y-81807143D02*
X115394043Y-81735714D01*
X115394043Y-81735714D02*
X115679758Y-81664285D01*
X115679758Y-81664285D02*
X116036901Y-81664285D01*
X116036901Y-81664285D02*
X116322615Y-81735714D01*
X116322615Y-81735714D02*
X116465472Y-81807143D01*
X116465472Y-81807143D02*
X116536901Y-81878571D01*
X116536901Y-81878571D02*
X116608329Y-82021428D01*
X116608329Y-82021428D02*
X116608329Y-82164285D01*
X116608329Y-82164285D02*
X116536901Y-82307143D01*
X116536901Y-82307143D02*
X116465472Y-82378571D01*
X116465472Y-82378571D02*
X116322615Y-82450000D01*
X116322615Y-82450000D02*
X116036901Y-82521428D01*
X116036901Y-82521428D02*
X115679758Y-82521428D01*
X115679758Y-82521428D02*
X115394043Y-82450000D01*
X115394043Y-82450000D02*
X115251186Y-82378571D01*
X115251186Y-82378571D02*
X115179758Y-82307143D01*
X115179758Y-82307143D02*
X115108329Y-82164285D01*
X116608329Y-79878572D02*
X115608329Y-79878572D01*
X115751186Y-79878572D02*
X115679758Y-79807143D01*
X115679758Y-79807143D02*
X115608329Y-79664286D01*
X115608329Y-79664286D02*
X115608329Y-79450000D01*
X115608329Y-79450000D02*
X115679758Y-79307143D01*
X115679758Y-79307143D02*
X115822615Y-79235715D01*
X115822615Y-79235715D02*
X116608329Y-79235715D01*
X115822615Y-79235715D02*
X115679758Y-79164286D01*
X115679758Y-79164286D02*
X115608329Y-79021429D01*
X115608329Y-79021429D02*
X115608329Y-78807143D01*
X115608329Y-78807143D02*
X115679758Y-78664286D01*
X115679758Y-78664286D02*
X115822615Y-78592857D01*
X115822615Y-78592857D02*
X116608329Y-78592857D01*
X116608329Y-77878572D02*
X115608329Y-77878572D01*
X115751186Y-77878572D02*
X115679758Y-77807143D01*
X115679758Y-77807143D02*
X115608329Y-77664286D01*
X115608329Y-77664286D02*
X115608329Y-77450000D01*
X115608329Y-77450000D02*
X115679758Y-77307143D01*
X115679758Y-77307143D02*
X115822615Y-77235715D01*
X115822615Y-77235715D02*
X116608329Y-77235715D01*
X115822615Y-77235715D02*
X115679758Y-77164286D01*
X115679758Y-77164286D02*
X115608329Y-77021429D01*
X115608329Y-77021429D02*
X115608329Y-76807143D01*
X115608329Y-76807143D02*
X115679758Y-76664286D01*
X115679758Y-76664286D02*
X115822615Y-76592857D01*
X115822615Y-76592857D02*
X116608329Y-76592857D01*
D12*
X122370000Y-48450000D02*
X117143581Y-48450000D01*
X122370000Y-118450000D02*
X117143581Y-118450000D01*
X117730001Y-48450000D02*
X117730001Y-118450000D01*
X117730001Y-48450000D02*
X118316422Y-49576504D01*
X117730001Y-48450000D02*
X117143580Y-49576504D01*
X117730001Y-118450000D02*
X117143580Y-117323496D01*
X117730001Y-118450000D02*
X118316422Y-117323496D01*
D13*
X169875000Y-103579999D03*
X169875000Y-100454999D03*
D14*
X147175000Y-88610000D03*
X147175000Y-89110000D03*
X147175000Y-89610000D03*
X147175000Y-90110000D03*
X147175000Y-90610000D03*
X147175000Y-91110000D03*
X147175000Y-91610000D03*
X147175000Y-92110000D03*
X147175000Y-92610000D03*
X147175000Y-93110000D03*
X147175000Y-93610000D03*
X147175000Y-94110000D03*
D15*
X147862500Y-94797500D03*
X148362500Y-94797500D03*
X148862500Y-94797500D03*
X149362500Y-94797500D03*
X149862500Y-94797500D03*
X150362500Y-94797500D03*
X150862500Y-94797500D03*
X151362500Y-94797500D03*
X151862500Y-94797500D03*
X152362500Y-94797500D03*
X152862500Y-94797500D03*
X153362500Y-94797500D03*
D14*
X154050000Y-94110000D03*
X154050000Y-93610000D03*
X154050000Y-93110000D03*
X154050000Y-92610000D03*
X154050000Y-92110000D03*
X154050000Y-91610000D03*
X154050000Y-91110000D03*
X154050000Y-90610000D03*
X154050000Y-90110000D03*
X154050000Y-89610000D03*
X154050000Y-89110000D03*
X154050000Y-88610000D03*
D15*
X153362500Y-87922500D03*
X152862500Y-87922500D03*
X152362500Y-87922500D03*
X151862500Y-87922500D03*
X151362500Y-87922500D03*
X150862500Y-87922500D03*
X150362500Y-87922500D03*
X149862500Y-87922500D03*
X149362500Y-87922500D03*
X148862500Y-87922500D03*
X148362500Y-87922500D03*
X147862500Y-87922500D03*
D16*
X150612500Y-91360000D03*
D17*
X143330000Y-51550000D03*
X141044000Y-51550000D03*
D13*
X151250000Y-113945000D03*
X151250000Y-110820000D03*
D18*
X188590000Y-93989999D03*
X188590000Y-97090001D03*
D19*
X145288000Y-94308001D03*
X145288000Y-92583001D03*
D20*
X131040349Y-94410000D03*
X124679651Y-94410000D03*
X131040349Y-90710002D03*
X124679651Y-90710002D03*
D21*
X154800000Y-110690000D03*
D22*
X155600000Y-110702500D03*
D23*
X156750000Y-110755000D03*
X157750000Y-110755000D03*
X158250000Y-110755000D03*
X159250000Y-110755000D03*
D22*
X160400000Y-110702500D03*
D21*
X161200000Y-110690000D03*
X161200000Y-110690000D03*
D22*
X160400000Y-110702500D03*
D23*
X159750000Y-110755000D03*
X158750000Y-110755000D03*
X157250000Y-110755000D03*
X156250000Y-110755000D03*
D22*
X155600000Y-110702500D03*
D21*
X154800000Y-110690000D03*
D24*
X153680000Y-111395000D03*
D25*
X153680000Y-115575000D03*
D24*
X162320000Y-111395000D03*
D25*
X162320000Y-115575000D03*
D26*
X128840000Y-97440001D03*
X128840000Y-100565001D03*
X156805000Y-103620000D03*
X156805000Y-106745000D03*
D13*
X164775000Y-113925000D03*
X164775000Y-110800000D03*
D27*
X186025000Y-87900000D03*
X182443600Y-87900000D03*
D28*
X170256396Y-82010000D03*
D29*
X167716396Y-82010000D03*
X165176396Y-82010000D03*
X162636396Y-82010000D03*
D30*
X126570000Y-100590001D03*
X126570000Y-97490001D03*
D20*
X131040349Y-86410000D03*
X124679651Y-86410000D03*
X131040349Y-82710002D03*
X124679651Y-82710002D03*
D13*
X188620000Y-91870000D03*
X188620000Y-88745000D03*
D31*
X142980000Y-83595002D03*
X142980000Y-85320002D03*
D32*
X171425000Y-77007500D03*
X168885000Y-77007500D03*
X166345000Y-77007500D03*
X158745000Y-77007500D03*
X156205000Y-77007500D03*
X153665000Y-77007500D03*
X151125000Y-77007500D03*
X148585000Y-77007500D03*
X146045000Y-77007500D03*
X143505000Y-77007500D03*
X140965000Y-77007500D03*
X140965000Y-53857500D03*
X143505000Y-53857500D03*
X146045000Y-53857500D03*
X148585000Y-53857500D03*
X151125000Y-53857500D03*
X153665000Y-53857500D03*
X156205000Y-53857500D03*
X158745000Y-53857500D03*
X166345000Y-53857500D03*
X168885000Y-53857500D03*
X171425000Y-53857500D03*
D33*
X172049999Y-101839999D03*
X172049999Y-103739999D03*
X173925000Y-102789999D03*
D34*
X172690000Y-112460000D03*
D35*
X175190000Y-112460000D03*
D36*
X125585000Y-69940000D03*
X128510000Y-69940000D03*
D26*
X129140000Y-76717501D03*
X129140000Y-79842501D03*
D30*
X148730000Y-101420000D03*
X148730000Y-98320000D03*
D37*
X141020000Y-81600001D03*
X141020000Y-84100001D03*
D38*
X136275000Y-84974999D03*
X136275000Y-96849999D03*
D39*
X153214999Y-96266000D03*
X154939999Y-96266000D03*
D31*
X155575000Y-86920999D03*
X155575000Y-88645999D03*
D13*
X140075000Y-89150000D03*
X140075000Y-86025000D03*
D18*
X186320000Y-95400000D03*
X186320000Y-98500002D03*
D40*
X148156001Y-86487000D03*
X146431001Y-86487000D03*
D31*
X142970000Y-80295002D03*
X142970000Y-82020002D03*
D28*
X170220000Y-95970000D03*
D29*
X167680000Y-95970000D03*
X165140001Y-95970000D03*
X162600000Y-95970000D03*
D17*
X174501400Y-85193601D03*
X174501400Y-87479601D03*
D13*
X180172501Y-87904601D03*
X180172501Y-84779601D03*
X151030000Y-101445000D03*
X151030000Y-98320000D03*
D26*
X140075000Y-92550000D03*
X140075000Y-95675000D03*
D41*
X184253899Y-91799600D03*
X184253899Y-92749600D03*
X184253899Y-93699600D03*
X186528899Y-93699600D03*
X186528899Y-92749600D03*
X186528899Y-91799600D03*
D42*
X134057500Y-66510000D03*
X131257500Y-66510000D03*
D26*
X159125000Y-103620000D03*
X159125000Y-106745000D03*
D43*
X139500000Y-112475000D03*
D44*
X142000000Y-112475000D03*
X144500000Y-112475000D03*
D45*
X187750000Y-69930000D03*
X187750000Y-66630000D03*
X182850000Y-66630000D03*
X182850000Y-69930000D03*
D18*
X126490000Y-76710001D03*
X126490000Y-79810001D03*
D13*
X176620000Y-87904601D03*
X176620000Y-84779601D03*
X182178899Y-95004601D03*
X182178899Y-91879601D03*
X176065000Y-103550000D03*
X176065000Y-100425000D03*
D46*
X181870000Y-75980000D03*
X187070000Y-75980000D03*
D42*
X134057500Y-69900000D03*
X131257500Y-69900000D03*
D36*
X125567500Y-66500000D03*
X128492500Y-66500000D03*
D47*
X178178899Y-91879602D03*
D48*
X178178899Y-94379602D03*
D49*
X181495000Y-66660000D03*
X158740000Y-55590000D03*
X171410000Y-75280000D03*
D50*
X141890000Y-80300000D03*
D49*
X171430000Y-55600000D03*
X166340000Y-55590000D03*
D51*
X178400000Y-87900000D03*
D52*
X128840000Y-99300001D03*
D50*
X135490000Y-66530000D03*
D49*
X153212800Y-97434400D03*
D52*
X127790001Y-75559652D03*
D51*
X173000000Y-100400000D03*
D52*
X151260000Y-109555000D03*
X184800000Y-98500000D03*
D49*
X140960000Y-55500000D03*
D52*
X164775000Y-109520000D03*
D49*
X149855000Y-102670000D03*
X168880000Y-55600000D03*
X148132800Y-85293200D03*
X140960000Y-75280000D03*
X143953364Y-93153364D03*
X156200000Y-55590000D03*
X140110000Y-90900000D03*
X156758982Y-88585382D03*
X166330000Y-75280000D03*
D50*
X141900000Y-85330000D03*
D52*
X127780000Y-90560001D03*
D51*
X169200000Y-105050000D03*
D49*
X144101591Y-94344177D03*
X156768800Y-86918800D03*
D50*
X125580000Y-71510000D03*
D52*
X126570000Y-99340000D03*
D51*
X170500000Y-105000000D03*
D52*
X127860000Y-86560001D03*
D49*
X146405600Y-85293200D03*
X154940000Y-97434400D03*
D51*
X174200000Y-101700000D03*
D53*
X155625000Y-108945000D03*
D51*
X174250000Y-103900000D03*
D53*
X160425000Y-108945000D03*
D51*
X174650000Y-98450000D03*
D53*
X147000000Y-51550000D03*
X145050000Y-51600000D03*
X176500000Y-82700000D03*
D52*
X188590000Y-98409999D03*
D53*
X181400000Y-82700000D03*
D49*
X189104999Y-69960000D03*
D53*
X178900000Y-82700000D03*
D50*
X155990000Y-92160000D03*
D49*
X153700000Y-55630000D03*
D50*
X155160000Y-91410000D03*
D49*
X151120000Y-55590000D03*
D50*
X155290000Y-94860000D03*
X156260000Y-94160000D03*
X136740000Y-78880000D03*
X134060000Y-71470000D03*
X182850000Y-71130000D03*
X156650000Y-93080000D03*
D54*
X152862500Y-93610000D02*
X150612500Y-91360000D01*
D55*
X169880000Y-100450000D02*
X169875000Y-100455000D01*
D56*
X184800000Y-98500000D02*
X186319998Y-98500000D01*
X186319998Y-98500000D02*
X186320000Y-98500002D01*
D55*
X148132800Y-86463798D02*
X148156002Y-86487000D01*
D54*
X147175000Y-92110000D02*
X149862500Y-92110000D01*
D57*
X176620000Y-87904601D02*
X174732800Y-87904601D01*
X178395000Y-91663501D02*
X178178899Y-91879602D01*
D54*
X148362500Y-86693498D02*
X148156002Y-86487000D01*
D55*
X172049999Y-101839999D02*
X172049999Y-100895001D01*
D57*
X178395000Y-87905000D02*
X180172102Y-87905000D01*
X178178899Y-91879602D02*
X178178899Y-88121101D01*
D55*
X176010000Y-100370000D02*
X176065000Y-100425000D01*
D57*
X176620399Y-87905000D02*
X176620000Y-87904601D01*
D54*
X148362500Y-87922500D02*
X148362500Y-86693498D01*
D55*
X151260000Y-109555000D02*
X151260000Y-110810000D01*
D54*
X149862500Y-92110000D02*
X150612500Y-91360000D01*
D57*
X174732800Y-87904601D02*
X174501400Y-87673201D01*
D58*
X145761000Y-92110000D02*
X145288000Y-92583000D01*
D55*
X156758982Y-88585382D02*
X155635618Y-88585382D01*
D54*
X124679651Y-90710002D02*
X131040349Y-90710002D01*
D55*
X176070000Y-100430000D02*
X176065000Y-100425000D01*
X182855000Y-66660000D02*
X181495000Y-66660000D01*
D54*
X152862500Y-94797500D02*
X152862500Y-93610000D01*
D55*
X144523728Y-92583000D02*
X145288000Y-92583000D01*
X171605000Y-100450000D02*
X171685000Y-100370000D01*
D57*
X178178899Y-88121101D02*
X178395000Y-87905000D01*
D55*
X171605000Y-100450000D02*
X169880000Y-100450000D01*
D58*
X147175000Y-92110000D02*
X145761000Y-92110000D01*
D55*
X143953364Y-93153364D02*
X144523728Y-92583000D01*
X164775000Y-109520000D02*
X164775000Y-110775000D01*
D54*
X152862500Y-94797500D02*
X152862500Y-95913502D01*
X152862500Y-95913502D02*
X153214998Y-96266000D01*
X154050000Y-89110000D02*
X152862500Y-89110000D01*
D55*
X155635618Y-88585382D02*
X155575000Y-88646000D01*
X153214998Y-97432202D02*
X153212800Y-97434400D01*
D54*
X148362500Y-89110000D02*
X150612500Y-91360000D01*
X152862500Y-89110000D02*
X150612500Y-91360000D01*
D57*
X178395000Y-87905000D02*
X176620399Y-87905000D01*
D55*
X153214998Y-96266000D02*
X153214998Y-97432202D01*
X171685000Y-100370000D02*
X176010000Y-100370000D01*
X148132800Y-85293200D02*
X148132800Y-86463798D01*
D54*
X155111000Y-89110000D02*
X155575000Y-88646000D01*
X154050000Y-89110000D02*
X155111000Y-89110000D01*
D55*
X172049999Y-100895001D02*
X171605000Y-100450000D01*
D54*
X148362500Y-87922500D02*
X148362500Y-89110000D01*
D57*
X180172102Y-87905000D02*
X180172501Y-87904601D01*
D54*
X141325000Y-92063604D02*
X141325000Y-94425000D01*
X141325000Y-94425000D02*
X140075000Y-95675000D01*
X142278604Y-91110000D02*
X141325000Y-92063604D01*
X147175000Y-91110000D02*
X142278604Y-91110000D01*
X146548536Y-89610000D02*
X147175000Y-89610000D01*
X142970000Y-82020002D02*
X145116501Y-84166503D01*
X145116501Y-84166503D02*
X145116501Y-88177965D01*
X145116501Y-88177965D02*
X146548536Y-89610000D01*
X145629421Y-89999421D02*
X145740000Y-90110000D01*
X145124869Y-89494868D02*
X145209723Y-89579723D01*
X144765120Y-89515207D02*
X144785458Y-89494868D01*
X144340856Y-89430355D02*
X144425708Y-89515207D01*
X145209723Y-89579723D02*
X145629421Y-89999421D01*
X142980000Y-83595002D02*
X143781000Y-84396002D01*
X145740000Y-90110000D02*
X147175000Y-90110000D01*
X143781000Y-88151000D02*
X144361195Y-88731195D01*
X144361195Y-89070606D02*
X144340856Y-89090944D01*
X143781000Y-84396002D02*
X143781000Y-88151000D01*
X144425708Y-89515207D02*
G75*
G03*
X144765120Y-89515207I169706J169704D01*
G01*
X144785458Y-89494868D02*
G75*
G02*
X145124869Y-89494867I169706J-169707D01*
G01*
X144361195Y-88731195D02*
G75*
G02*
X144361195Y-89070605I-169695J-169705D01*
G01*
X144340856Y-89090944D02*
G75*
G03*
X144340905Y-89430306I169744J-169656D01*
G01*
X152362500Y-94797500D02*
X152351499Y-94808501D01*
X151030000Y-98320000D02*
X151030000Y-97820000D01*
X152351499Y-94808501D02*
X152351499Y-96998501D01*
X152351499Y-96998501D02*
X151030000Y-98320000D01*
X141400000Y-89625000D02*
X141400000Y-87350000D01*
X142385000Y-90610000D02*
X141400000Y-89625000D01*
X147175000Y-90610000D02*
X142385000Y-90610000D01*
X141400000Y-87350000D02*
X140075000Y-86025000D01*
X124679651Y-86410000D02*
X131040349Y-86410000D01*
D55*
X145242638Y-94353364D02*
X144101591Y-94353364D01*
X146405600Y-86461600D02*
X146431000Y-86487000D01*
D54*
X147175000Y-92610000D02*
X146687760Y-92610000D01*
D55*
X156768800Y-86918800D02*
X155577198Y-86918800D01*
D59*
X170035001Y-103740001D02*
X169875000Y-103580000D01*
D55*
X146405600Y-85293200D02*
X146405600Y-86461600D01*
X155577198Y-86918800D02*
X155575000Y-86920998D01*
D59*
X172049999Y-103740000D02*
X170035001Y-103740001D01*
D55*
X145288000Y-94308002D02*
X145242638Y-94353364D01*
X154940000Y-96266000D02*
X154940000Y-97434400D01*
D54*
X125585000Y-69940000D02*
X125585000Y-66517500D01*
X125585000Y-66517500D02*
X125567500Y-66500000D01*
X131040349Y-82710002D02*
X131849998Y-82710002D01*
X138866000Y-74454000D02*
X143398500Y-74454000D01*
X131849998Y-82710002D02*
X132150000Y-82410000D01*
X144964000Y-78391500D02*
X144964000Y-76019500D01*
X132150000Y-82410000D02*
X132150000Y-81170000D01*
X132150000Y-81170000D02*
X138866000Y-74454000D01*
X149862500Y-83290000D02*
X144964000Y-78391500D01*
X143398500Y-74454000D02*
X144964000Y-76019500D01*
X149862500Y-87922500D02*
X149862500Y-83290000D01*
D60*
X143330000Y-51550000D02*
X145000000Y-51550000D01*
D55*
X174650000Y-98450000D02*
X172170000Y-95970000D01*
D59*
X160400000Y-110820000D02*
X160400000Y-108960000D01*
D56*
X188590000Y-97090001D02*
X188590000Y-98409999D01*
D59*
X160400000Y-108960000D02*
X160395000Y-108955000D01*
X155600000Y-110820000D02*
X155600000Y-108960000D01*
X155600000Y-108960000D02*
X155605000Y-108955000D01*
D55*
X172170000Y-95970000D02*
X170220000Y-95970000D01*
X187755000Y-69960000D02*
X189104999Y-69960000D01*
D60*
X145000000Y-51550000D02*
X145020000Y-51570000D01*
D54*
X143560000Y-91610000D02*
X142910000Y-92260000D01*
X128840000Y-97440001D02*
X130220001Y-97440001D01*
X142400000Y-97110000D02*
X137950000Y-101560000D01*
X130220001Y-97440001D02*
X134340000Y-101560000D01*
X137950000Y-101560000D02*
X134340000Y-101560000D01*
X147175000Y-91610000D02*
X143560000Y-91610000D01*
X142910000Y-92260000D02*
X142910000Y-96600000D01*
X142910000Y-96600000D02*
X142400000Y-97110000D01*
D59*
X188528899Y-91679601D02*
X188578899Y-91629600D01*
X188549600Y-91799600D02*
X188620000Y-91870000D01*
X186528899Y-91799600D02*
X188549600Y-91799600D01*
D54*
X143505000Y-77652500D02*
X149362500Y-83510000D01*
X149362500Y-84562500D02*
X149362500Y-87922500D01*
X149362500Y-84562500D02*
X149362500Y-83510000D01*
X143505000Y-77007500D02*
X143505000Y-77652500D01*
X151125000Y-77007500D02*
X151862500Y-77745000D01*
X151862500Y-77745000D02*
X151862500Y-87922500D01*
X152812500Y-81637500D02*
X152812500Y-87872500D01*
X152812500Y-87872500D02*
X152862500Y-87922500D01*
X156642500Y-79110000D02*
X155340000Y-79110000D01*
X155340000Y-79110000D02*
X152812500Y-81637500D01*
X158745000Y-77007500D02*
X156642500Y-79110000D01*
D61*
X151362500Y-79640000D02*
X151362500Y-87922500D01*
X153665000Y-77007500D02*
X152325000Y-75667500D01*
X152325000Y-75667500D02*
X150070000Y-75667500D01*
X149825000Y-75912500D02*
X149825000Y-78102500D01*
X149825000Y-78102500D02*
X151362500Y-79640000D01*
X150070000Y-75667500D02*
X149825000Y-75912500D01*
D54*
X153720000Y-53912500D02*
X153665000Y-53857500D01*
X153720000Y-55530000D02*
X153720000Y-53912500D01*
X155540000Y-92610000D02*
X155990000Y-92160000D01*
X154050000Y-92610000D02*
X155540000Y-92610000D01*
X152362500Y-87922500D02*
X152362500Y-80849999D01*
X152362500Y-80849999D02*
X156205000Y-77007499D01*
X146045001Y-77315001D02*
X150362500Y-81632500D01*
X146045001Y-77007500D02*
X146045001Y-77315001D01*
X150362500Y-81632500D02*
X150362500Y-87922500D01*
X154538654Y-92110000D02*
X155160000Y-91488654D01*
X151130000Y-53862500D02*
X151125000Y-53857500D01*
X155160000Y-91488654D02*
X155160000Y-91410000D01*
X154050000Y-92110000D02*
X154538654Y-92110000D01*
X154060000Y-92100000D02*
X154050000Y-92110000D01*
X151130000Y-55410000D02*
X151130000Y-53862500D01*
X153362500Y-87922500D02*
X153362500Y-82307500D01*
X154835000Y-80835000D02*
X164001397Y-80835000D01*
X164001397Y-80835000D02*
X165176397Y-82010000D01*
X153362500Y-82307500D02*
X154835000Y-80835000D01*
X167716396Y-82010000D02*
X166176396Y-83550000D01*
X166176396Y-83550000D02*
X160866396Y-83550000D01*
X160866396Y-83550000D02*
X158766396Y-85650000D01*
X158766396Y-87744695D02*
X156901091Y-89610000D01*
X158766396Y-85650000D02*
X158766396Y-87744695D01*
X156901091Y-89610000D02*
X154050000Y-89610000D01*
X147862500Y-95637500D02*
X144500000Y-99000000D01*
X144500000Y-99000000D02*
X144500000Y-112475000D01*
X147862500Y-94797500D02*
X147862500Y-95637500D01*
X147175000Y-94110000D02*
X142000000Y-99285000D01*
X142000000Y-99285000D02*
X142000000Y-112475000D01*
X154540000Y-94110000D02*
X155290000Y-94860000D01*
X154050000Y-94110000D02*
X154540000Y-94110000D01*
X154050000Y-93610000D02*
X155710000Y-93610000D01*
X155710000Y-93610000D02*
X156260000Y-94160000D01*
X158007236Y-109780000D02*
X158542764Y-109780000D01*
X158750000Y-110755000D02*
X158750000Y-107120000D01*
X157750000Y-110755000D02*
X157750000Y-110037236D01*
X157750000Y-110037236D02*
X158007236Y-109780000D01*
X158750000Y-107120000D02*
X159125000Y-106745000D01*
X158750000Y-109987236D02*
X158750000Y-110755000D01*
X158542764Y-109780000D02*
X158750000Y-109987236D01*
X157250000Y-111472764D02*
X157507236Y-111730000D01*
X157250000Y-107190000D02*
X156805000Y-106745000D01*
X157250000Y-110755000D02*
X157250000Y-111472764D01*
X157507236Y-111730000D02*
X158000000Y-111730000D01*
X158250000Y-111480000D02*
X158250000Y-110755000D01*
X157250000Y-110755000D02*
X157250000Y-107190000D01*
X158000000Y-111730000D02*
X158250000Y-111480000D01*
X159750000Y-111815660D02*
X161859340Y-113925000D01*
X161859340Y-113925000D02*
X164775000Y-113925000D01*
X159750000Y-110755000D02*
X159750000Y-111815660D01*
X156750000Y-110755000D02*
X156750000Y-111472764D01*
X156750000Y-111472764D02*
X154277764Y-113945000D01*
X154277764Y-113945000D02*
X151250000Y-113945000D01*
X151362500Y-94797500D02*
X151362500Y-95687500D01*
X151362500Y-95687500D02*
X148730000Y-98320000D01*
X146686346Y-89110000D02*
X145567501Y-87991155D01*
X145567501Y-87991155D02*
X145567501Y-81551513D01*
X147175000Y-89110000D02*
X146686346Y-89110000D01*
X134057500Y-71467500D02*
X134060000Y-71470000D01*
X142895988Y-78880000D02*
X136740000Y-78880000D01*
X145567501Y-81551513D02*
X142895988Y-78880000D01*
X131217500Y-69940000D02*
X131257500Y-69900000D01*
X128510000Y-69940000D02*
X131217500Y-69940000D01*
X128502500Y-66510000D02*
X128492500Y-66500000D01*
X131257500Y-66510000D02*
X128502500Y-66510000D01*
X157500000Y-103500000D02*
X157500000Y-92500000D01*
X155610000Y-90610000D02*
X154050000Y-90610000D01*
X157500000Y-92500000D02*
X155610000Y-90610000D01*
X157380000Y-103620000D02*
X157500000Y-103500000D01*
X156805000Y-103620000D02*
X157380000Y-103620000D01*
X170050000Y-117600000D02*
X152040000Y-117600000D01*
X152040000Y-117600000D02*
X148690000Y-114250000D01*
X148690000Y-114250000D02*
X148690000Y-105960000D01*
X148690000Y-105960000D02*
X146000000Y-103270000D01*
X148862500Y-95667500D02*
X148862500Y-94797500D01*
X175190000Y-112460000D02*
X170050000Y-117600000D01*
X146000000Y-103270000D02*
X146000000Y-98530000D01*
X146000000Y-98530000D02*
X148862500Y-95667500D01*
X156620000Y-93110000D02*
X156650000Y-93080000D01*
X154050000Y-93110000D02*
X156620000Y-93110000D01*
D61*
X150862500Y-81531460D02*
X148585000Y-79253960D01*
X148585000Y-79253960D02*
X148585000Y-77007500D01*
X150862500Y-87922500D02*
X150862500Y-81531460D01*
D54*
X159120000Y-103620000D02*
X158500000Y-103000000D01*
X158500000Y-103000000D02*
X158500000Y-92500000D01*
X156110000Y-90110000D02*
X154050000Y-90110000D01*
X158500000Y-92500000D02*
X156110000Y-90110000D01*
X159125000Y-103620000D02*
X159120000Y-103620000D01*
G04 #@! TA.AperFunction,Conductor*
G36*
X147438853Y-92487215D02*
G01*
X147446106Y-92489527D01*
X147453647Y-92488443D01*
X147478936Y-92499992D01*
X147505419Y-92508434D01*
X147510273Y-92514303D01*
X147517203Y-92517468D01*
X147532232Y-92540855D01*
X147549949Y-92562276D01*
X147551806Y-92571311D01*
X147554977Y-92576246D01*
X147560000Y-92611181D01*
X147560000Y-92626000D01*
X147540315Y-92693039D01*
X147487511Y-92738794D01*
X147436000Y-92750000D01*
X146659999Y-92750000D01*
X146609586Y-92856659D01*
X146609587Y-92856660D01*
X146605667Y-92864952D01*
X146552260Y-92944883D01*
X146540902Y-93001981D01*
X146534372Y-93015798D01*
X145729025Y-94719746D01*
X145682581Y-94771945D01*
X145669715Y-94778956D01*
X145565079Y-94828197D01*
X145512280Y-94840000D01*
X145324000Y-94840000D01*
X145256961Y-94820315D01*
X145211206Y-94767511D01*
X145200000Y-94716000D01*
X145200000Y-93822738D01*
X145219685Y-93755699D01*
X145237984Y-93733422D01*
X145684643Y-93303306D01*
X145729701Y-93275587D01*
X145732475Y-93274617D01*
X145838711Y-93196212D01*
X145917116Y-93089976D01*
X145917118Y-93089968D01*
X145919154Y-93086118D01*
X145942777Y-93054733D01*
X146497891Y-92520180D01*
X146559834Y-92487858D01*
X146583902Y-92485500D01*
X147224432Y-92485500D01*
X147224435Y-92485500D01*
X147224437Y-92485499D01*
X147232496Y-92484438D01*
X147232626Y-92485428D01*
X147253249Y-92482948D01*
X147438853Y-92487215D01*
G37*
G04 #@! TD.AperFunction*
G04 #@! TA.AperFunction,Conductor*
G36*
X154979236Y-110263647D02*
G01*
X155004770Y-110281930D01*
X155059875Y-110333098D01*
X155095607Y-110393139D01*
X155099500Y-110423965D01*
X155099500Y-111157569D01*
X155079815Y-111224608D01*
X155027011Y-111270363D01*
X154999692Y-111279186D01*
X154927554Y-111293535D01*
X154927545Y-111293538D01*
X154813716Y-111340687D01*
X154813707Y-111340692D01*
X154711267Y-111409141D01*
X154711263Y-111409144D01*
X154624144Y-111496263D01*
X154624141Y-111496267D01*
X154555692Y-111598707D01*
X154555687Y-111598716D01*
X154508538Y-111712545D01*
X154508535Y-111712555D01*
X154484500Y-111833389D01*
X154484500Y-111886639D01*
X154464815Y-111953678D01*
X154449071Y-111973421D01*
X154109232Y-112320267D01*
X154094586Y-112328716D01*
X154084052Y-112340057D01*
X154051460Y-112353599D01*
X153847536Y-112405888D01*
X153777708Y-112403472D01*
X153720272Y-112363687D01*
X153693462Y-112299165D01*
X153692750Y-112287558D01*
X153666663Y-110461468D01*
X153685388Y-110394158D01*
X153737533Y-110347654D01*
X153781139Y-110336066D01*
X154910887Y-110249162D01*
X154979236Y-110263647D01*
G37*
G04 #@! TD.AperFunction*
G04 #@! TA.AperFunction,Conductor*
G36*
X182695677Y-81569685D02*
G01*
X182716319Y-81586319D01*
X183263681Y-82133681D01*
X183297166Y-82195004D01*
X183300000Y-82221362D01*
X183300000Y-90098638D01*
X183291355Y-90128078D01*
X183284832Y-90158065D01*
X183281077Y-90163080D01*
X183280315Y-90165677D01*
X183263681Y-90186319D01*
X183196319Y-90253681D01*
X183134996Y-90287166D01*
X183108638Y-90290000D01*
X181801362Y-90290000D01*
X181734323Y-90270315D01*
X181713681Y-90253681D01*
X181546319Y-90086319D01*
X181512834Y-90024996D01*
X181510000Y-89998638D01*
X181510000Y-87070000D01*
X180040001Y-85600001D01*
X175149100Y-85600001D01*
X173977700Y-85600001D01*
X173910661Y-85580316D01*
X173864906Y-85527512D01*
X173853700Y-85476001D01*
X173853700Y-83507662D01*
X173873385Y-83440623D01*
X173890019Y-83419981D01*
X175723681Y-81586319D01*
X175785004Y-81552834D01*
X175811362Y-81550000D01*
X182628638Y-81550000D01*
X182695677Y-81569685D01*
G37*
G04 #@! TD.AperFunction*
G04 #@! TA.AperFunction,Conductor*
G36*
X131453039Y-94149686D02*
G01*
X131498794Y-94202490D01*
X131510000Y-94254001D01*
X131510000Y-94657727D01*
X131494266Y-94718179D01*
X129749636Y-97842742D01*
X129725477Y-97873406D01*
X129515032Y-98067663D01*
X129452419Y-98098670D01*
X129432326Y-98100539D01*
X125992181Y-98139411D01*
X125924923Y-98120485D01*
X125903099Y-98103100D01*
X125715541Y-97915542D01*
X125690748Y-97880069D01*
X124221526Y-94714832D01*
X124210000Y-94662624D01*
X124210000Y-94254001D01*
X124229685Y-94186962D01*
X124282489Y-94141207D01*
X124334000Y-94130001D01*
X131386000Y-94130001D01*
X131453039Y-94149686D01*
G37*
G04 #@! TD.AperFunction*
G04 #@! TA.AperFunction,Conductor*
G36*
X184941028Y-93295969D02*
G01*
X184962310Y-93313012D01*
X184992580Y-93343282D01*
X185026065Y-93404605D01*
X185028899Y-93430963D01*
X185028899Y-93778239D01*
X185020254Y-93807679D01*
X185013731Y-93837666D01*
X185009976Y-93842681D01*
X185009214Y-93845278D01*
X184992580Y-93865920D01*
X184865218Y-93993282D01*
X184803895Y-94026767D01*
X184777537Y-94029601D01*
X184528898Y-94029601D01*
X183278899Y-95279600D01*
X183278899Y-95528239D01*
X183259214Y-95595278D01*
X183242580Y-95615920D01*
X183065218Y-95793282D01*
X183003895Y-95826767D01*
X182977537Y-95829601D01*
X177930261Y-95829601D01*
X177863222Y-95809916D01*
X177842580Y-95793282D01*
X176965218Y-94915919D01*
X176931733Y-94854596D01*
X176928899Y-94828238D01*
X176928899Y-93905963D01*
X176948584Y-93838924D01*
X176965218Y-93818282D01*
X177005261Y-93778239D01*
X177425364Y-93358135D01*
X177486685Y-93324652D01*
X177512274Y-93321820D01*
X184873870Y-93276695D01*
X184941028Y-93295969D01*
G37*
G04 #@! TD.AperFunction*
G04 #@! TA.AperFunction,Conductor*
G36*
X151680178Y-100784848D02*
G01*
X151712304Y-100794378D01*
X151744620Y-100803119D01*
X151746206Y-100804435D01*
X151747160Y-100804718D01*
X151771783Y-100825655D01*
X151893491Y-100960174D01*
X151923872Y-101023092D01*
X151925533Y-101041958D01*
X151934674Y-101846378D01*
X151922745Y-101900870D01*
X151861372Y-102030435D01*
X151814884Y-102082594D01*
X151812002Y-102084336D01*
X150159037Y-103052984D01*
X150096344Y-103070000D01*
X149616325Y-103070000D01*
X149549418Y-103050401D01*
X147991312Y-102051862D01*
X147981319Y-102041220D01*
X147971180Y-102035780D01*
X147949824Y-102007681D01*
X147880605Y-101883087D01*
X147865000Y-101822867D01*
X147865000Y-101024987D01*
X147884685Y-100957948D01*
X147912031Y-100927766D01*
X148071025Y-100801896D01*
X148135804Y-100775719D01*
X148148325Y-100775119D01*
X151680178Y-100784848D01*
G37*
G04 #@! TD.AperFunction*
G04 #@! TA.AperFunction,Conductor*
G36*
X140757282Y-88509685D02*
G01*
X140775954Y-88524392D01*
X140931711Y-88673376D01*
X140966551Y-88733940D01*
X140970000Y-88762984D01*
X140970000Y-92913209D01*
X140962426Y-92939000D01*
X140958397Y-92965583D01*
X140951540Y-92976073D01*
X140950315Y-92980248D01*
X140939088Y-92995127D01*
X140787032Y-93167918D01*
X140727967Y-93205241D01*
X140693944Y-93210000D01*
X139436498Y-93210000D01*
X139369459Y-93190315D01*
X139342927Y-93167366D01*
X139210429Y-93014993D01*
X139181293Y-92951488D01*
X139180000Y-92933627D01*
X139180000Y-88771362D01*
X139188644Y-88741921D01*
X139195168Y-88711935D01*
X139198922Y-88706919D01*
X139199685Y-88704323D01*
X139216319Y-88683681D01*
X139373681Y-88526319D01*
X139435004Y-88492834D01*
X139461362Y-88490000D01*
X140690243Y-88490000D01*
X140757282Y-88509685D01*
G37*
G04 #@! TD.AperFunction*
G04 #@! TA.AperFunction,Conductor*
G36*
X134554452Y-65717710D02*
G01*
X135406459Y-66097240D01*
X135459685Y-66142499D01*
X135479995Y-66209352D01*
X135480000Y-66210509D01*
X135480000Y-66846752D01*
X135460315Y-66913791D01*
X135407511Y-66959546D01*
X135402950Y-66961520D01*
X134550950Y-67310065D01*
X134481449Y-67317229D01*
X134419107Y-67285681D01*
X134383719Y-67225436D01*
X134380000Y-67195297D01*
X134380000Y-65830982D01*
X134399685Y-65763943D01*
X134452489Y-65718188D01*
X134521647Y-65708244D01*
X134554452Y-65717710D01*
G37*
G04 #@! TD.AperFunction*
G04 #@! TA.AperFunction,Conductor*
G36*
X174246305Y-101126208D02*
G01*
X174287576Y-101151738D01*
X174748363Y-101581806D01*
X174783942Y-101641938D01*
X174784883Y-101698995D01*
X174605000Y-102519999D01*
X174654999Y-102590000D01*
X174654998Y-102590000D01*
X174928339Y-102630001D01*
X176599765Y-102874599D01*
X176663247Y-102903783D01*
X176700873Y-102962656D01*
X176705805Y-102996353D01*
X176714152Y-104098193D01*
X176694976Y-104165379D01*
X176642520Y-104211533D01*
X176603876Y-104222371D01*
X174256653Y-104483692D01*
X174187848Y-104471546D01*
X174158326Y-104451104D01*
X173619288Y-103948002D01*
X173589711Y-103905704D01*
X173194814Y-102973176D01*
X173184999Y-102924830D01*
X173184999Y-102655654D01*
X173195179Y-102606452D01*
X173232552Y-102519999D01*
X173590605Y-101691731D01*
X173616740Y-101653259D01*
X174115292Y-101154707D01*
X174176613Y-101121224D01*
X174246305Y-101126208D01*
G37*
G04 #@! TD.AperFunction*
G04 #@! TA.AperFunction,Conductor*
G36*
X127907493Y-75182199D02*
G01*
X129808279Y-76049738D01*
X129814358Y-76054063D01*
X129818733Y-76055122D01*
X129846487Y-76076923D01*
X130003429Y-76241339D01*
X130005697Y-76243714D01*
X130037747Y-76305799D01*
X130040001Y-76329333D01*
X130040001Y-77098290D01*
X130020316Y-77165329D01*
X130003686Y-77185966D01*
X129867938Y-77321715D01*
X129846579Y-77343074D01*
X129785256Y-77376558D01*
X129758272Y-77379390D01*
X125902546Y-77359917D01*
X125872218Y-77350845D01*
X125841443Y-77343462D01*
X125837673Y-77340513D01*
X125835607Y-77339895D01*
X125813645Y-77321715D01*
X125654474Y-77155623D01*
X125622301Y-77093602D01*
X125620001Y-77069827D01*
X125620001Y-76302132D01*
X125635925Y-76241342D01*
X125690617Y-76144111D01*
X125740639Y-76095334D01*
X125745755Y-76092773D01*
X125815915Y-76059652D01*
X127657791Y-75190136D01*
X127704532Y-75178425D01*
X127849817Y-75171161D01*
X127907493Y-75182199D01*
G37*
G04 #@! TD.AperFunction*
G04 #@! TA.AperFunction,Conductor*
G36*
X172133039Y-52849685D02*
G01*
X172178794Y-52902489D01*
X172190000Y-52954000D01*
X172190000Y-54888865D01*
X172183000Y-54929939D01*
X171870870Y-55819036D01*
X171862020Y-55832073D01*
X171858302Y-55844819D01*
X171835236Y-55871533D01*
X171651830Y-56031016D01*
X171602021Y-56057362D01*
X171467744Y-56092698D01*
X171411869Y-56094373D01*
X171268500Y-56065700D01*
X171217002Y-56042228D01*
X171049222Y-55912581D01*
X171008213Y-55856016D01*
X171007943Y-55855247D01*
X170686850Y-54929744D01*
X170680000Y-54889100D01*
X170680000Y-52954000D01*
X170699685Y-52886961D01*
X170752489Y-52841206D01*
X170804000Y-52830000D01*
X172066000Y-52830000D01*
X172133039Y-52849685D01*
G37*
G04 #@! TD.AperFunction*
G04 #@! TA.AperFunction,Conductor*
G36*
X187546173Y-85894683D02*
G01*
X187564860Y-85909403D01*
X187813470Y-86147240D01*
X189590618Y-87847377D01*
X189625452Y-87907943D01*
X189628899Y-87936977D01*
X189628899Y-89429616D01*
X189609214Y-89496655D01*
X189556410Y-89542410D01*
X189524895Y-89551993D01*
X187978900Y-89804600D01*
X187978899Y-89804601D01*
X187253899Y-90192101D01*
X186528898Y-90579601D01*
X185678899Y-91429600D01*
X185678899Y-91519541D01*
X185676035Y-91538506D01*
X185677214Y-91538678D01*
X185675826Y-91548207D01*
X185665899Y-91616340D01*
X185665899Y-91982860D01*
X185673571Y-92035516D01*
X185677215Y-92060525D01*
X185676034Y-92060697D01*
X185678899Y-92079660D01*
X185678899Y-92469541D01*
X185676035Y-92488506D01*
X185677214Y-92488678D01*
X185665899Y-92566339D01*
X185665899Y-92791239D01*
X185657254Y-92820679D01*
X185650731Y-92850666D01*
X185646976Y-92855681D01*
X185646214Y-92858278D01*
X185629580Y-92878920D01*
X185465218Y-93043282D01*
X185403895Y-93076767D01*
X185377537Y-93079601D01*
X184942187Y-93079601D01*
X184925297Y-93078445D01*
X184872610Y-93071199D01*
X184872608Y-93071199D01*
X183729626Y-93078204D01*
X183699777Y-93069637D01*
X183669439Y-93063038D01*
X183664874Y-93059620D01*
X183662467Y-93058930D01*
X183641185Y-93041887D01*
X183465218Y-92865919D01*
X183431733Y-92804596D01*
X183428899Y-92778246D01*
X183428899Y-92571579D01*
X183448584Y-92504542D01*
X183465210Y-92483908D01*
X183577701Y-92371417D01*
X183639022Y-92337935D01*
X183665380Y-92335101D01*
X184627538Y-92335101D01*
X184630079Y-92334964D01*
X184649506Y-92333923D01*
X184649513Y-92333922D01*
X184649517Y-92333922D01*
X184661619Y-92332620D01*
X184675864Y-92331089D01*
X184752381Y-92307130D01*
X184752382Y-92307128D01*
X184756739Y-92305765D01*
X184793792Y-92300100D01*
X184799660Y-92300100D01*
X184822370Y-92296791D01*
X184867792Y-92290173D01*
X184972882Y-92238798D01*
X185055597Y-92156083D01*
X185106972Y-92050993D01*
X185115408Y-91993090D01*
X185128899Y-91979601D01*
X185128899Y-91868096D01*
X185129746Y-91860889D01*
X185129971Y-91860358D01*
X185130161Y-91857712D01*
X185134399Y-91828237D01*
X185134399Y-91530962D01*
X185134244Y-91528088D01*
X185133221Y-91508994D01*
X185130387Y-91482636D01*
X185129736Y-91476580D01*
X185130318Y-91476517D01*
X185128899Y-91462717D01*
X185128899Y-89429616D01*
X185128899Y-86162566D01*
X185132975Y-86147240D01*
X185132283Y-86133800D01*
X185145270Y-86100991D01*
X185238772Y-85937591D01*
X185289152Y-85889183D01*
X185346385Y-85875179D01*
X187479132Y-85875004D01*
X187546173Y-85894683D01*
G37*
G04 #@! TD.AperFunction*
G04 #@! TA.AperFunction,Conductor*
G36*
X146982522Y-86429685D02*
G01*
X147006855Y-86450172D01*
X147449469Y-86932622D01*
X147530070Y-87020477D01*
X147542790Y-87037711D01*
X147552365Y-87044778D01*
X147560462Y-87053603D01*
X147560462Y-87053604D01*
X147954665Y-87483285D01*
X147978420Y-87521051D01*
X147981128Y-87527821D01*
X147990000Y-87573879D01*
X147990000Y-88235500D01*
X147987449Y-88244185D01*
X147988738Y-88253147D01*
X147977759Y-88277187D01*
X147970315Y-88302539D01*
X147963474Y-88308466D01*
X147959713Y-88316703D01*
X147937478Y-88330992D01*
X147917511Y-88348294D01*
X147906996Y-88350581D01*
X147900935Y-88354477D01*
X147866000Y-88359500D01*
X147823065Y-88359500D01*
X147756026Y-88339815D01*
X147745340Y-88332117D01*
X146005690Y-86932622D01*
X145979110Y-86903060D01*
X145918713Y-86809109D01*
X145899065Y-86745406D01*
X145893442Y-86537350D01*
X145911308Y-86469803D01*
X145962857Y-86422638D01*
X146017397Y-86410000D01*
X146915483Y-86410000D01*
X146982522Y-86429685D01*
G37*
G04 #@! TD.AperFunction*
G04 #@! TA.AperFunction,Conductor*
G36*
X159443039Y-52839685D02*
G01*
X159488794Y-52892489D01*
X159500000Y-52944000D01*
X159500000Y-54878865D01*
X159493000Y-54919939D01*
X159180870Y-55809036D01*
X159172020Y-55822073D01*
X159168302Y-55834819D01*
X159145236Y-55861533D01*
X158961830Y-56021016D01*
X158912021Y-56047362D01*
X158777744Y-56082698D01*
X158721869Y-56084373D01*
X158578500Y-56055700D01*
X158527002Y-56032228D01*
X158359222Y-55902581D01*
X158318213Y-55846016D01*
X158317943Y-55845247D01*
X157996850Y-54919744D01*
X157990000Y-54879100D01*
X157990000Y-52944000D01*
X158009685Y-52876961D01*
X158062489Y-52831206D01*
X158114000Y-52820000D01*
X159376000Y-52820000D01*
X159443039Y-52839685D01*
G37*
G04 #@! TD.AperFunction*
G04 #@! TA.AperFunction,Conductor*
G36*
X189415677Y-93219685D02*
G01*
X189436319Y-93236319D01*
X189663681Y-93463681D01*
X189697166Y-93525004D01*
X189700000Y-93551362D01*
X189700000Y-94448638D01*
X189680315Y-94515677D01*
X189663681Y-94536319D01*
X188536319Y-95663681D01*
X188474996Y-95697166D01*
X188448638Y-95700000D01*
X187900000Y-95700000D01*
X187400001Y-95999998D01*
X187037230Y-96453462D01*
X186979979Y-96493514D01*
X186940402Y-96500000D01*
X185759598Y-96500000D01*
X185692559Y-96480315D01*
X185662770Y-96453462D01*
X185327172Y-96033965D01*
X185300664Y-95969319D01*
X185300000Y-95956503D01*
X185300000Y-93751362D01*
X185319685Y-93684323D01*
X185336319Y-93663681D01*
X185536319Y-93463681D01*
X185748178Y-93251821D01*
X185809499Y-93218338D01*
X185879190Y-93223322D01*
X185890318Y-93228104D01*
X185915006Y-93240173D01*
X185983138Y-93250100D01*
X185983139Y-93250100D01*
X187074660Y-93250100D01*
X187111062Y-93244796D01*
X187142792Y-93240173D01*
X187199196Y-93212599D01*
X187253656Y-93200000D01*
X189348638Y-93200000D01*
X189415677Y-93219685D01*
G37*
G04 #@! TD.AperFunction*
G04 #@! TA.AperFunction,Conductor*
G36*
X183543039Y-69499685D02*
G01*
X183588794Y-69552489D01*
X183600000Y-69604000D01*
X183600000Y-70352489D01*
X183588367Y-70404927D01*
X183283396Y-71058438D01*
X183237208Y-71110863D01*
X183171029Y-71130000D01*
X182528971Y-71130000D01*
X182461932Y-71110315D01*
X182416604Y-71058438D01*
X182111633Y-70404927D01*
X182100000Y-70352489D01*
X182100000Y-69604000D01*
X182119685Y-69536961D01*
X182172489Y-69491206D01*
X182224000Y-69480000D01*
X183476000Y-69480000D01*
X183543039Y-69499685D01*
G37*
G04 #@! TD.AperFunction*
G04 #@! TA.AperFunction,Conductor*
G36*
X140997743Y-74787300D02*
G01*
X141100336Y-74814299D01*
X141132021Y-74822637D01*
X141143184Y-74828541D01*
X141152172Y-74829850D01*
X141181830Y-74848983D01*
X141365236Y-75008466D01*
X141400870Y-75060963D01*
X141713000Y-75950060D01*
X141720000Y-75991134D01*
X141720000Y-77926000D01*
X141700315Y-77993039D01*
X141647511Y-78038794D01*
X141596000Y-78050000D01*
X140334000Y-78050000D01*
X140266961Y-78030315D01*
X140221206Y-77977511D01*
X140210000Y-77926000D01*
X140210000Y-75990899D01*
X140216850Y-75950255D01*
X140216918Y-75950060D01*
X140537895Y-75024888D01*
X140578465Y-74968007D01*
X140578917Y-74967654D01*
X140747005Y-74837768D01*
X140798496Y-74814300D01*
X140941869Y-74785626D01*
X140997743Y-74787300D01*
G37*
G04 #@! TD.AperFunction*
G04 #@! TA.AperFunction,Conductor*
G36*
X134591408Y-70549685D02*
G01*
X134637163Y-70602489D01*
X134647107Y-70671647D01*
X134645236Y-70681699D01*
X134482353Y-71392458D01*
X134448191Y-71453406D01*
X134386500Y-71486210D01*
X134359936Y-71488749D01*
X133756304Y-71481203D01*
X133689516Y-71460682D01*
X133644425Y-71407311D01*
X133637338Y-71386398D01*
X133467085Y-70683177D01*
X133470442Y-70613389D01*
X133510997Y-70556494D01*
X133575874Y-70530556D01*
X133587603Y-70530000D01*
X134524369Y-70530000D01*
X134591408Y-70549685D01*
G37*
G04 #@! TD.AperFunction*
G04 #@! TA.AperFunction,Conductor*
G36*
X126068026Y-70609685D02*
G01*
X126113781Y-70662489D01*
X126123725Y-70731647D01*
X126122923Y-70736531D01*
X125998750Y-71408531D01*
X125967211Y-71470878D01*
X125906973Y-71506277D01*
X125876814Y-71510000D01*
X125284296Y-71510000D01*
X125217257Y-71490315D01*
X125171502Y-71437511D01*
X125162130Y-71407246D01*
X125092008Y-71004046D01*
X125045260Y-70735245D01*
X125053167Y-70665826D01*
X125097350Y-70611700D01*
X125163782Y-70590054D01*
X125167426Y-70590000D01*
X126000987Y-70590000D01*
X126068026Y-70609685D01*
G37*
G04 #@! TD.AperFunction*
G04 #@! TA.AperFunction,Conductor*
G36*
X147508059Y-50501061D02*
G01*
X147613223Y-50514906D01*
X147644491Y-50523284D01*
X147734918Y-50560740D01*
X147762952Y-50576925D01*
X147840602Y-50636509D01*
X147863491Y-50659398D01*
X147923074Y-50737048D01*
X147939259Y-50765081D01*
X147976715Y-50855508D01*
X147985093Y-50886775D01*
X147998939Y-50991939D01*
X148000000Y-51008125D01*
X148000000Y-51784767D01*
X147998939Y-51800953D01*
X147985093Y-51906117D01*
X147976715Y-51937383D01*
X147939260Y-52027808D01*
X147923075Y-52055842D01*
X147858496Y-52140003D01*
X147847801Y-52152198D01*
X147250000Y-52749999D01*
X147250000Y-54741874D01*
X147248939Y-54758059D01*
X147248939Y-54758060D01*
X147235093Y-54863224D01*
X147226715Y-54894491D01*
X147189259Y-54984918D01*
X147173074Y-55012951D01*
X147113491Y-55090601D01*
X147090601Y-55113491D01*
X147012951Y-55173074D01*
X146984918Y-55189259D01*
X146894491Y-55226715D01*
X146863224Y-55235093D01*
X146769398Y-55247446D01*
X146758058Y-55248939D01*
X146741874Y-55250000D01*
X143008126Y-55250000D01*
X142991941Y-55248939D01*
X142978917Y-55247224D01*
X142886775Y-55235093D01*
X142855508Y-55226715D01*
X142765081Y-55189259D01*
X142737048Y-55173074D01*
X142659398Y-55113491D01*
X142636508Y-55090601D01*
X142576925Y-55012951D01*
X142560740Y-54984918D01*
X142523284Y-54894491D01*
X142514906Y-54863223D01*
X142501061Y-54758059D01*
X142500000Y-54741874D01*
X142500000Y-52570827D01*
X142500258Y-52562838D01*
X142503664Y-52510277D01*
X142505733Y-52494394D01*
X142515892Y-52442737D01*
X142517687Y-52434948D01*
X142556088Y-52289952D01*
X142592280Y-52230188D01*
X142655038Y-52199477D01*
X142675955Y-52197700D01*
X142923600Y-52197700D01*
X142923600Y-50913971D01*
X142925777Y-50890836D01*
X142932486Y-50855508D01*
X142959123Y-50715244D01*
X142967626Y-50688040D01*
X142995875Y-50624474D01*
X143030105Y-50579328D01*
X143072318Y-50544376D01*
X143123063Y-50519169D01*
X143171777Y-50507737D01*
X143190770Y-50503280D01*
X143219101Y-50500000D01*
X147491874Y-50500000D01*
X147508059Y-50501061D01*
G37*
G04 #@! TD.AperFunction*
G04 #@! TA.AperFunction,Conductor*
G36*
X153475583Y-94380185D02*
G01*
X153484052Y-94386141D01*
X155390652Y-95849794D01*
X155407887Y-95873408D01*
X155427301Y-95895269D01*
X155429811Y-95903449D01*
X155431842Y-95906231D01*
X155437657Y-95929009D01*
X155457634Y-96056856D01*
X155448536Y-96126131D01*
X155403429Y-96179490D01*
X155336634Y-96199991D01*
X155335121Y-96200000D01*
X154445972Y-96200000D01*
X154378933Y-96180315D01*
X154365138Y-96170031D01*
X154314071Y-96126131D01*
X153285971Y-95242326D01*
X153249168Y-95187504D01*
X153246362Y-95179085D01*
X153240000Y-95139877D01*
X153240000Y-94484500D01*
X153259685Y-94417461D01*
X153312489Y-94371706D01*
X153364000Y-94360500D01*
X153408544Y-94360500D01*
X153475583Y-94380185D01*
G37*
G04 #@! TD.AperFunction*
G04 #@! TA.AperFunction,Conductor*
G36*
X137299289Y-92937410D02*
G01*
X140809362Y-95023954D01*
X140856930Y-95075130D01*
X140870000Y-95130543D01*
X140870000Y-96246427D01*
X140850315Y-96313466D01*
X140842744Y-96323994D01*
X137307229Y-100733567D01*
X137249935Y-100773557D01*
X137210485Y-100780000D01*
X135404000Y-100780000D01*
X135336961Y-100760315D01*
X135291206Y-100707511D01*
X135280000Y-100656000D01*
X135280000Y-93044000D01*
X135299685Y-92976961D01*
X135352489Y-92931206D01*
X135404000Y-92920000D01*
X137235928Y-92920000D01*
X137299289Y-92937410D01*
G37*
G04 #@! TD.AperFunction*
G04 #@! TA.AperFunction,Conductor*
G36*
X141989474Y-81056646D02*
G01*
X143205810Y-81471744D01*
X143213825Y-81476464D01*
X143219678Y-81477434D01*
X143248948Y-81497144D01*
X143399194Y-81633081D01*
X143435699Y-81692653D01*
X143440000Y-81725029D01*
X143440000Y-82266857D01*
X143420315Y-82333896D01*
X143413222Y-82343824D01*
X143287234Y-82502967D01*
X143230189Y-82543311D01*
X143190012Y-82550000D01*
X142729305Y-82550000D01*
X142710798Y-82548611D01*
X140175493Y-82165923D01*
X140112142Y-82136453D01*
X140074781Y-82077412D01*
X140070000Y-82043312D01*
X140070000Y-81174000D01*
X140089685Y-81106961D01*
X140142489Y-81061206D01*
X140194000Y-81050000D01*
X141949425Y-81050000D01*
X141989474Y-81056646D01*
G37*
G04 #@! TD.AperFunction*
G04 #@! TA.AperFunction,Conductor*
G36*
X137278622Y-81059685D02*
G01*
X137307196Y-81085043D01*
X139836114Y-84147458D01*
X139863622Y-84211683D01*
X139864500Y-84226413D01*
X139864500Y-84526000D01*
X139868790Y-84565903D01*
X139869500Y-84579149D01*
X139869500Y-84669753D01*
X139881131Y-84728230D01*
X139881132Y-84728231D01*
X139925447Y-84794553D01*
X139991769Y-84838868D01*
X139991770Y-84838869D01*
X140050247Y-84850500D01*
X140050250Y-84850501D01*
X140050252Y-84850501D01*
X140150363Y-84850501D01*
X140153286Y-84850535D01*
X140160682Y-84850709D01*
X140194000Y-84855500D01*
X140363873Y-84855500D01*
X140365315Y-84855534D01*
X140397276Y-84865743D01*
X140429431Y-84875185D01*
X140430890Y-84876480D01*
X140431872Y-84876794D01*
X140433596Y-84878881D01*
X140458005Y-84900543D01*
X140891613Y-85425624D01*
X140919122Y-85489851D01*
X140920000Y-85504581D01*
X140920000Y-86512044D01*
X140900315Y-86579083D01*
X140862721Y-86616564D01*
X137300516Y-88890520D01*
X137233795Y-88910000D01*
X135404000Y-88910000D01*
X135336961Y-88890315D01*
X135291206Y-88837511D01*
X135280000Y-88786000D01*
X135280000Y-81164000D01*
X135299685Y-81096961D01*
X135352489Y-81051206D01*
X135404000Y-81040000D01*
X137211583Y-81040000D01*
X137278622Y-81059685D01*
G37*
G04 #@! TD.AperFunction*
G04 #@! TA.AperFunction,Conductor*
G36*
X169583039Y-52849685D02*
G01*
X169628794Y-52902489D01*
X169640000Y-52954000D01*
X169640000Y-54888865D01*
X169633000Y-54929939D01*
X169320870Y-55819036D01*
X169312020Y-55832073D01*
X169308302Y-55844819D01*
X169285236Y-55871533D01*
X169101830Y-56031016D01*
X169052021Y-56057362D01*
X168917744Y-56092698D01*
X168861869Y-56094373D01*
X168718500Y-56065700D01*
X168667002Y-56042228D01*
X168499222Y-55912581D01*
X168458213Y-55856016D01*
X168457943Y-55855247D01*
X168136850Y-54929744D01*
X168130000Y-54889100D01*
X168130000Y-52954000D01*
X168149685Y-52886961D01*
X168202489Y-52841206D01*
X168254000Y-52830000D01*
X169516000Y-52830000D01*
X169583039Y-52849685D01*
G37*
G04 #@! TD.AperFunction*
G04 #@! TA.AperFunction,Conductor*
G36*
X162218859Y-110336066D02*
G01*
X162284192Y-110360835D01*
X162325762Y-110416992D01*
X162333336Y-110461472D01*
X162307249Y-112287545D01*
X162300307Y-112309993D01*
X162297770Y-112333354D01*
X162290178Y-112342753D01*
X162286609Y-112354297D01*
X162268631Y-112369430D01*
X162253869Y-112387708D01*
X162242401Y-112391510D01*
X162233157Y-112399293D01*
X162209853Y-112402304D01*
X162187551Y-112409700D01*
X162168574Y-112407638D01*
X162163864Y-112408247D01*
X162152463Y-112405888D01*
X161948539Y-112353599D01*
X161890767Y-112320267D01*
X161550929Y-111973421D01*
X161518071Y-111911759D01*
X161515500Y-111886639D01*
X161515500Y-111833393D01*
X161515499Y-111833389D01*
X161491464Y-111712555D01*
X161491463Y-111712548D01*
X161453020Y-111619739D01*
X161444312Y-111598716D01*
X161444307Y-111598707D01*
X161375858Y-111496267D01*
X161375855Y-111496263D01*
X161288736Y-111409144D01*
X161288732Y-111409141D01*
X161186292Y-111340692D01*
X161186283Y-111340687D01*
X161072454Y-111293538D01*
X161072456Y-111293538D01*
X161072452Y-111293537D01*
X161072449Y-111293536D01*
X161072445Y-111293535D01*
X161000308Y-111279186D01*
X160938397Y-111246801D01*
X160903823Y-111186085D01*
X160900500Y-111157569D01*
X160900500Y-110423965D01*
X160920185Y-110356926D01*
X160940124Y-110333099D01*
X160995228Y-110281931D01*
X161057749Y-110250738D01*
X161089109Y-110249162D01*
X162218859Y-110336066D01*
G37*
G04 #@! TD.AperFunction*
G04 #@! TA.AperFunction,Conductor*
G36*
X170557144Y-102929685D02*
G01*
X170569487Y-102938740D01*
X170730382Y-103072818D01*
X170769282Y-103130858D01*
X170775000Y-103168078D01*
X170775000Y-103810001D01*
X171104260Y-104957706D01*
X171103826Y-105027574D01*
X171070473Y-105081800D01*
X170560107Y-105566647D01*
X170497946Y-105598549D01*
X170476581Y-105600733D01*
X169259313Y-105619177D01*
X169191983Y-105600510D01*
X169167571Y-105580635D01*
X169151980Y-105564238D01*
X168668682Y-105055941D01*
X168636754Y-104993795D01*
X168636662Y-104947691D01*
X168967166Y-103181849D01*
X168998847Y-103119578D01*
X169006880Y-103111797D01*
X169199816Y-102941123D01*
X169263071Y-102911449D01*
X169281975Y-102910000D01*
X170490105Y-102910000D01*
X170557144Y-102929685D01*
G37*
G04 #@! TD.AperFunction*
G04 #@! TA.AperFunction,Conductor*
G36*
X128895743Y-98936974D02*
G01*
X129114723Y-99042931D01*
X129166496Y-99089850D01*
X129169061Y-99094245D01*
X129695471Y-100040000D01*
X129724347Y-100091878D01*
X129740000Y-100152184D01*
X129740000Y-100945709D01*
X129720315Y-101012748D01*
X129700107Y-101036825D01*
X129515624Y-101207117D01*
X129453011Y-101238124D01*
X129431517Y-101240001D01*
X128239886Y-101240001D01*
X128211613Y-101231699D01*
X128182692Y-101226023D01*
X128176043Y-101221254D01*
X128172847Y-101220316D01*
X128154012Y-101205453D01*
X127978126Y-101036601D01*
X127943397Y-100975973D01*
X127940000Y-100947149D01*
X127940000Y-100193136D01*
X127942753Y-100167154D01*
X127966057Y-100058404D01*
X127979229Y-100023594D01*
X128491769Y-99112410D01*
X128541791Y-99063632D01*
X128542951Y-99063026D01*
X128784950Y-98938360D01*
X128853559Y-98925159D01*
X128895743Y-98936974D01*
G37*
G04 #@! TD.AperFunction*
G04 #@! TA.AperFunction,Conductor*
G36*
X167043039Y-52839685D02*
G01*
X167088794Y-52892489D01*
X167100000Y-52944000D01*
X167100000Y-54878865D01*
X167093000Y-54919939D01*
X166780870Y-55809036D01*
X166772020Y-55822073D01*
X166768302Y-55834819D01*
X166745236Y-55861533D01*
X166561830Y-56021016D01*
X166512021Y-56047362D01*
X166377744Y-56082698D01*
X166321869Y-56084373D01*
X166178500Y-56055700D01*
X166127002Y-56032228D01*
X165959222Y-55902581D01*
X165918213Y-55846016D01*
X165917943Y-55845247D01*
X165596850Y-54919744D01*
X165590000Y-54879100D01*
X165590000Y-52944000D01*
X165609685Y-52876961D01*
X165662489Y-52831206D01*
X165714000Y-52820000D01*
X166976000Y-52820000D01*
X167043039Y-52839685D01*
G37*
G04 #@! TD.AperFunction*
G04 #@! TA.AperFunction,Conductor*
G36*
X184244576Y-90799286D02*
G01*
X184265218Y-90815920D01*
X184892580Y-91443282D01*
X184926065Y-91504605D01*
X184928899Y-91530963D01*
X184928899Y-91828239D01*
X184909214Y-91895278D01*
X184892580Y-91915920D01*
X184715218Y-92093282D01*
X184653895Y-92126767D01*
X184627537Y-92129601D01*
X183528898Y-92129601D01*
X182715217Y-92943282D01*
X182653894Y-92976767D01*
X182627536Y-92979601D01*
X177380261Y-92979601D01*
X177313222Y-92959916D01*
X177292580Y-92943282D01*
X176915218Y-92565920D01*
X176881733Y-92504597D01*
X176878899Y-92478239D01*
X176878899Y-91280963D01*
X176898584Y-91213924D01*
X176915218Y-91193282D01*
X177292580Y-90815920D01*
X177353903Y-90782435D01*
X177380261Y-90779601D01*
X184177537Y-90779601D01*
X184244576Y-90799286D01*
G37*
G04 #@! TD.AperFunction*
G04 #@! TA.AperFunction,Conductor*
G36*
X171447743Y-74787300D02*
G01*
X171550336Y-74814299D01*
X171582021Y-74822637D01*
X171593184Y-74828541D01*
X171602172Y-74829850D01*
X171631830Y-74848983D01*
X171815236Y-75008466D01*
X171850870Y-75060963D01*
X172163000Y-75950060D01*
X172170000Y-75991134D01*
X172170000Y-77926000D01*
X172150315Y-77993039D01*
X172097511Y-78038794D01*
X172046000Y-78050000D01*
X170784000Y-78050000D01*
X170716961Y-78030315D01*
X170671206Y-77977511D01*
X170660000Y-77926000D01*
X170660000Y-75990899D01*
X170666850Y-75950255D01*
X170666918Y-75950060D01*
X170987895Y-75024888D01*
X171028465Y-74968007D01*
X171028917Y-74967654D01*
X171197005Y-74837768D01*
X171248496Y-74814300D01*
X171391869Y-74785626D01*
X171447743Y-74787300D01*
G37*
G04 #@! TD.AperFunction*
G04 #@! TA.AperFunction,Conductor*
G36*
X166367743Y-74787300D02*
G01*
X166470336Y-74814299D01*
X166502021Y-74822637D01*
X166513184Y-74828541D01*
X166522172Y-74829850D01*
X166551830Y-74848983D01*
X166735236Y-75008466D01*
X166770870Y-75060963D01*
X167083000Y-75950060D01*
X167090000Y-75991134D01*
X167090000Y-77926000D01*
X167070315Y-77993039D01*
X167017511Y-78038794D01*
X166966000Y-78050000D01*
X165704000Y-78050000D01*
X165636961Y-78030315D01*
X165591206Y-77977511D01*
X165580000Y-77926000D01*
X165580000Y-75990899D01*
X165586850Y-75950255D01*
X165586918Y-75950060D01*
X165907895Y-75024888D01*
X165948465Y-74968007D01*
X165948917Y-74967654D01*
X166117005Y-74837768D01*
X166168496Y-74814300D01*
X166311869Y-74785626D01*
X166367743Y-74787300D01*
G37*
G04 #@! TD.AperFunction*
G04 #@! TA.AperFunction,Conductor*
G36*
X156903039Y-52839685D02*
G01*
X156948794Y-52892489D01*
X156960000Y-52944000D01*
X156960000Y-54878865D01*
X156953000Y-54919939D01*
X156640870Y-55809036D01*
X156632020Y-55822073D01*
X156628302Y-55834819D01*
X156605236Y-55861533D01*
X156421830Y-56021016D01*
X156372021Y-56047362D01*
X156237744Y-56082698D01*
X156181869Y-56084373D01*
X156038500Y-56055700D01*
X155987002Y-56032228D01*
X155819222Y-55902581D01*
X155778213Y-55846016D01*
X155777943Y-55845247D01*
X155456850Y-54919744D01*
X155450000Y-54879100D01*
X155450000Y-52944000D01*
X155469685Y-52876961D01*
X155522489Y-52831206D01*
X155574000Y-52820000D01*
X156836000Y-52820000D01*
X156903039Y-52839685D01*
G37*
G04 #@! TD.AperFunction*
G04 #@! TA.AperFunction,Conductor*
G36*
X126605743Y-98936974D02*
G01*
X126824722Y-99042931D01*
X126876495Y-99089850D01*
X126879055Y-99094236D01*
X127434347Y-100091880D01*
X127450000Y-100152184D01*
X127450000Y-100945709D01*
X127430315Y-101012748D01*
X127410107Y-101036825D01*
X127225624Y-101207117D01*
X127163011Y-101238124D01*
X127141517Y-101240001D01*
X125949886Y-101240001D01*
X125921613Y-101231699D01*
X125892692Y-101226023D01*
X125886043Y-101221254D01*
X125882847Y-101220316D01*
X125864012Y-101205453D01*
X125688126Y-101036601D01*
X125653397Y-100975973D01*
X125650000Y-100947149D01*
X125650000Y-100193139D01*
X125652752Y-100167158D01*
X125662857Y-100120001D01*
X125676057Y-100058397D01*
X125689225Y-100023598D01*
X126201769Y-99112410D01*
X126251791Y-99063633D01*
X126253056Y-99062972D01*
X126494948Y-98938360D01*
X126563558Y-98925159D01*
X126605743Y-98936974D01*
G37*
G04 #@! TD.AperFunction*
G04 #@! TA.AperFunction,Conductor*
G36*
X143255677Y-83079685D02*
G01*
X143276319Y-83096319D01*
X143413681Y-83233681D01*
X143447166Y-83295004D01*
X143450000Y-83321362D01*
X143450000Y-83843407D01*
X143442473Y-83869037D01*
X143438544Y-83895463D01*
X143431554Y-83906223D01*
X143430315Y-83910446D01*
X143419319Y-83925062D01*
X143259260Y-84107986D01*
X143212927Y-84141084D01*
X141992584Y-84640753D01*
X141945598Y-84650000D01*
X140194000Y-84650000D01*
X140126961Y-84630315D01*
X140081206Y-84577511D01*
X140070000Y-84526000D01*
X140070000Y-83653102D01*
X140089685Y-83586063D01*
X140142489Y-83540308D01*
X140171363Y-83531186D01*
X142698783Y-83062082D01*
X142721412Y-83060000D01*
X143188638Y-83060000D01*
X143255677Y-83079685D01*
G37*
G04 #@! TD.AperFunction*
G04 #@! TA.AperFunction,Conductor*
G36*
X143237358Y-79779685D02*
G01*
X143255935Y-79794301D01*
X143401619Y-79933364D01*
X143436521Y-79993891D01*
X143440000Y-80023059D01*
X143440000Y-80550243D01*
X143431728Y-80578411D01*
X143426126Y-80607237D01*
X143421267Y-80614036D01*
X143420315Y-80617282D01*
X143405608Y-80635955D01*
X143256623Y-80791712D01*
X143196058Y-80826551D01*
X143167015Y-80830000D01*
X142739860Y-80830000D01*
X142720269Y-80828443D01*
X141785328Y-80678852D01*
X141722241Y-80648823D01*
X141700078Y-80622624D01*
X141536852Y-80364183D01*
X141517697Y-80296991D01*
X141537909Y-80230108D01*
X141544352Y-80221153D01*
X141760237Y-79947698D01*
X141817226Y-79907279D01*
X141837384Y-79902189D01*
X142689984Y-79761651D01*
X142710151Y-79760000D01*
X143170319Y-79760000D01*
X143237358Y-79779685D01*
G37*
G04 #@! TD.AperFunction*
G04 #@! TA.AperFunction,Conductor*
G36*
X155423039Y-86409685D02*
G01*
X155468794Y-86462489D01*
X155480000Y-86514000D01*
X155480000Y-87416435D01*
X155460315Y-87483474D01*
X155452753Y-87493991D01*
X154506641Y-88674288D01*
X154449352Y-88714285D01*
X154411419Y-88720723D01*
X153745531Y-88728944D01*
X153736073Y-88726293D01*
X153726353Y-88727691D01*
X153702987Y-88717020D01*
X153678253Y-88710088D01*
X153671730Y-88702745D01*
X153662797Y-88698666D01*
X153648909Y-88677056D01*
X153631850Y-88657853D01*
X153629325Y-88646582D01*
X153625023Y-88639888D01*
X153620000Y-88604953D01*
X153620000Y-88561227D01*
X153639685Y-88494188D01*
X153644684Y-88486981D01*
X154387016Y-87493991D01*
X155142415Y-86483521D01*
X155186273Y-86446863D01*
X155230047Y-86424976D01*
X155273819Y-86403091D01*
X155329272Y-86390000D01*
X155356000Y-86390000D01*
X155423039Y-86409685D01*
G37*
G04 #@! TD.AperFunction*
G04 #@! TA.AperFunction,Conductor*
G36*
X130038222Y-80119692D02*
G01*
X130076655Y-80158348D01*
X131491000Y-82409755D01*
X131510000Y-82475717D01*
X131510000Y-82865829D01*
X131490315Y-82932868D01*
X131437511Y-82978623D01*
X131385830Y-82989829D01*
X124333830Y-82980169D01*
X124266818Y-82960393D01*
X124221135Y-82907526D01*
X124210000Y-82856169D01*
X124210000Y-82484598D01*
X124227913Y-82420399D01*
X124234354Y-82409755D01*
X125584003Y-80179483D01*
X125635551Y-80132321D01*
X125689526Y-80119685D01*
X129971096Y-80100311D01*
X130038222Y-80119692D01*
G37*
G04 #@! TD.AperFunction*
G04 #@! TA.AperFunction,Conductor*
G36*
X143247358Y-84799685D02*
G01*
X143265935Y-84814301D01*
X143411619Y-84953364D01*
X143446521Y-85013891D01*
X143450000Y-85043059D01*
X143450000Y-85570243D01*
X143441728Y-85598411D01*
X143436126Y-85627237D01*
X143431267Y-85634036D01*
X143430315Y-85637282D01*
X143415608Y-85655955D01*
X143266623Y-85811712D01*
X143206058Y-85846551D01*
X143177015Y-85850000D01*
X142749860Y-85850000D01*
X142730269Y-85848443D01*
X141795328Y-85698852D01*
X141732241Y-85668823D01*
X141710078Y-85642624D01*
X141546852Y-85384183D01*
X141527697Y-85316991D01*
X141547909Y-85250108D01*
X141554352Y-85241153D01*
X141770237Y-84967698D01*
X141827226Y-84927279D01*
X141847384Y-84922189D01*
X142699984Y-84781651D01*
X142720151Y-84780000D01*
X143180319Y-84780000D01*
X143247358Y-84799685D01*
G37*
G04 #@! TD.AperFunction*
G04 #@! TA.AperFunction,Conductor*
G36*
X141209640Y-51191526D02*
G01*
X141319663Y-51208953D01*
X141321903Y-51209680D01*
X141323149Y-51209556D01*
X141356550Y-51220937D01*
X141382697Y-51234260D01*
X141433491Y-51282233D01*
X141450400Y-51344743D01*
X141450400Y-52197700D01*
X141570095Y-52197700D01*
X141595870Y-52205268D01*
X141622428Y-52209285D01*
X141628884Y-52214962D01*
X141637134Y-52217385D01*
X141654723Y-52237684D01*
X141674897Y-52255424D01*
X141680035Y-52266895D01*
X141682889Y-52270189D01*
X141689324Y-52287634D01*
X141745229Y-52483301D01*
X141748463Y-52506395D01*
X141749999Y-52509999D01*
X141752679Y-52512572D01*
X141752693Y-52512586D01*
X141753606Y-52513462D01*
X141753607Y-52513463D01*
X141868988Y-52624229D01*
X141880185Y-52636525D01*
X141932311Y-52702118D01*
X141949303Y-52730644D01*
X141978854Y-52799977D01*
X141987666Y-52831992D01*
X141998883Y-52915008D01*
X142000000Y-52931612D01*
X142000000Y-55305704D01*
X141998090Y-55327386D01*
X141973277Y-55467108D01*
X141958346Y-55507819D01*
X141886947Y-55630445D01*
X141874388Y-55648219D01*
X141784742Y-55754004D01*
X141784741Y-55754006D01*
X141655586Y-55906408D01*
X141643044Y-55919205D01*
X141555265Y-55996683D01*
X141525339Y-56016226D01*
X141427337Y-56061635D01*
X141393078Y-56071831D01*
X141318304Y-56082721D01*
X141277221Y-56088705D01*
X141259352Y-56090000D01*
X140865278Y-56090000D01*
X140846186Y-56088521D01*
X140722637Y-56069269D01*
X140686266Y-56057653D01*
X140583127Y-56006074D01*
X140552014Y-55983942D01*
X140485634Y-55919205D01*
X140469457Y-55903428D01*
X140446553Y-55872879D01*
X140387844Y-55762485D01*
X140380186Y-55744936D01*
X140326292Y-55589723D01*
X140279359Y-55454555D01*
X140276385Y-55444678D01*
X140259536Y-55378871D01*
X140256098Y-55358488D01*
X140250431Y-55290812D01*
X140250000Y-55280486D01*
X140250000Y-52059864D01*
X140251488Y-52040714D01*
X140270858Y-51916795D01*
X140271477Y-51914861D01*
X140271364Y-51913796D01*
X140282544Y-51880325D01*
X140338810Y-51768222D01*
X140348725Y-51751782D01*
X140594725Y-51407382D01*
X140607348Y-51392379D01*
X140697337Y-51301174D01*
X140728853Y-51278016D01*
X140833912Y-51223951D01*
X140871081Y-51211764D01*
X140977735Y-51194724D01*
X140997589Y-51191553D01*
X141017151Y-51190000D01*
X141190243Y-51190000D01*
X141209640Y-51191526D01*
G37*
G04 #@! TD.AperFunction*
G04 #@! TA.AperFunction,Conductor*
G36*
X153845254Y-54643034D02*
G01*
X153847893Y-54647086D01*
X154185381Y-55519499D01*
X154185170Y-55528451D01*
X154178690Y-55534632D01*
X154176774Y-55535191D01*
X153704774Y-55630040D01*
X153695988Y-55628310D01*
X153557126Y-55535191D01*
X153292378Y-55357655D01*
X153287415Y-55350201D01*
X153288169Y-55343261D01*
X153591938Y-54646630D01*
X153598386Y-54640417D01*
X153602663Y-54639607D01*
X153836981Y-54639607D01*
X153845254Y-54643034D01*
G37*
G04 #@! TD.AperFunction*
G04 #@! TA.AperFunction,Conductor*
G36*
X151255338Y-54603034D02*
G01*
X151257935Y-54606980D01*
X151605204Y-55479420D01*
X151605080Y-55488374D01*
X151598661Y-55494617D01*
X151596639Y-55495218D01*
X151124774Y-55590040D01*
X151115988Y-55588310D01*
X151115953Y-55588286D01*
X150712280Y-55317589D01*
X150707317Y-55310135D01*
X150708016Y-55303324D01*
X151001982Y-54606757D01*
X151008356Y-54600468D01*
X151012761Y-54599607D01*
X151247065Y-54599607D01*
X151255338Y-54603034D01*
G37*
G04 #@! TD.AperFunction*
M02*
