M48
; DRILL file {KiCad 9.0.3} date 2025-07-24T20:29:04-0700
; FORMAT={-:-/ absolute / metric / decimal}
; #@! TF.CreationDate,2025-07-24T20:29:04-07:00
; #@! TF.GenerationSoftware,Kicad,Pcbnew,9.0.3
; #@! TF.FileFunction,Plated,1,4,PTH
FMAT,2
METRIC
; #@! TA.AperFunction,Plated,PTH,ViaDrill
T1C0.300
; #@! TA.AperFunction,Plated,PTH,ViaDrill
T2C0.400
; #@! TA.AperFunction,Plated,PTH,ViaDrill
T3C0.500
; #@! TA.AperFunction,Plated,PTH,ViaDrill
T4C0.600
; #@! TA.AperFunction,Plated,PTH,ComponentDrill
T5C0.600
; #@! TA.AperFunction,Plated,PTH,ViaDrill
T6C0.800
; #@! TA.AperFunction,Plated,PTH,ComponentDrill
T7C0.950
; #@! TA.AperFunction,Plated,PTH,ComponentDrill
T8C1.000
%
G90
G05
T1
X126.57Y-99.34
X127.78Y-90.56
X127.79Y-75.56
X127.86Y-86.56
X128.84Y-99.3
X151.26Y-109.555
X164.775Y-109.52
X184.8Y-98.5
X188.59Y-98.41
T2
X125.58Y-71.51
X134.06Y-71.47
X135.49Y-66.53
X136.74Y-78.88
X141.89Y-80.3
X141.9Y-85.33
X155.16Y-91.41
X155.29Y-94.86
X155.99Y-92.16
X156.26Y-94.16
X156.65Y-93.08
X182.85Y-71.13
T3
X140.11Y-90.9
X140.96Y-55.5
X140.96Y-75.28
X143.953Y-93.153
X144.102Y-94.344
X146.406Y-85.293
X148.133Y-85.293
X149.855Y-102.67
X151.12Y-55.59
X153.213Y-97.434
X153.7Y-55.63
X154.94Y-97.434
X156.2Y-55.59
X156.759Y-88.585
X156.769Y-86.919
X158.74Y-55.59
X166.33Y-75.28
X166.34Y-55.59
X168.88Y-55.6
X171.41Y-75.28
X171.43Y-55.6
X181.495Y-66.66
X189.105Y-69.96
T4
X169.2Y-105.05
X170.5Y-105.0
X173.0Y-100.4
X174.2Y-101.7
X174.25Y-103.9
X174.65Y-98.45
X178.4Y-87.9
T6
X145.05Y-51.6
X147.0Y-51.55
X155.625Y-108.945
X160.425Y-108.945
X176.5Y-82.7
X178.9Y-82.7
X181.4Y-82.7
T7
X139.5Y-112.475
X142.0Y-112.475
X144.5Y-112.475
T8
X162.6Y-95.97
X162.636Y-82.01
X165.14Y-95.97
X165.176Y-82.01
X167.68Y-95.97
X167.716Y-82.01
X170.22Y-95.97
X170.256Y-82.01
X172.69Y-112.46
X175.19Y-112.46
X178.179Y-91.88
X178.179Y-94.38
X181.87Y-75.98
X187.07Y-75.98
T5
G00X153.68Y-110.845
M15
G01X153.68Y-111.945
M16
G05
G00X153.68Y-115.275
M15
G01X153.68Y-115.875
M16
G05
G00X162.32Y-110.845
M15
G01X162.32Y-111.945
M16
G05
G00X162.32Y-115.275
M15
G01X162.32Y-115.875
M16
G05
M30
