%TF.GenerationSoftware,KiCad,Pcbnew,8.0.5*%
%TF.CreationDate,2025-03-07T10:13:15-08:00*%
%TF.ProjectId,Telemetry PCB V2,54656c65-6d65-4747-9279-205043422056,rev?*%
%TF.SameCoordinates,Original*%
%TF.FileFunction,Drillmap*%
%TF.FilePolarity,Positive*%
%FSLAX45Y45*%
G04 Gerber Fmt 4.5, Leading zero omitted, Abs format (unit mm)*
G04 Created by KiCad (PCBNEW 8.0.5) date 2025-03-07 10:13:15*
%MOMM*%
%LPD*%
G01*
G04 APERTURE LIST*
%ADD10C,0.100000*%
%ADD11C,0.200000*%
G04 APERTURE END LIST*
D10*
X18537000Y-4844000D02*
G75*
G02*
X19287000Y-5594000I0J-750000D01*
G01*
X19287000Y-11094000D02*
G75*
G02*
X18537000Y-11844000I-750000J0D01*
G01*
X13037000Y-11844000D02*
G75*
G02*
X12287000Y-11094000I0J750000D01*
G01*
X18712000Y-11094000D02*
G75*
G02*
X18362000Y-11094000I-175000J0D01*
G01*
X18362000Y-11094000D02*
G75*
G02*
X18712000Y-11094000I175000J0D01*
G01*
X13212000Y-5594000D02*
G75*
G02*
X12862000Y-5594000I-175000J0D01*
G01*
X12862000Y-5594000D02*
G75*
G02*
X13212000Y-5594000I175000J0D01*
G01*
X18712000Y-5594000D02*
G75*
G02*
X18362000Y-5594000I-175000J0D01*
G01*
X18362000Y-5594000D02*
G75*
G02*
X18712000Y-5594000I175000J0D01*
G01*
X19287000Y-5594000D02*
X19287000Y-11094000D01*
X13212000Y-11094000D02*
G75*
G02*
X12862000Y-11094000I-175000J0D01*
G01*
X12862000Y-11094000D02*
G75*
G02*
X13212000Y-11094000I175000J0D01*
G01*
X18537000Y-11844000D02*
X13037000Y-11844000D01*
X12287000Y-11094000D02*
X12287000Y-5594000D01*
X13037000Y-4844000D02*
X18537000Y-4844000D01*
X12287000Y-5594000D02*
G75*
G02*
X13037000Y-4844000I750000J0D01*
G01*
D11*
D10*
X14746000Y-11182500D02*
X14811000Y-11247500D01*
X14811000Y-11182500D02*
X14746000Y-11247500D01*
X15324000Y-11182500D02*
X15389000Y-11247500D01*
X15389000Y-11182500D02*
X15324000Y-11247500D01*
D11*
X12542777Y-12160484D02*
X12542777Y-11960484D01*
X12542777Y-11960484D02*
X12590396Y-11960484D01*
X12590396Y-11960484D02*
X12618967Y-11970008D01*
X12618967Y-11970008D02*
X12638015Y-11989055D01*
X12638015Y-11989055D02*
X12647539Y-12008103D01*
X12647539Y-12008103D02*
X12657062Y-12046198D01*
X12657062Y-12046198D02*
X12657062Y-12074769D01*
X12657062Y-12074769D02*
X12647539Y-12112865D01*
X12647539Y-12112865D02*
X12638015Y-12131912D01*
X12638015Y-12131912D02*
X12618967Y-12150960D01*
X12618967Y-12150960D02*
X12590396Y-12160484D01*
X12590396Y-12160484D02*
X12542777Y-12160484D01*
X12742777Y-12160484D02*
X12742777Y-12027150D01*
X12742777Y-12065246D02*
X12752301Y-12046198D01*
X12752301Y-12046198D02*
X12761824Y-12036674D01*
X12761824Y-12036674D02*
X12780872Y-12027150D01*
X12780872Y-12027150D02*
X12799920Y-12027150D01*
X12866586Y-12160484D02*
X12866586Y-12027150D01*
X12866586Y-11960484D02*
X12857062Y-11970008D01*
X12857062Y-11970008D02*
X12866586Y-11979531D01*
X12866586Y-11979531D02*
X12876110Y-11970008D01*
X12876110Y-11970008D02*
X12866586Y-11960484D01*
X12866586Y-11960484D02*
X12866586Y-11979531D01*
X12990396Y-12160484D02*
X12971348Y-12150960D01*
X12971348Y-12150960D02*
X12961824Y-12131912D01*
X12961824Y-12131912D02*
X12961824Y-11960484D01*
X13095158Y-12160484D02*
X13076110Y-12150960D01*
X13076110Y-12150960D02*
X13066586Y-12131912D01*
X13066586Y-12131912D02*
X13066586Y-11960484D01*
X13323729Y-12160484D02*
X13323729Y-11960484D01*
X13323729Y-11960484D02*
X13390396Y-12103341D01*
X13390396Y-12103341D02*
X13457062Y-11960484D01*
X13457062Y-11960484D02*
X13457062Y-12160484D01*
X13638015Y-12160484D02*
X13638015Y-12055722D01*
X13638015Y-12055722D02*
X13628491Y-12036674D01*
X13628491Y-12036674D02*
X13609443Y-12027150D01*
X13609443Y-12027150D02*
X13571348Y-12027150D01*
X13571348Y-12027150D02*
X13552301Y-12036674D01*
X13638015Y-12150960D02*
X13618967Y-12160484D01*
X13618967Y-12160484D02*
X13571348Y-12160484D01*
X13571348Y-12160484D02*
X13552301Y-12150960D01*
X13552301Y-12150960D02*
X13542777Y-12131912D01*
X13542777Y-12131912D02*
X13542777Y-12112865D01*
X13542777Y-12112865D02*
X13552301Y-12093817D01*
X13552301Y-12093817D02*
X13571348Y-12084293D01*
X13571348Y-12084293D02*
X13618967Y-12084293D01*
X13618967Y-12084293D02*
X13638015Y-12074769D01*
X13733253Y-12027150D02*
X13733253Y-12227150D01*
X13733253Y-12036674D02*
X13752301Y-12027150D01*
X13752301Y-12027150D02*
X13790396Y-12027150D01*
X13790396Y-12027150D02*
X13809443Y-12036674D01*
X13809443Y-12036674D02*
X13818967Y-12046198D01*
X13818967Y-12046198D02*
X13828491Y-12065246D01*
X13828491Y-12065246D02*
X13828491Y-12122388D01*
X13828491Y-12122388D02*
X13818967Y-12141436D01*
X13818967Y-12141436D02*
X13809443Y-12150960D01*
X13809443Y-12150960D02*
X13790396Y-12160484D01*
X13790396Y-12160484D02*
X13752301Y-12160484D01*
X13752301Y-12160484D02*
X13733253Y-12150960D01*
X13914205Y-12141436D02*
X13923729Y-12150960D01*
X13923729Y-12150960D02*
X13914205Y-12160484D01*
X13914205Y-12160484D02*
X13904682Y-12150960D01*
X13904682Y-12150960D02*
X13914205Y-12141436D01*
X13914205Y-12141436D02*
X13914205Y-12160484D01*
X13914205Y-12036674D02*
X13923729Y-12046198D01*
X13923729Y-12046198D02*
X13914205Y-12055722D01*
X13914205Y-12055722D02*
X13904682Y-12046198D01*
X13904682Y-12046198D02*
X13914205Y-12036674D01*
X13914205Y-12036674D02*
X13914205Y-12055722D01*
D10*
X12217000Y-12456500D02*
X12282000Y-12521500D01*
X12282000Y-12456500D02*
X12217000Y-12521500D01*
D11*
X12580872Y-12380484D02*
X12599920Y-12380484D01*
X12599920Y-12380484D02*
X12618967Y-12390008D01*
X12618967Y-12390008D02*
X12628491Y-12399531D01*
X12628491Y-12399531D02*
X12638015Y-12418579D01*
X12638015Y-12418579D02*
X12647539Y-12456674D01*
X12647539Y-12456674D02*
X12647539Y-12504293D01*
X12647539Y-12504293D02*
X12638015Y-12542388D01*
X12638015Y-12542388D02*
X12628491Y-12561436D01*
X12628491Y-12561436D02*
X12618967Y-12570960D01*
X12618967Y-12570960D02*
X12599920Y-12580484D01*
X12599920Y-12580484D02*
X12580872Y-12580484D01*
X12580872Y-12580484D02*
X12561824Y-12570960D01*
X12561824Y-12570960D02*
X12552301Y-12561436D01*
X12552301Y-12561436D02*
X12542777Y-12542388D01*
X12542777Y-12542388D02*
X12533253Y-12504293D01*
X12533253Y-12504293D02*
X12533253Y-12456674D01*
X12533253Y-12456674D02*
X12542777Y-12418579D01*
X12542777Y-12418579D02*
X12552301Y-12399531D01*
X12552301Y-12399531D02*
X12561824Y-12390008D01*
X12561824Y-12390008D02*
X12580872Y-12380484D01*
X12733253Y-12561436D02*
X12742777Y-12570960D01*
X12742777Y-12570960D02*
X12733253Y-12580484D01*
X12733253Y-12580484D02*
X12723729Y-12570960D01*
X12723729Y-12570960D02*
X12733253Y-12561436D01*
X12733253Y-12561436D02*
X12733253Y-12580484D01*
X12914205Y-12380484D02*
X12876110Y-12380484D01*
X12876110Y-12380484D02*
X12857062Y-12390008D01*
X12857062Y-12390008D02*
X12847539Y-12399531D01*
X12847539Y-12399531D02*
X12828491Y-12428103D01*
X12828491Y-12428103D02*
X12818967Y-12466198D01*
X12818967Y-12466198D02*
X12818967Y-12542388D01*
X12818967Y-12542388D02*
X12828491Y-12561436D01*
X12828491Y-12561436D02*
X12838015Y-12570960D01*
X12838015Y-12570960D02*
X12857062Y-12580484D01*
X12857062Y-12580484D02*
X12895158Y-12580484D01*
X12895158Y-12580484D02*
X12914205Y-12570960D01*
X12914205Y-12570960D02*
X12923729Y-12561436D01*
X12923729Y-12561436D02*
X12933253Y-12542388D01*
X12933253Y-12542388D02*
X12933253Y-12494769D01*
X12933253Y-12494769D02*
X12923729Y-12475722D01*
X12923729Y-12475722D02*
X12914205Y-12466198D01*
X12914205Y-12466198D02*
X12895158Y-12456674D01*
X12895158Y-12456674D02*
X12857062Y-12456674D01*
X12857062Y-12456674D02*
X12838015Y-12466198D01*
X12838015Y-12466198D02*
X12828491Y-12475722D01*
X12828491Y-12475722D02*
X12818967Y-12494769D01*
X13114205Y-12380484D02*
X13018967Y-12380484D01*
X13018967Y-12380484D02*
X13009443Y-12475722D01*
X13009443Y-12475722D02*
X13018967Y-12466198D01*
X13018967Y-12466198D02*
X13038015Y-12456674D01*
X13038015Y-12456674D02*
X13085634Y-12456674D01*
X13085634Y-12456674D02*
X13104682Y-12466198D01*
X13104682Y-12466198D02*
X13114205Y-12475722D01*
X13114205Y-12475722D02*
X13123729Y-12494769D01*
X13123729Y-12494769D02*
X13123729Y-12542388D01*
X13123729Y-12542388D02*
X13114205Y-12561436D01*
X13114205Y-12561436D02*
X13104682Y-12570960D01*
X13104682Y-12570960D02*
X13085634Y-12580484D01*
X13085634Y-12580484D02*
X13038015Y-12580484D01*
X13038015Y-12580484D02*
X13018967Y-12570960D01*
X13018967Y-12570960D02*
X13009443Y-12561436D01*
X13247539Y-12380484D02*
X13266586Y-12380484D01*
X13266586Y-12380484D02*
X13285634Y-12390008D01*
X13285634Y-12390008D02*
X13295158Y-12399531D01*
X13295158Y-12399531D02*
X13304682Y-12418579D01*
X13304682Y-12418579D02*
X13314205Y-12456674D01*
X13314205Y-12456674D02*
X13314205Y-12504293D01*
X13314205Y-12504293D02*
X13304682Y-12542388D01*
X13304682Y-12542388D02*
X13295158Y-12561436D01*
X13295158Y-12561436D02*
X13285634Y-12570960D01*
X13285634Y-12570960D02*
X13266586Y-12580484D01*
X13266586Y-12580484D02*
X13247539Y-12580484D01*
X13247539Y-12580484D02*
X13228491Y-12570960D01*
X13228491Y-12570960D02*
X13218967Y-12561436D01*
X13218967Y-12561436D02*
X13209443Y-12542388D01*
X13209443Y-12542388D02*
X13199920Y-12504293D01*
X13199920Y-12504293D02*
X13199920Y-12456674D01*
X13199920Y-12456674D02*
X13209443Y-12418579D01*
X13209443Y-12418579D02*
X13218967Y-12399531D01*
X13218967Y-12399531D02*
X13228491Y-12390008D01*
X13228491Y-12390008D02*
X13247539Y-12380484D01*
X13399920Y-12580484D02*
X13399920Y-12447150D01*
X13399920Y-12466198D02*
X13409443Y-12456674D01*
X13409443Y-12456674D02*
X13428491Y-12447150D01*
X13428491Y-12447150D02*
X13457063Y-12447150D01*
X13457063Y-12447150D02*
X13476110Y-12456674D01*
X13476110Y-12456674D02*
X13485634Y-12475722D01*
X13485634Y-12475722D02*
X13485634Y-12580484D01*
X13485634Y-12475722D02*
X13495158Y-12456674D01*
X13495158Y-12456674D02*
X13514205Y-12447150D01*
X13514205Y-12447150D02*
X13542777Y-12447150D01*
X13542777Y-12447150D02*
X13561824Y-12456674D01*
X13561824Y-12456674D02*
X13571348Y-12475722D01*
X13571348Y-12475722D02*
X13571348Y-12580484D01*
X13666586Y-12580484D02*
X13666586Y-12447150D01*
X13666586Y-12466198D02*
X13676110Y-12456674D01*
X13676110Y-12456674D02*
X13695158Y-12447150D01*
X13695158Y-12447150D02*
X13723729Y-12447150D01*
X13723729Y-12447150D02*
X13742777Y-12456674D01*
X13742777Y-12456674D02*
X13752301Y-12475722D01*
X13752301Y-12475722D02*
X13752301Y-12580484D01*
X13752301Y-12475722D02*
X13761824Y-12456674D01*
X13761824Y-12456674D02*
X13780872Y-12447150D01*
X13780872Y-12447150D02*
X13809443Y-12447150D01*
X13809443Y-12447150D02*
X13828491Y-12456674D01*
X13828491Y-12456674D02*
X13838015Y-12475722D01*
X13838015Y-12475722D02*
X13838015Y-12580484D01*
X14228491Y-12370960D02*
X14057063Y-12628103D01*
X14485634Y-12380484D02*
X14504682Y-12380484D01*
X14504682Y-12380484D02*
X14523729Y-12390008D01*
X14523729Y-12390008D02*
X14533253Y-12399531D01*
X14533253Y-12399531D02*
X14542777Y-12418579D01*
X14542777Y-12418579D02*
X14552301Y-12456674D01*
X14552301Y-12456674D02*
X14552301Y-12504293D01*
X14552301Y-12504293D02*
X14542777Y-12542388D01*
X14542777Y-12542388D02*
X14533253Y-12561436D01*
X14533253Y-12561436D02*
X14523729Y-12570960D01*
X14523729Y-12570960D02*
X14504682Y-12580484D01*
X14504682Y-12580484D02*
X14485634Y-12580484D01*
X14485634Y-12580484D02*
X14466586Y-12570960D01*
X14466586Y-12570960D02*
X14457063Y-12561436D01*
X14457063Y-12561436D02*
X14447539Y-12542388D01*
X14447539Y-12542388D02*
X14438015Y-12504293D01*
X14438015Y-12504293D02*
X14438015Y-12456674D01*
X14438015Y-12456674D02*
X14447539Y-12418579D01*
X14447539Y-12418579D02*
X14457063Y-12399531D01*
X14457063Y-12399531D02*
X14466586Y-12390008D01*
X14466586Y-12390008D02*
X14485634Y-12380484D01*
X14638015Y-12561436D02*
X14647539Y-12570960D01*
X14647539Y-12570960D02*
X14638015Y-12580484D01*
X14638015Y-12580484D02*
X14628491Y-12570960D01*
X14628491Y-12570960D02*
X14638015Y-12561436D01*
X14638015Y-12561436D02*
X14638015Y-12580484D01*
X14771348Y-12380484D02*
X14790396Y-12380484D01*
X14790396Y-12380484D02*
X14809444Y-12390008D01*
X14809444Y-12390008D02*
X14818967Y-12399531D01*
X14818967Y-12399531D02*
X14828491Y-12418579D01*
X14828491Y-12418579D02*
X14838015Y-12456674D01*
X14838015Y-12456674D02*
X14838015Y-12504293D01*
X14838015Y-12504293D02*
X14828491Y-12542388D01*
X14828491Y-12542388D02*
X14818967Y-12561436D01*
X14818967Y-12561436D02*
X14809444Y-12570960D01*
X14809444Y-12570960D02*
X14790396Y-12580484D01*
X14790396Y-12580484D02*
X14771348Y-12580484D01*
X14771348Y-12580484D02*
X14752301Y-12570960D01*
X14752301Y-12570960D02*
X14742777Y-12561436D01*
X14742777Y-12561436D02*
X14733253Y-12542388D01*
X14733253Y-12542388D02*
X14723729Y-12504293D01*
X14723729Y-12504293D02*
X14723729Y-12456674D01*
X14723729Y-12456674D02*
X14733253Y-12418579D01*
X14733253Y-12418579D02*
X14742777Y-12399531D01*
X14742777Y-12399531D02*
X14752301Y-12390008D01*
X14752301Y-12390008D02*
X14771348Y-12380484D01*
X14914206Y-12399531D02*
X14923729Y-12390008D01*
X14923729Y-12390008D02*
X14942777Y-12380484D01*
X14942777Y-12380484D02*
X14990396Y-12380484D01*
X14990396Y-12380484D02*
X15009444Y-12390008D01*
X15009444Y-12390008D02*
X15018967Y-12399531D01*
X15018967Y-12399531D02*
X15028491Y-12418579D01*
X15028491Y-12418579D02*
X15028491Y-12437627D01*
X15028491Y-12437627D02*
X15018967Y-12466198D01*
X15018967Y-12466198D02*
X14904682Y-12580484D01*
X14904682Y-12580484D02*
X15028491Y-12580484D01*
X15209444Y-12380484D02*
X15114206Y-12380484D01*
X15114206Y-12380484D02*
X15104682Y-12475722D01*
X15104682Y-12475722D02*
X15114206Y-12466198D01*
X15114206Y-12466198D02*
X15133253Y-12456674D01*
X15133253Y-12456674D02*
X15180872Y-12456674D01*
X15180872Y-12456674D02*
X15199920Y-12466198D01*
X15199920Y-12466198D02*
X15209444Y-12475722D01*
X15209444Y-12475722D02*
X15218967Y-12494769D01*
X15218967Y-12494769D02*
X15218967Y-12542388D01*
X15218967Y-12542388D02*
X15209444Y-12561436D01*
X15209444Y-12561436D02*
X15199920Y-12570960D01*
X15199920Y-12570960D02*
X15180872Y-12580484D01*
X15180872Y-12580484D02*
X15133253Y-12580484D01*
X15133253Y-12580484D02*
X15114206Y-12570960D01*
X15114206Y-12570960D02*
X15104682Y-12561436D01*
X15390396Y-12380484D02*
X15352301Y-12380484D01*
X15352301Y-12380484D02*
X15333253Y-12390008D01*
X15333253Y-12390008D02*
X15323729Y-12399531D01*
X15323729Y-12399531D02*
X15304682Y-12428103D01*
X15304682Y-12428103D02*
X15295158Y-12466198D01*
X15295158Y-12466198D02*
X15295158Y-12542388D01*
X15295158Y-12542388D02*
X15304682Y-12561436D01*
X15304682Y-12561436D02*
X15314206Y-12570960D01*
X15314206Y-12570960D02*
X15333253Y-12580484D01*
X15333253Y-12580484D02*
X15371348Y-12580484D01*
X15371348Y-12580484D02*
X15390396Y-12570960D01*
X15390396Y-12570960D02*
X15399920Y-12561436D01*
X15399920Y-12561436D02*
X15409444Y-12542388D01*
X15409444Y-12542388D02*
X15409444Y-12494769D01*
X15409444Y-12494769D02*
X15399920Y-12475722D01*
X15399920Y-12475722D02*
X15390396Y-12466198D01*
X15390396Y-12466198D02*
X15371348Y-12456674D01*
X15371348Y-12456674D02*
X15333253Y-12456674D01*
X15333253Y-12456674D02*
X15314206Y-12466198D01*
X15314206Y-12466198D02*
X15304682Y-12475722D01*
X15304682Y-12475722D02*
X15295158Y-12494769D01*
X15485634Y-12380484D02*
X15485634Y-12418579D01*
X15561825Y-12380484D02*
X15561825Y-12418579D01*
X15857063Y-12656674D02*
X15847539Y-12647150D01*
X15847539Y-12647150D02*
X15828491Y-12618579D01*
X15828491Y-12618579D02*
X15818968Y-12599531D01*
X15818968Y-12599531D02*
X15809444Y-12570960D01*
X15809444Y-12570960D02*
X15799920Y-12523341D01*
X15799920Y-12523341D02*
X15799920Y-12485246D01*
X15799920Y-12485246D02*
X15809444Y-12437627D01*
X15809444Y-12437627D02*
X15818968Y-12409055D01*
X15818968Y-12409055D02*
X15828491Y-12390008D01*
X15828491Y-12390008D02*
X15847539Y-12361436D01*
X15847539Y-12361436D02*
X15857063Y-12351912D01*
X15923729Y-12399531D02*
X15933253Y-12390008D01*
X15933253Y-12390008D02*
X15952301Y-12380484D01*
X15952301Y-12380484D02*
X15999920Y-12380484D01*
X15999920Y-12380484D02*
X16018968Y-12390008D01*
X16018968Y-12390008D02*
X16028491Y-12399531D01*
X16028491Y-12399531D02*
X16038015Y-12418579D01*
X16038015Y-12418579D02*
X16038015Y-12437627D01*
X16038015Y-12437627D02*
X16028491Y-12466198D01*
X16028491Y-12466198D02*
X15914206Y-12580484D01*
X15914206Y-12580484D02*
X16038015Y-12580484D01*
X16276110Y-12580484D02*
X16276110Y-12380484D01*
X16361825Y-12580484D02*
X16361825Y-12475722D01*
X16361825Y-12475722D02*
X16352301Y-12456674D01*
X16352301Y-12456674D02*
X16333253Y-12447150D01*
X16333253Y-12447150D02*
X16304682Y-12447150D01*
X16304682Y-12447150D02*
X16285634Y-12456674D01*
X16285634Y-12456674D02*
X16276110Y-12466198D01*
X16485634Y-12580484D02*
X16466587Y-12570960D01*
X16466587Y-12570960D02*
X16457063Y-12561436D01*
X16457063Y-12561436D02*
X16447539Y-12542388D01*
X16447539Y-12542388D02*
X16447539Y-12485246D01*
X16447539Y-12485246D02*
X16457063Y-12466198D01*
X16457063Y-12466198D02*
X16466587Y-12456674D01*
X16466587Y-12456674D02*
X16485634Y-12447150D01*
X16485634Y-12447150D02*
X16514206Y-12447150D01*
X16514206Y-12447150D02*
X16533253Y-12456674D01*
X16533253Y-12456674D02*
X16542777Y-12466198D01*
X16542777Y-12466198D02*
X16552301Y-12485246D01*
X16552301Y-12485246D02*
X16552301Y-12542388D01*
X16552301Y-12542388D02*
X16542777Y-12561436D01*
X16542777Y-12561436D02*
X16533253Y-12570960D01*
X16533253Y-12570960D02*
X16514206Y-12580484D01*
X16514206Y-12580484D02*
X16485634Y-12580484D01*
X16666587Y-12580484D02*
X16647539Y-12570960D01*
X16647539Y-12570960D02*
X16638015Y-12551912D01*
X16638015Y-12551912D02*
X16638015Y-12380484D01*
X16818968Y-12570960D02*
X16799920Y-12580484D01*
X16799920Y-12580484D02*
X16761825Y-12580484D01*
X16761825Y-12580484D02*
X16742777Y-12570960D01*
X16742777Y-12570960D02*
X16733253Y-12551912D01*
X16733253Y-12551912D02*
X16733253Y-12475722D01*
X16733253Y-12475722D02*
X16742777Y-12456674D01*
X16742777Y-12456674D02*
X16761825Y-12447150D01*
X16761825Y-12447150D02*
X16799920Y-12447150D01*
X16799920Y-12447150D02*
X16818968Y-12456674D01*
X16818968Y-12456674D02*
X16828492Y-12475722D01*
X16828492Y-12475722D02*
X16828492Y-12494769D01*
X16828492Y-12494769D02*
X16733253Y-12513817D01*
X16904682Y-12570960D02*
X16923730Y-12580484D01*
X16923730Y-12580484D02*
X16961825Y-12580484D01*
X16961825Y-12580484D02*
X16980873Y-12570960D01*
X16980873Y-12570960D02*
X16990396Y-12551912D01*
X16990396Y-12551912D02*
X16990396Y-12542388D01*
X16990396Y-12542388D02*
X16980873Y-12523341D01*
X16980873Y-12523341D02*
X16961825Y-12513817D01*
X16961825Y-12513817D02*
X16933253Y-12513817D01*
X16933253Y-12513817D02*
X16914206Y-12504293D01*
X16914206Y-12504293D02*
X16904682Y-12485246D01*
X16904682Y-12485246D02*
X16904682Y-12475722D01*
X16904682Y-12475722D02*
X16914206Y-12456674D01*
X16914206Y-12456674D02*
X16933253Y-12447150D01*
X16933253Y-12447150D02*
X16961825Y-12447150D01*
X16961825Y-12447150D02*
X16980873Y-12456674D01*
X17057063Y-12656674D02*
X17066587Y-12647150D01*
X17066587Y-12647150D02*
X17085634Y-12618579D01*
X17085634Y-12618579D02*
X17095158Y-12599531D01*
X17095158Y-12599531D02*
X17104682Y-12570960D01*
X17104682Y-12570960D02*
X17114206Y-12523341D01*
X17114206Y-12523341D02*
X17114206Y-12485246D01*
X17114206Y-12485246D02*
X17104682Y-12437627D01*
X17104682Y-12437627D02*
X17095158Y-12409055D01*
X17095158Y-12409055D02*
X17085634Y-12390008D01*
X17085634Y-12390008D02*
X17066587Y-12361436D01*
X17066587Y-12361436D02*
X17057063Y-12351912D01*
X17418968Y-12656674D02*
X17409444Y-12647150D01*
X17409444Y-12647150D02*
X17390396Y-12618579D01*
X17390396Y-12618579D02*
X17380873Y-12599531D01*
X17380873Y-12599531D02*
X17371349Y-12570960D01*
X17371349Y-12570960D02*
X17361825Y-12523341D01*
X17361825Y-12523341D02*
X17361825Y-12485246D01*
X17361825Y-12485246D02*
X17371349Y-12437627D01*
X17371349Y-12437627D02*
X17380873Y-12409055D01*
X17380873Y-12409055D02*
X17390396Y-12390008D01*
X17390396Y-12390008D02*
X17409444Y-12361436D01*
X17409444Y-12361436D02*
X17418968Y-12351912D01*
X17495158Y-12447150D02*
X17495158Y-12580484D01*
X17495158Y-12466198D02*
X17504682Y-12456674D01*
X17504682Y-12456674D02*
X17523730Y-12447150D01*
X17523730Y-12447150D02*
X17552301Y-12447150D01*
X17552301Y-12447150D02*
X17571349Y-12456674D01*
X17571349Y-12456674D02*
X17580873Y-12475722D01*
X17580873Y-12475722D02*
X17580873Y-12580484D01*
X17704682Y-12580484D02*
X17685634Y-12570960D01*
X17685634Y-12570960D02*
X17676111Y-12561436D01*
X17676111Y-12561436D02*
X17666587Y-12542388D01*
X17666587Y-12542388D02*
X17666587Y-12485246D01*
X17666587Y-12485246D02*
X17676111Y-12466198D01*
X17676111Y-12466198D02*
X17685634Y-12456674D01*
X17685634Y-12456674D02*
X17704682Y-12447150D01*
X17704682Y-12447150D02*
X17733254Y-12447150D01*
X17733254Y-12447150D02*
X17752301Y-12456674D01*
X17752301Y-12456674D02*
X17761825Y-12466198D01*
X17761825Y-12466198D02*
X17771349Y-12485246D01*
X17771349Y-12485246D02*
X17771349Y-12542388D01*
X17771349Y-12542388D02*
X17761825Y-12561436D01*
X17761825Y-12561436D02*
X17752301Y-12570960D01*
X17752301Y-12570960D02*
X17733254Y-12580484D01*
X17733254Y-12580484D02*
X17704682Y-12580484D01*
X17828492Y-12447150D02*
X17904682Y-12447150D01*
X17857063Y-12380484D02*
X17857063Y-12551912D01*
X17857063Y-12551912D02*
X17866587Y-12570960D01*
X17866587Y-12570960D02*
X17885634Y-12580484D01*
X17885634Y-12580484D02*
X17904682Y-12580484D01*
X18123730Y-12447150D02*
X18123730Y-12647150D01*
X18123730Y-12456674D02*
X18142777Y-12447150D01*
X18142777Y-12447150D02*
X18180873Y-12447150D01*
X18180873Y-12447150D02*
X18199920Y-12456674D01*
X18199920Y-12456674D02*
X18209444Y-12466198D01*
X18209444Y-12466198D02*
X18218968Y-12485246D01*
X18218968Y-12485246D02*
X18218968Y-12542388D01*
X18218968Y-12542388D02*
X18209444Y-12561436D01*
X18209444Y-12561436D02*
X18199920Y-12570960D01*
X18199920Y-12570960D02*
X18180873Y-12580484D01*
X18180873Y-12580484D02*
X18142777Y-12580484D01*
X18142777Y-12580484D02*
X18123730Y-12570960D01*
X18333254Y-12580484D02*
X18314206Y-12570960D01*
X18314206Y-12570960D02*
X18304682Y-12551912D01*
X18304682Y-12551912D02*
X18304682Y-12380484D01*
X18495158Y-12580484D02*
X18495158Y-12475722D01*
X18495158Y-12475722D02*
X18485635Y-12456674D01*
X18485635Y-12456674D02*
X18466587Y-12447150D01*
X18466587Y-12447150D02*
X18428492Y-12447150D01*
X18428492Y-12447150D02*
X18409444Y-12456674D01*
X18495158Y-12570960D02*
X18476111Y-12580484D01*
X18476111Y-12580484D02*
X18428492Y-12580484D01*
X18428492Y-12580484D02*
X18409444Y-12570960D01*
X18409444Y-12570960D02*
X18399920Y-12551912D01*
X18399920Y-12551912D02*
X18399920Y-12532865D01*
X18399920Y-12532865D02*
X18409444Y-12513817D01*
X18409444Y-12513817D02*
X18428492Y-12504293D01*
X18428492Y-12504293D02*
X18476111Y-12504293D01*
X18476111Y-12504293D02*
X18495158Y-12494769D01*
X18561825Y-12447150D02*
X18638015Y-12447150D01*
X18590396Y-12380484D02*
X18590396Y-12551912D01*
X18590396Y-12551912D02*
X18599920Y-12570960D01*
X18599920Y-12570960D02*
X18618968Y-12580484D01*
X18618968Y-12580484D02*
X18638015Y-12580484D01*
X18780873Y-12570960D02*
X18761825Y-12580484D01*
X18761825Y-12580484D02*
X18723730Y-12580484D01*
X18723730Y-12580484D02*
X18704682Y-12570960D01*
X18704682Y-12570960D02*
X18695158Y-12551912D01*
X18695158Y-12551912D02*
X18695158Y-12475722D01*
X18695158Y-12475722D02*
X18704682Y-12456674D01*
X18704682Y-12456674D02*
X18723730Y-12447150D01*
X18723730Y-12447150D02*
X18761825Y-12447150D01*
X18761825Y-12447150D02*
X18780873Y-12456674D01*
X18780873Y-12456674D02*
X18790396Y-12475722D01*
X18790396Y-12475722D02*
X18790396Y-12494769D01*
X18790396Y-12494769D02*
X18695158Y-12513817D01*
X18961825Y-12580484D02*
X18961825Y-12380484D01*
X18961825Y-12570960D02*
X18942777Y-12580484D01*
X18942777Y-12580484D02*
X18904682Y-12580484D01*
X18904682Y-12580484D02*
X18885635Y-12570960D01*
X18885635Y-12570960D02*
X18876111Y-12561436D01*
X18876111Y-12561436D02*
X18866587Y-12542388D01*
X18866587Y-12542388D02*
X18866587Y-12485246D01*
X18866587Y-12485246D02*
X18876111Y-12466198D01*
X18876111Y-12466198D02*
X18885635Y-12456674D01*
X18885635Y-12456674D02*
X18904682Y-12447150D01*
X18904682Y-12447150D02*
X18942777Y-12447150D01*
X18942777Y-12447150D02*
X18961825Y-12456674D01*
X19038016Y-12656674D02*
X19047539Y-12647150D01*
X19047539Y-12647150D02*
X19066587Y-12618579D01*
X19066587Y-12618579D02*
X19076111Y-12599531D01*
X19076111Y-12599531D02*
X19085635Y-12570960D01*
X19085635Y-12570960D02*
X19095158Y-12523341D01*
X19095158Y-12523341D02*
X19095158Y-12485246D01*
X19095158Y-12485246D02*
X19085635Y-12437627D01*
X19085635Y-12437627D02*
X19076111Y-12409055D01*
X19076111Y-12409055D02*
X19066587Y-12390008D01*
X19066587Y-12390008D02*
X19047539Y-12361436D01*
X19047539Y-12361436D02*
X19038016Y-12351912D01*
M02*
