G04 #@! TF.GenerationSoftware,KiCad,Pcbnew,9.0.2+1*
G04 #@! TF.CreationDate,2025-07-07T20:11:30-07:00*
G04 #@! TF.ProjectId,Telemetry PCB V2,54656c65-6d65-4747-9279-205043422056,rev?*
G04 #@! TF.SameCoordinates,Original*
G04 #@! TF.FileFunction,Copper,L2,Inr*
G04 #@! TF.FilePolarity,Positive*
%FSLAX46Y46*%
G04 Gerber Fmt 4.6, Leading zero omitted, Abs format (unit mm)*
G04 Created by KiCad (PCBNEW 9.0.2+1) date 2025-07-07 20:11:30*
%MOMM*%
%LPD*%
G01*
G04 APERTURE LIST*
G04 Aperture macros list*
%AMRoundRect*
0 Rectangle with rounded corners*
0 $1 Rounding radius*
0 $2 $3 $4 $5 $6 $7 $8 $9 X,Y pos of 4 corners*
0 Add a 4 corners polygon primitive as box body*
4,1,4,$2,$3,$4,$5,$6,$7,$8,$9,$2,$3,0*
0 Add four circle primitives for the rounded corners*
1,1,$1+$1,$2,$3*
1,1,$1+$1,$4,$5*
1,1,$1+$1,$6,$7*
1,1,$1+$1,$8,$9*
0 Add four rect primitives between the rounded corners*
20,1,$1+$1,$2,$3,$4,$5,0*
20,1,$1+$1,$4,$5,$6,$7,0*
20,1,$1+$1,$6,$7,$8,$9,0*
20,1,$1+$1,$8,$9,$2,$3,0*%
G04 Aperture macros list end*
G04 #@! TA.AperFunction,ComponentPad*
%ADD10O,1.000000X2.100000*%
G04 #@! TD*
G04 #@! TA.AperFunction,ComponentPad*
%ADD11O,1.000000X1.600000*%
G04 #@! TD*
G04 #@! TA.AperFunction,ComponentPad*
%ADD12C,2.000000*%
G04 #@! TD*
G04 #@! TA.AperFunction,ComponentPad*
%ADD13R,1.700000X1.700000*%
G04 #@! TD*
G04 #@! TA.AperFunction,ComponentPad*
%ADD14O,1.700000X1.700000*%
G04 #@! TD*
G04 #@! TA.AperFunction,ComponentPad*
%ADD15RoundRect,0.250000X-0.600000X-0.725000X0.600000X-0.725000X0.600000X0.725000X-0.600000X0.725000X0*%
G04 #@! TD*
G04 #@! TA.AperFunction,ComponentPad*
%ADD16O,1.700000X1.950000*%
G04 #@! TD*
G04 #@! TA.AperFunction,ComponentPad*
%ADD17RoundRect,0.250000X-0.750000X0.600000X-0.750000X-0.600000X0.750000X-0.600000X0.750000X0.600000X0*%
G04 #@! TD*
G04 #@! TA.AperFunction,ComponentPad*
%ADD18O,2.000000X1.700000*%
G04 #@! TD*
G04 #@! TA.AperFunction,ViaPad*
%ADD19C,1.000000*%
G04 #@! TD*
G04 #@! TA.AperFunction,ViaPad*
%ADD20C,0.900000*%
G04 #@! TD*
G04 #@! TA.AperFunction,ViaPad*
%ADD21C,1.200000*%
G04 #@! TD*
G04 #@! TA.AperFunction,ViaPad*
%ADD22C,0.800000*%
G04 #@! TD*
G04 #@! TA.AperFunction,ViaPad*
%ADD23C,1.600000*%
G04 #@! TD*
G04 APERTURE END LIST*
D10*
X153680000Y-111395000D03*
D11*
X153680000Y-115575000D03*
D10*
X162320000Y-111395000D03*
D11*
X162320000Y-115575000D03*
D12*
X167490000Y-88660000D03*
D13*
X170256396Y-82010000D03*
D14*
X167716396Y-82010000D03*
X165176396Y-82010000D03*
X162636396Y-82010000D03*
D13*
X170220000Y-95970000D03*
D14*
X167680000Y-95970000D03*
X165140001Y-95970000D03*
X162600000Y-95970000D03*
D15*
X139500000Y-112475000D03*
D16*
X142000000Y-112475000D03*
X144500000Y-112475000D03*
D12*
X162990000Y-88660000D03*
X181870000Y-75980000D03*
X187070000Y-75980000D03*
D17*
X178178899Y-91879602D03*
D18*
X178178899Y-94379602D03*
D19*
X181495000Y-66660000D03*
X158740000Y-55590000D03*
X171410000Y-75280000D03*
D20*
X141890000Y-80300000D03*
D19*
X171430000Y-55600000D03*
X166340000Y-55590000D03*
D21*
X178400000Y-87900000D03*
D22*
X128840000Y-99300001D03*
D20*
X135490000Y-66530000D03*
D19*
X153212800Y-97434400D03*
D22*
X127790001Y-75559652D03*
D21*
X173000000Y-100400000D03*
D22*
X151260000Y-109555000D03*
X184800000Y-98500000D03*
D19*
X140960000Y-55500000D03*
D22*
X164775000Y-109520000D03*
D19*
X149855000Y-102670000D03*
X168880000Y-55600000D03*
X148132800Y-85293200D03*
X140960000Y-75280000D03*
X143953364Y-93153364D03*
X156200000Y-55590000D03*
X140110000Y-90900000D03*
X156758982Y-88585382D03*
X166330000Y-75280000D03*
D20*
X141900000Y-85330000D03*
D22*
X127780000Y-90560001D03*
D21*
X169200000Y-105050000D03*
D19*
X144101591Y-94344177D03*
X156768800Y-86918800D03*
D20*
X125580000Y-71510000D03*
D22*
X126570000Y-99340000D03*
D21*
X170500000Y-105000000D03*
D22*
X127860000Y-86560001D03*
D19*
X146405600Y-85293200D03*
X154940000Y-97434400D03*
D21*
X174200000Y-101700000D03*
D23*
X155625000Y-108945000D03*
D21*
X174250000Y-103900000D03*
D23*
X160425000Y-108945000D03*
D21*
X174650000Y-98450000D03*
D23*
X147000000Y-51550000D03*
X145050000Y-51600000D03*
X176500000Y-82700000D03*
D22*
X188590000Y-98409999D03*
D23*
X181400000Y-82700000D03*
D19*
X189104999Y-69960000D03*
D23*
X178900000Y-82700000D03*
D20*
X155990000Y-92160000D03*
D19*
X153700000Y-55630000D03*
D20*
X155160000Y-91410000D03*
D19*
X151120000Y-55590000D03*
D20*
X155290000Y-94860000D03*
X156260000Y-94160000D03*
X136740000Y-78880000D03*
X134060000Y-71470000D03*
X182850000Y-71130000D03*
X156650000Y-93080000D03*
G04 #@! TA.AperFunction,Conductor*
G36*
X132729487Y-53704979D02*
G01*
X132729492Y-53704985D01*
X132957302Y-53973184D01*
X132729487Y-53704979D01*
G37*
G04 #@! TD.AperFunction*
G04 #@! TA.AperFunction,Conductor*
G36*
X131572954Y-52920828D02*
G01*
X131572951Y-52920827D01*
X131572949Y-52920826D01*
X131572954Y-52920828D01*
G37*
G04 #@! TD.AperFunction*
G04 #@! TA.AperFunction,Conductor*
G36*
X187729487Y-53704979D02*
G01*
X187729492Y-53704985D01*
X187957302Y-53973184D01*
X187729487Y-53704979D01*
G37*
G04 #@! TD.AperFunction*
G04 #@! TA.AperFunction,Conductor*
G36*
X186572954Y-52920828D02*
G01*
X186572951Y-52920827D01*
X186572949Y-52920826D01*
X186572954Y-52920828D01*
G37*
G04 #@! TD.AperFunction*
G04 #@! TA.AperFunction,Conductor*
G36*
X132729487Y-108714979D02*
G01*
X132729492Y-108714985D01*
X132957302Y-108983184D01*
X132729487Y-108714979D01*
G37*
G04 #@! TD.AperFunction*
G04 #@! TA.AperFunction,Conductor*
G36*
X131572954Y-107930828D02*
G01*
X131572951Y-107930827D01*
X131572949Y-107930826D01*
X131572954Y-107930828D01*
G37*
G04 #@! TD.AperFunction*
G04 #@! TA.AperFunction,Conductor*
G36*
X187729487Y-108714979D02*
G01*
X187729492Y-108714985D01*
X187957302Y-108983184D01*
X187729487Y-108714979D01*
G37*
G04 #@! TD.AperFunction*
G04 #@! TA.AperFunction,Conductor*
G36*
X186572954Y-107930828D02*
G01*
X186572951Y-107930827D01*
X186572949Y-107930826D01*
X186572954Y-107930828D01*
G37*
G04 #@! TD.AperFunction*
G04 #@! TA.AperFunction,Conductor*
G36*
X185650202Y-48450071D02*
G01*
X185829809Y-48456207D01*
X185834328Y-48456446D01*
X185939294Y-48463953D01*
X185943019Y-48464278D01*
X186345715Y-48505676D01*
X186350627Y-48506282D01*
X186451090Y-48520726D01*
X186454329Y-48521238D01*
X186857719Y-48590790D01*
X186862956Y-48591811D01*
X186955596Y-48611963D01*
X186958426Y-48612616D01*
X187363204Y-48711257D01*
X187368694Y-48712731D01*
X187449614Y-48736492D01*
X187452090Y-48737248D01*
X187859588Y-48866581D01*
X187865353Y-48868570D01*
X187929710Y-48892574D01*
X187931720Y-48893346D01*
X188096627Y-48958377D01*
X188344394Y-49056084D01*
X188350392Y-49058633D01*
X188391228Y-49077283D01*
X188392879Y-49078052D01*
X188706381Y-49227147D01*
X188815207Y-49278903D01*
X188821368Y-49282047D01*
X188827889Y-49285607D01*
X188829166Y-49286313D01*
X189242952Y-49518974D01*
X189262926Y-49530205D01*
X189270160Y-49534604D01*
X189691284Y-49810819D01*
X189698185Y-49815690D01*
X190099485Y-50120006D01*
X190106029Y-50125330D01*
X190485612Y-50456310D01*
X190491800Y-50462089D01*
X190847910Y-50818199D01*
X190853689Y-50824387D01*
X191184666Y-51203966D01*
X191189996Y-51210517D01*
X191294452Y-51348263D01*
X191494303Y-51611806D01*
X191499186Y-51618723D01*
X191775395Y-52039839D01*
X191779794Y-52047073D01*
X192023640Y-52480752D01*
X192024391Y-52482109D01*
X192027951Y-52488630D01*
X192031095Y-52494791D01*
X192231924Y-52917073D01*
X192232737Y-52918817D01*
X192251354Y-52959582D01*
X192253914Y-52965604D01*
X192416641Y-53378249D01*
X192417469Y-53380406D01*
X192441418Y-53444617D01*
X192443426Y-53450438D01*
X192572735Y-53857859D01*
X192573522Y-53860436D01*
X192597255Y-53941262D01*
X192598752Y-53946838D01*
X192697362Y-54351486D01*
X192698054Y-54354487D01*
X192718182Y-54447016D01*
X192719213Y-54452305D01*
X192788744Y-54855572D01*
X192789285Y-54858995D01*
X192803713Y-54959349D01*
X192804325Y-54964314D01*
X192845715Y-55366924D01*
X192846049Y-55370759D01*
X192853549Y-55475623D01*
X192853793Y-55480235D01*
X192869428Y-55937892D01*
X192869500Y-55942126D01*
X192869500Y-110937873D01*
X192869428Y-110942107D01*
X192853793Y-111399763D01*
X192853549Y-111404375D01*
X192846049Y-111509239D01*
X192845715Y-111513074D01*
X192804325Y-111915684D01*
X192803713Y-111920649D01*
X192789285Y-112021003D01*
X192788744Y-112024426D01*
X192719213Y-112427693D01*
X192718182Y-112432982D01*
X192698054Y-112525511D01*
X192697362Y-112528512D01*
X192598752Y-112933160D01*
X192597255Y-112938736D01*
X192573522Y-113019562D01*
X192572735Y-113022139D01*
X192443426Y-113429560D01*
X192441418Y-113435381D01*
X192417469Y-113499592D01*
X192416641Y-113501749D01*
X192253914Y-113914394D01*
X192251354Y-113920416D01*
X192232737Y-113961181D01*
X192231924Y-113962925D01*
X192031095Y-114385207D01*
X192027951Y-114391368D01*
X192024391Y-114397889D01*
X192023640Y-114399246D01*
X191779794Y-114832926D01*
X191775395Y-114840160D01*
X191499186Y-115261276D01*
X191494303Y-115268193D01*
X191190003Y-115669473D01*
X191184659Y-115676041D01*
X190853689Y-116055612D01*
X190847910Y-116061800D01*
X190491800Y-116417910D01*
X190485612Y-116423689D01*
X190106041Y-116754659D01*
X190099473Y-116760003D01*
X189698193Y-117064303D01*
X189691276Y-117069186D01*
X189270160Y-117345395D01*
X189262926Y-117349794D01*
X188829246Y-117593640D01*
X188827889Y-117594391D01*
X188821368Y-117597951D01*
X188815207Y-117601095D01*
X188392925Y-117801924D01*
X188391181Y-117802737D01*
X188350416Y-117821354D01*
X188344394Y-117823914D01*
X187931749Y-117986641D01*
X187929592Y-117987469D01*
X187865381Y-118011418D01*
X187859560Y-118013426D01*
X187452139Y-118142735D01*
X187449562Y-118143522D01*
X187368736Y-118167255D01*
X187363160Y-118168752D01*
X186958512Y-118267362D01*
X186955511Y-118268054D01*
X186862982Y-118288182D01*
X186857693Y-118289213D01*
X186454426Y-118358744D01*
X186451003Y-118359285D01*
X186350649Y-118373713D01*
X186345684Y-118374325D01*
X185943074Y-118415715D01*
X185939239Y-118416049D01*
X185834375Y-118423549D01*
X185829763Y-118423793D01*
X185372108Y-118439428D01*
X185367874Y-118439500D01*
X130372126Y-118439500D01*
X130367892Y-118439428D01*
X129910235Y-118423793D01*
X129905623Y-118423549D01*
X129800759Y-118416049D01*
X129796924Y-118415715D01*
X129394314Y-118374325D01*
X129389349Y-118373713D01*
X129288995Y-118359285D01*
X129285572Y-118358744D01*
X128882305Y-118289213D01*
X128877016Y-118288182D01*
X128784487Y-118268054D01*
X128781486Y-118267362D01*
X128376838Y-118168752D01*
X128371262Y-118167255D01*
X128290436Y-118143522D01*
X128287859Y-118142735D01*
X127880438Y-118013426D01*
X127874617Y-118011418D01*
X127810406Y-117987469D01*
X127808249Y-117986641D01*
X127395604Y-117823914D01*
X127389582Y-117821354D01*
X127348817Y-117802737D01*
X127347073Y-117801924D01*
X126924791Y-117601095D01*
X126918630Y-117597951D01*
X126912109Y-117594391D01*
X126910752Y-117593640D01*
X126477073Y-117349794D01*
X126469839Y-117345395D01*
X126048723Y-117069186D01*
X126041806Y-117064303D01*
X125640517Y-116759996D01*
X125633966Y-116754666D01*
X125254387Y-116423689D01*
X125248199Y-116417910D01*
X124892089Y-116061800D01*
X124886310Y-116055612D01*
X124829793Y-115990796D01*
X124555330Y-115676029D01*
X124550006Y-115669485D01*
X124245690Y-115268185D01*
X124240813Y-115261276D01*
X124225825Y-115238425D01*
X124223909Y-115235504D01*
X124185211Y-115176504D01*
X152680000Y-115176504D01*
X152680000Y-115325000D01*
X153380000Y-115325000D01*
X153380000Y-115825000D01*
X152680000Y-115825000D01*
X152680000Y-115973495D01*
X152718427Y-116166681D01*
X152718430Y-116166693D01*
X152793807Y-116348671D01*
X152793814Y-116348684D01*
X152903248Y-116512462D01*
X152903251Y-116512466D01*
X153042533Y-116651748D01*
X153042537Y-116651751D01*
X153206315Y-116761185D01*
X153206328Y-116761192D01*
X153388308Y-116836569D01*
X153430000Y-116844862D01*
X153430000Y-116041988D01*
X153439940Y-116059205D01*
X153495795Y-116115060D01*
X153564204Y-116154556D01*
X153640504Y-116175000D01*
X153719496Y-116175000D01*
X153795796Y-116154556D01*
X153864205Y-116115060D01*
X153920060Y-116059205D01*
X153930000Y-116041988D01*
X153930000Y-116844862D01*
X153971690Y-116836569D01*
X153971692Y-116836569D01*
X154153671Y-116761192D01*
X154153684Y-116761185D01*
X154317462Y-116651751D01*
X154317466Y-116651748D01*
X154456748Y-116512466D01*
X154456751Y-116512462D01*
X154566185Y-116348684D01*
X154566192Y-116348671D01*
X154641569Y-116166693D01*
X154641572Y-116166681D01*
X154679999Y-115973495D01*
X154680000Y-115973492D01*
X154680000Y-115825000D01*
X153980000Y-115825000D01*
X153980000Y-115325000D01*
X154680000Y-115325000D01*
X154680000Y-115176508D01*
X154679999Y-115176504D01*
X161320000Y-115176504D01*
X161320000Y-115325000D01*
X162020000Y-115325000D01*
X162020000Y-115825000D01*
X161320000Y-115825000D01*
X161320000Y-115973495D01*
X161358427Y-116166681D01*
X161358430Y-116166693D01*
X161433807Y-116348671D01*
X161433814Y-116348684D01*
X161543248Y-116512462D01*
X161543251Y-116512466D01*
X161682533Y-116651748D01*
X161682537Y-116651751D01*
X161846315Y-116761185D01*
X161846328Y-116761192D01*
X162028308Y-116836569D01*
X162070000Y-116844862D01*
X162070000Y-116041988D01*
X162079940Y-116059205D01*
X162135795Y-116115060D01*
X162204204Y-116154556D01*
X162280504Y-116175000D01*
X162359496Y-116175000D01*
X162435796Y-116154556D01*
X162504205Y-116115060D01*
X162560060Y-116059205D01*
X162570000Y-116041988D01*
X162570000Y-116844862D01*
X162611690Y-116836569D01*
X162611692Y-116836569D01*
X162793671Y-116761192D01*
X162793684Y-116761185D01*
X162957462Y-116651751D01*
X162957466Y-116651748D01*
X163096748Y-116512466D01*
X163096751Y-116512462D01*
X163206185Y-116348684D01*
X163206192Y-116348671D01*
X163281569Y-116166693D01*
X163281572Y-116166681D01*
X163319999Y-115973495D01*
X163320000Y-115973492D01*
X163320000Y-115825000D01*
X162620000Y-115825000D01*
X162620000Y-115325000D01*
X163320000Y-115325000D01*
X163320000Y-115176508D01*
X163319999Y-115176504D01*
X163281572Y-114983318D01*
X163281569Y-114983306D01*
X163206192Y-114801328D01*
X163206185Y-114801315D01*
X163096751Y-114637537D01*
X163096748Y-114637533D01*
X162957466Y-114498251D01*
X162957462Y-114498248D01*
X162793684Y-114388814D01*
X162793671Y-114388807D01*
X162611691Y-114313429D01*
X162611683Y-114313427D01*
X162570000Y-114305135D01*
X162570000Y-115108011D01*
X162560060Y-115090795D01*
X162504205Y-115034940D01*
X162435796Y-114995444D01*
X162359496Y-114975000D01*
X162280504Y-114975000D01*
X162204204Y-114995444D01*
X162135795Y-115034940D01*
X162079940Y-115090795D01*
X162070000Y-115108011D01*
X162070000Y-114305136D01*
X162069999Y-114305135D01*
X162028316Y-114313427D01*
X162028308Y-114313429D01*
X161846328Y-114388807D01*
X161846315Y-114388814D01*
X161682537Y-114498248D01*
X161682533Y-114498251D01*
X161543251Y-114637533D01*
X161543248Y-114637537D01*
X161433814Y-114801315D01*
X161433807Y-114801328D01*
X161358430Y-114983306D01*
X161358427Y-114983318D01*
X161320000Y-115176504D01*
X154679999Y-115176504D01*
X154641572Y-114983318D01*
X154641569Y-114983306D01*
X154566192Y-114801328D01*
X154566185Y-114801315D01*
X154456751Y-114637537D01*
X154456748Y-114637533D01*
X154317466Y-114498251D01*
X154317462Y-114498248D01*
X154153684Y-114388814D01*
X154153671Y-114388807D01*
X153971691Y-114313429D01*
X153971683Y-114313427D01*
X153930000Y-114305135D01*
X153930000Y-115108011D01*
X153920060Y-115090795D01*
X153864205Y-115034940D01*
X153795796Y-114995444D01*
X153719496Y-114975000D01*
X153640504Y-114975000D01*
X153564204Y-114995444D01*
X153495795Y-115034940D01*
X153439940Y-115090795D01*
X153430000Y-115108011D01*
X153430000Y-114305136D01*
X153429999Y-114305135D01*
X153388316Y-114313427D01*
X153388308Y-114313429D01*
X153206328Y-114388807D01*
X153206315Y-114388814D01*
X153042537Y-114498248D01*
X153042533Y-114498251D01*
X152903251Y-114637533D01*
X152903248Y-114637537D01*
X152793814Y-114801315D01*
X152793807Y-114801328D01*
X152718430Y-114983306D01*
X152718427Y-114983318D01*
X152680000Y-115176504D01*
X124185211Y-115176504D01*
X123964604Y-114840160D01*
X123960205Y-114832926D01*
X123772026Y-114498251D01*
X123716313Y-114399166D01*
X123715607Y-114397889D01*
X123712047Y-114391368D01*
X123708903Y-114385207D01*
X123618555Y-114195233D01*
X123508052Y-113962879D01*
X123507261Y-113961181D01*
X123488633Y-113920392D01*
X123486084Y-113914394D01*
X123323357Y-113501749D01*
X123322574Y-113499710D01*
X123298570Y-113435353D01*
X123296581Y-113429588D01*
X123167248Y-113022090D01*
X123166492Y-113019614D01*
X123142731Y-112938694D01*
X123141257Y-112933204D01*
X123042616Y-112528426D01*
X123041963Y-112525596D01*
X123021811Y-112432956D01*
X123020790Y-112427719D01*
X122951238Y-112024329D01*
X122950726Y-112021090D01*
X122936282Y-111920627D01*
X122935676Y-111915715D01*
X122894278Y-111513019D01*
X122893953Y-111509294D01*
X122886446Y-111404328D01*
X122886207Y-111399809D01*
X122870842Y-110949997D01*
X127120000Y-110949997D01*
X127120000Y-110950002D01*
X127139051Y-111301384D01*
X127181074Y-111557714D01*
X127187565Y-111597309D01*
X127195984Y-111648659D01*
X127195986Y-111648667D01*
X127290123Y-111987719D01*
X127290125Y-111987726D01*
X127420375Y-112314630D01*
X127420384Y-112314648D01*
X127585214Y-112625550D01*
X127782697Y-112916815D01*
X127936255Y-113097598D01*
X128010515Y-113185023D01*
X128265995Y-113427027D01*
X128266002Y-113427032D01*
X128266004Y-113427034D01*
X128298097Y-113451430D01*
X128546142Y-113639989D01*
X128546150Y-113639994D01*
X128546162Y-113640002D01*
X128799310Y-113792315D01*
X128847673Y-113821414D01*
X128847679Y-113821417D01*
X128847681Y-113821418D01*
X128983720Y-113884356D01*
X129167051Y-113969174D01*
X129500533Y-114081537D01*
X129844209Y-114157186D01*
X130194049Y-114195234D01*
X130194054Y-114195234D01*
X130545946Y-114195234D01*
X130545951Y-114195234D01*
X130895791Y-114157186D01*
X131239467Y-114081537D01*
X131572949Y-113969174D01*
X131892327Y-113821414D01*
X132176389Y-113650500D01*
X132193837Y-113640002D01*
X132193841Y-113639999D01*
X132193850Y-113639994D01*
X132193858Y-113639989D01*
X132474005Y-113427027D01*
X132729485Y-113185023D01*
X132957302Y-112916816D01*
X133154786Y-112625550D01*
X133319620Y-112314640D01*
X133449873Y-111987730D01*
X133469868Y-111915715D01*
X133529758Y-111700013D01*
X138150000Y-111700013D01*
X138150000Y-112225000D01*
X139095854Y-112225000D01*
X139057370Y-112291657D01*
X139025000Y-112412465D01*
X139025000Y-112537535D01*
X139057370Y-112658343D01*
X139095854Y-112725000D01*
X138150001Y-112725000D01*
X138150001Y-113249986D01*
X138160494Y-113352697D01*
X138215641Y-113519119D01*
X138215643Y-113519124D01*
X138307684Y-113668345D01*
X138431654Y-113792315D01*
X138580875Y-113884356D01*
X138580880Y-113884358D01*
X138747302Y-113939505D01*
X138747309Y-113939506D01*
X138850019Y-113949999D01*
X139249999Y-113949999D01*
X139250000Y-113949998D01*
X139250000Y-112879145D01*
X139316657Y-112917630D01*
X139437465Y-112950000D01*
X139562535Y-112950000D01*
X139683343Y-112917630D01*
X139750000Y-112879145D01*
X139750000Y-113949999D01*
X140149972Y-113949999D01*
X140149986Y-113949998D01*
X140252697Y-113939505D01*
X140419119Y-113884358D01*
X140419124Y-113884356D01*
X140568345Y-113792315D01*
X140692315Y-113668345D01*
X140784356Y-113519124D01*
X140784358Y-113519119D01*
X140839505Y-113352697D01*
X140839506Y-113352690D01*
X140849999Y-113249986D01*
X140849999Y-113178528D01*
X140869683Y-113111488D01*
X140922486Y-113065732D01*
X140991644Y-113055788D01*
X141055200Y-113084812D01*
X141077101Y-113109635D01*
X141184022Y-113269655D01*
X141330342Y-113415975D01*
X141330345Y-113415977D01*
X141502402Y-113530941D01*
X141693580Y-113610130D01*
X141843758Y-113640002D01*
X141896530Y-113650499D01*
X141896534Y-113650500D01*
X141896535Y-113650500D01*
X142103466Y-113650500D01*
X142103467Y-113650499D01*
X142306420Y-113610130D01*
X142497598Y-113530941D01*
X142669655Y-113415977D01*
X142815977Y-113269655D01*
X142930941Y-113097598D01*
X143010130Y-112906420D01*
X143050500Y-112703465D01*
X143050500Y-112246535D01*
X143050499Y-112246530D01*
X143449500Y-112246530D01*
X143449500Y-112703469D01*
X143489868Y-112906412D01*
X143489870Y-112906420D01*
X143569058Y-113097596D01*
X143684024Y-113269657D01*
X143830342Y-113415975D01*
X143830345Y-113415977D01*
X144002402Y-113530941D01*
X144193580Y-113610130D01*
X144343758Y-113640002D01*
X144396530Y-113650499D01*
X144396534Y-113650500D01*
X144396535Y-113650500D01*
X144603466Y-113650500D01*
X144603467Y-113650499D01*
X144806420Y-113610130D01*
X144997598Y-113530941D01*
X145169655Y-113415977D01*
X145315977Y-113269655D01*
X145430941Y-113097598D01*
X145510130Y-112906420D01*
X145550500Y-112703465D01*
X145550500Y-112246535D01*
X145510130Y-112043580D01*
X145430941Y-111852402D01*
X145315977Y-111680345D01*
X145315975Y-111680342D01*
X145169657Y-111534024D01*
X145046575Y-111451784D01*
X144997598Y-111419059D01*
X144973661Y-111409144D01*
X144806420Y-111339870D01*
X144806412Y-111339868D01*
X144603469Y-111299500D01*
X144603465Y-111299500D01*
X144396535Y-111299500D01*
X144396530Y-111299500D01*
X144193587Y-111339868D01*
X144193579Y-111339870D01*
X144002403Y-111419058D01*
X143830342Y-111534024D01*
X143684024Y-111680342D01*
X143569058Y-111852403D01*
X143489870Y-112043579D01*
X143489868Y-112043587D01*
X143449500Y-112246530D01*
X143050499Y-112246530D01*
X143010130Y-112043580D01*
X142930941Y-111852402D01*
X142815977Y-111680345D01*
X142815975Y-111680342D01*
X142669657Y-111534024D01*
X142546575Y-111451784D01*
X142497598Y-111419059D01*
X142473661Y-111409144D01*
X142306420Y-111339870D01*
X142306412Y-111339868D01*
X142103469Y-111299500D01*
X142103465Y-111299500D01*
X141896535Y-111299500D01*
X141896530Y-111299500D01*
X141693587Y-111339868D01*
X141693579Y-111339870D01*
X141502403Y-111419058D01*
X141330342Y-111534024D01*
X141184024Y-111680342D01*
X141077102Y-111840365D01*
X141023489Y-111885171D01*
X140954165Y-111893878D01*
X140891137Y-111863724D01*
X140854417Y-111804281D01*
X140849999Y-111771475D01*
X140849999Y-111700028D01*
X140849998Y-111700012D01*
X140839505Y-111597302D01*
X140784358Y-111430880D01*
X140784356Y-111430875D01*
X140692315Y-111281654D01*
X140568345Y-111157684D01*
X140419124Y-111065643D01*
X140419119Y-111065641D01*
X140252697Y-111010494D01*
X140252690Y-111010493D01*
X140149986Y-111000000D01*
X139750000Y-111000000D01*
X139750000Y-112070854D01*
X139683343Y-112032370D01*
X139562535Y-112000000D01*
X139437465Y-112000000D01*
X139316657Y-112032370D01*
X139250000Y-112070854D01*
X139250000Y-111000000D01*
X138850028Y-111000000D01*
X138850012Y-111000001D01*
X138747302Y-111010494D01*
X138580880Y-111065641D01*
X138580875Y-111065643D01*
X138431654Y-111157684D01*
X138307684Y-111281654D01*
X138215643Y-111430875D01*
X138215641Y-111430880D01*
X138160494Y-111597302D01*
X138160493Y-111597309D01*
X138150000Y-111700013D01*
X133529758Y-111700013D01*
X133539843Y-111663690D01*
X133544015Y-111648660D01*
X133544016Y-111648659D01*
X133544017Y-111648654D01*
X133600948Y-111301387D01*
X133620000Y-110950000D01*
X133608967Y-110746504D01*
X152680000Y-110746504D01*
X152680000Y-111145000D01*
X153380000Y-111145000D01*
X153380000Y-111645000D01*
X152680000Y-111645000D01*
X152680000Y-112043495D01*
X152718427Y-112236681D01*
X152718430Y-112236693D01*
X152793807Y-112418671D01*
X152793814Y-112418684D01*
X152903248Y-112582462D01*
X152903251Y-112582466D01*
X153042533Y-112721748D01*
X153042537Y-112721751D01*
X153206315Y-112831185D01*
X153206328Y-112831192D01*
X153388308Y-112906569D01*
X153430000Y-112914862D01*
X153430000Y-112111988D01*
X153439940Y-112129205D01*
X153495795Y-112185060D01*
X153564204Y-112224556D01*
X153640504Y-112245000D01*
X153719496Y-112245000D01*
X153795796Y-112224556D01*
X153864205Y-112185060D01*
X153920060Y-112129205D01*
X153930000Y-112111988D01*
X153930000Y-112914862D01*
X153971690Y-112906569D01*
X153971692Y-112906569D01*
X154153671Y-112831192D01*
X154153684Y-112831185D01*
X154317462Y-112721751D01*
X154317466Y-112721748D01*
X154456748Y-112582466D01*
X154456754Y-112582458D01*
X154559548Y-112428617D01*
X154613160Y-112383811D01*
X154682485Y-112375104D01*
X154731541Y-112394405D01*
X154813707Y-112449307D01*
X154813713Y-112449310D01*
X154813714Y-112449311D01*
X154927548Y-112496463D01*
X155048389Y-112520499D01*
X155048393Y-112520500D01*
X155048394Y-112520500D01*
X155171607Y-112520500D01*
X155171608Y-112520499D01*
X155292452Y-112496463D01*
X155406286Y-112449311D01*
X155508733Y-112380858D01*
X155595858Y-112293733D01*
X155664311Y-112191286D01*
X155711463Y-112077452D01*
X155735500Y-111956606D01*
X155735500Y-111833394D01*
X155735499Y-111833389D01*
X160264500Y-111833389D01*
X160264500Y-111956610D01*
X160288535Y-112077444D01*
X160288538Y-112077454D01*
X160335687Y-112191283D01*
X160335692Y-112191292D01*
X160404141Y-112293732D01*
X160404144Y-112293736D01*
X160491263Y-112380855D01*
X160491267Y-112380858D01*
X160593707Y-112449307D01*
X160593713Y-112449310D01*
X160593714Y-112449311D01*
X160707548Y-112496463D01*
X160828389Y-112520499D01*
X160828393Y-112520500D01*
X160828394Y-112520500D01*
X160951607Y-112520500D01*
X160951608Y-112520499D01*
X161072452Y-112496463D01*
X161186286Y-112449311D01*
X161268459Y-112394404D01*
X161335135Y-112373527D01*
X161402515Y-112392011D01*
X161440451Y-112428616D01*
X161543248Y-112582462D01*
X161543251Y-112582466D01*
X161682533Y-112721748D01*
X161682537Y-112721751D01*
X161846315Y-112831185D01*
X161846328Y-112831192D01*
X162028308Y-112906569D01*
X162070000Y-112914862D01*
X162070000Y-112111988D01*
X162079940Y-112129205D01*
X162135795Y-112185060D01*
X162204204Y-112224556D01*
X162280504Y-112245000D01*
X162359496Y-112245000D01*
X162435796Y-112224556D01*
X162504205Y-112185060D01*
X162560060Y-112129205D01*
X162570000Y-112111988D01*
X162570000Y-112914862D01*
X162611690Y-112906569D01*
X162611692Y-112906569D01*
X162793671Y-112831192D01*
X162793684Y-112831185D01*
X162957462Y-112721751D01*
X162957466Y-112721748D01*
X163096748Y-112582466D01*
X163096751Y-112582462D01*
X163206185Y-112418684D01*
X163206192Y-112418671D01*
X163281569Y-112236693D01*
X163281572Y-112236681D01*
X163319999Y-112043495D01*
X163320000Y-112043492D01*
X163320000Y-111645000D01*
X162620000Y-111645000D01*
X162620000Y-111145000D01*
X163320000Y-111145000D01*
X163320000Y-110949997D01*
X182120000Y-110949997D01*
X182120000Y-110950002D01*
X182139051Y-111301384D01*
X182181074Y-111557714D01*
X182187565Y-111597309D01*
X182195984Y-111648659D01*
X182195986Y-111648667D01*
X182290123Y-111987719D01*
X182290125Y-111987726D01*
X182420375Y-112314630D01*
X182420384Y-112314648D01*
X182585214Y-112625550D01*
X182782697Y-112916815D01*
X182936255Y-113097598D01*
X183010515Y-113185023D01*
X183265995Y-113427027D01*
X183266002Y-113427032D01*
X183266004Y-113427034D01*
X183298097Y-113451430D01*
X183546142Y-113639989D01*
X183546150Y-113639994D01*
X183546162Y-113640002D01*
X183799310Y-113792315D01*
X183847673Y-113821414D01*
X183847679Y-113821417D01*
X183847681Y-113821418D01*
X183983720Y-113884356D01*
X184167051Y-113969174D01*
X184500533Y-114081537D01*
X184844209Y-114157186D01*
X185194049Y-114195234D01*
X185194054Y-114195234D01*
X185545946Y-114195234D01*
X185545951Y-114195234D01*
X185895791Y-114157186D01*
X186239467Y-114081537D01*
X186572949Y-113969174D01*
X186892327Y-113821414D01*
X187176389Y-113650500D01*
X187193837Y-113640002D01*
X187193841Y-113639999D01*
X187193850Y-113639994D01*
X187193858Y-113639989D01*
X187474005Y-113427027D01*
X187729485Y-113185023D01*
X187957302Y-112916816D01*
X188154786Y-112625550D01*
X188319620Y-112314640D01*
X188449873Y-111987730D01*
X188544017Y-111648654D01*
X188600948Y-111301387D01*
X188620000Y-110950000D01*
X188600948Y-110598613D01*
X188544017Y-110251346D01*
X188449873Y-109912270D01*
X188319620Y-109585360D01*
X188154786Y-109274450D01*
X187957302Y-108983184D01*
X187729485Y-108714977D01*
X187474005Y-108472973D01*
X187473998Y-108472967D01*
X187473995Y-108472965D01*
X187380963Y-108402244D01*
X187193858Y-108260011D01*
X187193852Y-108260007D01*
X187193837Y-108259997D01*
X186892331Y-108078588D01*
X186892318Y-108078581D01*
X186572959Y-107930830D01*
X186572954Y-107930828D01*
X186572949Y-107930826D01*
X186410394Y-107876055D01*
X186239466Y-107818462D01*
X185895789Y-107742813D01*
X185545952Y-107704766D01*
X185545951Y-107704766D01*
X185194049Y-107704766D01*
X185194047Y-107704766D01*
X184844210Y-107742813D01*
X184500533Y-107818462D01*
X184242745Y-107905321D01*
X184167051Y-107930826D01*
X184167048Y-107930827D01*
X184167040Y-107930830D01*
X183847681Y-108078581D01*
X183847668Y-108078588D01*
X183546162Y-108259997D01*
X183546146Y-108260008D01*
X183266004Y-108472965D01*
X183265995Y-108472973D01*
X183010512Y-108714979D01*
X183010507Y-108714985D01*
X182782697Y-108983184D01*
X182585214Y-109274449D01*
X182420384Y-109585351D01*
X182420375Y-109585369D01*
X182290125Y-109912273D01*
X182290123Y-109912280D01*
X182195986Y-110251332D01*
X182195984Y-110251340D01*
X182139051Y-110598615D01*
X182120000Y-110949997D01*
X163320000Y-110949997D01*
X163320000Y-110746508D01*
X163319999Y-110746504D01*
X163281572Y-110553318D01*
X163281569Y-110553306D01*
X163206192Y-110371328D01*
X163206185Y-110371315D01*
X163096751Y-110207537D01*
X163096748Y-110207533D01*
X162957466Y-110068251D01*
X162957462Y-110068248D01*
X162793684Y-109958814D01*
X162793671Y-109958807D01*
X162611691Y-109883429D01*
X162611683Y-109883427D01*
X162570000Y-109875135D01*
X162570000Y-110678011D01*
X162560060Y-110660795D01*
X162504205Y-110604940D01*
X162435796Y-110565444D01*
X162359496Y-110545000D01*
X162280504Y-110545000D01*
X162204204Y-110565444D01*
X162135795Y-110604940D01*
X162079940Y-110660795D01*
X162070000Y-110678011D01*
X162070000Y-109875136D01*
X162069999Y-109875135D01*
X162028316Y-109883427D01*
X162028308Y-109883429D01*
X161846328Y-109958807D01*
X161846315Y-109958814D01*
X161682537Y-110068248D01*
X161682533Y-110068251D01*
X161543251Y-110207533D01*
X161543248Y-110207537D01*
X161433814Y-110371315D01*
X161433807Y-110371328D01*
X161358430Y-110553306D01*
X161358427Y-110553318D01*
X161320000Y-110746504D01*
X161320000Y-111210495D01*
X161300315Y-111277534D01*
X161247511Y-111323289D01*
X161178353Y-111333233D01*
X161148548Y-111325056D01*
X161072458Y-111293539D01*
X161072454Y-111293537D01*
X161072452Y-111293537D01*
X161072448Y-111293536D01*
X161072444Y-111293535D01*
X160951610Y-111269500D01*
X160951606Y-111269500D01*
X160828394Y-111269500D01*
X160828389Y-111269500D01*
X160707555Y-111293535D01*
X160707545Y-111293538D01*
X160593716Y-111340687D01*
X160593707Y-111340692D01*
X160491267Y-111409141D01*
X160491263Y-111409144D01*
X160404144Y-111496263D01*
X160404141Y-111496267D01*
X160335692Y-111598707D01*
X160335687Y-111598716D01*
X160288538Y-111712545D01*
X160288535Y-111712555D01*
X160264500Y-111833389D01*
X155735499Y-111833389D01*
X155711463Y-111712548D01*
X155664311Y-111598714D01*
X155664310Y-111598713D01*
X155664307Y-111598707D01*
X155595858Y-111496267D01*
X155595855Y-111496263D01*
X155508736Y-111409144D01*
X155508732Y-111409141D01*
X155406292Y-111340692D01*
X155406283Y-111340687D01*
X155306848Y-111299500D01*
X155292452Y-111293537D01*
X155292448Y-111293536D01*
X155292444Y-111293535D01*
X155171610Y-111269500D01*
X155171606Y-111269500D01*
X155048394Y-111269500D01*
X155048389Y-111269500D01*
X154927555Y-111293535D01*
X154927541Y-111293539D01*
X154851452Y-111325056D01*
X154781982Y-111332525D01*
X154719503Y-111301249D01*
X154683852Y-111241160D01*
X154680000Y-111210495D01*
X154680000Y-110746508D01*
X154679999Y-110746504D01*
X154641572Y-110553318D01*
X154641569Y-110553306D01*
X154566192Y-110371328D01*
X154566185Y-110371315D01*
X154456751Y-110207537D01*
X154456748Y-110207533D01*
X154317466Y-110068251D01*
X154317462Y-110068248D01*
X154153684Y-109958814D01*
X154153671Y-109958807D01*
X153971691Y-109883429D01*
X153971683Y-109883427D01*
X153930000Y-109875135D01*
X153930000Y-110678011D01*
X153920060Y-110660795D01*
X153864205Y-110604940D01*
X153795796Y-110565444D01*
X153719496Y-110545000D01*
X153640504Y-110545000D01*
X153564204Y-110565444D01*
X153495795Y-110604940D01*
X153439940Y-110660795D01*
X153430000Y-110678011D01*
X153430000Y-109875136D01*
X153429999Y-109875135D01*
X153388316Y-109883427D01*
X153388308Y-109883429D01*
X153206328Y-109958807D01*
X153206315Y-109958814D01*
X153042537Y-110068248D01*
X153042533Y-110068251D01*
X152903251Y-110207533D01*
X152903248Y-110207537D01*
X152793814Y-110371315D01*
X152793807Y-110371328D01*
X152718430Y-110553306D01*
X152718427Y-110553318D01*
X152680000Y-110746504D01*
X133608967Y-110746504D01*
X133600948Y-110598613D01*
X133544017Y-110251346D01*
X133449873Y-109912270D01*
X133319620Y-109585360D01*
X133154786Y-109274450D01*
X132998227Y-109043543D01*
X154624499Y-109043543D01*
X154662947Y-109236829D01*
X154662950Y-109236839D01*
X154738364Y-109418907D01*
X154738371Y-109418920D01*
X154847860Y-109582781D01*
X154847863Y-109582785D01*
X154987214Y-109722136D01*
X154987218Y-109722139D01*
X155151079Y-109831628D01*
X155151092Y-109831635D01*
X155333160Y-109907049D01*
X155333165Y-109907051D01*
X155333169Y-109907051D01*
X155333170Y-109907052D01*
X155526456Y-109945500D01*
X155526459Y-109945500D01*
X155723543Y-109945500D01*
X155890547Y-109912280D01*
X155916835Y-109907051D01*
X156098914Y-109831632D01*
X156262782Y-109722139D01*
X156402139Y-109582782D01*
X156511632Y-109418914D01*
X156587051Y-109236835D01*
X156625500Y-109043543D01*
X159424499Y-109043543D01*
X159462947Y-109236829D01*
X159462950Y-109236839D01*
X159538364Y-109418907D01*
X159538371Y-109418920D01*
X159647860Y-109582781D01*
X159647863Y-109582785D01*
X159787214Y-109722136D01*
X159787218Y-109722139D01*
X159951079Y-109831628D01*
X159951092Y-109831635D01*
X160133160Y-109907049D01*
X160133165Y-109907051D01*
X160133169Y-109907051D01*
X160133170Y-109907052D01*
X160326456Y-109945500D01*
X160326459Y-109945500D01*
X160523543Y-109945500D01*
X160690547Y-109912280D01*
X160716835Y-109907051D01*
X160898914Y-109831632D01*
X161062782Y-109722139D01*
X161202139Y-109582782D01*
X161311632Y-109418914D01*
X161387051Y-109236835D01*
X161425500Y-109043541D01*
X161425500Y-108846459D01*
X161425500Y-108846456D01*
X161387052Y-108653170D01*
X161387051Y-108653169D01*
X161387051Y-108653165D01*
X161312414Y-108472973D01*
X161311635Y-108471092D01*
X161311628Y-108471079D01*
X161202139Y-108307218D01*
X161202136Y-108307214D01*
X161062785Y-108167863D01*
X161062781Y-108167860D01*
X160898920Y-108058371D01*
X160898907Y-108058364D01*
X160716839Y-107982950D01*
X160716829Y-107982947D01*
X160523543Y-107944500D01*
X160523541Y-107944500D01*
X160326459Y-107944500D01*
X160326457Y-107944500D01*
X160133170Y-107982947D01*
X160133160Y-107982950D01*
X159951092Y-108058364D01*
X159951079Y-108058371D01*
X159787218Y-108167860D01*
X159787214Y-108167863D01*
X159647863Y-108307214D01*
X159647860Y-108307218D01*
X159538371Y-108471079D01*
X159538364Y-108471092D01*
X159462950Y-108653160D01*
X159462947Y-108653170D01*
X159424500Y-108846456D01*
X159424500Y-108846459D01*
X159424500Y-109043541D01*
X159424500Y-109043543D01*
X159424499Y-109043543D01*
X156625500Y-109043543D01*
X156625500Y-109043541D01*
X156625500Y-108846459D01*
X156625500Y-108846456D01*
X156587052Y-108653170D01*
X156587051Y-108653169D01*
X156587051Y-108653165D01*
X156512414Y-108472973D01*
X156511635Y-108471092D01*
X156511628Y-108471079D01*
X156402139Y-108307218D01*
X156402136Y-108307214D01*
X156262785Y-108167863D01*
X156262781Y-108167860D01*
X156098920Y-108058371D01*
X156098907Y-108058364D01*
X155916839Y-107982950D01*
X155916829Y-107982947D01*
X155723543Y-107944500D01*
X155723541Y-107944500D01*
X155526459Y-107944500D01*
X155526457Y-107944500D01*
X155333170Y-107982947D01*
X155333160Y-107982950D01*
X155151092Y-108058364D01*
X155151079Y-108058371D01*
X154987218Y-108167860D01*
X154987214Y-108167863D01*
X154847863Y-108307214D01*
X154847860Y-108307218D01*
X154738371Y-108471079D01*
X154738364Y-108471092D01*
X154662950Y-108653160D01*
X154662947Y-108653170D01*
X154624500Y-108846456D01*
X154624500Y-108846459D01*
X154624500Y-109043541D01*
X154624500Y-109043543D01*
X154624499Y-109043543D01*
X132998227Y-109043543D01*
X132957302Y-108983184D01*
X132904180Y-108920643D01*
X132729492Y-108714985D01*
X132729487Y-108714979D01*
X132664231Y-108653165D01*
X132474005Y-108472973D01*
X132473998Y-108472967D01*
X132473995Y-108472965D01*
X132380963Y-108402244D01*
X132193858Y-108260011D01*
X132193852Y-108260007D01*
X132193837Y-108259997D01*
X131892331Y-108078588D01*
X131892318Y-108078581D01*
X131572959Y-107930830D01*
X131572954Y-107930828D01*
X131572949Y-107930826D01*
X131410394Y-107876055D01*
X131239466Y-107818462D01*
X130895789Y-107742813D01*
X130545952Y-107704766D01*
X130545951Y-107704766D01*
X130194049Y-107704766D01*
X130194047Y-107704766D01*
X129844210Y-107742813D01*
X129500533Y-107818462D01*
X129242745Y-107905321D01*
X129167051Y-107930826D01*
X129167048Y-107930827D01*
X129167040Y-107930830D01*
X128847681Y-108078581D01*
X128847668Y-108078588D01*
X128546162Y-108259997D01*
X128546146Y-108260008D01*
X128266004Y-108472965D01*
X128265995Y-108472973D01*
X128010512Y-108714979D01*
X128010507Y-108714985D01*
X127782697Y-108983184D01*
X127585214Y-109274449D01*
X127420384Y-109585351D01*
X127420375Y-109585369D01*
X127290125Y-109912273D01*
X127290123Y-109912280D01*
X127195986Y-110251332D01*
X127195984Y-110251340D01*
X127139051Y-110598615D01*
X127120000Y-110949997D01*
X122870842Y-110949997D01*
X122870572Y-110942101D01*
X122870500Y-110937874D01*
X122870500Y-104971153D01*
X168399500Y-104971153D01*
X168399500Y-105128846D01*
X168430261Y-105283489D01*
X168430264Y-105283501D01*
X168490602Y-105429172D01*
X168490609Y-105429185D01*
X168578210Y-105560288D01*
X168578213Y-105560292D01*
X168689707Y-105671786D01*
X168689711Y-105671789D01*
X168820814Y-105759390D01*
X168820827Y-105759397D01*
X168920060Y-105800500D01*
X168966503Y-105819737D01*
X169121153Y-105850499D01*
X169121156Y-105850500D01*
X169121158Y-105850500D01*
X169278844Y-105850500D01*
X169278845Y-105850499D01*
X169433497Y-105819737D01*
X169579179Y-105759394D01*
X169710289Y-105671789D01*
X169787320Y-105594757D01*
X169848641Y-105561274D01*
X169918333Y-105566258D01*
X169962680Y-105594758D01*
X169989708Y-105621786D01*
X169989712Y-105621790D01*
X170120814Y-105709390D01*
X170120827Y-105709397D01*
X170266498Y-105769735D01*
X170266503Y-105769737D01*
X170421153Y-105800499D01*
X170421156Y-105800500D01*
X170421158Y-105800500D01*
X170578844Y-105800500D01*
X170578845Y-105800499D01*
X170733497Y-105769737D01*
X170879179Y-105709394D01*
X171010289Y-105621789D01*
X171121789Y-105510289D01*
X171209394Y-105379179D01*
X171269737Y-105233497D01*
X171300500Y-105078842D01*
X171300500Y-104921158D01*
X171300500Y-104921155D01*
X171300499Y-104921153D01*
X171279684Y-104816510D01*
X171269737Y-104766503D01*
X171242398Y-104700500D01*
X171209397Y-104620827D01*
X171209390Y-104620814D01*
X171121789Y-104489711D01*
X171121786Y-104489707D01*
X171010292Y-104378213D01*
X171010288Y-104378210D01*
X170879185Y-104290609D01*
X170879172Y-104290602D01*
X170733501Y-104230264D01*
X170733489Y-104230261D01*
X170578845Y-104199500D01*
X170578842Y-104199500D01*
X170421158Y-104199500D01*
X170421155Y-104199500D01*
X170266510Y-104230261D01*
X170266498Y-104230264D01*
X170120827Y-104290602D01*
X170120814Y-104290609D01*
X169989711Y-104378210D01*
X169989707Y-104378213D01*
X169912681Y-104455240D01*
X169851358Y-104488725D01*
X169781666Y-104483741D01*
X169737319Y-104455240D01*
X169710292Y-104428213D01*
X169710288Y-104428210D01*
X169579185Y-104340609D01*
X169579172Y-104340602D01*
X169433501Y-104280264D01*
X169433489Y-104280261D01*
X169278845Y-104249500D01*
X169278842Y-104249500D01*
X169121158Y-104249500D01*
X169121155Y-104249500D01*
X168966510Y-104280261D01*
X168966498Y-104280264D01*
X168820827Y-104340602D01*
X168820814Y-104340609D01*
X168689711Y-104428210D01*
X168689707Y-104428213D01*
X168578213Y-104539707D01*
X168578210Y-104539711D01*
X168490609Y-104670814D01*
X168490602Y-104670827D01*
X168430264Y-104816498D01*
X168430261Y-104816510D01*
X168399500Y-104971153D01*
X122870500Y-104971153D01*
X122870500Y-103821153D01*
X173449500Y-103821153D01*
X173449500Y-103978846D01*
X173480261Y-104133489D01*
X173480264Y-104133501D01*
X173540602Y-104279172D01*
X173540609Y-104279185D01*
X173628210Y-104410288D01*
X173628213Y-104410292D01*
X173739707Y-104521786D01*
X173739711Y-104521789D01*
X173870814Y-104609390D01*
X173870827Y-104609397D01*
X174016498Y-104669735D01*
X174016503Y-104669737D01*
X174171153Y-104700499D01*
X174171156Y-104700500D01*
X174171158Y-104700500D01*
X174328844Y-104700500D01*
X174328845Y-104700499D01*
X174483497Y-104669737D01*
X174601592Y-104620821D01*
X174629172Y-104609397D01*
X174629172Y-104609396D01*
X174629179Y-104609394D01*
X174760289Y-104521789D01*
X174871789Y-104410289D01*
X174959394Y-104279179D01*
X175019737Y-104133497D01*
X175050500Y-103978842D01*
X175050500Y-103821158D01*
X175050500Y-103821155D01*
X175050499Y-103821153D01*
X175019738Y-103666510D01*
X175019737Y-103666503D01*
X175019735Y-103666498D01*
X174959397Y-103520827D01*
X174959390Y-103520814D01*
X174871789Y-103389711D01*
X174871786Y-103389707D01*
X174760292Y-103278213D01*
X174760288Y-103278210D01*
X174629185Y-103190609D01*
X174629172Y-103190602D01*
X174483501Y-103130264D01*
X174483489Y-103130261D01*
X174328845Y-103099500D01*
X174328842Y-103099500D01*
X174171158Y-103099500D01*
X174171155Y-103099500D01*
X174016510Y-103130261D01*
X174016498Y-103130264D01*
X173870827Y-103190602D01*
X173870814Y-103190609D01*
X173739711Y-103278210D01*
X173739707Y-103278213D01*
X173628213Y-103389707D01*
X173628210Y-103389711D01*
X173540609Y-103520814D01*
X173540602Y-103520827D01*
X173480264Y-103666498D01*
X173480261Y-103666510D01*
X173449500Y-103821153D01*
X122870500Y-103821153D01*
X122870500Y-101621153D01*
X173399500Y-101621153D01*
X173399500Y-101778846D01*
X173430261Y-101933489D01*
X173430264Y-101933501D01*
X173490602Y-102079172D01*
X173490609Y-102079185D01*
X173578210Y-102210288D01*
X173578213Y-102210292D01*
X173689707Y-102321786D01*
X173689711Y-102321789D01*
X173820814Y-102409390D01*
X173820827Y-102409397D01*
X173966498Y-102469735D01*
X173966503Y-102469737D01*
X174121153Y-102500499D01*
X174121156Y-102500500D01*
X174121158Y-102500500D01*
X174278844Y-102500500D01*
X174278845Y-102500499D01*
X174433497Y-102469737D01*
X174579179Y-102409394D01*
X174710289Y-102321789D01*
X174821789Y-102210289D01*
X174909394Y-102079179D01*
X174969737Y-101933497D01*
X175000500Y-101778842D01*
X175000500Y-101621158D01*
X175000500Y-101621155D01*
X175000499Y-101621153D01*
X174969738Y-101466510D01*
X174969737Y-101466503D01*
X174969735Y-101466498D01*
X174909397Y-101320827D01*
X174909390Y-101320814D01*
X174821789Y-101189711D01*
X174821786Y-101189707D01*
X174710292Y-101078213D01*
X174710288Y-101078210D01*
X174579185Y-100990609D01*
X174579172Y-100990602D01*
X174433501Y-100930264D01*
X174433489Y-100930261D01*
X174278845Y-100899500D01*
X174278842Y-100899500D01*
X174121158Y-100899500D01*
X174121155Y-100899500D01*
X173966510Y-100930261D01*
X173966498Y-100930264D01*
X173820827Y-100990602D01*
X173820814Y-100990609D01*
X173689711Y-101078210D01*
X173689707Y-101078213D01*
X173578213Y-101189707D01*
X173578210Y-101189711D01*
X173490609Y-101320814D01*
X173490602Y-101320827D01*
X173430264Y-101466498D01*
X173430261Y-101466510D01*
X173399500Y-101621153D01*
X122870500Y-101621153D01*
X122870500Y-99260943D01*
X125969500Y-99260943D01*
X125969500Y-99419056D01*
X126010423Y-99571783D01*
X126010426Y-99571790D01*
X126089475Y-99708709D01*
X126089479Y-99708714D01*
X126089480Y-99708716D01*
X126201284Y-99820520D01*
X126201286Y-99820521D01*
X126201290Y-99820524D01*
X126338209Y-99899573D01*
X126338216Y-99899577D01*
X126490943Y-99940500D01*
X126490945Y-99940500D01*
X126649055Y-99940500D01*
X126649057Y-99940500D01*
X126801784Y-99899577D01*
X126938716Y-99820520D01*
X127050520Y-99708716D01*
X127129577Y-99571784D01*
X127170500Y-99419057D01*
X127170500Y-99260943D01*
X127129577Y-99108216D01*
X127073160Y-99010498D01*
X127050524Y-98971290D01*
X127050518Y-98971282D01*
X126938717Y-98859481D01*
X126938709Y-98859475D01*
X126801790Y-98780426D01*
X126801786Y-98780424D01*
X126801784Y-98780423D01*
X126649057Y-98739500D01*
X126490943Y-98739500D01*
X126338216Y-98780423D01*
X126338209Y-98780426D01*
X126201290Y-98859475D01*
X126201282Y-98859481D01*
X126089481Y-98971282D01*
X126089475Y-98971290D01*
X126010426Y-99108209D01*
X126010423Y-99108216D01*
X125969500Y-99260943D01*
X122870500Y-99260943D01*
X122870500Y-98371153D01*
X173849500Y-98371153D01*
X173849500Y-98528846D01*
X173880261Y-98683489D01*
X173880264Y-98683501D01*
X173940602Y-98829172D01*
X173940609Y-98829185D01*
X174028210Y-98960288D01*
X174028213Y-98960292D01*
X174139707Y-99071786D01*
X174139711Y-99071789D01*
X174270814Y-99159390D01*
X174270827Y-99159397D01*
X174416498Y-99219735D01*
X174416503Y-99219737D01*
X174571153Y-99250499D01*
X174571156Y-99250500D01*
X174571158Y-99250500D01*
X174728844Y-99250500D01*
X174728845Y-99250499D01*
X174883497Y-99219737D01*
X175029179Y-99159394D01*
X175160289Y-99071789D01*
X175271789Y-98960289D01*
X175359394Y-98829179D01*
X175419737Y-98683497D01*
X175450500Y-98528842D01*
X175450500Y-98371158D01*
X175442500Y-98330942D01*
X187989500Y-98330942D01*
X187989500Y-98489055D01*
X188030423Y-98641782D01*
X188030426Y-98641789D01*
X188109475Y-98778708D01*
X188109479Y-98778713D01*
X188109480Y-98778715D01*
X188221284Y-98890519D01*
X188221286Y-98890520D01*
X188221290Y-98890523D01*
X188342130Y-98960289D01*
X188358216Y-98969576D01*
X188510943Y-99010499D01*
X188510945Y-99010499D01*
X188669055Y-99010499D01*
X188669057Y-99010499D01*
X188821784Y-98969576D01*
X188958716Y-98890519D01*
X189070520Y-98778715D01*
X189149577Y-98641783D01*
X189190500Y-98489056D01*
X189190500Y-98330942D01*
X189149577Y-98178215D01*
X189149573Y-98178208D01*
X189070524Y-98041289D01*
X189070518Y-98041281D01*
X188958717Y-97929480D01*
X188958709Y-97929474D01*
X188821790Y-97850425D01*
X188821786Y-97850423D01*
X188821784Y-97850422D01*
X188669057Y-97809499D01*
X188510943Y-97809499D01*
X188358216Y-97850422D01*
X188358209Y-97850425D01*
X188221290Y-97929474D01*
X188221282Y-97929480D01*
X188109481Y-98041281D01*
X188109475Y-98041289D01*
X188030426Y-98178208D01*
X188030423Y-98178215D01*
X187989500Y-98330942D01*
X175442500Y-98330942D01*
X175419738Y-98216510D01*
X175419737Y-98216503D01*
X175403875Y-98178208D01*
X175359397Y-98070827D01*
X175359390Y-98070814D01*
X175271789Y-97939711D01*
X175271786Y-97939707D01*
X175160292Y-97828213D01*
X175160288Y-97828210D01*
X175029185Y-97740609D01*
X175029172Y-97740602D01*
X174883501Y-97680264D01*
X174883489Y-97680261D01*
X174728845Y-97649500D01*
X174728842Y-97649500D01*
X174571158Y-97649500D01*
X174571155Y-97649500D01*
X174416510Y-97680261D01*
X174416498Y-97680264D01*
X174270827Y-97740602D01*
X174270814Y-97740609D01*
X174139711Y-97828210D01*
X174139707Y-97828213D01*
X174028213Y-97939707D01*
X174028210Y-97939711D01*
X173940609Y-98070814D01*
X173940602Y-98070827D01*
X173880264Y-98216498D01*
X173880261Y-98216510D01*
X173849500Y-98371153D01*
X122870500Y-98371153D01*
X122870500Y-97503395D01*
X154239499Y-97503395D01*
X154266418Y-97638722D01*
X154266421Y-97638732D01*
X154319221Y-97766204D01*
X154319228Y-97766217D01*
X154395885Y-97880941D01*
X154395888Y-97880945D01*
X154493454Y-97978511D01*
X154493458Y-97978514D01*
X154608182Y-98055171D01*
X154608195Y-98055178D01*
X154735667Y-98107978D01*
X154735672Y-98107980D01*
X154735676Y-98107980D01*
X154735677Y-98107981D01*
X154871004Y-98134900D01*
X154871007Y-98134900D01*
X155008995Y-98134900D01*
X155100041Y-98116789D01*
X155144328Y-98107980D01*
X155271811Y-98055175D01*
X155386542Y-97978514D01*
X155484114Y-97880942D01*
X155560775Y-97766211D01*
X155613580Y-97638728D01*
X155640500Y-97503393D01*
X155640500Y-97365407D01*
X155640500Y-97365404D01*
X155613581Y-97230077D01*
X155613580Y-97230076D01*
X155613580Y-97230072D01*
X155569901Y-97124620D01*
X155560778Y-97102595D01*
X155560771Y-97102582D01*
X155484114Y-96987858D01*
X155484111Y-96987854D01*
X155386545Y-96890288D01*
X155386541Y-96890285D01*
X155271817Y-96813628D01*
X155271804Y-96813621D01*
X155144332Y-96760821D01*
X155144322Y-96760818D01*
X155008995Y-96733900D01*
X155008993Y-96733900D01*
X154871007Y-96733900D01*
X154871005Y-96733900D01*
X154735677Y-96760818D01*
X154735667Y-96760821D01*
X154608195Y-96813621D01*
X154608182Y-96813628D01*
X154493458Y-96890285D01*
X154493454Y-96890288D01*
X154395888Y-96987854D01*
X154395885Y-96987858D01*
X154319228Y-97102582D01*
X154319221Y-97102595D01*
X154266421Y-97230067D01*
X154266418Y-97230077D01*
X154239500Y-97365404D01*
X154239500Y-97365407D01*
X154239500Y-97503393D01*
X154239500Y-97503395D01*
X154239499Y-97503395D01*
X122870500Y-97503395D01*
X122870500Y-95720000D01*
X161272769Y-95720000D01*
X162166988Y-95720000D01*
X162134075Y-95777007D01*
X162100000Y-95904174D01*
X162100000Y-96035826D01*
X162134075Y-96162993D01*
X162166988Y-96220000D01*
X161272769Y-96220000D01*
X161283242Y-96286126D01*
X161283242Y-96286129D01*
X161348904Y-96488217D01*
X161445379Y-96677557D01*
X161570272Y-96849459D01*
X161570276Y-96849464D01*
X161720535Y-96999723D01*
X161720540Y-96999727D01*
X161892442Y-97124620D01*
X162081782Y-97221095D01*
X162283871Y-97286757D01*
X162350000Y-97297231D01*
X162350000Y-96403012D01*
X162407007Y-96435925D01*
X162534174Y-96470000D01*
X162665826Y-96470000D01*
X162792993Y-96435925D01*
X162850000Y-96403012D01*
X162850000Y-97297230D01*
X162916126Y-97286757D01*
X162916129Y-97286757D01*
X163118217Y-97221095D01*
X163307557Y-97124620D01*
X163479459Y-96999727D01*
X163479464Y-96999723D01*
X163629723Y-96849464D01*
X163629727Y-96849459D01*
X163754620Y-96677557D01*
X163851095Y-96488217D01*
X163908343Y-96312025D01*
X163947780Y-96254350D01*
X164012139Y-96227151D01*
X164080985Y-96239065D01*
X164132461Y-96286309D01*
X164140835Y-96302890D01*
X164209058Y-96467596D01*
X164324025Y-96639657D01*
X164470343Y-96785975D01*
X164470346Y-96785977D01*
X164642403Y-96900941D01*
X164833581Y-96980130D01*
X164978053Y-97008867D01*
X165036531Y-97020499D01*
X165036535Y-97020500D01*
X165036536Y-97020500D01*
X165243467Y-97020500D01*
X165243468Y-97020499D01*
X165446421Y-96980130D01*
X165637599Y-96900941D01*
X165809656Y-96785977D01*
X165955978Y-96639655D01*
X166070942Y-96467598D01*
X166150131Y-96276420D01*
X166190501Y-96073465D01*
X166190501Y-95866535D01*
X166190500Y-95866530D01*
X166629500Y-95866530D01*
X166629500Y-96073469D01*
X166669868Y-96276412D01*
X166669870Y-96276420D01*
X166749058Y-96467596D01*
X166864024Y-96639657D01*
X167010342Y-96785975D01*
X167010345Y-96785977D01*
X167182402Y-96900941D01*
X167373580Y-96980130D01*
X167518052Y-97008867D01*
X167576530Y-97020499D01*
X167576534Y-97020500D01*
X167576535Y-97020500D01*
X167783466Y-97020500D01*
X167783467Y-97020499D01*
X167986420Y-96980130D01*
X168177598Y-96900941D01*
X168349655Y-96785977D01*
X168495977Y-96639655D01*
X168610941Y-96467598D01*
X168690130Y-96276420D01*
X168730500Y-96073465D01*
X168730500Y-95866535D01*
X168690130Y-95663580D01*
X168610941Y-95472402D01*
X168495977Y-95300345D01*
X168495975Y-95300342D01*
X168349657Y-95154024D01*
X168269173Y-95100247D01*
X169169500Y-95100247D01*
X169169500Y-96839752D01*
X169181131Y-96898229D01*
X169181132Y-96898230D01*
X169225447Y-96964552D01*
X169291769Y-97008867D01*
X169291770Y-97008868D01*
X169350247Y-97020499D01*
X169350250Y-97020500D01*
X169350252Y-97020500D01*
X171089750Y-97020500D01*
X171089751Y-97020499D01*
X171104568Y-97017552D01*
X171148229Y-97008868D01*
X171148229Y-97008867D01*
X171148231Y-97008867D01*
X171214552Y-96964552D01*
X171258867Y-96898231D01*
X171258867Y-96898229D01*
X171258868Y-96898229D01*
X171270499Y-96839752D01*
X171270500Y-96839750D01*
X171270500Y-95100249D01*
X171270499Y-95100247D01*
X171258868Y-95041770D01*
X171258867Y-95041769D01*
X171214552Y-94975447D01*
X171148230Y-94931132D01*
X171148229Y-94931131D01*
X171089752Y-94919500D01*
X171089748Y-94919500D01*
X169350252Y-94919500D01*
X169350247Y-94919500D01*
X169291770Y-94931131D01*
X169291769Y-94931132D01*
X169225447Y-94975447D01*
X169181132Y-95041769D01*
X169181131Y-95041770D01*
X169169500Y-95100247D01*
X168269173Y-95100247D01*
X168181655Y-95041770D01*
X168177598Y-95039059D01*
X167986420Y-94959870D01*
X167986412Y-94959868D01*
X167783469Y-94919500D01*
X167783465Y-94919500D01*
X167576535Y-94919500D01*
X167576530Y-94919500D01*
X167373587Y-94959868D01*
X167373579Y-94959870D01*
X167182403Y-95039058D01*
X167010342Y-95154024D01*
X166864024Y-95300342D01*
X166749058Y-95472403D01*
X166669870Y-95663579D01*
X166669868Y-95663587D01*
X166629500Y-95866530D01*
X166190500Y-95866530D01*
X166150131Y-95663580D01*
X166070942Y-95472402D01*
X165955978Y-95300345D01*
X165955976Y-95300342D01*
X165809658Y-95154024D01*
X165641656Y-95041770D01*
X165637599Y-95039059D01*
X165446421Y-94959870D01*
X165446413Y-94959868D01*
X165243470Y-94919500D01*
X165243466Y-94919500D01*
X165036536Y-94919500D01*
X165036531Y-94919500D01*
X164833588Y-94959868D01*
X164833580Y-94959870D01*
X164642404Y-95039058D01*
X164470343Y-95154024D01*
X164324025Y-95300342D01*
X164209058Y-95472404D01*
X164140835Y-95637109D01*
X164096994Y-95691513D01*
X164030699Y-95713577D01*
X163963000Y-95696297D01*
X163915390Y-95645160D01*
X163908343Y-95627974D01*
X163851095Y-95451782D01*
X163754620Y-95262442D01*
X163629727Y-95090540D01*
X163629723Y-95090535D01*
X163479464Y-94940276D01*
X163479459Y-94940272D01*
X163307557Y-94815379D01*
X163118215Y-94718903D01*
X162916124Y-94653241D01*
X162850000Y-94642768D01*
X162850000Y-95536988D01*
X162792993Y-95504075D01*
X162665826Y-95470000D01*
X162534174Y-95470000D01*
X162407007Y-95504075D01*
X162350000Y-95536988D01*
X162350000Y-94642768D01*
X162349999Y-94642768D01*
X162283875Y-94653241D01*
X162081784Y-94718903D01*
X161892442Y-94815379D01*
X161720540Y-94940272D01*
X161720535Y-94940276D01*
X161570276Y-95090535D01*
X161570272Y-95090540D01*
X161445379Y-95262442D01*
X161348904Y-95451782D01*
X161283242Y-95653870D01*
X161283242Y-95653873D01*
X161272769Y-95720000D01*
X122870500Y-95720000D01*
X122870500Y-94413172D01*
X143401090Y-94413172D01*
X143428009Y-94548499D01*
X143428012Y-94548509D01*
X143480812Y-94675981D01*
X143480819Y-94675994D01*
X143557476Y-94790718D01*
X143557479Y-94790722D01*
X143655045Y-94888288D01*
X143655049Y-94888291D01*
X143769773Y-94964948D01*
X143769786Y-94964955D01*
X143897258Y-95017755D01*
X143897263Y-95017757D01*
X143897267Y-95017757D01*
X143897268Y-95017758D01*
X144032595Y-95044677D01*
X144032598Y-95044677D01*
X144170586Y-95044677D01*
X144261632Y-95026566D01*
X144305919Y-95017757D01*
X144433402Y-94964952D01*
X144548133Y-94888291D01*
X144645705Y-94790719D01*
X144722366Y-94675988D01*
X144775171Y-94548505D01*
X144802091Y-94413170D01*
X144802091Y-94275184D01*
X144802091Y-94275181D01*
X144775172Y-94139854D01*
X144775171Y-94139853D01*
X144775171Y-94139849D01*
X144756980Y-94095931D01*
X144722369Y-94012372D01*
X144722362Y-94012359D01*
X144645705Y-93897635D01*
X144645702Y-93897631D01*
X144548136Y-93800065D01*
X144548132Y-93800062D01*
X144433408Y-93723405D01*
X144433395Y-93723398D01*
X144305923Y-93670598D01*
X144305913Y-93670595D01*
X144170586Y-93643677D01*
X144170584Y-93643677D01*
X144032598Y-93643677D01*
X144032596Y-93643677D01*
X143897268Y-93670595D01*
X143897258Y-93670598D01*
X143769786Y-93723398D01*
X143769773Y-93723405D01*
X143655049Y-93800062D01*
X143655045Y-93800065D01*
X143557479Y-93897631D01*
X143557476Y-93897635D01*
X143480819Y-94012359D01*
X143480812Y-94012372D01*
X143428012Y-94139844D01*
X143428009Y-94139854D01*
X143401091Y-94275181D01*
X143401091Y-94275184D01*
X143401091Y-94413170D01*
X143401091Y-94413172D01*
X143401090Y-94413172D01*
X122870500Y-94413172D01*
X122870500Y-91474071D01*
X154509499Y-91474071D01*
X154534497Y-91599738D01*
X154534499Y-91599744D01*
X154583533Y-91718124D01*
X154583538Y-91718133D01*
X154654723Y-91824668D01*
X154654726Y-91824672D01*
X154745327Y-91915273D01*
X154745331Y-91915276D01*
X154851866Y-91986461D01*
X154851872Y-91986464D01*
X154851873Y-91986465D01*
X154970256Y-92035501D01*
X154970260Y-92035501D01*
X154970261Y-92035502D01*
X155095928Y-92060500D01*
X155215500Y-92060500D01*
X155282539Y-92080185D01*
X155328294Y-92132989D01*
X155339500Y-92184500D01*
X155339500Y-92224069D01*
X155339500Y-92224071D01*
X155339499Y-92224071D01*
X155364497Y-92349738D01*
X155364499Y-92349744D01*
X155413533Y-92468124D01*
X155413538Y-92468133D01*
X155484723Y-92574668D01*
X155484726Y-92574672D01*
X155575327Y-92665273D01*
X155575331Y-92665276D01*
X155681866Y-92736461D01*
X155681872Y-92736464D01*
X155681873Y-92736465D01*
X155800256Y-92785501D01*
X155914390Y-92808204D01*
X155976301Y-92840589D01*
X156010875Y-92901304D01*
X156011816Y-92954013D01*
X155999500Y-93015928D01*
X155999500Y-93015931D01*
X155999500Y-93144069D01*
X155999500Y-93144071D01*
X155999499Y-93144071D01*
X156024497Y-93269738D01*
X156024499Y-93269744D01*
X156075866Y-93393755D01*
X156074220Y-93394436D01*
X156086744Y-93454606D01*
X156061740Y-93519848D01*
X156010598Y-93559210D01*
X155951872Y-93583535D01*
X155951866Y-93583538D01*
X155845331Y-93654723D01*
X155845327Y-93654726D01*
X155754726Y-93745327D01*
X155754723Y-93745331D01*
X155683538Y-93851866D01*
X155683533Y-93851875D01*
X155634499Y-93970255D01*
X155634497Y-93970261D01*
X155609500Y-94095928D01*
X155609500Y-94109214D01*
X155589815Y-94176253D01*
X155537011Y-94222008D01*
X155467853Y-94231952D01*
X155461308Y-94230831D01*
X155354071Y-94209500D01*
X155354069Y-94209500D01*
X155225931Y-94209500D01*
X155225929Y-94209500D01*
X155100261Y-94234497D01*
X155100255Y-94234499D01*
X154981875Y-94283533D01*
X154981866Y-94283538D01*
X154875331Y-94354723D01*
X154875327Y-94354726D01*
X154784726Y-94445327D01*
X154784723Y-94445331D01*
X154713538Y-94551866D01*
X154713533Y-94551875D01*
X154664499Y-94670255D01*
X154664497Y-94670261D01*
X154639500Y-94795928D01*
X154639500Y-94795931D01*
X154639500Y-94924069D01*
X154639500Y-94924071D01*
X154639499Y-94924071D01*
X154664497Y-95049738D01*
X154664499Y-95049744D01*
X154713533Y-95168124D01*
X154713538Y-95168133D01*
X154784723Y-95274668D01*
X154784726Y-95274672D01*
X154875327Y-95365273D01*
X154875331Y-95365276D01*
X154981866Y-95436461D01*
X154981872Y-95436464D01*
X154981873Y-95436465D01*
X155100256Y-95485501D01*
X155100260Y-95485501D01*
X155100261Y-95485502D01*
X155225928Y-95510500D01*
X155225931Y-95510500D01*
X155354071Y-95510500D01*
X155438615Y-95493682D01*
X155479744Y-95485501D01*
X155598127Y-95436465D01*
X155704669Y-95365276D01*
X155795276Y-95274669D01*
X155866465Y-95168127D01*
X155915501Y-95049744D01*
X155932368Y-94964952D01*
X155940500Y-94924071D01*
X155940500Y-94910785D01*
X155960185Y-94843746D01*
X156012989Y-94797991D01*
X156082147Y-94788047D01*
X156088676Y-94789165D01*
X156162970Y-94803943D01*
X156195930Y-94810500D01*
X156195931Y-94810500D01*
X156324071Y-94810500D01*
X156431309Y-94789168D01*
X156449744Y-94785501D01*
X156568127Y-94736465D01*
X156674669Y-94665276D01*
X156765276Y-94574669D01*
X156836465Y-94468127D01*
X156885501Y-94349744D01*
X156900333Y-94275181D01*
X156910500Y-94224071D01*
X156910500Y-94095928D01*
X156885502Y-93970261D01*
X156885501Y-93970260D01*
X156885501Y-93970256D01*
X156836465Y-93851873D01*
X156834134Y-93846245D01*
X156835782Y-93845562D01*
X156823254Y-93785406D01*
X156848251Y-93720161D01*
X156899401Y-93680790D01*
X156958127Y-93656465D01*
X157064669Y-93585276D01*
X157155276Y-93494669D01*
X157226465Y-93388127D01*
X157275501Y-93269744D01*
X157285574Y-93219107D01*
X157300500Y-93144071D01*
X157300500Y-93015928D01*
X157275502Y-92890261D01*
X157275501Y-92890260D01*
X157275501Y-92890256D01*
X157226465Y-92771873D01*
X157226464Y-92771872D01*
X157226461Y-92771866D01*
X157155276Y-92665331D01*
X157155273Y-92665327D01*
X157064672Y-92574726D01*
X157064668Y-92574723D01*
X156958133Y-92503538D01*
X156958124Y-92503533D01*
X156839744Y-92454499D01*
X156839738Y-92454497D01*
X156725609Y-92431795D01*
X156725333Y-92431650D01*
X156725022Y-92431677D01*
X156694389Y-92415464D01*
X156663698Y-92399410D01*
X156663543Y-92399138D01*
X156663268Y-92398993D01*
X156646279Y-92368821D01*
X156629124Y-92338694D01*
X156629088Y-92338290D01*
X156628988Y-92338111D01*
X156628969Y-92336920D01*
X156626012Y-92302942D01*
X156626511Y-92294390D01*
X156640500Y-92224069D01*
X156640500Y-92095931D01*
X156615501Y-91970256D01*
X156566465Y-91851873D01*
X156566464Y-91851872D01*
X156566461Y-91851866D01*
X156495276Y-91745331D01*
X156495273Y-91745327D01*
X156404672Y-91654726D01*
X156404668Y-91654723D01*
X156298133Y-91583538D01*
X156298124Y-91583533D01*
X156179744Y-91534499D01*
X156179738Y-91534497D01*
X156054071Y-91509500D01*
X156054069Y-91509500D01*
X155934500Y-91509500D01*
X155933914Y-91509327D01*
X155933328Y-91509494D01*
X155900448Y-91499501D01*
X155867461Y-91489815D01*
X155867061Y-91489354D01*
X155866478Y-91489177D01*
X155844194Y-91462964D01*
X155821706Y-91437011D01*
X155821487Y-91436252D01*
X155821224Y-91435943D01*
X155820737Y-91433652D01*
X155811601Y-91401987D01*
X155810500Y-91393779D01*
X155810500Y-91345931D01*
X155787363Y-91229615D01*
X176678899Y-91229615D01*
X176678899Y-91629602D01*
X177745887Y-91629602D01*
X177712974Y-91686609D01*
X177678899Y-91813776D01*
X177678899Y-91945428D01*
X177712974Y-92072595D01*
X177745887Y-92129602D01*
X176678900Y-92129602D01*
X176678900Y-92529588D01*
X176689393Y-92632299D01*
X176744540Y-92798721D01*
X176744542Y-92798726D01*
X176836583Y-92947947D01*
X176960553Y-93071917D01*
X177109774Y-93163958D01*
X177109779Y-93163960D01*
X177276201Y-93219107D01*
X177276208Y-93219108D01*
X177378918Y-93229601D01*
X177450370Y-93229601D01*
X177517410Y-93249285D01*
X177563166Y-93302088D01*
X177573110Y-93371246D01*
X177544086Y-93434802D01*
X177519263Y-93456703D01*
X177359244Y-93563624D01*
X177359240Y-93563627D01*
X177212923Y-93709944D01*
X177097957Y-93882005D01*
X177018769Y-94073181D01*
X177018767Y-94073189D01*
X176978399Y-94276132D01*
X176978399Y-94483071D01*
X177018767Y-94686014D01*
X177018769Y-94686022D01*
X177097957Y-94877198D01*
X177212923Y-95049259D01*
X177359241Y-95195577D01*
X177359244Y-95195579D01*
X177531301Y-95310543D01*
X177722479Y-95389732D01*
X177925429Y-95430101D01*
X177925433Y-95430102D01*
X177925434Y-95430102D01*
X178432365Y-95430102D01*
X178432366Y-95430101D01*
X178635319Y-95389732D01*
X178826497Y-95310543D01*
X178998554Y-95195579D01*
X179144876Y-95049257D01*
X179259840Y-94877200D01*
X179339029Y-94686022D01*
X179379399Y-94483067D01*
X179379399Y-94276137D01*
X179339029Y-94073182D01*
X179259840Y-93882004D01*
X179144876Y-93709947D01*
X179144874Y-93709944D01*
X178998556Y-93563626D01*
X178953517Y-93533532D01*
X178838531Y-93456702D01*
X178793728Y-93403092D01*
X178785020Y-93333767D01*
X178815174Y-93270739D01*
X178874617Y-93234019D01*
X178907423Y-93229601D01*
X178978870Y-93229601D01*
X178978886Y-93229600D01*
X179081596Y-93219107D01*
X179248018Y-93163960D01*
X179248023Y-93163958D01*
X179397244Y-93071917D01*
X179521214Y-92947947D01*
X179613255Y-92798726D01*
X179613257Y-92798721D01*
X179668404Y-92632299D01*
X179668405Y-92632292D01*
X179678898Y-92529588D01*
X179678899Y-92529575D01*
X179678899Y-92129602D01*
X178611911Y-92129602D01*
X178644824Y-92072595D01*
X178678899Y-91945428D01*
X178678899Y-91813776D01*
X178644824Y-91686609D01*
X178611911Y-91629602D01*
X179678898Y-91629602D01*
X179678898Y-91229630D01*
X179678897Y-91229615D01*
X179668404Y-91126904D01*
X179613257Y-90960482D01*
X179613255Y-90960477D01*
X179521214Y-90811256D01*
X179397244Y-90687286D01*
X179248023Y-90595245D01*
X179248018Y-90595243D01*
X179081596Y-90540096D01*
X179081589Y-90540095D01*
X178978885Y-90529602D01*
X178428899Y-90529602D01*
X178428899Y-91446590D01*
X178371892Y-91413677D01*
X178244725Y-91379602D01*
X178113073Y-91379602D01*
X177985906Y-91413677D01*
X177928899Y-91446590D01*
X177928899Y-90529602D01*
X177378927Y-90529602D01*
X177378911Y-90529603D01*
X177276201Y-90540096D01*
X177109779Y-90595243D01*
X177109774Y-90595245D01*
X176960553Y-90687286D01*
X176836583Y-90811256D01*
X176744542Y-90960477D01*
X176744540Y-90960482D01*
X176689393Y-91126904D01*
X176689392Y-91126911D01*
X176678899Y-91229615D01*
X155787363Y-91229615D01*
X155785501Y-91220256D01*
X155736465Y-91101873D01*
X155736464Y-91101872D01*
X155736461Y-91101866D01*
X155665276Y-90995331D01*
X155665273Y-90995327D01*
X155574672Y-90904726D01*
X155574668Y-90904723D01*
X155468133Y-90833538D01*
X155468124Y-90833533D01*
X155349744Y-90784499D01*
X155349738Y-90784497D01*
X155224071Y-90759500D01*
X155224069Y-90759500D01*
X155095931Y-90759500D01*
X155095929Y-90759500D01*
X154970261Y-90784497D01*
X154970255Y-90784499D01*
X154851875Y-90833533D01*
X154851866Y-90833538D01*
X154745331Y-90904723D01*
X154745327Y-90904726D01*
X154654726Y-90995327D01*
X154654723Y-90995331D01*
X154583538Y-91101866D01*
X154583533Y-91101875D01*
X154534499Y-91220255D01*
X154534497Y-91220261D01*
X154509500Y-91345928D01*
X154509500Y-91345931D01*
X154509500Y-91474069D01*
X154509500Y-91474071D01*
X154509499Y-91474071D01*
X122870500Y-91474071D01*
X122870500Y-88541947D01*
X161490000Y-88541947D01*
X161490000Y-88778052D01*
X161526934Y-89011247D01*
X161599897Y-89235802D01*
X161707087Y-89446174D01*
X161767338Y-89529104D01*
X161767340Y-89529105D01*
X162507037Y-88789408D01*
X162524075Y-88852993D01*
X162589901Y-88967007D01*
X162682993Y-89060099D01*
X162797007Y-89125925D01*
X162860590Y-89142962D01*
X162120893Y-89882658D01*
X162203828Y-89942914D01*
X162414197Y-90050102D01*
X162638752Y-90123065D01*
X162638751Y-90123065D01*
X162871948Y-90160000D01*
X163108052Y-90160000D01*
X163341247Y-90123065D01*
X163565802Y-90050102D01*
X163776163Y-89942918D01*
X163776169Y-89942914D01*
X163859104Y-89882658D01*
X163859105Y-89882658D01*
X163119408Y-89142962D01*
X163182993Y-89125925D01*
X163297007Y-89060099D01*
X163390099Y-88967007D01*
X163455925Y-88852993D01*
X163472962Y-88789408D01*
X164212658Y-89529105D01*
X164212658Y-89529104D01*
X164272914Y-89446169D01*
X164272918Y-89446163D01*
X164380102Y-89235802D01*
X164453065Y-89011247D01*
X164490000Y-88778052D01*
X164490000Y-88565513D01*
X166289500Y-88565513D01*
X166289500Y-88754486D01*
X166319059Y-88941118D01*
X166377454Y-89120836D01*
X166436033Y-89235802D01*
X166463240Y-89289199D01*
X166574310Y-89442073D01*
X166707927Y-89575690D01*
X166860801Y-89686760D01*
X166940347Y-89727290D01*
X167029163Y-89772545D01*
X167029165Y-89772545D01*
X167029168Y-89772547D01*
X167125497Y-89803846D01*
X167208881Y-89830940D01*
X167395514Y-89860500D01*
X167395519Y-89860500D01*
X167584486Y-89860500D01*
X167771118Y-89830940D01*
X167950832Y-89772547D01*
X168119199Y-89686760D01*
X168272073Y-89575690D01*
X168405690Y-89442073D01*
X168516760Y-89289199D01*
X168602547Y-89120832D01*
X168660940Y-88941118D01*
X168690500Y-88754486D01*
X168690500Y-88565513D01*
X168660940Y-88378881D01*
X168602545Y-88199163D01*
X168557290Y-88110347D01*
X168516760Y-88030801D01*
X168405690Y-87877927D01*
X168272073Y-87744310D01*
X168119199Y-87633240D01*
X168091840Y-87619300D01*
X167950836Y-87547454D01*
X167771118Y-87489059D01*
X167584486Y-87459500D01*
X167584481Y-87459500D01*
X167395519Y-87459500D01*
X167395514Y-87459500D01*
X167208881Y-87489059D01*
X167029163Y-87547454D01*
X166860800Y-87633240D01*
X166773579Y-87696610D01*
X166707927Y-87744310D01*
X166707925Y-87744312D01*
X166707924Y-87744312D01*
X166574312Y-87877924D01*
X166574312Y-87877925D01*
X166574310Y-87877927D01*
X166526610Y-87943579D01*
X166463240Y-88030800D01*
X166377454Y-88199163D01*
X166319059Y-88378881D01*
X166289500Y-88565513D01*
X164490000Y-88565513D01*
X164490000Y-88541947D01*
X164453065Y-88308752D01*
X164380102Y-88084197D01*
X164272914Y-87873828D01*
X164212658Y-87790894D01*
X164212658Y-87790893D01*
X163472962Y-88530590D01*
X163455925Y-88467007D01*
X163390099Y-88352993D01*
X163297007Y-88259901D01*
X163182993Y-88194075D01*
X163119409Y-88177037D01*
X163859105Y-87437340D01*
X163859104Y-87437338D01*
X163776174Y-87377087D01*
X163565802Y-87269897D01*
X163341247Y-87196934D01*
X163341248Y-87196934D01*
X163108052Y-87160000D01*
X162871948Y-87160000D01*
X162638752Y-87196934D01*
X162414197Y-87269897D01*
X162203830Y-87377084D01*
X162120894Y-87437340D01*
X162860591Y-88177037D01*
X162797007Y-88194075D01*
X162682993Y-88259901D01*
X162589901Y-88352993D01*
X162524075Y-88467007D01*
X162507037Y-88530591D01*
X161767340Y-87790894D01*
X161707084Y-87873830D01*
X161599897Y-88084197D01*
X161526934Y-88308752D01*
X161490000Y-88541947D01*
X122870500Y-88541947D01*
X122870500Y-86480944D01*
X127259500Y-86480944D01*
X127259500Y-86639058D01*
X127279709Y-86714477D01*
X127300423Y-86791784D01*
X127300426Y-86791791D01*
X127379475Y-86928710D01*
X127379479Y-86928715D01*
X127379480Y-86928717D01*
X127491284Y-87040521D01*
X127491286Y-87040522D01*
X127491290Y-87040525D01*
X127628209Y-87119574D01*
X127628216Y-87119578D01*
X127780943Y-87160501D01*
X127780945Y-87160501D01*
X127939055Y-87160501D01*
X127939057Y-87160501D01*
X128091784Y-87119578D01*
X128228716Y-87040521D01*
X128281442Y-86987795D01*
X156068299Y-86987795D01*
X156095218Y-87123122D01*
X156095221Y-87123132D01*
X156148021Y-87250604D01*
X156148028Y-87250617D01*
X156224685Y-87365341D01*
X156224688Y-87365345D01*
X156322254Y-87462911D01*
X156322258Y-87462914D01*
X156436982Y-87539571D01*
X156436995Y-87539578D01*
X156564467Y-87592378D01*
X156564472Y-87592380D01*
X156564476Y-87592380D01*
X156564477Y-87592381D01*
X156699804Y-87619300D01*
X156699807Y-87619300D01*
X156837795Y-87619300D01*
X156928841Y-87601189D01*
X156973128Y-87592380D01*
X157100611Y-87539575D01*
X157215342Y-87462914D01*
X157240918Y-87437338D01*
X157281339Y-87396918D01*
X157312911Y-87365345D01*
X157312914Y-87365342D01*
X157389575Y-87250611D01*
X157442380Y-87123128D01*
X157469300Y-86987793D01*
X157469300Y-86849807D01*
X157469300Y-86849804D01*
X157442381Y-86714477D01*
X157442380Y-86714476D01*
X157442380Y-86714472D01*
X157411143Y-86639058D01*
X157389578Y-86586995D01*
X157389571Y-86586982D01*
X157312914Y-86472258D01*
X157312911Y-86472254D01*
X157215345Y-86374688D01*
X157215341Y-86374685D01*
X157100617Y-86298028D01*
X157100604Y-86298021D01*
X156973132Y-86245221D01*
X156973122Y-86245218D01*
X156837795Y-86218300D01*
X156837793Y-86218300D01*
X156699807Y-86218300D01*
X156699805Y-86218300D01*
X156564477Y-86245218D01*
X156564467Y-86245221D01*
X156436995Y-86298021D01*
X156436982Y-86298028D01*
X156322258Y-86374685D01*
X156322254Y-86374688D01*
X156224688Y-86472254D01*
X156224685Y-86472258D01*
X156148028Y-86586982D01*
X156148021Y-86586995D01*
X156095221Y-86714467D01*
X156095218Y-86714477D01*
X156068300Y-86849804D01*
X156068300Y-86849807D01*
X156068300Y-86987793D01*
X156068300Y-86987795D01*
X156068299Y-86987795D01*
X128281442Y-86987795D01*
X128340520Y-86928717D01*
X128419577Y-86791785D01*
X128460500Y-86639058D01*
X128460500Y-86480944D01*
X128419577Y-86328217D01*
X128402146Y-86298025D01*
X128340524Y-86191291D01*
X128340518Y-86191283D01*
X128228717Y-86079482D01*
X128228709Y-86079476D01*
X128091790Y-86000427D01*
X128091786Y-86000425D01*
X128091784Y-86000424D01*
X127939057Y-85959501D01*
X127780943Y-85959501D01*
X127628216Y-86000424D01*
X127628209Y-86000427D01*
X127491290Y-86079476D01*
X127491282Y-86079482D01*
X127379481Y-86191283D01*
X127379475Y-86191291D01*
X127300426Y-86328210D01*
X127300423Y-86328217D01*
X127259500Y-86480944D01*
X122870500Y-86480944D01*
X122870500Y-85362195D01*
X145705099Y-85362195D01*
X145732018Y-85497522D01*
X145732021Y-85497532D01*
X145784821Y-85625004D01*
X145784828Y-85625017D01*
X145861485Y-85739741D01*
X145861488Y-85739745D01*
X145959054Y-85837311D01*
X145959058Y-85837314D01*
X146073782Y-85913971D01*
X146073795Y-85913978D01*
X146183699Y-85959501D01*
X146201272Y-85966780D01*
X146201276Y-85966780D01*
X146201277Y-85966781D01*
X146336604Y-85993700D01*
X146336607Y-85993700D01*
X146474595Y-85993700D01*
X146565641Y-85975589D01*
X146609928Y-85966780D01*
X146737411Y-85913975D01*
X146852142Y-85837314D01*
X146949714Y-85739742D01*
X147026375Y-85625011D01*
X147079180Y-85497528D01*
X147106100Y-85362193D01*
X147106100Y-85224207D01*
X147106100Y-85224204D01*
X147079181Y-85088877D01*
X147079180Y-85088876D01*
X147079180Y-85088872D01*
X147079178Y-85088867D01*
X147026378Y-84961395D01*
X147026371Y-84961382D01*
X146949714Y-84846658D01*
X146949711Y-84846654D01*
X146852145Y-84749088D01*
X146852141Y-84749085D01*
X146737417Y-84672428D01*
X146737404Y-84672421D01*
X146609932Y-84619621D01*
X146609922Y-84619618D01*
X146474595Y-84592700D01*
X146474593Y-84592700D01*
X146336607Y-84592700D01*
X146336605Y-84592700D01*
X146201277Y-84619618D01*
X146201267Y-84619621D01*
X146073795Y-84672421D01*
X146073782Y-84672428D01*
X145959058Y-84749085D01*
X145959054Y-84749088D01*
X145861488Y-84846654D01*
X145861485Y-84846658D01*
X145784828Y-84961382D01*
X145784821Y-84961395D01*
X145732021Y-85088867D01*
X145732018Y-85088877D01*
X145705100Y-85224204D01*
X145705100Y-85224207D01*
X145705100Y-85362193D01*
X145705100Y-85362195D01*
X145705099Y-85362195D01*
X122870500Y-85362195D01*
X122870500Y-81760000D01*
X161309165Y-81760000D01*
X162203384Y-81760000D01*
X162170471Y-81817007D01*
X162136396Y-81944174D01*
X162136396Y-82075826D01*
X162170471Y-82202993D01*
X162203384Y-82260000D01*
X161309165Y-82260000D01*
X161319638Y-82326126D01*
X161319638Y-82326129D01*
X161385300Y-82528217D01*
X161481775Y-82717557D01*
X161606668Y-82889459D01*
X161606672Y-82889464D01*
X161756931Y-83039723D01*
X161756936Y-83039727D01*
X161928838Y-83164620D01*
X162118178Y-83261095D01*
X162320267Y-83326757D01*
X162386396Y-83337231D01*
X162386396Y-82443012D01*
X162443403Y-82475925D01*
X162570570Y-82510000D01*
X162702222Y-82510000D01*
X162829389Y-82475925D01*
X162886396Y-82443012D01*
X162886396Y-83337231D01*
X162952522Y-83326757D01*
X162952525Y-83326757D01*
X163154613Y-83261095D01*
X163343953Y-83164620D01*
X163515855Y-83039727D01*
X163515860Y-83039723D01*
X163666119Y-82889464D01*
X163666123Y-82889459D01*
X163791016Y-82717557D01*
X163887491Y-82528217D01*
X163944739Y-82352026D01*
X163984176Y-82294351D01*
X164048535Y-82267152D01*
X164117381Y-82279066D01*
X164168857Y-82326310D01*
X164177231Y-82342891D01*
X164245454Y-82507596D01*
X164360420Y-82679657D01*
X164506738Y-82825975D01*
X164506741Y-82825977D01*
X164678798Y-82940941D01*
X164869976Y-83020130D01*
X165014448Y-83048867D01*
X165072926Y-83060499D01*
X165072930Y-83060500D01*
X165072931Y-83060500D01*
X165279862Y-83060500D01*
X165279863Y-83060499D01*
X165482816Y-83020130D01*
X165673994Y-82940941D01*
X165846051Y-82825977D01*
X165992373Y-82679655D01*
X166107337Y-82507598D01*
X166186526Y-82316420D01*
X166226896Y-82113465D01*
X166226896Y-81906535D01*
X166226895Y-81906530D01*
X166665896Y-81906530D01*
X166665896Y-82113469D01*
X166706264Y-82316412D01*
X166706266Y-82316420D01*
X166785454Y-82507596D01*
X166900420Y-82679657D01*
X167046738Y-82825975D01*
X167046741Y-82825977D01*
X167218798Y-82940941D01*
X167409976Y-83020130D01*
X167554448Y-83048867D01*
X167612926Y-83060499D01*
X167612930Y-83060500D01*
X167612931Y-83060500D01*
X167819862Y-83060500D01*
X167819863Y-83060499D01*
X168022816Y-83020130D01*
X168213994Y-82940941D01*
X168386051Y-82825977D01*
X168532373Y-82679655D01*
X168647337Y-82507598D01*
X168726526Y-82316420D01*
X168766896Y-82113465D01*
X168766896Y-81906535D01*
X168726526Y-81703580D01*
X168647337Y-81512402D01*
X168532373Y-81340345D01*
X168532371Y-81340342D01*
X168386053Y-81194024D01*
X168305569Y-81140247D01*
X169205896Y-81140247D01*
X169205896Y-82879752D01*
X169217527Y-82938229D01*
X169217528Y-82938230D01*
X169261843Y-83004552D01*
X169328165Y-83048867D01*
X169328166Y-83048868D01*
X169386643Y-83060499D01*
X169386646Y-83060500D01*
X169386648Y-83060500D01*
X171126146Y-83060500D01*
X171126147Y-83060499D01*
X171140964Y-83057552D01*
X171184625Y-83048868D01*
X171184625Y-83048867D01*
X171184627Y-83048867D01*
X171250948Y-83004552D01*
X171295263Y-82938231D01*
X171295263Y-82938229D01*
X171295264Y-82938229D01*
X171306895Y-82879752D01*
X171306896Y-82879750D01*
X171306896Y-82798543D01*
X175499499Y-82798543D01*
X175537947Y-82991829D01*
X175537950Y-82991839D01*
X175613364Y-83173907D01*
X175613371Y-83173920D01*
X175722860Y-83337781D01*
X175722863Y-83337785D01*
X175862214Y-83477136D01*
X175862218Y-83477139D01*
X176026079Y-83586628D01*
X176026092Y-83586635D01*
X176208160Y-83662049D01*
X176208165Y-83662051D01*
X176208169Y-83662051D01*
X176208170Y-83662052D01*
X176401456Y-83700500D01*
X176401459Y-83700500D01*
X176598543Y-83700500D01*
X176728582Y-83674632D01*
X176791835Y-83662051D01*
X176973914Y-83586632D01*
X177137782Y-83477139D01*
X177277139Y-83337782D01*
X177386632Y-83173914D01*
X177462051Y-82991835D01*
X177500500Y-82798543D01*
X177899499Y-82798543D01*
X177937947Y-82991829D01*
X177937950Y-82991839D01*
X178013364Y-83173907D01*
X178013371Y-83173920D01*
X178122860Y-83337781D01*
X178122863Y-83337785D01*
X178262214Y-83477136D01*
X178262218Y-83477139D01*
X178426079Y-83586628D01*
X178426092Y-83586635D01*
X178608160Y-83662049D01*
X178608165Y-83662051D01*
X178608169Y-83662051D01*
X178608170Y-83662052D01*
X178801456Y-83700500D01*
X178801459Y-83700500D01*
X178998543Y-83700500D01*
X179128582Y-83674632D01*
X179191835Y-83662051D01*
X179373914Y-83586632D01*
X179537782Y-83477139D01*
X179677139Y-83337782D01*
X179786632Y-83173914D01*
X179862051Y-82991835D01*
X179900500Y-82798543D01*
X180399499Y-82798543D01*
X180437947Y-82991829D01*
X180437950Y-82991839D01*
X180513364Y-83173907D01*
X180513371Y-83173920D01*
X180622860Y-83337781D01*
X180622863Y-83337785D01*
X180762214Y-83477136D01*
X180762218Y-83477139D01*
X180926079Y-83586628D01*
X180926092Y-83586635D01*
X181108160Y-83662049D01*
X181108165Y-83662051D01*
X181108169Y-83662051D01*
X181108170Y-83662052D01*
X181301456Y-83700500D01*
X181301459Y-83700500D01*
X181498543Y-83700500D01*
X181628582Y-83674632D01*
X181691835Y-83662051D01*
X181873914Y-83586632D01*
X182037782Y-83477139D01*
X182177139Y-83337782D01*
X182286632Y-83173914D01*
X182362051Y-82991835D01*
X182400500Y-82798541D01*
X182400500Y-82601459D01*
X182400500Y-82601456D01*
X182362052Y-82408170D01*
X182362051Y-82408169D01*
X182362051Y-82408165D01*
X182328070Y-82326126D01*
X182286635Y-82226092D01*
X182286628Y-82226079D01*
X182177139Y-82062218D01*
X182177136Y-82062214D01*
X182037785Y-81922863D01*
X182037781Y-81922860D01*
X181873920Y-81813371D01*
X181873907Y-81813364D01*
X181691839Y-81737950D01*
X181691829Y-81737947D01*
X181498543Y-81699500D01*
X181498541Y-81699500D01*
X181301459Y-81699500D01*
X181301457Y-81699500D01*
X181108170Y-81737947D01*
X181108160Y-81737950D01*
X180926092Y-81813364D01*
X180926079Y-81813371D01*
X180762218Y-81922860D01*
X180762214Y-81922863D01*
X180622863Y-82062214D01*
X180622860Y-82062218D01*
X180513371Y-82226079D01*
X180513364Y-82226092D01*
X180437950Y-82408160D01*
X180437947Y-82408170D01*
X180399500Y-82601456D01*
X180399500Y-82601459D01*
X180399500Y-82798541D01*
X180399500Y-82798543D01*
X180399499Y-82798543D01*
X179900500Y-82798543D01*
X179900500Y-82798541D01*
X179900500Y-82601459D01*
X179900500Y-82601456D01*
X179862052Y-82408170D01*
X179862051Y-82408169D01*
X179862051Y-82408165D01*
X179828070Y-82326126D01*
X179786635Y-82226092D01*
X179786628Y-82226079D01*
X179677139Y-82062218D01*
X179677136Y-82062214D01*
X179537785Y-81922863D01*
X179537781Y-81922860D01*
X179373920Y-81813371D01*
X179373907Y-81813364D01*
X179191839Y-81737950D01*
X179191829Y-81737947D01*
X178998543Y-81699500D01*
X178998541Y-81699500D01*
X178801459Y-81699500D01*
X178801457Y-81699500D01*
X178608170Y-81737947D01*
X178608160Y-81737950D01*
X178426092Y-81813364D01*
X178426079Y-81813371D01*
X178262218Y-81922860D01*
X178262214Y-81922863D01*
X178122863Y-82062214D01*
X178122860Y-82062218D01*
X178013371Y-82226079D01*
X178013364Y-82226092D01*
X177937950Y-82408160D01*
X177937947Y-82408170D01*
X177899500Y-82601456D01*
X177899500Y-82601459D01*
X177899500Y-82798541D01*
X177899500Y-82798543D01*
X177899499Y-82798543D01*
X177500500Y-82798543D01*
X177500500Y-82798541D01*
X177500500Y-82601459D01*
X177500500Y-82601456D01*
X177462052Y-82408170D01*
X177462051Y-82408169D01*
X177462051Y-82408165D01*
X177428070Y-82326126D01*
X177386635Y-82226092D01*
X177386628Y-82226079D01*
X177277139Y-82062218D01*
X177277136Y-82062214D01*
X177137785Y-81922863D01*
X177137781Y-81922860D01*
X176973920Y-81813371D01*
X176973907Y-81813364D01*
X176791839Y-81737950D01*
X176791829Y-81737947D01*
X176598543Y-81699500D01*
X176598541Y-81699500D01*
X176401459Y-81699500D01*
X176401457Y-81699500D01*
X176208170Y-81737947D01*
X176208160Y-81737950D01*
X176026092Y-81813364D01*
X176026079Y-81813371D01*
X175862218Y-81922860D01*
X175862214Y-81922863D01*
X175722863Y-82062214D01*
X175722860Y-82062218D01*
X175613371Y-82226079D01*
X175613364Y-82226092D01*
X175537950Y-82408160D01*
X175537947Y-82408170D01*
X175499500Y-82601456D01*
X175499500Y-82601459D01*
X175499500Y-82798541D01*
X175499500Y-82798543D01*
X175499499Y-82798543D01*
X171306896Y-82798543D01*
X171306896Y-81140249D01*
X171306895Y-81140247D01*
X171295264Y-81081770D01*
X171295263Y-81081769D01*
X171250948Y-81015447D01*
X171184626Y-80971132D01*
X171184625Y-80971131D01*
X171126148Y-80959500D01*
X171126144Y-80959500D01*
X169386648Y-80959500D01*
X169386643Y-80959500D01*
X169328166Y-80971131D01*
X169328165Y-80971132D01*
X169261843Y-81015447D01*
X169217528Y-81081769D01*
X169217527Y-81081770D01*
X169205896Y-81140247D01*
X168305569Y-81140247D01*
X168218051Y-81081770D01*
X168213994Y-81079059D01*
X168022816Y-80999870D01*
X168022808Y-80999868D01*
X167819865Y-80959500D01*
X167819861Y-80959500D01*
X167612931Y-80959500D01*
X167612926Y-80959500D01*
X167409983Y-80999868D01*
X167409975Y-80999870D01*
X167218799Y-81079058D01*
X167046738Y-81194024D01*
X166900420Y-81340342D01*
X166785454Y-81512403D01*
X166706266Y-81703579D01*
X166706264Y-81703587D01*
X166665896Y-81906530D01*
X166226895Y-81906530D01*
X166186526Y-81703580D01*
X166107337Y-81512402D01*
X165992373Y-81340345D01*
X165992371Y-81340342D01*
X165846053Y-81194024D01*
X165678051Y-81081770D01*
X165673994Y-81079059D01*
X165482816Y-80999870D01*
X165482808Y-80999868D01*
X165279865Y-80959500D01*
X165279861Y-80959500D01*
X165072931Y-80959500D01*
X165072926Y-80959500D01*
X164869983Y-80999868D01*
X164869975Y-80999870D01*
X164678799Y-81079058D01*
X164506738Y-81194024D01*
X164360420Y-81340342D01*
X164245453Y-81512403D01*
X164177231Y-81677108D01*
X164133390Y-81731511D01*
X164067096Y-81753576D01*
X163999396Y-81736297D01*
X163951786Y-81685159D01*
X163944739Y-81667973D01*
X163887491Y-81491782D01*
X163791016Y-81302442D01*
X163666123Y-81130540D01*
X163666119Y-81130535D01*
X163515860Y-80980276D01*
X163515855Y-80980272D01*
X163343953Y-80855379D01*
X163154611Y-80758903D01*
X162952520Y-80693241D01*
X162886396Y-80682768D01*
X162886396Y-81576988D01*
X162829389Y-81544075D01*
X162702222Y-81510000D01*
X162570570Y-81510000D01*
X162443403Y-81544075D01*
X162386396Y-81576988D01*
X162386396Y-80682768D01*
X162386395Y-80682768D01*
X162320271Y-80693241D01*
X162118180Y-80758903D01*
X161928838Y-80855379D01*
X161756936Y-80980272D01*
X161756931Y-80980276D01*
X161606672Y-81130535D01*
X161606668Y-81130540D01*
X161481775Y-81302442D01*
X161385300Y-81491782D01*
X161319638Y-81693870D01*
X161319638Y-81693873D01*
X161309165Y-81760000D01*
X122870500Y-81760000D01*
X122870500Y-78944071D01*
X136089499Y-78944071D01*
X136114497Y-79069738D01*
X136114499Y-79069744D01*
X136163533Y-79188124D01*
X136163538Y-79188133D01*
X136234723Y-79294668D01*
X136234726Y-79294672D01*
X136325327Y-79385273D01*
X136325331Y-79385276D01*
X136431866Y-79456461D01*
X136431872Y-79456464D01*
X136431873Y-79456465D01*
X136550256Y-79505501D01*
X136550260Y-79505501D01*
X136550261Y-79505502D01*
X136675928Y-79530500D01*
X136675931Y-79530500D01*
X136804071Y-79530500D01*
X136888615Y-79513682D01*
X136929744Y-79505501D01*
X137048127Y-79456465D01*
X137154669Y-79385276D01*
X137245276Y-79294669D01*
X137316465Y-79188127D01*
X137365501Y-79069744D01*
X137390500Y-78944069D01*
X137390500Y-78815931D01*
X137390500Y-78815928D01*
X137365502Y-78690261D01*
X137365501Y-78690260D01*
X137365501Y-78690256D01*
X137316465Y-78571873D01*
X137316464Y-78571872D01*
X137316461Y-78571866D01*
X137245276Y-78465331D01*
X137245273Y-78465327D01*
X137154672Y-78374726D01*
X137154668Y-78374723D01*
X137048133Y-78303538D01*
X137048124Y-78303533D01*
X136929744Y-78254499D01*
X136929738Y-78254497D01*
X136804071Y-78229500D01*
X136804069Y-78229500D01*
X136675931Y-78229500D01*
X136675929Y-78229500D01*
X136550261Y-78254497D01*
X136550255Y-78254499D01*
X136431875Y-78303533D01*
X136431866Y-78303538D01*
X136325331Y-78374723D01*
X136325327Y-78374726D01*
X136234726Y-78465327D01*
X136234723Y-78465331D01*
X136163538Y-78571866D01*
X136163533Y-78571875D01*
X136114499Y-78690255D01*
X136114497Y-78690261D01*
X136089500Y-78815928D01*
X136089500Y-78815931D01*
X136089500Y-78944069D01*
X136089500Y-78944071D01*
X136089499Y-78944071D01*
X122870500Y-78944071D01*
X122870500Y-75861947D01*
X180370000Y-75861947D01*
X180370000Y-76098052D01*
X180406934Y-76331247D01*
X180479897Y-76555802D01*
X180587087Y-76766174D01*
X180647338Y-76849104D01*
X180647340Y-76849105D01*
X181387037Y-76109408D01*
X181404075Y-76172993D01*
X181469901Y-76287007D01*
X181562993Y-76380099D01*
X181677007Y-76445925D01*
X181740590Y-76462962D01*
X181000893Y-77202658D01*
X181083828Y-77262914D01*
X181294197Y-77370102D01*
X181518752Y-77443065D01*
X181518751Y-77443065D01*
X181751948Y-77480000D01*
X181988052Y-77480000D01*
X182221247Y-77443065D01*
X182445802Y-77370102D01*
X182656163Y-77262918D01*
X182656169Y-77262914D01*
X182739104Y-77202658D01*
X182739105Y-77202658D01*
X181999408Y-76462962D01*
X182062993Y-76445925D01*
X182177007Y-76380099D01*
X182270099Y-76287007D01*
X182335925Y-76172993D01*
X182352962Y-76109408D01*
X183092658Y-76849105D01*
X183092658Y-76849104D01*
X183152914Y-76766169D01*
X183152918Y-76766163D01*
X183260102Y-76555802D01*
X183333065Y-76331247D01*
X183370000Y-76098052D01*
X183370000Y-75885513D01*
X185869500Y-75885513D01*
X185869500Y-76074486D01*
X185899059Y-76261118D01*
X185957454Y-76440836D01*
X186016033Y-76555802D01*
X186043240Y-76609199D01*
X186154310Y-76762073D01*
X186287927Y-76895690D01*
X186440801Y-77006760D01*
X186520347Y-77047290D01*
X186609163Y-77092545D01*
X186609165Y-77092545D01*
X186609168Y-77092547D01*
X186705497Y-77123846D01*
X186788881Y-77150940D01*
X186975514Y-77180500D01*
X186975519Y-77180500D01*
X187164486Y-77180500D01*
X187351118Y-77150940D01*
X187530832Y-77092547D01*
X187699199Y-77006760D01*
X187852073Y-76895690D01*
X187985690Y-76762073D01*
X188096760Y-76609199D01*
X188182547Y-76440832D01*
X188240940Y-76261118D01*
X188270500Y-76074486D01*
X188270500Y-75885513D01*
X188240940Y-75698881D01*
X188182545Y-75519163D01*
X188137290Y-75430347D01*
X188096760Y-75350801D01*
X187985690Y-75197927D01*
X187852073Y-75064310D01*
X187699199Y-74953240D01*
X187530836Y-74867454D01*
X187351118Y-74809059D01*
X187164486Y-74779500D01*
X187164481Y-74779500D01*
X186975519Y-74779500D01*
X186975514Y-74779500D01*
X186788881Y-74809059D01*
X186609163Y-74867454D01*
X186440800Y-74953240D01*
X186353579Y-75016610D01*
X186287927Y-75064310D01*
X186287925Y-75064312D01*
X186287924Y-75064312D01*
X186154312Y-75197924D01*
X186154312Y-75197925D01*
X186154310Y-75197927D01*
X186106610Y-75263579D01*
X186043240Y-75350800D01*
X185957454Y-75519163D01*
X185899059Y-75698881D01*
X185869500Y-75885513D01*
X183370000Y-75885513D01*
X183370000Y-75861947D01*
X183333065Y-75628752D01*
X183260102Y-75404197D01*
X183152914Y-75193828D01*
X183092658Y-75110894D01*
X183092658Y-75110893D01*
X182352962Y-75850590D01*
X182335925Y-75787007D01*
X182270099Y-75672993D01*
X182177007Y-75579901D01*
X182062993Y-75514075D01*
X181999409Y-75497037D01*
X182739105Y-74757340D01*
X182739104Y-74757338D01*
X182656174Y-74697087D01*
X182445802Y-74589897D01*
X182221247Y-74516934D01*
X182221248Y-74516934D01*
X181988052Y-74480000D01*
X181751948Y-74480000D01*
X181518752Y-74516934D01*
X181294197Y-74589897D01*
X181083830Y-74697084D01*
X181000894Y-74757340D01*
X181740591Y-75497037D01*
X181677007Y-75514075D01*
X181562993Y-75579901D01*
X181469901Y-75672993D01*
X181404075Y-75787007D01*
X181387037Y-75850591D01*
X180647340Y-75110894D01*
X180587084Y-75193830D01*
X180479897Y-75404197D01*
X180406934Y-75628752D01*
X180370000Y-75861947D01*
X122870500Y-75861947D01*
X122870500Y-71574071D01*
X124929499Y-71574071D01*
X124954497Y-71699738D01*
X124954499Y-71699744D01*
X125003533Y-71818124D01*
X125003538Y-71818133D01*
X125074723Y-71924668D01*
X125074726Y-71924672D01*
X125165327Y-72015273D01*
X125165331Y-72015276D01*
X125271866Y-72086461D01*
X125271872Y-72086464D01*
X125271873Y-72086465D01*
X125390256Y-72135501D01*
X125390260Y-72135501D01*
X125390261Y-72135502D01*
X125515928Y-72160500D01*
X125515931Y-72160500D01*
X125644071Y-72160500D01*
X125728615Y-72143682D01*
X125769744Y-72135501D01*
X125888127Y-72086465D01*
X125994669Y-72015276D01*
X126085276Y-71924669D01*
X126156465Y-71818127D01*
X126205501Y-71699744D01*
X126218325Y-71635276D01*
X126230500Y-71574071D01*
X126230500Y-71534071D01*
X133409499Y-71534071D01*
X133434497Y-71659738D01*
X133434499Y-71659744D01*
X133483533Y-71778124D01*
X133483538Y-71778133D01*
X133554723Y-71884668D01*
X133554726Y-71884672D01*
X133645327Y-71975273D01*
X133645331Y-71975276D01*
X133751866Y-72046461D01*
X133751872Y-72046464D01*
X133751873Y-72046465D01*
X133870256Y-72095501D01*
X133870260Y-72095501D01*
X133870261Y-72095502D01*
X133995928Y-72120500D01*
X133995931Y-72120500D01*
X134124071Y-72120500D01*
X134208615Y-72103682D01*
X134249744Y-72095501D01*
X134368127Y-72046465D01*
X134474669Y-71975276D01*
X134565276Y-71884669D01*
X134636465Y-71778127D01*
X134685501Y-71659744D01*
X134708391Y-71544672D01*
X134710500Y-71534071D01*
X134710500Y-71405928D01*
X134685502Y-71280261D01*
X134685501Y-71280260D01*
X134685501Y-71280256D01*
X134649802Y-71194071D01*
X182199499Y-71194071D01*
X182224497Y-71319738D01*
X182224499Y-71319744D01*
X182273533Y-71438124D01*
X182273538Y-71438133D01*
X182344723Y-71544668D01*
X182344726Y-71544672D01*
X182435327Y-71635273D01*
X182435331Y-71635276D01*
X182541866Y-71706461D01*
X182541872Y-71706464D01*
X182541873Y-71706465D01*
X182660256Y-71755501D01*
X182660260Y-71755501D01*
X182660261Y-71755502D01*
X182785928Y-71780500D01*
X182785931Y-71780500D01*
X182914071Y-71780500D01*
X182998615Y-71763682D01*
X183039744Y-71755501D01*
X183158127Y-71706465D01*
X183264669Y-71635276D01*
X183355276Y-71544669D01*
X183426465Y-71438127D01*
X183475501Y-71319744D01*
X183483682Y-71278615D01*
X183500500Y-71194071D01*
X183500500Y-71065928D01*
X183475502Y-70940261D01*
X183475501Y-70940260D01*
X183475501Y-70940256D01*
X183426465Y-70821873D01*
X183426464Y-70821872D01*
X183426461Y-70821866D01*
X183355276Y-70715331D01*
X183355273Y-70715327D01*
X183264672Y-70624726D01*
X183264668Y-70624723D01*
X183158133Y-70553538D01*
X183158124Y-70553533D01*
X183039744Y-70504499D01*
X183039738Y-70504497D01*
X182914071Y-70479500D01*
X182914069Y-70479500D01*
X182785931Y-70479500D01*
X182785929Y-70479500D01*
X182660261Y-70504497D01*
X182660255Y-70504499D01*
X182541875Y-70553533D01*
X182541866Y-70553538D01*
X182435331Y-70624723D01*
X182435327Y-70624726D01*
X182344726Y-70715327D01*
X182344723Y-70715331D01*
X182273538Y-70821866D01*
X182273533Y-70821875D01*
X182224499Y-70940255D01*
X182224497Y-70940261D01*
X182199500Y-71065928D01*
X182199500Y-71065931D01*
X182199500Y-71194069D01*
X182199500Y-71194071D01*
X182199499Y-71194071D01*
X134649802Y-71194071D01*
X134636465Y-71161873D01*
X134636464Y-71161872D01*
X134636461Y-71161866D01*
X134614320Y-71128730D01*
X134565276Y-71055331D01*
X134565273Y-71055327D01*
X134474672Y-70964726D01*
X134474668Y-70964723D01*
X134368133Y-70893538D01*
X134368124Y-70893533D01*
X134249744Y-70844499D01*
X134249738Y-70844497D01*
X134124071Y-70819500D01*
X134124069Y-70819500D01*
X133995931Y-70819500D01*
X133995929Y-70819500D01*
X133870261Y-70844497D01*
X133870255Y-70844499D01*
X133751875Y-70893533D01*
X133751866Y-70893538D01*
X133645331Y-70964723D01*
X133645327Y-70964726D01*
X133554726Y-71055327D01*
X133554723Y-71055331D01*
X133483538Y-71161866D01*
X133483533Y-71161875D01*
X133434499Y-71280255D01*
X133434497Y-71280261D01*
X133409500Y-71405928D01*
X133409500Y-71405931D01*
X133409500Y-71534069D01*
X133409500Y-71534071D01*
X133409499Y-71534071D01*
X126230500Y-71534071D01*
X126230500Y-71445929D01*
X126226144Y-71424032D01*
X126226144Y-71424031D01*
X126205502Y-71320261D01*
X126205501Y-71320260D01*
X126205501Y-71320256D01*
X126156465Y-71201873D01*
X126156464Y-71201872D01*
X126156461Y-71201866D01*
X126085276Y-71095331D01*
X126085273Y-71095327D01*
X125994672Y-71004726D01*
X125994668Y-71004723D01*
X125888133Y-70933538D01*
X125888124Y-70933533D01*
X125769744Y-70884499D01*
X125769738Y-70884497D01*
X125644071Y-70859500D01*
X125644069Y-70859500D01*
X125515931Y-70859500D01*
X125515929Y-70859500D01*
X125390261Y-70884497D01*
X125390255Y-70884499D01*
X125271875Y-70933533D01*
X125271866Y-70933538D01*
X125165331Y-71004723D01*
X125165327Y-71004726D01*
X125074726Y-71095327D01*
X125074723Y-71095331D01*
X125003538Y-71201866D01*
X125003533Y-71201875D01*
X124954499Y-71320255D01*
X124954497Y-71320261D01*
X124929500Y-71445928D01*
X124929500Y-71445929D01*
X124929500Y-71445931D01*
X124929500Y-71574069D01*
X124929500Y-71574071D01*
X124929499Y-71574071D01*
X122870500Y-71574071D01*
X122870500Y-70028995D01*
X188404498Y-70028995D01*
X188431417Y-70164322D01*
X188431420Y-70164332D01*
X188484220Y-70291804D01*
X188484227Y-70291817D01*
X188560884Y-70406541D01*
X188560887Y-70406545D01*
X188658453Y-70504111D01*
X188658457Y-70504114D01*
X188773181Y-70580771D01*
X188773194Y-70580778D01*
X188879295Y-70624726D01*
X188900671Y-70633580D01*
X188900675Y-70633580D01*
X188900676Y-70633581D01*
X189036003Y-70660500D01*
X189036006Y-70660500D01*
X189173994Y-70660500D01*
X189265040Y-70642389D01*
X189309327Y-70633580D01*
X189436810Y-70580775D01*
X189551541Y-70504114D01*
X189649113Y-70406542D01*
X189725774Y-70291811D01*
X189778579Y-70164328D01*
X189805499Y-70028993D01*
X189805499Y-69891007D01*
X189805499Y-69891004D01*
X189778580Y-69755677D01*
X189778579Y-69755676D01*
X189778579Y-69755672D01*
X189778577Y-69755667D01*
X189725777Y-69628195D01*
X189725770Y-69628182D01*
X189649113Y-69513458D01*
X189649110Y-69513454D01*
X189551544Y-69415888D01*
X189551540Y-69415885D01*
X189436816Y-69339228D01*
X189436803Y-69339221D01*
X189309331Y-69286421D01*
X189309321Y-69286418D01*
X189173994Y-69259500D01*
X189173992Y-69259500D01*
X189036006Y-69259500D01*
X189036004Y-69259500D01*
X188900676Y-69286418D01*
X188900666Y-69286421D01*
X188773194Y-69339221D01*
X188773181Y-69339228D01*
X188658457Y-69415885D01*
X188658453Y-69415888D01*
X188560887Y-69513454D01*
X188560884Y-69513458D01*
X188484227Y-69628182D01*
X188484220Y-69628195D01*
X188431420Y-69755667D01*
X188431417Y-69755677D01*
X188404499Y-69891004D01*
X188404499Y-69891007D01*
X188404499Y-70028993D01*
X188404499Y-70028995D01*
X188404498Y-70028995D01*
X122870500Y-70028995D01*
X122870500Y-55942125D01*
X122870536Y-55939997D01*
X127120000Y-55939997D01*
X127120000Y-55940002D01*
X127139051Y-56291384D01*
X127195984Y-56638659D01*
X127195986Y-56638667D01*
X127290123Y-56977719D01*
X127290125Y-56977726D01*
X127420375Y-57304630D01*
X127420380Y-57304640D01*
X127585214Y-57615550D01*
X127782698Y-57906816D01*
X128010515Y-58175023D01*
X128265995Y-58417027D01*
X128546142Y-58629989D01*
X128546150Y-58629994D01*
X128546162Y-58630002D01*
X128847668Y-58811411D01*
X128847673Y-58811414D01*
X128847679Y-58811417D01*
X128847681Y-58811418D01*
X129167040Y-58959169D01*
X129167051Y-58959174D01*
X129500533Y-59071537D01*
X129844209Y-59147186D01*
X130194049Y-59185234D01*
X130194054Y-59185234D01*
X130545946Y-59185234D01*
X130545951Y-59185234D01*
X130895791Y-59147186D01*
X131239467Y-59071537D01*
X131572949Y-58959174D01*
X131892327Y-58811414D01*
X131892332Y-58811411D01*
X132158356Y-58651349D01*
X132193837Y-58630002D01*
X132193841Y-58629999D01*
X132193850Y-58629994D01*
X132193858Y-58629989D01*
X132474005Y-58417027D01*
X132729485Y-58175023D01*
X132957302Y-57906816D01*
X133154786Y-57615550D01*
X133319620Y-57304640D01*
X133449873Y-56977730D01*
X133544017Y-56638654D01*
X133600948Y-56291387D01*
X133620000Y-55940000D01*
X133619588Y-55932408D01*
X133604764Y-55658995D01*
X150419499Y-55658995D01*
X150446418Y-55794322D01*
X150446421Y-55794332D01*
X150499221Y-55921804D01*
X150499228Y-55921817D01*
X150575885Y-56036541D01*
X150575888Y-56036545D01*
X150673454Y-56134111D01*
X150673458Y-56134114D01*
X150788182Y-56210771D01*
X150788195Y-56210778D01*
X150884765Y-56250778D01*
X150915672Y-56263580D01*
X150915676Y-56263580D01*
X150915677Y-56263581D01*
X151051004Y-56290500D01*
X151051007Y-56290500D01*
X151188995Y-56290500D01*
X151280041Y-56272389D01*
X151324328Y-56263580D01*
X151451811Y-56210775D01*
X151566542Y-56134114D01*
X151664114Y-56036542D01*
X151740775Y-55921811D01*
X151793580Y-55794328D01*
X151812543Y-55698995D01*
X152999499Y-55698995D01*
X153026418Y-55834322D01*
X153026421Y-55834332D01*
X153079221Y-55961804D01*
X153079228Y-55961817D01*
X153155885Y-56076541D01*
X153155888Y-56076545D01*
X153253454Y-56174111D01*
X153253458Y-56174114D01*
X153368182Y-56250771D01*
X153368195Y-56250778D01*
X153464094Y-56290500D01*
X153495672Y-56303580D01*
X153495676Y-56303580D01*
X153495677Y-56303581D01*
X153631004Y-56330500D01*
X153631007Y-56330500D01*
X153768995Y-56330500D01*
X153860041Y-56312389D01*
X153904328Y-56303580D01*
X154031811Y-56250775D01*
X154146542Y-56174114D01*
X154244114Y-56076542D01*
X154320775Y-55961811D01*
X154329811Y-55939997D01*
X182120000Y-55939997D01*
X182120000Y-55940002D01*
X182139051Y-56291384D01*
X182195984Y-56638659D01*
X182195986Y-56638667D01*
X182290123Y-56977719D01*
X182290125Y-56977726D01*
X182420375Y-57304630D01*
X182420380Y-57304640D01*
X182585214Y-57615550D01*
X182782698Y-57906816D01*
X183010515Y-58175023D01*
X183265995Y-58417027D01*
X183546142Y-58629989D01*
X183546150Y-58629994D01*
X183546162Y-58630002D01*
X183847668Y-58811411D01*
X183847673Y-58811414D01*
X183847679Y-58811417D01*
X183847681Y-58811418D01*
X184167040Y-58959169D01*
X184167051Y-58959174D01*
X184500533Y-59071537D01*
X184844209Y-59147186D01*
X185194049Y-59185234D01*
X185194054Y-59185234D01*
X185545946Y-59185234D01*
X185545951Y-59185234D01*
X185895791Y-59147186D01*
X186239467Y-59071537D01*
X186572949Y-58959174D01*
X186892327Y-58811414D01*
X186892332Y-58811411D01*
X187158356Y-58651349D01*
X187193837Y-58630002D01*
X187193841Y-58629999D01*
X187193850Y-58629994D01*
X187193858Y-58629989D01*
X187474005Y-58417027D01*
X187729485Y-58175023D01*
X187957302Y-57906816D01*
X188154786Y-57615550D01*
X188319620Y-57304640D01*
X188449873Y-56977730D01*
X188544017Y-56638654D01*
X188600948Y-56291387D01*
X188620000Y-55940000D01*
X188619588Y-55932408D01*
X188600948Y-55588615D01*
X188600948Y-55588613D01*
X188544017Y-55241346D01*
X188500854Y-55085886D01*
X188449876Y-54902280D01*
X188449874Y-54902273D01*
X188444785Y-54889500D01*
X188319620Y-54575360D01*
X188154786Y-54264450D01*
X187957302Y-53973184D01*
X187729485Y-53704977D01*
X187474005Y-53462973D01*
X187473998Y-53462967D01*
X187473995Y-53462965D01*
X187365390Y-53380406D01*
X187193858Y-53250011D01*
X187193852Y-53250007D01*
X187193837Y-53249997D01*
X186892331Y-53068588D01*
X186892318Y-53068581D01*
X186572959Y-52920830D01*
X186572954Y-52920828D01*
X186572949Y-52920826D01*
X186410394Y-52866055D01*
X186239466Y-52808462D01*
X185895789Y-52732813D01*
X185545952Y-52694766D01*
X185545951Y-52694766D01*
X185194049Y-52694766D01*
X185194047Y-52694766D01*
X184844210Y-52732813D01*
X184500533Y-52808462D01*
X184242745Y-52895321D01*
X184167051Y-52920826D01*
X184167048Y-52920827D01*
X184167040Y-52920830D01*
X183847681Y-53068581D01*
X183847668Y-53068588D01*
X183546162Y-53249997D01*
X183546146Y-53250008D01*
X183266004Y-53462965D01*
X183265995Y-53462973D01*
X183010512Y-53704979D01*
X183010507Y-53704985D01*
X182782697Y-53973184D01*
X182585214Y-54264449D01*
X182420384Y-54575351D01*
X182420375Y-54575369D01*
X182290125Y-54902273D01*
X182290123Y-54902280D01*
X182195986Y-55241332D01*
X182195984Y-55241340D01*
X182139051Y-55588615D01*
X182120000Y-55939997D01*
X154329811Y-55939997D01*
X154337344Y-55921811D01*
X154350856Y-55889189D01*
X154350856Y-55889188D01*
X154373580Y-55834328D01*
X154400500Y-55698993D01*
X154400500Y-55561007D01*
X154400500Y-55561004D01*
X154373581Y-55425677D01*
X154373580Y-55425676D01*
X154373580Y-55425672D01*
X154357012Y-55385672D01*
X154320778Y-55298195D01*
X154320771Y-55298182D01*
X154244114Y-55183458D01*
X154244111Y-55183454D01*
X154146545Y-55085888D01*
X154146541Y-55085885D01*
X154031817Y-55009228D01*
X154031804Y-55009221D01*
X153904332Y-54956421D01*
X153904322Y-54956418D01*
X153768995Y-54929500D01*
X153768993Y-54929500D01*
X153631007Y-54929500D01*
X153631005Y-54929500D01*
X153495677Y-54956418D01*
X153495667Y-54956421D01*
X153368195Y-55009221D01*
X153368182Y-55009228D01*
X153253458Y-55085885D01*
X153253454Y-55085888D01*
X153155888Y-55183454D01*
X153155885Y-55183458D01*
X153079228Y-55298182D01*
X153079221Y-55298195D01*
X153026421Y-55425667D01*
X153026418Y-55425677D01*
X152999500Y-55561004D01*
X152999500Y-55561007D01*
X152999500Y-55698993D01*
X152999500Y-55698995D01*
X152999499Y-55698995D01*
X151812543Y-55698995D01*
X151820500Y-55658995D01*
X151820500Y-55521004D01*
X151793581Y-55385677D01*
X151793580Y-55385676D01*
X151793580Y-55385672D01*
X151757346Y-55298195D01*
X151740778Y-55258195D01*
X151740771Y-55258182D01*
X151664114Y-55143458D01*
X151664111Y-55143454D01*
X151566545Y-55045888D01*
X151566541Y-55045885D01*
X151451817Y-54969228D01*
X151451804Y-54969221D01*
X151324332Y-54916421D01*
X151324322Y-54916418D01*
X151188995Y-54889500D01*
X151188993Y-54889500D01*
X151051007Y-54889500D01*
X151051005Y-54889500D01*
X150915677Y-54916418D01*
X150915667Y-54916421D01*
X150788195Y-54969221D01*
X150788182Y-54969228D01*
X150673458Y-55045885D01*
X150673454Y-55045888D01*
X150575888Y-55143454D01*
X150575885Y-55143458D01*
X150499228Y-55258182D01*
X150499221Y-55258195D01*
X150446421Y-55385667D01*
X150446418Y-55385677D01*
X150419500Y-55521004D01*
X150419500Y-55521007D01*
X150419500Y-55658993D01*
X150419500Y-55658995D01*
X150419499Y-55658995D01*
X133604764Y-55658995D01*
X133600948Y-55588615D01*
X133600946Y-55588598D01*
X133592156Y-55534983D01*
X133592155Y-55534982D01*
X133544017Y-55241346D01*
X133544013Y-55241332D01*
X133500854Y-55085886D01*
X133449876Y-54902280D01*
X133449874Y-54902273D01*
X133444785Y-54889500D01*
X133319620Y-54575360D01*
X133154786Y-54264450D01*
X132957302Y-53973184D01*
X132729485Y-53704977D01*
X132474005Y-53462973D01*
X132473998Y-53462967D01*
X132473995Y-53462965D01*
X132365390Y-53380406D01*
X132193858Y-53250011D01*
X132193852Y-53250007D01*
X132193837Y-53249997D01*
X131892331Y-53068588D01*
X131892318Y-53068581D01*
X131572959Y-52920830D01*
X131572954Y-52920828D01*
X131572949Y-52920826D01*
X131410394Y-52866055D01*
X131239466Y-52808462D01*
X130895789Y-52732813D01*
X130545952Y-52694766D01*
X130545951Y-52694766D01*
X130194049Y-52694766D01*
X130194047Y-52694766D01*
X129844210Y-52732813D01*
X129500533Y-52808462D01*
X129242745Y-52895321D01*
X129167051Y-52920826D01*
X129167048Y-52920827D01*
X129167040Y-52920830D01*
X128847681Y-53068581D01*
X128847668Y-53068588D01*
X128546162Y-53249997D01*
X128546146Y-53250008D01*
X128266004Y-53462965D01*
X128265995Y-53462973D01*
X128010512Y-53704979D01*
X128010507Y-53704985D01*
X127782697Y-53973184D01*
X127585214Y-54264449D01*
X127420384Y-54575351D01*
X127420375Y-54575369D01*
X127290125Y-54902273D01*
X127290123Y-54902280D01*
X127195986Y-55241332D01*
X127195984Y-55241340D01*
X127139051Y-55588615D01*
X127120000Y-55939997D01*
X122870536Y-55939997D01*
X122870572Y-55937899D01*
X122870759Y-55932415D01*
X122870759Y-55932408D01*
X122871121Y-55921811D01*
X122886207Y-55480185D01*
X122886446Y-55475676D01*
X122893954Y-55370694D01*
X122894277Y-55366991D01*
X122935678Y-54964272D01*
X122936280Y-54959384D01*
X122950729Y-54858887D01*
X122951234Y-54855693D01*
X123020793Y-54452263D01*
X123021807Y-54447060D01*
X123041971Y-54354367D01*
X123042607Y-54351609D01*
X123141263Y-53946773D01*
X123142725Y-53941326D01*
X123166507Y-53860333D01*
X123167231Y-53857962D01*
X123296589Y-53450385D01*
X123298561Y-53444671D01*
X123322600Y-53380218D01*
X123323315Y-53378358D01*
X123486092Y-52965584D01*
X123488621Y-52959634D01*
X123507328Y-52918672D01*
X123508002Y-52917225D01*
X123708914Y-52494767D01*
X123712047Y-52488630D01*
X123715685Y-52481966D01*
X123716229Y-52480983D01*
X123960212Y-52047061D01*
X123964597Y-52039850D01*
X124188460Y-51698543D01*
X144049499Y-51698543D01*
X144087947Y-51891829D01*
X144087950Y-51891839D01*
X144163364Y-52073907D01*
X144163371Y-52073920D01*
X144272860Y-52237781D01*
X144272863Y-52237785D01*
X144412214Y-52377136D01*
X144412218Y-52377139D01*
X144576079Y-52486628D01*
X144576092Y-52486635D01*
X144730278Y-52550500D01*
X144758165Y-52562051D01*
X144758169Y-52562051D01*
X144758170Y-52562052D01*
X144951456Y-52600500D01*
X144951459Y-52600500D01*
X145148543Y-52600500D01*
X145278582Y-52574632D01*
X145341835Y-52562051D01*
X145516406Y-52489742D01*
X145523907Y-52486635D01*
X145523907Y-52486634D01*
X145523914Y-52486632D01*
X145687782Y-52377139D01*
X145827139Y-52237782D01*
X145936632Y-52073914D01*
X145936631Y-52073914D01*
X145938602Y-52070966D01*
X145992214Y-52026160D01*
X146061539Y-52017453D01*
X146124566Y-52047607D01*
X146144806Y-52070965D01*
X146222860Y-52187781D01*
X146222863Y-52187785D01*
X146362214Y-52327136D01*
X146362218Y-52327139D01*
X146526079Y-52436628D01*
X146526092Y-52436635D01*
X146666495Y-52494791D01*
X146708165Y-52512051D01*
X146708169Y-52512051D01*
X146708170Y-52512052D01*
X146901456Y-52550500D01*
X146901459Y-52550500D01*
X147098543Y-52550500D01*
X147228582Y-52524632D01*
X147291835Y-52512051D01*
X147473914Y-52436632D01*
X147637782Y-52327139D01*
X147777139Y-52187782D01*
X147886632Y-52023914D01*
X147962051Y-51841835D01*
X147990554Y-51698543D01*
X148000500Y-51648543D01*
X148000500Y-51451456D01*
X147962052Y-51258170D01*
X147962051Y-51258169D01*
X147962051Y-51258165D01*
X147962049Y-51258160D01*
X147886635Y-51076092D01*
X147886628Y-51076079D01*
X147777139Y-50912218D01*
X147777136Y-50912214D01*
X147637785Y-50772863D01*
X147637781Y-50772860D01*
X147473920Y-50663371D01*
X147473907Y-50663364D01*
X147291839Y-50587950D01*
X147291829Y-50587947D01*
X147098543Y-50549500D01*
X147098541Y-50549500D01*
X146901459Y-50549500D01*
X146901457Y-50549500D01*
X146708170Y-50587947D01*
X146708160Y-50587950D01*
X146526092Y-50663364D01*
X146526079Y-50663371D01*
X146362218Y-50772860D01*
X146362214Y-50772863D01*
X146222863Y-50912214D01*
X146222860Y-50912218D01*
X146111397Y-51079034D01*
X146057785Y-51123839D01*
X145988460Y-51132546D01*
X145925432Y-51102391D01*
X145905193Y-51079034D01*
X145827139Y-50962217D01*
X145687785Y-50822863D01*
X145687781Y-50822860D01*
X145523920Y-50713371D01*
X145523907Y-50713364D01*
X145341839Y-50637950D01*
X145341829Y-50637947D01*
X145148543Y-50599500D01*
X145148541Y-50599500D01*
X144951459Y-50599500D01*
X144951457Y-50599500D01*
X144758170Y-50637947D01*
X144758160Y-50637950D01*
X144576092Y-50713364D01*
X144576079Y-50713371D01*
X144412218Y-50822860D01*
X144412214Y-50822863D01*
X144272863Y-50962214D01*
X144272860Y-50962218D01*
X144163371Y-51126079D01*
X144163364Y-51126092D01*
X144087950Y-51308160D01*
X144087947Y-51308170D01*
X144049500Y-51501456D01*
X144049500Y-51501459D01*
X144049500Y-51698541D01*
X144049500Y-51698543D01*
X144049499Y-51698543D01*
X124188460Y-51698543D01*
X124240828Y-51618701D01*
X124245680Y-51611827D01*
X124550017Y-51210499D01*
X124555318Y-51203984D01*
X124886324Y-50824371D01*
X124892074Y-50818214D01*
X125248214Y-50462074D01*
X125254371Y-50456324D01*
X125633984Y-50125318D01*
X125640499Y-50120017D01*
X126041827Y-49815680D01*
X126048701Y-49810828D01*
X126469850Y-49534597D01*
X126477061Y-49530212D01*
X126910983Y-49286229D01*
X126911966Y-49285685D01*
X126918638Y-49282042D01*
X126924767Y-49278914D01*
X127347225Y-49078002D01*
X127348672Y-49077328D01*
X127389634Y-49058621D01*
X127395584Y-49056092D01*
X127808358Y-48893315D01*
X127810218Y-48892600D01*
X127874671Y-48868561D01*
X127880385Y-48866589D01*
X128287962Y-48737231D01*
X128290333Y-48736507D01*
X128371326Y-48712725D01*
X128376773Y-48711263D01*
X128781609Y-48612607D01*
X128784367Y-48611971D01*
X128877060Y-48591807D01*
X128882263Y-48590793D01*
X129285693Y-48521234D01*
X129288887Y-48520729D01*
X129389384Y-48506280D01*
X129394272Y-48505678D01*
X129796991Y-48464277D01*
X129800694Y-48463954D01*
X129905676Y-48456446D01*
X129910185Y-48456207D01*
X130089797Y-48450071D01*
X130094029Y-48450000D01*
X185645971Y-48450000D01*
X185650202Y-48450071D01*
G37*
G04 #@! TD.AperFunction*
M02*
