G04 #@! TF.GenerationSoftware,KiCad,Pcbnew,9.0.3*
G04 #@! TF.CreationDate,2025-07-24T20:29:09-07:00*
G04 #@! TF.ProjectId,Telemetry PCB V2,54656c65-6d65-4747-9279-205043422056,rev?*
G04 #@! TF.SameCoordinates,Original*
G04 #@! TF.FileFunction,Soldermask,Top*
G04 #@! TF.FilePolarity,Negative*
%FSLAX46Y46*%
G04 Gerber Fmt 4.6, Leading zero omitted, Abs format (unit mm)*
G04 Created by KiCad (PCBNEW 9.0.3) date 2025-07-24 20:29:09*
%MOMM*%
%LPD*%
G01*
G04 APERTURE LIST*
G04 Aperture macros list*
%AMRoundRect*
0 Rectangle with rounded corners*
0 $1 Rounding radius*
0 $2 $3 $4 $5 $6 $7 $8 $9 X,Y pos of 4 corners*
0 Add a 4 corners polygon primitive as box body*
4,1,4,$2,$3,$4,$5,$6,$7,$8,$9,$2,$3,0*
0 Add four circle primitives for the rounded corners*
1,1,$1+$1,$2,$3*
1,1,$1+$1,$4,$5*
1,1,$1+$1,$6,$7*
1,1,$1+$1,$8,$9*
0 Add four rect primitives between the rounded corners*
20,1,$1+$1,$2,$3,$4,$5,0*
20,1,$1+$1,$4,$5,$6,$7,0*
20,1,$1+$1,$6,$7,$8,$9,0*
20,1,$1+$1,$8,$9,$2,$3,0*%
G04 Aperture macros list end*
%ADD10RoundRect,0.250000X0.650000X-0.412500X0.650000X0.412500X-0.650000X0.412500X-0.650000X-0.412500X0*%
%ADD11RoundRect,0.062500X-0.375000X-0.062500X0.375000X-0.062500X0.375000X0.062500X-0.375000X0.062500X0*%
%ADD12RoundRect,0.062500X-0.062500X-0.375000X0.062500X-0.375000X0.062500X0.375000X-0.062500X0.375000X0*%
%ADD13R,5.600000X5.600000*%
%ADD14R,0.711200X0.711200*%
%ADD15RoundRect,0.250000X-0.625000X0.400000X-0.625000X-0.400000X0.625000X-0.400000X0.625000X0.400000X0*%
%ADD16RoundRect,0.237500X0.237500X-0.300000X0.237500X0.300000X-0.237500X0.300000X-0.237500X-0.300000X0*%
%ADD17R,0.950500X0.558800*%
%ADD18C,0.650000*%
%ADD19RoundRect,0.150000X-0.150000X-0.435000X0.150000X-0.435000X0.150000X0.435000X-0.150000X0.435000X0*%
%ADD20RoundRect,0.150000X-0.150000X-0.447500X0.150000X-0.447500X0.150000X0.447500X-0.150000X0.447500X0*%
%ADD21RoundRect,0.075000X-0.075000X-0.575000X0.075000X-0.575000X0.075000X0.575000X-0.075000X0.575000X0*%
%ADD22O,1.000000X2.100000*%
%ADD23O,1.000000X1.600000*%
%ADD24RoundRect,0.250000X-0.650000X0.412500X-0.650000X-0.412500X0.650000X-0.412500X0.650000X0.412500X0*%
%ADD25R,1.498600X3.987800*%
%ADD26R,1.700000X1.700000*%
%ADD27O,1.700000X1.700000*%
%ADD28RoundRect,0.250000X0.625000X-0.400000X0.625000X0.400000X-0.625000X0.400000X-0.625000X-0.400000X0*%
%ADD29RoundRect,0.237500X-0.237500X0.300000X-0.237500X-0.300000X0.237500X-0.300000X0.237500X0.300000X0*%
%ADD30RoundRect,0.102000X0.755000X-1.040000X0.755000X1.040000X-0.755000X1.040000X-0.755000X-1.040000X0*%
%ADD31RoundRect,0.150000X-0.587500X-0.150000X0.587500X-0.150000X0.587500X0.150000X-0.587500X0.150000X0*%
%ADD32RoundRect,0.250000X-0.600000X-0.750000X0.600000X-0.750000X0.600000X0.750000X-0.600000X0.750000X0*%
%ADD33O,1.700000X2.000000*%
%ADD34RoundRect,0.250000X-0.312500X-0.625000X0.312500X-0.625000X0.312500X0.625000X-0.312500X0.625000X0*%
%ADD35RoundRect,0.102000X-0.950000X0.550000X-0.950000X-0.550000X0.950000X-0.550000X0.950000X0.550000X0*%
%ADD36R,2.000000X7.875000*%
%ADD37RoundRect,0.237500X-0.300000X-0.237500X0.300000X-0.237500X0.300000X0.237500X-0.300000X0.237500X0*%
%ADD38RoundRect,0.237500X0.300000X0.237500X-0.300000X0.237500X-0.300000X-0.237500X0.300000X-0.237500X0*%
%ADD39RoundRect,0.150000X-0.512500X-0.150000X0.512500X-0.150000X0.512500X0.150000X-0.512500X0.150000X0*%
%ADD40RoundRect,0.250000X0.375000X0.625000X-0.375000X0.625000X-0.375000X-0.625000X0.375000X-0.625000X0*%
%ADD41RoundRect,0.250000X-0.600000X-0.725000X0.600000X-0.725000X0.600000X0.725000X-0.600000X0.725000X0*%
%ADD42O,1.700000X1.950000*%
%ADD43RoundRect,0.090000X0.660000X0.360000X-0.660000X0.360000X-0.660000X-0.360000X0.660000X-0.360000X0*%
%ADD44C,2.000000*%
%ADD45RoundRect,0.250000X-0.750000X0.600000X-0.750000X-0.600000X0.750000X-0.600000X0.750000X0.600000X0*%
%ADD46O,2.000000X1.700000*%
G04 APERTURE END LIST*
D10*
X169875000Y-103579999D03*
X169875000Y-100454999D03*
D11*
X147175000Y-88610000D03*
X147175000Y-89110000D03*
X147175000Y-89610000D03*
X147175000Y-90110000D03*
X147175000Y-90610000D03*
X147175000Y-91110000D03*
X147175000Y-91610000D03*
X147175000Y-92110000D03*
X147175000Y-92610000D03*
X147175000Y-93110000D03*
X147175000Y-93610000D03*
X147175000Y-94110000D03*
D12*
X147862500Y-94797500D03*
X148362500Y-94797500D03*
X148862500Y-94797500D03*
X149362500Y-94797500D03*
X149862500Y-94797500D03*
X150362500Y-94797500D03*
X150862500Y-94797500D03*
X151362500Y-94797500D03*
X151862500Y-94797500D03*
X152362500Y-94797500D03*
X152862500Y-94797500D03*
X153362500Y-94797500D03*
D11*
X154050000Y-94110000D03*
X154050000Y-93610000D03*
X154050000Y-93110000D03*
X154050000Y-92610000D03*
X154050000Y-92110000D03*
X154050000Y-91610000D03*
X154050000Y-91110000D03*
X154050000Y-90610000D03*
X154050000Y-90110000D03*
X154050000Y-89610000D03*
X154050000Y-89110000D03*
X154050000Y-88610000D03*
D12*
X153362500Y-87922500D03*
X152862500Y-87922500D03*
X152362500Y-87922500D03*
X151862500Y-87922500D03*
X151362500Y-87922500D03*
X150862500Y-87922500D03*
X150362500Y-87922500D03*
X149862500Y-87922500D03*
X149362500Y-87922500D03*
X148862500Y-87922500D03*
X148362500Y-87922500D03*
X147862500Y-87922500D03*
D13*
X150612500Y-91360000D03*
D14*
X143330000Y-51550000D03*
X141044000Y-51550000D03*
D10*
X151250000Y-113945000D03*
X151250000Y-110820000D03*
D15*
X188590000Y-93989999D03*
X188590000Y-97090001D03*
D16*
X145288000Y-94308001D03*
X145288000Y-92583001D03*
D17*
X131040349Y-94410000D03*
X124679651Y-94410000D03*
X131040349Y-90710002D03*
X124679651Y-90710002D03*
D18*
X155110000Y-111895000D03*
X160890000Y-111895000D03*
D19*
X154800000Y-110690000D03*
D20*
X155600000Y-110702500D03*
D21*
X156750000Y-110755000D03*
X157750000Y-110755000D03*
X158250000Y-110755000D03*
X159250000Y-110755000D03*
D20*
X160400000Y-110702500D03*
D19*
X161200000Y-110690000D03*
X161200000Y-110690000D03*
D20*
X160400000Y-110702500D03*
D21*
X159750000Y-110755000D03*
X158750000Y-110755000D03*
X157250000Y-110755000D03*
X156250000Y-110755000D03*
D20*
X155600000Y-110702500D03*
D19*
X154800000Y-110690000D03*
D22*
X153680000Y-111395000D03*
D23*
X153680000Y-115575000D03*
D22*
X162320000Y-111395000D03*
D23*
X162320000Y-115575000D03*
D24*
X128840000Y-97440001D03*
X128840000Y-100565001D03*
X156805000Y-103620000D03*
X156805000Y-106745000D03*
D10*
X164775000Y-113925000D03*
X164775000Y-110800000D03*
D25*
X186025000Y-87900000D03*
X182443600Y-87900000D03*
D26*
X170256396Y-82010000D03*
D27*
X167716396Y-82010000D03*
X165176396Y-82010000D03*
X162636396Y-82010000D03*
D28*
X126570000Y-100590001D03*
X126570000Y-97490001D03*
D17*
X131040349Y-86410000D03*
X124679651Y-86410000D03*
X131040349Y-82710002D03*
X124679651Y-82710002D03*
D10*
X188620000Y-91870000D03*
X188620000Y-88745000D03*
D29*
X142980000Y-83595002D03*
X142980000Y-85320002D03*
D30*
X171425000Y-77007500D03*
X168885000Y-77007500D03*
X166345000Y-77007500D03*
X158745000Y-77007500D03*
X156205000Y-77007500D03*
X153665000Y-77007500D03*
X151125000Y-77007500D03*
X148585000Y-77007500D03*
X146045000Y-77007500D03*
X143505000Y-77007500D03*
X140965000Y-77007500D03*
X140965000Y-53857500D03*
X143505000Y-53857500D03*
X146045000Y-53857500D03*
X148585000Y-53857500D03*
X151125000Y-53857500D03*
X153665000Y-53857500D03*
X156205000Y-53857500D03*
X158745000Y-53857500D03*
X166345000Y-53857500D03*
X168885000Y-53857500D03*
X171425000Y-53857500D03*
D31*
X172049999Y-101839999D03*
X172049999Y-103739999D03*
X173925000Y-102789999D03*
D32*
X172690000Y-112460000D03*
D33*
X175190000Y-112460000D03*
D34*
X125585000Y-69940000D03*
X128510000Y-69940000D03*
D24*
X129140000Y-76717501D03*
X129140000Y-79842501D03*
D28*
X148730000Y-101420000D03*
X148730000Y-98320000D03*
D35*
X141020000Y-81600001D03*
X141020000Y-84100001D03*
D36*
X136275000Y-84974999D03*
X136275000Y-96849999D03*
D37*
X153214999Y-96266000D03*
X154939999Y-96266000D03*
D29*
X155575000Y-86920999D03*
X155575000Y-88645999D03*
D10*
X140075000Y-89150000D03*
X140075000Y-86025000D03*
D15*
X186320000Y-95400000D03*
X186320000Y-98500002D03*
D38*
X148156001Y-86487000D03*
X146431001Y-86487000D03*
D29*
X142970000Y-80295002D03*
X142970000Y-82020002D03*
D26*
X170220000Y-95970000D03*
D27*
X167680000Y-95970000D03*
X165140001Y-95970000D03*
X162600000Y-95970000D03*
D14*
X174501400Y-85193601D03*
X174501400Y-87479601D03*
D10*
X180172501Y-87904601D03*
X180172501Y-84779601D03*
X151030000Y-101445000D03*
X151030000Y-98320000D03*
D24*
X140075000Y-92550000D03*
X140075000Y-95675000D03*
D39*
X184253899Y-91799600D03*
X184253899Y-92749600D03*
X184253899Y-93699600D03*
X186528899Y-93699600D03*
X186528899Y-92749600D03*
X186528899Y-91799600D03*
D40*
X134057500Y-66510000D03*
X131257500Y-66510000D03*
D24*
X159125000Y-103620000D03*
X159125000Y-106745000D03*
D41*
X139500000Y-112475000D03*
D42*
X142000000Y-112475000D03*
X144500000Y-112475000D03*
D43*
X187750000Y-69930000D03*
X187750000Y-66630000D03*
X182850000Y-66630000D03*
X182850000Y-69930000D03*
D15*
X126490000Y-76710001D03*
X126490000Y-79810001D03*
D10*
X176620000Y-87904601D03*
X176620000Y-84779601D03*
X182178899Y-95004601D03*
X182178899Y-91879601D03*
X176065000Y-103550000D03*
X176065000Y-100425000D03*
D44*
X181870000Y-75980000D03*
X187070000Y-75980000D03*
D40*
X134057500Y-69900000D03*
X131257500Y-69900000D03*
D34*
X125567500Y-66500000D03*
X128492500Y-66500000D03*
D45*
X178178899Y-91879602D03*
D46*
X178178899Y-94379602D03*
G36*
X181564130Y-81918493D02*
G01*
X181591201Y-81924671D01*
X181733921Y-81974611D01*
X181758938Y-81986659D01*
X181886963Y-82067102D01*
X181908672Y-82084415D01*
X182015584Y-82191327D01*
X182032897Y-82213036D01*
X182113340Y-82341061D01*
X182125388Y-82366078D01*
X182175328Y-82508798D01*
X182181506Y-82535869D01*
X182198435Y-82686116D01*
X182198435Y-82713884D01*
X182181506Y-82864130D01*
X182175328Y-82891201D01*
X182125388Y-83033921D01*
X182113340Y-83058938D01*
X182032897Y-83186963D01*
X182015584Y-83208672D01*
X181908672Y-83315584D01*
X181886963Y-83332897D01*
X181758938Y-83413340D01*
X181733921Y-83425388D01*
X181591201Y-83475328D01*
X181564130Y-83481506D01*
X181413884Y-83498435D01*
X181386116Y-83498435D01*
X181235869Y-83481506D01*
X181208798Y-83475328D01*
X181066078Y-83425388D01*
X181041061Y-83413340D01*
X180913036Y-83332897D01*
X180891327Y-83315584D01*
X180784415Y-83208672D01*
X180767102Y-83186963D01*
X180686659Y-83058938D01*
X180674611Y-83033921D01*
X180624671Y-82891201D01*
X180618493Y-82864130D01*
X180601564Y-82713884D01*
X180601564Y-82686116D01*
X180618493Y-82535869D01*
X180624671Y-82508798D01*
X180674611Y-82366078D01*
X180686659Y-82341061D01*
X180767102Y-82213036D01*
X180784415Y-82191327D01*
X180891327Y-82084415D01*
X180913036Y-82067102D01*
X181041061Y-81986659D01*
X181066078Y-81974611D01*
X181208798Y-81924671D01*
X181235869Y-81918493D01*
X181386116Y-81901564D01*
X181413884Y-81901564D01*
X181564130Y-81918493D01*
G37*
G36*
X173139107Y-99818314D02*
G01*
X173170374Y-99826692D01*
X173284917Y-99874137D01*
X173312950Y-99890322D01*
X173411312Y-99965797D01*
X173434202Y-99988687D01*
X173509677Y-100087049D01*
X173525862Y-100115082D01*
X173573307Y-100229625D01*
X173581685Y-100260892D01*
X173597869Y-100383814D01*
X173597869Y-100416186D01*
X173581685Y-100539107D01*
X173573307Y-100570374D01*
X173525862Y-100684917D01*
X173509677Y-100712950D01*
X173434202Y-100811312D01*
X173411312Y-100834202D01*
X173312950Y-100909677D01*
X173284917Y-100925862D01*
X173170374Y-100973307D01*
X173139107Y-100981685D01*
X173016186Y-100997869D01*
X172983814Y-100997869D01*
X172860892Y-100981685D01*
X172829625Y-100973307D01*
X172715082Y-100925862D01*
X172687049Y-100909677D01*
X172588687Y-100834202D01*
X172565797Y-100811312D01*
X172490322Y-100712950D01*
X172474137Y-100684917D01*
X172426692Y-100570374D01*
X172418314Y-100539107D01*
X172402130Y-100416186D01*
X172402130Y-100383814D01*
X172418314Y-100260892D01*
X172426692Y-100229625D01*
X172474137Y-100115082D01*
X172490322Y-100087049D01*
X172565797Y-99988687D01*
X172588687Y-99965797D01*
X172687049Y-99890322D01*
X172715082Y-99874137D01*
X172829625Y-99826692D01*
X172860892Y-99818314D01*
X172983814Y-99802130D01*
X173016186Y-99802130D01*
X173139107Y-99818314D01*
G37*
G36*
X174339107Y-101118314D02*
G01*
X174370374Y-101126692D01*
X174484917Y-101174137D01*
X174512950Y-101190322D01*
X174611312Y-101265797D01*
X174634202Y-101288687D01*
X174709677Y-101387049D01*
X174725862Y-101415082D01*
X174773307Y-101529625D01*
X174781685Y-101560892D01*
X174797869Y-101683814D01*
X174797869Y-101716186D01*
X174781685Y-101839107D01*
X174773307Y-101870374D01*
X174725862Y-101984917D01*
X174709677Y-102012950D01*
X174634202Y-102111312D01*
X174611312Y-102134202D01*
X174512950Y-102209677D01*
X174484917Y-102225862D01*
X174370374Y-102273307D01*
X174339107Y-102281685D01*
X174216186Y-102297869D01*
X174183814Y-102297869D01*
X174060892Y-102281685D01*
X174029625Y-102273307D01*
X173915082Y-102225862D01*
X173887049Y-102209677D01*
X173788687Y-102134202D01*
X173765797Y-102111312D01*
X173690322Y-102012950D01*
X173674137Y-101984917D01*
X173626692Y-101870374D01*
X173618314Y-101839107D01*
X173602130Y-101716186D01*
X173602130Y-101683814D01*
X173618314Y-101560892D01*
X173626692Y-101529625D01*
X173674137Y-101415082D01*
X173690322Y-101387049D01*
X173765797Y-101288687D01*
X173788687Y-101265797D01*
X173887049Y-101190322D01*
X173915082Y-101174137D01*
X174029625Y-101126692D01*
X174060892Y-101118314D01*
X174183814Y-101102130D01*
X174216186Y-101102130D01*
X174339107Y-101118314D01*
G37*
G36*
X178539107Y-87318314D02*
G01*
X178570374Y-87326692D01*
X178684917Y-87374137D01*
X178712950Y-87390322D01*
X178811312Y-87465797D01*
X178834202Y-87488687D01*
X178909677Y-87587049D01*
X178925862Y-87615082D01*
X178973307Y-87729625D01*
X178981685Y-87760892D01*
X178997869Y-87883814D01*
X178997869Y-87916186D01*
X178981685Y-88039107D01*
X178973307Y-88070374D01*
X178925862Y-88184917D01*
X178909677Y-88212950D01*
X178834202Y-88311312D01*
X178811312Y-88334202D01*
X178712950Y-88409677D01*
X178684917Y-88425862D01*
X178570374Y-88473307D01*
X178539107Y-88481685D01*
X178416186Y-88497869D01*
X178383814Y-88497869D01*
X178260892Y-88481685D01*
X178229625Y-88473307D01*
X178115082Y-88425862D01*
X178087049Y-88409677D01*
X177988687Y-88334202D01*
X177965797Y-88311312D01*
X177890322Y-88212950D01*
X177874137Y-88184917D01*
X177826692Y-88070374D01*
X177818314Y-88039107D01*
X177802130Y-87916186D01*
X177802130Y-87883814D01*
X177818314Y-87760892D01*
X177826692Y-87729625D01*
X177874137Y-87615082D01*
X177890322Y-87587049D01*
X177965797Y-87488687D01*
X177988687Y-87465797D01*
X178087049Y-87390322D01*
X178115082Y-87374137D01*
X178229625Y-87326692D01*
X178260892Y-87318314D01*
X178383814Y-87302130D01*
X178416186Y-87302130D01*
X178539107Y-87318314D01*
G37*
G36*
X155789130Y-108163493D02*
G01*
X155816201Y-108169671D01*
X155958921Y-108219611D01*
X155983938Y-108231659D01*
X156111963Y-108312102D01*
X156133672Y-108329415D01*
X156240584Y-108436327D01*
X156257897Y-108458036D01*
X156338340Y-108586061D01*
X156350388Y-108611078D01*
X156400328Y-108753798D01*
X156406506Y-108780869D01*
X156423435Y-108931116D01*
X156423435Y-108958884D01*
X156406506Y-109109130D01*
X156400328Y-109136201D01*
X156350388Y-109278921D01*
X156338340Y-109303938D01*
X156257897Y-109431963D01*
X156240584Y-109453672D01*
X156133672Y-109560584D01*
X156111963Y-109577897D01*
X155983938Y-109658340D01*
X155958921Y-109670388D01*
X155816201Y-109720328D01*
X155789130Y-109726506D01*
X155638884Y-109743435D01*
X155611116Y-109743435D01*
X155460869Y-109726506D01*
X155433798Y-109720328D01*
X155291078Y-109670388D01*
X155266061Y-109658340D01*
X155138036Y-109577897D01*
X155116327Y-109560584D01*
X155009415Y-109453672D01*
X154992102Y-109431963D01*
X154911659Y-109303938D01*
X154899611Y-109278921D01*
X154849671Y-109136201D01*
X154843493Y-109109130D01*
X154826564Y-108958884D01*
X154826564Y-108931116D01*
X154843493Y-108780869D01*
X154849671Y-108753798D01*
X154899611Y-108611078D01*
X154911659Y-108586061D01*
X154992102Y-108458036D01*
X155009415Y-108436327D01*
X155116327Y-108329415D01*
X155138036Y-108312102D01*
X155266061Y-108231659D01*
X155291078Y-108219611D01*
X155433798Y-108169671D01*
X155460869Y-108163493D01*
X155611116Y-108146564D01*
X155638884Y-108146564D01*
X155789130Y-108163493D01*
G37*
G36*
X170639107Y-104418314D02*
G01*
X170670374Y-104426692D01*
X170784917Y-104474137D01*
X170812950Y-104490322D01*
X170911312Y-104565797D01*
X170934202Y-104588687D01*
X171009677Y-104687049D01*
X171025862Y-104715082D01*
X171073307Y-104829625D01*
X171081685Y-104860892D01*
X171097869Y-104983814D01*
X171097869Y-105016186D01*
X171081685Y-105139107D01*
X171073307Y-105170374D01*
X171025862Y-105284917D01*
X171009677Y-105312950D01*
X170934202Y-105411312D01*
X170911312Y-105434202D01*
X170812950Y-105509677D01*
X170784917Y-105525862D01*
X170670374Y-105573307D01*
X170639107Y-105581685D01*
X170516186Y-105597869D01*
X170483814Y-105597869D01*
X170360892Y-105581685D01*
X170329625Y-105573307D01*
X170215082Y-105525862D01*
X170187049Y-105509677D01*
X170088687Y-105434202D01*
X170065797Y-105411312D01*
X169990322Y-105312950D01*
X169974137Y-105284917D01*
X169926692Y-105170374D01*
X169918314Y-105139107D01*
X169902130Y-105016186D01*
X169902130Y-104983814D01*
X169918314Y-104860892D01*
X169926692Y-104829625D01*
X169974137Y-104715082D01*
X169990322Y-104687049D01*
X170065797Y-104588687D01*
X170088687Y-104565797D01*
X170187049Y-104490322D01*
X170215082Y-104474137D01*
X170329625Y-104426692D01*
X170360892Y-104418314D01*
X170483814Y-104402130D01*
X170516186Y-104402130D01*
X170639107Y-104418314D01*
G37*
G36*
X145214130Y-50818493D02*
G01*
X145241201Y-50824671D01*
X145383921Y-50874611D01*
X145408938Y-50886659D01*
X145536963Y-50967102D01*
X145558672Y-50984415D01*
X145665584Y-51091327D01*
X145682897Y-51113036D01*
X145763340Y-51241061D01*
X145775388Y-51266078D01*
X145825328Y-51408798D01*
X145831506Y-51435869D01*
X145848435Y-51586116D01*
X145848435Y-51613884D01*
X145831506Y-51764130D01*
X145825328Y-51791201D01*
X145775388Y-51933921D01*
X145763340Y-51958938D01*
X145682897Y-52086963D01*
X145665584Y-52108672D01*
X145558672Y-52215584D01*
X145536963Y-52232897D01*
X145408938Y-52313340D01*
X145383921Y-52325388D01*
X145241201Y-52375328D01*
X145214130Y-52381506D01*
X145063884Y-52398435D01*
X145036116Y-52398435D01*
X144885869Y-52381506D01*
X144858798Y-52375328D01*
X144716078Y-52325388D01*
X144691061Y-52313340D01*
X144563036Y-52232897D01*
X144541327Y-52215584D01*
X144434415Y-52108672D01*
X144417102Y-52086963D01*
X144336659Y-51958938D01*
X144324611Y-51933921D01*
X144274671Y-51791201D01*
X144268493Y-51764130D01*
X144251564Y-51613884D01*
X144251564Y-51586116D01*
X144268493Y-51435869D01*
X144274671Y-51408798D01*
X144324611Y-51266078D01*
X144336659Y-51241061D01*
X144417102Y-51113036D01*
X144434415Y-51091327D01*
X144541327Y-50984415D01*
X144563036Y-50967102D01*
X144691061Y-50886659D01*
X144716078Y-50874611D01*
X144858798Y-50824671D01*
X144885869Y-50818493D01*
X145036116Y-50801564D01*
X145063884Y-50801564D01*
X145214130Y-50818493D01*
G37*
G36*
X169339107Y-104468314D02*
G01*
X169370374Y-104476692D01*
X169484917Y-104524137D01*
X169512950Y-104540322D01*
X169611312Y-104615797D01*
X169634202Y-104638687D01*
X169709677Y-104737049D01*
X169725862Y-104765082D01*
X169773307Y-104879625D01*
X169781685Y-104910892D01*
X169797869Y-105033814D01*
X169797869Y-105066186D01*
X169781685Y-105189107D01*
X169773307Y-105220374D01*
X169725862Y-105334917D01*
X169709677Y-105362950D01*
X169634202Y-105461312D01*
X169611312Y-105484202D01*
X169512950Y-105559677D01*
X169484917Y-105575862D01*
X169370374Y-105623307D01*
X169339107Y-105631685D01*
X169216186Y-105647869D01*
X169183814Y-105647869D01*
X169060892Y-105631685D01*
X169029625Y-105623307D01*
X168915082Y-105575862D01*
X168887049Y-105559677D01*
X168788687Y-105484202D01*
X168765797Y-105461312D01*
X168690322Y-105362950D01*
X168674137Y-105334917D01*
X168626692Y-105220374D01*
X168618314Y-105189107D01*
X168602130Y-105066186D01*
X168602130Y-105033814D01*
X168618314Y-104910892D01*
X168626692Y-104879625D01*
X168674137Y-104765082D01*
X168690322Y-104737049D01*
X168765797Y-104638687D01*
X168788687Y-104615797D01*
X168887049Y-104540322D01*
X168915082Y-104524137D01*
X169029625Y-104476692D01*
X169060892Y-104468314D01*
X169183814Y-104452130D01*
X169216186Y-104452130D01*
X169339107Y-104468314D01*
G37*
G36*
X160589130Y-108163493D02*
G01*
X160616201Y-108169671D01*
X160758921Y-108219611D01*
X160783938Y-108231659D01*
X160911963Y-108312102D01*
X160933672Y-108329415D01*
X161040584Y-108436327D01*
X161057897Y-108458036D01*
X161138340Y-108586061D01*
X161150388Y-108611078D01*
X161200328Y-108753798D01*
X161206506Y-108780869D01*
X161223435Y-108931116D01*
X161223435Y-108958884D01*
X161206506Y-109109130D01*
X161200328Y-109136201D01*
X161150388Y-109278921D01*
X161138340Y-109303938D01*
X161057897Y-109431963D01*
X161040584Y-109453672D01*
X160933672Y-109560584D01*
X160911963Y-109577897D01*
X160783938Y-109658340D01*
X160758921Y-109670388D01*
X160616201Y-109720328D01*
X160589130Y-109726506D01*
X160438884Y-109743435D01*
X160411116Y-109743435D01*
X160260869Y-109726506D01*
X160233798Y-109720328D01*
X160091078Y-109670388D01*
X160066061Y-109658340D01*
X159938036Y-109577897D01*
X159916327Y-109560584D01*
X159809415Y-109453672D01*
X159792102Y-109431963D01*
X159711659Y-109303938D01*
X159699611Y-109278921D01*
X159649671Y-109136201D01*
X159643493Y-109109130D01*
X159626564Y-108958884D01*
X159626564Y-108931116D01*
X159643493Y-108780869D01*
X159649671Y-108753798D01*
X159699611Y-108611078D01*
X159711659Y-108586061D01*
X159792102Y-108458036D01*
X159809415Y-108436327D01*
X159916327Y-108329415D01*
X159938036Y-108312102D01*
X160066061Y-108231659D01*
X160091078Y-108219611D01*
X160233798Y-108169671D01*
X160260869Y-108163493D01*
X160411116Y-108146564D01*
X160438884Y-108146564D01*
X160589130Y-108163493D01*
G37*
G36*
X179064130Y-81918493D02*
G01*
X179091201Y-81924671D01*
X179233921Y-81974611D01*
X179258938Y-81986659D01*
X179386963Y-82067102D01*
X179408672Y-82084415D01*
X179515584Y-82191327D01*
X179532897Y-82213036D01*
X179613340Y-82341061D01*
X179625388Y-82366078D01*
X179675328Y-82508798D01*
X179681506Y-82535869D01*
X179698435Y-82686116D01*
X179698435Y-82713884D01*
X179681506Y-82864130D01*
X179675328Y-82891201D01*
X179625388Y-83033921D01*
X179613340Y-83058938D01*
X179532897Y-83186963D01*
X179515584Y-83208672D01*
X179408672Y-83315584D01*
X179386963Y-83332897D01*
X179258938Y-83413340D01*
X179233921Y-83425388D01*
X179091201Y-83475328D01*
X179064130Y-83481506D01*
X178913884Y-83498435D01*
X178886116Y-83498435D01*
X178735869Y-83481506D01*
X178708798Y-83475328D01*
X178566078Y-83425388D01*
X178541061Y-83413340D01*
X178413036Y-83332897D01*
X178391327Y-83315584D01*
X178284415Y-83208672D01*
X178267102Y-83186963D01*
X178186659Y-83058938D01*
X178174611Y-83033921D01*
X178124671Y-82891201D01*
X178118493Y-82864130D01*
X178101564Y-82713884D01*
X178101564Y-82686116D01*
X178118493Y-82535869D01*
X178124671Y-82508798D01*
X178174611Y-82366078D01*
X178186659Y-82341061D01*
X178267102Y-82213036D01*
X178284415Y-82191327D01*
X178391327Y-82084415D01*
X178413036Y-82067102D01*
X178541061Y-81986659D01*
X178566078Y-81974611D01*
X178708798Y-81924671D01*
X178735869Y-81918493D01*
X178886116Y-81901564D01*
X178913884Y-81901564D01*
X179064130Y-81918493D01*
G37*
G36*
X176664130Y-81918493D02*
G01*
X176691201Y-81924671D01*
X176833921Y-81974611D01*
X176858938Y-81986659D01*
X176986963Y-82067102D01*
X177008672Y-82084415D01*
X177115584Y-82191327D01*
X177132897Y-82213036D01*
X177213340Y-82341061D01*
X177225388Y-82366078D01*
X177275328Y-82508798D01*
X177281506Y-82535869D01*
X177298435Y-82686116D01*
X177298435Y-82713884D01*
X177281506Y-82864130D01*
X177275328Y-82891201D01*
X177225388Y-83033921D01*
X177213340Y-83058938D01*
X177132897Y-83186963D01*
X177115584Y-83208672D01*
X177008672Y-83315584D01*
X176986963Y-83332897D01*
X176858938Y-83413340D01*
X176833921Y-83425388D01*
X176691201Y-83475328D01*
X176664130Y-83481506D01*
X176513884Y-83498435D01*
X176486116Y-83498435D01*
X176335869Y-83481506D01*
X176308798Y-83475328D01*
X176166078Y-83425388D01*
X176141061Y-83413340D01*
X176013036Y-83332897D01*
X175991327Y-83315584D01*
X175884415Y-83208672D01*
X175867102Y-83186963D01*
X175786659Y-83058938D01*
X175774611Y-83033921D01*
X175724671Y-82891201D01*
X175718493Y-82864130D01*
X175701564Y-82713884D01*
X175701564Y-82686116D01*
X175718493Y-82535869D01*
X175724671Y-82508798D01*
X175774611Y-82366078D01*
X175786659Y-82341061D01*
X175867102Y-82213036D01*
X175884415Y-82191327D01*
X175991327Y-82084415D01*
X176013036Y-82067102D01*
X176141061Y-81986659D01*
X176166078Y-81974611D01*
X176308798Y-81924671D01*
X176335869Y-81918493D01*
X176486116Y-81901564D01*
X176513884Y-81901564D01*
X176664130Y-81918493D01*
G37*
G36*
X174389107Y-103318314D02*
G01*
X174420374Y-103326692D01*
X174534917Y-103374137D01*
X174562950Y-103390322D01*
X174661312Y-103465797D01*
X174684202Y-103488687D01*
X174759677Y-103587049D01*
X174775862Y-103615082D01*
X174823307Y-103729625D01*
X174831685Y-103760892D01*
X174847869Y-103883814D01*
X174847869Y-103916186D01*
X174831685Y-104039107D01*
X174823307Y-104070374D01*
X174775862Y-104184917D01*
X174759677Y-104212950D01*
X174684202Y-104311312D01*
X174661312Y-104334202D01*
X174562950Y-104409677D01*
X174534917Y-104425862D01*
X174420374Y-104473307D01*
X174389107Y-104481685D01*
X174266186Y-104497869D01*
X174233814Y-104497869D01*
X174110892Y-104481685D01*
X174079625Y-104473307D01*
X173965082Y-104425862D01*
X173937049Y-104409677D01*
X173838687Y-104334202D01*
X173815797Y-104311312D01*
X173740322Y-104212950D01*
X173724137Y-104184917D01*
X173676692Y-104070374D01*
X173668314Y-104039107D01*
X173652130Y-103916186D01*
X173652130Y-103883814D01*
X173668314Y-103760892D01*
X173676692Y-103729625D01*
X173724137Y-103615082D01*
X173740322Y-103587049D01*
X173815797Y-103488687D01*
X173838687Y-103465797D01*
X173937049Y-103390322D01*
X173965082Y-103374137D01*
X174079625Y-103326692D01*
X174110892Y-103318314D01*
X174233814Y-103302130D01*
X174266186Y-103302130D01*
X174389107Y-103318314D01*
G37*
G36*
X147164130Y-50768493D02*
G01*
X147191201Y-50774671D01*
X147333921Y-50824611D01*
X147358938Y-50836659D01*
X147486963Y-50917102D01*
X147508672Y-50934415D01*
X147615584Y-51041327D01*
X147632897Y-51063036D01*
X147713340Y-51191061D01*
X147725388Y-51216078D01*
X147775328Y-51358798D01*
X147781506Y-51385869D01*
X147798435Y-51536116D01*
X147798435Y-51563884D01*
X147781506Y-51714130D01*
X147775328Y-51741201D01*
X147725388Y-51883921D01*
X147713340Y-51908938D01*
X147632897Y-52036963D01*
X147615584Y-52058672D01*
X147508672Y-52165584D01*
X147486963Y-52182897D01*
X147358938Y-52263340D01*
X147333921Y-52275388D01*
X147191201Y-52325328D01*
X147164130Y-52331506D01*
X147013884Y-52348435D01*
X146986116Y-52348435D01*
X146835869Y-52331506D01*
X146808798Y-52325328D01*
X146666078Y-52275388D01*
X146641061Y-52263340D01*
X146513036Y-52182897D01*
X146491327Y-52165584D01*
X146384415Y-52058672D01*
X146367102Y-52036963D01*
X146286659Y-51908938D01*
X146274611Y-51883921D01*
X146224671Y-51741201D01*
X146218493Y-51714130D01*
X146201564Y-51563884D01*
X146201564Y-51536116D01*
X146218493Y-51385869D01*
X146224671Y-51358798D01*
X146274611Y-51216078D01*
X146286659Y-51191061D01*
X146367102Y-51063036D01*
X146384415Y-51041327D01*
X146491327Y-50934415D01*
X146513036Y-50917102D01*
X146641061Y-50836659D01*
X146666078Y-50824611D01*
X146808798Y-50774671D01*
X146835869Y-50768493D01*
X146986116Y-50751564D01*
X147013884Y-50751564D01*
X147164130Y-50768493D01*
G37*
M02*
