%TF.GenerationSoftware,KiCad,Pcbnew,9.0.5*%
%TF.CreationDate,2025-10-24T21:19:20-07:00*%
%TF.ProjectId,Sending Pebble,53656e64-696e-4672-9050-6562626c652e,rev?*%
%TF.SameCoordinates,Original*%
%TF.FileFunction,Profile,NP*%
%FSLAX46Y46*%
G04 Gerber Fmt 4.6, Leading zero omitted, Abs format (unit mm)*
G04 Created by KiCad (PCBNEW 9.0.5) date 2025-10-24 21:19:20*
%MOMM*%
%LPD*%
G01*
G04 APERTURE LIST*
%ADD10C,0.050000*%
%TA.AperFunction,Profile*%
%ADD11C,0.050000*%
%TD*%
G04 APERTURE END LIST*
D10*
X111900000Y-61600000D02*
X111900010Y-61589056D01*
X111900040Y-61578131D01*
X111900090Y-61567227D01*
X111900160Y-61556342D01*
X111900249Y-61545477D01*
X111900359Y-61534632D01*
X111900488Y-61523807D01*
X111900637Y-61513002D01*
X111900806Y-61502216D01*
X111900994Y-61491450D01*
X111901202Y-61480704D01*
X111901430Y-61469977D01*
X111901677Y-61459270D01*
X111901943Y-61448583D01*
X111902230Y-61437915D01*
X111902535Y-61427266D01*
X111902860Y-61416637D01*
X111903205Y-61406027D01*
X111903569Y-61395437D01*
X111903952Y-61384866D01*
X111904355Y-61374314D01*
X111904776Y-61363782D01*
X111905217Y-61353268D01*
X111905678Y-61342775D01*
X111906157Y-61332300D01*
X111906655Y-61321844D01*
X111907173Y-61311407D01*
X111907709Y-61300990D01*
X111908265Y-61290591D01*
X111908840Y-61280211D01*
X111909433Y-61269850D01*
X111910046Y-61259509D01*
X111910677Y-61249186D01*
X111911328Y-61238882D01*
X111911997Y-61228596D01*
X111912685Y-61218330D01*
X111913391Y-61208082D01*
X111914117Y-61197853D01*
X111914861Y-61187642D01*
X111915624Y-61177451D01*
X111916405Y-61167277D01*
X111917205Y-61157123D01*
X111918024Y-61146986D01*
X111918861Y-61136869D01*
X111919717Y-61126769D01*
X111920591Y-61116688D01*
X111921484Y-61106626D01*
X111922395Y-61096582D01*
X111923325Y-61086556D01*
X111924273Y-61076548D01*
X111925239Y-61066559D01*
X111926223Y-61056588D01*
X111927226Y-61046635D01*
X111928247Y-61036700D01*
X111929287Y-61026783D01*
X111930344Y-61016885D01*
X111931420Y-61007004D01*
X111932514Y-60997142D01*
X111933626Y-60987296D01*
X111934756Y-60977470D01*
X111935904Y-60967661D01*
X111937070Y-60957871D01*
X111938254Y-60948097D01*
X111939456Y-60938342D01*
X111940676Y-60928604D01*
X111941914Y-60918885D01*
X111943170Y-60909182D01*
X111944443Y-60899498D01*
X111945735Y-60889830D01*
X111947044Y-60880182D01*
X111948371Y-60870549D01*
X111949716Y-60860936D01*
X111951079Y-60851338D01*
X111952459Y-60841760D01*
X111953857Y-60832197D01*
X111955272Y-60822654D01*
X111956706Y-60813126D01*
X111958156Y-60803617D01*
X111959625Y-60794123D01*
X111961111Y-60784649D01*
X111962614Y-60775190D01*
X111964135Y-60765750D01*
X111965674Y-60756326D01*
X111967229Y-60746920D01*
X111968803Y-60737530D01*
X111970393Y-60728158D01*
X111972002Y-60718802D01*
X111973627Y-60709465D01*
X111975270Y-60700142D01*
X111976930Y-60690839D01*
X111978607Y-60681550D01*
X111980301Y-60672281D01*
X111982013Y-60663026D01*
X111983742Y-60653790D01*
X111985489Y-60644568D01*
X111987252Y-60635366D01*
X111989033Y-60626178D01*
X111990830Y-60617009D01*
X111992645Y-60607854D01*
X111994476Y-60598718D01*
X111996325Y-60589597D01*
X111998191Y-60580494D01*
X112000074Y-60571406D01*
X112001974Y-60562336D01*
X112003891Y-60553281D01*
X112005825Y-60544244D01*
X112007775Y-60535221D01*
X112009743Y-60526217D01*
X112011728Y-60517227D01*
X112013729Y-60508255D01*
X112015747Y-60499298D01*
X112017782Y-60490359D01*
X112019834Y-60481434D01*
X112021902Y-60472527D01*
X112023988Y-60463634D01*
X112026090Y-60454760D01*
X112028209Y-60445899D01*
X112030344Y-60437057D01*
X112032497Y-60428229D01*
X112034665Y-60419418D01*
X112036851Y-60410622D01*
X112039053Y-60401844D01*
X112041272Y-60393079D01*
X112043507Y-60384332D01*
X112045759Y-60375599D01*
X112048027Y-60366884D01*
X112050313Y-60358182D01*
X112052614Y-60349499D01*
X112054932Y-60340829D01*
X112057266Y-60332177D01*
X112059618Y-60323538D01*
X112061985Y-60314917D01*
X112064369Y-60306310D01*
X112066769Y-60297720D01*
X112069186Y-60289143D01*
X112071619Y-60280585D01*
X112074069Y-60272039D01*
X112076534Y-60263512D01*
X112079016Y-60254997D01*
X112081515Y-60246500D01*
X112084030Y-60238016D01*
X112086560Y-60229550D01*
X112089108Y-60221097D01*
X112091671Y-60212661D01*
X112094252Y-60204238D01*
X112096847Y-60195833D01*
X112099460Y-60187441D01*
X112102088Y-60179066D01*
X112104733Y-60170704D01*
X112107393Y-60162359D01*
X112112764Y-60145713D01*
X112118198Y-60129127D01*
X112123697Y-60112600D01*
X112129261Y-60096133D01*
X112134889Y-60079726D01*
X112140580Y-60063377D01*
X112146336Y-60047088D01*
X112152156Y-60030857D01*
X112158040Y-60014685D01*
X112163987Y-59998571D01*
X112169998Y-59982515D01*
X112176073Y-59966517D01*
X112182211Y-59950577D01*
X112188412Y-59934695D01*
X112194677Y-59918869D01*
X112201006Y-59903101D01*
X112207397Y-59887389D01*
X112213852Y-59871734D01*
X112220370Y-59856136D01*
X112226951Y-59840594D01*
X112233594Y-59825108D01*
X112240301Y-59809677D01*
X112247071Y-59794303D01*
X112253903Y-59778984D01*
X112260798Y-59763720D01*
X112267756Y-59748511D01*
X112274777Y-59733357D01*
X112281860Y-59718258D01*
X112289006Y-59703214D01*
X112296214Y-59688224D01*
X112303485Y-59673288D01*
X112310819Y-59658406D01*
X112318215Y-59643578D01*
X112325674Y-59628804D01*
X112333194Y-59614083D01*
X112340778Y-59599415D01*
X112348424Y-59584801D01*
X112356132Y-59570239D01*
X112363902Y-59555731D01*
X112371735Y-59541275D01*
X112379631Y-59526871D01*
X112387588Y-59512520D01*
X112395608Y-59498221D01*
X112403691Y-59483975D01*
X112411836Y-59469780D01*
X112420043Y-59455637D01*
X112428312Y-59441545D01*
X112436644Y-59427505D01*
X112445039Y-59413516D01*
X112453496Y-59399578D01*
X112462015Y-59385692D01*
X112470597Y-59371856D01*
X112479241Y-59358071D01*
X112487947Y-59344336D01*
X112496717Y-59330652D01*
X112505549Y-59317019D01*
X112514443Y-59303435D01*
X112523400Y-59289902D01*
X112532420Y-59276419D01*
X112541502Y-59262986D01*
X112550648Y-59249602D01*
X112559856Y-59236268D01*
X112569126Y-59222983D01*
X112578460Y-59209748D01*
X112587857Y-59196563D01*
X112597317Y-59183426D01*
X112606839Y-59170338D01*
X112616425Y-59157300D01*
X112626074Y-59144310D01*
X112635786Y-59131370D01*
X112645562Y-59118478D01*
X112655401Y-59105634D01*
X112665303Y-59092839D01*
X112675269Y-59080093D01*
X112685298Y-59067395D01*
X112695391Y-59054745D01*
X112705547Y-59042143D01*
X112715768Y-59029590D01*
X112726052Y-59017084D01*
X112736400Y-59004627D01*
X112746812Y-58992217D01*
X112757288Y-58979855D01*
X112767829Y-58967541D01*
X112778433Y-58955275D01*
X112789102Y-58943057D01*
X112799835Y-58930886D01*
X112810633Y-58918762D01*
X112821496Y-58906687D01*
X112832423Y-58894658D01*
X112843415Y-58882677D01*
X112854472Y-58870744D01*
X112865593Y-58858858D01*
X112876780Y-58847019D01*
X112888032Y-58835227D01*
X112899350Y-58823483D01*
X112910732Y-58811786D01*
X112922180Y-58800136D01*
X112933694Y-58788533D01*
X112945274Y-58776977D01*
X112956919Y-58765469D01*
X112968630Y-58754007D01*
X112980407Y-58742593D01*
X112992250Y-58731226D01*
X113004159Y-58719906D01*
X113016135Y-58708633D01*
X113028177Y-58697407D01*
X113040286Y-58686229D01*
X113052461Y-58675097D01*
X113064703Y-58664013D01*
X113077012Y-58652975D01*
X113089388Y-58641985D01*
X113101831Y-58631042D01*
X113114342Y-58620147D01*
X113126919Y-58609298D01*
X113139564Y-58598497D01*
X113152277Y-58587743D01*
X113165057Y-58577036D01*
X113177905Y-58566377D01*
X113190820Y-58555765D01*
X113203804Y-58545201D01*
X113216856Y-58534684D01*
X113229976Y-58524214D01*
X113243165Y-58513793D01*
X113256421Y-58503419D01*
X113269747Y-58493092D01*
X113283141Y-58482814D01*
X113296603Y-58472583D01*
X113310135Y-58462400D01*
X113323736Y-58452265D01*
X113337405Y-58442178D01*
X113351144Y-58432140D01*
X113364952Y-58422149D01*
X113378829Y-58412207D01*
X113392776Y-58402314D01*
X113406793Y-58392469D01*
X113420879Y-58382672D01*
X113435035Y-58372924D01*
X113449260Y-58363225D01*
X113463556Y-58353575D01*
X113477921Y-58343974D01*
X113492357Y-58334422D01*
X113506863Y-58324919D01*
X113521439Y-58315465D01*
X113536086Y-58306062D01*
X113550803Y-58296707D01*
X113565590Y-58287403D01*
X113580448Y-58278148D01*
X113595376Y-58268943D01*
X113610376Y-58259789D01*
X113625446Y-58250684D01*
X113640586Y-58241631D01*
X113655798Y-58232627D01*
X113671081Y-58223675D01*
X113686434Y-58214773D01*
X113701858Y-58205923D01*
X113717354Y-58197123D01*
X113732920Y-58188375D01*
X113748558Y-58179679D01*
X113764266Y-58171035D01*
X113780046Y-58162442D01*
X113795897Y-58153901D01*
X113811818Y-58145413D01*
X113827811Y-58136977D01*
X113843875Y-58128594D01*
X113860010Y-58120264D01*
X113876216Y-58111987D01*
X113892493Y-58103763D01*
X113908841Y-58095592D01*
X113925260Y-58087476D01*
X113941750Y-58079413D01*
X113958310Y-58071404D01*
X113974941Y-58063450D01*
X113991643Y-58055550D01*
X114008416Y-58047706D01*
X114025258Y-58039916D01*
X114042172Y-58032181D01*
X114059155Y-58024502D01*
X114076209Y-58016879D01*
X114093332Y-58009312D01*
X114110525Y-58001801D01*
X114127788Y-57994347D01*
X114145120Y-57986950D01*
X114162522Y-57979609D01*
X114179992Y-57972326D01*
X114197532Y-57965101D01*
X114215140Y-57957934D01*
X114232816Y-57950824D01*
X114250561Y-57943774D01*
X114268373Y-57936782D01*
X114286253Y-57929849D01*
X114304199Y-57922975D01*
X114322213Y-57916161D01*
X114340294Y-57909408D01*
X114358440Y-57902714D01*
X114376652Y-57896081D01*
X114394930Y-57889509D01*
X114413272Y-57882999D01*
X114431679Y-57876550D01*
X114450150Y-57870162D01*
X114468684Y-57863838D01*
X114487282Y-57857575D01*
X114505941Y-57851376D01*
X114524663Y-57845240D01*
X114543445Y-57839168D01*
X114562288Y-57833160D01*
X114581191Y-57827217D01*
X114600153Y-57821338D01*
X114619173Y-57815524D01*
X114638251Y-57809776D01*
X114657386Y-57804094D01*
X114676577Y-57798479D01*
X114695822Y-57792930D01*
X114715122Y-57787448D01*
X114734474Y-57782034D01*
X114753879Y-57776688D01*
X114773334Y-57771410D01*
X114792840Y-57766201D01*
X114812393Y-57761062D01*
X114831994Y-57755992D01*
X114851642Y-57750992D01*
X114871333Y-57746063D01*
X114891068Y-57741205D01*
X114910844Y-57736419D01*
X114930661Y-57731704D01*
X114950515Y-57727062D01*
X114970406Y-57722493D01*
X114990332Y-57717998D01*
X115010291Y-57713576D01*
X115030280Y-57709229D01*
X115050298Y-57704957D01*
X115070342Y-57700760D01*
X115090410Y-57696639D01*
X115110499Y-57692595D01*
X115130607Y-57688628D01*
X115150731Y-57684739D01*
X115170868Y-57680927D01*
X115191014Y-57677195D01*
X115211167Y-57673541D01*
X115231324Y-57669968D01*
X115251479Y-57666475D01*
X115271630Y-57663063D01*
X115291773Y-57659732D01*
X115311902Y-57656484D01*
X115332014Y-57653319D01*
X115352103Y-57650237D01*
X115372163Y-57647239D01*
X115392191Y-57644326D01*
X115412178Y-57641499D01*
X115432119Y-57638758D01*
X115452007Y-57636103D01*
X115471834Y-57633536D01*
X115491593Y-57631057D01*
X115511274Y-57628667D01*
X115530869Y-57626366D01*
X115550366Y-57624156D01*
X115569756Y-57622037D01*
X115589025Y-57620010D01*
X115608160Y-57618075D01*
X115627148Y-57616234D01*
X115645971Y-57614487D01*
X115664611Y-57612835D01*
X115683050Y-57611279D01*
X115701264Y-57609820D01*
X115719227Y-57608458D01*
X115736911Y-57607195D01*
X115754281Y-57606031D01*
X115771300Y-57604967D01*
X115787920Y-57604004D01*
X115804086Y-57603144D01*
X115819729Y-57602386D01*
X115834766Y-57601733D01*
X115849084Y-57601183D01*
X115862534Y-57600740D01*
X115874899Y-57600401D01*
X115885835Y-57600168D01*
X115894705Y-57600038D01*
X115900000Y-57600000D01*
X157900000Y-57600000D02*
X157910944Y-57600010D01*
X157921869Y-57600040D01*
X157932773Y-57600090D01*
X157943658Y-57600160D01*
X157954523Y-57600249D01*
X157965368Y-57600359D01*
X157976193Y-57600488D01*
X157986998Y-57600637D01*
X157997784Y-57600806D01*
X158008550Y-57600994D01*
X158019296Y-57601202D01*
X158030023Y-57601430D01*
X158040730Y-57601677D01*
X158051417Y-57601943D01*
X158062085Y-57602230D01*
X158072734Y-57602535D01*
X158083363Y-57602860D01*
X158093973Y-57603205D01*
X158104563Y-57603569D01*
X158115134Y-57603952D01*
X158125686Y-57604355D01*
X158136218Y-57604776D01*
X158146732Y-57605217D01*
X158157225Y-57605678D01*
X158167700Y-57606157D01*
X158178156Y-57606655D01*
X158188593Y-57607173D01*
X158199010Y-57607709D01*
X158209409Y-57608265D01*
X158219789Y-57608840D01*
X158230150Y-57609433D01*
X158240491Y-57610046D01*
X158250814Y-57610677D01*
X158261118Y-57611328D01*
X158271404Y-57611997D01*
X158281670Y-57612685D01*
X158291918Y-57613391D01*
X158302147Y-57614117D01*
X158312358Y-57614861D01*
X158322549Y-57615624D01*
X158332723Y-57616405D01*
X158342877Y-57617205D01*
X158353014Y-57618024D01*
X158363131Y-57618861D01*
X158373231Y-57619717D01*
X158383312Y-57620591D01*
X158393374Y-57621484D01*
X158403418Y-57622395D01*
X158413444Y-57623325D01*
X158423452Y-57624273D01*
X158433441Y-57625239D01*
X158443412Y-57626223D01*
X158453365Y-57627226D01*
X158463300Y-57628247D01*
X158473217Y-57629287D01*
X158483115Y-57630344D01*
X158492996Y-57631420D01*
X158502858Y-57632514D01*
X158512704Y-57633626D01*
X158522530Y-57634756D01*
X158532339Y-57635904D01*
X158542129Y-57637070D01*
X158551903Y-57638254D01*
X158561658Y-57639456D01*
X158571396Y-57640676D01*
X158581115Y-57641914D01*
X158590818Y-57643170D01*
X158600502Y-57644443D01*
X158610170Y-57645735D01*
X158619818Y-57647044D01*
X158629451Y-57648371D01*
X158639064Y-57649716D01*
X158648662Y-57651079D01*
X158658240Y-57652459D01*
X158667803Y-57653857D01*
X158677346Y-57655272D01*
X158686874Y-57656706D01*
X158696383Y-57658156D01*
X158705877Y-57659625D01*
X158715351Y-57661111D01*
X158724810Y-57662614D01*
X158734250Y-57664135D01*
X158743674Y-57665674D01*
X158753080Y-57667229D01*
X158762470Y-57668803D01*
X158771842Y-57670393D01*
X158781198Y-57672002D01*
X158790535Y-57673627D01*
X158799858Y-57675270D01*
X158809161Y-57676930D01*
X158818450Y-57678607D01*
X158827719Y-57680301D01*
X158836974Y-57682013D01*
X158846210Y-57683742D01*
X158855432Y-57685489D01*
X158864634Y-57687252D01*
X158873822Y-57689033D01*
X158882991Y-57690830D01*
X158892146Y-57692645D01*
X158901282Y-57694476D01*
X158910403Y-57696325D01*
X158919506Y-57698191D01*
X158928594Y-57700074D01*
X158937664Y-57701974D01*
X158946719Y-57703891D01*
X158955756Y-57705825D01*
X158964779Y-57707775D01*
X158973783Y-57709743D01*
X158982773Y-57711728D01*
X158991745Y-57713729D01*
X159000702Y-57715747D01*
X159009641Y-57717782D01*
X159018566Y-57719834D01*
X159027473Y-57721902D01*
X159036366Y-57723988D01*
X159045240Y-57726090D01*
X159054101Y-57728209D01*
X159062943Y-57730344D01*
X159071771Y-57732497D01*
X159080582Y-57734665D01*
X159089378Y-57736851D01*
X159098156Y-57739053D01*
X159106921Y-57741272D01*
X159115668Y-57743507D01*
X159124401Y-57745759D01*
X159133116Y-57748027D01*
X159141818Y-57750313D01*
X159150501Y-57752614D01*
X159159171Y-57754932D01*
X159167823Y-57757266D01*
X159176462Y-57759618D01*
X159185083Y-57761985D01*
X159193690Y-57764369D01*
X159202280Y-57766769D01*
X159210857Y-57769186D01*
X159219415Y-57771619D01*
X159227961Y-57774069D01*
X159236488Y-57776534D01*
X159245003Y-57779016D01*
X159253500Y-57781515D01*
X159261984Y-57784030D01*
X159270450Y-57786560D01*
X159278903Y-57789108D01*
X159287339Y-57791671D01*
X159295762Y-57794252D01*
X159304167Y-57796847D01*
X159312559Y-57799460D01*
X159320934Y-57802088D01*
X159329296Y-57804733D01*
X159337641Y-57807393D01*
X159354287Y-57812764D01*
X159370873Y-57818198D01*
X159387400Y-57823697D01*
X159403867Y-57829261D01*
X159420274Y-57834889D01*
X159436623Y-57840580D01*
X159452912Y-57846336D01*
X159469143Y-57852156D01*
X159485315Y-57858040D01*
X159501429Y-57863987D01*
X159517485Y-57869998D01*
X159533483Y-57876073D01*
X159549423Y-57882211D01*
X159565305Y-57888412D01*
X159581131Y-57894677D01*
X159596899Y-57901006D01*
X159612611Y-57907397D01*
X159628266Y-57913852D01*
X159643864Y-57920370D01*
X159659406Y-57926951D01*
X159674892Y-57933594D01*
X159690323Y-57940301D01*
X159705697Y-57947071D01*
X159721016Y-57953903D01*
X159736280Y-57960798D01*
X159751489Y-57967756D01*
X159766643Y-57974777D01*
X159781742Y-57981860D01*
X159796786Y-57989006D01*
X159811776Y-57996214D01*
X159826712Y-58003485D01*
X159841594Y-58010819D01*
X159856422Y-58018215D01*
X159871196Y-58025674D01*
X159885917Y-58033194D01*
X159900585Y-58040778D01*
X159915199Y-58048424D01*
X159929761Y-58056132D01*
X159944269Y-58063902D01*
X159958725Y-58071735D01*
X159973129Y-58079631D01*
X159987480Y-58087588D01*
X160001779Y-58095608D01*
X160016025Y-58103691D01*
X160030220Y-58111836D01*
X160044363Y-58120043D01*
X160058455Y-58128312D01*
X160072495Y-58136644D01*
X160086484Y-58145039D01*
X160100422Y-58153496D01*
X160114308Y-58162015D01*
X160128144Y-58170597D01*
X160141929Y-58179241D01*
X160155664Y-58187947D01*
X160169348Y-58196717D01*
X160182981Y-58205549D01*
X160196565Y-58214443D01*
X160210098Y-58223400D01*
X160223581Y-58232420D01*
X160237014Y-58241502D01*
X160250398Y-58250648D01*
X160263732Y-58259856D01*
X160277017Y-58269126D01*
X160290252Y-58278460D01*
X160303437Y-58287857D01*
X160316574Y-58297317D01*
X160329662Y-58306839D01*
X160342700Y-58316425D01*
X160355690Y-58326074D01*
X160368630Y-58335786D01*
X160381522Y-58345562D01*
X160394366Y-58355401D01*
X160407161Y-58365303D01*
X160419907Y-58375269D01*
X160432605Y-58385298D01*
X160445255Y-58395391D01*
X160457857Y-58405547D01*
X160470410Y-58415768D01*
X160482916Y-58426052D01*
X160495373Y-58436400D01*
X160507783Y-58446812D01*
X160520145Y-58457288D01*
X160532459Y-58467829D01*
X160544725Y-58478433D01*
X160556943Y-58489102D01*
X160569114Y-58499835D01*
X160581238Y-58510633D01*
X160593313Y-58521496D01*
X160605342Y-58532423D01*
X160617323Y-58543415D01*
X160629256Y-58554472D01*
X160641142Y-58565593D01*
X160652981Y-58576780D01*
X160664773Y-58588032D01*
X160676517Y-58599350D01*
X160688214Y-58610732D01*
X160699864Y-58622180D01*
X160711467Y-58633694D01*
X160723023Y-58645274D01*
X160734531Y-58656919D01*
X160745993Y-58668630D01*
X160757407Y-58680407D01*
X160768774Y-58692250D01*
X160780094Y-58704159D01*
X160791367Y-58716135D01*
X160802593Y-58728177D01*
X160813771Y-58740286D01*
X160824903Y-58752461D01*
X160835987Y-58764703D01*
X160847025Y-58777012D01*
X160858015Y-58789388D01*
X160868958Y-58801831D01*
X160879853Y-58814342D01*
X160890702Y-58826919D01*
X160901503Y-58839564D01*
X160912257Y-58852277D01*
X160922964Y-58865057D01*
X160933623Y-58877905D01*
X160944235Y-58890820D01*
X160954799Y-58903804D01*
X160965316Y-58916856D01*
X160975786Y-58929976D01*
X160986207Y-58943165D01*
X160996581Y-58956421D01*
X161006908Y-58969747D01*
X161017186Y-58983141D01*
X161027417Y-58996603D01*
X161037600Y-59010135D01*
X161047735Y-59023736D01*
X161057822Y-59037405D01*
X161067860Y-59051144D01*
X161077851Y-59064952D01*
X161087793Y-59078829D01*
X161097686Y-59092776D01*
X161107531Y-59106793D01*
X161117328Y-59120879D01*
X161127076Y-59135035D01*
X161136775Y-59149260D01*
X161146425Y-59163556D01*
X161156026Y-59177921D01*
X161165578Y-59192357D01*
X161175081Y-59206863D01*
X161184535Y-59221439D01*
X161193938Y-59236086D01*
X161203293Y-59250803D01*
X161212597Y-59265590D01*
X161221852Y-59280448D01*
X161231057Y-59295376D01*
X161240211Y-59310376D01*
X161249316Y-59325446D01*
X161258369Y-59340586D01*
X161267373Y-59355798D01*
X161276325Y-59371081D01*
X161285227Y-59386434D01*
X161294077Y-59401858D01*
X161302877Y-59417354D01*
X161311625Y-59432920D01*
X161320321Y-59448558D01*
X161328965Y-59464266D01*
X161337558Y-59480046D01*
X161346099Y-59495897D01*
X161354587Y-59511818D01*
X161363023Y-59527811D01*
X161371406Y-59543875D01*
X161379736Y-59560010D01*
X161388013Y-59576216D01*
X161396237Y-59592493D01*
X161404408Y-59608841D01*
X161412524Y-59625260D01*
X161420587Y-59641750D01*
X161428596Y-59658310D01*
X161436550Y-59674941D01*
X161444450Y-59691643D01*
X161452294Y-59708416D01*
X161460084Y-59725258D01*
X161467819Y-59742172D01*
X161475498Y-59759155D01*
X161483121Y-59776209D01*
X161490688Y-59793332D01*
X161498199Y-59810525D01*
X161505653Y-59827788D01*
X161513050Y-59845120D01*
X161520391Y-59862522D01*
X161527674Y-59879992D01*
X161534899Y-59897532D01*
X161542066Y-59915140D01*
X161549176Y-59932816D01*
X161556226Y-59950561D01*
X161563218Y-59968373D01*
X161570151Y-59986253D01*
X161577025Y-60004199D01*
X161583839Y-60022213D01*
X161590592Y-60040294D01*
X161597286Y-60058440D01*
X161603919Y-60076652D01*
X161610491Y-60094930D01*
X161617001Y-60113272D01*
X161623450Y-60131679D01*
X161629838Y-60150150D01*
X161636162Y-60168684D01*
X161642425Y-60187282D01*
X161648624Y-60205941D01*
X161654760Y-60224663D01*
X161660832Y-60243445D01*
X161666840Y-60262288D01*
X161672783Y-60281191D01*
X161678662Y-60300153D01*
X161684476Y-60319173D01*
X161690224Y-60338251D01*
X161695906Y-60357386D01*
X161701521Y-60376577D01*
X161707070Y-60395822D01*
X161712552Y-60415122D01*
X161717966Y-60434474D01*
X161723312Y-60453879D01*
X161728590Y-60473334D01*
X161733799Y-60492840D01*
X161738938Y-60512393D01*
X161744008Y-60531994D01*
X161749008Y-60551642D01*
X161753937Y-60571333D01*
X161758795Y-60591068D01*
X161763581Y-60610844D01*
X161768296Y-60630661D01*
X161772938Y-60650515D01*
X161777507Y-60670406D01*
X161782002Y-60690332D01*
X161786424Y-60710291D01*
X161790771Y-60730280D01*
X161795043Y-60750298D01*
X161799240Y-60770342D01*
X161803361Y-60790410D01*
X161807405Y-60810499D01*
X161811372Y-60830607D01*
X161815261Y-60850731D01*
X161819073Y-60870868D01*
X161822805Y-60891014D01*
X161826459Y-60911167D01*
X161830032Y-60931324D01*
X161833525Y-60951479D01*
X161836937Y-60971630D01*
X161840268Y-60991773D01*
X161843516Y-61011902D01*
X161846681Y-61032014D01*
X161849763Y-61052103D01*
X161852761Y-61072163D01*
X161855674Y-61092191D01*
X161858501Y-61112178D01*
X161861242Y-61132119D01*
X161863897Y-61152007D01*
X161866464Y-61171834D01*
X161868943Y-61191593D01*
X161871333Y-61211274D01*
X161873634Y-61230869D01*
X161875844Y-61250366D01*
X161877963Y-61269756D01*
X161879990Y-61289025D01*
X161881925Y-61308160D01*
X161883766Y-61327148D01*
X161885513Y-61345971D01*
X161887165Y-61364611D01*
X161888721Y-61383050D01*
X161890180Y-61401264D01*
X161891542Y-61419227D01*
X161892805Y-61436911D01*
X161893969Y-61454281D01*
X161895033Y-61471300D01*
X161895996Y-61487920D01*
X161896856Y-61504086D01*
X161897614Y-61519729D01*
X161898267Y-61534766D01*
X161898817Y-61549084D01*
X161899260Y-61562534D01*
X161899599Y-61574899D01*
X161899832Y-61585835D01*
X161899962Y-61594705D01*
X161900000Y-61600000D01*
D11*
X115900000Y-107580000D02*
X157900000Y-107600000D01*
X117600000Y-61600000D02*
G75*
G02*
X114200000Y-61600000I-1700000J0D01*
G01*
X114200000Y-61600000D02*
G75*
G02*
X117600000Y-61600000I1700000J0D01*
G01*
D10*
X111900000Y-103580000D02*
X111900010Y-103590944D01*
X111900040Y-103601869D01*
X111900090Y-103612773D01*
X111900160Y-103623658D01*
X111900249Y-103634523D01*
X111900359Y-103645368D01*
X111900488Y-103656193D01*
X111900637Y-103666998D01*
X111900806Y-103677784D01*
X111900994Y-103688550D01*
X111901202Y-103699296D01*
X111901430Y-103710023D01*
X111901677Y-103720730D01*
X111901943Y-103731417D01*
X111902230Y-103742085D01*
X111902535Y-103752734D01*
X111902860Y-103763363D01*
X111903205Y-103773973D01*
X111903569Y-103784563D01*
X111903952Y-103795134D01*
X111904355Y-103805686D01*
X111904776Y-103816218D01*
X111905217Y-103826732D01*
X111905678Y-103837225D01*
X111906157Y-103847700D01*
X111906655Y-103858156D01*
X111907173Y-103868593D01*
X111907709Y-103879010D01*
X111908265Y-103889409D01*
X111908840Y-103899789D01*
X111909433Y-103910150D01*
X111910046Y-103920491D01*
X111910677Y-103930814D01*
X111911328Y-103941118D01*
X111911997Y-103951404D01*
X111912685Y-103961670D01*
X111913391Y-103971918D01*
X111914117Y-103982147D01*
X111914861Y-103992358D01*
X111915624Y-104002549D01*
X111916405Y-104012723D01*
X111917205Y-104022877D01*
X111918024Y-104033014D01*
X111918861Y-104043131D01*
X111919717Y-104053231D01*
X111920591Y-104063312D01*
X111921484Y-104073374D01*
X111922395Y-104083418D01*
X111923325Y-104093444D01*
X111924273Y-104103452D01*
X111925239Y-104113441D01*
X111926223Y-104123412D01*
X111927226Y-104133365D01*
X111928247Y-104143300D01*
X111929287Y-104153217D01*
X111930344Y-104163115D01*
X111931420Y-104172996D01*
X111932514Y-104182858D01*
X111933626Y-104192704D01*
X111934756Y-104202530D01*
X111935904Y-104212339D01*
X111937070Y-104222129D01*
X111938254Y-104231903D01*
X111939456Y-104241658D01*
X111940676Y-104251396D01*
X111941914Y-104261115D01*
X111943170Y-104270818D01*
X111944443Y-104280502D01*
X111945735Y-104290170D01*
X111947044Y-104299818D01*
X111948371Y-104309451D01*
X111949716Y-104319064D01*
X111951079Y-104328662D01*
X111952459Y-104338240D01*
X111953857Y-104347803D01*
X111955272Y-104357346D01*
X111956706Y-104366874D01*
X111958156Y-104376383D01*
X111959625Y-104385877D01*
X111961111Y-104395351D01*
X111962614Y-104404810D01*
X111964135Y-104414250D01*
X111965674Y-104423674D01*
X111967229Y-104433080D01*
X111968803Y-104442470D01*
X111970393Y-104451842D01*
X111972002Y-104461198D01*
X111973627Y-104470535D01*
X111975270Y-104479858D01*
X111976930Y-104489161D01*
X111978607Y-104498450D01*
X111980301Y-104507719D01*
X111982013Y-104516974D01*
X111983742Y-104526210D01*
X111985489Y-104535432D01*
X111987252Y-104544634D01*
X111989033Y-104553822D01*
X111990830Y-104562991D01*
X111992645Y-104572146D01*
X111994476Y-104581282D01*
X111996325Y-104590403D01*
X111998191Y-104599506D01*
X112000074Y-104608594D01*
X112001974Y-104617664D01*
X112003891Y-104626719D01*
X112005825Y-104635756D01*
X112007775Y-104644779D01*
X112009743Y-104653783D01*
X112011728Y-104662773D01*
X112013729Y-104671745D01*
X112015747Y-104680702D01*
X112017782Y-104689641D01*
X112019834Y-104698566D01*
X112021902Y-104707473D01*
X112023988Y-104716366D01*
X112026090Y-104725240D01*
X112028209Y-104734101D01*
X112030344Y-104742943D01*
X112032497Y-104751771D01*
X112034665Y-104760582D01*
X112036851Y-104769378D01*
X112039053Y-104778156D01*
X112041272Y-104786921D01*
X112043507Y-104795668D01*
X112045759Y-104804401D01*
X112048027Y-104813116D01*
X112050313Y-104821818D01*
X112052614Y-104830501D01*
X112054932Y-104839171D01*
X112057266Y-104847823D01*
X112059618Y-104856462D01*
X112061985Y-104865083D01*
X112064369Y-104873690D01*
X112066769Y-104882280D01*
X112069186Y-104890857D01*
X112071619Y-104899415D01*
X112074069Y-104907961D01*
X112076534Y-104916488D01*
X112079016Y-104925003D01*
X112081515Y-104933500D01*
X112084030Y-104941984D01*
X112086560Y-104950450D01*
X112089108Y-104958903D01*
X112091671Y-104967339D01*
X112094252Y-104975762D01*
X112096847Y-104984167D01*
X112099460Y-104992559D01*
X112102088Y-105000934D01*
X112104733Y-105009296D01*
X112107393Y-105017641D01*
X112112764Y-105034287D01*
X112118198Y-105050873D01*
X112123697Y-105067400D01*
X112129261Y-105083867D01*
X112134889Y-105100274D01*
X112140580Y-105116623D01*
X112146336Y-105132912D01*
X112152156Y-105149143D01*
X112158040Y-105165315D01*
X112163987Y-105181429D01*
X112169998Y-105197485D01*
X112176073Y-105213483D01*
X112182211Y-105229423D01*
X112188412Y-105245305D01*
X112194677Y-105261131D01*
X112201006Y-105276899D01*
X112207397Y-105292611D01*
X112213852Y-105308266D01*
X112220370Y-105323864D01*
X112226951Y-105339406D01*
X112233594Y-105354892D01*
X112240301Y-105370323D01*
X112247071Y-105385697D01*
X112253903Y-105401016D01*
X112260798Y-105416280D01*
X112267756Y-105431489D01*
X112274777Y-105446643D01*
X112281860Y-105461742D01*
X112289006Y-105476786D01*
X112296214Y-105491776D01*
X112303485Y-105506712D01*
X112310819Y-105521594D01*
X112318215Y-105536422D01*
X112325674Y-105551196D01*
X112333194Y-105565917D01*
X112340778Y-105580585D01*
X112348424Y-105595199D01*
X112356132Y-105609761D01*
X112363902Y-105624269D01*
X112371735Y-105638725D01*
X112379631Y-105653129D01*
X112387588Y-105667480D01*
X112395608Y-105681779D01*
X112403691Y-105696025D01*
X112411836Y-105710220D01*
X112420043Y-105724363D01*
X112428312Y-105738455D01*
X112436644Y-105752495D01*
X112445039Y-105766484D01*
X112453496Y-105780422D01*
X112462015Y-105794308D01*
X112470597Y-105808144D01*
X112479241Y-105821929D01*
X112487947Y-105835664D01*
X112496717Y-105849348D01*
X112505549Y-105862981D01*
X112514443Y-105876565D01*
X112523400Y-105890098D01*
X112532420Y-105903581D01*
X112541502Y-105917014D01*
X112550648Y-105930398D01*
X112559856Y-105943732D01*
X112569126Y-105957017D01*
X112578460Y-105970252D01*
X112587857Y-105983437D01*
X112597317Y-105996574D01*
X112606839Y-106009662D01*
X112616425Y-106022700D01*
X112626074Y-106035690D01*
X112635786Y-106048630D01*
X112645562Y-106061522D01*
X112655401Y-106074366D01*
X112665303Y-106087161D01*
X112675269Y-106099907D01*
X112685298Y-106112605D01*
X112695391Y-106125255D01*
X112705547Y-106137857D01*
X112715768Y-106150410D01*
X112726052Y-106162916D01*
X112736400Y-106175373D01*
X112746812Y-106187783D01*
X112757288Y-106200145D01*
X112767829Y-106212459D01*
X112778433Y-106224725D01*
X112789102Y-106236943D01*
X112799835Y-106249114D01*
X112810633Y-106261238D01*
X112821496Y-106273313D01*
X112832423Y-106285342D01*
X112843415Y-106297323D01*
X112854472Y-106309256D01*
X112865593Y-106321142D01*
X112876780Y-106332981D01*
X112888032Y-106344773D01*
X112899350Y-106356517D01*
X112910732Y-106368214D01*
X112922180Y-106379864D01*
X112933694Y-106391467D01*
X112945274Y-106403023D01*
X112956919Y-106414531D01*
X112968630Y-106425993D01*
X112980407Y-106437407D01*
X112992250Y-106448774D01*
X113004159Y-106460094D01*
X113016135Y-106471367D01*
X113028177Y-106482593D01*
X113040286Y-106493771D01*
X113052461Y-106504903D01*
X113064703Y-106515987D01*
X113077012Y-106527025D01*
X113089388Y-106538015D01*
X113101831Y-106548958D01*
X113114342Y-106559853D01*
X113126919Y-106570702D01*
X113139564Y-106581503D01*
X113152277Y-106592257D01*
X113165057Y-106602964D01*
X113177905Y-106613623D01*
X113190820Y-106624235D01*
X113203804Y-106634799D01*
X113216856Y-106645316D01*
X113229976Y-106655786D01*
X113243165Y-106666207D01*
X113256421Y-106676581D01*
X113269747Y-106686908D01*
X113283141Y-106697186D01*
X113296603Y-106707417D01*
X113310135Y-106717600D01*
X113323736Y-106727735D01*
X113337405Y-106737822D01*
X113351144Y-106747860D01*
X113364952Y-106757851D01*
X113378829Y-106767793D01*
X113392776Y-106777686D01*
X113406793Y-106787531D01*
X113420879Y-106797328D01*
X113435035Y-106807076D01*
X113449260Y-106816775D01*
X113463556Y-106826425D01*
X113477921Y-106836026D01*
X113492357Y-106845578D01*
X113506863Y-106855081D01*
X113521439Y-106864535D01*
X113536086Y-106873938D01*
X113550803Y-106883293D01*
X113565590Y-106892597D01*
X113580448Y-106901852D01*
X113595376Y-106911057D01*
X113610376Y-106920211D01*
X113625446Y-106929316D01*
X113640586Y-106938369D01*
X113655798Y-106947373D01*
X113671081Y-106956325D01*
X113686434Y-106965227D01*
X113701858Y-106974077D01*
X113717354Y-106982877D01*
X113732920Y-106991625D01*
X113748558Y-107000321D01*
X113764266Y-107008965D01*
X113780046Y-107017558D01*
X113795897Y-107026099D01*
X113811818Y-107034587D01*
X113827811Y-107043023D01*
X113843875Y-107051406D01*
X113860010Y-107059736D01*
X113876216Y-107068013D01*
X113892493Y-107076237D01*
X113908841Y-107084408D01*
X113925260Y-107092524D01*
X113941750Y-107100587D01*
X113958310Y-107108596D01*
X113974941Y-107116550D01*
X113991643Y-107124450D01*
X114008416Y-107132294D01*
X114025258Y-107140084D01*
X114042172Y-107147819D01*
X114059155Y-107155498D01*
X114076209Y-107163121D01*
X114093332Y-107170688D01*
X114110525Y-107178199D01*
X114127788Y-107185653D01*
X114145120Y-107193050D01*
X114162522Y-107200391D01*
X114179992Y-107207674D01*
X114197532Y-107214899D01*
X114215140Y-107222066D01*
X114232816Y-107229176D01*
X114250561Y-107236226D01*
X114268373Y-107243218D01*
X114286253Y-107250151D01*
X114304199Y-107257025D01*
X114322213Y-107263839D01*
X114340294Y-107270592D01*
X114358440Y-107277286D01*
X114376652Y-107283919D01*
X114394930Y-107290491D01*
X114413272Y-107297001D01*
X114431679Y-107303450D01*
X114450150Y-107309838D01*
X114468684Y-107316162D01*
X114487282Y-107322425D01*
X114505941Y-107328624D01*
X114524663Y-107334760D01*
X114543445Y-107340832D01*
X114562288Y-107346840D01*
X114581191Y-107352783D01*
X114600153Y-107358662D01*
X114619173Y-107364476D01*
X114638251Y-107370224D01*
X114657386Y-107375906D01*
X114676577Y-107381521D01*
X114695822Y-107387070D01*
X114715122Y-107392552D01*
X114734474Y-107397966D01*
X114753879Y-107403312D01*
X114773334Y-107408590D01*
X114792840Y-107413799D01*
X114812393Y-107418938D01*
X114831994Y-107424008D01*
X114851642Y-107429008D01*
X114871333Y-107433937D01*
X114891068Y-107438795D01*
X114910844Y-107443581D01*
X114930661Y-107448296D01*
X114950515Y-107452938D01*
X114970406Y-107457507D01*
X114990332Y-107462002D01*
X115010291Y-107466424D01*
X115030280Y-107470771D01*
X115050298Y-107475043D01*
X115070342Y-107479240D01*
X115090410Y-107483361D01*
X115110499Y-107487405D01*
X115130607Y-107491372D01*
X115150731Y-107495261D01*
X115170868Y-107499073D01*
X115191014Y-107502805D01*
X115211167Y-107506459D01*
X115231324Y-107510032D01*
X115251479Y-107513525D01*
X115271630Y-107516937D01*
X115291773Y-107520268D01*
X115311902Y-107523516D01*
X115332014Y-107526681D01*
X115352103Y-107529763D01*
X115372163Y-107532761D01*
X115392191Y-107535674D01*
X115412178Y-107538501D01*
X115432119Y-107541242D01*
X115452007Y-107543897D01*
X115471834Y-107546464D01*
X115491593Y-107548943D01*
X115511274Y-107551333D01*
X115530869Y-107553634D01*
X115550366Y-107555844D01*
X115569756Y-107557963D01*
X115589025Y-107559990D01*
X115608160Y-107561925D01*
X115627148Y-107563766D01*
X115645971Y-107565513D01*
X115664611Y-107567165D01*
X115683050Y-107568721D01*
X115701264Y-107570180D01*
X115719227Y-107571542D01*
X115736911Y-107572805D01*
X115754281Y-107573969D01*
X115771300Y-107575033D01*
X115787920Y-107575996D01*
X115804086Y-107576856D01*
X115819729Y-107577614D01*
X115834766Y-107578267D01*
X115849084Y-107578817D01*
X115862534Y-107579260D01*
X115874899Y-107579599D01*
X115885835Y-107579832D01*
X115894705Y-107579962D01*
X115900000Y-107580000D01*
D11*
X117600000Y-103600000D02*
G75*
G02*
X114200000Y-103600000I-1700000J0D01*
G01*
X114200000Y-103600000D02*
G75*
G02*
X117600000Y-103600000I1700000J0D01*
G01*
X159600000Y-61600000D02*
G75*
G02*
X156200000Y-61600000I-1700000J0D01*
G01*
X156200000Y-61600000D02*
G75*
G02*
X159600000Y-61600000I1700000J0D01*
G01*
X157900000Y-57600000D02*
X115900000Y-57600000D01*
X161900000Y-103600000D02*
X161900000Y-61600000D01*
D10*
X161900000Y-103600000D02*
X161899990Y-103610944D01*
X161899960Y-103621869D01*
X161899910Y-103632773D01*
X161899840Y-103643658D01*
X161899751Y-103654523D01*
X161899641Y-103665368D01*
X161899512Y-103676193D01*
X161899363Y-103686998D01*
X161899194Y-103697784D01*
X161899006Y-103708550D01*
X161898798Y-103719296D01*
X161898570Y-103730023D01*
X161898323Y-103740730D01*
X161898057Y-103751417D01*
X161897770Y-103762085D01*
X161897465Y-103772734D01*
X161897140Y-103783363D01*
X161896795Y-103793973D01*
X161896431Y-103804563D01*
X161896048Y-103815134D01*
X161895645Y-103825686D01*
X161895224Y-103836218D01*
X161894783Y-103846732D01*
X161894322Y-103857225D01*
X161893843Y-103867700D01*
X161893345Y-103878156D01*
X161892827Y-103888593D01*
X161892291Y-103899010D01*
X161891735Y-103909409D01*
X161891160Y-103919789D01*
X161890567Y-103930150D01*
X161889954Y-103940491D01*
X161889323Y-103950814D01*
X161888672Y-103961118D01*
X161888003Y-103971404D01*
X161887315Y-103981670D01*
X161886609Y-103991918D01*
X161885883Y-104002147D01*
X161885139Y-104012358D01*
X161884376Y-104022549D01*
X161883595Y-104032723D01*
X161882795Y-104042877D01*
X161881976Y-104053014D01*
X161881139Y-104063131D01*
X161880283Y-104073231D01*
X161879409Y-104083312D01*
X161878516Y-104093374D01*
X161877605Y-104103418D01*
X161876675Y-104113444D01*
X161875727Y-104123452D01*
X161874761Y-104133441D01*
X161873777Y-104143412D01*
X161872774Y-104153365D01*
X161871753Y-104163300D01*
X161870713Y-104173217D01*
X161869656Y-104183115D01*
X161868580Y-104192996D01*
X161867486Y-104202858D01*
X161866374Y-104212704D01*
X161865244Y-104222530D01*
X161864096Y-104232339D01*
X161862930Y-104242129D01*
X161861746Y-104251903D01*
X161860544Y-104261658D01*
X161859324Y-104271396D01*
X161858086Y-104281115D01*
X161856830Y-104290818D01*
X161855557Y-104300502D01*
X161854265Y-104310170D01*
X161852956Y-104319818D01*
X161851629Y-104329451D01*
X161850284Y-104339064D01*
X161848921Y-104348662D01*
X161847541Y-104358240D01*
X161846143Y-104367803D01*
X161844728Y-104377346D01*
X161843294Y-104386874D01*
X161841844Y-104396383D01*
X161840375Y-104405877D01*
X161838889Y-104415351D01*
X161837386Y-104424810D01*
X161835865Y-104434250D01*
X161834326Y-104443674D01*
X161832771Y-104453080D01*
X161831197Y-104462470D01*
X161829607Y-104471842D01*
X161827998Y-104481198D01*
X161826373Y-104490535D01*
X161824730Y-104499858D01*
X161823070Y-104509161D01*
X161821393Y-104518450D01*
X161819699Y-104527719D01*
X161817987Y-104536974D01*
X161816258Y-104546210D01*
X161814511Y-104555432D01*
X161812748Y-104564634D01*
X161810967Y-104573822D01*
X161809170Y-104582991D01*
X161807355Y-104592146D01*
X161805524Y-104601282D01*
X161803675Y-104610403D01*
X161801809Y-104619506D01*
X161799926Y-104628594D01*
X161798026Y-104637664D01*
X161796109Y-104646719D01*
X161794175Y-104655756D01*
X161792225Y-104664779D01*
X161790257Y-104673783D01*
X161788272Y-104682773D01*
X161786271Y-104691745D01*
X161784253Y-104700702D01*
X161782218Y-104709641D01*
X161780166Y-104718566D01*
X161778098Y-104727473D01*
X161776012Y-104736366D01*
X161773910Y-104745240D01*
X161771791Y-104754101D01*
X161769656Y-104762943D01*
X161767503Y-104771771D01*
X161765335Y-104780582D01*
X161763149Y-104789378D01*
X161760947Y-104798156D01*
X161758728Y-104806921D01*
X161756493Y-104815668D01*
X161754241Y-104824401D01*
X161751973Y-104833116D01*
X161749687Y-104841818D01*
X161747386Y-104850501D01*
X161745068Y-104859171D01*
X161742734Y-104867823D01*
X161740382Y-104876462D01*
X161738015Y-104885083D01*
X161735631Y-104893690D01*
X161733231Y-104902280D01*
X161730814Y-104910857D01*
X161728381Y-104919415D01*
X161725931Y-104927961D01*
X161723466Y-104936488D01*
X161720984Y-104945003D01*
X161718485Y-104953500D01*
X161715970Y-104961984D01*
X161713440Y-104970450D01*
X161710892Y-104978903D01*
X161708329Y-104987339D01*
X161705748Y-104995762D01*
X161703153Y-105004167D01*
X161700540Y-105012559D01*
X161697912Y-105020934D01*
X161695267Y-105029296D01*
X161692607Y-105037641D01*
X161687236Y-105054287D01*
X161681802Y-105070873D01*
X161676303Y-105087400D01*
X161670739Y-105103867D01*
X161665111Y-105120274D01*
X161659420Y-105136623D01*
X161653664Y-105152912D01*
X161647844Y-105169143D01*
X161641960Y-105185315D01*
X161636013Y-105201429D01*
X161630002Y-105217485D01*
X161623927Y-105233483D01*
X161617789Y-105249423D01*
X161611588Y-105265305D01*
X161605323Y-105281131D01*
X161598994Y-105296899D01*
X161592603Y-105312611D01*
X161586148Y-105328266D01*
X161579630Y-105343864D01*
X161573049Y-105359406D01*
X161566406Y-105374892D01*
X161559699Y-105390323D01*
X161552929Y-105405697D01*
X161546097Y-105421016D01*
X161539202Y-105436280D01*
X161532244Y-105451489D01*
X161525223Y-105466643D01*
X161518140Y-105481742D01*
X161510994Y-105496786D01*
X161503786Y-105511776D01*
X161496515Y-105526712D01*
X161489181Y-105541594D01*
X161481785Y-105556422D01*
X161474326Y-105571196D01*
X161466806Y-105585917D01*
X161459222Y-105600585D01*
X161451576Y-105615199D01*
X161443868Y-105629761D01*
X161436098Y-105644269D01*
X161428265Y-105658725D01*
X161420369Y-105673129D01*
X161412412Y-105687480D01*
X161404392Y-105701779D01*
X161396309Y-105716025D01*
X161388164Y-105730220D01*
X161379957Y-105744363D01*
X161371688Y-105758455D01*
X161363356Y-105772495D01*
X161354961Y-105786484D01*
X161346504Y-105800422D01*
X161337985Y-105814308D01*
X161329403Y-105828144D01*
X161320759Y-105841929D01*
X161312053Y-105855664D01*
X161303283Y-105869348D01*
X161294451Y-105882981D01*
X161285557Y-105896565D01*
X161276600Y-105910098D01*
X161267580Y-105923581D01*
X161258498Y-105937014D01*
X161249352Y-105950398D01*
X161240144Y-105963732D01*
X161230874Y-105977017D01*
X161221540Y-105990252D01*
X161212143Y-106003437D01*
X161202683Y-106016574D01*
X161193161Y-106029662D01*
X161183575Y-106042700D01*
X161173926Y-106055690D01*
X161164214Y-106068630D01*
X161154438Y-106081522D01*
X161144599Y-106094366D01*
X161134697Y-106107161D01*
X161124731Y-106119907D01*
X161114702Y-106132605D01*
X161104609Y-106145255D01*
X161094453Y-106157857D01*
X161084232Y-106170410D01*
X161073948Y-106182916D01*
X161063600Y-106195373D01*
X161053188Y-106207783D01*
X161042712Y-106220145D01*
X161032171Y-106232459D01*
X161021567Y-106244725D01*
X161010898Y-106256943D01*
X161000165Y-106269114D01*
X160989367Y-106281238D01*
X160978504Y-106293313D01*
X160967577Y-106305342D01*
X160956585Y-106317323D01*
X160945528Y-106329256D01*
X160934407Y-106341142D01*
X160923220Y-106352981D01*
X160911968Y-106364773D01*
X160900650Y-106376517D01*
X160889268Y-106388214D01*
X160877820Y-106399864D01*
X160866306Y-106411467D01*
X160854726Y-106423023D01*
X160843081Y-106434531D01*
X160831370Y-106445993D01*
X160819593Y-106457407D01*
X160807750Y-106468774D01*
X160795841Y-106480094D01*
X160783865Y-106491367D01*
X160771823Y-106502593D01*
X160759714Y-106513771D01*
X160747539Y-106524903D01*
X160735297Y-106535987D01*
X160722988Y-106547025D01*
X160710612Y-106558015D01*
X160698169Y-106568958D01*
X160685658Y-106579853D01*
X160673081Y-106590702D01*
X160660436Y-106601503D01*
X160647723Y-106612257D01*
X160634943Y-106622964D01*
X160622095Y-106633623D01*
X160609180Y-106644235D01*
X160596196Y-106654799D01*
X160583144Y-106665316D01*
X160570024Y-106675786D01*
X160556835Y-106686207D01*
X160543579Y-106696581D01*
X160530253Y-106706908D01*
X160516859Y-106717186D01*
X160503397Y-106727417D01*
X160489865Y-106737600D01*
X160476264Y-106747735D01*
X160462595Y-106757822D01*
X160448856Y-106767860D01*
X160435048Y-106777851D01*
X160421171Y-106787793D01*
X160407224Y-106797686D01*
X160393207Y-106807531D01*
X160379121Y-106817328D01*
X160364965Y-106827076D01*
X160350740Y-106836775D01*
X160336444Y-106846425D01*
X160322079Y-106856026D01*
X160307643Y-106865578D01*
X160293137Y-106875081D01*
X160278561Y-106884535D01*
X160263914Y-106893938D01*
X160249197Y-106903293D01*
X160234410Y-106912597D01*
X160219552Y-106921852D01*
X160204624Y-106931057D01*
X160189624Y-106940211D01*
X160174554Y-106949316D01*
X160159414Y-106958369D01*
X160144202Y-106967373D01*
X160128919Y-106976325D01*
X160113566Y-106985227D01*
X160098142Y-106994077D01*
X160082646Y-107002877D01*
X160067080Y-107011625D01*
X160051442Y-107020321D01*
X160035734Y-107028965D01*
X160019954Y-107037558D01*
X160004103Y-107046099D01*
X159988182Y-107054587D01*
X159972189Y-107063023D01*
X159956125Y-107071406D01*
X159939990Y-107079736D01*
X159923784Y-107088013D01*
X159907507Y-107096237D01*
X159891159Y-107104408D01*
X159874740Y-107112524D01*
X159858250Y-107120587D01*
X159841690Y-107128596D01*
X159825059Y-107136550D01*
X159808357Y-107144450D01*
X159791584Y-107152294D01*
X159774742Y-107160084D01*
X159757828Y-107167819D01*
X159740845Y-107175498D01*
X159723791Y-107183121D01*
X159706668Y-107190688D01*
X159689475Y-107198199D01*
X159672212Y-107205653D01*
X159654880Y-107213050D01*
X159637478Y-107220391D01*
X159620008Y-107227674D01*
X159602468Y-107234899D01*
X159584860Y-107242066D01*
X159567184Y-107249176D01*
X159549439Y-107256226D01*
X159531627Y-107263218D01*
X159513747Y-107270151D01*
X159495801Y-107277025D01*
X159477787Y-107283839D01*
X159459706Y-107290592D01*
X159441560Y-107297286D01*
X159423348Y-107303919D01*
X159405070Y-107310491D01*
X159386728Y-107317001D01*
X159368321Y-107323450D01*
X159349850Y-107329838D01*
X159331316Y-107336162D01*
X159312718Y-107342425D01*
X159294059Y-107348624D01*
X159275337Y-107354760D01*
X159256555Y-107360832D01*
X159237712Y-107366840D01*
X159218809Y-107372783D01*
X159199847Y-107378662D01*
X159180827Y-107384476D01*
X159161749Y-107390224D01*
X159142614Y-107395906D01*
X159123423Y-107401521D01*
X159104178Y-107407070D01*
X159084878Y-107412552D01*
X159065526Y-107417966D01*
X159046121Y-107423312D01*
X159026666Y-107428590D01*
X159007160Y-107433799D01*
X158987607Y-107438938D01*
X158968006Y-107444008D01*
X158948358Y-107449008D01*
X158928667Y-107453937D01*
X158908932Y-107458795D01*
X158889156Y-107463581D01*
X158869339Y-107468296D01*
X158849485Y-107472938D01*
X158829594Y-107477507D01*
X158809668Y-107482002D01*
X158789709Y-107486424D01*
X158769720Y-107490771D01*
X158749702Y-107495043D01*
X158729658Y-107499240D01*
X158709590Y-107503361D01*
X158689501Y-107507405D01*
X158669393Y-107511372D01*
X158649269Y-107515261D01*
X158629132Y-107519073D01*
X158608986Y-107522805D01*
X158588833Y-107526459D01*
X158568676Y-107530032D01*
X158548521Y-107533525D01*
X158528370Y-107536937D01*
X158508227Y-107540268D01*
X158488098Y-107543516D01*
X158467986Y-107546681D01*
X158447897Y-107549763D01*
X158427837Y-107552761D01*
X158407809Y-107555674D01*
X158387822Y-107558501D01*
X158367881Y-107561242D01*
X158347993Y-107563897D01*
X158328166Y-107566464D01*
X158308407Y-107568943D01*
X158288726Y-107571333D01*
X158269131Y-107573634D01*
X158249634Y-107575844D01*
X158230244Y-107577963D01*
X158210975Y-107579990D01*
X158191840Y-107581925D01*
X158172852Y-107583766D01*
X158154029Y-107585513D01*
X158135389Y-107587165D01*
X158116950Y-107588721D01*
X158098736Y-107590180D01*
X158080773Y-107591542D01*
X158063089Y-107592805D01*
X158045719Y-107593969D01*
X158028700Y-107595033D01*
X158012080Y-107595996D01*
X157995914Y-107596856D01*
X157980271Y-107597614D01*
X157965234Y-107598267D01*
X157950916Y-107598817D01*
X157937466Y-107599260D01*
X157925101Y-107599599D01*
X157914165Y-107599832D01*
X157905295Y-107599962D01*
X157900000Y-107600000D01*
D11*
X111900000Y-61600000D02*
X111900000Y-103580000D01*
X159600000Y-103600000D02*
G75*
G02*
X156200000Y-103600000I-1700000J0D01*
G01*
X156200000Y-103600000D02*
G75*
G02*
X159600000Y-103600000I1700000J0D01*
G01*
M02*
