%TF.GenerationSoftware,KiCad,Pcbnew,9.0.5*%
%TF.CreationDate,2025-10-24T21:19:19-07:00*%
%TF.ProjectId,Sending Pebble,53656e64-696e-4672-9050-6562626c652e,rev?*%
%TF.SameCoordinates,Original*%
%TF.FileFunction,Copper,L4,Bot*%
%TF.FilePolarity,Positive*%
%FSLAX46Y46*%
G04 Gerber Fmt 4.6, Leading zero omitted, Abs format (unit mm)*
G04 Created by KiCad (PCBNEW 9.0.5) date 2025-10-24 21:19:19*
%MOMM*%
%LPD*%
G01*
G04 APERTURE LIST*
G04 Aperture macros list*
%AMRoundRect*
0 Rectangle with rounded corners*
0 $1 Rounding radius*
0 $2 $3 $4 $5 $6 $7 $8 $9 X,Y pos of 4 corners*
0 Add a 4 corners polygon primitive as box body*
4,1,4,$2,$3,$4,$5,$6,$7,$8,$9,$2,$3,0*
0 Add four circle primitives for the rounded corners*
1,1,$1+$1,$2,$3*
1,1,$1+$1,$4,$5*
1,1,$1+$1,$6,$7*
1,1,$1+$1,$8,$9*
0 Add four rect primitives between the rounded corners*
20,1,$1+$1,$2,$3,$4,$5,0*
20,1,$1+$1,$4,$5,$6,$7,0*
20,1,$1+$1,$6,$7,$8,$9,0*
20,1,$1+$1,$8,$9,$2,$3,0*%
G04 Aperture macros list end*
%ADD10C,0.300000*%
%TA.AperFunction,NonConductor*%
%ADD11C,0.300000*%
%TD*%
%TA.AperFunction,HeatsinkPad*%
%ADD12O,1.000000X2.100000*%
%TD*%
%TA.AperFunction,HeatsinkPad*%
%ADD13O,1.000000X1.600000*%
%TD*%
%TA.AperFunction,ComponentPad*%
%ADD14R,1.700000X1.700000*%
%TD*%
%TA.AperFunction,ComponentPad*%
%ADD15C,1.700000*%
%TD*%
%TA.AperFunction,ComponentPad*%
%ADD16C,5.700000*%
%TD*%
%TA.AperFunction,SMDPad,CuDef*%
%ADD17R,1.500000X5.080000*%
%TD*%
%TA.AperFunction,ComponentPad*%
%ADD18RoundRect,0.250000X-0.600000X-0.725000X0.600000X-0.725000X0.600000X0.725000X-0.600000X0.725000X0*%
%TD*%
%TA.AperFunction,ComponentPad*%
%ADD19O,1.700000X1.950000*%
%TD*%
%TA.AperFunction,SMDPad,CuDef*%
%ADD20RoundRect,0.162500X0.650000X0.162500X-0.650000X0.162500X-0.650000X-0.162500X0.650000X-0.162500X0*%
%TD*%
%TA.AperFunction,SMDPad,CuDef*%
%ADD21RoundRect,0.250000X-0.750000X0.750000X-0.750000X-0.750000X0.750000X-0.750000X0.750000X0.750000X0*%
%TD*%
%TA.AperFunction,ViaPad*%
%ADD22C,0.450000*%
%TD*%
%TA.AperFunction,Conductor*%
%ADD23C,0.200000*%
%TD*%
G04 APERTURE END LIST*
D10*
D11*
X138539774Y-88670828D02*
X137682632Y-88670828D01*
X138111203Y-90170828D02*
X138111203Y-88670828D01*
X136611203Y-90099400D02*
X136754060Y-90170828D01*
X136754060Y-90170828D02*
X137039775Y-90170828D01*
X137039775Y-90170828D02*
X137182632Y-90099400D01*
X137182632Y-90099400D02*
X137254060Y-89956542D01*
X137254060Y-89956542D02*
X137254060Y-89385114D01*
X137254060Y-89385114D02*
X137182632Y-89242257D01*
X137182632Y-89242257D02*
X137039775Y-89170828D01*
X137039775Y-89170828D02*
X136754060Y-89170828D01*
X136754060Y-89170828D02*
X136611203Y-89242257D01*
X136611203Y-89242257D02*
X136539775Y-89385114D01*
X136539775Y-89385114D02*
X136539775Y-89527971D01*
X136539775Y-89527971D02*
X137254060Y-89670828D01*
X135682632Y-90170828D02*
X135825489Y-90099400D01*
X135825489Y-90099400D02*
X135896918Y-89956542D01*
X135896918Y-89956542D02*
X135896918Y-88670828D01*
X134539775Y-90099400D02*
X134682632Y-90170828D01*
X134682632Y-90170828D02*
X134968347Y-90170828D01*
X134968347Y-90170828D02*
X135111204Y-90099400D01*
X135111204Y-90099400D02*
X135182632Y-89956542D01*
X135182632Y-89956542D02*
X135182632Y-89385114D01*
X135182632Y-89385114D02*
X135111204Y-89242257D01*
X135111204Y-89242257D02*
X134968347Y-89170828D01*
X134968347Y-89170828D02*
X134682632Y-89170828D01*
X134682632Y-89170828D02*
X134539775Y-89242257D01*
X134539775Y-89242257D02*
X134468347Y-89385114D01*
X134468347Y-89385114D02*
X134468347Y-89527971D01*
X134468347Y-89527971D02*
X135182632Y-89670828D01*
X133825490Y-90170828D02*
X133825490Y-89170828D01*
X133825490Y-89313685D02*
X133754061Y-89242257D01*
X133754061Y-89242257D02*
X133611204Y-89170828D01*
X133611204Y-89170828D02*
X133396918Y-89170828D01*
X133396918Y-89170828D02*
X133254061Y-89242257D01*
X133254061Y-89242257D02*
X133182633Y-89385114D01*
X133182633Y-89385114D02*
X133182633Y-90170828D01*
X133182633Y-89385114D02*
X133111204Y-89242257D01*
X133111204Y-89242257D02*
X132968347Y-89170828D01*
X132968347Y-89170828D02*
X132754061Y-89170828D01*
X132754061Y-89170828D02*
X132611204Y-89242257D01*
X132611204Y-89242257D02*
X132539775Y-89385114D01*
X132539775Y-89385114D02*
X132539775Y-90170828D01*
X131254061Y-90099400D02*
X131396918Y-90170828D01*
X131396918Y-90170828D02*
X131682633Y-90170828D01*
X131682633Y-90170828D02*
X131825490Y-90099400D01*
X131825490Y-90099400D02*
X131896918Y-89956542D01*
X131896918Y-89956542D02*
X131896918Y-89385114D01*
X131896918Y-89385114D02*
X131825490Y-89242257D01*
X131825490Y-89242257D02*
X131682633Y-89170828D01*
X131682633Y-89170828D02*
X131396918Y-89170828D01*
X131396918Y-89170828D02*
X131254061Y-89242257D01*
X131254061Y-89242257D02*
X131182633Y-89385114D01*
X131182633Y-89385114D02*
X131182633Y-89527971D01*
X131182633Y-89527971D02*
X131896918Y-89670828D01*
X130754061Y-89170828D02*
X130182633Y-89170828D01*
X130539776Y-88670828D02*
X130539776Y-89956542D01*
X130539776Y-89956542D02*
X130468347Y-90099400D01*
X130468347Y-90099400D02*
X130325490Y-90170828D01*
X130325490Y-90170828D02*
X130182633Y-90170828D01*
X129682633Y-90170828D02*
X129682633Y-89170828D01*
X129682633Y-89456542D02*
X129611204Y-89313685D01*
X129611204Y-89313685D02*
X129539776Y-89242257D01*
X129539776Y-89242257D02*
X129396918Y-89170828D01*
X129396918Y-89170828D02*
X129254061Y-89170828D01*
X128896919Y-89170828D02*
X128539776Y-90170828D01*
X128182633Y-89170828D02*
X128539776Y-90170828D01*
X128539776Y-90170828D02*
X128682633Y-90527971D01*
X128682633Y-90527971D02*
X128754062Y-90599400D01*
X128754062Y-90599400D02*
X128896919Y-90670828D01*
D12*
%TO.P,J1,S1,SHIELD*%
%TO.N,GND*%
X132680000Y-100295000D03*
D13*
X132680000Y-104475000D03*
D12*
X141320000Y-100295000D03*
D13*
X141320000Y-104475000D03*
%TD*%
D14*
%TO.P,J6,1,Pin_1*%
%TO.N,GND*%
X128920000Y-64830000D03*
D15*
%TO.P,J6,2,Pin_2*%
%TO.N,+3.3V*%
X128920000Y-62290000D03*
%TO.P,J6,3,Pin_3*%
%TO.N,AMP*%
X128920000Y-59750000D03*
%TD*%
D16*
%TO.P,REF\u002A\u002A,1*%
%TO.N,N/C*%
X115900000Y-61600000D03*
%TD*%
%TO.P,REF\u002A\u002A,1*%
%TO.N,N/C*%
X157900000Y-61600000D03*
%TD*%
D14*
%TO.P,PWR0,1,Pin_1*%
%TO.N,EN*%
X157600000Y-95640000D03*
D15*
%TO.P,PWR0,2,Pin_2*%
%TO.N,VBAT*%
X157600000Y-93100000D03*
%TD*%
D16*
%TO.P,REF\u002A\u002A,1*%
%TO.N,N/C*%
X115900000Y-103600000D03*
%TD*%
D17*
%TO.P,J4,2,Ext*%
%TO.N,GND*%
X132650000Y-60700000D03*
X141150000Y-60700000D03*
%TD*%
D16*
%TO.P,REF\u002A\u002A,1*%
%TO.N,N/C*%
X157900000Y-103600000D03*
%TD*%
D18*
%TO.P,J5,1,Pin_1*%
%TO.N,GND*%
X122670000Y-103260000D03*
D19*
%TO.P,J5,2,Pin_2*%
%TO.N,FC-TX*%
X125170000Y-103260000D03*
%TO.P,J5,3,Pin_3*%
%TO.N,FC-RX*%
X127670000Y-103260000D03*
%TD*%
D20*
%TO.P,U5,1,~{CS}*%
%TO.N,NSS*%
X122157500Y-75175000D03*
%TO.P,U5,2,DO/IO_{1}*%
%TO.N,MISO*%
X122157500Y-76445000D03*
%TO.P,U5,3,~{WP}/IO_{2}*%
%TO.N,+3.3V*%
X122157500Y-77715000D03*
%TO.P,U5,4,GND*%
%TO.N,GND*%
X122157500Y-78985000D03*
%TO.P,U5,5,DI/IO_{0}*%
%TO.N,MOSI*%
X114982500Y-78985000D03*
%TO.P,U5,6,CLK*%
%TO.N,BOOT0*%
X114982500Y-77715000D03*
%TO.P,U5,7,~{HOLD}/~{RESET}/IO_{3}*%
%TO.N,+3.3V*%
X114982500Y-76445000D03*
%TO.P,U5,8,VCC*%
X114982500Y-75175000D03*
%TD*%
D21*
%TO.P,BZ1,1,+*%
%TO.N,+3.3V*%
X141800000Y-75400000D03*
%TO.P,BZ1,2,-*%
%TO.N,Net-(BZ1--)*%
X132000000Y-75400000D03*
%TO.P,BZ1,MP*%
%TO.N,N/C*%
X141800000Y-81800000D03*
X132000000Y-81800000D03*
%TD*%
D22*
%TO.N,GND*%
X160800000Y-77040000D03*
X138350000Y-87700000D03*
X161050000Y-78560000D03*
X157140000Y-74780000D03*
X134161282Y-69098120D03*
X157090000Y-79680000D03*
X153090000Y-79700000D03*
X152250000Y-79510000D03*
X120100000Y-70350000D03*
X156990000Y-71750000D03*
X135539483Y-68074730D03*
X130838314Y-67100000D03*
X158890000Y-74560000D03*
X158550000Y-73860000D03*
X133291100Y-69100000D03*
X155280000Y-76300000D03*
X137900000Y-63730000D03*
X157040000Y-75930000D03*
X143500000Y-99400000D03*
X153860000Y-79680000D03*
X131550660Y-69100000D03*
X128750000Y-70350000D03*
X155240000Y-78990000D03*
X155970000Y-78300000D03*
X158650000Y-72020000D03*
X161050000Y-75430000D03*
X134423857Y-66361928D03*
X156520000Y-72470000D03*
X136161673Y-67452540D03*
X137882038Y-65488682D03*
X134917292Y-68696921D03*
X133400000Y-96100000D03*
X159340000Y-80300000D03*
X161040000Y-76210000D03*
X154890000Y-73460000D03*
X132736628Y-67100000D03*
X151050000Y-100200000D03*
X132420880Y-69100000D03*
X157890000Y-71670000D03*
X135161928Y-65623857D03*
X160810000Y-80000000D03*
X131787471Y-67100000D03*
X151830000Y-78940000D03*
X137900000Y-64609910D03*
X133685786Y-67100000D03*
X129889157Y-67100000D03*
X155440000Y-72960000D03*
X151780000Y-76100000D03*
X145500000Y-69700000D03*
X136783863Y-66830350D03*
X160140000Y-80300000D03*
X157050000Y-78890000D03*
X155270000Y-75200000D03*
X130680440Y-69100000D03*
X156730000Y-78330000D03*
X160820000Y-74710000D03*
X125800000Y-94300000D03*
X138400000Y-92000000D03*
X120790000Y-78470000D03*
X152070000Y-77430000D03*
X161050000Y-79280000D03*
X134161276Y-69098120D03*
X137406054Y-66208159D03*
X151830000Y-76760000D03*
X158890000Y-72900000D03*
X157820000Y-80250000D03*
X129810220Y-69100000D03*
X125860000Y-84420000D03*
X135900000Y-63730000D03*
X126520000Y-64830000D03*
X121890000Y-84310000D03*
X132700000Y-84830000D03*
X158540000Y-80300000D03*
X156100000Y-72980000D03*
X142710000Y-88110000D03*
X154720000Y-79510000D03*
X155350000Y-78290000D03*
X160800000Y-77770000D03*
X140800000Y-95700000D03*
X127530000Y-88940000D03*
X151800000Y-78170000D03*
X157940000Y-74600000D03*
X135900000Y-64885786D03*
X159910000Y-74570000D03*
X126900000Y-69750000D03*
%TO.N,Net-(BZ1--)*%
X133300000Y-75100000D03*
%TO.N,+3.3V*%
X121715000Y-64830000D03*
X145550000Y-77400000D03*
X117000000Y-66750000D03*
X136970000Y-88240000D03*
X123290000Y-77140000D03*
X120340000Y-84310000D03*
X143000000Y-103250000D03*
X123400000Y-84400000D03*
X115000000Y-74310000D03*
X127290000Y-82230000D03*
X140050000Y-87050000D03*
X149990000Y-62100000D03*
X145550000Y-76300000D03*
X151050000Y-104100000D03*
X146730000Y-79500000D03*
X140450000Y-75100000D03*
X125100001Y-86512600D03*
%TO.N,VBAT*%
X144675000Y-92400000D03*
%TO.N,VBUS*%
X130300000Y-98000000D03*
X130300000Y-92700000D03*
%TO.N,RST*%
X128800000Y-76300000D03*
X130500000Y-79800000D03*
%TO.N,BOOT0*%
X116260000Y-77710000D03*
X149970000Y-64810000D03*
X124780000Y-70380000D03*
%TO.N,Net-(U7-~{CHG})*%
X130530000Y-99220000D03*
X131000000Y-97500000D03*
%TO.N,BUZZ*%
X120650000Y-69750000D03*
X134350000Y-80750000D03*
%TO.N,FC-TX*%
X123150000Y-81620000D03*
%TO.N,FC-RX*%
X124400000Y-81630000D03*
%TO.N,EN*%
X139780000Y-91450000D03*
%TO.N,MOSI*%
X116260000Y-79010000D03*
%TO.N,MISO*%
X120860000Y-76430000D03*
%TO.N,NSS*%
X120860000Y-75190000D03*
%TD*%
D23*
%TO.N,GND*%
X121305000Y-78985000D02*
X120790000Y-78470000D01*
X122157500Y-78985000D02*
X121305000Y-78985000D01*
%TO.N,Net-(BZ1--)*%
X132000000Y-75400000D02*
X133000000Y-75400000D01*
X133000000Y-75400000D02*
X133300000Y-75100000D01*
%TO.N,+3.3V*%
X115000000Y-74310000D02*
X115000000Y-75157500D01*
X122715000Y-77715000D02*
X123290000Y-77140000D01*
X122157500Y-77715000D02*
X122715000Y-77715000D01*
X115000000Y-75157500D02*
X114982500Y-75175000D01*
X141800000Y-75400000D02*
X140750000Y-75400000D01*
X114982500Y-76445000D02*
X114982500Y-75175000D01*
X140750000Y-75400000D02*
X140450000Y-75100000D01*
%TO.N,VBAT*%
X153700000Y-93100000D02*
X153000000Y-92400000D01*
X153000000Y-92400000D02*
X148000000Y-92400000D01*
X148000000Y-92400000D02*
X144675000Y-92400000D01*
X157600000Y-93100000D02*
X153700000Y-93100000D01*
%TO.N,VBUS*%
X130300000Y-92700000D02*
X130300000Y-98000000D01*
%TO.N,RST*%
X130500000Y-78000000D02*
X128800000Y-76300000D01*
X130500000Y-79200000D02*
X130500000Y-78000000D01*
X130500000Y-79800000D02*
X130500000Y-79200000D01*
%TO.N,BOOT0*%
X128532123Y-69824000D02*
X141016000Y-69824000D01*
X124780000Y-70380000D02*
X127976123Y-70380000D01*
X127976123Y-70380000D02*
X128532123Y-69824000D01*
X143180000Y-67660000D02*
X148090000Y-67660000D01*
X149970000Y-65780000D02*
X149970000Y-64810000D01*
X141016000Y-69824000D02*
X143180000Y-67660000D01*
X116255000Y-77715000D02*
X116260000Y-77710000D01*
X148090000Y-67660000D02*
X149970000Y-65780000D01*
X114982500Y-77715000D02*
X116255000Y-77715000D01*
%TO.N,Net-(U7-~{CHG})*%
X130530000Y-99220000D02*
X131000000Y-98750000D01*
X131000000Y-98750000D02*
X131000000Y-97500000D01*
%TO.N,BUZZ*%
X134350000Y-80750000D02*
X124550000Y-70950000D01*
X124550000Y-70950000D02*
X121850000Y-70950000D01*
X121850000Y-70950000D02*
X120650000Y-69750000D01*
%TO.N,FC-TX*%
X122630000Y-84350000D02*
X122599000Y-84381000D01*
X123150000Y-81620000D02*
X122630000Y-82140000D01*
X122630000Y-82140000D02*
X122630000Y-84350000D01*
X122599000Y-100689000D02*
X125170000Y-103260000D01*
X122599000Y-84381000D02*
X122599000Y-100689000D01*
%TO.N,FC-RX*%
X124400000Y-81630000D02*
X124400000Y-84143877D01*
X123000000Y-85500000D02*
X123000000Y-99550000D01*
X124340000Y-100890000D02*
X125950000Y-100890000D01*
X124400000Y-84143877D02*
X123043877Y-85500000D01*
X127670000Y-102610000D02*
X127670000Y-103260000D01*
X125950000Y-100890000D02*
X127670000Y-102610000D01*
X123043877Y-85500000D02*
X123000000Y-85500000D01*
X123000000Y-99550000D02*
X124340000Y-100890000D01*
%TO.N,EN*%
X155440000Y-95640000D02*
X152800000Y-93000000D01*
X152800000Y-93000000D02*
X141330000Y-93000000D01*
X157600000Y-95640000D02*
X155440000Y-95640000D01*
X141330000Y-93000000D02*
X139780000Y-91450000D01*
%TO.N,MOSI*%
X114982500Y-78985000D02*
X116235000Y-78985000D01*
X116235000Y-78985000D02*
X116260000Y-79010000D01*
%TO.N,MISO*%
X122157500Y-76445000D02*
X120875000Y-76445000D01*
X120875000Y-76445000D02*
X120860000Y-76430000D01*
%TO.N,NSS*%
X122157500Y-75175000D02*
X120875000Y-75175000D01*
X120875000Y-75175000D02*
X120860000Y-75190000D01*
%TD*%
%TA.AperFunction,NonConductor*%
G36*
X150302039Y-83142408D02*
G01*
X150323715Y-83146743D01*
X150354847Y-83157423D01*
X150395292Y-83177646D01*
X150404499Y-83182751D01*
X153537897Y-85098714D01*
X153577740Y-85137800D01*
X155189131Y-87662968D01*
X155204898Y-87699596D01*
X155216297Y-87745190D01*
X155220000Y-87775266D01*
X155220000Y-87826389D01*
X155217047Y-87853290D01*
X155200989Y-87925547D01*
X155198690Y-87934353D01*
X154778068Y-89333168D01*
X154751178Y-89380756D01*
X153699999Y-90539999D01*
X153700000Y-90540000D01*
X156651168Y-90559806D01*
X156663359Y-90562727D01*
X156672296Y-90561763D01*
X156705788Y-90572894D01*
X156762002Y-90601001D01*
X156794229Y-90624229D01*
X156815771Y-90645771D01*
X156838999Y-90677998D01*
X156854846Y-90709692D01*
X156863164Y-90731077D01*
X156865714Y-90740000D01*
X156875229Y-90773300D01*
X156880000Y-90807366D01*
X156880000Y-90837722D01*
X156877591Y-90862043D01*
X156872231Y-90888840D01*
X156865771Y-90910571D01*
X156856091Y-90934771D01*
X156840162Y-90963117D01*
X156825288Y-90982950D01*
X156813767Y-90996233D01*
X156804859Y-91005141D01*
X156794638Y-91014289D01*
X156760254Y-91041795D01*
X156738253Y-91055873D01*
X156728071Y-91060964D01*
X156717883Y-91066058D01*
X156701642Y-91072786D01*
X156699089Y-91073637D01*
X156659877Y-91080000D01*
X143851012Y-91080000D01*
X143834875Y-91075530D01*
X143819756Y-91075996D01*
X143787215Y-91062329D01*
X143776455Y-91055873D01*
X143755485Y-91043291D01*
X143744892Y-91036169D01*
X143724168Y-91020626D01*
X143699371Y-90995828D01*
X143686708Y-90978944D01*
X143675000Y-90960000D01*
X143670000Y-90950000D01*
X143658338Y-90926676D01*
X143658005Y-90925653D01*
X143657631Y-90925240D01*
X143646934Y-90891606D01*
X143641687Y-90860120D01*
X143640000Y-90839737D01*
X143640000Y-90810263D01*
X143641687Y-90789880D01*
X143647796Y-90753222D01*
X143654976Y-90727559D01*
X143663910Y-90705223D01*
X143679839Y-90676880D01*
X143691312Y-90661584D01*
X143711119Y-90640733D01*
X143748953Y-90609205D01*
X143772865Y-90593567D01*
X143814021Y-90572989D01*
X143869044Y-90559900D01*
X146760000Y-90550000D01*
X146759999Y-90549999D01*
X146760000Y-90549999D01*
X145402847Y-88883496D01*
X145397422Y-88876318D01*
X145339001Y-88792859D01*
X145324485Y-88765294D01*
X145307895Y-88721052D01*
X145300000Y-88677514D01*
X145300000Y-88637366D01*
X145304769Y-88603306D01*
X145315628Y-88565301D01*
X145328094Y-88536302D01*
X145840000Y-87670000D01*
X145989438Y-86464532D01*
X145990894Y-86455529D01*
X145997769Y-86421152D01*
X146004224Y-86399439D01*
X146012135Y-86379661D01*
X146033945Y-86344063D01*
X146068995Y-86304006D01*
X146119983Y-86269110D01*
X148100000Y-85550000D01*
X150056656Y-83233957D01*
X150063666Y-83226333D01*
X150081324Y-83208675D01*
X150100214Y-83193191D01*
X150123546Y-83177636D01*
X150141188Y-83165874D01*
X150189586Y-83146735D01*
X150204734Y-83144211D01*
X150219880Y-83141687D01*
X150240263Y-83140000D01*
X150277722Y-83140000D01*
X150302039Y-83142408D01*
G37*
%TD.AperFunction*%
M02*
