M48
; DRILL file {KiCad 9.0.5} date 2025-10-24T21:19:32-0700
; FORMAT={-:-/ absolute / metric / decimal}
; #@! TF.CreationDate,2025-10-24T21:19:32-07:00
; #@! TF.GenerationSoftware,Kicad,Pcbnew,9.0.5
; #@! TF.FileFunction,Plated,1,4,PTH
FMAT,2
METRIC
; #@! TA.AperFunction,Plated,PTH,ViaDrill
T1C0.300
; #@! TA.AperFunction,Plated,PTH,ComponentDrill
T2C0.600
; #@! TA.AperFunction,Plated,PTH,ComponentDrill
T3C0.950
; #@! TA.AperFunction,Plated,PTH,ComponentDrill
T4C1.000
; #@! TA.AperFunction,Plated,PTH,ComponentDrill
T5C3.200
%
G90
G05
T1
X115.0Y-74.31
X116.26Y-77.71
X116.26Y-79.01
X117.0Y-66.75
X120.1Y-70.35
X120.34Y-84.31
X120.65Y-69.75
X120.79Y-78.47
X120.86Y-75.19
X120.86Y-76.43
X121.715Y-64.83
X121.89Y-84.31
X123.15Y-81.62
X123.29Y-77.14
X123.4Y-84.4
X124.4Y-81.63
X124.78Y-70.38
X125.1Y-86.513
X125.8Y-94.3
X125.86Y-84.42
X126.52Y-64.83
X126.9Y-69.75
X127.29Y-82.23
X127.53Y-88.94
X128.75Y-70.35
X128.8Y-76.3
X129.81Y-69.1
X129.889Y-67.1
X130.3Y-92.7
X130.3Y-98.0
X130.5Y-79.8
X130.53Y-99.22
X130.68Y-69.1
X130.838Y-67.1
X131.0Y-97.5
X131.551Y-69.1
X131.787Y-67.1
X132.421Y-69.1
X132.7Y-84.83
X132.737Y-67.1
X133.291Y-69.1
X133.3Y-75.1
X133.4Y-96.1
X133.686Y-67.1
X134.161Y-69.098
X134.161Y-69.098
X134.35Y-80.75
X134.424Y-66.362
X134.917Y-68.697
X135.162Y-65.624
X135.539Y-68.075
X135.9Y-63.73
X135.9Y-64.886
X136.162Y-67.453
X136.784Y-66.83
X136.97Y-88.24
X137.406Y-66.208
X137.882Y-65.489
X137.9Y-63.73
X137.9Y-64.61
X138.35Y-87.7
X138.4Y-92.0
X139.78Y-91.45
X140.05Y-87.05
X140.45Y-75.1
X140.8Y-95.7
X142.71Y-88.11
X143.0Y-103.25
X143.5Y-99.4
X144.675Y-92.4
X145.5Y-69.7
X145.55Y-76.3
X145.55Y-77.4
X146.73Y-79.5
X149.97Y-64.81
X149.99Y-62.1
X151.05Y-100.2
X151.05Y-104.1
X151.78Y-76.1
X151.8Y-78.17
X151.83Y-76.76
X151.83Y-78.94
X152.07Y-77.43
X152.25Y-79.51
X153.09Y-79.7
X153.86Y-79.68
X154.72Y-79.51
X154.89Y-73.46
X155.24Y-78.99
X155.27Y-75.2
X155.28Y-76.3
X155.35Y-78.29
X155.44Y-72.96
X155.97Y-78.3
X156.1Y-72.98
X156.52Y-72.47
X156.73Y-78.33
X156.99Y-71.75
X157.04Y-75.93
X157.05Y-78.89
X157.09Y-79.68
X157.14Y-74.78
X157.82Y-80.25
X157.89Y-71.67
X157.94Y-74.6
X158.54Y-80.3
X158.55Y-73.86
X158.65Y-72.02
X158.89Y-72.9
X158.89Y-74.56
X159.34Y-80.3
X159.91Y-74.57
X160.14Y-80.3
X160.8Y-77.04
X160.8Y-77.77
X160.81Y-80.0
X160.82Y-74.71
X161.04Y-76.21
X161.05Y-75.43
X161.05Y-78.56
X161.05Y-79.28
T3
X122.67Y-103.26
X125.17Y-103.26
X127.67Y-103.26
T4
X128.92Y-59.75
X128.92Y-62.29
X128.92Y-64.83
X157.6Y-93.1
X157.6Y-95.64
T5
X115.9Y-61.6
X115.9Y-103.6
X157.9Y-61.6
X157.9Y-103.6
T2
G00X132.68Y-99.745
M15
G01X132.68Y-100.845
M16
G05
G00X132.68Y-104.175
M15
G01X132.68Y-104.775
M16
G05
G00X141.32Y-99.745
M15
G01X141.32Y-100.845
M16
G05
G00X141.32Y-104.175
M15
G01X141.32Y-104.775
M16
G05
M30
