%TF.GenerationSoftware,KiCad,Pcbnew,9.0.4*%
%TF.CreationDate,2025-09-01T22:57:38-07:00*%
%TF.ProjectId,Sending Pebble,53656e64-696e-4672-9050-6562626c652e,rev?*%
%TF.SameCoordinates,Original*%
%TF.FileFunction,Copper,L2,Inr*%
%TF.FilePolarity,Positive*%
%FSLAX46Y46*%
G04 Gerber Fmt 4.6, Leading zero omitted, Abs format (unit mm)*
G04 Created by KiCad (PCBNEW 9.0.4) date 2025-09-01 22:57:38*
%MOMM*%
%LPD*%
G01*
G04 APERTURE LIST*
%TA.AperFunction,HeatsinkPad*%
%ADD10O,1.000000X2.100000*%
%TD*%
%TA.AperFunction,HeatsinkPad*%
%ADD11O,1.000000X1.600000*%
%TD*%
%TA.AperFunction,ComponentPad*%
%ADD12C,0.500000*%
%TD*%
%TA.AperFunction,ComponentPad*%
%ADD13R,1.700000X1.700000*%
%TD*%
%TA.AperFunction,ComponentPad*%
%ADD14C,1.700000*%
%TD*%
%TA.AperFunction,ViaPad*%
%ADD15C,0.450000*%
%TD*%
G04 APERTURE END LIST*
D10*
%TO.N,GND*%
%TO.C,J1*%
X132680000Y-100295000D03*
D11*
X132680000Y-104475000D03*
D10*
X141320000Y-100295000D03*
D11*
X141320000Y-104475000D03*
%TD*%
D12*
%TO.N,GND*%
%TO.C,U2*%
X137795000Y-89840000D03*
X138370000Y-88890000D03*
X138370000Y-90790000D03*
X138945000Y-89840000D03*
%TD*%
D13*
%TO.N,EN*%
%TO.C,PWR0*%
X157600000Y-95640000D03*
D14*
%TO.N,VBAT*%
X157600000Y-93100000D03*
%TD*%
D15*
%TO.N,GND*%
X133196287Y-68900000D03*
X120100000Y-70350000D03*
X130116571Y-68900000D03*
X134525753Y-66512876D03*
X131143143Y-68900000D03*
X143500000Y-99400000D03*
X131414315Y-67300000D03*
X156160000Y-78730000D03*
X128750000Y-70350000D03*
X137700000Y-65243143D03*
X136477171Y-66824198D03*
X133400000Y-96100000D03*
X136100000Y-63190000D03*
X151050000Y-100200000D03*
X136100000Y-64938630D03*
X152700000Y-78450000D03*
X152700000Y-76250000D03*
X146100000Y-69650000D03*
X129090000Y-68900000D03*
X156150000Y-75990000D03*
X132576472Y-67300000D03*
X130252157Y-67300000D03*
X129090000Y-67300000D03*
X137700000Y-64216571D03*
X125800000Y-94300000D03*
X134221930Y-68885440D03*
X137700000Y-63190000D03*
X135751276Y-67550093D03*
X125860000Y-84420000D03*
X124725000Y-64830000D03*
X121900000Y-78450000D03*
X125000000Y-94300000D03*
X133738630Y-67300000D03*
X141640000Y-88885000D03*
X135312876Y-65725753D03*
X135025380Y-68275989D03*
X140800000Y-95700000D03*
X128600000Y-89700000D03*
X132169715Y-68900000D03*
X137203067Y-66098302D03*
X126900000Y-69750000D03*
%TO.N,Net-(BZ1--)*%
X133300000Y-75100000D03*
%TO.N,+3.3V*%
X121715000Y-64830000D03*
X146150000Y-77350000D03*
X117000000Y-66750000D03*
X136970000Y-88240000D03*
X120650000Y-78450000D03*
X143000000Y-103250000D03*
X123400000Y-84400000D03*
X127290000Y-82230000D03*
X140050000Y-87050000D03*
X149990000Y-62100000D03*
X146150000Y-76250000D03*
X151050000Y-104100000D03*
X146733978Y-79490132D03*
X140450000Y-75100000D03*
X125100001Y-86512600D03*
%TO.N,VBAT*%
X144675000Y-92400000D03*
%TO.N,VBUS*%
X130300000Y-98000000D03*
X130300000Y-92700000D03*
%TO.N,RST*%
X128800000Y-76300000D03*
X130500000Y-79800000D03*
%TO.N,BOOT0*%
X149970000Y-64810000D03*
X124780000Y-70380000D03*
%TO.N,Net-(U7-~{CHG})*%
X131000000Y-99500000D03*
X131000000Y-97500000D03*
%TO.N,BUZZ*%
X120650000Y-69750000D03*
X134350000Y-80750000D03*
%TO.N,EN*%
X139780000Y-91450000D03*
%TD*%
%TA.AperFunction,Conductor*%
%TO.N,GND*%
G36*
X157896141Y-58100526D02*
G01*
X157902382Y-58100654D01*
X158116482Y-58105053D01*
X158121660Y-58105270D01*
X158324916Y-58118095D01*
X158330330Y-58118556D01*
X158523487Y-58139323D01*
X158529095Y-58140056D01*
X158605793Y-58151861D01*
X158712042Y-58168214D01*
X158717773Y-58169235D01*
X158892069Y-58204543D01*
X158897902Y-58205873D01*
X159062568Y-58247638D01*
X159068476Y-58249294D01*
X159225939Y-58297699D01*
X159231888Y-58299695D01*
X159372677Y-58350963D01*
X159381610Y-58354616D01*
X159545638Y-58429305D01*
X159665913Y-58484071D01*
X159677661Y-58490198D01*
X159918417Y-58632623D01*
X159929544Y-58639205D01*
X159940705Y-58646651D01*
X160024069Y-58709039D01*
X160170950Y-58818962D01*
X160181212Y-58827543D01*
X160392426Y-59024467D01*
X160401548Y-59033923D01*
X160595279Y-59257322D01*
X160603114Y-59267354D01*
X160779793Y-59519232D01*
X160786296Y-59529548D01*
X160945159Y-59811360D01*
X160950369Y-59821703D01*
X161089609Y-60133596D01*
X161093625Y-60143775D01*
X161193431Y-60433642D01*
X161210453Y-60483077D01*
X161213407Y-60492982D01*
X161304265Y-60851464D01*
X161306299Y-60861069D01*
X161367232Y-61218118D01*
X161368463Y-61227460D01*
X161396674Y-61529847D01*
X161397142Y-61537252D01*
X161399432Y-61606256D01*
X161399500Y-61610369D01*
X161399500Y-103593593D01*
X161399474Y-103596141D01*
X161394946Y-103816440D01*
X161394726Y-103821701D01*
X161381904Y-104024902D01*
X161381439Y-104030348D01*
X161360674Y-104223486D01*
X161359942Y-104229094D01*
X161331782Y-104412053D01*
X161330756Y-104417809D01*
X161295461Y-104592041D01*
X161294124Y-104597906D01*
X161252372Y-104762526D01*
X161250704Y-104768478D01*
X161202304Y-104925923D01*
X161200293Y-104931916D01*
X161149041Y-105072660D01*
X161145378Y-105081617D01*
X161015927Y-105365913D01*
X161009799Y-105377662D01*
X160860793Y-105629544D01*
X160853346Y-105640706D01*
X160681035Y-105870951D01*
X160672454Y-105881213D01*
X160475535Y-106092422D01*
X160466079Y-106101544D01*
X160242676Y-106295279D01*
X160232644Y-106303114D01*
X159980773Y-106479788D01*
X159970458Y-106486291D01*
X159688634Y-106645162D01*
X159678290Y-106650372D01*
X159366405Y-106789608D01*
X159356225Y-106793624D01*
X159016920Y-106910453D01*
X159007016Y-106913407D01*
X158648530Y-107004266D01*
X158638924Y-107006300D01*
X158281879Y-107067231D01*
X158272539Y-107068462D01*
X157970152Y-107096674D01*
X157962745Y-107097142D01*
X157893905Y-107099426D01*
X157889734Y-107099494D01*
X115910466Y-107079504D01*
X115906414Y-107079436D01*
X115837254Y-107077142D01*
X115829847Y-107076674D01*
X115527460Y-107048463D01*
X115518118Y-107047232D01*
X115161069Y-106986299D01*
X115151464Y-106984265D01*
X114792982Y-106893407D01*
X114783084Y-106890455D01*
X114501858Y-106793624D01*
X114443775Y-106773625D01*
X114433596Y-106769609D01*
X114121703Y-106630369D01*
X114111360Y-106625159D01*
X113829548Y-106466296D01*
X113819232Y-106459793D01*
X113567354Y-106283114D01*
X113557322Y-106275279D01*
X113352009Y-106097232D01*
X113333920Y-106081545D01*
X113324467Y-106072426D01*
X113127543Y-105861212D01*
X113118962Y-105850950D01*
X112946652Y-105620706D01*
X112939205Y-105609544D01*
X112874408Y-105500011D01*
X112790198Y-105357661D01*
X112784071Y-105345913D01*
X112654616Y-105061610D01*
X112650963Y-105052677D01*
X112599695Y-104911888D01*
X112597699Y-104905939D01*
X112549294Y-104748476D01*
X112547638Y-104742568D01*
X112505873Y-104577902D01*
X112504539Y-104572052D01*
X112493490Y-104517509D01*
X112469235Y-104397773D01*
X112468213Y-104392032D01*
X112467926Y-104390169D01*
X112440056Y-104209095D01*
X112439323Y-104203487D01*
X112432014Y-104135504D01*
X112418556Y-104010330D01*
X112418094Y-104004900D01*
X112417204Y-103990795D01*
X112405270Y-103801660D01*
X112405053Y-103796482D01*
X112400526Y-103576141D01*
X112400500Y-103573594D01*
X112400500Y-103455778D01*
X113699500Y-103455778D01*
X113699500Y-103744221D01*
X113699501Y-103744238D01*
X113737149Y-104030206D01*
X113737150Y-104030211D01*
X113737151Y-104030217D01*
X113811809Y-104308844D01*
X113811814Y-104308860D01*
X113922191Y-104575336D01*
X113922199Y-104575352D01*
X114066420Y-104825148D01*
X114066424Y-104825155D01*
X114066431Y-104825164D01*
X114242024Y-105054002D01*
X114242030Y-105054009D01*
X114445990Y-105257969D01*
X114445997Y-105257975D01*
X114601977Y-105377662D01*
X114674844Y-105433575D01*
X114674851Y-105433579D01*
X114924647Y-105577800D01*
X114924663Y-105577808D01*
X115191139Y-105688185D01*
X115191145Y-105688186D01*
X115191155Y-105688191D01*
X115469783Y-105762849D01*
X115755772Y-105800500D01*
X115755779Y-105800500D01*
X116044221Y-105800500D01*
X116044228Y-105800500D01*
X116330217Y-105762849D01*
X116608845Y-105688191D01*
X116608857Y-105688185D01*
X116608860Y-105688185D01*
X116875336Y-105577808D01*
X116875339Y-105577806D01*
X116875345Y-105577804D01*
X117125156Y-105433575D01*
X117354004Y-105257974D01*
X117557974Y-105054004D01*
X117733575Y-104825156D01*
X117876319Y-104577918D01*
X117877800Y-104575352D01*
X117877808Y-104575336D01*
X117988185Y-104308860D01*
X117988185Y-104308857D01*
X117988191Y-104308845D01*
X118050446Y-104076504D01*
X131680000Y-104076504D01*
X131680000Y-104225000D01*
X132380000Y-104225000D01*
X132380000Y-104725000D01*
X131680000Y-104725000D01*
X131680000Y-104873495D01*
X131718427Y-105066681D01*
X131718430Y-105066693D01*
X131793807Y-105248671D01*
X131793814Y-105248684D01*
X131903248Y-105412462D01*
X131903251Y-105412466D01*
X132042533Y-105551748D01*
X132042537Y-105551751D01*
X132206315Y-105661185D01*
X132206328Y-105661192D01*
X132388308Y-105736569D01*
X132430000Y-105744862D01*
X132430000Y-104941988D01*
X132439940Y-104959205D01*
X132495795Y-105015060D01*
X132564204Y-105054556D01*
X132640504Y-105075000D01*
X132719496Y-105075000D01*
X132795796Y-105054556D01*
X132864205Y-105015060D01*
X132920060Y-104959205D01*
X132930000Y-104941988D01*
X132930000Y-105744862D01*
X132971690Y-105736569D01*
X132971692Y-105736569D01*
X133153671Y-105661192D01*
X133153684Y-105661185D01*
X133317462Y-105551751D01*
X133317466Y-105551748D01*
X133456748Y-105412466D01*
X133456751Y-105412462D01*
X133566185Y-105248684D01*
X133566192Y-105248671D01*
X133641569Y-105066693D01*
X133641572Y-105066681D01*
X133679999Y-104873495D01*
X133680000Y-104873492D01*
X133680000Y-104725000D01*
X132980000Y-104725000D01*
X132980000Y-104225000D01*
X133680000Y-104225000D01*
X133680000Y-104076508D01*
X133679999Y-104076504D01*
X140320000Y-104076504D01*
X140320000Y-104225000D01*
X141020000Y-104225000D01*
X141020000Y-104725000D01*
X140320000Y-104725000D01*
X140320000Y-104873495D01*
X140358427Y-105066681D01*
X140358430Y-105066693D01*
X140433807Y-105248671D01*
X140433814Y-105248684D01*
X140543248Y-105412462D01*
X140543251Y-105412466D01*
X140682533Y-105551748D01*
X140682537Y-105551751D01*
X140846315Y-105661185D01*
X140846328Y-105661192D01*
X141028308Y-105736569D01*
X141070000Y-105744862D01*
X141070000Y-104941988D01*
X141079940Y-104959205D01*
X141135795Y-105015060D01*
X141204204Y-105054556D01*
X141280504Y-105075000D01*
X141359496Y-105075000D01*
X141435796Y-105054556D01*
X141504205Y-105015060D01*
X141560060Y-104959205D01*
X141570000Y-104941988D01*
X141570000Y-105744862D01*
X141611690Y-105736569D01*
X141611692Y-105736569D01*
X141793671Y-105661192D01*
X141793684Y-105661185D01*
X141957462Y-105551751D01*
X141957466Y-105551748D01*
X142096748Y-105412466D01*
X142096751Y-105412462D01*
X142206185Y-105248684D01*
X142206192Y-105248671D01*
X142281569Y-105066693D01*
X142281572Y-105066681D01*
X142319999Y-104873495D01*
X142320000Y-104873492D01*
X142320000Y-104725000D01*
X141620000Y-104725000D01*
X141620000Y-104225000D01*
X142320000Y-104225000D01*
X142320000Y-104076510D01*
X142316725Y-104060045D01*
X142316725Y-104060042D01*
X142313530Y-104043982D01*
X150624500Y-104043982D01*
X150624500Y-104156018D01*
X150653497Y-104264237D01*
X150709515Y-104361263D01*
X150788737Y-104440485D01*
X150885763Y-104496503D01*
X150993982Y-104525500D01*
X150993984Y-104525500D01*
X151106016Y-104525500D01*
X151106018Y-104525500D01*
X151214237Y-104496503D01*
X151311263Y-104440485D01*
X151390485Y-104361263D01*
X151446503Y-104264237D01*
X151475500Y-104156018D01*
X151475500Y-104043982D01*
X151446503Y-103935763D01*
X151390485Y-103838737D01*
X151311263Y-103759515D01*
X151214237Y-103703497D01*
X151106018Y-103674500D01*
X150993982Y-103674500D01*
X150885763Y-103703497D01*
X150885760Y-103703498D01*
X150788740Y-103759513D01*
X150788734Y-103759517D01*
X150709517Y-103838734D01*
X150709513Y-103838740D01*
X150653498Y-103935760D01*
X150653497Y-103935763D01*
X150624500Y-104043982D01*
X142313530Y-104043982D01*
X142281572Y-103883318D01*
X142281569Y-103883306D01*
X142206192Y-103701328D01*
X142206185Y-103701315D01*
X142096751Y-103537537D01*
X142096748Y-103537533D01*
X141957466Y-103398251D01*
X141957462Y-103398248D01*
X141793897Y-103288957D01*
X141793896Y-103288956D01*
X141793893Y-103288954D01*
X141793684Y-103288814D01*
X141793671Y-103288807D01*
X141611691Y-103213429D01*
X141611683Y-103213427D01*
X141570000Y-103205135D01*
X141570000Y-104008011D01*
X141560060Y-103990795D01*
X141504205Y-103934940D01*
X141435796Y-103895444D01*
X141359496Y-103875000D01*
X141280504Y-103875000D01*
X141204204Y-103895444D01*
X141135795Y-103934940D01*
X141079940Y-103990795D01*
X141070000Y-104008011D01*
X141070000Y-103205136D01*
X141069999Y-103205135D01*
X141028316Y-103213427D01*
X141028308Y-103213429D01*
X140846328Y-103288807D01*
X140846315Y-103288814D01*
X140682537Y-103398248D01*
X140682533Y-103398251D01*
X140543251Y-103537533D01*
X140543248Y-103537537D01*
X140433814Y-103701315D01*
X140433807Y-103701328D01*
X140358430Y-103883306D01*
X140358427Y-103883318D01*
X140320000Y-104076504D01*
X133679999Y-104076504D01*
X133641572Y-103883318D01*
X133641569Y-103883306D01*
X133566192Y-103701328D01*
X133566185Y-103701315D01*
X133456751Y-103537537D01*
X133456748Y-103537533D01*
X133317466Y-103398251D01*
X133317462Y-103398248D01*
X133153684Y-103288814D01*
X133153671Y-103288807D01*
X132971691Y-103213429D01*
X132971683Y-103213427D01*
X132930000Y-103205135D01*
X132930000Y-104008011D01*
X132920060Y-103990795D01*
X132864205Y-103934940D01*
X132795796Y-103895444D01*
X132719496Y-103875000D01*
X132640504Y-103875000D01*
X132564204Y-103895444D01*
X132495795Y-103934940D01*
X132439940Y-103990795D01*
X132430000Y-104008011D01*
X132430000Y-103205136D01*
X132429999Y-103205135D01*
X132388316Y-103213427D01*
X132388308Y-103213429D01*
X132206328Y-103288807D01*
X132206315Y-103288814D01*
X132042537Y-103398248D01*
X132042533Y-103398251D01*
X131903251Y-103537533D01*
X131903248Y-103537537D01*
X131793814Y-103701315D01*
X131793807Y-103701328D01*
X131718430Y-103883306D01*
X131718427Y-103883318D01*
X131680000Y-104076504D01*
X118050446Y-104076504D01*
X118062849Y-104030217D01*
X118100500Y-103744228D01*
X118100500Y-103455772D01*
X118066035Y-103193982D01*
X142574500Y-103193982D01*
X142574500Y-103306018D01*
X142603497Y-103414237D01*
X142659515Y-103511263D01*
X142738737Y-103590485D01*
X142835763Y-103646503D01*
X142943982Y-103675500D01*
X142943984Y-103675500D01*
X143056016Y-103675500D01*
X143056018Y-103675500D01*
X143164237Y-103646503D01*
X143261263Y-103590485D01*
X143340485Y-103511263D01*
X143372519Y-103455778D01*
X155699500Y-103455778D01*
X155699500Y-103744221D01*
X155699501Y-103744238D01*
X155737149Y-104030206D01*
X155737150Y-104030211D01*
X155737151Y-104030217D01*
X155811809Y-104308844D01*
X155811814Y-104308860D01*
X155922191Y-104575336D01*
X155922199Y-104575352D01*
X156066420Y-104825148D01*
X156066424Y-104825155D01*
X156066431Y-104825164D01*
X156242024Y-105054002D01*
X156242030Y-105054009D01*
X156445990Y-105257969D01*
X156445997Y-105257975D01*
X156601977Y-105377662D01*
X156674844Y-105433575D01*
X156674851Y-105433579D01*
X156924647Y-105577800D01*
X156924663Y-105577808D01*
X157191139Y-105688185D01*
X157191145Y-105688186D01*
X157191155Y-105688191D01*
X157469783Y-105762849D01*
X157755772Y-105800500D01*
X157755779Y-105800500D01*
X158044221Y-105800500D01*
X158044228Y-105800500D01*
X158330217Y-105762849D01*
X158608845Y-105688191D01*
X158608857Y-105688185D01*
X158608860Y-105688185D01*
X158875336Y-105577808D01*
X158875339Y-105577806D01*
X158875345Y-105577804D01*
X159125156Y-105433575D01*
X159354004Y-105257974D01*
X159557974Y-105054004D01*
X159733575Y-104825156D01*
X159869043Y-104590520D01*
X159877800Y-104575352D01*
X159877808Y-104575336D01*
X159988185Y-104308860D01*
X159988185Y-104308857D01*
X159988191Y-104308845D01*
X160062849Y-104030217D01*
X160100500Y-103744228D01*
X160100500Y-103455772D01*
X160062849Y-103169783D01*
X159988191Y-102891155D01*
X159988186Y-102891145D01*
X159988185Y-102891139D01*
X159877808Y-102624663D01*
X159877800Y-102624647D01*
X159733579Y-102374851D01*
X159733575Y-102374844D01*
X159557974Y-102145996D01*
X159557969Y-102145990D01*
X159354009Y-101942030D01*
X159354002Y-101942024D01*
X159125164Y-101766431D01*
X159125162Y-101766429D01*
X159125156Y-101766425D01*
X159125151Y-101766422D01*
X159125148Y-101766420D01*
X158875352Y-101622199D01*
X158875336Y-101622191D01*
X158608860Y-101511814D01*
X158608848Y-101511810D01*
X158608845Y-101511809D01*
X158330217Y-101437151D01*
X158330211Y-101437150D01*
X158330206Y-101437149D01*
X158044238Y-101399501D01*
X158044233Y-101399500D01*
X158044228Y-101399500D01*
X157755772Y-101399500D01*
X157755766Y-101399500D01*
X157755761Y-101399501D01*
X157469793Y-101437149D01*
X157469786Y-101437150D01*
X157469783Y-101437151D01*
X157300680Y-101482462D01*
X157191155Y-101511809D01*
X157191139Y-101511814D01*
X156924663Y-101622191D01*
X156924647Y-101622199D01*
X156674851Y-101766420D01*
X156674835Y-101766431D01*
X156445997Y-101942024D01*
X156445990Y-101942030D01*
X156242030Y-102145990D01*
X156242024Y-102145997D01*
X156066431Y-102374835D01*
X156066420Y-102374851D01*
X155922199Y-102624647D01*
X155922191Y-102624663D01*
X155811814Y-102891139D01*
X155811809Y-102891155D01*
X155737152Y-103169780D01*
X155737149Y-103169793D01*
X155699501Y-103455761D01*
X155699500Y-103455778D01*
X143372519Y-103455778D01*
X143396503Y-103414237D01*
X143425500Y-103306018D01*
X143425500Y-103193982D01*
X143396503Y-103085763D01*
X143340485Y-102988737D01*
X143261263Y-102909515D01*
X143164237Y-102853497D01*
X143056018Y-102824500D01*
X142943982Y-102824500D01*
X142835763Y-102853497D01*
X142835760Y-102853498D01*
X142738740Y-102909513D01*
X142738734Y-102909517D01*
X142659517Y-102988734D01*
X142659513Y-102988740D01*
X142603498Y-103085760D01*
X142603497Y-103085763D01*
X142574500Y-103193982D01*
X118066035Y-103193982D01*
X118062849Y-103169783D01*
X117988191Y-102891155D01*
X117988186Y-102891145D01*
X117988185Y-102891139D01*
X117877808Y-102624663D01*
X117877800Y-102624647D01*
X117733579Y-102374851D01*
X117733575Y-102374844D01*
X117557974Y-102145996D01*
X117557969Y-102145990D01*
X117354009Y-101942030D01*
X117354002Y-101942024D01*
X117125164Y-101766431D01*
X117125162Y-101766429D01*
X117125156Y-101766425D01*
X117125151Y-101766422D01*
X117125148Y-101766420D01*
X116875352Y-101622199D01*
X116875336Y-101622191D01*
X116608860Y-101511814D01*
X116608848Y-101511810D01*
X116608845Y-101511809D01*
X116330217Y-101437151D01*
X116330211Y-101437150D01*
X116330206Y-101437149D01*
X116044238Y-101399501D01*
X116044233Y-101399500D01*
X116044228Y-101399500D01*
X115755772Y-101399500D01*
X115755766Y-101399500D01*
X115755761Y-101399501D01*
X115469793Y-101437149D01*
X115469786Y-101437150D01*
X115469783Y-101437151D01*
X115300680Y-101482462D01*
X115191155Y-101511809D01*
X115191139Y-101511814D01*
X114924663Y-101622191D01*
X114924647Y-101622199D01*
X114674851Y-101766420D01*
X114674835Y-101766431D01*
X114445997Y-101942024D01*
X114445990Y-101942030D01*
X114242030Y-102145990D01*
X114242024Y-102145997D01*
X114066431Y-102374835D01*
X114066420Y-102374851D01*
X113922199Y-102624647D01*
X113922191Y-102624663D01*
X113811814Y-102891139D01*
X113811809Y-102891155D01*
X113737152Y-103169780D01*
X113737149Y-103169793D01*
X113699501Y-103455761D01*
X113699500Y-103455778D01*
X112400500Y-103455778D01*
X112400500Y-99443982D01*
X130574500Y-99443982D01*
X130574500Y-99556018D01*
X130603497Y-99664237D01*
X130659515Y-99761263D01*
X130738737Y-99840485D01*
X130835763Y-99896503D01*
X130943982Y-99925500D01*
X130943984Y-99925500D01*
X131056016Y-99925500D01*
X131056018Y-99925500D01*
X131164237Y-99896503D01*
X131261263Y-99840485D01*
X131340485Y-99761263D01*
X131396503Y-99664237D01*
X131401255Y-99646504D01*
X131680000Y-99646504D01*
X131680000Y-100045000D01*
X132380000Y-100045000D01*
X132380000Y-100545000D01*
X131680000Y-100545000D01*
X131680000Y-100943495D01*
X131718427Y-101136681D01*
X131718430Y-101136693D01*
X131793807Y-101318671D01*
X131793814Y-101318684D01*
X131903248Y-101482462D01*
X131903251Y-101482466D01*
X132042533Y-101621748D01*
X132042537Y-101621751D01*
X132206315Y-101731185D01*
X132206328Y-101731192D01*
X132388308Y-101806569D01*
X132430000Y-101814862D01*
X132430000Y-101011988D01*
X132439940Y-101029205D01*
X132495795Y-101085060D01*
X132564204Y-101124556D01*
X132640504Y-101145000D01*
X132719496Y-101145000D01*
X132795796Y-101124556D01*
X132864205Y-101085060D01*
X132920060Y-101029205D01*
X132930000Y-101011988D01*
X132930000Y-101814862D01*
X132971690Y-101806569D01*
X132971692Y-101806569D01*
X133153671Y-101731192D01*
X133153684Y-101731185D01*
X133317462Y-101621751D01*
X133317466Y-101621748D01*
X133456748Y-101482466D01*
X133456751Y-101482462D01*
X133566185Y-101318684D01*
X133566190Y-101318674D01*
X133590160Y-101260804D01*
X133634000Y-101206399D01*
X133700293Y-101184333D01*
X133767993Y-101201611D01*
X133780375Y-101211229D01*
X133780890Y-101210559D01*
X133787333Y-101215503D01*
X133787335Y-101215505D01*
X133907164Y-101284688D01*
X134040817Y-101320500D01*
X134040819Y-101320500D01*
X134179181Y-101320500D01*
X134179183Y-101320500D01*
X134312836Y-101284688D01*
X134432665Y-101215505D01*
X134530505Y-101117665D01*
X134599688Y-100997836D01*
X134635500Y-100864183D01*
X134635500Y-100725817D01*
X139364500Y-100725817D01*
X139364500Y-100864183D01*
X139385752Y-100943495D01*
X139400312Y-100997835D01*
X139400313Y-100997838D01*
X139469492Y-101117661D01*
X139469494Y-101117664D01*
X139469495Y-101117665D01*
X139567335Y-101215505D01*
X139687164Y-101284688D01*
X139820817Y-101320500D01*
X139820819Y-101320500D01*
X139959181Y-101320500D01*
X139959183Y-101320500D01*
X140092836Y-101284688D01*
X140212665Y-101215505D01*
X140212669Y-101215500D01*
X140219110Y-101210559D01*
X140221133Y-101213196D01*
X140268830Y-101187107D01*
X140338525Y-101192040D01*
X140394489Y-101233870D01*
X140409838Y-101260802D01*
X140433807Y-101318672D01*
X140433814Y-101318684D01*
X140543248Y-101482462D01*
X140543251Y-101482466D01*
X140682533Y-101621748D01*
X140682537Y-101621751D01*
X140846315Y-101731185D01*
X140846328Y-101731192D01*
X141028308Y-101806569D01*
X141070000Y-101814862D01*
X141070000Y-101011988D01*
X141079940Y-101029205D01*
X141135795Y-101085060D01*
X141204204Y-101124556D01*
X141280504Y-101145000D01*
X141359496Y-101145000D01*
X141435796Y-101124556D01*
X141504205Y-101085060D01*
X141560060Y-101029205D01*
X141570000Y-101011988D01*
X141570000Y-101814862D01*
X141611690Y-101806569D01*
X141611692Y-101806569D01*
X141793671Y-101731192D01*
X141793684Y-101731185D01*
X141957462Y-101621751D01*
X141957466Y-101621748D01*
X142096748Y-101482466D01*
X142096751Y-101482462D01*
X142206185Y-101318684D01*
X142206192Y-101318671D01*
X142281569Y-101136693D01*
X142281572Y-101136681D01*
X142319999Y-100943495D01*
X142320000Y-100943492D01*
X142320000Y-100545000D01*
X141620000Y-100545000D01*
X141620000Y-100045000D01*
X142320000Y-100045000D01*
X142320000Y-99646508D01*
X142319999Y-99646504D01*
X142281572Y-99453318D01*
X142281569Y-99453306D01*
X142206192Y-99271328D01*
X142206185Y-99271315D01*
X142096751Y-99107537D01*
X142096748Y-99107533D01*
X141957466Y-98968251D01*
X141957462Y-98968248D01*
X141793684Y-98858814D01*
X141793671Y-98858807D01*
X141611691Y-98783429D01*
X141611683Y-98783427D01*
X141570000Y-98775135D01*
X141570000Y-99578011D01*
X141560060Y-99560795D01*
X141504205Y-99504940D01*
X141435796Y-99465444D01*
X141359496Y-99445000D01*
X141280504Y-99445000D01*
X141204204Y-99465444D01*
X141135795Y-99504940D01*
X141079940Y-99560795D01*
X141070000Y-99578011D01*
X141070000Y-98775136D01*
X141069999Y-98775135D01*
X141028316Y-98783427D01*
X141028308Y-98783429D01*
X140846328Y-98858807D01*
X140846315Y-98858814D01*
X140682537Y-98968248D01*
X140682533Y-98968251D01*
X140543251Y-99107533D01*
X140543248Y-99107537D01*
X140433814Y-99271315D01*
X140433807Y-99271328D01*
X140358430Y-99453306D01*
X140358427Y-99453318D01*
X140320000Y-99646504D01*
X140320000Y-100045000D01*
X141020000Y-100045000D01*
X141020000Y-100545000D01*
X140424050Y-100545000D01*
X140357011Y-100525315D01*
X140316663Y-100483001D01*
X140310505Y-100472335D01*
X140212666Y-100374496D01*
X140212661Y-100374492D01*
X140092838Y-100305313D01*
X140092837Y-100305312D01*
X140092836Y-100305312D01*
X139959183Y-100269500D01*
X139820817Y-100269500D01*
X139687164Y-100305312D01*
X139687161Y-100305313D01*
X139567338Y-100374492D01*
X139567333Y-100374496D01*
X139469496Y-100472333D01*
X139469492Y-100472338D01*
X139400313Y-100592161D01*
X139400312Y-100592164D01*
X139364500Y-100725817D01*
X134635500Y-100725817D01*
X134599688Y-100592164D01*
X134530505Y-100472335D01*
X134432665Y-100374495D01*
X134432664Y-100374494D01*
X134432661Y-100374492D01*
X134312838Y-100305313D01*
X134312837Y-100305312D01*
X134312836Y-100305312D01*
X134179183Y-100269500D01*
X134040817Y-100269500D01*
X133907164Y-100305312D01*
X133907161Y-100305313D01*
X133787338Y-100374492D01*
X133787333Y-100374496D01*
X133689494Y-100472335D01*
X133683337Y-100483001D01*
X133632769Y-100531216D01*
X133575950Y-100545000D01*
X132980000Y-100545000D01*
X132980000Y-100045000D01*
X133680000Y-100045000D01*
X133680000Y-99646508D01*
X133679999Y-99646504D01*
X133641572Y-99453318D01*
X133641569Y-99453306D01*
X133566192Y-99271328D01*
X133566185Y-99271315D01*
X133456751Y-99107537D01*
X133456748Y-99107533D01*
X133317466Y-98968251D01*
X133317462Y-98968248D01*
X133153684Y-98858814D01*
X133153671Y-98858807D01*
X132971691Y-98783429D01*
X132971683Y-98783427D01*
X132930000Y-98775135D01*
X132930000Y-99578011D01*
X132920060Y-99560795D01*
X132864205Y-99504940D01*
X132795796Y-99465444D01*
X132719496Y-99445000D01*
X132640504Y-99445000D01*
X132564204Y-99465444D01*
X132495795Y-99504940D01*
X132439940Y-99560795D01*
X132430000Y-99578011D01*
X132430000Y-98775136D01*
X132429999Y-98775135D01*
X132388316Y-98783427D01*
X132388308Y-98783429D01*
X132206328Y-98858807D01*
X132206315Y-98858814D01*
X132042537Y-98968248D01*
X132042533Y-98968251D01*
X131903251Y-99107533D01*
X131903248Y-99107537D01*
X131793814Y-99271315D01*
X131793807Y-99271328D01*
X131718430Y-99453306D01*
X131718427Y-99453318D01*
X131680000Y-99646504D01*
X131401255Y-99646504D01*
X131425500Y-99556018D01*
X131425500Y-99443982D01*
X131396503Y-99335763D01*
X131340485Y-99238737D01*
X131261263Y-99159515D01*
X131196579Y-99122169D01*
X131164239Y-99103498D01*
X131164238Y-99103497D01*
X131164237Y-99103497D01*
X131056018Y-99074500D01*
X130943982Y-99074500D01*
X130835763Y-99103497D01*
X130835760Y-99103498D01*
X130738740Y-99159513D01*
X130738734Y-99159517D01*
X130659517Y-99238734D01*
X130659513Y-99238740D01*
X130603498Y-99335760D01*
X130603497Y-99335763D01*
X130574500Y-99443982D01*
X112400500Y-99443982D01*
X112400500Y-97943982D01*
X129874500Y-97943982D01*
X129874500Y-98056018D01*
X129903497Y-98164237D01*
X129959515Y-98261263D01*
X130038737Y-98340485D01*
X130135763Y-98396503D01*
X130243982Y-98425500D01*
X130243984Y-98425500D01*
X130356016Y-98425500D01*
X130356018Y-98425500D01*
X130464237Y-98396503D01*
X130561263Y-98340485D01*
X130640485Y-98261263D01*
X130696503Y-98164237D01*
X130725500Y-98056018D01*
X130725500Y-98028557D01*
X130745185Y-97961518D01*
X130797989Y-97915763D01*
X130867147Y-97905819D01*
X130881573Y-97908777D01*
X130943982Y-97925500D01*
X130943985Y-97925500D01*
X131056016Y-97925500D01*
X131056018Y-97925500D01*
X131164237Y-97896503D01*
X131261263Y-97840485D01*
X131340485Y-97761263D01*
X131396503Y-97664237D01*
X131425500Y-97556018D01*
X131425500Y-97443982D01*
X131396503Y-97335763D01*
X131340485Y-97238737D01*
X131261263Y-97159515D01*
X131164237Y-97103497D01*
X131056018Y-97074500D01*
X130943982Y-97074500D01*
X130835763Y-97103497D01*
X130835760Y-97103498D01*
X130738740Y-97159513D01*
X130738734Y-97159517D01*
X130659517Y-97238734D01*
X130659513Y-97238740D01*
X130603498Y-97335760D01*
X130603497Y-97335763D01*
X130574500Y-97443982D01*
X130574500Y-97471442D01*
X130554815Y-97538481D01*
X130502011Y-97584236D01*
X130432853Y-97594180D01*
X130418407Y-97591217D01*
X130392353Y-97584236D01*
X130356018Y-97574500D01*
X130243982Y-97574500D01*
X130135763Y-97603497D01*
X130135760Y-97603498D01*
X130038740Y-97659513D01*
X130038734Y-97659517D01*
X129959517Y-97738734D01*
X129959513Y-97738740D01*
X129903498Y-97835760D01*
X129903497Y-97835763D01*
X129874500Y-97943982D01*
X112400500Y-97943982D01*
X112400500Y-94770247D01*
X156549500Y-94770247D01*
X156549500Y-96509752D01*
X156561131Y-96568229D01*
X156561132Y-96568230D01*
X156605447Y-96634552D01*
X156671769Y-96678867D01*
X156671770Y-96678868D01*
X156730247Y-96690499D01*
X156730250Y-96690500D01*
X156730252Y-96690500D01*
X158469750Y-96690500D01*
X158469751Y-96690499D01*
X158484568Y-96687552D01*
X158528229Y-96678868D01*
X158528229Y-96678867D01*
X158528231Y-96678867D01*
X158594552Y-96634552D01*
X158638867Y-96568231D01*
X158638867Y-96568229D01*
X158638868Y-96568229D01*
X158650499Y-96509752D01*
X158650500Y-96509750D01*
X158650500Y-94770249D01*
X158650499Y-94770247D01*
X158638868Y-94711770D01*
X158638867Y-94711769D01*
X158594552Y-94645447D01*
X158528230Y-94601132D01*
X158528229Y-94601131D01*
X158469752Y-94589500D01*
X158469748Y-94589500D01*
X156730252Y-94589500D01*
X156730247Y-94589500D01*
X156671770Y-94601131D01*
X156671769Y-94601132D01*
X156605447Y-94645447D01*
X156561132Y-94711769D01*
X156561131Y-94711770D01*
X156549500Y-94770247D01*
X112400500Y-94770247D01*
X112400500Y-92643982D01*
X129874500Y-92643982D01*
X129874500Y-92756018D01*
X129903497Y-92864237D01*
X129959515Y-92961263D01*
X130038737Y-93040485D01*
X130135763Y-93096503D01*
X130243982Y-93125500D01*
X130243984Y-93125500D01*
X130356016Y-93125500D01*
X130356018Y-93125500D01*
X130464237Y-93096503D01*
X130561263Y-93040485D01*
X130605218Y-92996530D01*
X156549500Y-92996530D01*
X156549500Y-93203469D01*
X156589868Y-93406412D01*
X156589870Y-93406420D01*
X156669058Y-93597596D01*
X156784024Y-93769657D01*
X156930342Y-93915975D01*
X156930345Y-93915977D01*
X157102402Y-94030941D01*
X157293580Y-94110130D01*
X157496530Y-94150499D01*
X157496534Y-94150500D01*
X157496535Y-94150500D01*
X157703466Y-94150500D01*
X157703467Y-94150499D01*
X157906420Y-94110130D01*
X158097598Y-94030941D01*
X158269655Y-93915977D01*
X158415977Y-93769655D01*
X158530941Y-93597598D01*
X158610130Y-93406420D01*
X158650500Y-93203465D01*
X158650500Y-92996535D01*
X158610130Y-92793580D01*
X158530941Y-92602402D01*
X158415977Y-92430345D01*
X158415975Y-92430342D01*
X158269657Y-92284024D01*
X158183626Y-92226541D01*
X158097598Y-92169059D01*
X158024387Y-92138734D01*
X157906420Y-92089870D01*
X157906412Y-92089868D01*
X157703469Y-92049500D01*
X157703465Y-92049500D01*
X157496535Y-92049500D01*
X157496530Y-92049500D01*
X157293587Y-92089868D01*
X157293579Y-92089870D01*
X157102403Y-92169058D01*
X156930342Y-92284024D01*
X156784024Y-92430342D01*
X156669058Y-92602403D01*
X156589870Y-92793579D01*
X156589868Y-92793587D01*
X156549500Y-92996530D01*
X130605218Y-92996530D01*
X130640485Y-92961263D01*
X130696503Y-92864237D01*
X130725500Y-92756018D01*
X130725500Y-92643982D01*
X130696503Y-92535763D01*
X130640485Y-92438737D01*
X130561263Y-92359515D01*
X130534359Y-92343982D01*
X144249500Y-92343982D01*
X144249500Y-92456018D01*
X144278497Y-92564237D01*
X144334515Y-92661263D01*
X144413737Y-92740485D01*
X144510763Y-92796503D01*
X144618982Y-92825500D01*
X144618984Y-92825500D01*
X144731016Y-92825500D01*
X144731018Y-92825500D01*
X144839237Y-92796503D01*
X144936263Y-92740485D01*
X145015485Y-92661263D01*
X145071503Y-92564237D01*
X145100500Y-92456018D01*
X145100500Y-92343982D01*
X145071503Y-92235763D01*
X145015485Y-92138737D01*
X144936263Y-92059515D01*
X144839237Y-92003497D01*
X144731018Y-91974500D01*
X144618982Y-91974500D01*
X144510763Y-92003497D01*
X144510760Y-92003498D01*
X144413740Y-92059513D01*
X144413734Y-92059517D01*
X144334517Y-92138734D01*
X144334513Y-92138740D01*
X144278498Y-92235760D01*
X144278497Y-92235763D01*
X144249500Y-92343982D01*
X130534359Y-92343982D01*
X130464237Y-92303497D01*
X130356018Y-92274500D01*
X130243982Y-92274500D01*
X130135763Y-92303497D01*
X130135760Y-92303498D01*
X130038740Y-92359513D01*
X130038734Y-92359517D01*
X129959517Y-92438734D01*
X129959513Y-92438740D01*
X129903498Y-92535760D01*
X129903497Y-92535763D01*
X129874500Y-92643982D01*
X112400500Y-92643982D01*
X112400500Y-91467577D01*
X138045975Y-91467577D01*
X138151236Y-91511178D01*
X138151240Y-91511179D01*
X138296126Y-91539999D01*
X138296129Y-91540000D01*
X138443871Y-91540000D01*
X138443873Y-91539999D01*
X138588760Y-91511179D01*
X138588775Y-91511175D01*
X138694024Y-91467578D01*
X138694024Y-91467577D01*
X138620429Y-91393982D01*
X139354500Y-91393982D01*
X139354500Y-91506018D01*
X139383497Y-91614237D01*
X139439515Y-91711263D01*
X139518737Y-91790485D01*
X139615763Y-91846503D01*
X139723982Y-91875500D01*
X139723984Y-91875500D01*
X139836016Y-91875500D01*
X139836018Y-91875500D01*
X139944237Y-91846503D01*
X140041263Y-91790485D01*
X140120485Y-91711263D01*
X140176503Y-91614237D01*
X140205500Y-91506018D01*
X140205500Y-91393982D01*
X140176503Y-91285763D01*
X140120485Y-91188737D01*
X140041263Y-91109515D01*
X139944237Y-91053497D01*
X139836018Y-91024500D01*
X139723982Y-91024500D01*
X139615763Y-91053497D01*
X139615760Y-91053498D01*
X139518740Y-91109513D01*
X139518734Y-91109517D01*
X139439517Y-91188734D01*
X139439513Y-91188740D01*
X139383498Y-91285760D01*
X139383497Y-91285763D01*
X139354500Y-91393982D01*
X138620429Y-91393982D01*
X138370001Y-91143554D01*
X138370000Y-91143554D01*
X138045975Y-91467577D01*
X112400500Y-91467577D01*
X112400500Y-90517577D01*
X137470975Y-90517577D01*
X137551127Y-90550778D01*
X137605530Y-90594620D01*
X137627594Y-90660914D01*
X137625291Y-90689527D01*
X137620000Y-90716129D01*
X137620000Y-90863873D01*
X137648820Y-91008759D01*
X137648822Y-91008767D01*
X137692421Y-91114024D01*
X138105542Y-90700904D01*
X138166865Y-90667419D01*
X138236557Y-90672403D01*
X138280904Y-90700904D01*
X138299289Y-90719289D01*
X138285224Y-90733355D01*
X138270000Y-90770109D01*
X138270000Y-90809891D01*
X138285224Y-90846645D01*
X138313355Y-90874776D01*
X138350109Y-90890000D01*
X138389891Y-90890000D01*
X138426645Y-90874776D01*
X138454776Y-90846645D01*
X138470000Y-90809891D01*
X138470000Y-90770109D01*
X138454776Y-90733355D01*
X138440709Y-90719288D01*
X138459094Y-90700904D01*
X138520417Y-90667419D01*
X138590109Y-90672403D01*
X138634457Y-90700904D01*
X139047577Y-91114024D01*
X139047578Y-91114024D01*
X139091175Y-91008775D01*
X139091179Y-91008760D01*
X139119999Y-90863873D01*
X139120000Y-90863871D01*
X139120000Y-90716129D01*
X139114709Y-90689532D01*
X139120936Y-90619940D01*
X139163798Y-90564762D01*
X139188872Y-90550778D01*
X139269024Y-90517577D01*
X138945000Y-90193554D01*
X138587204Y-90551350D01*
X138525881Y-90584835D01*
X138456189Y-90579851D01*
X138411842Y-90551350D01*
X138370000Y-90509508D01*
X138328158Y-90551350D01*
X138266834Y-90584834D01*
X138197143Y-90579849D01*
X138152796Y-90551349D01*
X137795001Y-90193554D01*
X137795000Y-90193554D01*
X137470975Y-90517577D01*
X112400500Y-90517577D01*
X112400500Y-89766126D01*
X137045000Y-89766126D01*
X137045000Y-89913873D01*
X137073820Y-90058759D01*
X137073822Y-90058767D01*
X137117421Y-90164024D01*
X137441446Y-89840000D01*
X137441446Y-89839999D01*
X137421556Y-89820109D01*
X137695000Y-89820109D01*
X137695000Y-89859891D01*
X137710224Y-89896645D01*
X137738355Y-89924776D01*
X137775109Y-89940000D01*
X137814891Y-89940000D01*
X137851645Y-89924776D01*
X137879776Y-89896645D01*
X137895000Y-89859891D01*
X137895000Y-89840000D01*
X138148554Y-89840000D01*
X138370000Y-90061446D01*
X138591446Y-89840000D01*
X138571555Y-89820109D01*
X138845000Y-89820109D01*
X138845000Y-89859891D01*
X138860224Y-89896645D01*
X138888355Y-89924776D01*
X138925109Y-89940000D01*
X138964891Y-89940000D01*
X139001645Y-89924776D01*
X139029776Y-89896645D01*
X139045000Y-89859891D01*
X139045000Y-89839999D01*
X139298554Y-89839999D01*
X139298554Y-89840001D01*
X139622577Y-90164024D01*
X139622578Y-90164024D01*
X139666175Y-90058775D01*
X139666179Y-90058760D01*
X139694999Y-89913873D01*
X139695000Y-89913871D01*
X139695000Y-89766128D01*
X139694999Y-89766126D01*
X139666179Y-89621240D01*
X139666178Y-89621236D01*
X139622577Y-89515975D01*
X139298554Y-89839999D01*
X139045000Y-89839999D01*
X139045000Y-89820109D01*
X139029776Y-89783355D01*
X139001645Y-89755224D01*
X138964891Y-89740000D01*
X138925109Y-89740000D01*
X138888355Y-89755224D01*
X138860224Y-89783355D01*
X138845000Y-89820109D01*
X138571555Y-89820109D01*
X138370000Y-89618554D01*
X138148554Y-89840000D01*
X137895000Y-89840000D01*
X137895000Y-89820109D01*
X137879776Y-89783355D01*
X137851645Y-89755224D01*
X137814891Y-89740000D01*
X137775109Y-89740000D01*
X137738355Y-89755224D01*
X137710224Y-89783355D01*
X137695000Y-89820109D01*
X137421556Y-89820109D01*
X137117421Y-89515974D01*
X137117420Y-89515974D01*
X137073823Y-89621228D01*
X137073820Y-89621240D01*
X137045000Y-89766126D01*
X112400500Y-89766126D01*
X112400500Y-89162421D01*
X137470974Y-89162421D01*
X137794999Y-89486446D01*
X138152796Y-89128650D01*
X138214119Y-89095165D01*
X138283811Y-89100149D01*
X138328158Y-89128650D01*
X138370000Y-89170492D01*
X138411842Y-89128650D01*
X138473165Y-89095165D01*
X138542857Y-89100149D01*
X138587204Y-89128650D01*
X138945000Y-89486446D01*
X138945001Y-89486446D01*
X139269024Y-89162421D01*
X139188873Y-89129221D01*
X139134470Y-89085380D01*
X139112405Y-89019086D01*
X139114709Y-88990467D01*
X139120000Y-88963869D01*
X139120000Y-88816128D01*
X139119999Y-88816126D01*
X139091179Y-88671240D01*
X139091178Y-88671236D01*
X139047576Y-88565974D01*
X138634457Y-88979095D01*
X138573134Y-89012580D01*
X138503442Y-89007596D01*
X138459095Y-88979095D01*
X138440710Y-88960710D01*
X138454776Y-88946645D01*
X138470000Y-88909891D01*
X138470000Y-88870109D01*
X138454776Y-88833355D01*
X138426645Y-88805224D01*
X138389891Y-88790000D01*
X138350109Y-88790000D01*
X138313355Y-88805224D01*
X138285224Y-88833355D01*
X138270000Y-88870109D01*
X138270000Y-88909891D01*
X138285224Y-88946645D01*
X138299289Y-88960710D01*
X138280904Y-88979096D01*
X138219581Y-89012580D01*
X138149889Y-89007596D01*
X138105542Y-88979095D01*
X137692421Y-88565974D01*
X137692420Y-88565974D01*
X137648823Y-88671228D01*
X137648820Y-88671240D01*
X137620000Y-88816126D01*
X137620000Y-88963869D01*
X137625291Y-88990471D01*
X137619062Y-89060062D01*
X137576198Y-89115239D01*
X137551126Y-89129221D01*
X137470974Y-89162421D01*
X112400500Y-89162421D01*
X112400500Y-88183982D01*
X136544500Y-88183982D01*
X136544500Y-88296018D01*
X136573497Y-88404237D01*
X136629515Y-88501263D01*
X136708737Y-88580485D01*
X136805763Y-88636503D01*
X136913982Y-88665500D01*
X136913984Y-88665500D01*
X137026016Y-88665500D01*
X137026018Y-88665500D01*
X137134237Y-88636503D01*
X137231263Y-88580485D01*
X137310485Y-88501263D01*
X137366503Y-88404237D01*
X137395500Y-88296018D01*
X137395500Y-88212420D01*
X138045974Y-88212420D01*
X138045974Y-88212421D01*
X138370000Y-88536446D01*
X138370001Y-88536446D01*
X138694024Y-88212421D01*
X138588767Y-88168822D01*
X138588759Y-88168820D01*
X138443872Y-88140000D01*
X138296128Y-88140000D01*
X138151240Y-88168820D01*
X138151228Y-88168823D01*
X138045974Y-88212420D01*
X137395500Y-88212420D01*
X137395500Y-88183982D01*
X137366503Y-88075763D01*
X137310485Y-87978737D01*
X137231263Y-87899515D01*
X137134237Y-87843497D01*
X137026018Y-87814500D01*
X136913982Y-87814500D01*
X136805763Y-87843497D01*
X136805760Y-87843498D01*
X136708740Y-87899513D01*
X136708734Y-87899517D01*
X136629517Y-87978734D01*
X136629513Y-87978740D01*
X136573498Y-88075760D01*
X136573497Y-88075763D01*
X136544500Y-88183982D01*
X112400500Y-88183982D01*
X112400500Y-86993982D01*
X139624500Y-86993982D01*
X139624500Y-87106018D01*
X139653497Y-87214237D01*
X139709515Y-87311263D01*
X139788737Y-87390485D01*
X139885763Y-87446503D01*
X139993982Y-87475500D01*
X139993984Y-87475500D01*
X140106016Y-87475500D01*
X140106018Y-87475500D01*
X140214237Y-87446503D01*
X140311263Y-87390485D01*
X140390485Y-87311263D01*
X140446503Y-87214237D01*
X140475500Y-87106018D01*
X140475500Y-86993982D01*
X140446503Y-86885763D01*
X140390485Y-86788737D01*
X140311263Y-86709515D01*
X140214237Y-86653497D01*
X140106018Y-86624500D01*
X139993982Y-86624500D01*
X139885763Y-86653497D01*
X139885760Y-86653498D01*
X139788740Y-86709513D01*
X139788734Y-86709517D01*
X139709517Y-86788734D01*
X139709513Y-86788740D01*
X139653498Y-86885760D01*
X139653497Y-86885763D01*
X139624500Y-86993982D01*
X112400500Y-86993982D01*
X112400500Y-86456582D01*
X124674501Y-86456582D01*
X124674501Y-86568618D01*
X124703498Y-86676837D01*
X124759516Y-86773863D01*
X124838738Y-86853085D01*
X124935764Y-86909103D01*
X125043983Y-86938100D01*
X125043985Y-86938100D01*
X125156017Y-86938100D01*
X125156019Y-86938100D01*
X125264238Y-86909103D01*
X125361264Y-86853085D01*
X125440486Y-86773863D01*
X125496504Y-86676837D01*
X125525501Y-86568618D01*
X125525501Y-86456582D01*
X125496504Y-86348363D01*
X125440486Y-86251337D01*
X125361264Y-86172115D01*
X125264238Y-86116097D01*
X125156019Y-86087100D01*
X125043983Y-86087100D01*
X124935764Y-86116097D01*
X124935761Y-86116098D01*
X124838741Y-86172113D01*
X124838735Y-86172117D01*
X124759518Y-86251334D01*
X124759514Y-86251340D01*
X124703499Y-86348360D01*
X124703498Y-86348363D01*
X124674501Y-86456582D01*
X112400500Y-86456582D01*
X112400500Y-84343982D01*
X122974500Y-84343982D01*
X122974500Y-84456018D01*
X123003497Y-84564237D01*
X123059515Y-84661263D01*
X123138737Y-84740485D01*
X123235763Y-84796503D01*
X123343982Y-84825500D01*
X123343984Y-84825500D01*
X123456016Y-84825500D01*
X123456018Y-84825500D01*
X123564237Y-84796503D01*
X123661263Y-84740485D01*
X123740485Y-84661263D01*
X123796503Y-84564237D01*
X123825500Y-84456018D01*
X123825500Y-84343982D01*
X123796503Y-84235763D01*
X123740485Y-84138737D01*
X123661263Y-84059515D01*
X123564237Y-84003497D01*
X123456018Y-83974500D01*
X123343982Y-83974500D01*
X123235763Y-84003497D01*
X123235760Y-84003498D01*
X123138740Y-84059513D01*
X123138734Y-84059517D01*
X123059517Y-84138734D01*
X123059513Y-84138740D01*
X123003498Y-84235760D01*
X123003497Y-84235763D01*
X122974500Y-84343982D01*
X112400500Y-84343982D01*
X112400500Y-82173982D01*
X126864500Y-82173982D01*
X126864500Y-82286018D01*
X126893497Y-82394237D01*
X126949515Y-82491263D01*
X127028737Y-82570485D01*
X127125763Y-82626503D01*
X127233982Y-82655500D01*
X127233984Y-82655500D01*
X127346016Y-82655500D01*
X127346018Y-82655500D01*
X127454237Y-82626503D01*
X127551263Y-82570485D01*
X127630485Y-82491263D01*
X127686503Y-82394237D01*
X127715500Y-82286018D01*
X127715500Y-82173982D01*
X127686503Y-82065763D01*
X127630485Y-81968737D01*
X127551263Y-81889515D01*
X127454237Y-81833497D01*
X127346018Y-81804500D01*
X127233982Y-81804500D01*
X127125763Y-81833497D01*
X127125760Y-81833498D01*
X127028740Y-81889513D01*
X127028734Y-81889517D01*
X126949517Y-81968734D01*
X126949513Y-81968740D01*
X126893498Y-82065760D01*
X126893497Y-82065763D01*
X126864500Y-82173982D01*
X112400500Y-82173982D01*
X112400500Y-80693982D01*
X133924500Y-80693982D01*
X133924500Y-80806018D01*
X133953497Y-80914237D01*
X134009515Y-81011263D01*
X134088737Y-81090485D01*
X134185763Y-81146503D01*
X134293982Y-81175500D01*
X134293984Y-81175500D01*
X134406016Y-81175500D01*
X134406018Y-81175500D01*
X134514237Y-81146503D01*
X134611263Y-81090485D01*
X134690485Y-81011263D01*
X134746503Y-80914237D01*
X134775500Y-80806018D01*
X134775500Y-80693982D01*
X134746503Y-80585763D01*
X134690485Y-80488737D01*
X134611263Y-80409515D01*
X134514237Y-80353497D01*
X134406018Y-80324500D01*
X134293982Y-80324500D01*
X134185763Y-80353497D01*
X134185760Y-80353498D01*
X134088740Y-80409513D01*
X134088734Y-80409517D01*
X134009517Y-80488734D01*
X134009513Y-80488740D01*
X133953498Y-80585760D01*
X133953497Y-80585763D01*
X133924500Y-80693982D01*
X112400500Y-80693982D01*
X112400500Y-79743982D01*
X130074500Y-79743982D01*
X130074500Y-79856018D01*
X130103497Y-79964237D01*
X130159515Y-80061263D01*
X130238737Y-80140485D01*
X130335763Y-80196503D01*
X130443982Y-80225500D01*
X130443984Y-80225500D01*
X130556016Y-80225500D01*
X130556018Y-80225500D01*
X130664237Y-80196503D01*
X130761263Y-80140485D01*
X130840485Y-80061263D01*
X130896503Y-79964237D01*
X130925500Y-79856018D01*
X130925500Y-79743982D01*
X130896503Y-79635763D01*
X130840485Y-79538737D01*
X130761263Y-79459515D01*
X130717267Y-79434114D01*
X146308478Y-79434114D01*
X146308478Y-79546150D01*
X146337475Y-79654369D01*
X146393493Y-79751395D01*
X146472715Y-79830617D01*
X146569741Y-79886635D01*
X146677960Y-79915632D01*
X146677962Y-79915632D01*
X146789994Y-79915632D01*
X146789996Y-79915632D01*
X146898215Y-79886635D01*
X146995241Y-79830617D01*
X147074463Y-79751395D01*
X147130481Y-79654369D01*
X147159478Y-79546150D01*
X147159478Y-79434114D01*
X147130481Y-79325895D01*
X147074463Y-79228869D01*
X146995241Y-79149647D01*
X146898215Y-79093629D01*
X146789996Y-79064632D01*
X146677960Y-79064632D01*
X146569741Y-79093629D01*
X146569738Y-79093630D01*
X146472718Y-79149645D01*
X146472712Y-79149649D01*
X146393495Y-79228866D01*
X146393491Y-79228872D01*
X146337476Y-79325892D01*
X146337475Y-79325895D01*
X146308478Y-79434114D01*
X130717267Y-79434114D01*
X130664237Y-79403497D01*
X130556018Y-79374500D01*
X130443982Y-79374500D01*
X130335763Y-79403497D01*
X130335760Y-79403498D01*
X130238740Y-79459513D01*
X130238734Y-79459517D01*
X130159517Y-79538734D01*
X130159513Y-79538740D01*
X130103498Y-79635760D01*
X130103497Y-79635763D01*
X130074500Y-79743982D01*
X112400500Y-79743982D01*
X112400500Y-78393982D01*
X120224500Y-78393982D01*
X120224500Y-78506018D01*
X120253497Y-78614237D01*
X120309515Y-78711263D01*
X120388737Y-78790485D01*
X120485763Y-78846503D01*
X120593982Y-78875500D01*
X120593984Y-78875500D01*
X120706016Y-78875500D01*
X120706018Y-78875500D01*
X120814237Y-78846503D01*
X120911263Y-78790485D01*
X120990485Y-78711263D01*
X121046503Y-78614237D01*
X121075500Y-78506018D01*
X121075500Y-78393982D01*
X121046503Y-78285763D01*
X120990485Y-78188737D01*
X120911263Y-78109515D01*
X120814237Y-78053497D01*
X120706018Y-78024500D01*
X120593982Y-78024500D01*
X120485763Y-78053497D01*
X120485760Y-78053498D01*
X120388740Y-78109513D01*
X120388734Y-78109517D01*
X120309517Y-78188734D01*
X120309513Y-78188740D01*
X120253498Y-78285760D01*
X120253497Y-78285763D01*
X120224500Y-78393982D01*
X112400500Y-78393982D01*
X112400500Y-77293982D01*
X145724500Y-77293982D01*
X145724500Y-77406018D01*
X145753497Y-77514237D01*
X145809515Y-77611263D01*
X145888737Y-77690485D01*
X145985763Y-77746503D01*
X146093982Y-77775500D01*
X146093984Y-77775500D01*
X146206016Y-77775500D01*
X146206018Y-77775500D01*
X146314237Y-77746503D01*
X146411263Y-77690485D01*
X146490485Y-77611263D01*
X146546503Y-77514237D01*
X146575500Y-77406018D01*
X146575500Y-77293982D01*
X146546503Y-77185763D01*
X146490485Y-77088737D01*
X146411263Y-77009515D01*
X146314237Y-76953497D01*
X146206018Y-76924500D01*
X146093982Y-76924500D01*
X145985763Y-76953497D01*
X145985760Y-76953498D01*
X145888740Y-77009513D01*
X145888734Y-77009517D01*
X145809517Y-77088734D01*
X145809513Y-77088740D01*
X145753498Y-77185760D01*
X145753497Y-77185763D01*
X145724500Y-77293982D01*
X112400500Y-77293982D01*
X112400500Y-76243982D01*
X128374500Y-76243982D01*
X128374500Y-76356018D01*
X128403497Y-76464237D01*
X128459515Y-76561263D01*
X128538737Y-76640485D01*
X128635763Y-76696503D01*
X128743982Y-76725500D01*
X128743984Y-76725500D01*
X128856016Y-76725500D01*
X128856018Y-76725500D01*
X128964237Y-76696503D01*
X129061263Y-76640485D01*
X129140485Y-76561263D01*
X129196503Y-76464237D01*
X129225500Y-76356018D01*
X129225500Y-76243982D01*
X129212103Y-76193982D01*
X145724500Y-76193982D01*
X145724500Y-76306018D01*
X145753497Y-76414237D01*
X145809515Y-76511263D01*
X145888737Y-76590485D01*
X145985763Y-76646503D01*
X146093982Y-76675500D01*
X146093984Y-76675500D01*
X146206016Y-76675500D01*
X146206018Y-76675500D01*
X146314237Y-76646503D01*
X146411263Y-76590485D01*
X146490485Y-76511263D01*
X146546503Y-76414237D01*
X146575500Y-76306018D01*
X146575500Y-76193982D01*
X146546503Y-76085763D01*
X146490485Y-75988737D01*
X146411263Y-75909515D01*
X146314237Y-75853497D01*
X146206018Y-75824500D01*
X146093982Y-75824500D01*
X145985763Y-75853497D01*
X145985760Y-75853498D01*
X145888740Y-75909513D01*
X145888734Y-75909517D01*
X145809517Y-75988734D01*
X145809513Y-75988740D01*
X145753498Y-76085760D01*
X145753497Y-76085763D01*
X145724500Y-76193982D01*
X129212103Y-76193982D01*
X129196503Y-76135763D01*
X129140485Y-76038737D01*
X129061263Y-75959515D01*
X128974664Y-75909517D01*
X128964239Y-75903498D01*
X128964238Y-75903497D01*
X128964237Y-75903497D01*
X128856018Y-75874500D01*
X128743982Y-75874500D01*
X128635763Y-75903497D01*
X128635760Y-75903498D01*
X128538740Y-75959513D01*
X128538734Y-75959517D01*
X128459517Y-76038734D01*
X128459513Y-76038740D01*
X128403498Y-76135760D01*
X128403497Y-76135763D01*
X128374500Y-76243982D01*
X112400500Y-76243982D01*
X112400500Y-75043982D01*
X132874500Y-75043982D01*
X132874500Y-75156018D01*
X132903497Y-75264237D01*
X132959515Y-75361263D01*
X133038737Y-75440485D01*
X133135763Y-75496503D01*
X133243982Y-75525500D01*
X133243984Y-75525500D01*
X133356016Y-75525500D01*
X133356018Y-75525500D01*
X133464237Y-75496503D01*
X133561263Y-75440485D01*
X133640485Y-75361263D01*
X133696503Y-75264237D01*
X133725500Y-75156018D01*
X133725500Y-75043982D01*
X140024500Y-75043982D01*
X140024500Y-75156018D01*
X140053497Y-75264237D01*
X140109515Y-75361263D01*
X140188737Y-75440485D01*
X140285763Y-75496503D01*
X140393982Y-75525500D01*
X140393984Y-75525500D01*
X140506016Y-75525500D01*
X140506018Y-75525500D01*
X140614237Y-75496503D01*
X140711263Y-75440485D01*
X140790485Y-75361263D01*
X140846503Y-75264237D01*
X140875500Y-75156018D01*
X140875500Y-75043982D01*
X140846503Y-74935763D01*
X140790485Y-74838737D01*
X140711263Y-74759515D01*
X140614237Y-74703497D01*
X140506018Y-74674500D01*
X140393982Y-74674500D01*
X140285763Y-74703497D01*
X140285760Y-74703498D01*
X140188740Y-74759513D01*
X140188734Y-74759517D01*
X140109517Y-74838734D01*
X140109513Y-74838740D01*
X140053498Y-74935760D01*
X140053497Y-74935763D01*
X140024500Y-75043982D01*
X133725500Y-75043982D01*
X133696503Y-74935763D01*
X133640485Y-74838737D01*
X133561263Y-74759515D01*
X133464237Y-74703497D01*
X133356018Y-74674500D01*
X133243982Y-74674500D01*
X133135763Y-74703497D01*
X133135760Y-74703498D01*
X133038740Y-74759513D01*
X133038734Y-74759517D01*
X132959517Y-74838734D01*
X132959513Y-74838740D01*
X132903498Y-74935760D01*
X132903497Y-74935763D01*
X132874500Y-75043982D01*
X112400500Y-75043982D01*
X112400500Y-70323982D01*
X124354500Y-70323982D01*
X124354500Y-70436018D01*
X124383497Y-70544237D01*
X124439515Y-70641263D01*
X124518737Y-70720485D01*
X124615763Y-70776503D01*
X124723982Y-70805500D01*
X124723984Y-70805500D01*
X124836016Y-70805500D01*
X124836018Y-70805500D01*
X124944237Y-70776503D01*
X125041263Y-70720485D01*
X125120485Y-70641263D01*
X125176503Y-70544237D01*
X125205500Y-70436018D01*
X125205500Y-70323982D01*
X125176503Y-70215763D01*
X125120485Y-70118737D01*
X125041263Y-70039515D01*
X124944237Y-69983497D01*
X124836018Y-69954500D01*
X124723982Y-69954500D01*
X124615763Y-69983497D01*
X124615760Y-69983498D01*
X124518740Y-70039513D01*
X124518734Y-70039517D01*
X124439517Y-70118734D01*
X124439513Y-70118740D01*
X124383498Y-70215760D01*
X124383497Y-70215763D01*
X124354500Y-70323982D01*
X112400500Y-70323982D01*
X112400500Y-69693982D01*
X120224500Y-69693982D01*
X120224500Y-69806018D01*
X120253497Y-69914237D01*
X120309515Y-70011263D01*
X120388737Y-70090485D01*
X120485763Y-70146503D01*
X120593982Y-70175500D01*
X120593984Y-70175500D01*
X120706016Y-70175500D01*
X120706018Y-70175500D01*
X120814237Y-70146503D01*
X120911263Y-70090485D01*
X120990485Y-70011263D01*
X121046503Y-69914237D01*
X121075500Y-69806018D01*
X121075500Y-69693982D01*
X121046503Y-69585763D01*
X120990485Y-69488737D01*
X120911263Y-69409515D01*
X120814237Y-69353497D01*
X120706018Y-69324500D01*
X120593982Y-69324500D01*
X120485763Y-69353497D01*
X120485760Y-69353498D01*
X120388740Y-69409513D01*
X120388734Y-69409517D01*
X120309517Y-69488734D01*
X120309513Y-69488740D01*
X120253498Y-69585760D01*
X120253497Y-69585763D01*
X120224500Y-69693982D01*
X112400500Y-69693982D01*
X112400500Y-66693982D01*
X116574500Y-66693982D01*
X116574500Y-66806018D01*
X116603497Y-66914237D01*
X116659515Y-67011263D01*
X116738737Y-67090485D01*
X116835763Y-67146503D01*
X116943982Y-67175500D01*
X116943984Y-67175500D01*
X117056016Y-67175500D01*
X117056018Y-67175500D01*
X117164237Y-67146503D01*
X117261263Y-67090485D01*
X117340485Y-67011263D01*
X117396503Y-66914237D01*
X117425500Y-66806018D01*
X117425500Y-66693982D01*
X117396503Y-66585763D01*
X117340485Y-66488737D01*
X117261263Y-66409515D01*
X117164237Y-66353497D01*
X117056018Y-66324500D01*
X116943982Y-66324500D01*
X116835763Y-66353497D01*
X116835760Y-66353498D01*
X116738740Y-66409513D01*
X116738734Y-66409517D01*
X116659517Y-66488734D01*
X116659513Y-66488740D01*
X116603498Y-66585760D01*
X116603497Y-66585763D01*
X116574500Y-66693982D01*
X112400500Y-66693982D01*
X112400500Y-64773982D01*
X121289500Y-64773982D01*
X121289500Y-64886018D01*
X121318497Y-64994237D01*
X121374515Y-65091263D01*
X121453737Y-65170485D01*
X121550763Y-65226503D01*
X121658982Y-65255500D01*
X121658984Y-65255500D01*
X121771016Y-65255500D01*
X121771018Y-65255500D01*
X121879237Y-65226503D01*
X121976263Y-65170485D01*
X122055485Y-65091263D01*
X122111503Y-64994237D01*
X122140500Y-64886018D01*
X122140500Y-64773982D01*
X122135141Y-64753982D01*
X149544500Y-64753982D01*
X149544500Y-64866018D01*
X149573497Y-64974237D01*
X149629515Y-65071263D01*
X149708737Y-65150485D01*
X149805763Y-65206503D01*
X149913982Y-65235500D01*
X149913984Y-65235500D01*
X150026016Y-65235500D01*
X150026018Y-65235500D01*
X150134237Y-65206503D01*
X150231263Y-65150485D01*
X150310485Y-65071263D01*
X150366503Y-64974237D01*
X150395500Y-64866018D01*
X150395500Y-64753982D01*
X150366503Y-64645763D01*
X150310485Y-64548737D01*
X150231263Y-64469515D01*
X150134237Y-64413497D01*
X150026018Y-64384500D01*
X149913982Y-64384500D01*
X149805763Y-64413497D01*
X149805760Y-64413498D01*
X149708740Y-64469513D01*
X149708734Y-64469517D01*
X149629517Y-64548734D01*
X149629513Y-64548740D01*
X149573498Y-64645760D01*
X149573497Y-64645763D01*
X149544500Y-64753982D01*
X122135141Y-64753982D01*
X122111503Y-64665763D01*
X122055485Y-64568737D01*
X121976263Y-64489515D01*
X121879237Y-64433497D01*
X121771018Y-64404500D01*
X121658982Y-64404500D01*
X121550763Y-64433497D01*
X121550760Y-64433498D01*
X121453740Y-64489513D01*
X121453734Y-64489517D01*
X121374517Y-64568734D01*
X121374513Y-64568740D01*
X121318498Y-64665760D01*
X121318497Y-64665763D01*
X121289500Y-64773982D01*
X112400500Y-64773982D01*
X112400500Y-61606404D01*
X112400526Y-61603857D01*
X112400776Y-61591691D01*
X112403568Y-61455778D01*
X113699500Y-61455778D01*
X113699500Y-61744221D01*
X113699501Y-61744238D01*
X113737149Y-62030206D01*
X113737150Y-62030211D01*
X113737151Y-62030217D01*
X113799857Y-62264239D01*
X113811809Y-62308844D01*
X113811814Y-62308860D01*
X113922191Y-62575336D01*
X113922199Y-62575352D01*
X114066420Y-62825148D01*
X114066431Y-62825164D01*
X114242024Y-63054002D01*
X114242030Y-63054009D01*
X114445990Y-63257969D01*
X114445996Y-63257974D01*
X114674844Y-63433575D01*
X114674851Y-63433579D01*
X114924647Y-63577800D01*
X114924663Y-63577808D01*
X115191139Y-63688185D01*
X115191145Y-63688186D01*
X115191155Y-63688191D01*
X115469783Y-63762849D01*
X115755772Y-63800500D01*
X115755779Y-63800500D01*
X116044221Y-63800500D01*
X116044228Y-63800500D01*
X116330217Y-63762849D01*
X116608845Y-63688191D01*
X116608857Y-63688185D01*
X116608860Y-63688185D01*
X116875336Y-63577808D01*
X116875339Y-63577806D01*
X116875345Y-63577804D01*
X117125156Y-63433575D01*
X117354004Y-63257974D01*
X117557974Y-63054004D01*
X117733575Y-62825156D01*
X117877804Y-62575345D01*
X117898451Y-62525500D01*
X117988185Y-62308860D01*
X117988185Y-62308857D01*
X117988191Y-62308845D01*
X118059161Y-62043982D01*
X149564500Y-62043982D01*
X149564500Y-62156018D01*
X149593497Y-62264237D01*
X149649515Y-62361263D01*
X149728737Y-62440485D01*
X149825763Y-62496503D01*
X149933982Y-62525500D01*
X149933984Y-62525500D01*
X150046016Y-62525500D01*
X150046018Y-62525500D01*
X150154237Y-62496503D01*
X150251263Y-62440485D01*
X150330485Y-62361263D01*
X150386503Y-62264237D01*
X150415500Y-62156018D01*
X150415500Y-62043982D01*
X150386503Y-61935763D01*
X150330485Y-61838737D01*
X150251263Y-61759515D01*
X150154237Y-61703497D01*
X150046018Y-61674500D01*
X149933982Y-61674500D01*
X149825763Y-61703497D01*
X149825760Y-61703498D01*
X149728740Y-61759513D01*
X149728734Y-61759517D01*
X149649517Y-61838734D01*
X149649513Y-61838740D01*
X149593498Y-61935760D01*
X149593497Y-61935763D01*
X149564500Y-62043982D01*
X118059161Y-62043982D01*
X118062849Y-62030217D01*
X118100500Y-61744228D01*
X118100500Y-61455778D01*
X155699500Y-61455778D01*
X155699500Y-61744221D01*
X155699501Y-61744238D01*
X155737149Y-62030206D01*
X155737150Y-62030211D01*
X155737151Y-62030217D01*
X155799857Y-62264239D01*
X155811809Y-62308844D01*
X155811814Y-62308860D01*
X155922191Y-62575336D01*
X155922199Y-62575352D01*
X156066420Y-62825148D01*
X156066431Y-62825164D01*
X156242024Y-63054002D01*
X156242030Y-63054009D01*
X156445990Y-63257969D01*
X156445996Y-63257974D01*
X156674844Y-63433575D01*
X156674851Y-63433579D01*
X156924647Y-63577800D01*
X156924663Y-63577808D01*
X157191139Y-63688185D01*
X157191145Y-63688186D01*
X157191155Y-63688191D01*
X157469783Y-63762849D01*
X157755772Y-63800500D01*
X157755779Y-63800500D01*
X158044221Y-63800500D01*
X158044228Y-63800500D01*
X158330217Y-63762849D01*
X158608845Y-63688191D01*
X158608857Y-63688185D01*
X158608860Y-63688185D01*
X158875336Y-63577808D01*
X158875339Y-63577806D01*
X158875345Y-63577804D01*
X159125156Y-63433575D01*
X159354004Y-63257974D01*
X159557974Y-63054004D01*
X159733575Y-62825156D01*
X159877804Y-62575345D01*
X159898451Y-62525500D01*
X159988185Y-62308860D01*
X159988185Y-62308857D01*
X159988191Y-62308845D01*
X160062849Y-62030217D01*
X160100500Y-61744228D01*
X160100500Y-61455772D01*
X160062849Y-61169783D01*
X159988191Y-60891155D01*
X159988186Y-60891145D01*
X159988185Y-60891139D01*
X159877808Y-60624663D01*
X159877800Y-60624647D01*
X159733579Y-60374851D01*
X159733575Y-60374844D01*
X159600607Y-60201556D01*
X159557975Y-60145997D01*
X159557969Y-60145990D01*
X159354009Y-59942030D01*
X159354002Y-59942024D01*
X159125164Y-59766431D01*
X159125162Y-59766429D01*
X159125156Y-59766425D01*
X159125151Y-59766422D01*
X159125148Y-59766420D01*
X158875352Y-59622199D01*
X158875336Y-59622191D01*
X158608860Y-59511814D01*
X158608848Y-59511810D01*
X158608845Y-59511809D01*
X158330217Y-59437151D01*
X158330211Y-59437150D01*
X158330206Y-59437149D01*
X158044238Y-59399501D01*
X158044233Y-59399500D01*
X158044228Y-59399500D01*
X157755772Y-59399500D01*
X157755766Y-59399500D01*
X157755761Y-59399501D01*
X157469793Y-59437149D01*
X157469786Y-59437150D01*
X157469783Y-59437151D01*
X157191155Y-59511809D01*
X157191139Y-59511814D01*
X156924663Y-59622191D01*
X156924647Y-59622199D01*
X156674851Y-59766420D01*
X156674835Y-59766431D01*
X156445997Y-59942024D01*
X156445990Y-59942030D01*
X156242030Y-60145990D01*
X156242024Y-60145997D01*
X156066431Y-60374835D01*
X156066420Y-60374851D01*
X155922199Y-60624647D01*
X155922191Y-60624663D01*
X155811814Y-60891139D01*
X155811809Y-60891155D01*
X155741674Y-61152905D01*
X155737152Y-61169780D01*
X155737149Y-61169793D01*
X155699501Y-61455761D01*
X155699500Y-61455778D01*
X118100500Y-61455778D01*
X118100500Y-61455772D01*
X118062849Y-61169783D01*
X117988191Y-60891155D01*
X117988186Y-60891145D01*
X117988185Y-60891139D01*
X117877808Y-60624663D01*
X117877800Y-60624647D01*
X117733579Y-60374851D01*
X117733575Y-60374844D01*
X117600607Y-60201556D01*
X117557975Y-60145997D01*
X117557969Y-60145990D01*
X117354009Y-59942030D01*
X117354002Y-59942024D01*
X117125164Y-59766431D01*
X117125162Y-59766429D01*
X117125156Y-59766425D01*
X117125151Y-59766422D01*
X117125148Y-59766420D01*
X116875352Y-59622199D01*
X116875336Y-59622191D01*
X116608860Y-59511814D01*
X116608848Y-59511810D01*
X116608845Y-59511809D01*
X116330217Y-59437151D01*
X116330211Y-59437150D01*
X116330206Y-59437149D01*
X116044238Y-59399501D01*
X116044233Y-59399500D01*
X116044228Y-59399500D01*
X115755772Y-59399500D01*
X115755766Y-59399500D01*
X115755761Y-59399501D01*
X115469793Y-59437149D01*
X115469786Y-59437150D01*
X115469783Y-59437151D01*
X115191155Y-59511809D01*
X115191139Y-59511814D01*
X114924663Y-59622191D01*
X114924647Y-59622199D01*
X114674851Y-59766420D01*
X114674835Y-59766431D01*
X114445997Y-59942024D01*
X114445990Y-59942030D01*
X114242030Y-60145990D01*
X114242024Y-60145997D01*
X114066431Y-60374835D01*
X114066420Y-60374851D01*
X113922199Y-60624647D01*
X113922191Y-60624663D01*
X113811814Y-60891139D01*
X113811809Y-60891155D01*
X113741674Y-61152905D01*
X113737152Y-61169780D01*
X113737149Y-61169793D01*
X113699501Y-61455761D01*
X113699500Y-61455778D01*
X112403568Y-61455778D01*
X112405053Y-61383514D01*
X112405270Y-61378340D01*
X112418095Y-61175078D01*
X112418558Y-61169652D01*
X112439323Y-60976511D01*
X112440056Y-60970903D01*
X112468213Y-60787966D01*
X112469233Y-60782232D01*
X112504544Y-60607920D01*
X112505871Y-60602105D01*
X112547640Y-60437420D01*
X112549291Y-60431532D01*
X112597703Y-60274047D01*
X112599691Y-60268121D01*
X112650966Y-60127312D01*
X112654612Y-60118397D01*
X112784075Y-59834076D01*
X112790194Y-59822345D01*
X112939211Y-59570444D01*
X112946645Y-59559301D01*
X113118968Y-59329040D01*
X113127543Y-59318786D01*
X113324467Y-59107572D01*
X113333909Y-59098462D01*
X113557328Y-58904713D01*
X113567346Y-58896889D01*
X113819246Y-58720195D01*
X113829534Y-58713710D01*
X114111375Y-58554831D01*
X114121687Y-58549636D01*
X114433606Y-58410385D01*
X114443758Y-58406379D01*
X114783105Y-58289536D01*
X114792961Y-58286597D01*
X115151481Y-58195729D01*
X115161051Y-58193702D01*
X115518144Y-58132762D01*
X115527434Y-58131538D01*
X115829880Y-58103321D01*
X115837226Y-58102857D01*
X115901732Y-58100718D01*
X115906258Y-58100568D01*
X115910367Y-58100500D01*
X157893594Y-58100500D01*
X157896141Y-58100526D01*
G37*
%TD.AperFunction*%
%TD*%
M02*
