%TF.GenerationSoftware,KiCad,Pcbnew,9.0.5*%
%TF.CreationDate,2025-10-24T21:19:20-07:00*%
%TF.ProjectId,Sending Pebble,53656e64-696e-4672-9050-6562626c652e,rev?*%
%TF.SameCoordinates,Original*%
%TF.FileFunction,Soldermask,Top*%
%TF.FilePolarity,Negative*%
%FSLAX46Y46*%
G04 Gerber Fmt 4.6, Leading zero omitted, Abs format (unit mm)*
G04 Created by KiCad (PCBNEW 9.0.5) date 2025-10-24 21:19:20*
%MOMM*%
%LPD*%
G01*
G04 APERTURE LIST*
G04 Aperture macros list*
%AMRoundRect*
0 Rectangle with rounded corners*
0 $1 Rounding radius*
0 $2 $3 $4 $5 $6 $7 $8 $9 X,Y pos of 4 corners*
0 Add a 4 corners polygon primitive as box body*
4,1,4,$2,$3,$4,$5,$6,$7,$8,$9,$2,$3,0*
0 Add four circle primitives for the rounded corners*
1,1,$1+$1,$2,$3*
1,1,$1+$1,$4,$5*
1,1,$1+$1,$6,$7*
1,1,$1+$1,$8,$9*
0 Add four rect primitives between the rounded corners*
20,1,$1+$1,$2,$3,$4,$5,0*
20,1,$1+$1,$4,$5,$6,$7,0*
20,1,$1+$1,$6,$7,$8,$9,0*
20,1,$1+$1,$8,$9,$2,$3,0*%
%AMFreePoly0*
4,1,21,-0.125000,1.200000,0.125000,1.200000,0.125000,1.700000,0.375000,1.700000,0.375000,1.200000,0.825000,1.200000,0.825000,-1.200000,0.375000,-1.200000,0.375000,-1.700000,0.125000,-1.700000,0.125000,-1.200000,-0.125000,-1.200000,-0.125000,-1.700000,-0.375000,-1.700000,-0.375000,-1.200000,-0.825000,-1.200000,-0.825000,1.200000,-0.375000,1.200000,-0.375000,1.700000,-0.125000,1.700000,
-0.125000,1.200000,-0.125000,1.200000,$1*%
G04 Aperture macros list end*
%ADD10RoundRect,0.225000X0.250000X-0.225000X0.250000X0.225000X-0.250000X0.225000X-0.250000X-0.225000X0*%
%ADD11RoundRect,0.250000X-1.500000X0.250000X-1.500000X-0.250000X1.500000X-0.250000X1.500000X0.250000X0*%
%ADD12RoundRect,0.250001X-1.449999X0.499999X-1.449999X-0.499999X1.449999X-0.499999X1.449999X0.499999X0*%
%ADD13RoundRect,0.225000X-0.225000X-0.250000X0.225000X-0.250000X0.225000X0.250000X-0.225000X0.250000X0*%
%ADD14RoundRect,0.150000X-0.150000X-0.435000X0.150000X-0.435000X0.150000X0.435000X-0.150000X0.435000X0*%
%ADD15RoundRect,0.150000X-0.150000X-0.500000X0.150000X-0.500000X0.150000X0.500000X-0.150000X0.500000X0*%
%ADD16RoundRect,0.075000X-0.075000X-0.575000X0.075000X-0.575000X0.075000X0.575000X-0.075000X0.575000X0*%
%ADD17O,1.000000X2.100000*%
%ADD18O,1.000000X1.600000*%
%ADD19RoundRect,0.218750X-0.218750X-0.256250X0.218750X-0.256250X0.218750X0.256250X-0.218750X0.256250X0*%
%ADD20R,0.700000X0.700000*%
%ADD21RoundRect,0.200000X-0.200000X-0.275000X0.200000X-0.275000X0.200000X0.275000X-0.200000X0.275000X0*%
%ADD22RoundRect,0.225000X0.225000X0.250000X-0.225000X0.250000X-0.225000X-0.250000X0.225000X-0.250000X0*%
%ADD23RoundRect,0.175000X-0.725000X-0.175000X0.725000X-0.175000X0.725000X0.175000X-0.725000X0.175000X0*%
%ADD24RoundRect,0.200000X-0.700000X-0.200000X0.700000X-0.200000X0.700000X0.200000X-0.700000X0.200000X0*%
%ADD25RoundRect,0.140000X-0.140000X-0.170000X0.140000X-0.170000X0.140000X0.170000X-0.140000X0.170000X0*%
%ADD26R,0.279400X0.254000*%
%ADD27R,0.254000X0.279400*%
%ADD28RoundRect,0.102000X-1.350000X0.400000X-1.350000X-0.400000X1.350000X-0.400000X1.350000X0.400000X0*%
%ADD29R,1.050000X0.650000*%
%ADD30R,1.700000X1.700000*%
%ADD31C,1.700000*%
%ADD32RoundRect,0.060000X-0.240000X-0.060000X0.240000X-0.060000X0.240000X0.060000X-0.240000X0.060000X0*%
%ADD33FreePoly0,0.000000*%
%ADD34RoundRect,0.200000X0.200000X0.275000X-0.200000X0.275000X-0.200000X-0.275000X0.200000X-0.275000X0*%
%ADD35RoundRect,0.225000X0.375000X-0.225000X0.375000X0.225000X-0.375000X0.225000X-0.375000X-0.225000X0*%
%ADD36RoundRect,0.062500X-0.350000X-0.062500X0.350000X-0.062500X0.350000X0.062500X-0.350000X0.062500X0*%
%ADD37RoundRect,0.062500X-0.062500X-0.350000X0.062500X-0.350000X0.062500X0.350000X-0.062500X0.350000X0*%
%ADD38R,2.600000X2.600000*%
%ADD39RoundRect,0.200000X-0.275000X0.200000X-0.275000X-0.200000X0.275000X-0.200000X0.275000X0.200000X0*%
%ADD40C,5.700000*%
%ADD41RoundRect,0.150000X0.150000X-0.587500X0.150000X0.587500X-0.150000X0.587500X-0.150000X-0.587500X0*%
%ADD42RoundRect,0.200000X0.275000X-0.200000X0.275000X0.200000X-0.275000X0.200000X-0.275000X-0.200000X0*%
%ADD43RoundRect,0.140000X0.170000X-0.140000X0.170000X0.140000X-0.170000X0.140000X-0.170000X-0.140000X0*%
%ADD44R,1.500000X5.080000*%
%ADD45R,0.800000X2.000000*%
%ADD46RoundRect,0.250000X1.000000X0.650000X-1.000000X0.650000X-1.000000X-0.650000X1.000000X-0.650000X0*%
%ADD47R,1.000000X2.300000*%
%ADD48R,2.300000X1.000000*%
%ADD49RoundRect,0.250000X-0.275000X-0.250000X0.275000X-0.250000X0.275000X0.250000X-0.275000X0.250000X0*%
%ADD50RoundRect,0.250000X-0.850000X-0.275000X0.850000X-0.275000X0.850000X0.275000X-0.850000X0.275000X0*%
%ADD51RoundRect,0.250000X-0.600000X-0.725000X0.600000X-0.725000X0.600000X0.725000X-0.600000X0.725000X0*%
%ADD52O,1.700000X1.950000*%
%ADD53RoundRect,0.062500X-0.375000X-0.062500X0.375000X-0.062500X0.375000X0.062500X-0.375000X0.062500X0*%
%ADD54RoundRect,0.062500X-0.062500X-0.375000X0.062500X-0.375000X0.062500X0.375000X-0.062500X0.375000X0*%
%ADD55R,1.600000X1.600000*%
G04 APERTURE END LIST*
%TO.C,J3*%
G36*
X158085000Y-76480000D02*
G01*
X160175000Y-76480000D01*
X160175000Y-78360000D01*
X158085000Y-78360000D01*
X158085000Y-76480000D01*
G37*
%TD*%
D10*
%TO.C,C7*%
X127400000Y-87300000D03*
X127400000Y-85750000D03*
%TD*%
D11*
%TO.C,J2*%
X121950000Y-94250000D03*
X121950000Y-96250000D03*
D12*
X116200000Y-91900000D03*
X116200000Y-98600000D03*
%TD*%
D13*
%TO.C,C1*%
X150583978Y-82308234D03*
X152133978Y-82308234D03*
%TD*%
D14*
%TO.C,J1*%
X133800000Y-99655000D03*
D15*
X134600000Y-99655000D03*
D16*
X135750000Y-99655000D03*
X136750000Y-99655000D03*
X137250000Y-99655000D03*
X138250000Y-99655000D03*
D15*
X139400000Y-99655000D03*
D14*
X140200000Y-99655000D03*
X140200000Y-99655000D03*
D15*
X139400000Y-99655000D03*
D16*
X138750000Y-99655000D03*
X137750000Y-99655000D03*
X136250000Y-99655000D03*
X135250000Y-99655000D03*
D15*
X134600000Y-99655000D03*
D14*
X133800000Y-99655000D03*
D17*
X132680000Y-100295000D03*
D18*
X132680000Y-104475000D03*
D17*
X141320000Y-100295000D03*
D18*
X141320000Y-104475000D03*
%TD*%
D19*
%TO.C,D2*%
X125302500Y-99440000D03*
X126877500Y-99440000D03*
%TD*%
D20*
%TO.C,D3*%
X114070000Y-66750000D03*
X114070000Y-67850000D03*
X115900000Y-67850000D03*
X115900000Y-66750000D03*
%TD*%
D21*
%TO.C,R9*%
X128810000Y-91430000D03*
X130460000Y-91430000D03*
%TD*%
%TO.C,R17*%
X137620000Y-92600000D03*
X139270000Y-92600000D03*
%TD*%
D22*
%TO.C,C13*%
X139140000Y-87070000D03*
X137590000Y-87070000D03*
%TD*%
D10*
%TO.C,C15*%
X141640000Y-89660000D03*
X141640000Y-88110000D03*
%TD*%
D23*
%TO.C,U3*%
X144050000Y-69700000D03*
D24*
X144050000Y-70800000D03*
X144050000Y-71900000D03*
X144050000Y-73000000D03*
X144050000Y-74100000D03*
X144050000Y-75200000D03*
X144050000Y-76300000D03*
X144050000Y-77400000D03*
D23*
X144050000Y-78500000D03*
X153550000Y-78500000D03*
D24*
X153550000Y-77400000D03*
X153550000Y-76300000D03*
X153550000Y-75200000D03*
X153550000Y-74100000D03*
X153550000Y-73000000D03*
X153550000Y-71900000D03*
X153550000Y-70800000D03*
D23*
X153550000Y-69700000D03*
%TD*%
D10*
%TO.C,C10*%
X145200000Y-98700000D03*
X145200000Y-97150000D03*
%TD*%
D21*
%TO.C,R4*%
X126500000Y-83300000D03*
X128150000Y-83300000D03*
%TD*%
D25*
%TO.C,C4*%
X155190000Y-77430000D03*
X156150000Y-77430000D03*
%TD*%
D26*
%TO.C,U4*%
X125887401Y-86762600D03*
X125887401Y-86262600D03*
D27*
X125600000Y-85725200D03*
X125100001Y-85725200D03*
X124600002Y-85725200D03*
D26*
X124312601Y-86262600D03*
X124312601Y-86762600D03*
D27*
X124600002Y-87300000D03*
X125100001Y-87300000D03*
X125600000Y-87300000D03*
%TD*%
D22*
%TO.C,C16*%
X139200000Y-94160000D03*
X137650000Y-94160000D03*
%TD*%
D28*
%TO.C,L1*%
X133880000Y-88620000D03*
X133880000Y-90820000D03*
%TD*%
D21*
%TO.C,R16*%
X116000000Y-85700000D03*
X117650000Y-85700000D03*
%TD*%
D10*
%TO.C,C5*%
X143600000Y-97350000D03*
X143600000Y-95800000D03*
%TD*%
D29*
%TO.C,RESET0*%
X125325000Y-63175000D03*
X121175000Y-63175000D03*
X125325000Y-61025000D03*
X121175000Y-61025000D03*
%TD*%
D30*
%TO.C,J6*%
X128920000Y-64830000D03*
D31*
X128920000Y-62290000D03*
X128920000Y-59750000D03*
%TD*%
D32*
%TO.C,U2*%
X136970000Y-88840000D03*
X136970000Y-89340000D03*
X136970000Y-89840000D03*
X136970000Y-90340000D03*
X136970000Y-90840000D03*
X139770000Y-90840000D03*
X139770000Y-90340000D03*
X139770000Y-89840000D03*
X139770000Y-89340000D03*
X139770000Y-88840000D03*
D33*
X138370000Y-89840000D03*
%TD*%
D21*
%TO.C,R3*%
X125267500Y-97860000D03*
X126917500Y-97860000D03*
%TD*%
D34*
%TO.C,R15*%
X117700000Y-87550000D03*
X116050000Y-87550000D03*
%TD*%
D21*
%TO.C,R14*%
X137750000Y-81800000D03*
X139400000Y-81800000D03*
%TD*%
D35*
%TO.C,D1*%
X146733978Y-83840132D03*
X146733978Y-80540132D03*
%TD*%
D36*
%TO.C,U6*%
X144002500Y-100950000D03*
X144002500Y-101450000D03*
X144002500Y-101950000D03*
X144002500Y-102450000D03*
X144002500Y-102950000D03*
X144002500Y-103450000D03*
D37*
X144690000Y-104137500D03*
X145190000Y-104137500D03*
X145690000Y-104137500D03*
X146190000Y-104137500D03*
X146690000Y-104137500D03*
X147190000Y-104137500D03*
D36*
X147877500Y-103450000D03*
X147877500Y-102950000D03*
X147877500Y-102450000D03*
X147877500Y-101950000D03*
X147877500Y-101450000D03*
X147877500Y-100950000D03*
D37*
X147190000Y-100262500D03*
X146690000Y-100262500D03*
X146190000Y-100262500D03*
X145690000Y-100262500D03*
X145190000Y-100262500D03*
X144690000Y-100262500D03*
D38*
X145940000Y-102200000D03*
%TD*%
D39*
%TO.C,R10*%
X126900000Y-90550000D03*
X126900000Y-92200000D03*
%TD*%
D40*
%TO.C,REF\u002A\u002A*%
X115900000Y-61600000D03*
%TD*%
%TO.C,REF\u002A\u002A*%
X157900000Y-61600000D03*
%TD*%
D30*
%TO.C,PWR0*%
X157600000Y-95640000D03*
D31*
X157600000Y-93100000D03*
%TD*%
D41*
%TO.C,Q1*%
X135950000Y-79837500D03*
X137850000Y-79837500D03*
X136900000Y-77962500D03*
%TD*%
D42*
%TO.C,R7*%
X136190000Y-97495000D03*
X136190000Y-95845000D03*
%TD*%
D43*
%TO.C,L2*%
X156150000Y-75780000D03*
X156150000Y-74820000D03*
%TD*%
%TO.C,C3*%
X157650000Y-73810000D03*
X157650000Y-72850000D03*
%TD*%
D39*
%TO.C,R6*%
X149550000Y-101400000D03*
X149550000Y-103050000D03*
%TD*%
D25*
%TO.C,R19*%
X155640000Y-73800000D03*
X156600000Y-73800000D03*
%TD*%
D22*
%TO.C,C11*%
X152250000Y-64810000D03*
X150700000Y-64810000D03*
%TD*%
%TO.C,C8*%
X125850000Y-88800000D03*
X124300000Y-88800000D03*
%TD*%
D39*
%TO.C,R1*%
X148883978Y-82240132D03*
X148883978Y-83890132D03*
%TD*%
D21*
%TO.C,R12*%
X147630000Y-64810000D03*
X149280000Y-64810000D03*
%TD*%
D39*
%TO.C,R18*%
X154960000Y-95630000D03*
X154960000Y-97280000D03*
%TD*%
D21*
%TO.C,R5*%
X123400000Y-83300000D03*
X125050000Y-83300000D03*
%TD*%
D22*
%TO.C,C2*%
X121890000Y-83290000D03*
X120340000Y-83290000D03*
%TD*%
D40*
%TO.C,REF\u002A\u002A*%
X115900000Y-103600000D03*
%TD*%
D21*
%TO.C,R11*%
X120890000Y-64830000D03*
X122540000Y-64830000D03*
%TD*%
D44*
%TO.C,J4*%
X136900000Y-60700000D03*
X132650000Y-60700000D03*
X141150000Y-60700000D03*
%TD*%
D22*
%TO.C,C14*%
X139140000Y-85520000D03*
X137590000Y-85520000D03*
%TD*%
D45*
%TO.C,BT1*%
X150633978Y-84440132D03*
X152133978Y-84440132D03*
%TD*%
D46*
%TO.C,D4*%
X138900000Y-75100000D03*
X134900000Y-75100000D03*
%TD*%
D29*
%TO.C,BOOT0*%
X147915000Y-61025000D03*
X152065000Y-61025000D03*
X147915000Y-63175000D03*
X152065000Y-63175000D03*
%TD*%
D13*
%TO.C,C6*%
X140545000Y-97370000D03*
X142095000Y-97370000D03*
%TD*%
D40*
%TO.C,REF\u002A\u002A*%
X157900000Y-103600000D03*
%TD*%
D13*
%TO.C,C12*%
X123950000Y-64830000D03*
X125500000Y-64830000D03*
%TD*%
D47*
%TO.C,U1*%
X120650000Y-80100000D03*
X121900000Y-80100000D03*
X123150000Y-80100000D03*
X124400000Y-80100000D03*
X125650000Y-80100000D03*
X126900000Y-80100000D03*
X128150000Y-80100000D03*
D48*
X130400000Y-77850000D03*
X130400000Y-76600000D03*
X130400000Y-75350000D03*
X130400000Y-74100000D03*
X130400000Y-72850000D03*
X130400000Y-71600000D03*
X130400000Y-70350000D03*
D47*
X128150000Y-68100000D03*
X126900000Y-68100000D03*
X125650000Y-68100000D03*
X124400000Y-68100000D03*
X123150000Y-68100000D03*
X121900000Y-68100000D03*
X120650000Y-68100000D03*
D48*
X118400000Y-70350000D03*
X118400000Y-71600000D03*
X118400000Y-72850000D03*
X118400000Y-74100000D03*
X118400000Y-75350000D03*
X118400000Y-76600000D03*
X118400000Y-77850000D03*
%TD*%
D42*
%TO.C,R8*%
X137800000Y-97510000D03*
X137800000Y-95860000D03*
%TD*%
%TO.C,R2*%
X125350000Y-92200000D03*
X125350000Y-90550000D03*
%TD*%
D49*
%TO.C,J3*%
X157550000Y-77420000D03*
D50*
X159075000Y-75945000D03*
X159075000Y-78895000D03*
%TD*%
D51*
%TO.C,J5*%
X122670000Y-103260000D03*
D52*
X125170000Y-103260000D03*
X127670000Y-103260000D03*
%TD*%
D10*
%TO.C,C9*%
X151050000Y-103000000D03*
X151050000Y-101450000D03*
%TD*%
D53*
%TO.C,U7*%
X128102500Y-94510000D03*
X128102500Y-95010000D03*
X128102500Y-95510000D03*
X128102500Y-96010000D03*
D54*
X128790000Y-96697500D03*
X129290000Y-96697500D03*
X129790000Y-96697500D03*
X130290000Y-96697500D03*
D53*
X130977500Y-96010000D03*
X130977500Y-95510000D03*
X130977500Y-95010000D03*
X130977500Y-94510000D03*
D54*
X130290000Y-93822500D03*
X129790000Y-93822500D03*
X129290000Y-93822500D03*
X128790000Y-93822500D03*
D55*
X129540000Y-95260000D03*
%TD*%
D21*
%TO.C,R13*%
X134350000Y-81800000D03*
X136000000Y-81800000D03*
%TD*%
M02*
