%TF.GenerationSoftware,KiCad,Pcbnew,9.0.4*%
%TF.CreationDate,2025-09-01T22:57:38-07:00*%
%TF.ProjectId,Sending Pebble,53656e64-696e-4672-9050-6562626c652e,rev?*%
%TF.SameCoordinates,Original*%
%TF.FileFunction,Legend,Bot*%
%TF.FilePolarity,Positive*%
%FSLAX46Y46*%
G04 Gerber Fmt 4.6, Leading zero omitted, Abs format (unit mm)*
G04 Created by KiCad (PCBNEW 9.0.4) date 2025-09-01 22:57:38*
%MOMM*%
%LPD*%
G01*
G04 APERTURE LIST*
%ADD10C,0.150000*%
%ADD11C,0.120000*%
G04 APERTURE END LIST*
D10*
X137580952Y-72331009D02*
X137438095Y-72378628D01*
X137438095Y-72378628D02*
X137390476Y-72426247D01*
X137390476Y-72426247D02*
X137342857Y-72521485D01*
X137342857Y-72521485D02*
X137342857Y-72664342D01*
X137342857Y-72664342D02*
X137390476Y-72759580D01*
X137390476Y-72759580D02*
X137438095Y-72807200D01*
X137438095Y-72807200D02*
X137533333Y-72854819D01*
X137533333Y-72854819D02*
X137914285Y-72854819D01*
X137914285Y-72854819D02*
X137914285Y-71854819D01*
X137914285Y-71854819D02*
X137580952Y-71854819D01*
X137580952Y-71854819D02*
X137485714Y-71902438D01*
X137485714Y-71902438D02*
X137438095Y-71950057D01*
X137438095Y-71950057D02*
X137390476Y-72045295D01*
X137390476Y-72045295D02*
X137390476Y-72140533D01*
X137390476Y-72140533D02*
X137438095Y-72235771D01*
X137438095Y-72235771D02*
X137485714Y-72283390D01*
X137485714Y-72283390D02*
X137580952Y-72331009D01*
X137580952Y-72331009D02*
X137914285Y-72331009D01*
X137009523Y-71854819D02*
X136342857Y-71854819D01*
X136342857Y-71854819D02*
X137009523Y-72854819D01*
X137009523Y-72854819D02*
X136342857Y-72854819D01*
X135438095Y-72854819D02*
X136009523Y-72854819D01*
X135723809Y-72854819D02*
X135723809Y-71854819D01*
X135723809Y-71854819D02*
X135819047Y-71997676D01*
X135819047Y-71997676D02*
X135914285Y-72092914D01*
X135914285Y-72092914D02*
X136009523Y-72140533D01*
D11*
%TO.C,BZ1*%
X131800000Y-73200000D02*
X142000000Y-73200000D01*
X131800000Y-80500000D02*
X131800000Y-76700000D01*
X142000000Y-73200000D02*
X142000000Y-74100000D01*
X142000000Y-74100000D02*
X143000000Y-74100000D01*
X142000000Y-76700000D02*
X142000000Y-80500000D01*
X142000000Y-83400000D02*
X131800000Y-83400000D01*
%TD*%
M02*
