%TF.GenerationSoftware,KiCad,Pcbnew,9.0.5*%
%TF.CreationDate,2025-10-24T21:19:19-07:00*%
%TF.ProjectId,Sending Pebble,53656e64-696e-4672-9050-6562626c652e,rev?*%
%TF.SameCoordinates,Original*%
%TF.FileFunction,Copper,L3,Inr*%
%TF.FilePolarity,Positive*%
%FSLAX46Y46*%
G04 Gerber Fmt 4.6, Leading zero omitted, Abs format (unit mm)*
G04 Created by KiCad (PCBNEW 9.0.5) date 2025-10-24 21:19:19*
%MOMM*%
%LPD*%
G01*
G04 APERTURE LIST*
G04 Aperture macros list*
%AMRoundRect*
0 Rectangle with rounded corners*
0 $1 Rounding radius*
0 $2 $3 $4 $5 $6 $7 $8 $9 X,Y pos of 4 corners*
0 Add a 4 corners polygon primitive as box body*
4,1,4,$2,$3,$4,$5,$6,$7,$8,$9,$2,$3,0*
0 Add four circle primitives for the rounded corners*
1,1,$1+$1,$2,$3*
1,1,$1+$1,$4,$5*
1,1,$1+$1,$6,$7*
1,1,$1+$1,$8,$9*
0 Add four rect primitives between the rounded corners*
20,1,$1+$1,$2,$3,$4,$5,0*
20,1,$1+$1,$4,$5,$6,$7,0*
20,1,$1+$1,$6,$7,$8,$9,0*
20,1,$1+$1,$8,$9,$2,$3,0*%
G04 Aperture macros list end*
%TA.AperFunction,HeatsinkPad*%
%ADD10O,1.000000X2.100000*%
%TD*%
%TA.AperFunction,HeatsinkPad*%
%ADD11O,1.000000X1.600000*%
%TD*%
%TA.AperFunction,ComponentPad*%
%ADD12R,1.700000X1.700000*%
%TD*%
%TA.AperFunction,ComponentPad*%
%ADD13C,1.700000*%
%TD*%
%TA.AperFunction,ComponentPad*%
%ADD14C,5.700000*%
%TD*%
%TA.AperFunction,ComponentPad*%
%ADD15RoundRect,0.250000X-0.600000X-0.725000X0.600000X-0.725000X0.600000X0.725000X-0.600000X0.725000X0*%
%TD*%
%TA.AperFunction,ComponentPad*%
%ADD16O,1.700000X1.950000*%
%TD*%
%TA.AperFunction,ViaPad*%
%ADD17C,0.450000*%
%TD*%
G04 APERTURE END LIST*
D10*
%TO.N,GND*%
%TO.C,J1*%
X132680000Y-100295000D03*
D11*
X132680000Y-104475000D03*
D10*
X141320000Y-100295000D03*
D11*
X141320000Y-104475000D03*
%TD*%
D12*
%TO.N,GND*%
%TO.C,J6*%
X128920000Y-64830000D03*
D13*
%TO.N,+3.3V*%
X128920000Y-62290000D03*
%TO.N,AMP*%
X128920000Y-59750000D03*
%TD*%
D14*
%TO.N,N/C*%
%TO.C,REF\u002A\u002A*%
X115900000Y-61600000D03*
%TD*%
%TO.N,N/C*%
%TO.C,REF\u002A\u002A*%
X157900000Y-61600000D03*
%TD*%
D12*
%TO.N,EN*%
%TO.C,PWR0*%
X157600000Y-95640000D03*
D13*
%TO.N,VBAT*%
X157600000Y-93100000D03*
%TD*%
D14*
%TO.N,N/C*%
%TO.C,REF\u002A\u002A*%
X115900000Y-103600000D03*
%TD*%
%TO.N,N/C*%
%TO.C,REF\u002A\u002A*%
X157900000Y-103600000D03*
%TD*%
D15*
%TO.N,GND*%
%TO.C,J5*%
X122670000Y-103260000D03*
D16*
%TO.N,FC-TX*%
X125170000Y-103260000D03*
%TO.N,FC-RX*%
X127670000Y-103260000D03*
%TD*%
D17*
%TO.N,GND*%
X160800000Y-77040000D03*
X138350000Y-87700000D03*
X161050000Y-78560000D03*
X157140000Y-74780000D03*
X134161282Y-69098120D03*
X157090000Y-79680000D03*
X153090000Y-79700000D03*
X152250000Y-79510000D03*
X120100000Y-70350000D03*
X156990000Y-71750000D03*
X135539483Y-68074730D03*
X130838314Y-67100000D03*
X158890000Y-74560000D03*
X158550000Y-73860000D03*
X133291100Y-69100000D03*
X155280000Y-76300000D03*
X137900000Y-63730000D03*
X157040000Y-75930000D03*
X143500000Y-99400000D03*
X153860000Y-79680000D03*
X131550660Y-69100000D03*
X128750000Y-70350000D03*
X155240000Y-78990000D03*
X155970000Y-78300000D03*
X158650000Y-72020000D03*
X161050000Y-75430000D03*
X134423857Y-66361928D03*
X156520000Y-72470000D03*
X136161673Y-67452540D03*
X137882038Y-65488682D03*
X134917292Y-68696921D03*
X133400000Y-96100000D03*
X159340000Y-80300000D03*
X161040000Y-76210000D03*
X154890000Y-73460000D03*
X132736628Y-67100000D03*
X151050000Y-100200000D03*
X132420880Y-69100000D03*
X157890000Y-71670000D03*
X135161928Y-65623857D03*
X160810000Y-80000000D03*
X131787471Y-67100000D03*
X151830000Y-78940000D03*
X137900000Y-64609910D03*
X133685786Y-67100000D03*
X129889157Y-67100000D03*
X155440000Y-72960000D03*
X151780000Y-76100000D03*
X145500000Y-69700000D03*
X136783863Y-66830350D03*
X160140000Y-80300000D03*
X157050000Y-78890000D03*
X155270000Y-75200000D03*
X130680440Y-69100000D03*
X156730000Y-78330000D03*
X160820000Y-74710000D03*
X125800000Y-94300000D03*
X138400000Y-92000000D03*
X120790000Y-78470000D03*
X152070000Y-77430000D03*
X161050000Y-79280000D03*
X134161276Y-69098120D03*
X137406054Y-66208159D03*
X151830000Y-76760000D03*
X158890000Y-72900000D03*
X157820000Y-80250000D03*
X129810220Y-69100000D03*
X125860000Y-84420000D03*
X135900000Y-63730000D03*
X126520000Y-64830000D03*
X121890000Y-84310000D03*
X132700000Y-84830000D03*
X158540000Y-80300000D03*
X156100000Y-72980000D03*
X142710000Y-88110000D03*
X154720000Y-79510000D03*
X155350000Y-78290000D03*
X160800000Y-77770000D03*
X140800000Y-95700000D03*
X127530000Y-88940000D03*
X151800000Y-78170000D03*
X157940000Y-74600000D03*
X135900000Y-64885786D03*
X159910000Y-74570000D03*
X126900000Y-69750000D03*
%TO.N,Net-(BZ1--)*%
X133300000Y-75100000D03*
%TO.N,+3.3V*%
X121715000Y-64830000D03*
X145550000Y-77400000D03*
X117000000Y-66750000D03*
X136970000Y-88240000D03*
X123290000Y-77140000D03*
X120340000Y-84310000D03*
X143000000Y-103250000D03*
X123400000Y-84400000D03*
X115000000Y-74310000D03*
X127290000Y-82230000D03*
X140050000Y-87050000D03*
X149990000Y-62100000D03*
X145550000Y-76300000D03*
X151050000Y-104100000D03*
X146730000Y-79500000D03*
X140450000Y-75100000D03*
X125100001Y-86512600D03*
%TO.N,VBAT*%
X144675000Y-92400000D03*
%TO.N,VBUS*%
X130300000Y-98000000D03*
X130300000Y-92700000D03*
%TO.N,RST*%
X128800000Y-76300000D03*
X130500000Y-79800000D03*
%TO.N,BOOT0*%
X116260000Y-77710000D03*
X149970000Y-64810000D03*
X124780000Y-70380000D03*
%TO.N,Net-(U7-~{CHG})*%
X130530000Y-99220000D03*
X131000000Y-97500000D03*
%TO.N,BUZZ*%
X120650000Y-69750000D03*
X134350000Y-80750000D03*
%TO.N,FC-TX*%
X123150000Y-81620000D03*
%TO.N,FC-RX*%
X124400000Y-81630000D03*
%TO.N,EN*%
X139780000Y-91450000D03*
%TO.N,MOSI*%
X116260000Y-79010000D03*
%TO.N,MISO*%
X120860000Y-76430000D03*
%TO.N,NSS*%
X120860000Y-75190000D03*
%TD*%
%TA.AperFunction,Conductor*%
%TO.N,+3.3V*%
G36*
X157896141Y-58100526D02*
G01*
X157902382Y-58100654D01*
X158116482Y-58105053D01*
X158121660Y-58105270D01*
X158324916Y-58118095D01*
X158330330Y-58118556D01*
X158523487Y-58139323D01*
X158529095Y-58140056D01*
X158605793Y-58151861D01*
X158712042Y-58168214D01*
X158717773Y-58169235D01*
X158892069Y-58204543D01*
X158897902Y-58205873D01*
X159062568Y-58247638D01*
X159068476Y-58249294D01*
X159225939Y-58297699D01*
X159231888Y-58299695D01*
X159372677Y-58350963D01*
X159381610Y-58354616D01*
X159545638Y-58429305D01*
X159665913Y-58484071D01*
X159677661Y-58490198D01*
X159918417Y-58632623D01*
X159929544Y-58639205D01*
X159940705Y-58646651D01*
X160011323Y-58699500D01*
X160170950Y-58818962D01*
X160181212Y-58827543D01*
X160392426Y-59024467D01*
X160401548Y-59033923D01*
X160595279Y-59257322D01*
X160603114Y-59267354D01*
X160779793Y-59519232D01*
X160786296Y-59529548D01*
X160945159Y-59811360D01*
X160950369Y-59821703D01*
X161089609Y-60133596D01*
X161093625Y-60143775D01*
X161188615Y-60419655D01*
X161210453Y-60483077D01*
X161213407Y-60492982D01*
X161304265Y-60851464D01*
X161306299Y-60861069D01*
X161367232Y-61218118D01*
X161368463Y-61227460D01*
X161396674Y-61529847D01*
X161397142Y-61537252D01*
X161399432Y-61606256D01*
X161399500Y-61610369D01*
X161399500Y-74399949D01*
X161379815Y-74466988D01*
X161327011Y-74512743D01*
X161257853Y-74522687D01*
X161194297Y-74493662D01*
X161168113Y-74461949D01*
X161165212Y-74456924D01*
X161160485Y-74448737D01*
X161081263Y-74369515D01*
X160984237Y-74313497D01*
X160876018Y-74284500D01*
X160763982Y-74284500D01*
X160655763Y-74313497D01*
X160655760Y-74313498D01*
X160558740Y-74369513D01*
X160558738Y-74369514D01*
X160499827Y-74428425D01*
X160438503Y-74461909D01*
X160368812Y-74456924D01*
X160312878Y-74415053D01*
X160304759Y-74402743D01*
X160304693Y-74402628D01*
X160250485Y-74308737D01*
X160171263Y-74229515D01*
X160084364Y-74179344D01*
X160074239Y-74173498D01*
X160074238Y-74173497D01*
X160074237Y-74173497D01*
X159966018Y-74144500D01*
X159853982Y-74144500D01*
X159745763Y-74173497D01*
X159745760Y-74173498D01*
X159648740Y-74229513D01*
X159648734Y-74229517D01*
X159569517Y-74308734D01*
X159569513Y-74308740D01*
X159509462Y-74412751D01*
X159458895Y-74460967D01*
X159390288Y-74474189D01*
X159325423Y-74448221D01*
X159290867Y-74402628D01*
X159290567Y-74402802D01*
X159289185Y-74400409D01*
X159287514Y-74398204D01*
X159286504Y-74395766D01*
X159286503Y-74395763D01*
X159230485Y-74298737D01*
X159151263Y-74219515D01*
X159054237Y-74163497D01*
X159054235Y-74163496D01*
X159054234Y-74163496D01*
X159038676Y-74159327D01*
X158979016Y-74122961D01*
X158948488Y-74060113D01*
X158950996Y-74007466D01*
X158975500Y-73916018D01*
X158975500Y-73803982D01*
X158946503Y-73695763D01*
X158890485Y-73598737D01*
X158828929Y-73537181D01*
X158795444Y-73475858D01*
X158800428Y-73406166D01*
X158842300Y-73350233D01*
X158907764Y-73325816D01*
X158916610Y-73325500D01*
X158946016Y-73325500D01*
X158946018Y-73325500D01*
X159054237Y-73296503D01*
X159151263Y-73240485D01*
X159230485Y-73161263D01*
X159286503Y-73064237D01*
X159315500Y-72956018D01*
X159315500Y-72843982D01*
X159286503Y-72735763D01*
X159230485Y-72638737D01*
X159151263Y-72559515D01*
X159054237Y-72503497D01*
X159036140Y-72498648D01*
X158976482Y-72462285D01*
X158945952Y-72399438D01*
X158954246Y-72330062D01*
X158980554Y-72291193D01*
X158990485Y-72281263D01*
X159046503Y-72184237D01*
X159075500Y-72076018D01*
X159075500Y-71963982D01*
X159046503Y-71855763D01*
X158990485Y-71758737D01*
X158911263Y-71679515D01*
X158814237Y-71623497D01*
X158706018Y-71594500D01*
X158593982Y-71594500D01*
X158485763Y-71623497D01*
X158485756Y-71623500D01*
X158480461Y-71626557D01*
X158412560Y-71643025D01*
X158346535Y-71620169D01*
X158303347Y-71565245D01*
X158298695Y-71551267D01*
X158286503Y-71505763D01*
X158230485Y-71408737D01*
X158151263Y-71329515D01*
X158054237Y-71273497D01*
X157946018Y-71244500D01*
X157833982Y-71244500D01*
X157725763Y-71273497D01*
X157725760Y-71273498D01*
X157628740Y-71329513D01*
X157628734Y-71329517D01*
X157549517Y-71408734D01*
X157549513Y-71408740D01*
X157520862Y-71458365D01*
X157470295Y-71506581D01*
X157401688Y-71519803D01*
X157336823Y-71493835D01*
X157325794Y-71484046D01*
X157251265Y-71409517D01*
X157251263Y-71409515D01*
X157154237Y-71353497D01*
X157046018Y-71324500D01*
X156933982Y-71324500D01*
X156825763Y-71353497D01*
X156825760Y-71353498D01*
X156728740Y-71409513D01*
X156728734Y-71409517D01*
X156649517Y-71488734D01*
X156649513Y-71488740D01*
X156593498Y-71585760D01*
X156593497Y-71585763D01*
X156564500Y-71693982D01*
X156564500Y-71806017D01*
X156586576Y-71888407D01*
X156584913Y-71958257D01*
X156545750Y-72016119D01*
X156481522Y-72043623D01*
X156466801Y-72044500D01*
X156463982Y-72044500D01*
X156355763Y-72073497D01*
X156355760Y-72073498D01*
X156258740Y-72129513D01*
X156258734Y-72129517D01*
X156179517Y-72208734D01*
X156179513Y-72208740D01*
X156123498Y-72305760D01*
X156123497Y-72305763D01*
X156094500Y-72413982D01*
X156094500Y-72445815D01*
X156074815Y-72512854D01*
X156022011Y-72558609D01*
X156020423Y-72559321D01*
X156011745Y-72563137D01*
X155935763Y-72583497D01*
X155840796Y-72638326D01*
X155834585Y-72641058D01*
X155806393Y-72644708D01*
X155778761Y-72651412D01*
X155772188Y-72649137D01*
X155765294Y-72650030D01*
X155739602Y-72637858D01*
X155712735Y-72628559D01*
X155707780Y-72624368D01*
X155707709Y-72624462D01*
X155701267Y-72619519D01*
X155701263Y-72619515D01*
X155604237Y-72563497D01*
X155496018Y-72534500D01*
X155383982Y-72534500D01*
X155275763Y-72563497D01*
X155275760Y-72563498D01*
X155178740Y-72619513D01*
X155178734Y-72619517D01*
X155099517Y-72698734D01*
X155099513Y-72698740D01*
X155043498Y-72795760D01*
X155043497Y-72795763D01*
X155014500Y-72903982D01*
X155014500Y-72910500D01*
X154994815Y-72977539D01*
X154942011Y-73023294D01*
X154890500Y-73034500D01*
X154833982Y-73034500D01*
X154725763Y-73063497D01*
X154725760Y-73063498D01*
X154628740Y-73119513D01*
X154628734Y-73119517D01*
X154549517Y-73198734D01*
X154549513Y-73198740D01*
X154493498Y-73295760D01*
X154493497Y-73295763D01*
X154464500Y-73403982D01*
X154464500Y-73516018D01*
X154493497Y-73624237D01*
X154549515Y-73721263D01*
X154628737Y-73800485D01*
X154725763Y-73856503D01*
X154833982Y-73885500D01*
X154833984Y-73885500D01*
X154946016Y-73885500D01*
X154946018Y-73885500D01*
X155054237Y-73856503D01*
X155151263Y-73800485D01*
X155230485Y-73721263D01*
X155286503Y-73624237D01*
X155315500Y-73516018D01*
X155315500Y-73509500D01*
X155335185Y-73442461D01*
X155387989Y-73396706D01*
X155439500Y-73385500D01*
X155496016Y-73385500D01*
X155496018Y-73385500D01*
X155604237Y-73356503D01*
X155693340Y-73305058D01*
X155761236Y-73288587D01*
X155827263Y-73311439D01*
X155832219Y-73315631D01*
X155832291Y-73315538D01*
X155838731Y-73320479D01*
X155838737Y-73320485D01*
X155935763Y-73376503D01*
X156043982Y-73405500D01*
X156043984Y-73405500D01*
X156156016Y-73405500D01*
X156156018Y-73405500D01*
X156264237Y-73376503D01*
X156361263Y-73320485D01*
X156440485Y-73241263D01*
X156496503Y-73144237D01*
X156525500Y-73036018D01*
X156525500Y-73004184D01*
X156545185Y-72937145D01*
X156597989Y-72891390D01*
X156617400Y-72884411D01*
X156684237Y-72866503D01*
X156781263Y-72810485D01*
X156860485Y-72731263D01*
X156916503Y-72634237D01*
X156945500Y-72526018D01*
X156945500Y-72413982D01*
X156923424Y-72331592D01*
X156925087Y-72261743D01*
X156964250Y-72203881D01*
X157028478Y-72176377D01*
X157043199Y-72175500D01*
X157046016Y-72175500D01*
X157046018Y-72175500D01*
X157154237Y-72146503D01*
X157251263Y-72090485D01*
X157330485Y-72011263D01*
X157359138Y-71961633D01*
X157409702Y-71913419D01*
X157478309Y-71900195D01*
X157543174Y-71926162D01*
X157554205Y-71935953D01*
X157628737Y-72010485D01*
X157725763Y-72066503D01*
X157833982Y-72095500D01*
X157833984Y-72095500D01*
X157946016Y-72095500D01*
X157946018Y-72095500D01*
X158054237Y-72066503D01*
X158059529Y-72063447D01*
X158127427Y-72046973D01*
X158193455Y-72069823D01*
X158236647Y-72124743D01*
X158241306Y-72138739D01*
X158253497Y-72184238D01*
X158253498Y-72184239D01*
X158309515Y-72281263D01*
X158388737Y-72360485D01*
X158485763Y-72416503D01*
X158503858Y-72421351D01*
X158563515Y-72457712D01*
X158594046Y-72520558D01*
X158585754Y-72589934D01*
X158559448Y-72628803D01*
X158549519Y-72638732D01*
X158549513Y-72638740D01*
X158493498Y-72735760D01*
X158493497Y-72735763D01*
X158464500Y-72843982D01*
X158464500Y-72956018D01*
X158493497Y-73064237D01*
X158549515Y-73161263D01*
X158549517Y-73161265D01*
X158611071Y-73222819D01*
X158644556Y-73284142D01*
X158639572Y-73353834D01*
X158597700Y-73409767D01*
X158532236Y-73434184D01*
X158523390Y-73434500D01*
X158493982Y-73434500D01*
X158385763Y-73463497D01*
X158385760Y-73463498D01*
X158288740Y-73519513D01*
X158288734Y-73519517D01*
X158209517Y-73598734D01*
X158209513Y-73598740D01*
X158153498Y-73695760D01*
X158153497Y-73695763D01*
X158124500Y-73803982D01*
X158124500Y-73916018D01*
X158153468Y-74024128D01*
X158151805Y-74093978D01*
X158112642Y-74151840D01*
X158048414Y-74179344D01*
X158001601Y-74175996D01*
X157996018Y-74174500D01*
X157883982Y-74174500D01*
X157775763Y-74203497D01*
X157775760Y-74203498D01*
X157678740Y-74259513D01*
X157678734Y-74259517D01*
X157599517Y-74338734D01*
X157599511Y-74338743D01*
X157568312Y-74392780D01*
X157517745Y-74440995D01*
X157449138Y-74454217D01*
X157398926Y-74438166D01*
X157382054Y-74428425D01*
X157304237Y-74383497D01*
X157196018Y-74354500D01*
X157083982Y-74354500D01*
X156975763Y-74383497D01*
X156975760Y-74383498D01*
X156878740Y-74439513D01*
X156878734Y-74439517D01*
X156799517Y-74518734D01*
X156799513Y-74518740D01*
X156743498Y-74615760D01*
X156743497Y-74615763D01*
X156714500Y-74723982D01*
X156714500Y-74836018D01*
X156743497Y-74944237D01*
X156799515Y-75041263D01*
X156878737Y-75120485D01*
X156975763Y-75176503D01*
X157083982Y-75205500D01*
X157083984Y-75205500D01*
X157196016Y-75205500D01*
X157196018Y-75205500D01*
X157304237Y-75176503D01*
X157401263Y-75120485D01*
X157480485Y-75041263D01*
X157511687Y-74987218D01*
X157562252Y-74939005D01*
X157630859Y-74925781D01*
X157681069Y-74941831D01*
X157775763Y-74996503D01*
X157883982Y-75025500D01*
X157883984Y-75025500D01*
X157996016Y-75025500D01*
X157996018Y-75025500D01*
X158104237Y-74996503D01*
X158201263Y-74940485D01*
X158280485Y-74861263D01*
X158319160Y-74794276D01*
X158369726Y-74746060D01*
X158438333Y-74732836D01*
X158503198Y-74758804D01*
X158533932Y-74794272D01*
X158549515Y-74821263D01*
X158628737Y-74900485D01*
X158725763Y-74956503D01*
X158833982Y-74985500D01*
X158833984Y-74985500D01*
X158946016Y-74985500D01*
X158946018Y-74985500D01*
X159054237Y-74956503D01*
X159151263Y-74900485D01*
X159230485Y-74821263D01*
X159286503Y-74724237D01*
X159286504Y-74724232D01*
X159290536Y-74717249D01*
X159341103Y-74669033D01*
X159409710Y-74655809D01*
X159474575Y-74681777D01*
X159509133Y-74727370D01*
X159509433Y-74727198D01*
X159510809Y-74729581D01*
X159512483Y-74731790D01*
X159513496Y-74734235D01*
X159513497Y-74734237D01*
X159569515Y-74831263D01*
X159648737Y-74910485D01*
X159745763Y-74966503D01*
X159853982Y-74995500D01*
X159853984Y-74995500D01*
X159966016Y-74995500D01*
X159966018Y-74995500D01*
X160074237Y-74966503D01*
X160171263Y-74910485D01*
X160230175Y-74851572D01*
X160291494Y-74818090D01*
X160361186Y-74823074D01*
X160417120Y-74864945D01*
X160425240Y-74877256D01*
X160479515Y-74971263D01*
X160558737Y-75050485D01*
X160615639Y-75083337D01*
X160663853Y-75133902D01*
X160677077Y-75202509D01*
X160661027Y-75252720D01*
X160653497Y-75265763D01*
X160624500Y-75373982D01*
X160624500Y-75486018D01*
X160653497Y-75594237D01*
X160709515Y-75691263D01*
X160709517Y-75691265D01*
X160745571Y-75727319D01*
X160779056Y-75788642D01*
X160774072Y-75858334D01*
X160745571Y-75902681D01*
X160699517Y-75948734D01*
X160699513Y-75948740D01*
X160643498Y-76045760D01*
X160643497Y-76045763D01*
X160614500Y-76153982D01*
X160614500Y-76266018D01*
X160643497Y-76374237D01*
X160681745Y-76440485D01*
X160696762Y-76466494D01*
X160713235Y-76534394D01*
X160690383Y-76600421D01*
X160642355Y-76638659D01*
X160642802Y-76639433D01*
X160637639Y-76642413D01*
X160636839Y-76643051D01*
X160635763Y-76643496D01*
X160538740Y-76699513D01*
X160538734Y-76699517D01*
X160459517Y-76778734D01*
X160459513Y-76778740D01*
X160403498Y-76875760D01*
X160403497Y-76875763D01*
X160374500Y-76983982D01*
X160374500Y-77096018D01*
X160403497Y-77204237D01*
X160459515Y-77301263D01*
X160459517Y-77301265D01*
X160475571Y-77317319D01*
X160509056Y-77378642D01*
X160504072Y-77448334D01*
X160475571Y-77492681D01*
X160459517Y-77508734D01*
X160459513Y-77508740D01*
X160403498Y-77605760D01*
X160403497Y-77605763D01*
X160374500Y-77713982D01*
X160374500Y-77826018D01*
X160403497Y-77934237D01*
X160459515Y-78031263D01*
X160538737Y-78110485D01*
X160635763Y-78166503D01*
X160640949Y-78169497D01*
X160689165Y-78220064D01*
X160702388Y-78288671D01*
X160686336Y-78338884D01*
X160653498Y-78395760D01*
X160653497Y-78395763D01*
X160624500Y-78503982D01*
X160624500Y-78616018D01*
X160646066Y-78696502D01*
X160653497Y-78724236D01*
X160653498Y-78724239D01*
X160657741Y-78731588D01*
X160709515Y-78821263D01*
X160720258Y-78832006D01*
X160720573Y-78832321D01*
X160754056Y-78893646D01*
X160749069Y-78963337D01*
X160720573Y-79007679D01*
X160709515Y-79018737D01*
X160709513Y-79018740D01*
X160653498Y-79115760D01*
X160653497Y-79115763D01*
X160624500Y-79223982D01*
X160624500Y-79336018D01*
X160653497Y-79444237D01*
X160658524Y-79452944D01*
X160674998Y-79520842D01*
X160652147Y-79586870D01*
X160613139Y-79622331D01*
X160548743Y-79659511D01*
X160548734Y-79659517D01*
X160469517Y-79738734D01*
X160469515Y-79738737D01*
X160412565Y-79837376D01*
X160361997Y-79885591D01*
X160293390Y-79898813D01*
X160273085Y-79895150D01*
X160237410Y-79885591D01*
X160196018Y-79874500D01*
X160083982Y-79874500D01*
X159975763Y-79903497D01*
X159975760Y-79903498D01*
X159878740Y-79959513D01*
X159878734Y-79959517D01*
X159827681Y-80010571D01*
X159766358Y-80044056D01*
X159696666Y-80039072D01*
X159652319Y-80010571D01*
X159601265Y-79959517D01*
X159601263Y-79959515D01*
X159514664Y-79909517D01*
X159504239Y-79903498D01*
X159504238Y-79903497D01*
X159504237Y-79903497D01*
X159396018Y-79874500D01*
X159283982Y-79874500D01*
X159175763Y-79903497D01*
X159175760Y-79903498D01*
X159078740Y-79959513D01*
X159078734Y-79959517D01*
X159027681Y-80010571D01*
X158966358Y-80044056D01*
X158896666Y-80039072D01*
X158852319Y-80010571D01*
X158801265Y-79959517D01*
X158801263Y-79959515D01*
X158714664Y-79909517D01*
X158704239Y-79903498D01*
X158704238Y-79903497D01*
X158704237Y-79903497D01*
X158596018Y-79874500D01*
X158483982Y-79874500D01*
X158375763Y-79903497D01*
X158375760Y-79903498D01*
X158271698Y-79963579D01*
X158270555Y-79961600D01*
X158216397Y-79982539D01*
X158147952Y-79968501D01*
X158118398Y-79946650D01*
X158081265Y-79909517D01*
X158081263Y-79909515D01*
X157995390Y-79859936D01*
X157984239Y-79853498D01*
X157984238Y-79853497D01*
X157984237Y-79853497D01*
X157876018Y-79824500D01*
X157763982Y-79824500D01*
X157763980Y-79824500D01*
X157671592Y-79849255D01*
X157601743Y-79847592D01*
X157543880Y-79808429D01*
X157516377Y-79744200D01*
X157515500Y-79729480D01*
X157515500Y-79623984D01*
X157515500Y-79623982D01*
X157486503Y-79515763D01*
X157430485Y-79418737D01*
X157364429Y-79352681D01*
X157330944Y-79291358D01*
X157335928Y-79221666D01*
X157364429Y-79177319D01*
X157372235Y-79169513D01*
X157390485Y-79151263D01*
X157446503Y-79054237D01*
X157475500Y-78946018D01*
X157475500Y-78833982D01*
X157446503Y-78725763D01*
X157390485Y-78628737D01*
X157311263Y-78549515D01*
X157219726Y-78496666D01*
X157217499Y-78495380D01*
X157169284Y-78444812D01*
X157155500Y-78387993D01*
X157155500Y-78273984D01*
X157155500Y-78273982D01*
X157126503Y-78165763D01*
X157070485Y-78068737D01*
X156991263Y-77989515D01*
X156894237Y-77933497D01*
X156786018Y-77904500D01*
X156673982Y-77904500D01*
X156565763Y-77933497D01*
X156565760Y-77933498D01*
X156468740Y-77989513D01*
X156468731Y-77989519D01*
X156452676Y-78005574D01*
X156391352Y-78039056D01*
X156321660Y-78034069D01*
X156277318Y-78005570D01*
X156231265Y-77959517D01*
X156231263Y-77959515D01*
X156143308Y-77908734D01*
X156134239Y-77903498D01*
X156134238Y-77903497D01*
X156134237Y-77903497D01*
X156026018Y-77874500D01*
X155913982Y-77874500D01*
X155805763Y-77903497D01*
X155805762Y-77903497D01*
X155730659Y-77946858D01*
X155662759Y-77963330D01*
X155606660Y-77946857D01*
X155514239Y-77893498D01*
X155514238Y-77893497D01*
X155514237Y-77893497D01*
X155406018Y-77864500D01*
X155293982Y-77864500D01*
X155185763Y-77893497D01*
X155185760Y-77893498D01*
X155088740Y-77949513D01*
X155088734Y-77949517D01*
X155009517Y-78028734D01*
X155009513Y-78028740D01*
X154953498Y-78125760D01*
X154953497Y-78125763D01*
X154924500Y-78233982D01*
X154924500Y-78346018D01*
X154942712Y-78413984D01*
X154953497Y-78454236D01*
X154953500Y-78454243D01*
X154986637Y-78511639D01*
X155003110Y-78579539D01*
X154980257Y-78645566D01*
X154966932Y-78661318D01*
X154899518Y-78728733D01*
X154899513Y-78728740D01*
X154843498Y-78825760D01*
X154843497Y-78825763D01*
X154814500Y-78933982D01*
X154814500Y-78960500D01*
X154794815Y-79027539D01*
X154742011Y-79073294D01*
X154690500Y-79084500D01*
X154663982Y-79084500D01*
X154555763Y-79113497D01*
X154555760Y-79113498D01*
X154458740Y-79169513D01*
X154458734Y-79169517D01*
X154379517Y-79248734D01*
X154379510Y-79248743D01*
X154332559Y-79330064D01*
X154281992Y-79378279D01*
X154213385Y-79391501D01*
X154148520Y-79365533D01*
X154137492Y-79355744D01*
X154121265Y-79339517D01*
X154121263Y-79339515D01*
X154024237Y-79283497D01*
X153916018Y-79254500D01*
X153803982Y-79254500D01*
X153695763Y-79283497D01*
X153695760Y-79283498D01*
X153598740Y-79339513D01*
X153598734Y-79339517D01*
X153552681Y-79385571D01*
X153491358Y-79419056D01*
X153421666Y-79414072D01*
X153377319Y-79385571D01*
X153351265Y-79359517D01*
X153351263Y-79359515D01*
X153254237Y-79303497D01*
X153146018Y-79274500D01*
X153033982Y-79274500D01*
X152925763Y-79303497D01*
X152925760Y-79303498D01*
X152828740Y-79359513D01*
X152822291Y-79364462D01*
X152820596Y-79362253D01*
X152771153Y-79389236D01*
X152701463Y-79384234D01*
X152645540Y-79342348D01*
X152637439Y-79330063D01*
X152610554Y-79283498D01*
X152590485Y-79248737D01*
X152511263Y-79169515D01*
X152414239Y-79113498D01*
X152414238Y-79113497D01*
X152358584Y-79098585D01*
X152347405Y-79095589D01*
X152287746Y-79059225D01*
X152257217Y-78996377D01*
X152255500Y-78975815D01*
X152255500Y-78883984D01*
X152255500Y-78883982D01*
X152226503Y-78775763D01*
X152170485Y-78678737D01*
X152119429Y-78627681D01*
X152085944Y-78566358D01*
X152090928Y-78496666D01*
X152119429Y-78452319D01*
X152126936Y-78444812D01*
X152140485Y-78431263D01*
X152196503Y-78334237D01*
X152225500Y-78226018D01*
X152225500Y-78113982D01*
X152196503Y-78005763D01*
X152190314Y-77995044D01*
X152173841Y-77927146D01*
X152196692Y-77861119D01*
X152235702Y-77825657D01*
X152331263Y-77770485D01*
X152410485Y-77691263D01*
X152466503Y-77594237D01*
X152495500Y-77486018D01*
X152495500Y-77373982D01*
X152466503Y-77265763D01*
X152410485Y-77168737D01*
X152331263Y-77089515D01*
X152318916Y-77082386D01*
X152284584Y-77062564D01*
X152236370Y-77011996D01*
X152223148Y-76943389D01*
X152226809Y-76923094D01*
X152255500Y-76816018D01*
X152255500Y-76703982D01*
X152226503Y-76595763D01*
X152170485Y-76498737D01*
X152155747Y-76483999D01*
X152145771Y-76465729D01*
X152131795Y-76450300D01*
X152129363Y-76435681D01*
X152122262Y-76422676D01*
X152123746Y-76401913D01*
X152120331Y-76381377D01*
X152126547Y-76362756D01*
X152127246Y-76352984D01*
X152129527Y-76347302D01*
X152132400Y-76340624D01*
X152176503Y-76264237D01*
X152181930Y-76243982D01*
X154854500Y-76243982D01*
X154854500Y-76356018D01*
X154883497Y-76464237D01*
X154939515Y-76561263D01*
X155018737Y-76640485D01*
X155115763Y-76696503D01*
X155223982Y-76725500D01*
X155223984Y-76725500D01*
X155336016Y-76725500D01*
X155336018Y-76725500D01*
X155444237Y-76696503D01*
X155541263Y-76640485D01*
X155620485Y-76561263D01*
X155676503Y-76464237D01*
X155705500Y-76356018D01*
X155705500Y-76243982D01*
X155676503Y-76135763D01*
X155620485Y-76038737D01*
X155541263Y-75959515D01*
X155541260Y-75959513D01*
X155541259Y-75959512D01*
X155444239Y-75903498D01*
X155444238Y-75903497D01*
X155444237Y-75903497D01*
X155336018Y-75874500D01*
X155223982Y-75874500D01*
X155115763Y-75903497D01*
X155115760Y-75903498D01*
X155018740Y-75959513D01*
X155018734Y-75959517D01*
X154939517Y-76038734D01*
X154939513Y-76038740D01*
X154883498Y-76135760D01*
X154883497Y-76135763D01*
X154854500Y-76243982D01*
X152181930Y-76243982D01*
X152205500Y-76156018D01*
X152205500Y-76043982D01*
X152176503Y-75935763D01*
X152140834Y-75873982D01*
X156614500Y-75873982D01*
X156614500Y-75986018D01*
X156643497Y-76094237D01*
X156699515Y-76191263D01*
X156778737Y-76270485D01*
X156875763Y-76326503D01*
X156983982Y-76355500D01*
X156983984Y-76355500D01*
X157096016Y-76355500D01*
X157096018Y-76355500D01*
X157204237Y-76326503D01*
X157301263Y-76270485D01*
X157380485Y-76191263D01*
X157436503Y-76094237D01*
X157465500Y-75986018D01*
X157465500Y-75873982D01*
X157436503Y-75765763D01*
X157380485Y-75668737D01*
X157301263Y-75589515D01*
X157216341Y-75540485D01*
X157204239Y-75533498D01*
X157204238Y-75533497D01*
X157204237Y-75533497D01*
X157096018Y-75504500D01*
X156983982Y-75504500D01*
X156875763Y-75533497D01*
X156875760Y-75533498D01*
X156778740Y-75589513D01*
X156778734Y-75589517D01*
X156699517Y-75668734D01*
X156699513Y-75668740D01*
X156643498Y-75765760D01*
X156643497Y-75765763D01*
X156614500Y-75873982D01*
X152140834Y-75873982D01*
X152120485Y-75838737D01*
X152041263Y-75759515D01*
X151944237Y-75703497D01*
X151836018Y-75674500D01*
X151723982Y-75674500D01*
X151615763Y-75703497D01*
X151615760Y-75703498D01*
X151518740Y-75759513D01*
X151518734Y-75759517D01*
X151439517Y-75838734D01*
X151439513Y-75838740D01*
X151383498Y-75935760D01*
X151383497Y-75935763D01*
X151354500Y-76043982D01*
X151354500Y-76156018D01*
X151378071Y-76243984D01*
X151383497Y-76264236D01*
X151383498Y-76264239D01*
X151387104Y-76270485D01*
X151439515Y-76361263D01*
X151439517Y-76361265D01*
X151454252Y-76376000D01*
X151487737Y-76437323D01*
X151482753Y-76507015D01*
X151473959Y-76525680D01*
X151433497Y-76595762D01*
X151433497Y-76595763D01*
X151404500Y-76703982D01*
X151404500Y-76816018D01*
X151433497Y-76924237D01*
X151489515Y-77021263D01*
X151568737Y-77100485D01*
X151602898Y-77120208D01*
X151615412Y-77127433D01*
X151663628Y-77177999D01*
X151676852Y-77246606D01*
X151673188Y-77266912D01*
X151644500Y-77373980D01*
X151644500Y-77373982D01*
X151644500Y-77486018D01*
X151650589Y-77508740D01*
X151673497Y-77594236D01*
X151673498Y-77594239D01*
X151679685Y-77604955D01*
X151696158Y-77672855D01*
X151673305Y-77738882D01*
X151634299Y-77774342D01*
X151538737Y-77829515D01*
X151538734Y-77829517D01*
X151459517Y-77908734D01*
X151459513Y-77908740D01*
X151403498Y-78005760D01*
X151403497Y-78005763D01*
X151374500Y-78113982D01*
X151374500Y-78226018D01*
X151403497Y-78334237D01*
X151459515Y-78431263D01*
X151459517Y-78431265D01*
X151510571Y-78482319D01*
X151544056Y-78543642D01*
X151539072Y-78613334D01*
X151510571Y-78657681D01*
X151489517Y-78678734D01*
X151489513Y-78678740D01*
X151433498Y-78775760D01*
X151433497Y-78775763D01*
X151404500Y-78883982D01*
X151404500Y-78996018D01*
X151423257Y-79066018D01*
X151433497Y-79104236D01*
X151433498Y-79104239D01*
X151452169Y-79136579D01*
X151489515Y-79201263D01*
X151568737Y-79280485D01*
X151665763Y-79336503D01*
X151732593Y-79354410D01*
X151792253Y-79390773D01*
X151822783Y-79453620D01*
X151824500Y-79474184D01*
X151824500Y-79566018D01*
X151853497Y-79674237D01*
X151909515Y-79771263D01*
X151988737Y-79850485D01*
X152085763Y-79906503D01*
X152193982Y-79935500D01*
X152193984Y-79935500D01*
X152306016Y-79935500D01*
X152306018Y-79935500D01*
X152414237Y-79906503D01*
X152511263Y-79850485D01*
X152511271Y-79850476D01*
X152517709Y-79845538D01*
X152519409Y-79847753D01*
X152568784Y-79820776D01*
X152638477Y-79825743D01*
X152694421Y-79867600D01*
X152702560Y-79879935D01*
X152749515Y-79961263D01*
X152828737Y-80040485D01*
X152925763Y-80096503D01*
X153033982Y-80125500D01*
X153033984Y-80125500D01*
X153146016Y-80125500D01*
X153146018Y-80125500D01*
X153254237Y-80096503D01*
X153351263Y-80040485D01*
X153397319Y-79994429D01*
X153458642Y-79960944D01*
X153528334Y-79965928D01*
X153572681Y-79994429D01*
X153598737Y-80020485D01*
X153695763Y-80076503D01*
X153803982Y-80105500D01*
X153803984Y-80105500D01*
X153916016Y-80105500D01*
X153916018Y-80105500D01*
X154024237Y-80076503D01*
X154121263Y-80020485D01*
X154200485Y-79941263D01*
X154247439Y-79859935D01*
X154298006Y-79811720D01*
X154366613Y-79798497D01*
X154431478Y-79824465D01*
X154442507Y-79834255D01*
X154458737Y-79850485D01*
X154555763Y-79906503D01*
X154663982Y-79935500D01*
X154663984Y-79935500D01*
X154776016Y-79935500D01*
X154776018Y-79935500D01*
X154884237Y-79906503D01*
X154981263Y-79850485D01*
X155060485Y-79771263D01*
X155116503Y-79674237D01*
X155145500Y-79566018D01*
X155145500Y-79539500D01*
X155165185Y-79472461D01*
X155217989Y-79426706D01*
X155269500Y-79415500D01*
X155296016Y-79415500D01*
X155296018Y-79415500D01*
X155404237Y-79386503D01*
X155501263Y-79330485D01*
X155580485Y-79251263D01*
X155636503Y-79154237D01*
X155665500Y-79046018D01*
X155665500Y-78933982D01*
X155641491Y-78844378D01*
X155643154Y-78774532D01*
X155682316Y-78716669D01*
X155746545Y-78689165D01*
X155797436Y-78696173D01*
X155797912Y-78694399D01*
X155805761Y-78696502D01*
X155805763Y-78696503D01*
X155913982Y-78725500D01*
X155913984Y-78725500D01*
X156026016Y-78725500D01*
X156026018Y-78725500D01*
X156134237Y-78696503D01*
X156231263Y-78640485D01*
X156247319Y-78624429D01*
X156308642Y-78590944D01*
X156378334Y-78595928D01*
X156407748Y-78611692D01*
X156415717Y-78617465D01*
X156468737Y-78670485D01*
X156565763Y-78726503D01*
X156566502Y-78726701D01*
X156573248Y-78731588D01*
X156590854Y-78754356D01*
X156610716Y-78775186D01*
X156612431Y-78782259D01*
X156615989Y-78786859D01*
X156617360Y-78802577D01*
X156624500Y-78832006D01*
X156624500Y-78833982D01*
X156624500Y-78946018D01*
X156653497Y-79054237D01*
X156709515Y-79151263D01*
X156709517Y-79151265D01*
X156775571Y-79217319D01*
X156809056Y-79278642D01*
X156804072Y-79348334D01*
X156775571Y-79392681D01*
X156749517Y-79418734D01*
X156749513Y-79418740D01*
X156693498Y-79515760D01*
X156693497Y-79515763D01*
X156664500Y-79623982D01*
X156664500Y-79736018D01*
X156691227Y-79835763D01*
X156693497Y-79844236D01*
X156693498Y-79844239D01*
X156697104Y-79850485D01*
X156749515Y-79941263D01*
X156828737Y-80020485D01*
X156925763Y-80076503D01*
X157033982Y-80105500D01*
X157033984Y-80105500D01*
X157146015Y-80105500D01*
X157146018Y-80105500D01*
X157238409Y-80080744D01*
X157308256Y-80082407D01*
X157366119Y-80121569D01*
X157393623Y-80185798D01*
X157394500Y-80200519D01*
X157394500Y-80306018D01*
X157423497Y-80414237D01*
X157479515Y-80511263D01*
X157558737Y-80590485D01*
X157655763Y-80646503D01*
X157763982Y-80675500D01*
X157763984Y-80675500D01*
X157876016Y-80675500D01*
X157876018Y-80675500D01*
X157984237Y-80646503D01*
X158081263Y-80590485D01*
X158081263Y-80590484D01*
X158088302Y-80586421D01*
X158089447Y-80588404D01*
X158143564Y-80567463D01*
X158212013Y-80581480D01*
X158241601Y-80603349D01*
X158278737Y-80640485D01*
X158375763Y-80696503D01*
X158483982Y-80725500D01*
X158483984Y-80725500D01*
X158596016Y-80725500D01*
X158596018Y-80725500D01*
X158704237Y-80696503D01*
X158801263Y-80640485D01*
X158852319Y-80589429D01*
X158913642Y-80555944D01*
X158983334Y-80560928D01*
X159027681Y-80589429D01*
X159078737Y-80640485D01*
X159175763Y-80696503D01*
X159283982Y-80725500D01*
X159283984Y-80725500D01*
X159396016Y-80725500D01*
X159396018Y-80725500D01*
X159504237Y-80696503D01*
X159601263Y-80640485D01*
X159652319Y-80589429D01*
X159713642Y-80555944D01*
X159783334Y-80560928D01*
X159827681Y-80589429D01*
X159878737Y-80640485D01*
X159975763Y-80696503D01*
X160083982Y-80725500D01*
X160083984Y-80725500D01*
X160196016Y-80725500D01*
X160196018Y-80725500D01*
X160304237Y-80696503D01*
X160401263Y-80640485D01*
X160480485Y-80561263D01*
X160536503Y-80464237D01*
X160536503Y-80464236D01*
X160537434Y-80462624D01*
X160588001Y-80414408D01*
X160656608Y-80401185D01*
X160676902Y-80404846D01*
X160753982Y-80425500D01*
X160753985Y-80425500D01*
X160866016Y-80425500D01*
X160866018Y-80425500D01*
X160974237Y-80396503D01*
X161071263Y-80340485D01*
X161150485Y-80261263D01*
X161168113Y-80230729D01*
X161218679Y-80182515D01*
X161287286Y-80169291D01*
X161352151Y-80195259D01*
X161392680Y-80252173D01*
X161399500Y-80292730D01*
X161399500Y-103593593D01*
X161399474Y-103596141D01*
X161394946Y-103816440D01*
X161394726Y-103821701D01*
X161381904Y-104024902D01*
X161381439Y-104030348D01*
X161360674Y-104223486D01*
X161359942Y-104229094D01*
X161331782Y-104412053D01*
X161330756Y-104417809D01*
X161295461Y-104592041D01*
X161294124Y-104597906D01*
X161252372Y-104762526D01*
X161250704Y-104768478D01*
X161202304Y-104925923D01*
X161200293Y-104931916D01*
X161149041Y-105072660D01*
X161145378Y-105081617D01*
X161015927Y-105365913D01*
X161009799Y-105377662D01*
X160860793Y-105629544D01*
X160853346Y-105640706D01*
X160681035Y-105870951D01*
X160672454Y-105881213D01*
X160475535Y-106092422D01*
X160466079Y-106101544D01*
X160242676Y-106295279D01*
X160232644Y-106303114D01*
X159980773Y-106479788D01*
X159970458Y-106486291D01*
X159688634Y-106645162D01*
X159678290Y-106650372D01*
X159366405Y-106789608D01*
X159356225Y-106793624D01*
X159016920Y-106910453D01*
X159007016Y-106913407D01*
X158648530Y-107004266D01*
X158638924Y-107006300D01*
X158281879Y-107067231D01*
X158272539Y-107068462D01*
X157970152Y-107096674D01*
X157962745Y-107097142D01*
X157893905Y-107099426D01*
X157889734Y-107099494D01*
X115910466Y-107079504D01*
X115906414Y-107079436D01*
X115837254Y-107077142D01*
X115829847Y-107076674D01*
X115527460Y-107048463D01*
X115518118Y-107047232D01*
X115161069Y-106986299D01*
X115151464Y-106984265D01*
X114792982Y-106893407D01*
X114783084Y-106890455D01*
X114501858Y-106793624D01*
X114443775Y-106773625D01*
X114433596Y-106769609D01*
X114121703Y-106630369D01*
X114111360Y-106625159D01*
X113829548Y-106466296D01*
X113819232Y-106459793D01*
X113567354Y-106283114D01*
X113557322Y-106275279D01*
X113352009Y-106097232D01*
X113333920Y-106081545D01*
X113324467Y-106072426D01*
X113127543Y-105861212D01*
X113118962Y-105850950D01*
X112946652Y-105620706D01*
X112939205Y-105609544D01*
X112874408Y-105500011D01*
X112790198Y-105357661D01*
X112784071Y-105345913D01*
X112771867Y-105319111D01*
X112654616Y-105061610D01*
X112650963Y-105052677D01*
X112599695Y-104911888D01*
X112597699Y-104905939D01*
X112549294Y-104748476D01*
X112547638Y-104742568D01*
X112505873Y-104577902D01*
X112504539Y-104572052D01*
X112493490Y-104517509D01*
X112469235Y-104397773D01*
X112468213Y-104392032D01*
X112467926Y-104390169D01*
X112440056Y-104209095D01*
X112439323Y-104203487D01*
X112433298Y-104147449D01*
X112418556Y-104010330D01*
X112418094Y-104004900D01*
X112405270Y-103801660D01*
X112405053Y-103796482D01*
X112400526Y-103576141D01*
X112400500Y-103573594D01*
X112400500Y-103428681D01*
X112849500Y-103428681D01*
X112849500Y-103771318D01*
X112887858Y-104111768D01*
X112887861Y-104111782D01*
X112964102Y-104445816D01*
X112964103Y-104445818D01*
X113077264Y-104769216D01*
X113225922Y-105077907D01*
X113225924Y-105077910D01*
X113408211Y-105368018D01*
X113567581Y-105567861D01*
X113605431Y-105615325D01*
X113621834Y-105635893D01*
X113864107Y-105878166D01*
X114131982Y-106091789D01*
X114374551Y-106244205D01*
X114422092Y-106274077D01*
X114466118Y-106295279D01*
X114730785Y-106422736D01*
X115054183Y-106535897D01*
X115388217Y-106612139D01*
X115388226Y-106612140D01*
X115388231Y-106612141D01*
X115615197Y-106637713D01*
X115728682Y-106650499D01*
X115728685Y-106650500D01*
X115728688Y-106650500D01*
X116071315Y-106650500D01*
X116071316Y-106650499D01*
X116249984Y-106630369D01*
X116411768Y-106612141D01*
X116411771Y-106612140D01*
X116411783Y-106612139D01*
X116745817Y-106535897D01*
X117069215Y-106422736D01*
X117377910Y-106274076D01*
X117668018Y-106091789D01*
X117935893Y-105878166D01*
X118178166Y-105635893D01*
X118391789Y-105368018D01*
X118574076Y-105077910D01*
X118686724Y-104843995D01*
X131979499Y-104843995D01*
X132006418Y-104979322D01*
X132006421Y-104979332D01*
X132059221Y-105106804D01*
X132059228Y-105106817D01*
X132135885Y-105221541D01*
X132135888Y-105221545D01*
X132233454Y-105319111D01*
X132233458Y-105319114D01*
X132348182Y-105395771D01*
X132348195Y-105395778D01*
X132475667Y-105448578D01*
X132475672Y-105448580D01*
X132475676Y-105448580D01*
X132475677Y-105448581D01*
X132611004Y-105475500D01*
X132611007Y-105475500D01*
X132748995Y-105475500D01*
X132844708Y-105456461D01*
X132884328Y-105448580D01*
X133011811Y-105395775D01*
X133126542Y-105319114D01*
X133224114Y-105221542D01*
X133300775Y-105106811D01*
X133353580Y-104979328D01*
X133367582Y-104908937D01*
X133380500Y-104843995D01*
X140619499Y-104843995D01*
X140646418Y-104979322D01*
X140646421Y-104979332D01*
X140699221Y-105106804D01*
X140699228Y-105106817D01*
X140775885Y-105221541D01*
X140775888Y-105221545D01*
X140873454Y-105319111D01*
X140873458Y-105319114D01*
X140988182Y-105395771D01*
X140988195Y-105395778D01*
X141115667Y-105448578D01*
X141115672Y-105448580D01*
X141115676Y-105448580D01*
X141115677Y-105448581D01*
X141251004Y-105475500D01*
X141251007Y-105475500D01*
X141388995Y-105475500D01*
X141484708Y-105456461D01*
X141524328Y-105448580D01*
X141651811Y-105395775D01*
X141766542Y-105319114D01*
X141864114Y-105221542D01*
X141940775Y-105106811D01*
X141993580Y-104979328D01*
X142007582Y-104908937D01*
X142020500Y-104843995D01*
X142020500Y-104106004D01*
X141993581Y-103970677D01*
X141993580Y-103970676D01*
X141993580Y-103970672D01*
X141975283Y-103926499D01*
X141940778Y-103843195D01*
X141940771Y-103843182D01*
X141864114Y-103728458D01*
X141864111Y-103728454D01*
X141766545Y-103630888D01*
X141766541Y-103630885D01*
X141651817Y-103554228D01*
X141651808Y-103554223D01*
X141616914Y-103539770D01*
X141616912Y-103539769D01*
X141524332Y-103501421D01*
X141524322Y-103501418D01*
X141388995Y-103474500D01*
X141388993Y-103474500D01*
X141251007Y-103474500D01*
X141251005Y-103474500D01*
X141115677Y-103501418D01*
X141115667Y-103501421D01*
X140988195Y-103554221D01*
X140988182Y-103554228D01*
X140873458Y-103630885D01*
X140873454Y-103630888D01*
X140775888Y-103728454D01*
X140775885Y-103728458D01*
X140699228Y-103843182D01*
X140699221Y-103843195D01*
X140646421Y-103970667D01*
X140646418Y-103970677D01*
X140619500Y-104106004D01*
X140619500Y-104106007D01*
X140619500Y-104843993D01*
X140619500Y-104843995D01*
X140619499Y-104843995D01*
X133380500Y-104843995D01*
X133380500Y-104106004D01*
X133353581Y-103970677D01*
X133353580Y-103970676D01*
X133353580Y-103970672D01*
X133335283Y-103926499D01*
X133300778Y-103843195D01*
X133300771Y-103843182D01*
X133224114Y-103728458D01*
X133224111Y-103728454D01*
X133126545Y-103630888D01*
X133126541Y-103630885D01*
X133011817Y-103554228D01*
X133011804Y-103554221D01*
X132884332Y-103501421D01*
X132884322Y-103501418D01*
X132748995Y-103474500D01*
X132748993Y-103474500D01*
X132611007Y-103474500D01*
X132611005Y-103474500D01*
X132475677Y-103501418D01*
X132475667Y-103501421D01*
X132348195Y-103554221D01*
X132348182Y-103554228D01*
X132233458Y-103630885D01*
X132233454Y-103630888D01*
X132135888Y-103728454D01*
X132135885Y-103728458D01*
X132059228Y-103843182D01*
X132059221Y-103843195D01*
X132006421Y-103970667D01*
X132006418Y-103970677D01*
X131979500Y-104106004D01*
X131979500Y-104106007D01*
X131979500Y-104843993D01*
X131979500Y-104843995D01*
X131979499Y-104843995D01*
X118686724Y-104843995D01*
X118722736Y-104769215D01*
X118835897Y-104445817D01*
X118912139Y-104111783D01*
X118916881Y-104069701D01*
X118937961Y-103882598D01*
X118950500Y-103771312D01*
X118950500Y-103428688D01*
X118912139Y-103088217D01*
X118835897Y-102754183D01*
X118740212Y-102480730D01*
X121619500Y-102480730D01*
X121619500Y-104039269D01*
X121622353Y-104069699D01*
X121622353Y-104069701D01*
X121667206Y-104197880D01*
X121667207Y-104197882D01*
X121747850Y-104307150D01*
X121857118Y-104387793D01*
X121894776Y-104400970D01*
X121985299Y-104432646D01*
X122015730Y-104435500D01*
X122015734Y-104435500D01*
X123324270Y-104435500D01*
X123354699Y-104432646D01*
X123354701Y-104432646D01*
X123418932Y-104410170D01*
X123482882Y-104387793D01*
X123592150Y-104307150D01*
X123672793Y-104197882D01*
X123702921Y-104111782D01*
X123717646Y-104069701D01*
X123717646Y-104069699D01*
X123720500Y-104039269D01*
X123720500Y-103031530D01*
X124119500Y-103031530D01*
X124119500Y-103488469D01*
X124159868Y-103691412D01*
X124159870Y-103691420D01*
X124239058Y-103882596D01*
X124354024Y-104054657D01*
X124500342Y-104200975D01*
X124500345Y-104200977D01*
X124672402Y-104315941D01*
X124863580Y-104395130D01*
X125052187Y-104432646D01*
X125066530Y-104435499D01*
X125066534Y-104435500D01*
X125066535Y-104435500D01*
X125273466Y-104435500D01*
X125273467Y-104435499D01*
X125476420Y-104395130D01*
X125667598Y-104315941D01*
X125839655Y-104200977D01*
X125985977Y-104054655D01*
X126100941Y-103882598D01*
X126180130Y-103691420D01*
X126220500Y-103488465D01*
X126220500Y-103031535D01*
X126220499Y-103031530D01*
X126619500Y-103031530D01*
X126619500Y-103488469D01*
X126659868Y-103691412D01*
X126659870Y-103691420D01*
X126739058Y-103882596D01*
X126854024Y-104054657D01*
X127000342Y-104200975D01*
X127000345Y-104200977D01*
X127172402Y-104315941D01*
X127363580Y-104395130D01*
X127552187Y-104432646D01*
X127566530Y-104435499D01*
X127566534Y-104435500D01*
X127566535Y-104435500D01*
X127773466Y-104435500D01*
X127773467Y-104435499D01*
X127976420Y-104395130D01*
X128167598Y-104315941D01*
X128339655Y-104200977D01*
X128485977Y-104054655D01*
X128502219Y-104030348D01*
X128542092Y-103970672D01*
X128600941Y-103882598D01*
X128680130Y-103691420D01*
X128720500Y-103488465D01*
X128720500Y-103428681D01*
X154849500Y-103428681D01*
X154849500Y-103771318D01*
X154887858Y-104111768D01*
X154887861Y-104111782D01*
X154964102Y-104445816D01*
X154964103Y-104445818D01*
X155077264Y-104769216D01*
X155225922Y-105077907D01*
X155225924Y-105077910D01*
X155408211Y-105368018D01*
X155567581Y-105567861D01*
X155605431Y-105615325D01*
X155621834Y-105635893D01*
X155864107Y-105878166D01*
X156131982Y-106091789D01*
X156374551Y-106244205D01*
X156422092Y-106274077D01*
X156466118Y-106295279D01*
X156730785Y-106422736D01*
X157054183Y-106535897D01*
X157388217Y-106612139D01*
X157388226Y-106612140D01*
X157388231Y-106612141D01*
X157615197Y-106637713D01*
X157728682Y-106650499D01*
X157728685Y-106650500D01*
X157728688Y-106650500D01*
X158071315Y-106650500D01*
X158071316Y-106650499D01*
X158249984Y-106630369D01*
X158411768Y-106612141D01*
X158411771Y-106612140D01*
X158411783Y-106612139D01*
X158745817Y-106535897D01*
X159069215Y-106422736D01*
X159377910Y-106274076D01*
X159668018Y-106091789D01*
X159935893Y-105878166D01*
X160178166Y-105635893D01*
X160391789Y-105368018D01*
X160574076Y-105077910D01*
X160722736Y-104769215D01*
X160835897Y-104445817D01*
X160912139Y-104111783D01*
X160916881Y-104069701D01*
X160937961Y-103882598D01*
X160950500Y-103771312D01*
X160950500Y-103428688D01*
X160912139Y-103088217D01*
X160835897Y-102754183D01*
X160722736Y-102430785D01*
X160574076Y-102122090D01*
X160391789Y-101831982D01*
X160178166Y-101564107D01*
X159935893Y-101321834D01*
X159668018Y-101108211D01*
X159377910Y-100925924D01*
X159377907Y-100925922D01*
X159069216Y-100777264D01*
X158745818Y-100664103D01*
X158745816Y-100664102D01*
X158488024Y-100605262D01*
X158411783Y-100587861D01*
X158411780Y-100587860D01*
X158411768Y-100587858D01*
X158071318Y-100549500D01*
X158071312Y-100549500D01*
X157728688Y-100549500D01*
X157728681Y-100549500D01*
X157388231Y-100587858D01*
X157388217Y-100587861D01*
X157054183Y-100664102D01*
X157054181Y-100664103D01*
X156730783Y-100777264D01*
X156422092Y-100925922D01*
X156131983Y-101108210D01*
X155864107Y-101321833D01*
X155621833Y-101564107D01*
X155408210Y-101831983D01*
X155225922Y-102122092D01*
X155077264Y-102430783D01*
X154964103Y-102754181D01*
X154964102Y-102754183D01*
X154887861Y-103088217D01*
X154887858Y-103088231D01*
X154849500Y-103428681D01*
X128720500Y-103428681D01*
X128720500Y-103031535D01*
X128680130Y-102828580D01*
X128600941Y-102637402D01*
X128485977Y-102465345D01*
X128485975Y-102465342D01*
X128339657Y-102319024D01*
X128253626Y-102261541D01*
X128167598Y-102204059D01*
X127976420Y-102124870D01*
X127976412Y-102124868D01*
X127773469Y-102084500D01*
X127773465Y-102084500D01*
X127566535Y-102084500D01*
X127566530Y-102084500D01*
X127363587Y-102124868D01*
X127363579Y-102124870D01*
X127172403Y-102204058D01*
X127000342Y-102319024D01*
X126854024Y-102465342D01*
X126739058Y-102637403D01*
X126659870Y-102828579D01*
X126659868Y-102828587D01*
X126619500Y-103031530D01*
X126220499Y-103031530D01*
X126180130Y-102828580D01*
X126100941Y-102637402D01*
X125985977Y-102465345D01*
X125985975Y-102465342D01*
X125839657Y-102319024D01*
X125753626Y-102261541D01*
X125667598Y-102204059D01*
X125476420Y-102124870D01*
X125476412Y-102124868D01*
X125273469Y-102084500D01*
X125273465Y-102084500D01*
X125066535Y-102084500D01*
X125066530Y-102084500D01*
X124863587Y-102124868D01*
X124863579Y-102124870D01*
X124672403Y-102204058D01*
X124500342Y-102319024D01*
X124354024Y-102465342D01*
X124239058Y-102637403D01*
X124159870Y-102828579D01*
X124159868Y-102828587D01*
X124119500Y-103031530D01*
X123720500Y-103031530D01*
X123720500Y-102480730D01*
X123717646Y-102450300D01*
X123717646Y-102450298D01*
X123672793Y-102322119D01*
X123672792Y-102322117D01*
X123592150Y-102212850D01*
X123482882Y-102132207D01*
X123482880Y-102132206D01*
X123354700Y-102087353D01*
X123324270Y-102084500D01*
X123324266Y-102084500D01*
X122015734Y-102084500D01*
X122015730Y-102084500D01*
X121985300Y-102087353D01*
X121985298Y-102087353D01*
X121857119Y-102132206D01*
X121857117Y-102132207D01*
X121747850Y-102212850D01*
X121667207Y-102322117D01*
X121667206Y-102322119D01*
X121622353Y-102450298D01*
X121622353Y-102450300D01*
X121619500Y-102480730D01*
X118740212Y-102480730D01*
X118722736Y-102430785D01*
X118574076Y-102122090D01*
X118391789Y-101831982D01*
X118178166Y-101564107D01*
X117935893Y-101321834D01*
X117668018Y-101108211D01*
X117377910Y-100925924D01*
X117377907Y-100925922D01*
X117353140Y-100913995D01*
X131979499Y-100913995D01*
X132006418Y-101049322D01*
X132006421Y-101049332D01*
X132059221Y-101176804D01*
X132059228Y-101176817D01*
X132135885Y-101291541D01*
X132135888Y-101291545D01*
X132233454Y-101389111D01*
X132233458Y-101389114D01*
X132348182Y-101465771D01*
X132348195Y-101465778D01*
X132475667Y-101518578D01*
X132475672Y-101518580D01*
X132475676Y-101518580D01*
X132475677Y-101518581D01*
X132611004Y-101545500D01*
X132611007Y-101545500D01*
X132748995Y-101545500D01*
X132840041Y-101527389D01*
X132884328Y-101518580D01*
X133011811Y-101465775D01*
X133126542Y-101389114D01*
X133224114Y-101291542D01*
X133300775Y-101176811D01*
X133353580Y-101049328D01*
X133378127Y-100925924D01*
X133380500Y-100913995D01*
X140619499Y-100913995D01*
X140646418Y-101049322D01*
X140646421Y-101049332D01*
X140699221Y-101176804D01*
X140699228Y-101176817D01*
X140775885Y-101291541D01*
X140775888Y-101291545D01*
X140873454Y-101389111D01*
X140873458Y-101389114D01*
X140988182Y-101465771D01*
X140988195Y-101465778D01*
X141115667Y-101518578D01*
X141115672Y-101518580D01*
X141115676Y-101518580D01*
X141115677Y-101518581D01*
X141251004Y-101545500D01*
X141251007Y-101545500D01*
X141388995Y-101545500D01*
X141480041Y-101527389D01*
X141524328Y-101518580D01*
X141651811Y-101465775D01*
X141766542Y-101389114D01*
X141864114Y-101291542D01*
X141940775Y-101176811D01*
X141993580Y-101049328D01*
X142018127Y-100925924D01*
X142020500Y-100913995D01*
X142020500Y-100143982D01*
X150624500Y-100143982D01*
X150624500Y-100256018D01*
X150653497Y-100364237D01*
X150709515Y-100461263D01*
X150788737Y-100540485D01*
X150885763Y-100596503D01*
X150993982Y-100625500D01*
X150993984Y-100625500D01*
X151106016Y-100625500D01*
X151106018Y-100625500D01*
X151214237Y-100596503D01*
X151311263Y-100540485D01*
X151390485Y-100461263D01*
X151446503Y-100364237D01*
X151475500Y-100256018D01*
X151475500Y-100143982D01*
X151446503Y-100035763D01*
X151390485Y-99938737D01*
X151311263Y-99859515D01*
X151214237Y-99803497D01*
X151106018Y-99774500D01*
X150993982Y-99774500D01*
X150885763Y-99803497D01*
X150885760Y-99803498D01*
X150788740Y-99859513D01*
X150788734Y-99859517D01*
X150709517Y-99938734D01*
X150709513Y-99938740D01*
X150653498Y-100035760D01*
X150653497Y-100035763D01*
X150624500Y-100143982D01*
X142020500Y-100143982D01*
X142020500Y-99676004D01*
X141993581Y-99540677D01*
X141993580Y-99540676D01*
X141993580Y-99540672D01*
X141968972Y-99481263D01*
X141940778Y-99413195D01*
X141940770Y-99413180D01*
X141935135Y-99404747D01*
X141935134Y-99404746D01*
X141894532Y-99343982D01*
X143074500Y-99343982D01*
X143074500Y-99456018D01*
X143103497Y-99564237D01*
X143159515Y-99661263D01*
X143238737Y-99740485D01*
X143335763Y-99796503D01*
X143443982Y-99825500D01*
X143443984Y-99825500D01*
X143556016Y-99825500D01*
X143556018Y-99825500D01*
X143664237Y-99796503D01*
X143761263Y-99740485D01*
X143840485Y-99661263D01*
X143896503Y-99564237D01*
X143925500Y-99456018D01*
X143925500Y-99343982D01*
X143896503Y-99235763D01*
X143840485Y-99138737D01*
X143761263Y-99059515D01*
X143664237Y-99003497D01*
X143556018Y-98974500D01*
X143443982Y-98974500D01*
X143335763Y-99003497D01*
X143335760Y-99003498D01*
X143238740Y-99059513D01*
X143238734Y-99059517D01*
X143159517Y-99138734D01*
X143159513Y-99138740D01*
X143103498Y-99235760D01*
X143103497Y-99235763D01*
X143074500Y-99343982D01*
X141894532Y-99343982D01*
X141864114Y-99298458D01*
X141864111Y-99298454D01*
X141766545Y-99200888D01*
X141766541Y-99200885D01*
X141651817Y-99124228D01*
X141651804Y-99124221D01*
X141524332Y-99071421D01*
X141524322Y-99071418D01*
X141388995Y-99044500D01*
X141388993Y-99044500D01*
X141251007Y-99044500D01*
X141251005Y-99044500D01*
X141115677Y-99071418D01*
X141115667Y-99071421D01*
X140988195Y-99124221D01*
X140988182Y-99124228D01*
X140873458Y-99200885D01*
X140873454Y-99200888D01*
X140775888Y-99298454D01*
X140775885Y-99298458D01*
X140699228Y-99413182D01*
X140699221Y-99413195D01*
X140646421Y-99540667D01*
X140646418Y-99540677D01*
X140619500Y-99676004D01*
X140619500Y-99676007D01*
X140619500Y-100913993D01*
X140619500Y-100913995D01*
X140619499Y-100913995D01*
X133380500Y-100913995D01*
X133380500Y-99676004D01*
X133353581Y-99540677D01*
X133353580Y-99540676D01*
X133353580Y-99540672D01*
X133328972Y-99481263D01*
X133300778Y-99413195D01*
X133300771Y-99413182D01*
X133224114Y-99298458D01*
X133224111Y-99298454D01*
X133126545Y-99200888D01*
X133126541Y-99200885D01*
X133011817Y-99124228D01*
X133011804Y-99124221D01*
X132884332Y-99071421D01*
X132884322Y-99071418D01*
X132748995Y-99044500D01*
X132748993Y-99044500D01*
X132611007Y-99044500D01*
X132611005Y-99044500D01*
X132475677Y-99071418D01*
X132475667Y-99071421D01*
X132348195Y-99124221D01*
X132348182Y-99124228D01*
X132233458Y-99200885D01*
X132233454Y-99200888D01*
X132135888Y-99298454D01*
X132135885Y-99298458D01*
X132059228Y-99413182D01*
X132059221Y-99413195D01*
X132006421Y-99540667D01*
X132006418Y-99540677D01*
X131979500Y-99676004D01*
X131979500Y-99676007D01*
X131979500Y-100913993D01*
X131979500Y-100913995D01*
X131979499Y-100913995D01*
X117353140Y-100913995D01*
X117069216Y-100777264D01*
X116745818Y-100664103D01*
X116745816Y-100664102D01*
X116488024Y-100605262D01*
X116411783Y-100587861D01*
X116411780Y-100587860D01*
X116411768Y-100587858D01*
X116071318Y-100549500D01*
X116071312Y-100549500D01*
X115728688Y-100549500D01*
X115728681Y-100549500D01*
X115388231Y-100587858D01*
X115388217Y-100587861D01*
X115054183Y-100664102D01*
X115054181Y-100664103D01*
X114730783Y-100777264D01*
X114422092Y-100925922D01*
X114131983Y-101108210D01*
X113864107Y-101321833D01*
X113621833Y-101564107D01*
X113408210Y-101831983D01*
X113225922Y-102122092D01*
X113077264Y-102430783D01*
X112964103Y-102754181D01*
X112964102Y-102754183D01*
X112887861Y-103088217D01*
X112887858Y-103088231D01*
X112849500Y-103428681D01*
X112400500Y-103428681D01*
X112400500Y-99163982D01*
X130104500Y-99163982D01*
X130104500Y-99276018D01*
X130133497Y-99384237D01*
X130189515Y-99481263D01*
X130268737Y-99560485D01*
X130365763Y-99616503D01*
X130473982Y-99645500D01*
X130473984Y-99645500D01*
X130586016Y-99645500D01*
X130586018Y-99645500D01*
X130694237Y-99616503D01*
X130791263Y-99560485D01*
X130870485Y-99481263D01*
X130926503Y-99384237D01*
X130955500Y-99276018D01*
X130955500Y-99163982D01*
X130926503Y-99055763D01*
X130870485Y-98958737D01*
X130791263Y-98879515D01*
X130694237Y-98823497D01*
X130586018Y-98794500D01*
X130473982Y-98794500D01*
X130365763Y-98823497D01*
X130365760Y-98823498D01*
X130268740Y-98879513D01*
X130268734Y-98879517D01*
X130189517Y-98958734D01*
X130189513Y-98958740D01*
X130133498Y-99055760D01*
X130133497Y-99055763D01*
X130104500Y-99163982D01*
X112400500Y-99163982D01*
X112400500Y-97943982D01*
X129874500Y-97943982D01*
X129874500Y-98056018D01*
X129903497Y-98164237D01*
X129959515Y-98261263D01*
X130038737Y-98340485D01*
X130135763Y-98396503D01*
X130243982Y-98425500D01*
X130243984Y-98425500D01*
X130356016Y-98425500D01*
X130356018Y-98425500D01*
X130464237Y-98396503D01*
X130561263Y-98340485D01*
X130640485Y-98261263D01*
X130696503Y-98164237D01*
X130725500Y-98056018D01*
X130725500Y-98028557D01*
X130745185Y-97961518D01*
X130797989Y-97915763D01*
X130867147Y-97905819D01*
X130881573Y-97908777D01*
X130943982Y-97925500D01*
X130943985Y-97925500D01*
X131056016Y-97925500D01*
X131056018Y-97925500D01*
X131164237Y-97896503D01*
X131261263Y-97840485D01*
X131340485Y-97761263D01*
X131396503Y-97664237D01*
X131425500Y-97556018D01*
X131425500Y-97443982D01*
X131396503Y-97335763D01*
X131340485Y-97238737D01*
X131261263Y-97159515D01*
X131164237Y-97103497D01*
X131056018Y-97074500D01*
X130943982Y-97074500D01*
X130835763Y-97103497D01*
X130835760Y-97103498D01*
X130738740Y-97159513D01*
X130738734Y-97159517D01*
X130659517Y-97238734D01*
X130659513Y-97238740D01*
X130603498Y-97335760D01*
X130603497Y-97335763D01*
X130574500Y-97443982D01*
X130574500Y-97471442D01*
X130554815Y-97538481D01*
X130502011Y-97584236D01*
X130432853Y-97594180D01*
X130418407Y-97591217D01*
X130392353Y-97584236D01*
X130356018Y-97574500D01*
X130243982Y-97574500D01*
X130135763Y-97603497D01*
X130135760Y-97603498D01*
X130038740Y-97659513D01*
X130038734Y-97659517D01*
X129959517Y-97738734D01*
X129959513Y-97738740D01*
X129903498Y-97835760D01*
X129903497Y-97835763D01*
X129874500Y-97943982D01*
X112400500Y-97943982D01*
X112400500Y-96043982D01*
X132974500Y-96043982D01*
X132974500Y-96156018D01*
X133003497Y-96264237D01*
X133059515Y-96361263D01*
X133138737Y-96440485D01*
X133235763Y-96496503D01*
X133343982Y-96525500D01*
X133343984Y-96525500D01*
X133456016Y-96525500D01*
X133456018Y-96525500D01*
X133564237Y-96496503D01*
X133661263Y-96440485D01*
X133740485Y-96361263D01*
X133796503Y-96264237D01*
X133825500Y-96156018D01*
X133825500Y-96043982D01*
X133796503Y-95935763D01*
X133740485Y-95838737D01*
X133661263Y-95759515D01*
X133564237Y-95703497D01*
X133456018Y-95674500D01*
X133343982Y-95674500D01*
X133235763Y-95703497D01*
X133235760Y-95703498D01*
X133138740Y-95759513D01*
X133138734Y-95759517D01*
X133059517Y-95838734D01*
X133059513Y-95838740D01*
X133003498Y-95935760D01*
X133003497Y-95935763D01*
X132974500Y-96043982D01*
X112400500Y-96043982D01*
X112400500Y-95643982D01*
X140374500Y-95643982D01*
X140374500Y-95756018D01*
X140403497Y-95864237D01*
X140459515Y-95961263D01*
X140538737Y-96040485D01*
X140635763Y-96096503D01*
X140743982Y-96125500D01*
X140743984Y-96125500D01*
X140856016Y-96125500D01*
X140856018Y-96125500D01*
X140964237Y-96096503D01*
X141061263Y-96040485D01*
X141140485Y-95961263D01*
X141196503Y-95864237D01*
X141225500Y-95756018D01*
X141225500Y-95643982D01*
X141196503Y-95535763D01*
X141140485Y-95438737D01*
X141061263Y-95359515D01*
X140964237Y-95303497D01*
X140856018Y-95274500D01*
X140743982Y-95274500D01*
X140635763Y-95303497D01*
X140635760Y-95303498D01*
X140538740Y-95359513D01*
X140538734Y-95359517D01*
X140459517Y-95438734D01*
X140459513Y-95438740D01*
X140403498Y-95535760D01*
X140403497Y-95535763D01*
X140374500Y-95643982D01*
X112400500Y-95643982D01*
X112400500Y-94770247D01*
X156549500Y-94770247D01*
X156549500Y-96509752D01*
X156561131Y-96568229D01*
X156561132Y-96568230D01*
X156605447Y-96634552D01*
X156671769Y-96678867D01*
X156671770Y-96678868D01*
X156730247Y-96690499D01*
X156730250Y-96690500D01*
X156730252Y-96690500D01*
X158469750Y-96690500D01*
X158469751Y-96690499D01*
X158484568Y-96687552D01*
X158528229Y-96678868D01*
X158528229Y-96678867D01*
X158528231Y-96678867D01*
X158594552Y-96634552D01*
X158638867Y-96568231D01*
X158638867Y-96568229D01*
X158638868Y-96568229D01*
X158650499Y-96509752D01*
X158650500Y-96509750D01*
X158650500Y-94770249D01*
X158650499Y-94770247D01*
X158638868Y-94711770D01*
X158638867Y-94711769D01*
X158594552Y-94645447D01*
X158528230Y-94601132D01*
X158528229Y-94601131D01*
X158469752Y-94589500D01*
X158469748Y-94589500D01*
X156730252Y-94589500D01*
X156730247Y-94589500D01*
X156671770Y-94601131D01*
X156671769Y-94601132D01*
X156605447Y-94645447D01*
X156561132Y-94711769D01*
X156561131Y-94711770D01*
X156549500Y-94770247D01*
X112400500Y-94770247D01*
X112400500Y-94243982D01*
X125374500Y-94243982D01*
X125374500Y-94356018D01*
X125403497Y-94464237D01*
X125459515Y-94561263D01*
X125538737Y-94640485D01*
X125635763Y-94696503D01*
X125743982Y-94725500D01*
X125743984Y-94725500D01*
X125856016Y-94725500D01*
X125856018Y-94725500D01*
X125964237Y-94696503D01*
X126061263Y-94640485D01*
X126140485Y-94561263D01*
X126196503Y-94464237D01*
X126225500Y-94356018D01*
X126225500Y-94243982D01*
X126196503Y-94135763D01*
X126140485Y-94038737D01*
X126061263Y-93959515D01*
X125964237Y-93903497D01*
X125856018Y-93874500D01*
X125743982Y-93874500D01*
X125635763Y-93903497D01*
X125635760Y-93903498D01*
X125538740Y-93959513D01*
X125538734Y-93959517D01*
X125459517Y-94038734D01*
X125459513Y-94038740D01*
X125403498Y-94135760D01*
X125403497Y-94135763D01*
X125374500Y-94243982D01*
X112400500Y-94243982D01*
X112400500Y-92643982D01*
X129874500Y-92643982D01*
X129874500Y-92756018D01*
X129903497Y-92864237D01*
X129959515Y-92961263D01*
X130038737Y-93040485D01*
X130135763Y-93096503D01*
X130243982Y-93125500D01*
X130243984Y-93125500D01*
X130356016Y-93125500D01*
X130356018Y-93125500D01*
X130464237Y-93096503D01*
X130561263Y-93040485D01*
X130605218Y-92996530D01*
X156549500Y-92996530D01*
X156549500Y-93203469D01*
X156589868Y-93406412D01*
X156589870Y-93406420D01*
X156669058Y-93597596D01*
X156784024Y-93769657D01*
X156930342Y-93915975D01*
X156930345Y-93915977D01*
X157102402Y-94030941D01*
X157293580Y-94110130D01*
X157422432Y-94135760D01*
X157496530Y-94150499D01*
X157496534Y-94150500D01*
X157496535Y-94150500D01*
X157703466Y-94150500D01*
X157703467Y-94150499D01*
X157906420Y-94110130D01*
X158097598Y-94030941D01*
X158269655Y-93915977D01*
X158415977Y-93769655D01*
X158530941Y-93597598D01*
X158610130Y-93406420D01*
X158650500Y-93203465D01*
X158650500Y-92996535D01*
X158610130Y-92793580D01*
X158530941Y-92602402D01*
X158415977Y-92430345D01*
X158415975Y-92430342D01*
X158269657Y-92284024D01*
X158183626Y-92226541D01*
X158097598Y-92169059D01*
X158085954Y-92164236D01*
X157906420Y-92089870D01*
X157906412Y-92089868D01*
X157703469Y-92049500D01*
X157703465Y-92049500D01*
X157496535Y-92049500D01*
X157496530Y-92049500D01*
X157293587Y-92089868D01*
X157293579Y-92089870D01*
X157102403Y-92169058D01*
X156930342Y-92284024D01*
X156784024Y-92430342D01*
X156669058Y-92602403D01*
X156589870Y-92793579D01*
X156589868Y-92793587D01*
X156549500Y-92996530D01*
X130605218Y-92996530D01*
X130640485Y-92961263D01*
X130696503Y-92864237D01*
X130725500Y-92756018D01*
X130725500Y-92643982D01*
X130696503Y-92535763D01*
X130640485Y-92438737D01*
X130561263Y-92359515D01*
X130464237Y-92303497D01*
X130356018Y-92274500D01*
X130243982Y-92274500D01*
X130135763Y-92303497D01*
X130135760Y-92303498D01*
X130038740Y-92359513D01*
X130038734Y-92359517D01*
X129959517Y-92438734D01*
X129959513Y-92438740D01*
X129903498Y-92535760D01*
X129903497Y-92535763D01*
X129874500Y-92643982D01*
X112400500Y-92643982D01*
X112400500Y-91943982D01*
X137974500Y-91943982D01*
X137974500Y-92056018D01*
X138003497Y-92164237D01*
X138059515Y-92261263D01*
X138138737Y-92340485D01*
X138235763Y-92396503D01*
X138343982Y-92425500D01*
X138343984Y-92425500D01*
X138456016Y-92425500D01*
X138456018Y-92425500D01*
X138564237Y-92396503D01*
X138655206Y-92343982D01*
X144249500Y-92343982D01*
X144249500Y-92456018D01*
X144278497Y-92564237D01*
X144334515Y-92661263D01*
X144413737Y-92740485D01*
X144510763Y-92796503D01*
X144618982Y-92825500D01*
X144618984Y-92825500D01*
X144731016Y-92825500D01*
X144731018Y-92825500D01*
X144839237Y-92796503D01*
X144936263Y-92740485D01*
X145015485Y-92661263D01*
X145071503Y-92564237D01*
X145100500Y-92456018D01*
X145100500Y-92343982D01*
X145071503Y-92235763D01*
X145015485Y-92138737D01*
X144936263Y-92059515D01*
X144839237Y-92003497D01*
X144731018Y-91974500D01*
X144618982Y-91974500D01*
X144510763Y-92003497D01*
X144510760Y-92003498D01*
X144413740Y-92059513D01*
X144413734Y-92059517D01*
X144334517Y-92138734D01*
X144334513Y-92138740D01*
X144278498Y-92235760D01*
X144278497Y-92235763D01*
X144249500Y-92343982D01*
X138655206Y-92343982D01*
X138661263Y-92340485D01*
X138740485Y-92261263D01*
X138796503Y-92164237D01*
X138825500Y-92056018D01*
X138825500Y-91943982D01*
X138796503Y-91835763D01*
X138740485Y-91738737D01*
X138661263Y-91659515D01*
X138582839Y-91614237D01*
X138564239Y-91603498D01*
X138564238Y-91603497D01*
X138564237Y-91603497D01*
X138456018Y-91574500D01*
X138343982Y-91574500D01*
X138235763Y-91603497D01*
X138235760Y-91603498D01*
X138138740Y-91659513D01*
X138138734Y-91659517D01*
X138059517Y-91738734D01*
X138059513Y-91738740D01*
X138003498Y-91835760D01*
X138003497Y-91835763D01*
X137974500Y-91943982D01*
X112400500Y-91943982D01*
X112400500Y-91393982D01*
X139354500Y-91393982D01*
X139354500Y-91506018D01*
X139383497Y-91614237D01*
X139439515Y-91711263D01*
X139518737Y-91790485D01*
X139615763Y-91846503D01*
X139723982Y-91875500D01*
X139723984Y-91875500D01*
X139836016Y-91875500D01*
X139836018Y-91875500D01*
X139944237Y-91846503D01*
X140041263Y-91790485D01*
X140120485Y-91711263D01*
X140176503Y-91614237D01*
X140205500Y-91506018D01*
X140205500Y-91393982D01*
X140176503Y-91285763D01*
X140120485Y-91188737D01*
X140041263Y-91109515D01*
X139944237Y-91053497D01*
X139836018Y-91024500D01*
X139723982Y-91024500D01*
X139615763Y-91053497D01*
X139615760Y-91053498D01*
X139518740Y-91109513D01*
X139518734Y-91109517D01*
X139439517Y-91188734D01*
X139439513Y-91188740D01*
X139383498Y-91285760D01*
X139383497Y-91285763D01*
X139354500Y-91393982D01*
X112400500Y-91393982D01*
X112400500Y-88883982D01*
X127104500Y-88883982D01*
X127104500Y-88996018D01*
X127133497Y-89104237D01*
X127189515Y-89201263D01*
X127268737Y-89280485D01*
X127365763Y-89336503D01*
X127473982Y-89365500D01*
X127473984Y-89365500D01*
X127586016Y-89365500D01*
X127586018Y-89365500D01*
X127694237Y-89336503D01*
X127791263Y-89280485D01*
X127870485Y-89201263D01*
X127926503Y-89104237D01*
X127955500Y-88996018D01*
X127955500Y-88883982D01*
X127926503Y-88775763D01*
X127870485Y-88678737D01*
X127791263Y-88599515D01*
X127694237Y-88543497D01*
X127586018Y-88514500D01*
X127473982Y-88514500D01*
X127365763Y-88543497D01*
X127365760Y-88543498D01*
X127268740Y-88599513D01*
X127268734Y-88599517D01*
X127189517Y-88678734D01*
X127189513Y-88678740D01*
X127133498Y-88775760D01*
X127133497Y-88775763D01*
X127104500Y-88883982D01*
X112400500Y-88883982D01*
X112400500Y-87643982D01*
X137924500Y-87643982D01*
X137924500Y-87756018D01*
X137953497Y-87864237D01*
X138009515Y-87961263D01*
X138088737Y-88040485D01*
X138185763Y-88096503D01*
X138293982Y-88125500D01*
X138293984Y-88125500D01*
X138406016Y-88125500D01*
X138406018Y-88125500D01*
X138514237Y-88096503D01*
X138587886Y-88053982D01*
X142284500Y-88053982D01*
X142284500Y-88166018D01*
X142313497Y-88274237D01*
X142369515Y-88371263D01*
X142448737Y-88450485D01*
X142545763Y-88506503D01*
X142653982Y-88535500D01*
X142653984Y-88535500D01*
X142766016Y-88535500D01*
X142766018Y-88535500D01*
X142874237Y-88506503D01*
X142971263Y-88450485D01*
X143050485Y-88371263D01*
X143106503Y-88274237D01*
X143135500Y-88166018D01*
X143135500Y-88053982D01*
X143106503Y-87945763D01*
X143050485Y-87848737D01*
X142971263Y-87769515D01*
X142874237Y-87713497D01*
X142766018Y-87684500D01*
X142653982Y-87684500D01*
X142545763Y-87713497D01*
X142545760Y-87713498D01*
X142448740Y-87769513D01*
X142448734Y-87769517D01*
X142369517Y-87848734D01*
X142369513Y-87848740D01*
X142313498Y-87945760D01*
X142313497Y-87945763D01*
X142284500Y-88053982D01*
X138587886Y-88053982D01*
X138611263Y-88040485D01*
X138690485Y-87961263D01*
X138746503Y-87864237D01*
X138775500Y-87756018D01*
X138775500Y-87643982D01*
X138746503Y-87535763D01*
X138690485Y-87438737D01*
X138611263Y-87359515D01*
X138514237Y-87303497D01*
X138406018Y-87274500D01*
X138293982Y-87274500D01*
X138185763Y-87303497D01*
X138185760Y-87303498D01*
X138088740Y-87359513D01*
X138088734Y-87359517D01*
X138009517Y-87438734D01*
X138009513Y-87438740D01*
X137953498Y-87535760D01*
X137953497Y-87535763D01*
X137924500Y-87643982D01*
X112400500Y-87643982D01*
X112400500Y-84253982D01*
X121464500Y-84253982D01*
X121464500Y-84366018D01*
X121493497Y-84474237D01*
X121549515Y-84571263D01*
X121628737Y-84650485D01*
X121725763Y-84706503D01*
X121833982Y-84735500D01*
X121833984Y-84735500D01*
X121946016Y-84735500D01*
X121946018Y-84735500D01*
X122054237Y-84706503D01*
X122151263Y-84650485D01*
X122230485Y-84571263D01*
X122286503Y-84474237D01*
X122315500Y-84366018D01*
X122315500Y-84363982D01*
X125434500Y-84363982D01*
X125434500Y-84476018D01*
X125463497Y-84584237D01*
X125519515Y-84681263D01*
X125598737Y-84760485D01*
X125695763Y-84816503D01*
X125803982Y-84845500D01*
X125803984Y-84845500D01*
X125916016Y-84845500D01*
X125916018Y-84845500D01*
X126024237Y-84816503D01*
X126097886Y-84773982D01*
X132274500Y-84773982D01*
X132274500Y-84886018D01*
X132303497Y-84994237D01*
X132359515Y-85091263D01*
X132438737Y-85170485D01*
X132535763Y-85226503D01*
X132643982Y-85255500D01*
X132643984Y-85255500D01*
X132756016Y-85255500D01*
X132756018Y-85255500D01*
X132864237Y-85226503D01*
X132961263Y-85170485D01*
X133040485Y-85091263D01*
X133096503Y-84994237D01*
X133125500Y-84886018D01*
X133125500Y-84773982D01*
X133096503Y-84665763D01*
X133040485Y-84568737D01*
X132961263Y-84489515D01*
X132864237Y-84433497D01*
X132756018Y-84404500D01*
X132643982Y-84404500D01*
X132535763Y-84433497D01*
X132535760Y-84433498D01*
X132438740Y-84489513D01*
X132438734Y-84489517D01*
X132359517Y-84568734D01*
X132359513Y-84568740D01*
X132303498Y-84665760D01*
X132303497Y-84665763D01*
X132274500Y-84773982D01*
X126097886Y-84773982D01*
X126121263Y-84760485D01*
X126200485Y-84681263D01*
X126256503Y-84584237D01*
X126285500Y-84476018D01*
X126285500Y-84363982D01*
X126256503Y-84255763D01*
X126200485Y-84158737D01*
X126121263Y-84079515D01*
X126024237Y-84023497D01*
X125916018Y-83994500D01*
X125803982Y-83994500D01*
X125695763Y-84023497D01*
X125695760Y-84023498D01*
X125598740Y-84079513D01*
X125598734Y-84079517D01*
X125519517Y-84158734D01*
X125519513Y-84158740D01*
X125463498Y-84255760D01*
X125463497Y-84255763D01*
X125434500Y-84363982D01*
X122315500Y-84363982D01*
X122315500Y-84253982D01*
X122286503Y-84145763D01*
X122230485Y-84048737D01*
X122151263Y-83969515D01*
X122054237Y-83913497D01*
X121946018Y-83884500D01*
X121833982Y-83884500D01*
X121725763Y-83913497D01*
X121725760Y-83913498D01*
X121628740Y-83969513D01*
X121628734Y-83969517D01*
X121549517Y-84048734D01*
X121549513Y-84048740D01*
X121493498Y-84145760D01*
X121493497Y-84145763D01*
X121464500Y-84253982D01*
X112400500Y-84253982D01*
X112400500Y-81563982D01*
X122724500Y-81563982D01*
X122724500Y-81676018D01*
X122727180Y-81686018D01*
X122753497Y-81784236D01*
X122753498Y-81784239D01*
X122759272Y-81794239D01*
X122809515Y-81881263D01*
X122888737Y-81960485D01*
X122985763Y-82016503D01*
X123093982Y-82045500D01*
X123093984Y-82045500D01*
X123206016Y-82045500D01*
X123206018Y-82045500D01*
X123314237Y-82016503D01*
X123411263Y-81960485D01*
X123490485Y-81881263D01*
X123546503Y-81784237D01*
X123575500Y-81676018D01*
X123575500Y-81573982D01*
X123974500Y-81573982D01*
X123974500Y-81686018D01*
X124003497Y-81794237D01*
X124059515Y-81891263D01*
X124138737Y-81970485D01*
X124235763Y-82026503D01*
X124343982Y-82055500D01*
X124343984Y-82055500D01*
X124456016Y-82055500D01*
X124456018Y-82055500D01*
X124564237Y-82026503D01*
X124661263Y-81970485D01*
X124740485Y-81891263D01*
X124796503Y-81794237D01*
X124825500Y-81686018D01*
X124825500Y-81573982D01*
X124796503Y-81465763D01*
X124740485Y-81368737D01*
X124661263Y-81289515D01*
X124564237Y-81233497D01*
X124456018Y-81204500D01*
X124343982Y-81204500D01*
X124235763Y-81233497D01*
X124235760Y-81233498D01*
X124138740Y-81289513D01*
X124138734Y-81289517D01*
X124059517Y-81368734D01*
X124059513Y-81368740D01*
X124003498Y-81465760D01*
X124003497Y-81465763D01*
X123974500Y-81573982D01*
X123575500Y-81573982D01*
X123575500Y-81563982D01*
X123546503Y-81455763D01*
X123490485Y-81358737D01*
X123411263Y-81279515D01*
X123314237Y-81223497D01*
X123206018Y-81194500D01*
X123093982Y-81194500D01*
X122985763Y-81223497D01*
X122985760Y-81223498D01*
X122888740Y-81279513D01*
X122888734Y-81279517D01*
X122809517Y-81358734D01*
X122809513Y-81358740D01*
X122753498Y-81455760D01*
X122753497Y-81455763D01*
X122724500Y-81563982D01*
X112400500Y-81563982D01*
X112400500Y-80693982D01*
X133924500Y-80693982D01*
X133924500Y-80806018D01*
X133953497Y-80914237D01*
X134009515Y-81011263D01*
X134088737Y-81090485D01*
X134185763Y-81146503D01*
X134293982Y-81175500D01*
X134293984Y-81175500D01*
X134406016Y-81175500D01*
X134406018Y-81175500D01*
X134514237Y-81146503D01*
X134611263Y-81090485D01*
X134690485Y-81011263D01*
X134746503Y-80914237D01*
X134775500Y-80806018D01*
X134775500Y-80693982D01*
X134746503Y-80585763D01*
X134690485Y-80488737D01*
X134611263Y-80409515D01*
X134546579Y-80372169D01*
X134514239Y-80353498D01*
X134514238Y-80353497D01*
X134514237Y-80353497D01*
X134406018Y-80324500D01*
X134293982Y-80324500D01*
X134185763Y-80353497D01*
X134185760Y-80353498D01*
X134088740Y-80409513D01*
X134088734Y-80409517D01*
X134009517Y-80488734D01*
X134009513Y-80488740D01*
X133953498Y-80585760D01*
X133953497Y-80585763D01*
X133924500Y-80693982D01*
X112400500Y-80693982D01*
X112400500Y-79743982D01*
X130074500Y-79743982D01*
X130074500Y-79856018D01*
X130103497Y-79964237D01*
X130159515Y-80061263D01*
X130238737Y-80140485D01*
X130335763Y-80196503D01*
X130443982Y-80225500D01*
X130443984Y-80225500D01*
X130556016Y-80225500D01*
X130556018Y-80225500D01*
X130664237Y-80196503D01*
X130761263Y-80140485D01*
X130840485Y-80061263D01*
X130896503Y-79964237D01*
X130925500Y-79856018D01*
X130925500Y-79743982D01*
X130896503Y-79635763D01*
X130840485Y-79538737D01*
X130761263Y-79459515D01*
X130685025Y-79415499D01*
X130664239Y-79403498D01*
X130664238Y-79403497D01*
X130664237Y-79403497D01*
X130556018Y-79374500D01*
X130443982Y-79374500D01*
X130335763Y-79403497D01*
X130335760Y-79403498D01*
X130238740Y-79459513D01*
X130238734Y-79459517D01*
X130159517Y-79538734D01*
X130159513Y-79538740D01*
X130103498Y-79635760D01*
X130103497Y-79635763D01*
X130074500Y-79743982D01*
X112400500Y-79743982D01*
X112400500Y-78953982D01*
X115834500Y-78953982D01*
X115834500Y-79066018D01*
X115863497Y-79174237D01*
X115919515Y-79271263D01*
X115998737Y-79350485D01*
X116095763Y-79406503D01*
X116203982Y-79435500D01*
X116203984Y-79435500D01*
X116316016Y-79435500D01*
X116316018Y-79435500D01*
X116424237Y-79406503D01*
X116521263Y-79350485D01*
X116600485Y-79271263D01*
X116656503Y-79174237D01*
X116685500Y-79066018D01*
X116685500Y-78953982D01*
X116656503Y-78845763D01*
X116600485Y-78748737D01*
X116521263Y-78669515D01*
X116443172Y-78624429D01*
X116424239Y-78613498D01*
X116424238Y-78613497D01*
X116424237Y-78613497D01*
X116316018Y-78584500D01*
X116203982Y-78584500D01*
X116095763Y-78613497D01*
X116095760Y-78613498D01*
X115998740Y-78669513D01*
X115998734Y-78669517D01*
X115919517Y-78748734D01*
X115919513Y-78748740D01*
X115863498Y-78845760D01*
X115863497Y-78845763D01*
X115834500Y-78953982D01*
X112400500Y-78953982D01*
X112400500Y-78413982D01*
X120364500Y-78413982D01*
X120364500Y-78526018D01*
X120392024Y-78628737D01*
X120393497Y-78634236D01*
X120393498Y-78634239D01*
X120397104Y-78640485D01*
X120449515Y-78731263D01*
X120528737Y-78810485D01*
X120625763Y-78866503D01*
X120733982Y-78895500D01*
X120733984Y-78895500D01*
X120846016Y-78895500D01*
X120846018Y-78895500D01*
X120954237Y-78866503D01*
X121051263Y-78810485D01*
X121130485Y-78731263D01*
X121186503Y-78634237D01*
X121215500Y-78526018D01*
X121215500Y-78413982D01*
X121186503Y-78305763D01*
X121130485Y-78208737D01*
X121051263Y-78129515D01*
X120954237Y-78073497D01*
X120846018Y-78044500D01*
X120733982Y-78044500D01*
X120625763Y-78073497D01*
X120625760Y-78073498D01*
X120528740Y-78129513D01*
X120528734Y-78129517D01*
X120449517Y-78208734D01*
X120449513Y-78208740D01*
X120393498Y-78305760D01*
X120393497Y-78305763D01*
X120364500Y-78413982D01*
X112400500Y-78413982D01*
X112400500Y-77653982D01*
X115834500Y-77653982D01*
X115834500Y-77766018D01*
X115863497Y-77874237D01*
X115919515Y-77971263D01*
X115998737Y-78050485D01*
X116095763Y-78106503D01*
X116203982Y-78135500D01*
X116203984Y-78135500D01*
X116316016Y-78135500D01*
X116316018Y-78135500D01*
X116424237Y-78106503D01*
X116521263Y-78050485D01*
X116600485Y-77971263D01*
X116656503Y-77874237D01*
X116685500Y-77766018D01*
X116685500Y-77653982D01*
X116656503Y-77545763D01*
X116600485Y-77448737D01*
X116521263Y-77369515D01*
X116424237Y-77313497D01*
X116316018Y-77284500D01*
X116203982Y-77284500D01*
X116095763Y-77313497D01*
X116095760Y-77313498D01*
X115998740Y-77369513D01*
X115998734Y-77369517D01*
X115919517Y-77448734D01*
X115919513Y-77448740D01*
X115863498Y-77545760D01*
X115863497Y-77545763D01*
X115834500Y-77653982D01*
X112400500Y-77653982D01*
X112400500Y-76373982D01*
X120434500Y-76373982D01*
X120434500Y-76486018D01*
X120463497Y-76594237D01*
X120519515Y-76691263D01*
X120598737Y-76770485D01*
X120695763Y-76826503D01*
X120803982Y-76855500D01*
X120803984Y-76855500D01*
X120916016Y-76855500D01*
X120916018Y-76855500D01*
X121024237Y-76826503D01*
X121121263Y-76770485D01*
X121200485Y-76691263D01*
X121256503Y-76594237D01*
X121285500Y-76486018D01*
X121285500Y-76373982D01*
X121256503Y-76265763D01*
X121243928Y-76243982D01*
X128374500Y-76243982D01*
X128374500Y-76356018D01*
X128403497Y-76464237D01*
X128459515Y-76561263D01*
X128538737Y-76640485D01*
X128635763Y-76696503D01*
X128743982Y-76725500D01*
X128743984Y-76725500D01*
X128856016Y-76725500D01*
X128856018Y-76725500D01*
X128964237Y-76696503D01*
X129061263Y-76640485D01*
X129140485Y-76561263D01*
X129196503Y-76464237D01*
X129225500Y-76356018D01*
X129225500Y-76243982D01*
X129196503Y-76135763D01*
X129140485Y-76038737D01*
X129061263Y-75959515D01*
X128964237Y-75903497D01*
X128856018Y-75874500D01*
X128743982Y-75874500D01*
X128635763Y-75903497D01*
X128635760Y-75903498D01*
X128538740Y-75959513D01*
X128538734Y-75959517D01*
X128459517Y-76038734D01*
X128459513Y-76038740D01*
X128403498Y-76135760D01*
X128403497Y-76135763D01*
X128374500Y-76243982D01*
X121243928Y-76243982D01*
X121200485Y-76168737D01*
X121121263Y-76089515D01*
X121024237Y-76033497D01*
X120916018Y-76004500D01*
X120803982Y-76004500D01*
X120695763Y-76033497D01*
X120695760Y-76033498D01*
X120598740Y-76089513D01*
X120598734Y-76089517D01*
X120519517Y-76168734D01*
X120519513Y-76168740D01*
X120463498Y-76265760D01*
X120463497Y-76265763D01*
X120434500Y-76373982D01*
X112400500Y-76373982D01*
X112400500Y-75133982D01*
X120434500Y-75133982D01*
X120434500Y-75246018D01*
X120439383Y-75264239D01*
X120463497Y-75354236D01*
X120463498Y-75354239D01*
X120469272Y-75364239D01*
X120519515Y-75451263D01*
X120598737Y-75530485D01*
X120695763Y-75586503D01*
X120803982Y-75615500D01*
X120803984Y-75615500D01*
X120916016Y-75615500D01*
X120916018Y-75615500D01*
X121024237Y-75586503D01*
X121121263Y-75530485D01*
X121200485Y-75451263D01*
X121256503Y-75354237D01*
X121285500Y-75246018D01*
X121285500Y-75133982D01*
X121261385Y-75043982D01*
X132874500Y-75043982D01*
X132874500Y-75156018D01*
X132903497Y-75264237D01*
X132959515Y-75361263D01*
X133038737Y-75440485D01*
X133135763Y-75496503D01*
X133243982Y-75525500D01*
X133243984Y-75525500D01*
X133356016Y-75525500D01*
X133356018Y-75525500D01*
X133464237Y-75496503D01*
X133561263Y-75440485D01*
X133640485Y-75361263D01*
X133696503Y-75264237D01*
X133725500Y-75156018D01*
X133725500Y-75143982D01*
X154844500Y-75143982D01*
X154844500Y-75256018D01*
X154873497Y-75364237D01*
X154929515Y-75461263D01*
X155008737Y-75540485D01*
X155105763Y-75596503D01*
X155213982Y-75625500D01*
X155213984Y-75625500D01*
X155326016Y-75625500D01*
X155326018Y-75625500D01*
X155434237Y-75596503D01*
X155531263Y-75540485D01*
X155610485Y-75461263D01*
X155666503Y-75364237D01*
X155695500Y-75256018D01*
X155695500Y-75143982D01*
X155666503Y-75035763D01*
X155610485Y-74938737D01*
X155531263Y-74859515D01*
X155434237Y-74803497D01*
X155326018Y-74774500D01*
X155213982Y-74774500D01*
X155105763Y-74803497D01*
X155105760Y-74803498D01*
X155008740Y-74859513D01*
X155008734Y-74859517D01*
X154929517Y-74938734D01*
X154929513Y-74938740D01*
X154873498Y-75035760D01*
X154873497Y-75035763D01*
X154844500Y-75143982D01*
X133725500Y-75143982D01*
X133725500Y-75043982D01*
X133696503Y-74935763D01*
X133640485Y-74838737D01*
X133561263Y-74759515D01*
X133464237Y-74703497D01*
X133356018Y-74674500D01*
X133243982Y-74674500D01*
X133135763Y-74703497D01*
X133135760Y-74703498D01*
X133038740Y-74759513D01*
X133038734Y-74759517D01*
X132959517Y-74838734D01*
X132959513Y-74838740D01*
X132903498Y-74935760D01*
X132903497Y-74935763D01*
X132874500Y-75043982D01*
X121261385Y-75043982D01*
X121256503Y-75025763D01*
X121200485Y-74928737D01*
X121121263Y-74849515D01*
X121039566Y-74802347D01*
X121024239Y-74793498D01*
X121024238Y-74793497D01*
X121024237Y-74793497D01*
X120916018Y-74764500D01*
X120803982Y-74764500D01*
X120695763Y-74793497D01*
X120695760Y-74793498D01*
X120598740Y-74849513D01*
X120598734Y-74849517D01*
X120519517Y-74928734D01*
X120519513Y-74928740D01*
X120463498Y-75025760D01*
X120463497Y-75025763D01*
X120434500Y-75133982D01*
X112400500Y-75133982D01*
X112400500Y-70293982D01*
X119674500Y-70293982D01*
X119674500Y-70406018D01*
X119703497Y-70514237D01*
X119759515Y-70611263D01*
X119838737Y-70690485D01*
X119935763Y-70746503D01*
X120043982Y-70775500D01*
X120043984Y-70775500D01*
X120156016Y-70775500D01*
X120156018Y-70775500D01*
X120264237Y-70746503D01*
X120361263Y-70690485D01*
X120440485Y-70611263D01*
X120496503Y-70514237D01*
X120525500Y-70406018D01*
X120525500Y-70323982D01*
X124354500Y-70323982D01*
X124354500Y-70436018D01*
X124383497Y-70544237D01*
X124439515Y-70641263D01*
X124518737Y-70720485D01*
X124615763Y-70776503D01*
X124723982Y-70805500D01*
X124723984Y-70805500D01*
X124836016Y-70805500D01*
X124836018Y-70805500D01*
X124944237Y-70776503D01*
X125041263Y-70720485D01*
X125120485Y-70641263D01*
X125176503Y-70544237D01*
X125205500Y-70436018D01*
X125205500Y-70323982D01*
X125197462Y-70293982D01*
X128324500Y-70293982D01*
X128324500Y-70406018D01*
X128353497Y-70514237D01*
X128409515Y-70611263D01*
X128488737Y-70690485D01*
X128585763Y-70746503D01*
X128693982Y-70775500D01*
X128693984Y-70775500D01*
X128806016Y-70775500D01*
X128806018Y-70775500D01*
X128914237Y-70746503D01*
X129011263Y-70690485D01*
X129090485Y-70611263D01*
X129146503Y-70514237D01*
X129175500Y-70406018D01*
X129175500Y-70293982D01*
X129146503Y-70185763D01*
X129090485Y-70088737D01*
X129011263Y-70009515D01*
X128927681Y-69961259D01*
X128914239Y-69953498D01*
X128914238Y-69953497D01*
X128914237Y-69953497D01*
X128806018Y-69924500D01*
X128693982Y-69924500D01*
X128585763Y-69953497D01*
X128585760Y-69953498D01*
X128488740Y-70009513D01*
X128488734Y-70009517D01*
X128409517Y-70088734D01*
X128409513Y-70088740D01*
X128353498Y-70185760D01*
X128353497Y-70185763D01*
X128324500Y-70293982D01*
X125197462Y-70293982D01*
X125176503Y-70215763D01*
X125120485Y-70118737D01*
X125041263Y-70039515D01*
X124944237Y-69983497D01*
X124836018Y-69954500D01*
X124723982Y-69954500D01*
X124615763Y-69983497D01*
X124615760Y-69983498D01*
X124518740Y-70039513D01*
X124518734Y-70039517D01*
X124439517Y-70118734D01*
X124439513Y-70118740D01*
X124383498Y-70215760D01*
X124383497Y-70215763D01*
X124354500Y-70323982D01*
X120525500Y-70323982D01*
X120525500Y-70299500D01*
X120545185Y-70232461D01*
X120597989Y-70186706D01*
X120649500Y-70175500D01*
X120706016Y-70175500D01*
X120706018Y-70175500D01*
X120814237Y-70146503D01*
X120911263Y-70090485D01*
X120990485Y-70011263D01*
X121046503Y-69914237D01*
X121075500Y-69806018D01*
X121075500Y-69693982D01*
X126474500Y-69693982D01*
X126474500Y-69806018D01*
X126503497Y-69914237D01*
X126559515Y-70011263D01*
X126638737Y-70090485D01*
X126735763Y-70146503D01*
X126843982Y-70175500D01*
X126843984Y-70175500D01*
X126956016Y-70175500D01*
X126956018Y-70175500D01*
X127064237Y-70146503D01*
X127161263Y-70090485D01*
X127240485Y-70011263D01*
X127296503Y-69914237D01*
X127325500Y-69806018D01*
X127325500Y-69693982D01*
X127312103Y-69643982D01*
X145074500Y-69643982D01*
X145074500Y-69756018D01*
X145103497Y-69864237D01*
X145159515Y-69961263D01*
X145238737Y-70040485D01*
X145335763Y-70096503D01*
X145443982Y-70125500D01*
X145443984Y-70125500D01*
X145556016Y-70125500D01*
X145556018Y-70125500D01*
X145664237Y-70096503D01*
X145761263Y-70040485D01*
X145840485Y-69961263D01*
X145896503Y-69864237D01*
X145925500Y-69756018D01*
X145925500Y-69643982D01*
X145896503Y-69535763D01*
X145840485Y-69438737D01*
X145761263Y-69359515D01*
X145664237Y-69303497D01*
X145556018Y-69274500D01*
X145443982Y-69274500D01*
X145335763Y-69303497D01*
X145335760Y-69303498D01*
X145238740Y-69359513D01*
X145238734Y-69359517D01*
X145159517Y-69438734D01*
X145159513Y-69438740D01*
X145103498Y-69535760D01*
X145103497Y-69535763D01*
X145074500Y-69643982D01*
X127312103Y-69643982D01*
X127296503Y-69585763D01*
X127240485Y-69488737D01*
X127161263Y-69409515D01*
X127074664Y-69359517D01*
X127064239Y-69353498D01*
X127064238Y-69353497D01*
X127064237Y-69353497D01*
X126956018Y-69324500D01*
X126843982Y-69324500D01*
X126735763Y-69353497D01*
X126735760Y-69353498D01*
X126638740Y-69409513D01*
X126638734Y-69409517D01*
X126559517Y-69488734D01*
X126559513Y-69488740D01*
X126503498Y-69585760D01*
X126503497Y-69585763D01*
X126474500Y-69693982D01*
X121075500Y-69693982D01*
X121046503Y-69585763D01*
X120990485Y-69488737D01*
X120911263Y-69409515D01*
X120824664Y-69359517D01*
X120814239Y-69353498D01*
X120814238Y-69353497D01*
X120814237Y-69353497D01*
X120706018Y-69324500D01*
X120593982Y-69324500D01*
X120485763Y-69353497D01*
X120485760Y-69353498D01*
X120388740Y-69409513D01*
X120388734Y-69409517D01*
X120309517Y-69488734D01*
X120309513Y-69488740D01*
X120253498Y-69585760D01*
X120253497Y-69585763D01*
X120224500Y-69693982D01*
X120224500Y-69800500D01*
X120204815Y-69867539D01*
X120152011Y-69913294D01*
X120100500Y-69924500D01*
X120043982Y-69924500D01*
X119935763Y-69953497D01*
X119935760Y-69953498D01*
X119838740Y-70009513D01*
X119838734Y-70009517D01*
X119759517Y-70088734D01*
X119759513Y-70088740D01*
X119703498Y-70185760D01*
X119703497Y-70185763D01*
X119674500Y-70293982D01*
X112400500Y-70293982D01*
X112400500Y-69043982D01*
X129384720Y-69043982D01*
X129384720Y-69156018D01*
X129413717Y-69264237D01*
X129469735Y-69361263D01*
X129548957Y-69440485D01*
X129645983Y-69496503D01*
X129754202Y-69525500D01*
X129754204Y-69525500D01*
X129866236Y-69525500D01*
X129866238Y-69525500D01*
X129974457Y-69496503D01*
X130071483Y-69440485D01*
X130150705Y-69361263D01*
X130150705Y-69361262D01*
X130156452Y-69355516D01*
X130158590Y-69357654D01*
X130203381Y-69324948D01*
X130273127Y-69320793D01*
X130334047Y-69355004D01*
X130336325Y-69357633D01*
X130339955Y-69361263D01*
X130419177Y-69440485D01*
X130516203Y-69496503D01*
X130624422Y-69525500D01*
X130624424Y-69525500D01*
X130736456Y-69525500D01*
X130736458Y-69525500D01*
X130844677Y-69496503D01*
X130941703Y-69440485D01*
X131020925Y-69361263D01*
X131020925Y-69361262D01*
X131026672Y-69355516D01*
X131028810Y-69357654D01*
X131073601Y-69324948D01*
X131143347Y-69320793D01*
X131204267Y-69355004D01*
X131206545Y-69357633D01*
X131210175Y-69361263D01*
X131289397Y-69440485D01*
X131386423Y-69496503D01*
X131494642Y-69525500D01*
X131494644Y-69525500D01*
X131606676Y-69525500D01*
X131606678Y-69525500D01*
X131714897Y-69496503D01*
X131811923Y-69440485D01*
X131891145Y-69361263D01*
X131891145Y-69361262D01*
X131896892Y-69355516D01*
X131899030Y-69357654D01*
X131943821Y-69324948D01*
X132013567Y-69320793D01*
X132074487Y-69355004D01*
X132076765Y-69357633D01*
X132080395Y-69361263D01*
X132159617Y-69440485D01*
X132256643Y-69496503D01*
X132364862Y-69525500D01*
X132364864Y-69525500D01*
X132476896Y-69525500D01*
X132476898Y-69525500D01*
X132585117Y-69496503D01*
X132682143Y-69440485D01*
X132761365Y-69361263D01*
X132761365Y-69361262D01*
X132767112Y-69355516D01*
X132769250Y-69357654D01*
X132814041Y-69324948D01*
X132883787Y-69320793D01*
X132944707Y-69355004D01*
X132946985Y-69357633D01*
X132950615Y-69361263D01*
X133029837Y-69440485D01*
X133126863Y-69496503D01*
X133235082Y-69525500D01*
X133235084Y-69525500D01*
X133347116Y-69525500D01*
X133347118Y-69525500D01*
X133455337Y-69496503D01*
X133552363Y-69440485D01*
X133631585Y-69361263D01*
X133631585Y-69361262D01*
X133637332Y-69355516D01*
X133639241Y-69357425D01*
X133684936Y-69324045D01*
X133754681Y-69319875D01*
X133814965Y-69353714D01*
X133815044Y-69353636D01*
X133815321Y-69353913D01*
X133815609Y-69354075D01*
X133816426Y-69355018D01*
X133820791Y-69359383D01*
X133900013Y-69438605D01*
X133997039Y-69494623D01*
X134105258Y-69523620D01*
X134105260Y-69523620D01*
X134217297Y-69523620D01*
X134217300Y-69523620D01*
X134325519Y-69494623D01*
X134422545Y-69438605D01*
X134501767Y-69359383D01*
X134557785Y-69262357D01*
X134581440Y-69174072D01*
X134617803Y-69114414D01*
X134680650Y-69083884D01*
X134748668Y-69091606D01*
X134753047Y-69093419D01*
X134753055Y-69093424D01*
X134861274Y-69122421D01*
X134861276Y-69122421D01*
X134973308Y-69122421D01*
X134973310Y-69122421D01*
X135081529Y-69093424D01*
X135178555Y-69037406D01*
X135257777Y-68958184D01*
X135313795Y-68861158D01*
X135342792Y-68752939D01*
X135342792Y-68640903D01*
X135342790Y-68640899D01*
X135342557Y-68639123D01*
X135342792Y-68637615D01*
X135342792Y-68632776D01*
X135343547Y-68632776D01*
X135353321Y-68570087D01*
X135399700Y-68517830D01*
X135466968Y-68498943D01*
X135481685Y-68499995D01*
X135483460Y-68500228D01*
X135483465Y-68500230D01*
X135483470Y-68500230D01*
X135595499Y-68500230D01*
X135595501Y-68500230D01*
X135703720Y-68471233D01*
X135800746Y-68415215D01*
X135879968Y-68335993D01*
X135935986Y-68238967D01*
X135964983Y-68130748D01*
X135964983Y-68018712D01*
X135964981Y-68018706D01*
X135964748Y-68016934D01*
X135964983Y-68015426D01*
X135964983Y-68010585D01*
X135965738Y-68010585D01*
X135975511Y-67947899D01*
X136021889Y-67895641D01*
X136089158Y-67876753D01*
X136103877Y-67877805D01*
X136105649Y-67878038D01*
X136105655Y-67878040D01*
X136105661Y-67878040D01*
X136217689Y-67878040D01*
X136217691Y-67878040D01*
X136325910Y-67849043D01*
X136422936Y-67793025D01*
X136502158Y-67713803D01*
X136558176Y-67616777D01*
X136587173Y-67508558D01*
X136587173Y-67396522D01*
X136587171Y-67396516D01*
X136586938Y-67394744D01*
X136587173Y-67393236D01*
X136587173Y-67388395D01*
X136587928Y-67388395D01*
X136597701Y-67325709D01*
X136644079Y-67273451D01*
X136711348Y-67254563D01*
X136726067Y-67255615D01*
X136727839Y-67255848D01*
X136727845Y-67255850D01*
X136727851Y-67255850D01*
X136839879Y-67255850D01*
X136839881Y-67255850D01*
X136948100Y-67226853D01*
X137045126Y-67170835D01*
X137124348Y-67091613D01*
X137180366Y-66994587D01*
X137209363Y-66886368D01*
X137209363Y-66774332D01*
X137209361Y-66774328D01*
X137209128Y-66772552D01*
X137209363Y-66771044D01*
X137209363Y-66766205D01*
X137210118Y-66766205D01*
X137219892Y-66703516D01*
X137266271Y-66651259D01*
X137333539Y-66632372D01*
X137348256Y-66633424D01*
X137350031Y-66633657D01*
X137350036Y-66633659D01*
X137350041Y-66633659D01*
X137462070Y-66633659D01*
X137462072Y-66633659D01*
X137570291Y-66604662D01*
X137667317Y-66548644D01*
X137746539Y-66469422D01*
X137802557Y-66372396D01*
X137831554Y-66264177D01*
X137831554Y-66152141D01*
X137809618Y-66070274D01*
X137811281Y-66000425D01*
X137850444Y-65942563D01*
X137914672Y-65915059D01*
X137929393Y-65914182D01*
X137938054Y-65914182D01*
X137938056Y-65914182D01*
X138046275Y-65885185D01*
X138143301Y-65829167D01*
X138222523Y-65749945D01*
X138278541Y-65652919D01*
X138307538Y-65544700D01*
X138307538Y-65432664D01*
X138278541Y-65324445D01*
X138222523Y-65227419D01*
X138143301Y-65148197D01*
X138138742Y-65143638D01*
X138105257Y-65082315D01*
X138110241Y-65012623D01*
X138152113Y-64956690D01*
X138158847Y-64952247D01*
X138161255Y-64950399D01*
X138161263Y-64950395D01*
X138240485Y-64871173D01*
X138296503Y-64774147D01*
X138301906Y-64753982D01*
X149544500Y-64753982D01*
X149544500Y-64866018D01*
X149573497Y-64974237D01*
X149629515Y-65071263D01*
X149708737Y-65150485D01*
X149805763Y-65206503D01*
X149913982Y-65235500D01*
X149913984Y-65235500D01*
X150026016Y-65235500D01*
X150026018Y-65235500D01*
X150134237Y-65206503D01*
X150231263Y-65150485D01*
X150310485Y-65071263D01*
X150366503Y-64974237D01*
X150395500Y-64866018D01*
X150395500Y-64753982D01*
X150366503Y-64645763D01*
X150310485Y-64548737D01*
X150231263Y-64469515D01*
X150166579Y-64432169D01*
X150134239Y-64413498D01*
X150134238Y-64413497D01*
X150134237Y-64413497D01*
X150026018Y-64384500D01*
X149913982Y-64384500D01*
X149805763Y-64413497D01*
X149805760Y-64413498D01*
X149708740Y-64469513D01*
X149708734Y-64469517D01*
X149629517Y-64548734D01*
X149629513Y-64548740D01*
X149573498Y-64645760D01*
X149573497Y-64645763D01*
X149544500Y-64753982D01*
X138301906Y-64753982D01*
X138325500Y-64665928D01*
X138325500Y-64553892D01*
X138296503Y-64445673D01*
X138240485Y-64348647D01*
X138161263Y-64269425D01*
X138161262Y-64269424D01*
X138159836Y-64268330D01*
X138158937Y-64267099D01*
X138155516Y-64263678D01*
X138156049Y-64263144D01*
X138118634Y-64211902D01*
X138114479Y-64142156D01*
X138148692Y-64081236D01*
X138159836Y-64071580D01*
X138161261Y-64070486D01*
X138161263Y-64070485D01*
X138240485Y-63991263D01*
X138296503Y-63894237D01*
X138325500Y-63786018D01*
X138325500Y-63673982D01*
X138296503Y-63565763D01*
X138240485Y-63468737D01*
X138161263Y-63389515D01*
X138064237Y-63333497D01*
X137956018Y-63304500D01*
X137843982Y-63304500D01*
X137735763Y-63333497D01*
X137735760Y-63333498D01*
X137638740Y-63389513D01*
X137638734Y-63389517D01*
X137559517Y-63468734D01*
X137559513Y-63468740D01*
X137503498Y-63565760D01*
X137503497Y-63565763D01*
X137474500Y-63673982D01*
X137474500Y-63786018D01*
X137496060Y-63866479D01*
X137503497Y-63894236D01*
X137503498Y-63894239D01*
X137507846Y-63901770D01*
X137559515Y-63991263D01*
X137559517Y-63991265D01*
X137638737Y-64070485D01*
X137640169Y-64071584D01*
X137641069Y-64072817D01*
X137644484Y-64076232D01*
X137643951Y-64076764D01*
X137681368Y-64128015D01*
X137685518Y-64197761D01*
X137651302Y-64258679D01*
X137640169Y-64268326D01*
X137638737Y-64269424D01*
X137559517Y-64348644D01*
X137559513Y-64348650D01*
X137503498Y-64445670D01*
X137503497Y-64445673D01*
X137474500Y-64553892D01*
X137474500Y-64665928D01*
X137503497Y-64774147D01*
X137559515Y-64871173D01*
X137559517Y-64871175D01*
X137643295Y-64954953D01*
X137676780Y-65016276D01*
X137671796Y-65085968D01*
X137629924Y-65141901D01*
X137623191Y-65146343D01*
X137620772Y-65148199D01*
X137541555Y-65227416D01*
X137541551Y-65227422D01*
X137485536Y-65324442D01*
X137485535Y-65324445D01*
X137456538Y-65432664D01*
X137456538Y-65544699D01*
X137478474Y-65626566D01*
X137476811Y-65696416D01*
X137437648Y-65754278D01*
X137373420Y-65781782D01*
X137358699Y-65782659D01*
X137350036Y-65782659D01*
X137241817Y-65811656D01*
X137241814Y-65811657D01*
X137144794Y-65867672D01*
X137144788Y-65867676D01*
X137065571Y-65946893D01*
X137065567Y-65946899D01*
X137009552Y-66043919D01*
X137009551Y-66043922D01*
X136980554Y-66152141D01*
X136980554Y-66264181D01*
X136980789Y-66265967D01*
X136980554Y-66267473D01*
X136980554Y-66272304D01*
X136979800Y-66272304D01*
X136970019Y-66335002D01*
X136923636Y-66387255D01*
X136856366Y-66406136D01*
X136841671Y-66405085D01*
X136839885Y-66404850D01*
X136839881Y-66404850D01*
X136727845Y-66404850D01*
X136619626Y-66433847D01*
X136619623Y-66433848D01*
X136522603Y-66489863D01*
X136522597Y-66489867D01*
X136443380Y-66569084D01*
X136443376Y-66569090D01*
X136387361Y-66666110D01*
X136387360Y-66666113D01*
X136358363Y-66774332D01*
X136358363Y-66886369D01*
X136358598Y-66888155D01*
X136358363Y-66889661D01*
X136358363Y-66894495D01*
X136357609Y-66894495D01*
X136347829Y-66957190D01*
X136301447Y-67009444D01*
X136234177Y-67028326D01*
X136219478Y-67027275D01*
X136217692Y-67027040D01*
X136217691Y-67027040D01*
X136105655Y-67027040D01*
X135997436Y-67056037D01*
X135997433Y-67056038D01*
X135900413Y-67112053D01*
X135900407Y-67112057D01*
X135821190Y-67191274D01*
X135821186Y-67191280D01*
X135765171Y-67288300D01*
X135765170Y-67288303D01*
X135736173Y-67396522D01*
X135736173Y-67508559D01*
X135736408Y-67510345D01*
X135736173Y-67511851D01*
X135736173Y-67516685D01*
X135735419Y-67516685D01*
X135725639Y-67579380D01*
X135679257Y-67631634D01*
X135611987Y-67650516D01*
X135597288Y-67649465D01*
X135595502Y-67649230D01*
X135595501Y-67649230D01*
X135483465Y-67649230D01*
X135375246Y-67678227D01*
X135375243Y-67678228D01*
X135278223Y-67734243D01*
X135278217Y-67734247D01*
X135199000Y-67813464D01*
X135198996Y-67813470D01*
X135142981Y-67910490D01*
X135142980Y-67910493D01*
X135113983Y-68018712D01*
X135113983Y-68130752D01*
X135114218Y-68132538D01*
X135113983Y-68134044D01*
X135113983Y-68138875D01*
X135113229Y-68138875D01*
X135103448Y-68201573D01*
X135057065Y-68253826D01*
X134989795Y-68272707D01*
X134975100Y-68271656D01*
X134973314Y-68271421D01*
X134973310Y-68271421D01*
X134861274Y-68271421D01*
X134753055Y-68300418D01*
X134753052Y-68300419D01*
X134656032Y-68356434D01*
X134656026Y-68356438D01*
X134576809Y-68435655D01*
X134576805Y-68435661D01*
X134520790Y-68532681D01*
X134520789Y-68532682D01*
X134497134Y-68620967D01*
X134460769Y-68680627D01*
X134397922Y-68711156D01*
X134329910Y-68703436D01*
X134325521Y-68701618D01*
X134325519Y-68701617D01*
X134217300Y-68672620D01*
X134217294Y-68672620D01*
X134105258Y-68672620D01*
X133997039Y-68701617D01*
X133997036Y-68701618D01*
X133900016Y-68757633D01*
X133900010Y-68757637D01*
X133815044Y-68842604D01*
X133813140Y-68840700D01*
X133767386Y-68874093D01*
X133697639Y-68878231D01*
X133637421Y-68844394D01*
X133637332Y-68844484D01*
X133637014Y-68844166D01*
X133636727Y-68844005D01*
X133635914Y-68843066D01*
X133552365Y-68759517D01*
X133552363Y-68759515D01*
X133455337Y-68703497D01*
X133347118Y-68674500D01*
X133235082Y-68674500D01*
X133126863Y-68703497D01*
X133126860Y-68703498D01*
X133029840Y-68759513D01*
X133029834Y-68759517D01*
X132944868Y-68844484D01*
X132942733Y-68842349D01*
X132897903Y-68875064D01*
X132828156Y-68879198D01*
X132767246Y-68844967D01*
X132764980Y-68842352D01*
X132682145Y-68759517D01*
X132682143Y-68759515D01*
X132585117Y-68703497D01*
X132476898Y-68674500D01*
X132364862Y-68674500D01*
X132256643Y-68703497D01*
X132256640Y-68703498D01*
X132159620Y-68759513D01*
X132159614Y-68759517D01*
X132074648Y-68844484D01*
X132072513Y-68842349D01*
X132027683Y-68875064D01*
X131957936Y-68879198D01*
X131897026Y-68844967D01*
X131894760Y-68842352D01*
X131811925Y-68759517D01*
X131811923Y-68759515D01*
X131714897Y-68703497D01*
X131606678Y-68674500D01*
X131494642Y-68674500D01*
X131386423Y-68703497D01*
X131386420Y-68703498D01*
X131289400Y-68759513D01*
X131289394Y-68759517D01*
X131204428Y-68844484D01*
X131202293Y-68842349D01*
X131157463Y-68875064D01*
X131087716Y-68879198D01*
X131026806Y-68844967D01*
X131024540Y-68842352D01*
X130941705Y-68759517D01*
X130941703Y-68759515D01*
X130844677Y-68703497D01*
X130736458Y-68674500D01*
X130624422Y-68674500D01*
X130516203Y-68703497D01*
X130516200Y-68703498D01*
X130419180Y-68759513D01*
X130419174Y-68759517D01*
X130334208Y-68844484D01*
X130332073Y-68842349D01*
X130287243Y-68875064D01*
X130217496Y-68879198D01*
X130156586Y-68844967D01*
X130154320Y-68842352D01*
X130071485Y-68759517D01*
X130071483Y-68759515D01*
X129974457Y-68703497D01*
X129866238Y-68674500D01*
X129754202Y-68674500D01*
X129645983Y-68703497D01*
X129645980Y-68703498D01*
X129548960Y-68759513D01*
X129548954Y-68759517D01*
X129469737Y-68838734D01*
X129469733Y-68838740D01*
X129413718Y-68935760D01*
X129413717Y-68935763D01*
X129384720Y-69043982D01*
X112400500Y-69043982D01*
X112400500Y-67043982D01*
X129463657Y-67043982D01*
X129463657Y-67156018D01*
X129490407Y-67255849D01*
X129492654Y-67264236D01*
X129492655Y-67264239D01*
X129511326Y-67296579D01*
X129548672Y-67361263D01*
X129627894Y-67440485D01*
X129724920Y-67496503D01*
X129833139Y-67525500D01*
X129833141Y-67525500D01*
X129945173Y-67525500D01*
X129945175Y-67525500D01*
X130053394Y-67496503D01*
X130150420Y-67440485D01*
X130229642Y-67361263D01*
X130256349Y-67315005D01*
X130306913Y-67266790D01*
X130375520Y-67253566D01*
X130440385Y-67279533D01*
X130471121Y-67315004D01*
X130497829Y-67361263D01*
X130577051Y-67440485D01*
X130674077Y-67496503D01*
X130782296Y-67525500D01*
X130782298Y-67525500D01*
X130894330Y-67525500D01*
X130894332Y-67525500D01*
X131002551Y-67496503D01*
X131099577Y-67440485D01*
X131178799Y-67361263D01*
X131205506Y-67315005D01*
X131256070Y-67266790D01*
X131324677Y-67253566D01*
X131389542Y-67279533D01*
X131420278Y-67315004D01*
X131446986Y-67361263D01*
X131526208Y-67440485D01*
X131623234Y-67496503D01*
X131731453Y-67525500D01*
X131731455Y-67525500D01*
X131843487Y-67525500D01*
X131843489Y-67525500D01*
X131951708Y-67496503D01*
X132048734Y-67440485D01*
X132127956Y-67361263D01*
X132154663Y-67315005D01*
X132205227Y-67266790D01*
X132273834Y-67253566D01*
X132338699Y-67279533D01*
X132369435Y-67315004D01*
X132396143Y-67361263D01*
X132475365Y-67440485D01*
X132572391Y-67496503D01*
X132680610Y-67525500D01*
X132680612Y-67525500D01*
X132792644Y-67525500D01*
X132792646Y-67525500D01*
X132900865Y-67496503D01*
X132997891Y-67440485D01*
X133077113Y-67361263D01*
X133103820Y-67315004D01*
X133154387Y-67266789D01*
X133222994Y-67253566D01*
X133287859Y-67279534D01*
X133318593Y-67315004D01*
X133345301Y-67361263D01*
X133424523Y-67440485D01*
X133521549Y-67496503D01*
X133629768Y-67525500D01*
X133629770Y-67525500D01*
X133741802Y-67525500D01*
X133741804Y-67525500D01*
X133850023Y-67496503D01*
X133947049Y-67440485D01*
X134026271Y-67361263D01*
X134082289Y-67264237D01*
X134111286Y-67156018D01*
X134111286Y-67043982D01*
X134082289Y-66935763D01*
X134071436Y-66916965D01*
X134054963Y-66849065D01*
X134077816Y-66783038D01*
X134132737Y-66739847D01*
X134202290Y-66733206D01*
X134240821Y-66747577D01*
X134259620Y-66758431D01*
X134367839Y-66787428D01*
X134367841Y-66787428D01*
X134479873Y-66787428D01*
X134479875Y-66787428D01*
X134588094Y-66758431D01*
X134685120Y-66702413D01*
X134764342Y-66623191D01*
X134820360Y-66526165D01*
X134849357Y-66417946D01*
X134849357Y-66305910D01*
X134820360Y-66197691D01*
X134809507Y-66178894D01*
X134793035Y-66110995D01*
X134815887Y-66044968D01*
X134870808Y-66001778D01*
X134940362Y-65995136D01*
X134978894Y-66009507D01*
X134997691Y-66020360D01*
X135105910Y-66049357D01*
X135105912Y-66049357D01*
X135217944Y-66049357D01*
X135217946Y-66049357D01*
X135326165Y-66020360D01*
X135423191Y-65964342D01*
X135502413Y-65885120D01*
X135558431Y-65788094D01*
X135587428Y-65679875D01*
X135587428Y-65567839D01*
X135558431Y-65459620D01*
X135547578Y-65440822D01*
X135531105Y-65372925D01*
X135553956Y-65306898D01*
X135608877Y-65263706D01*
X135678430Y-65257063D01*
X135716965Y-65271436D01*
X135735763Y-65282289D01*
X135843982Y-65311286D01*
X135843984Y-65311286D01*
X135956016Y-65311286D01*
X135956018Y-65311286D01*
X136064237Y-65282289D01*
X136161263Y-65226271D01*
X136240485Y-65147049D01*
X136296503Y-65050023D01*
X136325500Y-64941804D01*
X136325500Y-64829768D01*
X136296503Y-64721549D01*
X136240485Y-64624523D01*
X136161263Y-64545301D01*
X136096579Y-64507955D01*
X136064239Y-64489284D01*
X136064238Y-64489283D01*
X136064237Y-64489283D01*
X135956018Y-64460286D01*
X135843982Y-64460286D01*
X135735763Y-64489283D01*
X135735760Y-64489284D01*
X135638740Y-64545299D01*
X135638734Y-64545303D01*
X135559517Y-64624520D01*
X135559513Y-64624526D01*
X135503498Y-64721546D01*
X135503497Y-64721549D01*
X135474500Y-64829768D01*
X135474500Y-64941804D01*
X135499582Y-65035410D01*
X135503497Y-65050022D01*
X135503498Y-65050025D01*
X135514349Y-65068819D01*
X135530822Y-65136719D01*
X135507970Y-65202746D01*
X135453049Y-65245936D01*
X135383495Y-65252578D01*
X135344963Y-65238207D01*
X135326165Y-65227354D01*
X135248347Y-65206503D01*
X135217946Y-65198357D01*
X135105910Y-65198357D01*
X134997691Y-65227354D01*
X134997688Y-65227355D01*
X134900668Y-65283370D01*
X134900662Y-65283374D01*
X134821445Y-65362591D01*
X134821441Y-65362597D01*
X134765426Y-65459617D01*
X134765425Y-65459620D01*
X134736428Y-65567839D01*
X134736428Y-65679875D01*
X134757424Y-65758231D01*
X134765425Y-65788093D01*
X134765425Y-65788094D01*
X134776277Y-65806890D01*
X134792749Y-65874790D01*
X134769896Y-65940817D01*
X134714974Y-65984007D01*
X134645421Y-65990648D01*
X134606890Y-65976277D01*
X134588094Y-65965425D01*
X134584041Y-65964339D01*
X134479875Y-65936428D01*
X134367839Y-65936428D01*
X134259620Y-65965425D01*
X134259617Y-65965426D01*
X134162597Y-66021441D01*
X134162591Y-66021445D01*
X134083374Y-66100662D01*
X134083370Y-66100668D01*
X134027355Y-66197688D01*
X134027354Y-66197691D01*
X133998357Y-66305910D01*
X133998357Y-66417946D01*
X134012151Y-66469424D01*
X134027354Y-66526164D01*
X134027354Y-66526165D01*
X134038207Y-66544963D01*
X134054678Y-66612864D01*
X134031826Y-66678890D01*
X133976904Y-66722080D01*
X133907350Y-66728721D01*
X133868819Y-66714349D01*
X133850025Y-66703498D01*
X133850024Y-66703497D01*
X133850023Y-66703497D01*
X133741804Y-66674500D01*
X133629768Y-66674500D01*
X133521549Y-66703497D01*
X133521546Y-66703498D01*
X133424526Y-66759513D01*
X133424520Y-66759517D01*
X133345303Y-66838734D01*
X133345301Y-66838737D01*
X133318594Y-66884995D01*
X133268026Y-66933210D01*
X133199419Y-66946432D01*
X133134555Y-66920464D01*
X133103820Y-66884995D01*
X133103819Y-66884993D01*
X133077113Y-66838737D01*
X132997891Y-66759515D01*
X132900865Y-66703497D01*
X132792646Y-66674500D01*
X132680610Y-66674500D01*
X132572391Y-66703497D01*
X132572388Y-66703498D01*
X132475368Y-66759513D01*
X132475362Y-66759517D01*
X132396145Y-66838734D01*
X132396143Y-66838737D01*
X132369436Y-66884995D01*
X132318868Y-66933210D01*
X132250261Y-66946432D01*
X132185397Y-66920464D01*
X132154663Y-66884995D01*
X132127956Y-66838737D01*
X132048734Y-66759515D01*
X131951708Y-66703497D01*
X131843489Y-66674500D01*
X131731453Y-66674500D01*
X131623234Y-66703497D01*
X131623231Y-66703498D01*
X131526211Y-66759513D01*
X131526205Y-66759517D01*
X131446988Y-66838734D01*
X131446986Y-66838737D01*
X131420279Y-66884995D01*
X131369711Y-66933210D01*
X131301104Y-66946432D01*
X131236240Y-66920464D01*
X131205506Y-66884995D01*
X131178799Y-66838737D01*
X131099577Y-66759515D01*
X131002551Y-66703497D01*
X130894332Y-66674500D01*
X130782296Y-66674500D01*
X130674077Y-66703497D01*
X130674074Y-66703498D01*
X130577054Y-66759513D01*
X130577048Y-66759517D01*
X130497831Y-66838734D01*
X130497829Y-66838737D01*
X130471122Y-66884995D01*
X130420554Y-66933210D01*
X130351947Y-66946432D01*
X130287083Y-66920464D01*
X130256349Y-66884995D01*
X130229642Y-66838737D01*
X130150420Y-66759515D01*
X130053394Y-66703497D01*
X129945175Y-66674500D01*
X129833139Y-66674500D01*
X129724920Y-66703497D01*
X129724917Y-66703498D01*
X129627897Y-66759513D01*
X129627891Y-66759517D01*
X129548674Y-66838734D01*
X129548670Y-66838740D01*
X129492655Y-66935760D01*
X129492654Y-66935763D01*
X129463657Y-67043982D01*
X112400500Y-67043982D01*
X112400500Y-64773982D01*
X126094500Y-64773982D01*
X126094500Y-64886018D01*
X126123497Y-64994237D01*
X126179515Y-65091263D01*
X126258737Y-65170485D01*
X126355763Y-65226503D01*
X126463982Y-65255500D01*
X126463984Y-65255500D01*
X126576016Y-65255500D01*
X126576018Y-65255500D01*
X126684237Y-65226503D01*
X126781263Y-65170485D01*
X126860485Y-65091263D01*
X126916503Y-64994237D01*
X126945500Y-64886018D01*
X126945500Y-64773982D01*
X126916503Y-64665763D01*
X126860485Y-64568737D01*
X126781263Y-64489515D01*
X126716579Y-64452169D01*
X126684239Y-64433498D01*
X126684238Y-64433497D01*
X126684237Y-64433497D01*
X126576018Y-64404500D01*
X126463982Y-64404500D01*
X126355763Y-64433497D01*
X126355760Y-64433498D01*
X126258740Y-64489513D01*
X126258734Y-64489517D01*
X126179517Y-64568734D01*
X126179513Y-64568740D01*
X126123498Y-64665760D01*
X126123497Y-64665763D01*
X126094500Y-64773982D01*
X112400500Y-64773982D01*
X112400500Y-61606404D01*
X112400526Y-61603857D01*
X112402079Y-61528282D01*
X112404125Y-61428681D01*
X112849500Y-61428681D01*
X112849500Y-61771318D01*
X112887858Y-62111768D01*
X112887861Y-62111782D01*
X112964102Y-62445816D01*
X112964103Y-62445818D01*
X113077264Y-62769216D01*
X113225922Y-63077907D01*
X113225924Y-63077910D01*
X113408211Y-63368018D01*
X113621834Y-63635893D01*
X113864107Y-63878166D01*
X114131982Y-64091789D01*
X114422090Y-64274076D01*
X114730785Y-64422736D01*
X115054183Y-64535897D01*
X115388217Y-64612139D01*
X115388226Y-64612140D01*
X115388231Y-64612141D01*
X115615197Y-64637713D01*
X115728682Y-64650499D01*
X115728685Y-64650500D01*
X115728688Y-64650500D01*
X116071315Y-64650500D01*
X116071316Y-64650499D01*
X116098118Y-64647479D01*
X116141122Y-64642635D01*
X116411768Y-64612141D01*
X116411771Y-64612140D01*
X116411783Y-64612139D01*
X116745817Y-64535897D01*
X117069215Y-64422736D01*
X117377910Y-64274076D01*
X117668018Y-64091789D01*
X117935893Y-63878166D01*
X118178166Y-63635893D01*
X118391789Y-63368018D01*
X118574076Y-63077910D01*
X118722736Y-62769215D01*
X118835897Y-62445817D01*
X118895712Y-62183753D01*
X127570000Y-62183753D01*
X127570000Y-62396246D01*
X127603242Y-62606127D01*
X127603242Y-62606130D01*
X127668904Y-62808217D01*
X127765375Y-62997550D01*
X127804728Y-63051716D01*
X128437037Y-62419408D01*
X128454075Y-62482993D01*
X128519901Y-62597007D01*
X128612993Y-62690099D01*
X128727007Y-62755925D01*
X128790590Y-62772962D01*
X128158282Y-63405269D01*
X128158282Y-63405270D01*
X128212449Y-63444624D01*
X128406121Y-63543306D01*
X128405603Y-63544321D01*
X128455808Y-63584779D01*
X128477873Y-63651073D01*
X128460594Y-63718772D01*
X128409458Y-63766383D01*
X128353952Y-63779500D01*
X128050247Y-63779500D01*
X127991770Y-63791131D01*
X127991769Y-63791132D01*
X127925447Y-63835447D01*
X127881132Y-63901769D01*
X127881131Y-63901770D01*
X127869500Y-63960247D01*
X127869500Y-65699752D01*
X127881131Y-65758229D01*
X127881132Y-65758230D01*
X127925447Y-65824552D01*
X127991769Y-65868867D01*
X127991770Y-65868868D01*
X128050247Y-65880499D01*
X128050250Y-65880500D01*
X128050252Y-65880500D01*
X129789750Y-65880500D01*
X129789751Y-65880499D01*
X129804568Y-65877552D01*
X129848229Y-65868868D01*
X129848229Y-65868867D01*
X129848231Y-65868867D01*
X129914552Y-65824552D01*
X129958867Y-65758231D01*
X129958867Y-65758229D01*
X129958868Y-65758229D01*
X129970499Y-65699752D01*
X129970500Y-65699750D01*
X129970500Y-63960249D01*
X129970499Y-63960247D01*
X129958868Y-63901770D01*
X129958867Y-63901769D01*
X129914552Y-63835447D01*
X129848230Y-63791132D01*
X129848229Y-63791131D01*
X129829830Y-63787472D01*
X129789752Y-63779500D01*
X129789748Y-63779500D01*
X129486048Y-63779500D01*
X129419009Y-63759815D01*
X129373254Y-63707011D01*
X129368505Y-63673982D01*
X135474500Y-63673982D01*
X135474500Y-63786018D01*
X135496060Y-63866479D01*
X135503497Y-63894236D01*
X135503498Y-63894239D01*
X135507846Y-63901770D01*
X135559515Y-63991263D01*
X135638737Y-64070485D01*
X135735763Y-64126503D01*
X135843982Y-64155500D01*
X135843984Y-64155500D01*
X135956016Y-64155500D01*
X135956018Y-64155500D01*
X136064237Y-64126503D01*
X136161263Y-64070485D01*
X136240485Y-63991263D01*
X136296503Y-63894237D01*
X136325500Y-63786018D01*
X136325500Y-63673982D01*
X136296503Y-63565763D01*
X136240485Y-63468737D01*
X136161263Y-63389515D01*
X136064237Y-63333497D01*
X135956018Y-63304500D01*
X135843982Y-63304500D01*
X135735763Y-63333497D01*
X135735760Y-63333498D01*
X135638740Y-63389513D01*
X135638734Y-63389517D01*
X135559517Y-63468734D01*
X135559513Y-63468740D01*
X135503498Y-63565760D01*
X135503497Y-63565763D01*
X135474500Y-63673982D01*
X129368505Y-63673982D01*
X129363310Y-63637853D01*
X129392335Y-63574297D01*
X129434264Y-63544061D01*
X129433879Y-63543306D01*
X129627554Y-63444622D01*
X129681716Y-63405270D01*
X129681717Y-63405270D01*
X129049408Y-62772962D01*
X129112993Y-62755925D01*
X129227007Y-62690099D01*
X129320099Y-62597007D01*
X129385925Y-62482993D01*
X129402962Y-62419409D01*
X130035270Y-63051717D01*
X130035270Y-63051716D01*
X130074622Y-62997554D01*
X130171095Y-62808217D01*
X130236757Y-62606130D01*
X130236757Y-62606127D01*
X130270000Y-62396246D01*
X130270000Y-62183753D01*
X130236757Y-61973872D01*
X130236757Y-61973869D01*
X130171095Y-61771782D01*
X130074623Y-61582447D01*
X130074621Y-61582443D01*
X130035271Y-61528282D01*
X130035269Y-61528282D01*
X129402962Y-62160590D01*
X129385925Y-62097007D01*
X129320099Y-61982993D01*
X129227007Y-61889901D01*
X129112993Y-61824075D01*
X129049409Y-61807037D01*
X129427764Y-61428681D01*
X154849500Y-61428681D01*
X154849500Y-61771318D01*
X154887858Y-62111768D01*
X154887861Y-62111782D01*
X154964102Y-62445816D01*
X154964103Y-62445818D01*
X155077264Y-62769216D01*
X155225922Y-63077907D01*
X155225924Y-63077910D01*
X155408211Y-63368018D01*
X155621834Y-63635893D01*
X155864107Y-63878166D01*
X156131982Y-64091789D01*
X156422090Y-64274076D01*
X156730785Y-64422736D01*
X157054183Y-64535897D01*
X157388217Y-64612139D01*
X157388226Y-64612140D01*
X157388231Y-64612141D01*
X157615197Y-64637713D01*
X157728682Y-64650499D01*
X157728685Y-64650500D01*
X157728688Y-64650500D01*
X158071315Y-64650500D01*
X158071316Y-64650499D01*
X158245311Y-64630895D01*
X158411768Y-64612141D01*
X158411771Y-64612140D01*
X158411783Y-64612139D01*
X158745817Y-64535897D01*
X159069215Y-64422736D01*
X159377910Y-64274076D01*
X159668018Y-64091789D01*
X159935893Y-63878166D01*
X160178166Y-63635893D01*
X160391789Y-63368018D01*
X160574076Y-63077910D01*
X160722736Y-62769215D01*
X160835897Y-62445817D01*
X160912139Y-62111783D01*
X160927678Y-61973872D01*
X160931894Y-61936446D01*
X160950500Y-61771312D01*
X160950500Y-61428688D01*
X160921620Y-61172363D01*
X160912141Y-61088231D01*
X160912140Y-61088226D01*
X160912139Y-61088217D01*
X160835897Y-60754183D01*
X160722736Y-60430785D01*
X160574076Y-60122090D01*
X160391789Y-59831982D01*
X160178166Y-59564107D01*
X159935893Y-59321834D01*
X159668018Y-59108211D01*
X159422279Y-58953803D01*
X159377907Y-58925922D01*
X159069216Y-58777264D01*
X158745818Y-58664103D01*
X158745816Y-58664102D01*
X158488024Y-58605262D01*
X158411783Y-58587861D01*
X158411780Y-58587860D01*
X158411768Y-58587858D01*
X158071318Y-58549500D01*
X158071312Y-58549500D01*
X157728688Y-58549500D01*
X157728681Y-58549500D01*
X157388231Y-58587858D01*
X157388217Y-58587861D01*
X157054183Y-58664102D01*
X157054181Y-58664103D01*
X156730783Y-58777264D01*
X156422092Y-58925922D01*
X156131983Y-59108210D01*
X155864107Y-59321833D01*
X155621833Y-59564107D01*
X155408210Y-59831983D01*
X155225922Y-60122092D01*
X155077264Y-60430783D01*
X154964103Y-60754181D01*
X154964102Y-60754183D01*
X154887861Y-61088217D01*
X154887858Y-61088231D01*
X154849500Y-61428681D01*
X129427764Y-61428681D01*
X129681716Y-61174728D01*
X129627550Y-61135375D01*
X129438216Y-61038904D01*
X129262026Y-60981656D01*
X129204350Y-60942218D01*
X129177152Y-60877860D01*
X129189067Y-60809013D01*
X129236311Y-60757538D01*
X129252882Y-60749168D01*
X129417598Y-60680941D01*
X129589655Y-60565977D01*
X129735977Y-60419655D01*
X129850941Y-60247598D01*
X129930130Y-60056420D01*
X129970500Y-59853465D01*
X129970500Y-59646535D01*
X129930130Y-59443580D01*
X129850941Y-59252402D01*
X129735977Y-59080345D01*
X129735975Y-59080342D01*
X129589657Y-58934024D01*
X129423466Y-58822980D01*
X129417598Y-58819059D01*
X129226420Y-58739870D01*
X129226412Y-58739868D01*
X129023469Y-58699500D01*
X129023465Y-58699500D01*
X128816535Y-58699500D01*
X128816530Y-58699500D01*
X128613587Y-58739868D01*
X128613579Y-58739870D01*
X128422403Y-58819058D01*
X128250342Y-58934024D01*
X128104024Y-59080342D01*
X127989058Y-59252403D01*
X127909870Y-59443579D01*
X127909868Y-59443587D01*
X127869500Y-59646530D01*
X127869500Y-59853469D01*
X127909868Y-60056412D01*
X127909870Y-60056420D01*
X127989058Y-60247596D01*
X128104024Y-60419657D01*
X128250342Y-60565975D01*
X128422405Y-60680943D01*
X128500921Y-60713465D01*
X128587108Y-60749164D01*
X128641511Y-60793005D01*
X128663576Y-60859299D01*
X128646297Y-60926998D01*
X128595160Y-60974609D01*
X128577974Y-60981656D01*
X128401781Y-61038905D01*
X128212439Y-61135380D01*
X128158282Y-61174727D01*
X128158282Y-61174728D01*
X128790591Y-61807037D01*
X128727007Y-61824075D01*
X128612993Y-61889901D01*
X128519901Y-61982993D01*
X128454075Y-62097007D01*
X128437037Y-62160591D01*
X127804728Y-61528282D01*
X127804727Y-61528282D01*
X127765380Y-61582439D01*
X127668904Y-61771782D01*
X127603242Y-61973869D01*
X127603242Y-61973872D01*
X127570000Y-62183753D01*
X118895712Y-62183753D01*
X118912139Y-62111783D01*
X118927678Y-61973872D01*
X118931894Y-61936446D01*
X118950500Y-61771312D01*
X118950500Y-61428688D01*
X118921620Y-61172363D01*
X118912141Y-61088231D01*
X118912140Y-61088226D01*
X118912139Y-61088217D01*
X118835897Y-60754183D01*
X118722736Y-60430785D01*
X118574076Y-60122090D01*
X118391789Y-59831982D01*
X118295284Y-59710969D01*
X118178166Y-59564107D01*
X117935892Y-59321833D01*
X117848828Y-59252402D01*
X117668018Y-59108211D01*
X117422279Y-58953803D01*
X117377907Y-58925922D01*
X117069216Y-58777264D01*
X116745818Y-58664103D01*
X116745816Y-58664102D01*
X116488024Y-58605262D01*
X116411783Y-58587861D01*
X116411780Y-58587860D01*
X116411768Y-58587858D01*
X116071318Y-58549500D01*
X116071312Y-58549500D01*
X115728688Y-58549500D01*
X115728681Y-58549500D01*
X115388231Y-58587858D01*
X115388217Y-58587861D01*
X115054183Y-58664102D01*
X115054181Y-58664103D01*
X114730783Y-58777264D01*
X114422092Y-58925922D01*
X114131983Y-59108210D01*
X113864107Y-59321833D01*
X113621833Y-59564107D01*
X113408210Y-59831983D01*
X113225922Y-60122092D01*
X113077264Y-60430783D01*
X112964103Y-60754181D01*
X112964102Y-60754183D01*
X112887861Y-61088217D01*
X112887858Y-61088231D01*
X112849500Y-61428681D01*
X112404125Y-61428681D01*
X112405053Y-61383516D01*
X112405270Y-61378340D01*
X112418095Y-61175078D01*
X112418558Y-61169652D01*
X112422244Y-61135375D01*
X112439323Y-60976506D01*
X112440056Y-60970903D01*
X112466284Y-60800500D01*
X112468215Y-60787949D01*
X112469233Y-60782232D01*
X112504544Y-60607920D01*
X112505871Y-60602105D01*
X112547640Y-60437420D01*
X112549291Y-60431532D01*
X112597703Y-60274047D01*
X112599691Y-60268121D01*
X112650966Y-60127312D01*
X112654612Y-60118397D01*
X112784075Y-59834076D01*
X112790194Y-59822345D01*
X112939211Y-59570444D01*
X112946645Y-59559301D01*
X113118968Y-59329040D01*
X113127543Y-59318786D01*
X113189436Y-59252402D01*
X113324470Y-59107568D01*
X113333909Y-59098462D01*
X113557328Y-58904713D01*
X113567346Y-58896889D01*
X113819246Y-58720195D01*
X113829534Y-58713710D01*
X114111375Y-58554831D01*
X114121687Y-58549636D01*
X114433606Y-58410385D01*
X114443758Y-58406379D01*
X114783105Y-58289536D01*
X114792961Y-58286597D01*
X115151481Y-58195729D01*
X115161051Y-58193702D01*
X115518144Y-58132762D01*
X115527434Y-58131538D01*
X115829880Y-58103321D01*
X115837226Y-58102857D01*
X115901732Y-58100718D01*
X115906258Y-58100568D01*
X115910367Y-58100500D01*
X157893594Y-58100500D01*
X157896141Y-58100526D01*
G37*
%TD.AperFunction*%
%TD*%
M02*
