%TF.GenerationSoftware,KiCad,Pcbnew,9.0.5*%
%TF.CreationDate,2025-10-24T21:19:20-07:00*%
%TF.ProjectId,Sending Pebble,53656e64-696e-4672-9050-6562626c652e,rev?*%
%TF.SameCoordinates,Original*%
%TF.FileFunction,Legend,Bot*%
%TF.FilePolarity,Positive*%
%FSLAX46Y46*%
G04 Gerber Fmt 4.6, Leading zero omitted, Abs format (unit mm)*
G04 Created by KiCad (PCBNEW 9.0.5) date 2025-10-24 21:19:20*
%MOMM*%
%LPD*%
G01*
G04 APERTURE LIST*
%ADD10C,0.153000*%
%ADD11C,0.300000*%
%ADD12C,0.120000*%
G04 APERTURE END LIST*
D10*
X123267438Y-104727282D02*
X123362676Y-104679663D01*
X123362676Y-104679663D02*
X123505533Y-104679663D01*
X123505533Y-104679663D02*
X123648390Y-104727282D01*
X123648390Y-104727282D02*
X123743628Y-104822520D01*
X123743628Y-104822520D02*
X123791247Y-104917758D01*
X123791247Y-104917758D02*
X123838866Y-105108234D01*
X123838866Y-105108234D02*
X123838866Y-105251091D01*
X123838866Y-105251091D02*
X123791247Y-105441567D01*
X123791247Y-105441567D02*
X123743628Y-105536805D01*
X123743628Y-105536805D02*
X123648390Y-105632044D01*
X123648390Y-105632044D02*
X123505533Y-105679663D01*
X123505533Y-105679663D02*
X123410295Y-105679663D01*
X123410295Y-105679663D02*
X123267438Y-105632044D01*
X123267438Y-105632044D02*
X123219819Y-105584424D01*
X123219819Y-105584424D02*
X123219819Y-105251091D01*
X123219819Y-105251091D02*
X123410295Y-105251091D01*
X122791247Y-105679663D02*
X122791247Y-104679663D01*
X122791247Y-104679663D02*
X122219819Y-105679663D01*
X122219819Y-105679663D02*
X122219819Y-104679663D01*
X121743628Y-105679663D02*
X121743628Y-104679663D01*
X121743628Y-104679663D02*
X121505533Y-104679663D01*
X121505533Y-104679663D02*
X121362676Y-104727282D01*
X121362676Y-104727282D02*
X121267438Y-104822520D01*
X121267438Y-104822520D02*
X121219819Y-104917758D01*
X121219819Y-104917758D02*
X121172200Y-105108234D01*
X121172200Y-105108234D02*
X121172200Y-105251091D01*
X121172200Y-105251091D02*
X121219819Y-105441567D01*
X121219819Y-105441567D02*
X121267438Y-105536805D01*
X121267438Y-105536805D02*
X121362676Y-105632044D01*
X121362676Y-105632044D02*
X121505533Y-105679663D01*
X121505533Y-105679663D02*
X121743628Y-105679663D01*
D11*
G36*
X141262854Y-85855208D02*
G01*
X141365411Y-85855208D01*
X141345249Y-85566745D01*
X141354048Y-85479421D01*
X141378532Y-85409738D01*
X141417484Y-85353851D01*
X141470165Y-85311349D01*
X141534430Y-85285290D01*
X141613709Y-85276060D01*
X141736911Y-85291595D01*
X141848194Y-85337596D01*
X141951069Y-85416243D01*
X142033120Y-85516492D01*
X142079803Y-85620091D01*
X142095221Y-85730266D01*
X142085164Y-85820005D01*
X142055849Y-85899184D01*
X142000989Y-85979134D01*
X141879945Y-86111285D01*
X141656178Y-86349908D01*
X141550523Y-86497384D01*
X141490550Y-86638629D01*
X141471779Y-86770130D01*
X141484625Y-86897145D01*
X141523569Y-87021999D01*
X141590689Y-87146862D01*
X141679575Y-87257492D01*
X141794923Y-87356794D01*
X141940750Y-87445009D01*
X142098255Y-87510272D01*
X142260347Y-87549138D01*
X142428930Y-87562173D01*
X142593844Y-87546828D01*
X142735245Y-87502978D01*
X142857735Y-87431832D01*
X142961047Y-87335873D01*
X143015533Y-87245217D01*
X143032527Y-87155911D01*
X143020501Y-87082842D01*
X142985853Y-87025095D01*
X142934516Y-86985436D01*
X142878215Y-86972863D01*
X142821179Y-86985271D01*
X142774705Y-87022872D01*
X142752573Y-87062291D01*
X142724061Y-87153689D01*
X142690017Y-87264588D01*
X142655636Y-87328005D01*
X142608904Y-87376069D01*
X142544665Y-87416115D01*
X142471162Y-87441692D01*
X142389717Y-87450407D01*
X142228293Y-87431282D01*
X142082945Y-87374923D01*
X141949323Y-87279425D01*
X141863250Y-87186954D01*
X141805451Y-87094186D01*
X141771970Y-86999700D01*
X141760877Y-86901422D01*
X141766774Y-86831228D01*
X141784691Y-86760922D01*
X141816071Y-86690452D01*
X141871849Y-86602323D01*
X142068550Y-86388476D01*
X142259059Y-86182091D01*
X142308010Y-86099559D01*
X142341454Y-86019046D01*
X142361675Y-85936569D01*
X142368285Y-85855684D01*
X142356850Y-85749230D01*
X142321492Y-85640026D01*
X142259218Y-85525944D01*
X142179105Y-85423000D01*
X142084994Y-85335491D01*
X141975676Y-85262406D01*
X141856049Y-85208529D01*
X141724930Y-85175618D01*
X141579893Y-85164294D01*
X141463502Y-85171563D01*
X141307147Y-85196681D01*
X141141404Y-85222717D01*
X141203637Y-85445613D01*
X141262854Y-85855208D01*
G37*
G36*
X140411838Y-85809767D02*
G01*
X140539121Y-85856339D01*
X140662039Y-85936444D01*
X140782547Y-86055633D01*
X140901362Y-86222098D01*
X141005564Y-86416380D01*
X141077261Y-86605799D01*
X141119189Y-86792050D01*
X141132990Y-86976991D01*
X141123866Y-87101733D01*
X141100032Y-87190519D01*
X141065200Y-87252277D01*
X141014334Y-87299487D01*
X140950212Y-87328350D01*
X140868658Y-87338642D01*
X140755962Y-87325907D01*
X140628374Y-87284701D01*
X140481903Y-87208760D01*
X140312518Y-87089787D01*
X140116146Y-86917774D01*
X140179966Y-86818075D01*
X140398479Y-86983185D01*
X140526217Y-87061450D01*
X140611794Y-87094905D01*
X140683864Y-87104950D01*
X140750519Y-87092398D01*
X140796582Y-87057164D01*
X140823607Y-86998306D01*
X140835160Y-86885547D01*
X140819602Y-86707103D01*
X140381271Y-86497542D01*
X140246553Y-86410038D01*
X140153724Y-86332651D01*
X140093602Y-86264010D01*
X140032114Y-86147808D01*
X140026849Y-86117000D01*
X140280460Y-86117000D01*
X140289999Y-86179107D01*
X140320415Y-86244582D01*
X140376667Y-86315765D01*
X140478598Y-86403760D01*
X140616070Y-86493071D01*
X140796423Y-86583430D01*
X140752475Y-86394085D01*
X140682911Y-86200030D01*
X140617224Y-86081981D01*
X140543998Y-86004917D01*
X140480867Y-85968255D01*
X140419214Y-85956813D01*
X140362872Y-85967831D01*
X140319038Y-86000154D01*
X140290716Y-86049139D01*
X140280460Y-86117000D01*
X140026849Y-86117000D01*
X140012794Y-86034763D01*
X140030636Y-85932590D01*
X140080901Y-85858542D01*
X140159998Y-85811670D01*
X140277126Y-85794245D01*
X140411838Y-85809767D01*
G37*
G36*
X139821491Y-86223209D02*
G01*
X139889281Y-86154784D01*
X139664646Y-85959781D01*
X139521915Y-85865210D01*
X139388682Y-85809916D01*
X139288700Y-85794245D01*
X139252619Y-85798636D01*
X139226943Y-85810438D01*
X139209213Y-85828686D01*
X139203764Y-85849017D01*
X139212814Y-85902994D01*
X139288541Y-86242419D01*
X139170296Y-86125728D01*
X139023923Y-86006556D01*
X138845607Y-85884737D01*
X138702095Y-85813440D01*
X138603183Y-85794245D01*
X138538275Y-85806010D01*
X138491259Y-85839332D01*
X138461777Y-85891224D01*
X138450776Y-85967926D01*
X138466969Y-86093345D01*
X138616043Y-86596449D01*
X138708709Y-86930181D01*
X138729555Y-87076215D01*
X138720188Y-87121143D01*
X138693834Y-87135431D01*
X138640365Y-87117933D01*
X138535553Y-87040336D01*
X138374731Y-86909837D01*
X138324881Y-86978261D01*
X138497686Y-87144638D01*
X138667957Y-87268153D01*
X138778691Y-87323665D01*
X138855450Y-87338642D01*
X138918380Y-87326151D01*
X138964040Y-87290220D01*
X138991509Y-87232768D01*
X139002618Y-87134796D01*
X138989527Y-87021727D01*
X138933794Y-86783034D01*
X138805282Y-86346564D01*
X138745113Y-86086995D01*
X138760143Y-86042830D01*
X138805758Y-86027937D01*
X138877652Y-86043434D01*
X138985790Y-86102394D01*
X139139515Y-86223781D01*
X139263299Y-86362598D01*
X139323422Y-86475309D01*
X139381573Y-86668842D01*
X139526360Y-87298000D01*
X139801646Y-87298000D01*
X139670195Y-86777433D01*
X139512231Y-86096520D01*
X139503499Y-86045400D01*
X139511666Y-86016408D01*
X139533981Y-86007616D01*
X139562657Y-86014712D01*
X139612725Y-86043812D01*
X139718387Y-86123516D01*
X139821491Y-86223209D01*
G37*
G36*
X136386108Y-84803338D02*
G01*
X136541395Y-84851700D01*
X136689129Y-84928080D01*
X136819221Y-85030620D01*
X136928736Y-85156324D01*
X137017192Y-85305430D01*
X137088466Y-85488768D01*
X137176427Y-85805834D01*
X137289780Y-85794245D01*
X137403773Y-85809626D01*
X137532500Y-85859691D01*
X137680800Y-85953162D01*
X137811040Y-86069948D01*
X137940054Y-86230100D01*
X138067852Y-86442295D01*
X138169572Y-86668043D01*
X138224634Y-86861017D01*
X138241533Y-87027317D01*
X138233118Y-87133862D01*
X138210502Y-87214255D01*
X138176284Y-87274345D01*
X138127999Y-87322323D01*
X138074810Y-87349748D01*
X138014509Y-87358963D01*
X137898573Y-87339985D01*
X137756528Y-87275297D01*
X137612296Y-87169334D01*
X137414246Y-86973975D01*
X137470605Y-87170676D01*
X137490291Y-87273868D01*
X137483490Y-87304666D01*
X137462032Y-87332926D01*
X137430405Y-87352207D01*
X137389321Y-87358963D01*
X137290203Y-87340192D01*
X137134515Y-87268153D01*
X137005772Y-87181803D01*
X136776833Y-86999217D01*
X136832240Y-86919838D01*
X137070535Y-87094948D01*
X137111720Y-87118708D01*
X137142452Y-87125271D01*
X137175560Y-87109936D01*
X137188810Y-87054465D01*
X137180604Y-86977542D01*
X137144516Y-86802675D01*
X136958356Y-86008092D01*
X137215957Y-86008092D01*
X137296606Y-86363392D01*
X137379257Y-86679182D01*
X137425676Y-86801246D01*
X137518655Y-86930447D01*
X137640793Y-87039542D01*
X137735036Y-87090505D01*
X137808442Y-87104950D01*
X137863691Y-87091564D01*
X137915762Y-87048273D01*
X137950778Y-86985195D01*
X137963230Y-86902216D01*
X137952975Y-86770645D01*
X137919506Y-86615613D01*
X137857974Y-86432769D01*
X137778101Y-86255556D01*
X137705722Y-86140038D01*
X137640317Y-86070166D01*
X137561554Y-86016755D01*
X137485633Y-85986796D01*
X137410594Y-85977134D01*
X137215957Y-86008092D01*
X136958356Y-86008092D01*
X136892409Y-85726614D01*
X136762862Y-85215890D01*
X136715226Y-85107578D01*
X136675069Y-85058244D01*
X136625768Y-85031175D01*
X136568702Y-85022047D01*
X136404228Y-85037288D01*
X136238326Y-85052528D01*
X136174367Y-85043013D01*
X136128307Y-85016808D01*
X136097959Y-84975954D01*
X136087665Y-84923935D01*
X136098744Y-84870263D01*
X136131959Y-84826775D01*
X136181625Y-84798512D01*
X136248963Y-84788355D01*
X136386108Y-84803338D01*
G37*
G36*
X135843972Y-85032207D02*
G01*
X135791523Y-85041838D01*
X135749987Y-85069992D01*
X135722379Y-85112242D01*
X135712838Y-85166358D01*
X135726640Y-85240887D01*
X135768562Y-85306700D01*
X135829033Y-85352962D01*
X135893822Y-85367504D01*
X135944840Y-85357769D01*
X135986219Y-85328926D01*
X136013594Y-85285423D01*
X136023210Y-85228115D01*
X136009833Y-85152208D01*
X135970343Y-85089360D01*
X135911736Y-85046270D01*
X135843972Y-85032207D01*
G37*
G36*
X136543459Y-86222574D02*
G01*
X136629506Y-86155578D01*
X136446076Y-85978611D01*
X136300083Y-85876323D01*
X136155397Y-85812228D01*
X136048293Y-85794245D01*
X135994126Y-85800823D01*
X135957960Y-85818059D01*
X135934093Y-85845908D01*
X135926050Y-85882673D01*
X135943022Y-85971733D01*
X136041625Y-86321004D01*
X136199060Y-86893848D01*
X136229754Y-87079707D01*
X136218482Y-87119714D01*
X136195779Y-87135431D01*
X136160130Y-87122478D01*
X136075784Y-87060058D01*
X135904459Y-86899517D01*
X135827937Y-86978102D01*
X136062732Y-87185297D01*
X136188318Y-87274503D01*
X136298092Y-87325004D01*
X136373429Y-87338642D01*
X136432172Y-87328638D01*
X136475511Y-87300381D01*
X136503416Y-87256558D01*
X136513454Y-87195283D01*
X136495603Y-87037059D01*
X136420071Y-86707105D01*
X136246741Y-86108586D01*
X136234516Y-86037145D01*
X136240527Y-86023149D01*
X136261346Y-86017776D01*
X136295879Y-86023828D01*
X136339931Y-86044924D01*
X136543459Y-86222574D01*
G37*
G36*
X135676006Y-86223209D02*
G01*
X135743796Y-86154784D01*
X135519161Y-85959781D01*
X135376430Y-85865210D01*
X135243197Y-85809916D01*
X135143215Y-85794245D01*
X135107134Y-85798636D01*
X135081458Y-85810438D01*
X135063729Y-85828686D01*
X135058279Y-85849017D01*
X135067329Y-85902994D01*
X135143056Y-86242419D01*
X135024811Y-86125728D01*
X134878438Y-86006556D01*
X134700122Y-85884737D01*
X134556610Y-85813440D01*
X134457698Y-85794245D01*
X134392790Y-85806010D01*
X134345774Y-85839332D01*
X134316292Y-85891224D01*
X134305291Y-85967926D01*
X134321484Y-86093345D01*
X134470558Y-86596449D01*
X134563224Y-86930181D01*
X134584070Y-87076215D01*
X134574703Y-87121143D01*
X134548349Y-87135431D01*
X134494880Y-87117933D01*
X134390068Y-87040336D01*
X134229246Y-86909837D01*
X134179396Y-86978261D01*
X134352201Y-87144638D01*
X134522472Y-87268153D01*
X134633206Y-87323665D01*
X134709965Y-87338642D01*
X134772895Y-87326151D01*
X134818555Y-87290220D01*
X134846024Y-87232768D01*
X134857133Y-87134796D01*
X134844042Y-87021727D01*
X134788309Y-86783034D01*
X134659797Y-86346564D01*
X134599628Y-86086995D01*
X134614658Y-86042830D01*
X134660273Y-86027937D01*
X134732167Y-86043434D01*
X134840305Y-86102394D01*
X134994030Y-86223781D01*
X135117814Y-86362598D01*
X135177937Y-86475309D01*
X135236088Y-86668842D01*
X135380875Y-87298000D01*
X135656161Y-87298000D01*
X135524710Y-86777433D01*
X135366746Y-86096520D01*
X135358014Y-86045400D01*
X135366181Y-86016408D01*
X135388496Y-86007616D01*
X135417172Y-86014712D01*
X135467240Y-86043812D01*
X135572902Y-86123516D01*
X135676006Y-86223209D01*
G37*
G36*
X132864087Y-85786148D02*
G01*
X132881550Y-85838380D01*
X133000460Y-85834887D01*
X133168325Y-85847048D01*
X133308487Y-85881129D01*
X133425772Y-85934746D01*
X133595791Y-86056972D01*
X133752211Y-86216857D01*
X133895696Y-86419592D01*
X133983308Y-86586205D01*
X134043732Y-86749139D01*
X134079138Y-86909794D01*
X134090809Y-87069706D01*
X134077035Y-87165029D01*
X134038895Y-87235290D01*
X133981381Y-87283060D01*
X133918715Y-87298000D01*
X133839892Y-87283290D01*
X133714394Y-87226558D01*
X133963644Y-87364519D01*
X134197509Y-87501091D01*
X134306085Y-87593607D01*
X134369427Y-87682435D01*
X134405621Y-87772357D01*
X134417533Y-87865718D01*
X134402877Y-87958444D01*
X134358200Y-88044973D01*
X134278302Y-88128462D01*
X134179312Y-88189686D01*
X134054599Y-88228768D01*
X133897283Y-88242926D01*
X133714425Y-88227190D01*
X133554145Y-88181924D01*
X133412278Y-88108300D01*
X133288846Y-88007621D01*
X133196532Y-87889878D01*
X133132388Y-87752682D01*
X133092960Y-87581850D01*
X133075235Y-87337371D01*
X133057454Y-87086375D01*
X133047445Y-87032715D01*
X133306863Y-87032715D01*
X133323532Y-87256087D01*
X133333897Y-87480188D01*
X133357189Y-87634249D01*
X133402190Y-87769832D01*
X133472606Y-87889372D01*
X133564691Y-87989921D01*
X133668831Y-88061625D01*
X133784028Y-88106384D01*
X133900935Y-88121000D01*
X133981787Y-88111880D01*
X134052326Y-88085408D01*
X134114940Y-88041304D01*
X134165345Y-87983807D01*
X134193730Y-87924719D01*
X134203051Y-87862066D01*
X134186481Y-87764416D01*
X134134785Y-87669017D01*
X134033126Y-87570577D01*
X133763133Y-87372298D01*
X133449369Y-87147338D01*
X133306863Y-87032715D01*
X133047445Y-87032715D01*
X133018264Y-86876280D01*
X132949340Y-86590416D01*
X132835519Y-86173919D01*
X132799295Y-86053020D01*
X133065392Y-86053020D01*
X133193668Y-86521832D01*
X133268563Y-86753687D01*
X133328771Y-86876815D01*
X133404084Y-86970543D01*
X133498642Y-87047321D01*
X133600408Y-87100677D01*
X133671847Y-87115110D01*
X133723758Y-87102150D01*
X133773770Y-87059704D01*
X133807676Y-86998816D01*
X133819492Y-86922378D01*
X133808310Y-86789353D01*
X133770972Y-86625214D01*
X133700741Y-86423403D01*
X133635538Y-86289057D01*
X133567334Y-86192599D01*
X133496578Y-86126367D01*
X133413038Y-86077953D01*
X133318437Y-86048368D01*
X133210020Y-86038097D01*
X133065392Y-86053020D01*
X132799295Y-86053020D01*
X132708822Y-85751063D01*
X132864087Y-85786148D01*
G37*
G36*
X131004874Y-85582145D02*
G01*
X130980425Y-85500067D01*
X130728951Y-85463265D01*
X130528124Y-85416401D01*
X130627030Y-85769638D01*
X130756894Y-86261946D01*
X130599724Y-86271789D01*
X130486374Y-86261074D01*
X130354443Y-86214636D01*
X130272291Y-86164994D01*
X130193254Y-86093073D01*
X130116782Y-85994915D01*
X130058052Y-85886236D01*
X130023434Y-85773720D01*
X130011844Y-85655332D01*
X130026610Y-85541623D01*
X130068792Y-85448431D01*
X130139009Y-85370838D01*
X130230011Y-85316233D01*
X130356293Y-85279680D01*
X130528918Y-85265899D01*
X130725849Y-85282326D01*
X130921438Y-85332055D01*
X131118068Y-85417036D01*
X131299836Y-85530218D01*
X131446684Y-85658759D01*
X131562749Y-85803136D01*
X131652322Y-85965005D01*
X131702867Y-86118259D01*
X131719125Y-86266073D01*
X131708533Y-86373046D01*
X131678801Y-86460393D01*
X131625929Y-86538403D01*
X131534649Y-86622802D01*
X131464560Y-86693310D01*
X131445586Y-86752508D01*
X131453107Y-86790974D01*
X131475591Y-86822678D01*
X131508254Y-86843872D01*
X131546556Y-86850937D01*
X131611569Y-86837245D01*
X131679240Y-86792367D01*
X131752941Y-86704880D01*
X131806286Y-86603027D01*
X131839895Y-86481537D01*
X131851847Y-86335927D01*
X131832955Y-86139657D01*
X131776507Y-85952689D01*
X131680760Y-85771740D01*
X131541317Y-85594369D01*
X131370216Y-85437813D01*
X131178999Y-85316306D01*
X130964843Y-85228036D01*
X130723760Y-85173228D01*
X130450809Y-85154133D01*
X130277600Y-85162767D01*
X130136853Y-85186476D01*
X130023274Y-85222558D01*
X129917368Y-85276003D01*
X129835009Y-85338525D01*
X129772595Y-85410051D01*
X129725803Y-85492665D01*
X129698293Y-85578264D01*
X129689089Y-85668509D01*
X129701521Y-85782917D01*
X129739634Y-85897749D01*
X129806252Y-86015236D01*
X129893602Y-86118349D01*
X130007126Y-86209766D01*
X130151074Y-86289570D01*
X130305816Y-86346700D01*
X130473601Y-86381698D01*
X130656718Y-86393715D01*
X130786106Y-86384031D01*
X130925336Y-86932221D01*
X131003763Y-87207666D01*
X130874346Y-87230229D01*
X130768642Y-87237036D01*
X130638062Y-87222125D01*
X130483196Y-87172898D01*
X130506692Y-87296888D01*
X130644275Y-87329352D01*
X130745622Y-87338642D01*
X131016146Y-87317368D01*
X131246503Y-87298000D01*
X131419688Y-87308245D01*
X131606725Y-87340229D01*
X131582752Y-87237672D01*
X131413503Y-87195926D01*
X131329692Y-87150513D01*
X131277239Y-87089996D01*
X131225141Y-86988155D01*
X131175062Y-86829029D01*
X130906762Y-85763129D01*
X130889139Y-85650728D01*
X130894454Y-85623989D01*
X130910889Y-85599767D01*
X130934671Y-85582786D01*
X130962168Y-85577223D01*
X131004874Y-85582145D01*
G37*
G36*
X129138760Y-85809767D02*
G01*
X129266043Y-85856339D01*
X129388962Y-85936444D01*
X129509470Y-86055633D01*
X129628285Y-86222098D01*
X129732486Y-86416380D01*
X129804184Y-86605799D01*
X129846111Y-86792050D01*
X129859912Y-86976991D01*
X129850788Y-87101733D01*
X129826955Y-87190519D01*
X129792123Y-87252277D01*
X129741256Y-87299487D01*
X129677135Y-87328350D01*
X129595580Y-87338642D01*
X129482885Y-87325907D01*
X129355297Y-87284701D01*
X129208826Y-87208760D01*
X129039441Y-87089787D01*
X128843068Y-86917774D01*
X128906889Y-86818075D01*
X129125401Y-86983185D01*
X129253140Y-87061450D01*
X129338717Y-87094905D01*
X129410786Y-87104950D01*
X129477442Y-87092398D01*
X129523504Y-87057164D01*
X129550529Y-86998306D01*
X129562083Y-86885547D01*
X129546524Y-86707103D01*
X129108194Y-86497542D01*
X128973475Y-86410038D01*
X128880647Y-86332651D01*
X128820525Y-86264010D01*
X128759037Y-86147808D01*
X128753772Y-86117000D01*
X129007383Y-86117000D01*
X129016921Y-86179107D01*
X129047337Y-86244582D01*
X129103590Y-86315765D01*
X129205520Y-86403760D01*
X129342992Y-86493071D01*
X129523346Y-86583430D01*
X129479397Y-86394085D01*
X129409834Y-86200030D01*
X129344147Y-86081981D01*
X129270921Y-86004917D01*
X129207789Y-85968255D01*
X129146137Y-85956813D01*
X129089794Y-85967831D01*
X129045961Y-86000154D01*
X129017639Y-86049139D01*
X129007383Y-86117000D01*
X128753772Y-86117000D01*
X128739717Y-86034763D01*
X128757558Y-85932590D01*
X128807824Y-85858542D01*
X128886920Y-85811670D01*
X129004049Y-85794245D01*
X129138760Y-85809767D01*
G37*
G36*
X127487143Y-84799433D02*
G01*
X127606150Y-84834274D01*
X127735732Y-84896469D01*
X127854316Y-84976948D01*
X127955671Y-85072945D01*
X128041182Y-85185568D01*
X128108184Y-85311084D01*
X128172985Y-85482929D01*
X128233756Y-85712009D01*
X128443316Y-86649315D01*
X128481167Y-86856598D01*
X128491420Y-86990168D01*
X128479857Y-87088863D01*
X128446779Y-87171464D01*
X128392196Y-87241640D01*
X128320682Y-87294460D01*
X128233903Y-87327074D01*
X128127547Y-87338642D01*
X128002838Y-87323703D01*
X127871876Y-87276840D01*
X127731446Y-87192743D01*
X127607737Y-87084978D01*
X127494369Y-86945043D01*
X127391386Y-86767748D01*
X127314333Y-86578053D01*
X127269054Y-86388656D01*
X127260436Y-86278774D01*
X127546493Y-86278774D01*
X127562975Y-86478526D01*
X127613335Y-86681450D01*
X127700170Y-86889992D01*
X127790982Y-87039795D01*
X127877928Y-87131719D01*
X127962283Y-87180860D01*
X128047533Y-87196394D01*
X128121942Y-87182279D01*
X128187081Y-87139400D01*
X128231768Y-87075774D01*
X128246774Y-86998106D01*
X128235367Y-86828482D01*
X128200486Y-86654243D01*
X128140565Y-86473887D01*
X128060413Y-86298778D01*
X127985519Y-86179245D01*
X127915764Y-86102235D01*
X127832030Y-86038754D01*
X127765611Y-86006756D01*
X127711919Y-85997455D01*
X127650918Y-86011758D01*
X127604281Y-86054926D01*
X127561980Y-86150285D01*
X127546493Y-86278774D01*
X127260436Y-86278774D01*
X127254061Y-86197490D01*
X127264028Y-86064515D01*
X127290503Y-85966394D01*
X127329947Y-85895056D01*
X127386648Y-85838727D01*
X127453113Y-85805651D01*
X127532681Y-85794245D01*
X127642343Y-85810912D01*
X127780819Y-85868226D01*
X127915351Y-85956722D01*
X128052454Y-86085883D01*
X127911318Y-85478793D01*
X127839393Y-85206785D01*
X127799870Y-85104601D01*
X127758403Y-85051013D01*
X127712656Y-85021587D01*
X127660481Y-85011886D01*
X127547604Y-85021571D01*
X127344235Y-85042368D01*
X127270537Y-85032629D01*
X127220087Y-85006647D01*
X127186704Y-84966072D01*
X127175793Y-84917108D01*
X127187988Y-84863980D01*
X127224691Y-84823123D01*
X127281555Y-84798349D01*
X127376304Y-84788355D01*
X127487143Y-84799433D01*
G37*
G36*
X125960527Y-84799433D02*
G01*
X126079535Y-84834274D01*
X126209117Y-84896469D01*
X126327701Y-84976948D01*
X126429056Y-85072945D01*
X126514567Y-85185568D01*
X126581568Y-85311084D01*
X126646369Y-85482929D01*
X126707140Y-85712009D01*
X126916700Y-86649315D01*
X126954551Y-86856598D01*
X126964804Y-86990168D01*
X126953241Y-87088863D01*
X126920164Y-87171464D01*
X126865580Y-87241640D01*
X126794066Y-87294460D01*
X126707288Y-87327074D01*
X126600931Y-87338642D01*
X126476222Y-87323703D01*
X126345261Y-87276840D01*
X126204830Y-87192743D01*
X126081122Y-87084978D01*
X125967753Y-86945043D01*
X125864771Y-86767748D01*
X125787718Y-86578053D01*
X125742439Y-86388656D01*
X125733820Y-86278774D01*
X126019877Y-86278774D01*
X126036360Y-86478526D01*
X126086720Y-86681450D01*
X126173555Y-86889992D01*
X126264367Y-87039795D01*
X126351312Y-87131719D01*
X126435667Y-87180860D01*
X126520917Y-87196394D01*
X126595327Y-87182279D01*
X126660465Y-87139400D01*
X126705153Y-87075774D01*
X126720158Y-86998106D01*
X126708752Y-86828482D01*
X126673870Y-86654243D01*
X126613949Y-86473887D01*
X126533798Y-86298778D01*
X126458904Y-86179245D01*
X126389148Y-86102235D01*
X126305414Y-86038754D01*
X126238995Y-86006756D01*
X126185303Y-85997455D01*
X126124302Y-86011758D01*
X126077665Y-86054926D01*
X126035365Y-86150285D01*
X126019877Y-86278774D01*
X125733820Y-86278774D01*
X125727445Y-86197490D01*
X125737413Y-86064515D01*
X125763887Y-85966394D01*
X125803332Y-85895056D01*
X125860033Y-85838727D01*
X125926497Y-85805651D01*
X126006065Y-85794245D01*
X126115728Y-85810912D01*
X126254204Y-85868226D01*
X126388735Y-85956722D01*
X126525839Y-86085883D01*
X126384703Y-85478793D01*
X126312777Y-85206785D01*
X126273255Y-85104601D01*
X126231788Y-85051013D01*
X126186041Y-85021587D01*
X126133866Y-85011886D01*
X126020989Y-85021571D01*
X125817620Y-85042368D01*
X125743922Y-85032629D01*
X125693471Y-85006647D01*
X125660089Y-84966072D01*
X125649178Y-84917108D01*
X125661373Y-84863980D01*
X125698075Y-84823123D01*
X125754940Y-84798349D01*
X125849689Y-84788355D01*
X125960527Y-84799433D01*
G37*
G36*
X124809666Y-86848874D02*
G01*
X124742353Y-86916822D01*
X124895053Y-87069138D01*
X125074633Y-87208460D01*
X125206651Y-87287177D01*
X125309023Y-87327095D01*
X125388815Y-87338642D01*
X125441135Y-87327925D01*
X125483117Y-87295936D01*
X125510085Y-87247326D01*
X125519949Y-87179090D01*
X125499656Y-87002664D01*
X125409612Y-86595337D01*
X125217833Y-85815677D01*
X125110711Y-85428665D01*
X125041612Y-85248118D01*
X124956572Y-85112220D01*
X124852480Y-84999971D01*
X124727906Y-84909011D01*
X124588815Y-84841435D01*
X124446851Y-84801628D01*
X124299895Y-84788355D01*
X124227644Y-84798516D01*
X124176540Y-84826140D01*
X124142462Y-84868470D01*
X124131453Y-84917743D01*
X124142576Y-84971710D01*
X124175746Y-85014744D01*
X124226720Y-85042154D01*
X124303546Y-85052528D01*
X124455319Y-85035541D01*
X124612489Y-85022047D01*
X124677850Y-85030125D01*
X124719492Y-85050941D01*
X124762738Y-85106897D01*
X124811254Y-85227480D01*
X124946833Y-85762970D01*
X125122737Y-86507227D01*
X125254030Y-87082248D01*
X125244000Y-87121890D01*
X125218150Y-87133209D01*
X125177623Y-87124218D01*
X125107337Y-87087804D01*
X124963172Y-86985119D01*
X124809666Y-86848874D01*
G37*
G36*
X123977225Y-85809767D02*
G01*
X124104508Y-85856339D01*
X124227427Y-85936444D01*
X124347934Y-86055633D01*
X124466749Y-86222098D01*
X124570951Y-86416380D01*
X124642648Y-86605799D01*
X124684576Y-86792050D01*
X124698377Y-86976991D01*
X124689253Y-87101733D01*
X124665419Y-87190519D01*
X124630587Y-87252277D01*
X124579721Y-87299487D01*
X124515599Y-87328350D01*
X124434045Y-87338642D01*
X124321349Y-87325907D01*
X124193762Y-87284701D01*
X124047291Y-87208760D01*
X123877906Y-87089787D01*
X123681533Y-86917774D01*
X123745354Y-86818075D01*
X123963866Y-86983185D01*
X124091605Y-87061450D01*
X124177182Y-87094905D01*
X124249251Y-87104950D01*
X124315906Y-87092398D01*
X124361969Y-87057164D01*
X124388994Y-86998306D01*
X124400547Y-86885547D01*
X124384989Y-86707103D01*
X123946659Y-86497542D01*
X123811940Y-86410038D01*
X123719112Y-86332651D01*
X123658989Y-86264010D01*
X123597502Y-86147808D01*
X123592237Y-86117000D01*
X123845847Y-86117000D01*
X123855386Y-86179107D01*
X123885802Y-86244582D01*
X123942055Y-86315765D01*
X124043985Y-86403760D01*
X124181457Y-86493071D01*
X124361810Y-86583430D01*
X124317862Y-86394085D01*
X124248299Y-86200030D01*
X124182611Y-86081981D01*
X124109385Y-86004917D01*
X124046254Y-85968255D01*
X123984602Y-85956813D01*
X123928259Y-85967831D01*
X123884426Y-86000154D01*
X123856104Y-86049139D01*
X123845847Y-86117000D01*
X123592237Y-86117000D01*
X123578182Y-86034763D01*
X123596023Y-85932590D01*
X123646289Y-85858542D01*
X123725385Y-85811670D01*
X123842513Y-85794245D01*
X123977225Y-85809767D01*
G37*
D10*
X125934104Y-104709663D02*
X125362676Y-104709663D01*
X125648390Y-105709663D02*
X125648390Y-104709663D01*
X125124580Y-104709663D02*
X124457914Y-105709663D01*
X124457914Y-104709663D02*
X125124580Y-105709663D01*
X126745853Y-58868752D02*
X126745853Y-59202085D01*
X127269663Y-59344942D02*
X127269663Y-58868752D01*
X127269663Y-58868752D02*
X126269663Y-58868752D01*
X126269663Y-58868752D02*
X126269663Y-59344942D01*
X127269663Y-59773514D02*
X126269663Y-59773514D01*
X126269663Y-59773514D02*
X127269663Y-60344942D01*
X127269663Y-60344942D02*
X126269663Y-60344942D01*
X126317282Y-64302561D02*
X126269663Y-64207323D01*
X126269663Y-64207323D02*
X126269663Y-64064466D01*
X126269663Y-64064466D02*
X126317282Y-63921609D01*
X126317282Y-63921609D02*
X126412520Y-63826371D01*
X126412520Y-63826371D02*
X126507758Y-63778752D01*
X126507758Y-63778752D02*
X126698234Y-63731133D01*
X126698234Y-63731133D02*
X126841091Y-63731133D01*
X126841091Y-63731133D02*
X127031567Y-63778752D01*
X127031567Y-63778752D02*
X127126805Y-63826371D01*
X127126805Y-63826371D02*
X127222044Y-63921609D01*
X127222044Y-63921609D02*
X127269663Y-64064466D01*
X127269663Y-64064466D02*
X127269663Y-64159704D01*
X127269663Y-64159704D02*
X127222044Y-64302561D01*
X127222044Y-64302561D02*
X127174424Y-64350180D01*
X127174424Y-64350180D02*
X126841091Y-64350180D01*
X126841091Y-64350180D02*
X126841091Y-64159704D01*
X127269663Y-64778752D02*
X126269663Y-64778752D01*
X126269663Y-64778752D02*
X127269663Y-65350180D01*
X127269663Y-65350180D02*
X126269663Y-65350180D01*
X127269663Y-65826371D02*
X126269663Y-65826371D01*
X126269663Y-65826371D02*
X126269663Y-66064466D01*
X126269663Y-66064466D02*
X126317282Y-66207323D01*
X126317282Y-66207323D02*
X126412520Y-66302561D01*
X126412520Y-66302561D02*
X126507758Y-66350180D01*
X126507758Y-66350180D02*
X126698234Y-66397799D01*
X126698234Y-66397799D02*
X126841091Y-66397799D01*
X126841091Y-66397799D02*
X127031567Y-66350180D01*
X127031567Y-66350180D02*
X127126805Y-66302561D01*
X127126805Y-66302561D02*
X127222044Y-66207323D01*
X127222044Y-66207323D02*
X127269663Y-66064466D01*
X127269663Y-66064466D02*
X127269663Y-65826371D01*
X127809819Y-105719663D02*
X128143152Y-105243472D01*
X128381247Y-105719663D02*
X128381247Y-104719663D01*
X128381247Y-104719663D02*
X128000295Y-104719663D01*
X128000295Y-104719663D02*
X127905057Y-104767282D01*
X127905057Y-104767282D02*
X127857438Y-104814901D01*
X127857438Y-104814901D02*
X127809819Y-104910139D01*
X127809819Y-104910139D02*
X127809819Y-105052996D01*
X127809819Y-105052996D02*
X127857438Y-105148234D01*
X127857438Y-105148234D02*
X127905057Y-105195853D01*
X127905057Y-105195853D02*
X128000295Y-105243472D01*
X128000295Y-105243472D02*
X128381247Y-105243472D01*
X127476485Y-104719663D02*
X126809819Y-105719663D01*
X126809819Y-104719663D02*
X127476485Y-105719663D01*
X126259663Y-61243514D02*
X126259663Y-61862561D01*
X126259663Y-61862561D02*
X126640615Y-61529228D01*
X126640615Y-61529228D02*
X126640615Y-61672085D01*
X126640615Y-61672085D02*
X126688234Y-61767323D01*
X126688234Y-61767323D02*
X126735853Y-61814942D01*
X126735853Y-61814942D02*
X126831091Y-61862561D01*
X126831091Y-61862561D02*
X127069186Y-61862561D01*
X127069186Y-61862561D02*
X127164424Y-61814942D01*
X127164424Y-61814942D02*
X127212044Y-61767323D01*
X127212044Y-61767323D02*
X127259663Y-61672085D01*
X127259663Y-61672085D02*
X127259663Y-61386371D01*
X127259663Y-61386371D02*
X127212044Y-61291133D01*
X127212044Y-61291133D02*
X127164424Y-61243514D01*
X127164424Y-62291133D02*
X127212044Y-62338752D01*
X127212044Y-62338752D02*
X127259663Y-62291133D01*
X127259663Y-62291133D02*
X127212044Y-62243514D01*
X127212044Y-62243514D02*
X127164424Y-62291133D01*
X127164424Y-62291133D02*
X127259663Y-62291133D01*
X126259663Y-62672085D02*
X126259663Y-63291132D01*
X126259663Y-63291132D02*
X126640615Y-62957799D01*
X126640615Y-62957799D02*
X126640615Y-63100656D01*
X126640615Y-63100656D02*
X126688234Y-63195894D01*
X126688234Y-63195894D02*
X126735853Y-63243513D01*
X126735853Y-63243513D02*
X126831091Y-63291132D01*
X126831091Y-63291132D02*
X127069186Y-63291132D01*
X127069186Y-63291132D02*
X127164424Y-63243513D01*
X127164424Y-63243513D02*
X127212044Y-63195894D01*
X127212044Y-63195894D02*
X127259663Y-63100656D01*
X127259663Y-63100656D02*
X127259663Y-62814942D01*
X127259663Y-62814942D02*
X127212044Y-62719704D01*
X127212044Y-62719704D02*
X127164424Y-62672085D01*
X119331904Y-72934663D02*
X119331904Y-73744186D01*
X119331904Y-73744186D02*
X119284285Y-73839424D01*
X119284285Y-73839424D02*
X119236666Y-73887044D01*
X119236666Y-73887044D02*
X119141428Y-73934663D01*
X119141428Y-73934663D02*
X118950952Y-73934663D01*
X118950952Y-73934663D02*
X118855714Y-73887044D01*
X118855714Y-73887044D02*
X118808095Y-73839424D01*
X118808095Y-73839424D02*
X118760476Y-73744186D01*
X118760476Y-73744186D02*
X118760476Y-72934663D01*
X117808095Y-72934663D02*
X118284285Y-72934663D01*
X118284285Y-72934663D02*
X118331904Y-73410853D01*
X118331904Y-73410853D02*
X118284285Y-73363234D01*
X118284285Y-73363234D02*
X118189047Y-73315615D01*
X118189047Y-73315615D02*
X117950952Y-73315615D01*
X117950952Y-73315615D02*
X117855714Y-73363234D01*
X117855714Y-73363234D02*
X117808095Y-73410853D01*
X117808095Y-73410853D02*
X117760476Y-73506091D01*
X117760476Y-73506091D02*
X117760476Y-73744186D01*
X117760476Y-73744186D02*
X117808095Y-73839424D01*
X117808095Y-73839424D02*
X117855714Y-73887044D01*
X117855714Y-73887044D02*
X117950952Y-73934663D01*
X117950952Y-73934663D02*
X118189047Y-73934663D01*
X118189047Y-73934663D02*
X118284285Y-73887044D01*
X118284285Y-73887044D02*
X118331904Y-73839424D01*
X137580952Y-72330853D02*
X137438095Y-72378472D01*
X137438095Y-72378472D02*
X137390476Y-72426091D01*
X137390476Y-72426091D02*
X137342857Y-72521329D01*
X137342857Y-72521329D02*
X137342857Y-72664186D01*
X137342857Y-72664186D02*
X137390476Y-72759424D01*
X137390476Y-72759424D02*
X137438095Y-72807044D01*
X137438095Y-72807044D02*
X137533333Y-72854663D01*
X137533333Y-72854663D02*
X137914285Y-72854663D01*
X137914285Y-72854663D02*
X137914285Y-71854663D01*
X137914285Y-71854663D02*
X137580952Y-71854663D01*
X137580952Y-71854663D02*
X137485714Y-71902282D01*
X137485714Y-71902282D02*
X137438095Y-71949901D01*
X137438095Y-71949901D02*
X137390476Y-72045139D01*
X137390476Y-72045139D02*
X137390476Y-72140377D01*
X137390476Y-72140377D02*
X137438095Y-72235615D01*
X137438095Y-72235615D02*
X137485714Y-72283234D01*
X137485714Y-72283234D02*
X137580952Y-72330853D01*
X137580952Y-72330853D02*
X137914285Y-72330853D01*
X137009523Y-71854663D02*
X136342857Y-71854663D01*
X136342857Y-71854663D02*
X137009523Y-72854663D01*
X137009523Y-72854663D02*
X136342857Y-72854663D01*
X135438095Y-72854663D02*
X136009523Y-72854663D01*
X135723809Y-72854663D02*
X135723809Y-71854663D01*
X135723809Y-71854663D02*
X135819047Y-71997520D01*
X135819047Y-71997520D02*
X135914285Y-72092758D01*
X135914285Y-72092758D02*
X136009523Y-72140377D01*
D12*
%TO.C,U5*%
X115810000Y-74320000D02*
X115810000Y-74590000D01*
X115810000Y-79840000D02*
X115810000Y-79570000D01*
X118570000Y-74320000D02*
X115810000Y-74320000D01*
X118570000Y-74320000D02*
X121330000Y-74320000D01*
X118570000Y-79840000D02*
X115810000Y-79840000D01*
X118570000Y-79840000D02*
X121330000Y-79840000D01*
X121330000Y-74320000D02*
X121330000Y-74590000D01*
X121330000Y-79840000D02*
X121330000Y-79570000D01*
X122095000Y-74590000D02*
X121855000Y-74260000D01*
X122335000Y-74260000D01*
X122095000Y-74590000D01*
G36*
X122095000Y-74590000D02*
G01*
X121855000Y-74260000D01*
X122335000Y-74260000D01*
X122095000Y-74590000D01*
G37*
%TO.C,BZ1*%
X131800000Y-73200000D02*
X142000000Y-73200000D01*
X131800000Y-80500000D02*
X131800000Y-76700000D01*
X142000000Y-73200000D02*
X142000000Y-74100000D01*
X142000000Y-74100000D02*
X143000000Y-74100000D01*
X142000000Y-76700000D02*
X142000000Y-80500000D01*
X142000000Y-83400000D02*
X131800000Y-83400000D01*
%TD*%
M02*
